/* XPM */
static char *result[] = {
/* columns rows colors chars-per-pixel */
"64 64 231 2 ",
"   c #07090A",
".  c #382618",
"X  c #3A321D",
"o  c #2F2017",
"O  c #2A1E17",
"+  c #442A1A",
"@  c #4A2D1B",
"#  c #432817",
"$  c #41341E",
"%  c #5B341E",
"&  c #53321D",
"*  c #502F1C",
"=  c #63371E",
"-  c #473C23",
";  c #5A3824",
":  c #653920",
">  c #6B3D26",
",  c #723E21",
"<  c #394827",
"1  c #35552D",
"2  c #385D32",
"3  c #2E4825",
"4  c #396536",
"5  c #396B37",
"6  c #3B6438",
"7  c #3B6C39",
"8  c #376534",
"9  c #3D743C",
"0  c #3F793D",
"q  c #474828",
"w  c #584528",
"e  c #42542D",
"r  c #49562E",
"t  c #465B32",
"y  c #595B31",
"u  c #544936",
"i  c #694528",
"p  c #784528",
"a  c #784931",
"s  c #695433",
"d  c #436D3A",
"f  c #496837",
"g  c #566636",
"h  c #41763F",
"j  c #4C743D",
"k  c #41793F",
"l  c #696236",
"z  c #766738",
"x  c #78743D",
"c  c #484847",
"v  c #6C5646",
"b  c #765C4C",
"n  c #446D41",
"m  c #447441",
"M  c #437C41",
"N  c #497C45",
"B  c #4C7C4A",
"V  c #4A7547",
"C  c #597A56",
"Z  c #547B50",
"A  c #717351",
"S  c #587B61",
"D  c #71756B",
"F  c #854A2C",
"G  c #8A4A28",
"H  c #954F2B",
"J  c #9B522C",
"K  c #96532E",
"L  c #874F32",
"P  c #9A5634",
"I  c #8C5236",
"U  c #A6572D",
"Y  c #AA5A32",
"T  c #A55A34",
"R  c #B35D33",
"E  c #BA5F34",
"W  c #B25C2E",
"Q  c #916837",
"!  c #A86238",
"~  c #BB6233",
"^  c #B56439",
"/  c #B7602F",
"(  c #C46534",
")  c #CB6B3B",
"_  c #C76938",
"`  c #D26D3A",
"'  c #D76D38",
"]  c #CE713F",
"[  c #DB733A",
"{  c #D6723A",
"}  c #E4733D",
"|  c #EA7A3D",
" . c #E9763C",
".. c #F37E3F",
"X. c #935D44",
"o. c #916A4F",
"O. c #B76943",
"+. c #AF6E4F",
"@. c #90786A",
"#. c #AA7C69",
"$. c #D57541",
"%. c #D97A47",
"&. c #CB7448",
"*. c #E77A42",
"=. c #FD7D43",
"-. c #F47A42",
";. c #E87F52",
":. c #41803F",
">. c #448242",
",. c #498546",
"<. c #468843",
"1. c #498A46",
"2. c #4C8449",
"3. c #4C8B4A",
"4. c #51864E",
"5. c #4D914B",
"6. c #51924E",
"7. c #578856",
"8. c #559552",
"9. c #5A9557",
"0. c #658557",
"q. c #668B66",
"w. c #689768",
"e. c #758B74",
"r. c #769878",
"t. c #738E6D",
"y. c #6B9770",
"u. c #FC833F",
"i. c #8A857A",
"p. c #99847A",
"a. c #919B79",
"s. c #AE816E",
"d. c #87A47F",
"f. c #AB8259",
"g. c #D1835A",
"h. c #E6824B",
"j. c #F58141",
"k. c #FE8542",
"l. c #FC8949",
"z. c #E98959",
"x. c #FA8D58",
"c. c #F89159",
"v. c #C88869",
"b. c #D99875",
"n. c #CA8E70",
"m. c #F0996D",
"M. c #FCA578",
"N. c #ECA076",
"B. c #727D87",
"V. c #72888A",
"C. c #7EA280",
"Z. c #7F92A3",
"A. c #838688",
"S. c #849884",
"D. c #889298",
"F. c #959B9A",
"G. c #95948A",
"H. c #A48D83",
"J. c #AC968B",
"K. c #B7998C",
"L. c #AB9793",
"P. c #97AA96",
"I. c #8FA689",
"U. c #AEA89C",
"Y. c #889AA7",
"T. c #929EA4",
"R. c #A19EA0",
"E. c #93A4AC",
"W. c #9BA7AC",
"Q. c #9AABB6",
"!. c #8EA3AD",
"~. c #A6A6A5",
"^. c #B5ADA9",
"/. c #A6ADB4",
"(. c #A8B3BA",
"). c #BBB6B5",
"_. c #B7B7B9",
"`. c #ACB5A9",
"'. c #D7A78A",
"]. c #CDA58F",
"[. c #E6AC8E",
"{. c #FCB997",
"}. c #FBB189",
"|. c #C8B3AB",
" X c #D7B6A3",
".X c #C6BCB7",
"XX c #C4ACA8",
"oX c #F8BBA5",
"OX c #B5C2AF",
"+X c #FFC09E",
"@X c #C9C2BB",
"#X c #CFC4B6",
"$X c #FBC5A9",
"%X c #FCCCB6",
"&X c #EECBB8",
"*X c #ADBBC5",
"=X c #AAB6C2",
"-X c #B5BCC3",
";X c #B9BEC4",
":X c #B6C1CB",
">X c #BBC2C8",
",X c #BBC8D2",
"<X c #C6C6C5",
"1X c #CBC6C2",
"2X c #C8C9CB",
"3X c #D2C9C4",
"4X c #D6CCC7",
"5X c #DDD2CB",
"6X c #C3CCD4",
"7X c #CBD4DB",
"8X c #D5D6D8",
"9X c #E2D4CD",
"0X c #FBD7C6",
"qX c #ECDDD5",
"wX c #E4D8D1",
"eX c #F7DED3",
"rX c #EAE1DC",
"tX c #F4E6DF",
"yX c #D7DDE3",
"uX c #E2DFE1",
"iX c #DEE2E6",
"pX c #EAECEE",
"aX c #E6E6E8",
"sX c #F5EBE7",
"dX c #ECEEF0",
"fX c #EEF1F2",
"gX c #F2F3F4",
"hX c #F6F7F8",
"jX c #F6F9FA",
"kX c #FDFDFD",
"lX c #FEF8F4",
/* pixels */
">.>.>.>.:.:.M :.M >.M :.M M M M M M M M M 0 0 h h h n 9 h h M h M M M M 0 M M M M :.>.>.>.<.>.>.>.<.>.<.<.<.<.:.<.<.<.:.<.<.<.<.",
">.<.>.M :.>.>.:.>.M :.M M M M 0 M M M M h h M h h h h h h h M M M M M M M h M 2.M >.>.>.>.:.>.>.>.>.:.<.<.<.<.<.:.<.<.:.<.:.>.>.",
"<.,.>.:.:.M M >.>.:.M :.M M :.>.M :.M h h 0 M M h h h h h M M M M M M M 0 M B 3.M >.>.>.3.8.6.>.:.>.<.<.<.<.<.<.<.<.<.<.>.>.>.>.",
">.<.>.>.M M M M M M M M M M >.M M M M 0 9 n M B h n h 9 h h h M M h h h M 0 M >.>.>.>.<.9.r.y.,.:.>.<.<.<.<.<.<.<.:.<.:.>.>.>.>.",
">.>.>.:.M M >.M M M M M M M :.M M M B n h h h M h h h h 0 0 M h M M M h h M M M :.>.>.<.3.7.4.>.>.>.>.<.<.<.>.<.>.<.<.<.<.>.>.>.",
">.>.:.M M M M M M M M >.>.>.M M M M M 9 h h h h h h M h h M M 0 h M h M M M M M >.>.>.0 >.M M M >.>.,.,.<.<.<.<.<.<.5.1.<.<.>.>.",
">.M M M 0 m >.M :.>.3.3.,.M M M M M h h h h h h M M h h h M h h h 0 M h 0 h h M M >.M M M k M >.:.M :.>.>.<.<.<.>.<.5.<.1.<.>.M ",
">.M 0 M M M 3.<.>.5.5.,.>.0 h 0 M M h h n 9 9 h h h h h h h h M M h 0 h M h h M M k M k k M M >.M k M >.:.,.,.>.<.<.5.>.3.2.,.>.",
">.:.k M k j 6.5.8.5.3.>.M M 9 m M k k h h h h h h 9 h h h h h k h 0 M h 0 m 0 m M M M h k k M N 2.M h ,.>.>.>.>.<.1.5.<.1.1.>.>.",
"k M M M k ,.8.8.8.2.2.>.M m m M M M M h h h h 9 h h h 9 h h h h 0 h 0 M M m 0 0 0 M h h h h h M <.2.h M M k >.>.>.5.5.1.5.<.>.M ",
">.k k k m N 9.8.3.2.>.M M h M M M h h M h h h h 9 k h k h h h k M h h M M h 2 n 0 0 0 m h h 0 k N 3.>.M M k k >.<.5.3.1.1.,.,.>.",
"M :.k k N 2.6.7.B >.M M h m m M h M h h h h h h h h h k h h h k h h M h 9 - ; t M h 0 0 h 0 h m M 1.3.M ,.k k >.,.6.1.5.1.,.,.>.",
"k :.,.3.B 4.4.2.N N M M h h M M m h h h 0 h m M k k k k h k h k h 0 m n u @.o.q h h h k 0 h h 9 k ,.6.,.,.2.4.7.7.4.3.3.,.,.>.>.",
">.k >.2.N 4.2.N M M M 0 m M M h h h k M M 0 m M :.k k k h k h k M h n ; G.4XK.- 9 h h h h 0 h 0 h M 3.6.7.q.t.S.r.w.3.3.3.3.<.M ",
"k m h V n Z 2.B ,.M M m m M m h h h n B M m m M ,.M h h k h k k h n < @.1X8X.X; d m M m h m 2.7.C q.q.q.q.t.V.C.I.I.w.3.6.3.>.N ",
"m m m d n V B B M M j < t 7 9 h h n 7 n M h M >.>.k k k h k j k h 1 b .X<X8X5Xv d m m N C e.R.^..X#X@X`.F.e.q.e.e.w.q.6.3.,.>.M ",
"j n n n n m m V M M d + v v u e f 9 h k k k M >.:.k k j j N Q d e , K.<X1X8XrXA f 0 Z a.R.).#X4XwXqXrXqX9X3XG.C C C 7.2.>.>.M N ",
"M m j m h m M k M h n $ @.(.R.@.u q d k k k M M k k k Q Q x Q t ; O. X1X<X8XsX@.j 0.b.'.|.3X9XqXrXqXwX9XwXwX5X`.C V m j M >.:.:.",
"M M h k k M k M k M M - b *X=X-X^.@.; q h k k h k k l / Q ! ! s K g.'..X<X2XdXp.z b.m.b.&X9XeXrXwX4X3X3X3X4X5XwXI.j h k >.>.>.j ",
"k M k k k M k m m M M 2 c _.*X=X;X;XU.b : g k k k z _ _ ! ' ^ T _ $.&.'.1X1XdXL.X.g.g.z.+X%X0X9X@X@X).)._..X1X5X9X0.h k k k >.>.",
"M k M k k k M M h M M 6 ; R.;X(._._.<X#Xs.! z z Q { u._ h.u.{ h.*.[ %.N.[.&XlXK.I &.$.h.m.$X%X9X3X^.R.F.R.^.@X5XtXa.h k k M M k ",
":.M k M M M M h M M h h - i.<X_.|.].^. X[.z.[ } u.u.u.u.u.u.u.u.k.k.k.j.c.{.0XJ.p ^ ) $.z.M.&X#X@X~.D.D.F.^.).4XtXU.k M M k k k ",
">.k M k h M m k h M m m q b ;X-X|.v.+.g.h.l.k.u.u.l.u.u.u.u.l.u.k.k.l.u...x.0XJ.a T ^ $.h.c.N. X.X~.A.V.V.F.R.).qX#Xh M k M h k ",
">.k M M h m M M M M M V n - ^.-X|.n.^ | u.k.k.k.u.l.u.u.u.u.u.u.k.k.k.k...z.oX@.p P ^ _ ] *.j.m.'.K.7.Z C q.A.~.#XOXk h h j h k ",
">.M k M M M M M M M h M 0 - A..Xn.%.$.| k.k.k.k.k.k.k.k.u.l.u.u.k.k.k.k.k.-.[.o.> L X.R &.$.} ;.v.f.h M h h 4.F.@Xd.k k k k k k ",
":.k 0 >.M M >.N k k h M M t b ).s.' { j.k.j.k.k.k.k.k.k.u.l.u.l.k.k.k.k.=.-.;.X.> v L Y E $.*.;.g.o.0 0 M M m t.r.9.M k M N >.:.",
">.0 M M M m ,.M k k k M M m ; J.#._ [ j.u.u.k.k.k.k.k.k.u.u.u.l.k.k.k.k.=.-.;.X.> > F P R &.$.$.g.4.m 0 M M m M :.:.j k k M M k ",
"0 >.M k M M M M k k h M M m t o.+.! { u.k.k.k.k.k.k.k.k.u.l.u.u.k.k.k.k.=.-.;.T > > F P R &.( O.! h M M M M M M :.j k k h k k k ",
"M M M 0 M M M M k M M k h M d a +.O.' -.=.k.k.k.k.k.k.k.k.k.u.u.k.k.-.k.=.=.*.T H , L P T T T T l k k k M >.M M M M k k j M h k ",
"M M M k M M M M k M k h h M k q I R '  .k.k.k.k.k.k.k.k.k.k.l.u.k.~ i L =.=.-.( J J a I P P P L h k k :.M <.>.M k k M k M h h k ",
">.0 M M M M M m M k M k M M h t G R ) } =.k.k.k.k.k.k.k.k.k.k.l.[ - . & -.=.=.*.U Y F a I L a g k k k >.>.,.N k M M k M k k k k ",
"0 >.M M 0 M M h h M k k h h h 7 F W ( } _ U _ k.k.k.k.k.k.u.u.k. .% o p k.=.=.-.) R J a a y j k k k k >.,.,.M M M k M k >.M M M ",
"M >.M m M M M h k k 0 k k h k d , Y ( ' ; . . / u.u.k.l.l.c.x.k.k.' W u.u.u.u.k.=.%.T s f m k k k M M >.,.>.M h M M M M M :.M M ",
":.0 M M m 0 m M k 0 h 0 k k k d i U E ' p O o H { h.c.}.+X+X$X%X+X}.M.M.l.u.l.c.}.}.'.b M m k k k k k M >.M M M M M M M M :.M M ",
"M :.M M 0 M k k 0 m h k k h k h i Y E ) _ G G ( %.b.&XG.u c ).kXlXsXeX%X%X$X%X%X%X0X0X#XS.2.k k k 0 k M >.>.M :.M M :.M :.:.:.:.",
">.0 M 0 M m m k m 0 h k k k k h p Y E ) [ | ` v.].4XA.    c 2XkXkXlXlXlXlXkXkXlXsXaXuXuXOX2.k k k M M M :.>.>.>.:.M :.:.>.<.>.<.",
"k :.k k k k M k 0 0 h 0 h k k d F W ( ' } %.n. X2XuX<Xe.D <XkXkXkXkXkXkXkXkXkXpXuXuX2XA ,.k k 0 k M :.M :.:.:.>.:.:.>.>.>.<.<.>.",
"k k k :.k m h m 0 m h 0 k k k r T &.` *.x.[.9XqXaXfXkXkXjXkXkXkXkXkXkXkXkXkXfXqX8X6XK.a k k M M 0 M M M :.:.:.>.:.:.M >.>.>.<.<.",
"M k k k h h k m 0 h h 0 k k d b #.m.[.oXeXsXhXgXhXjXkXkXkXjXjXjXjXhXhXhXjXhXpX7X*XL.R z k M M M M M M :.:.>.>.M :.:.:.:.:.:.<.:.",
"M M k k h h k h h m 0 M j Z 0.^.XX3XtXlXkXhXhXgXgXhXhXhXjXfXfXfXgXgXgXgXgXdXyX*XL.! K l M M >.M M M M M :.>.>.>.:.:.M M :.<.<.>.",
"M k m h 0 h h h h h h M M q.Y.Q.;X2XyXaXpXdXdXdXfXfXgXhXgXfXfXfXgXfXfXdXpXiX:Xs.O.J K l M >.,.M M M M <.:.>.>.>.B :.:.:.>.>.>.>.",
">.M M M m M 0 h h h M M k M 7.V.Y.=X;X,X,X7XyXpXpXdXpXpXdXdXpXdXpXpXaXiXyX:Xp.W Y K F l >.>.>.M :.M :.>.>.>.>.:.:.>.:.>.>.>.>.>.",
">.>.M M m M M h h h k M k h h B S Z.!.=X=X*X,X7XyXaXiXyXyXyXyXyXyX7X7X,X:Xs.^ ~ ^ G p g M 3.,.M 0 M >.>.>.>.>.:.:.>.>.>.>.>.>.:.",
"k >.>.M 0 0 m h h k k k h k h M n Z V.Z.Q.Q.(.=X*X6X7XyX7X7X6X6X,X:X:X*X~.^ ^ ^ W p : r 0 >.,.0 :.M >.<.>.>.:.<.>.,.1.>.B >.>.>.",
"M M >.N m k k h 0 m 0 h h 0 M 0 k >.V S B.Z.!.Q.Q.=X=X*X:X*X*X:X=X(.W.(.J.^ ~ ` U = & r 9 0 ,.h 9 0 :.M M :.:.>.>.1.,.>.M >.>.>.",
"M M M M k k k k m M k k h h 0 k k k j k t u D B.Y.Y.Y.E.E.W.W.W.T.!.`.>Xn.h.u.[ G & @ e 7 9 >.h 7 9 M 0 0 0 :.>.<.,.>.>.:.>.M B ",
">.M k k h k k h h h 0 h 0 0 0 M k M k k n : = , D Z.D.T.Y.Y.E.E.Q.Q.:X<X'.h.[ _ p + + e 7 h >.M 9 M 0 9 9 9 :.>.<.>.>.>.M ,.M >.",
">.:.M h h h k m h M h h h M k M M k k m V u F J X.A.F.W.W.Q.Q.Q.:X(.>XK.g.u.} ! w + q 2 7 7 M M 9 >.0 7 9 0 :.>.3.1.>.>.M >.M >.",
"k >.:.k k k k h M h m 0 m h 0 M k k :.k k f p W W Q @.p.`.(.Q.Q.:X^.K.+.' | ~ s t t 6 6 6 9 M M M M 9 7 V 7.9.3.5.1.M >.>.>.M >.",
">.:.:.:.k k M h h h h h 0 h m M k k k k j :.g / _ W / / J.(.(.(.`.t.+./ _ _ i g 7 7 M m 7 m m N >.B 9 7 q.P.`.P.y.,.>.M N >.>.N ",
":.>.>.:.M M M M k h h h h M M 0 k :.:.0 :.k g W } ` _ ( ^ f.i.r.n w U U / H q 5 6 6 m m n 7 h M ,.>.>.n q.e.i.V.y.2.M >.M >.>.M ",
">.>.>.M M M m M M m h k m M 0 M 0 :.0 0 k j j p }  .} | ' ( i 8 4 ; J H U , e 8 6 6 6 7 m m m M M >.,.B m Z C Z 2.>.M >.,.M ,.>.",
">.<.>.:.k k N ,.M k k k 0 0 0 M :.:.0 :.5 k 5 s ) .. . .[ E w 5 3 ; F p G i 8 5 4 6 6 7 m m m m B M >.M m M M M k k :.N M >.>.M ",
">.:.>.k k k M ,.M k m k 0 M 0 9 5 0 5 5 5 d 5 y U } ' ' ( J $ 8 3 % , , , w 5 5 4 4 6 6 7 n m N >.M >.M M M M M k N :.>.>.N >.>.",
":.:.>.>.>.>.M ,.N M h k 0 9 9 7 5 5 5 5 5 5 5 f p ( ( ( / J $ 8 X @ % = = q 8 5 4 4 6 7 0 M M 0 :.>.M M M M M M :.>.:.:.N >.N >.",
">.:.k :.k k >.2.>.h k 0 0 9 7 5 5 5 5 5 5 5 5 f i U T R U G $ 1 . # @ & & q 8 5 5 5 0 M :.>.:.:.:.>.:.>.M M M M >.j N >.>.>.M >.",
">.>.k >.>.M M ,.,.M :.0 0 7 5 5 5 5 5 5 5 5 5 5 w G J J G p $ 1 X . # @ @ $ 8 5 5 9 0 >.>.>.:.<.>.:.k >.M k M M >.M >.>.N >.N :.",
">.>.:.k k M M >.>.M 0 k 0 5 7 7 5 5 5 5 5 5 5 5 q = p , = = $ 1 < . . # # - 5 5 5 0 0 >.>.:.<.>.>.>.:.>.k M ,.,.M >.:.N :.>.>.>.",
">.>.:.M M k h k k :.:.k h m 7.q.k 5 5 5 5 5 5 8 X & = % * # . < 8 < X X < 8 4 5 9 M >.>.>.:.<.<.>.:.:.j N k M M M M >.>.:.:.N :.",
">.:.k M k k M M :.>.:.M m 9 n V :.5 5 5 9 5 5 1 # @ * * + . # 3 6 4 2 8 6 4 5 9 0 :.:.>.>.>.>.>.:.k >.k k >.>.>.M >.N >.,.N >.>.",
">.k :.:.:.k >.:.:.>.>.:.M >.M h k 5 5 5 9 5 5 < @ # @ @ + . . 1 4 5 5 4 7 5 9 h M M M >.>.>.>.>.>.k >.:.>.>.M M >.>.:.N j >.>.>.",
":.>.>.>.>.:.:.>.>.:.<.>.>.>.k k k k 0 9 0 9 9 2 $ # @ . o X 1 8 5 5 5 7 9 9 k k M 0 M :.>.>.>.>.>.k >.k k :.>.M >.j >.>.>.>.N >.",
">.>.>.:.>.:.:.<.<.>.>.<.>.<.>.:.:.:.k k k 0 0 0 5 r < 1 2 5 7 5 7 9 9 9 k k k k M M :.>.>.>.>.>.:.M k :.k >.>.N >.>.:.>.:.N >.>.",
">.<.>.>.>.:.>.:.>.<.<.>.<.>.>.M :.:.:.:.:.:.:.0 k 9 0 9 9 9 9 0 0 0 k M k k M M M :.M >.>.:.>.>.>.k :.>.>.k >.>.>.M N >.>.>.>.M "
};
