/* XPM */
static char *result[] = {
/* columns rows colors chars-per-pixel */
"64 64 227 2 ",
"   c #000204",
".  c #3D2617",
"X  c #3A2719",
"o  c #38351E",
"O  c #2D2018",
"+  c #393D21",
"@  c #271C15",
"#  c #452A1A",
"$  c #4B2D1A",
"%  c #422716",
"&  c #502E1A",
"*  c #47311E",
"=  c #57331D",
"-  c #66381E",
";  c #493A23",
":  c #543922",
">  c #643A21",
",  c #6B3C23",
"<  c #733E22",
"1  c #364726",
"2  c #36562D",
"3  c #3B5E31",
"4  c #365D32",
"5  c #376535",
"6  c #396536",
"7  c #396B37",
"8  c #3B6538",
"9  c #3B6C39",
"0  c #3D733B",
"q  c #3F793D",
"w  c #434325",
"e  c #474B29",
"r  c #594A28",
"t  c #47542D",
"y  c #5A4735",
"u  c #435E32",
"i  c #455530",
"p  c #5A5C35",
"a  c #55562E",
"s  c #654328",
"d  c #794526",
"f  c #67553C",
"g  c #6B5035",
"h  c #446435",
"j  c #436D3A",
"k  c #4D6838",
"l  c #576A38",
"z  c #41763F",
"x  c #41793F",
"c  c #6B6939",
"v  c #535455",
"b  c #6D5A4C",
"n  c #446D40",
"m  c #4C6D49",
"M  c #516C4B",
"N  c #437441",
"B  c #487444",
"V  c #437C40",
"C  c #4A7C46",
"Z  c #4D7D49",
"A  c #4C764B",
"S  c #53784D",
"D  c #586758",
"F  c #567A57",
"G  c #687149",
"H  c #66706C",
"J  c #587F6E",
"K  c #8C4B2A",
"L  c #844727",
"P  c #96512C",
"I  c #9D532C",
"U  c #9A5B35",
"Y  c #8B512F",
"T  c #A4552D",
"R  c #B45E2D",
"E  c #AB5D35",
"W  c #B45D33",
"Q  c #B95E33",
"!  c #906B3F",
"~  c #BA6233",
"^  c #B86539",
"/  c #B06936",
"(  c #C36535",
")  c #CA6837",
"_  c #D36B3A",
"`  c #D76B38",
"'  c #DB723B",
"]  c #D77138",
"[  c #E86B3E",
"{  c #E3743C",
"}  c #EB763D",
"|  c #EA7A3D",
" . c #E57B3F",
".. c #F37F3F",
"X. c #C25D32",
"o. c #8E6C50",
"O. c #AF7250",
"+. c #8B7872",
"@. c #927364",
"#. c #A06D56",
"$. c #C97244",
"%. c #D47549",
"&. c #CF7752",
"*. c #EB7A43",
"=. c #FD7D43",
"-. c #F67A45",
";. c #EF744A",
":. c #C07C60",
">. c #448242",
",. c #498546",
"<. c #468843",
"1. c #498946",
"2. c #4C8449",
"3. c #4C8C4A",
"4. c #51864D",
"5. c #4D914B",
"6. c #51934E",
"7. c #548D53",
"8. c #598558",
"9. c #549552",
"0. c #5B9359",
"q. c #668967",
"w. c #6A9769",
"e. c #738C72",
"r. c #759878",
"t. c #6F8A6A",
"y. c #769563",
"u. c #FE823E",
"i. c #F5813F",
"p. c #888D75",
"a. c #A7887C",
"s. c #B98B77",
"d. c #BFA67B",
"f. c #A58951",
"g. c #C8845A",
"h. c #D38459",
"j. c #F58242",
"k. c #FE8542",
"l. c #FF8944",
"z. c #F6854A",
"x. c #E88457",
"c. c #FA8C57",
"v. c #FF935B",
"b. c #F6915B",
"n. c #EE8247",
"m. c #D49574",
"M. c #FB9969",
"N. c #F89A72",
"B. c #EF8E63",
"V. c #FDA678",
"C. c #F9AA78",
"Z. c #6D7F85",
"A. c #758386",
"S. c #72898D",
"D. c #7EA280",
"F. c #839984",
"G. c #8E8F92",
"H. c #B5978A",
"J. c #A59B98",
"K. c #AA8F83",
"L. c #90AB8F",
"P. c #B3A298",
"I. c #8A9BA7",
"U. c #919DA2",
"Y. c #98A7A9",
"T. c #9BACB7",
"R. c #9EB0B6",
"E. c #8EA3B3",
"W. c #A9A7A9",
"Q. c #B7ABA5",
"!. c #A5ADB6",
"~. c #A9B4BB",
"^. c #B8B6B9",
"/. c #AAB8A9",
"(. c #CC9B89",
"). c #D6A388",
"_. c #C7AB94",
"`. c #FAAA86",
"'. c #FDB28B",
"]. c #E8AF91",
"[. c #FABA9D",
"{. c #FCB797",
"}. c #F0B096",
"|. c #CEB4A8",
" X c #C4B7B4",
".X c #CFAFA2",
"XX c #EDBDA1",
"oX c #FEB9A0",
"OX c #ACC0A4",
"+X c #FFC29F",
"@X c #CEC4B7",
"#X c #FDC3A8",
"$X c #FCCCB6",
"%X c #F0CBBB",
"&X c #ADBBC5",
"*X c #A8B5C1",
"=X c #B4BDC5",
"-X c #BAC3CA",
";X c #BCC9D2",
":X c #C5C3C3",
">X c #CAC9C8",
",X c #C6CCD3",
"<X c #CAD3DA",
"1X c #C8D1D9",
"2X c #DBDCDC",
"3X c #D3D4D6",
"4X c #D7D3CC",
"5X c #F8D7C7",
"6X c #E5DBD7",
"7X c #F7DDD3",
"8X c #EFD9CE",
"9X c #E2E0DB",
"0X c #F9E5DA",
"qX c #D5DBE2",
"wX c #E2DEE0",
"eX c #DCE1E6",
"rX c #E1E5E9",
"tX c #E5E9EC",
"yX c #EBEBED",
"uX c #E9E5E4",
"iX c #F7EBE6",
"pX c #FCF1ED",
"aX c #ECEEF1",
"sX c #EEF1F2",
"dX c #F2F3F5",
"fX c #FDFDFD",
"gX c #F8F8F7",
/* pixels */
">.>.>.>.>.q >.>.>.q V >.q V q >.V V V V V V V 0 z 0 n N x z z V V V x V V V V V V V >.>.>.<.>.>.>.>.<.<.<.<.<.<.<.>.<.<.<.<.>.<.",
">.<.>.V >.>.>.q >.>.>.q V V V V V V V V V z x z z 0 z z z z V V x V V V x z >.,.>.V >.>.>.>.>.>.>.>.>.<.<.<.<.<.<.>.<.>.>.>.>.>.",
"<.<.>.V >.q V >.>.>.q >.V V q >.V V V z 0 N V A z z N z z C ,.V V V V V V N V 3.>.>.>.>.<.9.5.>.>.>.>.<.<.<.<.>.>.<.<.>.>.>.<.>.",
">.<.>.>.V >.q V q >.V V V q >.>.V V V z 0 z V V z z z z V 8.w.<.V x z z N V V ,.>.>.>.<.0.r.w.3.>.>.<.<.<.<.<.<.<.>.>.<.>.>.>.>.",
">.>.>.>.V V >.V V V V V >.V V V V V V N z z z z z z q z x S.OX0.V V z V V x V V x >.>.>.3.9.4.>.>.>.<.<.<.<.<.<.<.<.<.<.<.>.>.>.",
">.>.q V q V V V V V V >.>.>.V V V >.N z z N z z z z z q 5.Y.4XOXx x x x V V V V >.>.>.>.V V x x >.>.>.>.<.<.>.<.>.<.5.<.<.>.>.>.",
">.>.V V V V V >.>.>.3.3.>.V V V V V z z z z z z z V V q r.-XiX9X8.x V N N q q V V >.>.V V V V C q x >.>.>.1.<.<.>.<.5.<.<.<.>.>.",
"V V V V x V 3.,.>.5.5.,.>.V q q V z N z N 0 z z z z z J Y.eXpX0XL.x z q V N q V x V x x N V V ,.>.q x >.>.>.<.>.<.1.5.<.1.<.>.>.",
"V V x V N >.6.5.6.6.3.>.V V n V V N x z z z z z q q x A.:XuXpX0X@X6.V V x C x x x x x x x x x >.,.C N >.V >.>.>.<.1.5.<.1.<.>.>.",
">.V V V N ,.9.9.9.,.,.>.V N z V V x x x z z z z z q F Y.3XuXiX7X%Xp.x x x x x x x x x x z z x x ,.,.V V V V >.V <.3.5.1.5.<.>.>.",
"V V V x N C 9.9.4.,.>.V N z z V x x x z z n x z q z J :X6XiXiX5X$XP.,.x x x x z x q x z x z z z V 3.V V V V x >.<.5.3.3.3.,.>.V ",
"V V V V N 2.7.7.Z >.V V z N V V N x z V z 8 9 z N B A.>X6X7X7X5X+X+Xp.x x x z z q x x z z z z z V 3.3.V <.x x >.,.5.3.3.3.,.>.,.",
"V q <.1.Z 2.4.2.C >.V x z z V V z z z x 9 ; ; 5 V S G.4X5X8X$XoX+X'.d.z z z x x z z z z q z z z V >.9.,.,.2.4.0.7.7.3.1.<.,.>.>.",
">.>.>.2.A 4.4.A C C V x N V V z z z z x u * +.b h m J.%X[.%XoX{.{.C.C.y.>.z x x x z z q q z 0 z N V 3.6.6.q.r.p.r.w.3.,.3.3.,.V ",
"V N z B N Z 2.Z V V V x z x V n z z n A i y !.W.b y H.`.N.'.`.`.C.C.V.f.z x x j q N q z z z z z q N ,.0.q.t.A.D.L.L.w.3.6.1.>.V ",
"N N N j n A A Z >.V V x N V x z z z n m e b =X&XW., #.N.M.B.N.N.V.C.M.g.x x x x z z z z z q q z j N C F F H q.t.e.q.q.9.3.,.,.V ",
"N j n n n B B C V x x x V x z z z z z z 1 +.=X*X-XJ.g %.c.c.;.;.M.M.M.x.c z z z N q z q q x z z n n B S M M M D F 8.8.,.V V >.V ",
"V N z N n N z x x z x x N V V x z q z z ; G.:X*X=XOX+.< ;.;.%.;.v.v.b.b.8.x z z q N q x V N N z z N >.2.A m m m A B N V V >.V >.",
"V N V x x V x x V V V V x x x V q z z z ; J.=X=X^.-X@Xb K [ ) [ z.=.c.c.! >.z q N q z N N u w e n z V N B 2.A N z N N V >.V >.V ",
"V V x x x V x x z x V V x x N x V V q z ; Q.=X Xm.Q.>XH.L X.X.;.-.=.z.i./ x q q 0 N 8 e y @.@.: j z z V x x z z x x x V V >.C V ",
"x >.V x x x V V x V V z x x x x x x z z y Q.=X|.g.g.m.].:.Q Q ` ;._ X.Q / o.l q h ; s a. X4XP.: 9 N q z z z z V x x z V V V V x ",
">.x V x V V V x V V z V x V x x x x z z y =X(.:.O.) n.x.z.{ ) ( ) ` ) Q ^ / k e : o..X>X>XqXH.w q N z z z x z z x B x x V N x x ",
"V x V V x x N x V z x V x x x x x x N j g W.:.;.$.*.k.k.k.i.i.j.k.| ) _ ] / d K g..X@X:X4X6X@.2 q N q z x V x V z z j C x x z x ",
">.V x V N N V V V x V V x x z x z x B u b :.O.$.{ k.k.k.k.k.k.k.j.z.k.l.{ ^ ^ _ m.|.:X>X2X6Xf j z q z z x z z V x x x x x x z x ",
">.V V x V V V C V V V V V x z x x x z k Y :.E ` ..u.k.k.k.k.l.k.k.k.k.j.-...| ] $.).>X>XtX Xe z q z x x z x x x x x x x x x x x ",
"V V V V V V V V N x x x x V x x x x x h d E O.[ j.-.u.k.k.k.k.k.k.k.k.k.k.l.l.| x.]. X4XiXa.h z z x x x x x x x x x x z x C C >.",
"V V V V V V ,.>.x x V z x V x x x x x h L W ) } k.k.l.k.k.k.k.k.k.k.k.k.k.k.k.k.k.b.XXuX9Xp z z V q x x V V x x >.C x x x x x x ",
">.V V V V V V V V x x V V x x x x z z a I W _ -.k.k.k.k.k.k.k.k.k.k.k.k.k.k.k.k...j.'.0XP.h z x q N x V V V C x x x x x x x x x ",
"V V V V q V V V x V x x q V x x x x z s T ~ ' *.' l.l.u.l.k.k.k.k.k.k.k.k.l.k.k.k.*.'.8Xb x x x x x V V x >.x >.x x x x x x x x ",
"V V V V V q >.x V x V x q V x x x x h L E ( ` < # E l.k.k.k.k.k.k.k.k.k.k.k.k.k.z.;.[.H.h x x q x V V V >.,.>.x x x x x x x x x ",
"V V V V q V V x N x V x V V x x V N r I W ) E O O > j.i.k.k.k.k.k.k.k.k.k.k.k.k.=.z.).f q q V x q V V V >.,.x >.x C >.x >.C x x ",
"q >.q V x V V q x x x x q z z z V u K W ~ _ W . @ d | k.k.u.k.l.k.k.l.l.*.l.k.=.-.;.#.h x q x x z V q >.,.,.>.x x >.x x x x x x ",
"V V V z z V V z x V q V z z V N u L W Q ) _ ] T d R ] i.u.u.u.k.k.l.l.Y * E l.k.-.%.f q N q q V N x x >.>.>.>.V >.q x >.x q >.q ",
">.V V V N V z V x z z q x C S F @.:.%.$.` { { ' ] h.h.N.C.V.v.l.u.l.^ X X = k.=.-.~ l V q N V q q V V V >.>.q q >.V x x >.>.x >.",
"q >.V x x V V N z z z x x Z S.=X X.X}.`.M.B.m.)._.|.@XQ.J.H.XX`.v.u.~ X O P k.=.| c x x V q V N V q V V q >.q >.x x >.x q >.>.>.",
">.q V x V x z z z q z z x V S.S.=X>XuXpXpXiXiXeX2X2X9Xv     v 6X5XC.l.I P j.k.=.-.l x q x x V q q x x V >.>.<.>.>.x >.>.>.>.<.>.",
"q V V V V z V V x z x z V q z q.E.=XqXsXgXgXgXdXsXdXgX@XD v W.dXfX0X+Xv.l.k.k.=.} G x V x x x x V V V >.>.>.q >.<.q >.>.<.>.<.<.",
"V x q >.z z z z x z q x V z z V Z.!.;X<XrXsXdXdXgXgXfXfXyXyXfXfXfXgXiX$XV.k.u.=.=.O.l q x V x V V q V V >.>.>.>.>.>.q >.<.>.>.>.",
"V x x q V z z z z z z x q z z q J I.!.=X;XrXaXsXsXgXgXfXfXfXfXfXfXfXfXpX0X#XM.v.M.x.c x x V V V x q >.V q >.>.q >.q >.q >.>.>.<.",
"V x x x z n V z z q q V V V z V z Z.I.*X&X1XtXaXsXdXdXsXdXdXgXgXfXfXfXfXfXfXpX$X#X[.o.x V >.>.V x >.x V >.>.>.>.>.>.q >.>.>.>.>.",
"x V N q z z q N z z q V z q V z q B Z.E.!.&X<XtXtXaXsXsXsXsXdXdXgXfXfXfXfXfXgXyX7X5X_.S V >.>.V V >.q >.>.>.>.>.>.q q >.>.>.>.>.",
"V V V V z V z z z z V V V V z q x x n H E.T.&X<XeXqXrXaXsXsXdXdXdXdXgXgXgXyXuX2XrXuXyXL.,.<.>.Z V q >.>.>.<.q V <.q >.>.>.>.>.>.",
">.>.>.V q V V q z z V V V q z V V V V 5 v I.T.&X,XqXqXqXeXtXsXsXsXsXsXsXtX2X4X,X,Xa.p.t.V 3.<.>.q >.>.<.>.>.>.>.q <.>.>.>.>.>.>.",
"V >.>.V N z N z z x z V N z z z x V V 7 # v Z.T.*X=X;X1X<X<XqXrXtXaXtXeX1X&X!.H.o.> h 7 x ,.3.>.>.>.<.<.<.>.>.>.<.<.<.>.>.q <.q ",
"x V C C z x z V x V z z q x x x q V V 9 ; = y H G.T.*X&X-X;X;X;X<X<X;X!.a.s.$.P = = u 7 z ,.5.<.q >.1.<.>.>.>.>.,.1.,.>.>.>.>.>.",
">.x >.V x x z z z x z x z z q x x V V z w < d b H S.I.Y.R.~.~.&X~.~.^.s.] { ` d $ $ 3 7 q ,.5.3.>.<.5.>.>.V >.<.>.,.>.>.>.>.V >.",
">.x x z z V x z z x x z z x x x V V V x i , K o.S.G.U.I.S.T.Y.R.R.-X:Xm.i.| ( - . * 3 5 9 ,.6.3.>.5.1.>.>.>.>.<.<.<.>.>.>.V >.>.",
">.V V z z z x x z x z z x x x x V x x N j > P I o.G.U.T.R.R.E.-X&X^.H.%.| { P a * t 5 5 9 ,.6.6.1.5.5.>.>.>.<.>.3.<.>.>.V >.>.V ",
"V V >.V x x x z z x x z z q V V q q x x 7 a P R I U #.P.~.~.T.;X/.a.O.) ] I f 6 3 8 8 8 j ,.6.6.5.6.3.z 4.0.q.3.6.3.>.V ,.C >.V ",
">.>.V V V x x x x z z N z N V q x 0 q j 0 j Y ] ( ~ / O.P.W.R.D.G U R ) R r 7 5 8 z V z j x 4.9.6.5.2.V r.L./.L.w.,.>.V V >.>.>.",
">.>.>.>.x x V V z z x z N q q q q 0 7 q j x a ] *._ ] ) ( o.F 7 : T I R L t 6 6 6 8 N N z C 2.5.3.3.,.N q.e.F.S.r.,.V >.C >.C >.",
">.>.<.q V z C >.V N z z V N q 0 q 7 0 7 7 7 p R *.| | ' ) s 5 4 : K K P < u 5 5 8 8 8 j C V ,.4.>.3.3.A B S F A Z >.V >.>.>.V >.",
">.>.>.q q q V ,.V x V z q 0 0 9 7 0 0 7 7 7 k Y } [ { ` R s 5 1 : d < L s 7 7 7 6 8 8 z >.C C x V >.>.>.z N V V x x >.x >.>.C >.",
">.>.>.q q >.V ,.C z z z V 0 9 9 7 7 7 7 7 7 7 s ( _ ) ( T = 5 1 $ > , - e 6 7 5 6 6 8 j j x x x V V V V V V V V x ,.x >.V >.x >.",
">.q >.>.>.q >.1.V V q q q 9 7 7 7 7 7 7 7 7 7 a P Q W R I & 4 o % & = - e 6 5 7 6 6 8 N x x >.q >.>.V >.V V V V x ,.x ,.x >.>.>.",
">.>.q >.>.q V <.,.z q q 0 7 7 7 7 7 7 7 7 7 7 a d T T I L = 2 o % % % & 1 6 5 7 7 6 q >.<.>.q q >.>.>.V >.V V V C x >.>.>.>.C >.",
">.>.V >.>.V V <.V V q q 0 7 7 7 7 7 7 7 7 7 7 u = L d < > $ 2 1 . . % % + 6 6 6 7 0 x >.q >.q <.>.>.x x C x x >.>.>.>.C >.>.>.x ",
">.>.V V V V V V >.x q V 0 7 9 7 7 7 7 7 7 7 7 2 $ , , = $ . 1 5 + . # + 3 6 6 9 7 x q <.>.>.<.<.>.>.>.>.>.x >.>.>.x >.C >.>.>.C ",
">.>.V V q q q >.V >.V q z N 0.8.q 7 7 7 0 7 7 o $ $ & # . . o 5 7 4 3 8 6 7 7 9 0 q >.>.>.<.<.<.>.x C >.x x x C x C >.x >.x >.>.",
">.>.V V x x q q >.V >.x z z n A q 0 7 7 7 7 5 % # $ $ # % X 1 7 8 7 5 5 7 6 6 q x q >.>.<.>.q >.>.q x >.x >.>.>.>.x >.>.C >.>.>.",
">.>.q >.q q >.>.>.>.>.>.V V V N q 7 7 7 0 7 7 1 . % # X O 1 7 7 6 7 7 6 7 7 0 N x V V >.>.>.>.<.>.>.x >.>.>.x x x >.C >.>.>.x >.",
"q >.>.>.>.>.>.>.>.>.<.>.>.>.>.x >.q q q 0 q 0 7 u e 1 2 5 7 7 7 7 7 7 7 7 0 V V >.q V >.q >.>.q >.q x >.x x >.>.>.>.>.>.>.>.>.C ",
">.>.>.>.>.>.>.>.>.>.>.<.>.<.>.x >.q q q q q q 0 0 7 7 7 7 7 7 7 9 0 0 0 q x V V V V q >.<.>.>.>.>.>.q >.>.>.>.>.>.>.x C >.>.>.>.",
"<.>.>.>.>.>.>.>.>.>.<.>.<.>.>.V q <.>.>.q V >.q q 0 q q 0 q q q q x x V N x V V >.q >.>.>.>.>.>.>.q >.q x >.>.>.C x >.>.>.C x >."
};
