/* XPM */
static char *result[] = {
/* columns rows colors chars-per-pixel */
"64 64 242 2 ",
"   c #371C0C",
".  c #261C17",
"X  c #37251A",
"o  c #342A1D",
"O  c #242525",
"+  c #382C24",
"@  c #2A3925",
"#  c #363826",
"$  c #482A1B",
"%  c #522E1C",
"&  c #592E1C",
"*  c #47331E",
"=  c #58321D",
"-  c #69371C",
";  c #773A18",
":  c #442C24",
">  c #4B2E21",
",  c #483924",
"<  c #543323",
"1  c #5A3423",
"2  c #573B28",
"3  c #4F3832",
"4  c #633A24",
"5  c #683B27",
"6  c #6B3C24",
"7  c #723D24",
"8  c #7C3F25",
"9  c #38462A",
"0  c #344A2B",
"q  c #2E532E",
"w  c #37542D",
"e  c #335B2F",
"r  c #3F4D31",
"t  c #355531",
"y  c #345D31",
"u  c #3C5C33",
"i  c #346432",
"p  c #3B6535",
"a  c #356C33",
"s  c #396C36",
"d  c #3D6738",
"f  c #3D6D3B",
"g  c #367135",
"h  c #397236",
"j  c #3D733C",
"k  c #3E7A3C",
"l  c #4D401A",
"z  c #474729",
"x  c #594729",
"c  c #48542D",
"v  c #4F4C33",
"b  c #5C4A32",
"n  c #465934",
"m  c #585735",
"M  c #69452B",
"N  c #734126",
"B  c #7C4226",
"V  c #74432A",
"C  c #7B452A",
"Z  c #774A2A",
"A  c #7C492B",
"S  c #6B493B",
"D  c #7B4B34",
"F  c #725530",
"G  c #45653B",
"H  c #486538",
"J  c #426C3C",
"K  c #546538",
"L  c #41753F",
"P  c #427B3F",
"I  c #4D4B4E",
"U  c #5A5757",
"Y  c #6A554B",
"T  c #446D40",
"R  c #4A6A46",
"E  c #437540",
"W  c #437D40",
"Q  c #4B7748",
"!  c #4D7C4A",
"~  c #54764E",
"^  c #576B50",
"/  c #4E7553",
"(  c #567A59",
")  c #706E54",
"_  c #555D64",
"`  c #566B6D",
"'  c #6E726F",
"]  c #91451B",
"[  c #864527",
"{  c #834A2C",
"}  c #8C4B2B",
"|  c #934C2A",
" . c #9D4E2B",
".. c #86552F",
"X. c #98532D",
"o. c #874D32",
"O. c #944E31",
"+. c #8A5436",
"@. c #965637",
"#. c #9C5433",
"$. c #A4522C",
"%. c #AA542B",
"&. c #B3592B",
"*. c #A45A35",
"=. c #A75936",
"-. c #AB5B34",
";. c #A45C3A",
":. c #B35C33",
">. c #B55D36",
",. c #AA613A",
"<. c #BB6537",
"1. c #B3633D",
"2. c #BC653B",
"3. c #C56737",
"4. c #CA6B36",
"5. c #C36A3C",
"6. c #CC6C3B",
"7. c #D56D37",
"8. c #DB7137",
"9. c #D2713D",
"0. c #DA733C",
"q. c #E56C32",
"w. c #E87538",
"e. c #E5793E",
"r. c #EC7C3E",
"t. c #F27E3E",
"y. c #FA7A39",
"u. c #935C42",
"i. c #996345",
"p. c #926C58",
"a. c #A56543",
"s. c #B56743",
"d. c #BC6A42",
"f. c #B57556",
"g. c #8E766D",
"h. c #AF7F67",
"j. c #C36D42",
"k. c #CA6E42",
"l. c #CC7245",
"z. c #C97449",
"x. c #D37444",
"c. c #DA7642",
"v. c #DC7943",
"b. c #D57949",
"n. c #DB7B4A",
"m. c #CD7F53",
"M. c #E47C44",
"N. c #EB7E43",
"B. c #E37E48",
"V. c #F37F42",
"C. c #41803F",
"Z. c #448242",
"A. c #498546",
"S. c #468843",
"D. c #498A46",
"F. c #4B8549",
"G. c #4C8C4A",
"H. c #51864D",
"J. c #4D914A",
"K. c #51934F",
"L. c #4C8257",
"P. c #568956",
"I. c #598F5D",
"U. c #559653",
"Y. c #5B9659",
"T. c #678C67",
"R. c #659365",
"E. c #6C8B7C",
"W. c #758874",
"Q. c #789679",
"!. c #75A475",
"~. c #F4803F",
"^. c #FF813C",
"/. c #93897C",
"(. c #AA8876",
"). c #B98D76",
"_. c #DE8C5E",
"`. c #ED8146",
"'. c #EA824A",
"]. c #F48243",
"[. c #FD8542",
"{. c #FE8844",
"}. c #F7874A",
"|. c #E78854",
" X c #F48850",
".X c #FA935B",
"XX c #CF906F",
"oX c #EE9766",
"OX c #FEA675",
"+X c #6A7983",
"@X c #6C8C8C",
"#X c #76868C",
"$X c #768D99",
"%X c #7B9899",
"&X c #7E99A3",
"*X c #8B928C",
"=X c #87959A",
"-X c #969595",
";X c #AF9490",
":X c #88A589",
">X c #8EA697",
",X c #B1A09F",
"<X c #8C9CA5",
"1X c #88A3AA",
"2X c #9AA5AB",
"3X c #99B0B2",
"4X c #AAA7A6",
"5X c #B4ABA8",
"6X c #AEB1B2",
"7X c #ADB6B5",
"8X c #B6B8B9",
"9X c #C4988B",
"0X c #D5A287",
"qX c #C8A898",
"wX c #F2B38E",
"eX c #CAB8B2",
"rX c #D2C0B5",
"tX c #F3C5AA",
"yX c #E5CABA",
"uX c #FAD3BA",
"iX c #AABAC5",
"pX c #B1BACF",
"aX c #BBC6CE",
"sX c #C6C8C6",
"dX c #D5D3CD",
"fX c #CECDD0",
"gX c #C4CCDC",
"hX c #D9DADA",
"jX c #EBD4C7",
"kX c #FAD9C4",
"lX c #E9DDD8",
"zX c #E9E2DB",
"xX c #FAE7DA",
"cX c #D2D7E3",
"vX c #DDE3E6",
"bX c #E6E8E9",
"nX c #F0EFEE",
"mX c #F9F5EC",
"MX c #F3F4F4",
"NX c #FDFCF4",
"BX c #F7F9F8",
"VX c #FEFEFD",
/* pixels */
"Z.Z.Z.Z.Z.C.C.C.W Z.W W C.W P W P W W W W P E j E L L L P L L E W W W P W W W W W Z.Z.A.Z.Z.S.C.C.S.S.S.D.C.D.C.D.C.C.C.C.C.J.C.",
"Z.S.Z.W W C.W W Z.W C.W W W E T P W W P L L E W L L L L L W C.W P W W W W L W A.W C.Z.Z.Z.C.Z.S.S.C.S.C.C.S.C.D.C.J.J.C.J.C.J.C.",
"S.A.Z.P W W P Z.Z.W W W P J m m W W W E L L W W E j L j E L W W W W W P W W Z.F.Z.W Z.Z.D.J.J.C.Z.Z.S.S.S.S.S.S.C.C.C.C.C.J.C.C.",
"S.S.Z.Z.C.W C.W W W C.W L m V F J W W E L L W Q E L L L L E k L W L E L L L W A.Z.Z.C.F.I.%X!.C.Z.Z.Z.S.D.S.S.C.C.J.C.J.J.C.C.J.",
"Z.Z.Z.W C.W W C.P W Z.Q m C A Z K E W j j L E E E L L L L L L W W W L L E W L Z.Z.C.Z.S.G.P.L.Z.Z.Z.Z.S.S.D.S.S.C.J.J.C.C.C.C.J.",
"Z.W C.W P W Z.W W W W n V { A Z m E E E j L L L L E E E L L W L L P L E L W L W Z.W Z.W Z.P Z.W Z.Z.Z.A.S.S.Z.S.C.C.J.J.J.J.C.C.",
"Z.C.W P W E Z.Z.Z.Z.E b C { C C b T L L j E L L k W L E L L L L L L L L f L L W W C.W W W W E Z.W W W Z.S.D.S.S.C.J.J.C.J.J.J.C.",
"Z.W P W E E G.A.Z.G.m M C A C V 3 u L L T E L L L E L f L L L f u z z c c n d W P W W P P E W F.W P W W Z.Z.S.Z.C.J.J.C.J.J.J.C.",
"P Z.W W L P K.J.U.Q b V C C C V 2 2 c J j L L f J j L L f d r > = - - - - - x J P P P L E L W W A.W L Z.W Z.Z.Z.C.J.J.C.J.J.C.C.",
"C.W P W P A.U.U.U.c V 7 7 C V V 1 6 x c j L L f j L J L t , 1 - ; ; V F D [ x H k L L L L E L W F.A.L W W P Z.Z.C.J.K.K.J.J.C.C.",
"W W P P T ! U.U.Q b 7 6 4 4 5 M = M } { c i s j J j d 9 < - ; ; o.) g.-X,Xp.* J k L L L L j L E A.G.! W W W P W C.J.C.C.U.C.K.J.",
"Z.P P P L H.U.H.n M 6 7 B 7 M - % 6 :.7.} l t j E u # % - ; [ p.-X6XpXgXvX(.x E L L L L L j L E W G.G.W A.P P P J.U.K.J.J.J.K.C.",
"P P A.G.! H.H.! v Z B B } #.#.X.[ } 3.w.q.%.x n u o % - [ u.g.iXpXgXcXvXMXg.p.*X( L L f L f L f L A.K.H.F.F.L.P.U.U.C.K.C.U.J.C.",
"Z.P Z.H.Q H.H.H M X.X.| X.:.<.6.6.9.8.y.^.~.8.Z $ % [ X.;.;XpXpXgXgXvXbXMXg.g.jX7X( L j L L j L L W G.U.P.T.Q.:X/.R.U.C.U.U.J.C.",
"L Q L E R H.! H M X.*.:.9.0.0.0.N.].y.^.^.^.{.4.} ] &.<.XX6XpXaXgXcXMXnXBXg.g.lXzX>X( L f j L L L L F.Y.T.Q././.:X:X!.K.U.Y.C.C.",
"L E E J J Q Q n N X.6.r.].].[.].].^.^.{.^.^.^.~.8.3.3.6.;XpXgXaXcXvXMXVXBX' ;XxXxXrX*X/ L T f T J L ~ ( ( T.R.W.W.!.Y.U.U.U.C.C.",
"L J J R J T R c 7 <.r.].].[.[.[.V.[.[.[.[.[.[.[.[.r.q.5.f.,X5XeXeXlXMXVXzX) (.kXuXtXqXW.E E L f G T Q ~ R ^ ^ / ^ P.P.H.Z.W W W ",
"W E L L L L H x | 6.`.].].[.[.[.[.[.[.[.^.[.[.{.[.{.].8.4.z.1.).9XfXMXBX5XY ).uXwXOXoX(.( E J L T T ! H./ / R R Q / E E L P P L ",
"W Q L P P P u 6 <.c.V.}.].].{.[.[.[.[.[.[.[.[.[.[.{.{.].w.7.&.a.h.qXhXhX' Y XXwXOX.X Xf.p.! L J f L Q E Q / Q L E E L L W P P P ",
"W W P P L j x | 6.B.].].[.[.{.[.[.[.[.[.[.^.[.[.[.[.{.{.[.`.6.,.i.;XiX,XY u._..X}.}.N.6.i.~ L J E j j E E W E L E E E W P P P P ",
"W C.W P P H 2 <.v.'.].].].[.[.[.{.^.[.[.[.^.{.[.^.{.[.].].{.|.2.f.,X2Xg.2 a..X}.].~.9.<.,.Y L J f L L L L L L L L P L L P L P P ",
"W P W W P n N 4.B.N.'.].[.[.{.[.[.{.[.[.[.[.[.{.{.[.[.t.~.`.~.v.XX,X-XS 1 z. XN.'.v.5.,.-...K L T f f L L E E W P L P P P Q L P ",
"Z.P P P P c A 0.'.N.`.].].[.[.[.[.[.[.[.{.[.[.[.^.{.~.~.e.0.M.'.m.m.u.5 C c.].c.'.b.2.,.#.+.m f f f E L E W E L L L P P L L L P ",
"Z.P P P L c #.`.`.'.V.].].{.[.{.[.[.[.{.^.[.[.[.{.~.~.~.r.0.v.z.m.s.o.& Z 9.M.6.z.z.1.,.@.o.S J L L L L L L L W Q L P L P P L P ",
"Z.W W P J F 4.`.'.`.].].~.{.[.^.[.{.[.[.{.^.{.[.^.[.].~.r.8.6.j.z.a.N o m ,.0.x.k.2.1.@.@.D b T j L L L E j j W P P L P L P P P ",
"C.P W W c X.`.9.Z { 5.e.~.^.[.{.{.^.[.[.{.{.{.[.{.[.[.~.~.w.9.<.1.;.5 # s ..2.6.j.s.;.@.o.V x n L L L L L E W P P P Q P P ! P C.",
"C.P P L F 9.].#.. . - <.w.^.^.^.^.{.[.[.{.^.{.{.{.{.^.[.].r.9.2.=.O.> n L H ..,.=.=.;.o.D 5 2 c L L L W W E E E P P P P P P P P ",
"C.P P H X.].M.{ . . % ,.'..X.X{.^.^.^.[.~.~.].~.{.{.{.[.].~.c.2.;.D < I K K Z } { { } { C 5 3 c j L L W W W W W P P P P P P P P ",
"W P k ^ _.}.8.%.N S g.qXyXyXuXwXOX[.t.r.M.e.0.3.<.4.~.[.[.].v.5.1.o.4 ..2.<.*.X.} 8 7 N M 4 , n L E W W W Z.! W P P P P P P P P ",
"W W W 3XkXwX XoX0XeXdXzXvXhXcXMXzXwX|.b.0.3.N $ X $ ..~.{.].v.6.1.O.2 } 9.~.0.8.4.<.$.N 1 < , G L E P W W A.Z.P P P P P P P P P ",
"W P L.aXVXNXxXxXhXvXbXbXsXU O =XdXyXwXoXc. .X . X . = ~.{.`.B.l.2.@.= { 5.'.].~.~.r.8.<.[ < r E L L W W A.A.W W P W P C.P P P Q ",
"P Z.F.3XMXVXVXVXBXMXnXMXsX' ^ eXxXlXdXyXwXm.-   . . { ~.[.`.n.x.2.o.% M <.'.].{.[.[.^.r.4.C 9 L L L W W A.H.W W P W ! P C.P P P ",
"W W C.@XaXBXVXVXVXVXBXBXnXbXhXMXBXmXlXjXjXtX0Xa.; ] 7.y.w.q.7.k.1.o.< & =.c.V.}.{.{.{.[.N.:.M p k W P W A.A.W W W W C.W W C.W W ",
"C.C.C.L.&XcXVXVXVXVXVXVXVXVXVXVXVXVXBXmXbXxXmXuXwXoX.X.X|.oXXX9X).g.Y : 7 1.c.M.N.[.[.[.].6.o.9 j E W W Z.W W P W P W W W C.W W ",
"C.W W P L.%XcXVXVXVXVXVXVXVXVXVXVXVXVXNXNXVXVXVXmXkXkXuXkXjXrXeX6X5X4X) 3 o.>.l.M.N.].`.B.l.O.z j L E W Z.C.C.Z.W W W W C.C.C.C.",
"W W W C.W G.<XvXVXVXVXVXVXVXVXNXVXmXNXNXVXNXVXVXVXVXVXVXBXvXsXpX6X6X6X2XU S ;.k.b.B.B.M.v.j.@.b L L W W C.W Z.Z.W W W C.Z.Z.S.Z.",
"W W W P W E L.1XnXVXVXVXVXNXNXmXmXmXNXNXNXNXNXNXVXNXNXmXfX8X,X2X-X=X*X+X_ u.s.k.b.n.v.B.n.d.+.m L W W P Z.Z.Z.Z.W Z.C.Z.S.Z.A.Z.",
"C.k P P j E Q L.3XbXVXVXNXNXNXNXNXNXNXNXmXNXNXNXNXVXmXdX6X,X-X+X+X` _ U @.s.d.k.b.b.b.n.n.d.o.m L P W W C.Z.C.Z.W W Z.Z.Z.Z.Z.Z.",
"W C.P P L L L Q L.1XhXVXVXNXNXNXNXNXNXmXNXNXNXNXmXzXsX6X=X+X_ _ _ U U Y u.s.j.z.l.b.l.b.n.s.F G L L W P P Z.Z.P C.W W C.Z.C.Z.Z.",
"W W E L L E k j E ( @XiXhXmXNXVXNXVXNXNXNXNXmXnXdX6X=X` I I S S D o.+.@.s.j.l.l.z.z.z.b.b.s.m E P W W W Z.Z.Z.Z.C.W C.W W S.Z.Z.",
"P W L L L L L L j E / ` @X1X7X8XsXdXhXhXdXsX7X2X+X+X_ 3 3 5 8 [ O.#.=.d.j.k.l.z.j.1.j.z.z.i.H W W W W W W Z.Z.C.Z.C.Z.C.Z.Z.W Z.",
"P W W W L W L L j j L W W E.#X#X#X$X$X&X=X$X+X_ I 3 3 5 8 o.O.u.#.;.s.k.l.k.z.d.;.;.j.z.|.u.H W L k Z.S.S.S.Z.W C.Z.W Z.Z.Z.Z.Z.",
"W C.Z.L L W W L L L L W P P.>X%X$X@X+X$X$X$X' Y 8 C [ [ o.#.=.=.s.j.z.l.k.x.j.;.o.;.j.k.b.u.T W W W S.S.S.Z.Z.Z.Z.Z.Z.Z.Z.F.Z.Z.",
"W W F.W E L L L L L E W L L.%X%X1X&X&X1X3X-Xi. .$.$.$. .=.=.s.s.d.z.l.x.k.d.#.o.O.1.k.z.b.u.n Z.Z.Z.D.Z.S.S.Z.Z.Z.S.S.Z.Z.W W W ",
"W W Z.E L W L L L L k L L L P.#X<X1X3XiX8X(.>.&.:.&.:.>.2.d.d.s.d.k.k.3.=.8 M D ;.d.k.z.k.D n F.W Z.J.S.C.A.Z.C.S.S.A.A.Z.Z.Z.W ",
"W W Z.W W L P L E W L L f E ! ^ *X3X3XiX8XXX>.$.>.>.5.j.6.l.2.1.1.>.u.8 3 + r v ;.k.d.>.=.5 u D.W S.J.Z.S.Z.Z.S.Z.S.S.Z.Z.Z.W W ",
"W W P L L P P E L L L L L L T m p.,X3XiXsXqXs. .%.2.9.6.6.k.=.o.5 3 > X O @ y y 2  .$.=.#.5 v A.Z.J.J.Z.C.C.Z.Z.A.S.Z.Z.W Z.F.W ",
"C.Z.W W L L L L E k L L E L f F @.f.4XsXvXeX;.$.%.<.6.6.6.5.A z r @ . O + q y y 0 3 C | 8 1 9 ! Z.J.S.W C.C.S.A.G.S.Z.Z.Z.W F.W ",
"W C.C.E L L P L L L L j f f u D  .#.p.eXbX5X} %.%.<.>.7.5.>.b e q q @ @ q y y e e 9 = 6 - & # L S.G.Z.j A.Y.Y.U.K.D.Z.Z.! W A.P ",
"Z.Z.Z.C.P P L j j j f f f d r A } | D ) *XW.[ %.$.:.&.3.3.#.n i i y y i i i i i i i , % & $ # j S.S.j f Q.4X7X>XR.A.W Z.C.Z.A.Z.",
"Z.Z.Z.C.C.P k j s s s s a i # C 8 8 < z s H N  .| $.$.:.%.{ w y q i i i i i i i i t : $ $ $ o d C.C.k f ( W.*XQ.R.A.W W A.C.P A.",
"Z.Z.W C.P j j j g p i i i q * - 5 4 , w s s * [ | | } } { 2 r i i i i i i i i e y t o X X . @ p k k L L T Q ~ / ! C.Z.Z.P P A.P ",
"Z.Z.Z.P L j f j a i i i y # = - % < # y a p , - ; [ 8 7 5 3 t i i i i i i i i a p i t w 9 0 e p a h k k j E E Z.P A.A.P A.P A.P ",
"Z.C.C.k j g g j a i i i w * - = * $ # y a u * = 4 ; 5 4 , , y i i i i i i i a a i y u t e u p s j j j L W W Z.W A.C.P A.P A.A.C.",
"Z.C.C.k h g a j s a a a e o % > * o 9 a a 9 % & & 6 4 1 : # i i i i i i i a i a i i i i i a a h k k C.C.W Z.W Z.P C.A.P P A.P A.",
"Z.C.P k j a g h a a a a i 0 # # # 9 e a a # $ % & & & < : # i i i a i i i i i i a a a h g g P C.k C.C.W C.W Z.! P A.P A.C.P A.P ",
"Z.C.P k j g a h g a g g a a i i i a a a a 0 o + : : : + + @ i i a g i i i i i a a a h g h P C.C.C.P P C.H.P C.P A.C.A.P A.A.P A.",
"Z.W P k j h s h g g g g g a a a g g a a a i q @ # # # # # q i i a g a i i a a a s h P k P C.D.C.H.C.C.C.P C.C.H.C.! C.C.P C.A.P ",
"Z.Z.P k j h s s g g g g a f Y.Y.k g a a a g a i q t q q t i a a g s i a g s s f L P P C.C.C.C.C.C.C.P P P C.C.C.C.C.P ! P A.P ! ",
"Z.C.P k k j h h h h g h d a d Q h g g g a a g a a a a a g s a a s s s f s f f k P P C.C.C.C.C.D.C.P P H.P C.P H.A.P A.C.C.C.C.P ",
"Z.k W W k k P k k k C.h j k j k h g g g g g g h s g h s j j h j j j k j L L L C.P P C.C.C.H.C.C.C.P H.P C.! C.P C.P A.P A.! P P ",
"Z.C.Z.Z.Z.C.P C.C.C.C.C.C.k k h k k k g k k k k L k L k k k k C.C.C.L L C.W W L P P P A.C.C.C.H.C.C.C.P P C.C.C.! A.P A.P C.C.P ",
"Z.Z.Z.Z.Z.Z.Z.C.C.C.C.S.C.Z.C.C.W C.C.W W C.W C.C.W W C.C.W C.W W W W W W L W W P C.C.C.C.A.C.C.C.P P C.A.P P A.C.C.P C.C.P P P ",
"S.Z.Z.Z.C.Z.Z.C.S.S.Z.S.S.Z.Z.k C.C.C.Z.C.C.Z.C.C.W S.C.Z.C.W W W C.W W L W W C.! C.C.A.C.C.C.C.H.P C.C.P C.C.C.A.P A.C.P ! L L "
};
