/* XPM */
static char *result[] = {
/* columns rows colors chars-per-pixel */
"64 64 235 2 ",
"   c #2A1E1B",
".  c #27221D",
"X  c #39261B",
"o  c #3C311E",
"O  c #2B2B25",
"+  c #332A23",
"@  c #3C2B23",
"#  c #2D3625",
"$  c #363725",
"%  c #432A1D",
"&  c #4B2B1C",
"*  c #532D1B",
"=  c #582E1C",
"-  c #49351D",
";  c #5A311D",
":  c #67371E",
">  c #753D1D",
",  c #432C22",
"<  c #4B2D22",
"1  c #493423",
"2  c #543222",
"3  c #5B3423",
"4  c #5A3A25",
"5  c #50372E",
"6  c #653925",
"7  c #6C3C25",
"8  c #633A28",
"9  c #6D3E29",
"0  c #723E27",
"q  c #673E30",
"w  c #2C492A",
"e  c #334429",
"r  c #384929",
"t  c #2F572E",
"y  c #32532C",
"u  c #3D562F",
"i  c #315B2E",
"p  c #2F5B30",
"a  c #3A5733",
"s  c #325D30",
"d  c #32612F",
"f  c #336331",
"g  c #396435",
"h  c #346B32",
"j  c #396C36",
"k  c #3D6E3C",
"l  c #367134",
"z  c #397236",
"x  c #3D733C",
"c  c #3E7A3C",
"v  c #68401E",
"b  c #474629",
"n  c #574428",
"m  c #474E32",
"M  c #584A32",
"N  c #495933",
"B  c #555A36",
"V  c #67452A",
"C  c #784527",
"Z  c #74422B",
"A  c #7B442C",
"S  c #694939",
"D  c #764834",
"F  c #685535",
"G  c #775437",
"H  c #476438",
"J  c #436C3B",
"K  c #51673B",
"L  c #41753F",
"P  c #417B3F",
"I  c #474647",
"U  c #4C544F",
"Y  c #545255",
"T  c #6E554B",
"R  c #486C43",
"E  c #437541",
"W  c #437D41",
"Q  c #497846",
"!  c #4C7C4A",
"~  c #4C7A56",
"^  c #547353",
"/  c #756D59",
"(  c #4F5C65",
")  c #5A6D6D",
"_  c #6C7372",
"`  c #82452B",
"'  c #87482A",
"]  c #8B4A2B",
"[  c #964D2B",
"{  c #8F5229",
"}  c #9A522B",
"|  c #894C32",
" . c #964E31",
".. c #895438",
"X. c #955636",
"o. c #9C5533",
"O. c #9D5A3A",
"+. c #A9552D",
"@. c #B8592F",
"#. c #A55A34",
"$. c #A75836",
"%. c #AD5B34",
"&. c #B55D35",
"*. c #BB5C34",
"=. c #87683E",
"-. c #BC612D",
";. c #A86137",
":. c #AC613D",
">. c #BC6334",
",. c #B76539",
"<. c #BB643A",
"1. c #C25E31",
"2. c #C76737",
"3. c #CC6D3C",
"4. c #D46C37",
"5. c #CE713F",
"6. c #D4713C",
"7. c #DB743C",
"8. c #E16D37",
"9. c #E4783C",
"0. c #EB7B3E",
"q. c #F37E3E",
"w. c #935E44",
"e. c #966752",
"r. c #A56544",
"t. c #AB6543",
"y. c #B46944",
"u. c #B86944",
"i. c #BC6B44",
"p. c #B3785A",
"a. c #8A7A74",
"s. c #A27662",
"d. c #C36D43",
"f. c #C56F44",
"g. c #CA7347",
"h. c #C4724A",
"j. c #CB754A",
"k. c #D47543",
"l. c #D97641",
"z. c #DD7944",
"x. c #D47A4A",
"c. c #D97A49",
"v. c #D17C50",
"b. c #E37C45",
"n. c #EA7E44",
"m. c #E27E48",
"M. c #F17F40",
"N. c #3F813D",
"B. c #41813F",
"V. c #448242",
"C. c #498546",
"Z. c #468943",
"A. c #498A46",
"S. c #46804B",
"D. c #4B8549",
"F. c #4C8C4A",
"G. c #51884E",
"H. c #469044",
"J. c #4D914A",
"K. c #51934F",
"L. c #498051",
"P. c #578957",
"I. c #579654",
"U. c #59A256",
"Y. c #5F856E",
"T. c #678969",
"R. c #699469",
"E. c #738874",
"W. c #779879",
"Q. c #75A475",
"!. c #FB813D",
"~. c #8F867E",
"^. c #B68975",
"/. c #DA8354",
"(. c #EE8045",
"). c #E9824B",
"_. c #F58243",
"`. c #FD8542",
"'. c #FD8845",
"]. c #E88956",
"[. c #F38E58",
"{. c #D2906E",
"}. c #EB9566",
"|. c #F39968",
" X c #F9A373",
".X c #5D7482",
"XX c #687A85",
"oX c #718A8D",
"OX c #7A9598",
"+X c #7F9DA3",
"@X c #7FA2A2",
"#X c #988A88",
"$X c #88918F",
"%X c #AB938D",
"&X c #88A589",
"*X c #99B199",
"=X c #859CA5",
"-X c #9B9EA5",
";X c #89A5AB",
":X c #9AA8A9",
">X c #96B0B2",
",X c #A7A9A8",
"<X c #ABB1B0",
"1X c #B9B9B8",
"2X c #C99F87",
"3X c #D1A893",
"4X c #F2AF8A",
"5X c #F8BB98",
"6X c #C7B6B7",
"7X c #E5BDA5",
"8X c #E0C1AE",
"9X c #F3CBB5",
"0X c #AFB6CA",
"qX c #C9BDC2",
"wX c #BCC7C5",
"eX c #C8C9C5",
"rX c #D3CDC8",
"tX c #C2C8D8",
"yX c #C9D3DA",
"uX c #D9DBD7",
"iX c #F6D8C7",
"pX c #E5E3DB",
"aX c #FCE5D6",
"sX c #FAE8DA",
"dX c #D3D9E1",
"fX c #DDE2E5",
"gX c #E8E8EA",
"hX c #F2EEEC",
"jX c #F8F2E8",
"kX c #FBF5ED",
"lX c #FCF9EE",
"zX c #F3F4F4",
"xX c #F8F7F6",
"cX c #FDFBF3",
"vX c #FEFEFC",
/* pixels */
"V.V.V.W B.W W B.W W W W W W W P W W W L W c L x L E x E L E P E W W W W W W W B.P V.V.V.V.V.V.B.Z.V.V.Z.A.B.A.B.H.A.A.B.A.B.A.B.",
"V.Z.V.V.B.B.B.V.S.B.B.W W P W B.W W W W L L P x L x E x N.E P W W P W W L E V.S.V.P V.V.V.V.V.V.B.Z.B.Z.B.Z.A.B.B.B.B.A.B.H.A.H.",
"Z.C.V.W B.W P V.V.V.P W W W L E W W S.E L L W S.L L L L E L W N.W E W E P E V.A.V.V.V.V.A.K.J.V.W V.Z.Z.Z.Z.Z.B.H.A.B.B.H.B.B.B.",
"V.Z.V.V.P V.P P P P B.W P J M J W L c E L L S.L L L L L L L L E E N.E c P P W S.V.V.V.S.I.OXQ.B.V.V.Z.Z.Z.C.Z.Z.A.B.A.B.B.A.B.A.",
"V.V.V.B.W P V.W W P P V.R n 8 m E W W E E x E W L L x L L L L L P W P W L B.W W B.V.B.Z.G.P.G.C.V.V.V.Z.A.Z.Z.Z.B.B.B.B.J.B.B.A.",
"V.V.W P W P W W W W V.E M 7 7 b k W W E E E x L L L W E E W x S.P E L L E E E B.W V.S.B.V.W W W V.V.V.Z.Z.Z.V.Z.J.B.I.J.A.J.J.B.",
"V.V.P W P E V.V.c V.D.M 9 7 6 5 g Q L L k E E x L S.x E L L L L x E E E E E E W W W V.V.P P W W W W V.V.V.D.Z.Z.B.J.J.B.H.J.B.B.",
"W W W P E W F.C.Z.J.R q 0 6 6 < y S.L L k E E k L L x k E k L L c E L c E L c E P W W E W ! W V.W E P V.W Z.Z.V.B.B.K.B.J.J.A.A.",
"V.P P P P P K.J.K.G.M 9 9 6 3 < b k E L L k E k E x k L k x g m r b b b m H P L P P P L R.eX*XP.C.Q P V.B.B.C.B.J.B.J.B.K.B.B.J.",
"B.W B.P L B.I.I.I.N 9 9 6 6 3 < 3 b N c L L E k k k E J J b - = 6 > > > v n z L L L L L P.yXvXwXT.D.L B.Q P B.B.B.U.K.B.J.J.B.B.",
"W P Q P Q Q I.I.D.M 0 0 6 3 2 < 3 Z 4 z L E k E R x L u 1 : : > ` D T ..A V E k L L L L E <XvXvXuXE.B.P B.P P P B.K.J.J.K.A.K.B.",
"V.W P P L D.P.G.H q 7 7 3 2 < , 3 C #.C g k E k L k r * : > 0 w.a.$X,X6Xs.5 x L L L L L L <XvXcXvXuX_ P D.P P B.J.K.B.K.A.J.J.J.",
"P W D.F.! G.G.G.M 7 : Z ` A 0 3 3 ' 6.6.{ u j z k o & : > | a.,X0XwXdXgX#X< L L L J E k E <XvXvXcXvXwX~ D.! P.P.P.K.A.J.A.K.J.B.",
"P W V.D.! G.! Q n { ' ' [ $.,.#.} ;.9._.9.+.V u X & > ' w.%X0X0XtXyXfXgX#X1 L k x k k E ~ <XvXvXcXvXvX:XP.R.W.OXQ.R.G.B.K.I.J.B.",
"P Q L Q R ! G.H A o.] [ +.,.>.3.7.b._.!.!.q.2.v * ' } ;.%X0X0XtXyXgXgXzX#X1 E k k L k k ~ wXvXvXvXcXvXjXW.W.$X&X&X*XR.J.I.U.F.P ",
"L E J J H Q ! N C o.>.6.n.n.0.n._.!.'.`.!.!.!.1.+.@.1.{.1X0XtXtXfXzXzXvXa.$ L L J x E k T.yXvXcXcXvXcXvX1X) / E.E.T.T.I.I.I.B.P ",
"L R R L R R Q b C %.9._._._.'._.`.'.`.`.`.`.`.!.7.4.3.^.1XtXyXyXfXzXvXvX/ e k E x x L P E.hXvXlXvXvXcXcXjX) ^ ^ ^ ^ P.G.V.W W P ",
"P L E J L L L - ] 6._._._._.`.`.`.`.`.`.`.`.`.'.`._.4.>.p.^.^.3XrXzXvXrXY a k k J J k K %XcXvXvXvXcXcXcXvX#XR R ^ ! E E L P Q P ",
"P P P P P P N 6 ,.l.(._._._.`.`.`.`.`.!.`.`.`.`.`.`.0.7.4.,.:.^.6XgXzX#X5 a k k k k z =.5XaXlXcXvXvXvXlXcX,XR J L L K P P P P P ",
"Q P P P L L b { 3.m.(._.`._.`.`.`.`.`.`.`.!.`.`.`.`.`._.q.2.r.s.s.qXqX/ $ E R k k k F ).5X9XaXlXlXcXjXsXsX3XK L L P P P P P P P ",
"W P P P E J 4 ,.6.(.(._._.`.`.`.!.'.`.`.`.!.'.`.`.`.'._.'./.y.;.%X0Xa.D e k k k k H <.[.4X5X9XiXiXaX9X9X9X2XH P L P P E P P P P ",
"P W W W W N Z 2.z.).(.(.`.`.`.`.'.'.!.`.`.`.`.`.`.'._.!._._.c.p.,X-Xw.2 s k k k k G c.]. X X X5X4X4X7X4X3X{.B P P E P W L L L L ",
"V.P P E c N ' 7.).m.(._._.`.`.`.`.'.'.`.`.`.'.!.`.!.!.0.9.0.).{.{.s.q , k R k k H #.l.).}.|. X|.|.[.}.}.{.p.B P E L K W L L P P ",
"N.W W P c b #.).).(.(._.'.`.`.`.'.!.!.'.`.`.`.'._._.!.0.7.l.v.j.p.w.8 $ k k k k B ,.l.m.].].[.[.[.].).v.c.:.H P Q P P L P P L L ",
"V.W W W L V 4.3.| O.9._.`.`.`.`.`.`.!.'.'.!.'.`.`.'.!.!.7.6.f.u.t.0 < a k k k k F >.3.7.).).].[.].n.c.x.x.=.H W P P P P L W E W ",
"W W W c N ;.7.n . . A 0.`.`.`.`.`.`.!.'.`.'.`.`.`.!.(.!.9.5.<.;.O.9 $ k x k k R C >.>.5.5.).).).n.m.c.x.j...L W P P Q L P W V.P ",
"V.W W W V 6.k., + X - 3.!.!.`.`.`.'.'.`._.!.'.`.'.!.!.!.9.6.,.O.o.3 a E L x L k C ;.<.2.3.7.).).b.m.x.v.h.F E W P P P P P P P P ",
"W W c H +.n.k.3 % & ; 1.0.!.!.!.!.!.(.!.7.0.2.#.6.'.'._.!.7.<.O.| < N R J N B m C } ;.,.,.5.6.7.l.x.v.j.t.H W E P E P L L Q P P ",
"c W B.R ].M.7.+.` ..^.3X8X9X5X X'.0.b.7.7.o.X X o } '.`._.7.3.;.X.4 | ,.<.%.+.{ > 7 C X.o.<.3.5.g.j.h.i...Q W E Q P L P L P L P ",
"W W L.<XaX|.M.].3XrXgXgXgXpXzXkX8X].7.7.3.Z X X X X 3.`._.).g.:.O.2 | k.l.4.4.2.-.} 7 6 ' o.:.u.f.i.p.t.B Z.V.W P P P P L P L P ",
"W c L.wXvXkXsXgXgXzXzXzX1XO I 6XiX7X{./.4.C - % X . >.'.(.z.g.:.O.& A 6.m._.!.!.0.6.%.Z 2 A X.O.t.t.y.G Q D.V.E P P P P W P P P ",
"W V.W >XxXvXvXvXvXvXvXzXeXI _ rX8X8X8X4X}.-.C ; X ; 0.`.(.c.x.:.O.< V <.z.(._.`.!.!.9.>.6 4 A | ....S J Z.F.W W P P Q W P W W P ",
"W S.N.oXyXvXvXvXvXvXvXxXxXzXvXxXgXaXpX9X9X5X).1.[ 4.M.n.c.j.d.t...& 2 $.k.n.M.M.'.'.`.b.+.2 Z Z Z M J V.D.S.P P P W W W B.B.W W ",
"W N.N.S.@XfXvXvXvXvXvXvXvXvXvXvXcXvXcXkXhXsXaX9X|.[.[.m.v.v.2X^.a./ , 0 <.g.n.M._._.M.b.<.9 6 D B L P W V.V.P W V.P E W W B.W W ",
"W N.W P S.OXfXvXvXvXvXvXvXvXvXvXvXcXcXvXvXcXvXvXkXsXaXaXsXuXqX<X,X1X/ @ | :.f.m.n.(.n.c.<.A M J L L E W P B.W B.W W P W B.B.N.B.",
"W W P P c S.+XgXvXvXvXvXvXvXcXcXcXcXcXcXcXvXvXvXvXvXvXxXdX6X,X,X,X<X,X) T t.d.x.c.m.z.x.u.D B c P P W P V.B.V.V.W W B.B.B.Z.V.S.",
"W L W c E E P.;XxXvXvXvXcXcXlXlXcXcXlXcXcXcXcXcXvXcXlXuX6X-X-X$X~.XX( T w.u.h.j.x.c.c.x.u.D K L L P P V.V.V.V.W B.W B.V.S.Z.V.Z.",
"W N.L W L L L ~ >XgXvXvXcXlXlXcXlXlXlXlXcXcXcXcXcXkXrX<X-X#XXX_ ( ( Y w.&.u.j.j.j.k.x.j.:.V J L L P P P P B.V.V.W V.B.B.Z.B.Z.V.",
"W W W L L L L L ~ +XuXvXlXlXlXlXcXlXcXlXlXlXlXjXfX6X,X-XXXY Y Y Y T T w.t.h.j.j.h.g.x.h.O.M P L L L P P V.W V.W B.W B.P V.V.B.V.",
"W B.L L L L L L k ~ Y.:XuXjXlXlXlXlXlXlXjXjXpXeX,X$X) U I q q ` | | $.t.d.d.h.h.u.i.j.h.X.H W P L P P P N.V.Z.W B.W P V.V.V.V.V.",
"W L P L L P L E L L L ~ ) oX-X:X1XeXtXeX0X,X$X_ ( I I q q 0 `  . .$.:.u.i.d.u.:.$.<.g.j.T J C.P L c c N.P V.V.V.V.B.B.S.B.V.V.W ",
"N.W P P L L L x x L E W S.W.oXoX.X) .X.XXX.X( I 5 0 0 ` ` | |  . .$.*.u.<.<.$.| w.u.h.f.F L B.L c c P B.V.V.V.c W V.B.B.V.V.V.V.",
"B.W B.W P L E L k L P S.E W.;X=XOXoXXXOX;Xa.D A  .` ` `  . . .$.$.*.*.<.1.$.` 0 $.d.g.f.S x N.x x x c V.B.V.V.V.B.V.Z.V.V.V.W V.",
"W S.S.W L P E L L L L E x ~ oX;X;X=XOX=X-Xr.+.+.+. . .$.$.$.$.$.*.d.1.*. .0 0 ` $.f.h.d.q j V.c z x N.V.B.N.P B.V.S.Z.V.V.V.S.W ",
"W W V.E E L L W L L L L x x T.$X>X+X=X>X#Xt.*.@.@.@.@.1.*.&.} } *.*. .8 , @ V  .*.u.u.$.< a Z.c l c c c c B.B.V.V.A.Z.C.C.V.V.W ",
"E W V.W P P E L L P x x k x x / 0X;X;X=X$Xe.*.1.1.1.1.2.*.+.] ' A 5 +   O t r D $.o.O. .5 a H.c h c N.c c c B.V.Z.Z.V.Z.V.W W C.",
"V.W P L E P P L L x x L x x g ;.%X,X<X>X#Xe.+.@.@.4.8.4.d. .5 e +     O w p p $ 0 ]  .` < y F.N.l N.N.c c c V.V.V.Z.Z.W W V.W C.",
"V.V.W P L L L L L L L k x x r %.y.e.,X0X-XD [ +.1.1.8.l.1.0 y p # . O # p p p y , q ` 8 < $ Z.V.c Z.N.z z P V.V.F.Z.V.W V.W V.W ",
"P B.B.P L L L L L x k k k j $  .o.| / :X,XM ` ' +.@.8.4.%.M i s t t p s p p s p e & = = % # B.Z.N.Z.N.h Q P.I.F.J.F.V.V.Q B.Q B.",
"V.V.B.P P P L x L x k k j f 1 ] ' 9 1 N R 5 ` A [ +.1.@.| b s s t p s s s f s s y X & & X # P A.Z.B.x k W.*X1X*XR.C.W W B.C.C.B.",
"V.B.V.P P c P L x j k j f w & 0 7 4 $ d f r ` C ] } [ ' 8 r p p p p s d f d s f y X X X X # x P V.N.c J _ R.W.~.R.C.P P C.B.B.C.",
"V.V.B.P P L x P x j f f f o : : 3 < e h h b : 7 0 > 0 6 < y p s s s d s d s s s t e # $ # i j z z c V.E E ~ ^ ^ D.C.W C.P P C.P ",
"B.B.B.c x x x x j h f f r = = * 1 @ e f d b & : : 0 6 2 , y d f p d p d s f f d i s g g L j g g k x W W L E E V.B.P B.B.C.P C.P ",
"B.P c x z j z x h f d d e & * 1 $ X y h d o = * = = 3 , @ a d s d d d d d f f f f s s a s g g L x c P c P P W W ! P D.! P C.D.B.",
"B.c x c z h j z h d d d i # # # # w f h y % & * = * < @ + s f f f f f f i f f f f f f f h j j c c c B.P W W V.V.B.B.B.B.P D.P B.",
"B.c x l h h h j j f h h f f d i f h f h i X X o & , @ + $ p f s p h f p f f f h f h h z z z c c P V.B.V.V.W W W ! B.P D.B.B.B.! ",
"B.c z z h h h h h h h h h h d h h h d d h t # # O # + O w p f p f l f p h f f h h j z z c P B.B.B.P P ! B.! D.P B.B.B.D.P P B.D.",
"B.P L z j h h h z h h h h d h h l h h d h h h d i p y t f f f f h j h p f f j j z z c c P B.V.B.B.B.B.B.P B.P B.B.! P D.B.D.B.P ",
"V.B.L z j h f h h l l l f k P.I.x h h h h h h d f h h f h f h h j j h h j j j k x c B.P B.B.V.Z.B.B.P P B.D.B.D.B.P B.P P P ! B.",
"V.P P L z j h h l l l d f g j L z l l h h h h h h h h h h h h h j k j k x x k x L P V.B.V.Z.V.V.P D.D.P B.P P D.P D.D.P B.G.B.P ",
"V.c P c c x z z l l l l l l l z l l l l l l l l h z z j x x x x x x c x x c L W P W W V.V.V.B.C.P P P D.B.P D.P ! B.P D.! B.G.P ",
"B.V.V.V.P P c P c c c c c c x z c z z z z c c x c z c L x c c c c W L L L W L W W P P V.B.V.V.B.B.B.P P P B.P B.B.P B.P B.P P B.",
"V.V.V.B.P B.N.N.N.c B.c c c c c c c c c P N.P N.B.P P P W W W W W N.N.L W W W W W W P V.C.B.C.B.B.Q B.P D.P P B.P B.D.P K G.G.P ",
"Z.V.V.V.B.B.B.B.B.B.B.B.B.N.B.c P V.B.V.B.B.B.P B.B.B.B.N.V.N.N.W L W W L L W W P P V.V.V.V.B.C.B.P B.B.P B.B.D.B.P B.B.B.B.P B."
};
