/* XPM */
static char *result[] = {
/* columns rows colors chars-per-pixel */
"64 64 241 2 ",
"   c #0E0D0D",
".  c #38271B",
"X  c #35331F",
"o  c #392924",
"O  c #2C3526",
"+  c #373827",
"@  c #482A1C",
"#  c #4B341F",
"$  c #56341D",
"%  c #5B331D",
"&  c #68391C",
"*  c #763C1B",
"=  c #442D24",
"-  c #4C2E23",
";  c #432D28",
":  c #502F21",
">  c #4B3124",
",  c #473926",
"<  c #513224",
"1  c #5B3422",
"2  c #583828",
"3  c #653923",
"4  c #633826",
"5  c #6C3C24",
"6  c #6D3E2A",
"7  c #713E24",
"8  c #2D4429",
"9  c #36482A",
"0  c #37542E",
"q  c #324F30",
"w  c #375633",
"e  c #345C32",
"r  c #3C5D33",
"t  c #356533",
"y  c #3C6336",
"u  c #366A34",
"i  c #386C36",
"p  c #3B6239",
"a  c #3C6D3B",
"s  c #377235",
"d  c #397236",
"f  c #3E733C",
"g  c #3E793C",
"h  c #46482A",
"j  c #58452C",
"k  c #43542B",
"l  c #56512E",
"z  c #494831",
"x  c #584833",
"c  c #435B32",
"v  c #4B5833",
"b  c #575738",
"n  c #6D412B",
"m  c #68442A",
"M  c #744126",
"N  c #794627",
"B  c #75432C",
"V  c #7C4529",
"C  c #684632",
"Z  c #7A4833",
"A  c #705532",
"S  c #795436",
"D  c #466539",
"F  c #426C3D",
"G  c #566237",
"H  c #41753F",
"J  c #427B3F",
"K  c #7A6437",
"L  c #544F4F",
"P  c #6A5750",
"I  c #446C43",
"U  c #427540",
"Y  c #437D41",
"T  c #497C45",
"R  c #4A7849",
"E  c #557544",
"W  c #537853",
"Q  c #736A50",
"!  c #535C64",
"~  c #576D6D",
"^  c #697072",
"/  c #80421D",
"(  c #86492A",
")  c #8C4C2B",
"_  c #954D2C",
"`  c #8F502E",
"'  c #97532D",
"]  c #854C35",
"[  c #894D34",
"{  c #8C5238",
"}  c #955435",
"|  c #9A5636",
" . c #92553B",
".. c #9D5A3C",
"X. c #A4572C",
"o. c #B95E2B",
"O. c #A35A35",
"+. c #AB5B33",
"@. c #A35B3A",
"#. c #AA5E3A",
"$. c #B35E35",
"%. c #99673D",
"&. c #A5603D",
"*. c #AC613D",
"=. c #B3633B",
"-. c #BA6438",
";. c #C76834",
":. c #CE6B36",
">. c #C36A3C",
",. c #CB6C3B",
"<. c #D36C36",
"1. c #D97137",
"2. c #D4713C",
"3. c #DD753D",
"4. c #E2763B",
"5. c #E6773B",
"6. c #EB7B3D",
"7. c #FD7D36",
"8. c #F37E3E",
"9. c #8C5A43",
"0. c #986349",
"q. c #856752",
"w. c #AC6542",
"e. c #A86A48",
"r. c #B56A45",
"t. c #BB6C44",
"y. c #A46D59",
"u. c #AE7451",
"i. c #B97957",
"p. c #8E766D",
"a. c #C46D42",
"s. c #CC6D42",
"d. c #C57146",
"f. c #CC7344",
"g. c #C5744B",
"h. c #CC764A",
"j. c #CD784C",
"k. c #D37543",
"l. c #D97845",
"z. c #D4794A",
"x. c #DB7C4A",
"c. c #C57954",
"v. c #E47C43",
"b. c #EB7E43",
"n. c #E37E49",
"m. c #F17F41",
"M. c #448242",
"N. c #498446",
"B. c #468843",
"V. c #498A46",
"C. c #47814B",
"Z. c #4B844A",
"A. c #4C8B4A",
"S. c #50864D",
"D. c #4C914A",
"F. c #51934F",
"G. c #568C54",
"H. c #559552",
"J. c #5B9858",
"K. c #638559",
"L. c #59A256",
"P. c #5A8C6E",
"I. c #678666",
"U. c #6A956A",
"Y. c #718E77",
"T. c #789B77",
"R. c #74A374",
"E. c #FB813D",
"W. c #A98354",
"Q. c #9B8D78",
"!. c #BA8469",
"~. c #AE8775",
"^. c #C7875B",
"/. c #D78559",
"(. c #ED8045",
"). c #EC834B",
"_. c #F58243",
"`. c #FE8542",
"'. c #FF8A44",
"]. c #F5864A",
"[. c #E98752",
"{. c #F58C55",
"}. c #FD945B",
"|. c #CA8E70",
" X c #D59B7B",
".X c #E9996D",
"XX c #F0A176",
"oX c #FBA675",
"OX c #727C84",
"+X c #668A86",
"@X c #758994",
"#X c #799593",
"$X c #7BA7A6",
"%X c #8F918C",
"&X c #8B9697",
"*X c #AB9791",
"=X c #8FAC90",
"-X c #B3A39A",
";X c #AA9AA2",
":X c #9DA8A4",
">X c #86A6B3",
",X c #97B4BC",
"<X c #A4A9A9",
"1X c #AAABAB",
"2X c #ABB0B0",
"3X c #B7B9B9",
"4X c #D29B80",
"5X c #D0AB95",
"6X c #F6B691",
"7X c #CFB7AA",
"8X c #C4BAB8",
"9X c #E4BCA3",
"0X c #AFC3AD",
"qX c #DDC2B2",
"wX c #FAC6A8",
"eX c #FCD2B9",
"rX c #ACB8C9",
"tX c #B7C4C7",
"yX c #BCC7D7",
"uX c #B2CBD1",
"iX c #C6C9C7",
"pX c #D5D2CB",
"aX c #C4C9D6",
"sX c #C9D6DD",
"dX c #D6D7D7",
"fX c #ECD9CC",
"gX c #DEE1D8",
"hX c #E7E3DC",
"jX c #FDE7D7",
"kX c #C9DEE3",
"lX c #DADDE2",
"zX c #E9EAE9",
"xX c #F5EDE4",
"cX c #F5F3EB",
"vX c #FCF5E9",
"bX c #FDF4EC",
"nX c #EAEEF2",
"mX c #EFF2F1",
"MX c #F3F6F5",
"NX c #FDFCF3",
"BX c #FEFEFD",
/* pixels */
"M.M.M.M.M.g M.g M.g Y Y g Y Y Y Y Y Y Y Y g U f U f U f J H J J J Y Y Y Y U Y M.Y Y M.M.M.B.M.M.M.M.J M.B.B.B.B.B.M.M.B.B.M.B.B.",
"M.B.M.Y M.M.M.M.M.Y M.g Y Y Y Y Y Y Y Y J H U U f U f U H H J J Y J J Y J J Y N.Y M.M.M.M.M.M.M.M.J v G M.B.B.B.M.B.B.M.B.B.B.M.",
"V.N.M.J Y Y Y M.M.M.Y M.Y Y Y M.Y Y Y U H U C.Y U U U U H J J J Y Y Y U U Y M.Z.Y M.M.M.V.F.D.M.Y F j m G B.V.B.B.B.M.B.B.B.M.B.",
"M.B.M.M.Y Y Y Y Y Y Y Y Y g M.Y Y Y Y U f f Y Y U f U U H H J J J U H J H Y Y N.M.M.M.B.J.#XR.M.Y c 3 7 m F M.M.B.M.B.B.B.M.B.M.",
"M.M.M.Y Y Y M.Y Y Y Y Y M.M.Y Y J Y Y f U f f C.U f U U U H J H J J H H Y Y Y Y J M.M.B.Z.H.S.M.U z 1 5 7 j U B.B.B.B.B.B.B.B.B.",
"M.M.Y Y Y Y Y Y Y Y Y M.M.Y Y Y g C.U U f U a U f U J U U J J J J J H T Y U H Y M.M.M.Y M.Y Y J F + 1 5 6 6 x Y B.B.D.B.B.B.B.B.",
"M.Y Y g Y Y Y Y Y M.V.V.C.Y Y Y C.g H H U a U H H Y H f p D c c D F J H H H H Y Y M.Y Y Y Y J J y - 1 3 7 7 C D B.B.D.B.B.D.B.B.",
"M.Y Y Y J Y A.B.M.F.D.V.M.Y g g U C.H H H U f U U H e 2 1 & % % $ # 9 a Y H H Y J Y Y J H U J D h < < 4 5 7 6 x M.B.D.B.D.V.B.M.",
"N.J J T J T F.D.F.F.A.M.Y U U U Y U g f f U f f f F c M * 6 7 / * & % # 0 H H f U Y U H J J k & 4 : : 4 3 5 6 m D B.D.B.D.D.B.M.",
"J J J J H N.H.H.H.Z.N.M.Y U U Y Y U J U f U f I a H c B y.Q.p.P V * * & % , D f H J H H J c m ( 5 @ @ : 1 3 7 7 l V.D.V.D.V.M.M.",
"M.J J J H T H.J.Z.Z.M.Y U U U Y J U U U U f U a H F w C 8XaXrXrX&Xq.( * * % - + H H H f v ` ;.' 1 = - 1 3 5 & 5 j T A.A.D.V.V.V.",
"M.J J J J Z.G.G.Z.M.Y Y U U Y Y U U g U f I a U f U z 6 8XnXlXrXrX,X*X0.* * % @ 9 F c h O.4.4.+.7 7 ( ' ' ) N N M G V.A.A.A.D.V.",
"J J B.Z.N.Z.S.Z.R Y Y J U U Y U f U U U H a H f Y U 0 C 8XMXzXlXaXrXrX;Xy.( / % . X m ;.6.E.6.2.$.-.$.+.' ( ( ( ) x N.A.V.D.D.M.",
"M.J N.Z.U.U.Z.T T Y Y U H Y Y H f f U U U H H Y Z.U r x iXBXnXlXsXaXrXrX;Xr.X._ * * ;.E.'._.E.(.v.3.2.,.;.=.X._ | C R A.D.J.A.M.",
"H T H J =X2XK.R C.Y J J U U U H f I I W R H U C.Z.U w z 8XBXNXnXlXaXaXyX8X|.s.$.o.-.E.`.`.`.`.`._.m.b.m.E.v.2.-._ m W Z.H.L.A.Y ",
"I J I F :XdX2XG.M.Y J J U H H H I I w I U H Y C.C.U p , -XBXBXzXlXaXaXaX;Xi.:.<.4.E.'.'.`.`.E.'.`.`.`._._._._.3.X.& b H.F.H.B.Y ",
"J F I I <XzXxX0XT.J.T J J H H H F H H a H H U C.T U a + p.nXBXnX8X X!.!.i.-.1.m.`.`.`.`.`.`.E.`.`.`.`.`._._.].(.,.N h Z.B.Y Y J ",
"H T U R <XcXNXNXhXiX:XU.W J J H F H H H H H H Y U a U 8 P 3XMXdX5X!.*.-.<.5.m.'.`.`.`.`.`.`.`.`.`.`.`.`.`._._.(.2.X.< D J J J J ",
"J J J T :XcXNXNXbXbXxXgX0XT.T J J H H H H H f U H H U q 2 %XaX8X~.0.&.;.8.8.].'.`.`.`.`.`.`.`.`.`.`.`.`.`._._.(.l.-.V k U J J J ",
"J Y J T &XhXNXvXbXvXbXbXjX9XQ.K.H g H f H H U f H I a e + q.;X<Xp.0.t.n.`.`.`.`.`.`.'.`.E.`.`.`.`.`.`.`._._._.(.b.2.O.< J J J J ",
"Y Y Y J Y.iXcXvXbXvXjXeX6X6X.X|.q.E H H H H H f H a a a + n p.2X-Xc.n.]._._._.`.`.`.`.`.E.'.`.`.`.`.`.`.`._._.(.b.l.-.3 D J H J ",
"Y Y J J P.1XxXvXbXvXfX6X6X.X{.}.{.^.E Y H H H H H I I a 9 < 9.~.4X[.b.b.6.6.8.E.'.E.`.`.`.`.`.`.`.`.`.`.`._._.(.).).,.7 c H H J ",
"Y g Y J G.&XpXvXjXfX9X4X[.n.b.b.].{.^.I U f a U U a a F t X B e.c.z.x.l.3.6.m.E.E.`.'.`.`.`.'.`.`.`.`.`.`._._.(.n.n.3.) k J J J ",
"M.Y Y Y W &X-XeXjX9X4X X/.n.n.n.(._.{.u.I U f U U U H a f + 3 } t.g.k.2.1.6.E._.'.`.`.`.`.`.`.`.`.`.`.`.`._.b.b.(.(.v.-.j F J J ",
"M.Y g Y T %X%X5X9X X^.^.c.x.x.n.(.(.[.[.Q D H H J T F f a q > ] w.t.>.2.4.E.E._.`.`.`.`.`.`.`.`.`.`.`.'.`.m.4.v._.).(.2.( F J Y ",
"Y Y Y Y N.I.~. X|.|.i.i.g.c.j.z./.2.2./.g.G H H H H H F a F + V @.+.>.2.6.E._._.`.'.`.`.`.`.`.`.`.`.`.E.m.5.2.2.-.O.k.(.-.l Y J ",
"g M.Y Y Y E y.|.i.u.w.w.w.r.g.g.j.g.t.j.z.%.D U g D D F F a h 4 } #.>.3.6.`.`.`.'.E.'.'.E.`.`.`.`.E.7.7.7.<.;.3 = = O._.3.N J J ",
"Y Y Y Y J Y Q 0.e.&.0.9...9.@.*.e.e.r.t.s.a.v r h N S S K K j 3 } $.>.4.E.`.`.`.'.'.E.'.'.`.`.E.7.`.}.oXXXz.-.& % * +.5.E.,.c J ",
"Y Y Y Y Y J E S 9.9.9.9. . . .{ { } 0.@. .] 6 V X.o.-.:.3.>.6 6 O.=.,.v._.`.`.'.'.'.E._.`.E.7.E.oXwXvXvXhX8X5X~.i.,.1.4.`.wX^ J ",
"Y Y Y Y J J Y b Z [ ] {  . . .{ ] ] 6 4 : 5 X.<.4.6.6.v.n.-.4 5 #.t.k.b._.'.E.(.<.o.V V <.E.}.wXjXMXrX%X&XaXrX8X8X7X6X6XeXNXtXY ",
"g Y Y g J J J H x B Z Z ]  . .9.Z 6 < o 4 $.4.m.E.`.'._.v.=.$ 4 #.t.z.n._.'.6.) @ . @ & <.oXjXBXBXlX^   z lXdXsXdXzXBXBXBXMXtXC.",
"Y M.Y Y U Y Y U I b 6 C 6 6 6 6 6 2 o 2 +.b.m.`.'.`._.(.l.| @ % O.>.l.x.b.'.6.V . / o.6.wXNXBXBXBXmXpX*X<XmXcXmXBXBXBXBXBXzX$XY ",
"Y Y J J U J J U U I v x C 2 6 2 2 < ; [ k._.`.`.m.m.b.v.,.7 @ 6 0.t.z.x.3.5.8.4.:.(.oXeXBXBXBXBXBXBXBXBXBXBXNXBXBXBXBXBXMXrXP.M.",
"M.Y Y J U U J U U f U c L 2 2 2 2 - 2 @.k.b._.].m.v.s.>.) @ L %X*X-X5X4XXXXXoXoX6XeXvXBXBXBXBXBXBXBXBXBXBXBXBXBXBXBXBXMXtXY.M.g ",
"Y Y J J g J J U g f f U a c z z x 2 n #.k.n.b.b.b.l.t.O.2 L ;XrX1X3XiXdXxXvXvXbXBXBXBXBXBXBXNXNXNXBXBXBXBXBXBXBXBXBXMXuXP.M.M.M.",
"Y Y Y Y U J U J U U H U f I f I D b C *.f.n.n.n.x.z.a.| P OX<X2X<X<X1X3XdXNXBXBXBXBXBXNXNXNXNXNXNXNXNXNXNXBXBXBXBXBXyX+XC.M.M.M.",
"Y g Y Y J U U g U f U f H H H I U F C *.f.x.x.x.x.z.d.r.9.P ^ OXOX&X;X1X3XdXvXNXBXNXNXBXNXvXNXNXNXNXNXNXNXNXBXBXBXkX+XC.B.B.B.M.",
"Y Y Y g U U U U f f f I H H f f a I x ..h.x.l.z.z.j.h.t.w.9.! ! ~ ^ OX&X<X3XpXcXNXNXNXNXNXNXNXNXNXNXNXNXNXNXBXMXsX+XC.M.B.M.M.B.",
"Y J Y g U U U U f f f U H H f f H H v  .g.z.k.s.h.j.j.g.a.0.Q P P ! L ^ OX&X1XiXhXcXNXNXNXNXNXNXNXNXNXNXNXNXnXtX+XC.g M.B.M.B.M.",
"Y Y J U f U U f f f U U H H f U H J D S g.z.s.t.d.h.j.j.g.t.*.| } 9.] B L ! OX&X<XiXgXxXcXNXbXNXvXcXcXxXgXtX&XP.C.M.M.M.g g B.M.",
"Y J J g H U f f f H H H H f U f H H H A g.z.a.#.=.d.h.h.h.h.t.*.#.@. .[ ] C L ! ^ @X:X3XiXdXdXdXiXrX2X=X+X~ C.M.M.g g M.M.M.M.M.",
"Y J Y J f U H f H a H g U f f U H J H b g.z.a.#.} *.g.h.h.j.h.t.w.#.@.@.} { ( Z P L ~ OX@X#X@X@X@X@X#X$XU.M.M.Y M.M.M.M.M.M.M.M.",
"Y M.M.Y U f f a a a f U f a a a H J H x a.z.a.$.} } w.d.z.h.h.h.a.w.w.w.&.....O.| 9.q.%X,X,X>X>X,X,X0X0XL.V.M.M.M.M.M.M.Y M.M.M.",
"Y Y C.Y f f f a a a a f a i a a f f a x r.z.s.-.| [ { w.a.z.z.z.g.a.r.a.t.=.*.*.-.-.$.i.3XkXyXkXkXyX,X#XB.B.M.Y M.M.B.M.M.M.M.M.",
"Y Y M.T Y H g a a a i u p u t u i a p , @.a.s.s.=.} C 2 Z *.t.f.a.r.t.d.d.a.-.>.a.s.,.s.4XMXMXMXBXuX#XH.M.M.M.M.B.B.N.M.M.M.M.Y ",
"Y U M.U U f H f a u i u u u u u u i w ; ( | +.$.$.A r q o < S ` #.#.*.t.f.k.l.k.s.s.k./.9XbXbXNXmX*XK.B.M.M.M.B.M.V.M.M.M.M.Y M.",
"M.J J J H J H f f a u p u u u t u t q ; B _ _ _ B 0 t e O o . . x C { =.k.l.6.v.5.b.v..XfXMXxXhXqXW.G B.M.M.M.M.B.B.M.Y M.Y M.M.",
"Y M.J J H H H f f a a u u t t t i t + : 4 ( _ 6 + e t t e O . O w r z | 2.v.b.6.m.m.4.i.fXBXxX5X^.1.A J M.M.V.M.A.N.M.N.Y M.C.Y ",
"Y Y M.J J H H H H H f i u t u t t u 8 @ $ 3 & + 0 t t t t q 8 8 e y r S >.v.6.b.m.`.<.0.iXzX-Xe.d.,.A y S.J.J.G.F.A.M.J T M.T M.",
"M.M.M.J J Y U J J H f a a t u a u u 8 . : % @ 9 e t t t t t t t t e t l +.<.4.1.5.6.:.S Y.=XQ ) *.+.N 0 T.1X3X=XU.N.M.M.M.M.M.M.",
"M.M.M.M.M.J U Y H H H f i i a u u u O . @ @ @ + t t t t t t t t e t t z ( +.-.;.:.<.o.m D H h 6 _ _ V 9 I.Y.Y.%XU.N.M.M.J M.J T ",
"M.M.M.Y Y U Y Y U J H H f f f i s s q X . . . 9 t t t t t e e t t t t h 4 7 _ ' +.$._ l J F w 2 5 N N j D W W R T T J T T M.M.M.",
"B.M.M.g g g Y Z.Y H J H H g g f s s i e 8 q e t t t t u u t t t t t t 0 2 1 N ( ( ) 7 j H a 0 > < 1 3 5 h U T J J M.M.M.M.M.M.M.",
"B.g M.Y Y Y Y N.Y J H H J J g d g s s s s u t t t t u u s t u t t t t 0 = - 3 M 7 7 3 , D y w o = > 4 7 2 f J Y T J M.T T M.T M.",
"M.M.M.M.Y Y Y V.T U Y Y g M.M.g g g d s s s s u u u s u t t t u t t t w , = < 5 5 5 & < k t t 8 o , < 1 , d J J M.M.M.M.M.M.M.M.",
"M.g g M.Y J M.V.N.Y Y Y Y Y Y Y Y Y g g d s s s s u u u t s t t u s i e + = < < 3 5 1 > 9 s i u 9 9 + 9 t g J J M.J T J M.M.T J ",
"M.M.J M.Y M.M.M.N.M.M.Y M.Y Y Y M.Y Y g g g g s s i s u u u u u u f i w + ; ; ; ; > ; + 0 i s s d d i d g H J M.J T M.M.J M.J T ",
"M.M.J Y Y J Y M.M.M.M.M.M.g M.M.M.M.Y M.M.Y g g d f d s a u u i i f i t 9 O o + + O + w s s s s d d d f f J J T M.M.M.M.T M.M.M.",
"M.M.J J g Y g M.M.M.B.M.Y Z.T.R.A.M.M.g M.Y M.g g g f f d d d f f f i i t e w t t t s s s s s s d g d g J J N.M.M.M.M.T J M.M.J ",
"M.M.J Y Y J Y g M.M.M.M.R Y T G.V.M.M.M.M.M.M.g J J J J g g g g J f f i a a i i s s g g g g g g d g J J J J J Y M.T M.J M.J M.T ",
"M.g M.g g Y Y Y M.M.M.M.M.M.C.B.M.M.g M.M.M.M.M.J J J g g M.g g J J g U f g g g g d g g g g g M.J Y J Y Y Y M.N.Y N.M.Y J J T J ",
"M.M.Y M.M.M.M.M.M.M.B.B.B.M.M.M.M.M.M.M.M.g M.M.M.J J M.Y Y M.Y Y J J U J J J J M.g Y Y B.M.M.M.M.Y Y Y M.M.M.Y Y M.Y Y J J J N.",
"M.M.M.M.Y M.M.M.B.M.B.M.B.M.M.Y M.M.g M.M.g Y M.M.M.J M.Y M.Y Y Y Y Y Y Y J J J M.g g M.M.M.M.Y M.Y Y M.M.J J M.M.Y U U J U J J ",
"M.B.M.B.M.M.M.M.M.B.M.B.M.M.M.Y M.M.B.M.B.M.M.g M.M.M.M.M.M.Y Y Y J Y J Y J J J M.g M.M.M.M.M.M.M.Y M.Y J M.M.N.Y Y J J U U U J "
};
