/* XPM */
static char *result[] = {
/* columns rows colors chars-per-pixel */
"64 64 239 2 ",
"   c #0B0B0B",
".  c #2B1D1B",
"X  c #2D241B",
"o  c #33241A",
"O  c #382519",
"+  c #36321F",
"@  c #392B24",
"#  c #312928",
"$  c #2B3B26",
"%  c #353827",
"&  c #482A1B",
"*  c #532E1E",
"=  c #4C351D",
"-  c #57321D",
";  c #63361C",
":  c #6B3A1E",
">  c #773E1D",
",  c #432C23",
"<  c #4C2E21",
"1  c #502F21",
"2  c #483525",
"3  c #533222",
"4  c #5B3522",
"5  c #563B26",
"6  c #623723",
"7  c #643925",
"8  c #6B3C24",
"9  c #673D29",
"0  c #713E26",
"q  c #2D4729",
"w  c #36482A",
"e  c #2D532D",
"r  c #32542D",
"t  c #33592E",
"y  c #3B4D31",
"u  c #315D30",
"i  c #3A5933",
"p  c #336331",
"a  c #3D6235",
"s  c #366B33",
"d  c #396C36",
"f  c #3B6D3A",
"g  c #367135",
"h  c #397237",
"j  c #3E733C",
"k  c #3E793C",
"l  c #7B401E",
"z  c #454629",
"x  c #484F2F",
"c  c #5A4629",
"v  c #5B4934",
"b  c #455B33",
"n  c #545736",
"m  c #65442A",
"M  c #6D412B",
"N  c #744126",
"B  c #7B4225",
"V  c #75432B",
"C  c #7B452B",
"Z  c #7D4D2C",
"A  c #664633",
"S  c #7A4935",
"D  c #705633",
"F  c #436436",
"G  c #456339",
"H  c #426C3C",
"J  c #516038",
"K  c #41753F",
"L  c #4B743F",
"P  c #427B3F",
"I  c #6C6638",
"U  c #55575B",
"Y  c #654C43",
"T  c #6E5A51",
"R  c #446C42",
"E  c #427640",
"W  c #437C40",
"Q  c #4A7C46",
"!  c #4A7648",
"~  c #4C7D4A",
"^  c #55714F",
"/  c #79635A",
"(  c #6E7354",
")  c #565F66",
"_  c #566E70",
"`  c #6B7172",
"'  c #844828",
"]  c #85492A",
"[  c #8B4C2C",
"{  c #934E2C",
"}  c #86552F",
"|  c #93522C",
" . c #9A522D",
".. c #874C33",
"X. c #895336",
"o. c #935233",
"O. c #9A5433",
"+. c #9A5838",
"@. c #9D5A3A",
"#. c #A6572D",
"$. c #B35929",
"%. c #A65B36",
"&. c #AA5B34",
"*. c #A25C3B",
"=. c #B25E33",
"-. c #B95F36",
";. c #826538",
":. c #BB612F",
">. c #A7623F",
",. c #AC623C",
"<. c #BC6435",
"1. c #B3633C",
"2. c #B96538",
"3. c #BA653B",
"4. c #C76837",
"5. c #C46B3B",
"6. c #CC6D3C",
"7. c #D56E36",
"8. c #CE703E",
"9. c #D4723C",
"0. c #DD743B",
"q. c #E5763A",
"w. c #E4783E",
"e. c #EB7B3E",
"r. c #F27E3F",
"t. c #F97F3C",
"y. c #8A5D47",
"u. c #906750",
"i. c #A86644",
"p. c #B36641",
"a. c #B56943",
"s. c #BC6C44",
"d. c #B17655",
"f. c #927363",
"g. c #887874",
"h. c #B47D65",
"j. c #C36E43",
"k. c #CC6C40",
"l. c #C57045",
"z. c #CD7245",
"x. c #C17149",
"c. c #CC764A",
"v. c #CD784C",
"b. c #D27544",
"n. c #DA7640",
"m. c #DE7A44",
"M. c #D37748",
"N. c #D2794A",
"B. c #DA7B49",
"V. c #C87A51",
"C. c #E37B43",
"Z. c #E27D47",
"A. c #EB7E43",
"S. c #F17F41",
"D. c #448242",
"F. c #498446",
"G. c #468843",
"H. c #498A46",
"J. c #47814B",
"K. c #4C844A",
"L. c #4C8B4A",
"P. c #51874D",
"I. c #4C914A",
"U. c #51934F",
"Y. c #4B8055",
"T. c #548D53",
"R. c #579755",
"E. c #5D9D5B",
"W. c #5A8D6E",
"Q. c #698B6D",
"!. c #749974",
"~. c #73A473",
"^. c #F5803F",
"/. c #FE823D",
"(. c #9A867B",
"). c #B48877",
"_. c #DF804B",
"`. c #D78659",
"'. c #ED8146",
"]. c #EA824A",
"[. c #F48243",
"{. c #FD8542",
"}. c #FC8847",
"|. c #F08D57",
" X c #F68D54",
".X c #D39472",
"XX c #F89B69",
"oX c #EA9B70",
"OX c #FCA675",
"+X c #6D7D86",
"@X c #77848C",
"#X c #71938A",
"$X c #748A96",
"%X c #7FAAAA",
"&X c #988884",
"*X c #8A9394",
"=X c #AF948A",
"-X c #8DAB91",
";X c #BBA89B",
":X c #8A9DA1",
">X c #989CA2",
",X c #96ADB5",
"<X c #A8A9AA",
"1X c #ADB0B1",
"2X c #B8B6B6",
"3X c #CC9885",
"4X c #D6A88E",
"5X c #FCB48C",
"6X c #F6B590",
"7X c #C9B5AC",
"8X c #A5C5B5",
"9X c #FFC09C",
"0X c #D6CBBB",
"qX c #FACBB1",
"wX c #9AB6C0",
"eX c #AAB5C7",
"rX c #B3B8C4",
"tX c #B5C8CD",
"yX c #BCC4D2",
"uX c #C9C8C7",
"iX c #D3CBC9",
"pX c #D3D1CC",
"aX c #C4C9D6",
"sX c #C6D5DB",
"dX c #D7D9D7",
"fX c #FFDBC5",
"gX c #ECE4DD",
"hX c #FBE8DC",
"jX c #D6DAE1",
"kX c #DFDFE4",
"lX c #E8E9E9",
"zX c #F3EFE7",
"xX c #F3F2EA",
"cX c #FCF6EE",
"vX c #EAEEF3",
"bX c #F3F4F4",
"nX c #F7F8F7",
"mX c #FDFBF3",
"MX c #FEFEFD",
/* pixels */
"D.D.D.W D.W D.D.k D.W W D.W W W W W W W W P K K K f K K K K P W W W P W W W W W W W D.G.D.D.D.D.D.D.k G.G.G.G.G.D.G.G.D.D.G.D.G.",
"D.G.D.D.W W W D.D.W D.k k W k W W W W W K P K K K j K K P K P W W P W W P K D.F.W D.D.D.D.D.D.D.D.D.b n G.H.G.G.G.D.D.G.G.G.G.G.",
"G.F.D.P D.W k D.D.D.k D.W W D.W W W W K j K J.J.K K K K P K W P W W W W W W Q F.D.D.D.D.H.T.T.D.W K v 9 n G.G.G.G.D.G.G.D.G.G.D.",
"G.G.D.D.W W W D.W W W W k W W D.W W W j K j W W E K K K K K P K W K K K E W W F.D.D.D.F.E.~.!.G.D.G 5 8 M b G.G.D.G.G.D.G.G.D.G.",
"D.D.D.W W W D.P W W W W D.W D.W W J.P K j j j J.K K P K K P K P W W E E E W P W D.D.D.D.P.R.P.D.D.x 4 8 0 5 R G.G.G.G.G.G.G.G.G.",
"D.W W W W W W W W W D.D.G.W W W W W K j K R j K K K E K K K P k P P K E W E W W D.D.D.P W W W W W % 4 7 0 V v W G.G.I.G.G.G.G.G.",
"D.W W W k W W D.W D.L.H.F.W W W J.k K K K K E K K J.K E f G b b i H k W K P K W D.W P P P P P D.R 2 3 7 8 0 9 b G.G.I.G.G.I.G.D.",
"D.W W W W W L.F.D.I.I.F.D.W k k J.E K K j K j j K K f 2 6 ; ; ; - = z a E E j E P P P P P P D.F x < 3 6 9 8 V A k G.I.G.I.G.G.G.",
"D.D.W W P L U.I.U.U.L.D.W E K E W K E K K K K R H K H 7 0 0 0 0 l : ; - z H K K P P W K P K F - 9 1 1 4 6 8 N M F H.I.G.I.I.G.D.",
"P P W P L D.R.R.R.K.F.D.W E E W W E E P K K j j j j K c i.g.g.u.S ' l : ; & i K K K K K P F m ' 8 1 < 4 4 7 8 8 m H.I.H.I.H.D.D.",
"P D.W W K Q R.R.K.J.F.W K K W W W E E K K j K j H j R = ).jXaXeX>Xg.Z l > ; & , K K K K F Z <.#.8 & & - 6 7 : 8 m P H.I.I.H.H.G.",
"D.P P P L F.T.T.J.D.W W K K Q E K E K K f R j R j E !.9 &XvXjXaXrXeX<Xf.' l ; & + f F z | 0.'.2.B 8 Z O. .{ B B N n I.H.L.H.I.H.",
"k W G.L.~ P.P.K.Q W W W K E W E K K K K K K K E ~ -XgXT &XvXlXjXaXyXeXeXh.y.' : & + c :.q.^.^.0.3.3.<.1.O.[ ' [ [ v F.L.H.I.I.D.",
"W W D.K.! P.~ ~ Q W W E K W W E K E E E E E f ! #XiXcXu.&XnXvXvXjXaXrXeX<Xh.#.#.' - :.^././.^.^.A.0.7.6.4.<.#. .#.0 ! F.I.E.L.D.",
"W P E R ! ~ ~ ~ D.W W E E E W E R f R ! ! j P !.2XhXcXf.g.MXnXvXlXaXaXrXrX3Xk.-.:.4.q./.}.{.{.}.{.[.A.[.[.'.0.<. .N ^ L.R.E.L.P ",
"E R E E H ! ~ ~ D.W W W E E E f R R i R ! K _ ;XqXfXhX(./ bXMXbXjXjXaXaXrX).k.0.0.e./././.{.{.{.{.{.{.^.[.[.[.w.#.8 n R.U.U.G.W ",
"H R K R H R ! Q W W W K K E K K j j R K K J.&X4X5X9XfX).Y pXMXbXpX3X`.).d.<.4.^./.}./.}.{.{./.}.{.{.{.{.{.[.[.[.8.' z P.F.D.P P ",
"Q E L R E E K P W E W K E E K K K K j j K ` d.|.XXOX5X3Xv &XbXlX7X=Xi.,.6.q.e./.{./.}./.{.{.{./.{.{.{.{.[.{.[.[.0.&.4 G P P P K ",
"P W P P K W P P E W W W W K k K K K j K ! u.j.]. X XOXOXA / 2XuX).d.i.1.q.^.}.}.{.}./.}./.{./.}.{.{.{.{.}.[.[.'.m.5.' z P P P P ",
"P P P P K W P W E W k W K K K K K K K K ( ,.5.n.'.'.|. Xy.A &X1X=Xi.i._.}./.}.}.}./.}.{./.}.}./.{.{.{.{.{.[.[.[.].8.&.= L P P P ",
"W P W P W P P P E W E E E E K E K K E H X.&.1.8.C.'.'.|.d.3 y.<X,Xh.M.}.^.^.^.[./.}./././.}./.}.{.{.{.{.{.}.[.'.].m.4.7 F K P P ",
"P W W P P Q W P W W W E W E E K K E j J { #.,.3.b.Z.].].].6 M f.3X.X].A.w.^.^.^.}././.}.}./.}./.{.{.{.{.{.[.[.'.A.].8.B b P K P ",
"D.P W W P E K E k E E K W K K K K K H v ..O.%.,.c.B._.]. XC 4 +.V.N.M.C.9.w.^.^.}./.}././.}./.}.{.{.{.{.{.{.[.'.C.].w.| x K K P ",
"D.W P W E E W W W W E E K K j j K f f c ..[ O.1.j.c.M.m.w.v & C a.x.l.b.7.^.^.}./.}./.}.}./.}./.{.{.{.{.{.[.A.C.'.'.'.<.c K K P ",
"D.P D.P W W W W E E E W E E K j K j i 5 V ..o.*.1.j.k.k.1.H + N *.p.5.6.0.r.^.^.{.{.{.{.{.}./.}.{.{.{.{.{.[.0.A.z.3.C.0.[ F P P ",
"P P P W W W Q W E E E W E E K K K j b 5 9 V ..O.=.3.-.=.I H y 4 O.%.2.9.q.^.[.{.{.{.{.{.}./.{.{.{.{.{.{.{.e.9. .& @ 3.'.5.n D.P ",
"D.W W W W W D.Q E k E k E E K j K K x 3 9 0 C O.%.#.{ X.H H G & ..%.3.9.e.{./.{.{.{./././.{.{.}.{.{.{././.7.<.& o X [ A.w.' K P ",
"k W W P W W W Q W E E E E K K K K R b < 6 0 0 B 8 0 [ o.I ;.D 4 [ %.3.m.'.{.{.{.}.{.{.}./.{.{./././.}. XXX`.3.- o o ] C./.4.b P ",
"W W W W W k W W E W P K K P K K K R i < 4 4 - B  .&.=.4.4.6.o.4 +.,.5.0.[.{.{.7.[ > ] :.r.{.{.{. X9XhXMXxXuX7X=Xf.>.7.q.[.9X` W ",
"D.W W W W W W E E E K P K K K K K K R 2 & 3 { <.7.0.C.A.C.n.] < @.1.l.m.'.{.^.4 . o o o =./.}.5XhXMXdX*X*XuXrX2X2X7X6X6XqXMXtXF.",
"k W W W E W E W E W P K P K K j E K R y 3 #.7.e.t.{.{.[.C.k.C < #.1.z.].'.}.{.4 O O o o $.XXfXMXMXkX(.  X uXdXpXdXkXnXMXMXMXtXW ",
"D.W k W W W k E P E K K j j j R E K f %  .0.[.{.{.{.{.A.C.3.8 & +.a.b.B.].[.{.&.O O & | 5XmXMXMXMXnXvX>X<XvXvXbXMXMXMXMXMXvX:XP ",
"W W W K E W E K K E K K K j j R j H b M 5.A.}.{.{.[.S.C.k.@.& < X.a.5.9.0.w.^.^.4.:.`.qXMXMXMXMXMXMXMXMXMXMXbXMXMXMXMXMXnXtXW.k ",
"D.D.W W K K E K K j K K K R j j f K y o.k.A.S.{.[.A.M.j.-.6 2 &X&X=X7X4XoXoXXXOX5XqXmXMXMXMXMXMXMXMXMXMXMXMXMXMXMXMXMXnXyX#XD.k ",
"k D.W k W K J.j K j K K K K K j E j c o.j.C.A.'.A.B.k.-.S # &XrX1X1X2XdXlXcXcXcXmXMXMXMXMXMXmXnXmXMXMXMXMXMXMXMXMXMXMXyXW.D.D.D.",
"D.k W D.K W K K E E R j j K K K j R v o.j.B.Z.Z.Z.B.l.s.Y ` >X<X1X1X1X1XpXxXMXmXMXMXMXnXMXmXmXmXmXmXmXmXmXMXMXMXMXMXsX#XG.D.D.D.",
"W W k W K K J.K K j E j K j K R E j n ..j.B.B.B.B.B.c.a.>.T ) +X@X@X>X<X1XiXzXmXmXmXnXmXmXmXcXmXmXmXmXmXmXmXMXMXnXvX#XJ.G.G.D.G.",
"k W W W K E j K j E j E K K j j j E b ..j.N.B.M.N.N.v.x.i.i.T ) _ ` +X*X<X1XuXzXmXmXmXmXmXmXmXmXmXmXcXmXmXmXMXMXjX#XJ.D.D.D.G.D.",
"W P W j E E J.E K K R K K K j R K K H A a.N.M.z.M.v.v.v.s.i./ T T T ) ) ` *X<X2XdXzXcXcXmXcXcXmXmXmXmXmXmXmXnXyX#XJ.k D.D.D.D.G.",
"W W P P j j j K j K K K K K j K K K K n a.M.M.j.j.c.v.v.v.j.1.@.+.+.S S Y ) ` *X<XuXgXzXcXcXmXmXmXcXcXmXzXpX:XW.J.k D.D.k D.G.D.",
"P W P j K K K K K K j K K K K K K K W i a.v.c.j.p.j.c.c.v.v.j.p.i.*.+.X...S Y U _ @X>X1XtXdXdXkXpXtX1X,X#X_ Y.G.D.D.k D.D.D.D.D.",
"W W W P K W K j K j K J.K K K j P K W i i.N.c.3.*.*.s.c.c.v.v.x.i.*.*.*.+.o...S Y U ) $X$X$X$X#X@X#X#X#X~.W D.k k D.D.D.D.D.D.D.",
"W W J.W P E W K K K K J.K K K K E W P i @.M.z.3.*...@.x.c.M.c.c.j.a.p.i.*.*.@.+.@.+.y.g.wXwX,X,X,XtXtX8X~.k D.D.D.D.G.D.D.D.D.D.",
"W W G.W K K K K j K K W K K K K K K K y o.z.z.k.%.] ..+.s.z.M.M.c.j.s.s.s.a.,.,.1.3.s.s.;XsXtXyXsXyX,X%XG.D.D.D.D.G.G.G.D.D.D.J.",
"W W D.D.E E P E K K K j j K K E K K j q 0 3.j.k.-.O.V 5 M @.5.8.c.s.1.l.l.l.j.3.j.5.5.6..XgXbXbXnXjX#XE.D.D.D.D.D.J.G.G.D.D.D.W ",
"W W Q E E P P E K W K j j f f f j j f % 9 *.%.-.<.[ x i % @ m } %.%.,.1.z.z.n.b.8.z.9.`.4XhXcXcXnX2X( H.D.D.D.G.G.G.G.G.D.D.W W ",
"D.W W k k E E P K K j j f f d f f f a % 8 { O.{ [ z u p $ X X o 2 A S %.6.n.C.C.w.A.w.`.qXzXzXhXiX.XI G.D.D.D.G.G.G.G.W D.W J.D.",
"D.D.W E E K K K K K j f d d s d d s i # 6 0 { 0 < q u u u $ . . q i y S 5.0.A.A.A.[.r.s.iXmXmX7X.X].D k W D.G.G.H.G.W W D.W D.D.",
"k D.k W k W K K k E f f d p d d s s t % * - ; = $ p u u u u q $ e u p v =.0.A.A.[./.r.O.2XvX0Xd.i.8.} a K.E.Q.U.I.I.D.P D.D.D.Q ",
"D.D.W W W W K K K K K f f d d d s s r X * * * + t u p p p p u u u u p x  .6.0.0.q.e.q.' Q.*X( X.>.=.] y !.<X1X-X!.F.P P D.W P D.",
"D.D.D.D.W W W W W K K j f f d s s s t X & & & O e p p u p e u u e u u y 0 &.<.4.4.7.7.m F H x 6 [  .' w Q.!.#X(.!.K.P D.P F.D.F.",
"D.D.D.D.W E W Q E E j j j j f d s s s $ . o o X t p p u p e u u u u u i 6 0 {  .#.&.#.- P H t 5 M B B - G ~ ^ ! W D.P P D.P F.P ",
"D.D.D.k k k W F.W E E E j j h h h h g u q q r t p p p p p p p p u u p u 2 5 V ] [ [ B c F h a < 3 c 0 : 2 j K P P P P D.P P Q D.",
"D.k D.D.W W W J.W E W k K k k j h g h h s s s p p p p p p p p p u p p u 2 3 9 0 B N : = i p t + @ 5 7 8 - d P P P K W P D.F.D.D.",
"D.k D.D.W W D.F.D.E k W k W k k k h k g g s s s p s s p p p p p p p p p % 2 4 9 0 8 : * q p p $ @ 2 < 3 + d P K K P D.P D.D.P Q ",
"D.D.D.k W W D.F.J.W W W W W W W P P h h k g g g s s s s s p p p p s p p % @ < 4 6 6 4 & + s g p q % $ % y h j K K Q L P P Q D.D.",
"D.D.D.W D.P W G.F.D.D.D.P W W W k k k k k k g g h d s s s s p p p g p p % @ @ , , , , @ q s g g s s p s g d K P K K W F.W P F.D.",
"D.D.P P P W W D.D.D.D.D.D.W D.D.D.W D.k k k k k k h h g h s d s h h d p e % # % % # % w s s g g g s s s d h P W K P W W W F.F.P ",
"D.W D.P W P P D.D.D.D.D.W K.!.~.I.D.D.k D.k k k j K j j f h h f j h d d d p i i s s g g g s g g g g g h K K P P K P D.W D.D.P F.",
"D.W P W P K P D.D.D.D.D.! W ~ T.G.D.D.D.D.D.D.k k P P k k j k k K j f f f f j j h h h k k k k k h k K h k K P W P P P D.D.F.L D.",
"D.k W W W k D.k D.D.D.D.D.D.F.F.D.D.D.D.D.D.D.k P P P P k D.k k ! k k K K K k k k k k k k k k D.P P P P W W W W D.P D.Q P W F.P ",
"D.D.D.G.D.k D.D.D.D.G.G.G.D.D.D.D.D.k D.k D.D.D.W P P P W k D.k k W k K k k W W k W P D.D.D.D.D.W D.W W P D.D.P P D.P P D.D.D.F.",
"D.D.D.D.D.D.D.D.D.G.G.D.G.D.D.W D.D.k D.D.D.k D.D.D.P P k D.D.k W W W W k W W W k D.D.D.D.D.D.W D.W W W W W D.D.Q D.D.D.F.P P F.",
"D.G.D.D.D.D.D.D.D.D.D.G.D.D.D.W D.D.D.D.D.D.D.D.D.D.D.D.D.D.W W W W W W W E E W k D.k D.D.D.D.D.D.k D.D.P W D.D.P D.D.Q P D.F.P "
};
