/* XPM */
static char *result[] = {
/* columns rows colors chars-per-pixel */
"64 64 234 2 ",
"   c #2C1F19",
".  c #2C211C",
"X  c #38261A",
"o  c #2F2F2C",
"O  c #382924",
"+  c #2B3725",
"@  c #363725",
"#  c #462A1C",
"$  c #4C2D1E",
"%  c #532E1C",
"&  c #582F1D",
"*  c #46311F",
"=  c #58311C",
"-  c #67361D",
";  c #753B1C",
":  c #432C23",
">  c #4D2D22",
",  c #473925",
"<  c #4B382F",
"1  c #533324",
"2  c #5C3523",
"3  c #583C28",
"4  c #643A24",
"5  c #663A26",
"6  c #6B3C24",
"7  c #743E24",
"8  c #2D4729",
"9  c #364829",
"0  c #2F582E",
"q  c #3A532D",
"w  c #325B2F",
"e  c #3B4730",
"r  c #2F5B30",
"t  c #3B5433",
"y  c #315E31",
"u  c #3C5D33",
"i  c #32622F",
"p  c #336331",
"a  c #3A6235",
"s  c #356B33",
"d  c #396C37",
"f  c #3C6D3A",
"g  c #367134",
"h  c #397137",
"j  c #3D733C",
"k  c #3F793D",
"l  c #78401F",
"z  c #49482A",
"x  c #4D4F2B",
"c  c #584934",
"v  c #445A31",
"b  c #4A5935",
"n  c #585836",
"m  c #6C422C",
"M  c #65482C",
"N  c #73432B",
"B  c #7B4529",
"V  c #674734",
"C  c #7A4931",
"Z  c #6B5835",
"A  c #785435",
"S  c #476738",
"D  c #4C6439",
"F  c #436B3B",
"G  c #526538",
"H  c #41753F",
"J  c #427B3F",
"K  c #4C4D4F",
"L  c #564A48",
"P  c #57575A",
"I  c #77594B",
"U  c #71584E",
"Y  c #466D41",
"T  c #566349",
"R  c #437540",
"E  c #4A7346",
"W  c #437D41",
"Q  c #497C45",
"!  c #4C7D4A",
"~  c #4C7953",
"^  c #537956",
"/  c #6E6F54",
"(  c #595E63",
")  c #576A6E",
"_  c #6D7676",
"`  c #803F24",
"'  c #864829",
"]  c #8A4B2B",
"[  c #954C2A",
"{  c #88532C",
"}  c #99542D",
"|  c #844C33",
" . c #8A5338",
".. c #975737",
"X. c #9D5B3C",
"o. c #A6572D",
"O. c #B3552B",
"+. c #A35932",
"@. c #AC5C34",
"#. c #A35D3C",
"$. c #A95C39",
"%. c #B45D31",
"&. c #AC613D",
"*. c #B7653A",
"=. c #BB663B",
"-. c #C95B2B",
";. c #C66834",
":. c #C26A3B",
">. c #CA6D3C",
",. c #D46A36",
"<. c #CC703F",
"1. c #D3723D",
"2. c #DB733C",
"3. c #E76A33",
"4. c #E4763B",
"5. c #ED7C3D",
"6. c #F47C3D",
"7. c #8D5B42",
"8. c #9D6446",
"9. c #85685B",
"0. c #AC6542",
"q. c #A86645",
"w. c #B46944",
"e. c #B76B45",
"r. c #BC6C45",
"t. c #BD724B",
"y. c #B17555",
"u. c #937A71",
"i. c #A07263",
"p. c #C46E43",
"a. c #CA7245",
"s. c #C5754C",
"d. c #CB764A",
"f. c #CC784D",
"g. c #D47443",
"h. c #DA7641",
"j. c #DD7A45",
"k. c #D37748",
"l. c #D47A4B",
"z. c #DB7C4A",
"x. c #D57F52",
"c. c #E47C45",
"v. c #EA7E44",
"b. c #E57F49",
"n. c #F27E40",
"m. c #448242",
"M. c #498446",
"N. c #468843",
"B. c #498A46",
"V. c #4B8449",
"C. c #4C8B4A",
"Z. c #51874D",
"A. c #4C914A",
"S. c #51934F",
"D. c #4B8455",
"F. c #548D53",
"G. c #589656",
"H. c #59A256",
"J. c #4F8262",
"K. c #6F8D6F",
"L. c #6FA06F",
"P. c #75A475",
"I. c #F4803F",
"U. c #FE823D",
"Y. c #B3866E",
"T. c #DB8151",
"R. c #ED8146",
"E. c #E6824C",
"W. c #EB824A",
"Q. c #F48244",
"!. c #FD8542",
"~. c #FD8A47",
"^. c #E98A57",
"/. c #F58E57",
"(. c #CC8E6D",
"). c #EB9263",
"_. c #F59967",
"`. c #F8A679",
"'. c #717D85",
"]. c #758E91",
"[. c #7D9B91",
"{. c #998A89",
"}. c #869390",
"|. c #899498",
" X c #989A98",
".X c #B3978F",
"XX c #8DA597",
"oX c #ADAC9C",
"OX c #889DA6",
"+X c #9A99A2",
"@X c #97A8A8",
"#X c #92AFAC",
"$X c #AAA9AA",
"%X c #ABAEAF",
"&X c #B8B7B7",
"*X c #C89885",
"=X c #D0AA97",
"-X c #F5AC83",
";X c #F2B08B",
":X c #D5B7A4",
">X c #C6B8B9",
",X c #E7BEA4",
"<X c #B7C4BF",
"1X c #FBC7A8",
"2X c #F8CAAF",
"3X c #F7D3BC",
"4X c #AEB3C6",
"5X c #B9C9CA",
"6X c #B6C4D4",
"7X c #B4CED5",
"8X c #C7C7C5",
"9X c #D4CCCA",
"0X c #CBD1CF",
"qX c #C5CBD8",
"wX c #CFD4D5",
"eX c #D7D9D9",
"rX c #E2D6C9",
"tX c #FADAC7",
"yX c #E4DDD7",
"uX c #EFE3D6",
"iX c #FCE6D8",
"pX c #C2CEE0",
"aX c #D3DAE4",
"sX c #DDE2E5",
"dX c #E5E7E5",
"fX c #EBECEC",
"gX c #F8F6EC",
"hX c #FCF5ED",
"jX c #EAEDF0",
"kX c #EFF2F0",
"lX c #F3F4F4",
"zX c #FDFCF3",
"xX c #F9F8F5",
"cX c #FFFEFD",
/* pixels */
"m.m.m.m.m.W m.k m.m.W k m.k W W J W W W k R H H j j R R J H H J J J J W W W W W W W m.m.m.N.m.m.m.m.W m.N.N.N.m.N.N.W N.N.N.N.m.",
"m.N.m.W W W m.m.m.k W m.W W k m.W J J W J R J H R R R j H J J Q W J W W J J W M.W m.m.m.m.m.m.m.m.m.b b W N.N.N.N.m.N.N.m.N.N.N.",
"N.M.m.W m.W W m.m.m.k k W k W m.W m.R R k R W W H H H H J H J J W W W R R J Q M.m.m.m.m.B.S.C.N.m.H c m n Q N.N.N.m.N.N.N.N.N.m.",
"N.N.m.m.W W W W k m.W m.W W m.W W W W R H j W ! H H H H H H J H J R J H J R Q N.W m.m.N.G.[.L.M.m.S z ; 6 b m.N.m.N.N.N.m.N.m.N.",
"m.m.m.m.W W m.W W W k W m.m.W W J W W H R R R W H H H H J H J J J J J H R R W m.m.m.m.N.Z.F.Z.m.W t 1 6 6 M D M.N.N.N.N.N.N.N.N.",
"m.W k W k W W W W W m.m.m.W W W W W W ! R f H H H H R R J H H J J J H H J J J W W m.m.J m.J m.J R e 1 4 6 7 c E N.N.A.N.N.N.N.N.",
"m.W W W W R m.W W m.C.C.M.W W W m.V.L.#XK.R H H W R R f a v v v v u H H H H H W J m.W J J J J m.F < 1 2 5 7 5 b m.N.A.N.N.A.N.N.",
"m.W W W J W C.N.m.A.A.M.m.W j J V.}.dXfX[.R R R H H H t 4 - - - - = , t f H H J W W J J J J J h z , > 2 5 6 6 V F N.A.N.A.B.N.m.",
"m.J J J J m.A.A.S.S.M.m.W W R ^ @XlXcX5XF.Y j f R j H x 7 C C C ; ; - - , a j j R R R k J H S - 5 1 > 1 2 6 6 N v N.A.N.A.A.m.m.",
"m.J Q J H m.G.G.G.V.N.m.W R E @XxXcXcX5X~ H R j f F H x | Y.|.u.9.C l ; - % z d R J R R J F M ' 7 > : > 1 2 6 6 M J A.B.A.A.m.m.",
"J J J J H ! G.G.D.N.m.W R Y ].xXcXzXzX5X~ f R Y R f f 9 I 9XaX4X%X|.9.] ; ; & O a j k f u B ;.*.6 > 1 4 6 6 ; 4 m D B.A.A.B.B.B.",
"W J Q J J ! F.F.M.Q Q W R K.dXcXcXzXcX5X^ F f R R R j z I eXjXaXqX6X4X{...' ; % X q S z } 4.Q.>.] 7 ] } ..] B B B n B.B.C.B.A.B.",
"W W N.C.Q V.Z.! Q W W W ^ 0XcXxXzXcXcX0X^ H f H W R j e U eXjXdXpXqX4X4X.X8.[ ` = X x ;.5.U.I.4.>.:.:.*.o.[ ] ] [ V Q C.B.A.C.m.",
"W W m.V.! Z.Z.! Q Q W R |.cXcXcXcXzXcXeXK.H H R Q R H q U sXxXjXsXqXqX4X4X*X=.@.[ l %.I.!.U.!.Q.n.c.1.1.1.:.@.o.} B F V.S.H.C.m.",
"R J J E Y ! V.! Q W W ~ 0XcXzXzXzXcXzXdX|.H j V.C.R F q L yXcXlXjXaXpXpX6X>Xs.-.=.;.I.U.!.!.!.!.!.Q.n.n.!.Q.v.;.+.N T V.G.H.C.W ",
"R R R F Y E ! ! m.W W _ hXzXzXcXcXzXcXlX@XE R C.V.R j u < >XcXcXfX9X>X>X4XY.=.,.5.I.U.U.!.!.U.!.!.!.!.!.Q.Q.Q.5.=.; n S.S.S.M.J ",
"R F H Y F E E J W W R  XzXzXzXcXcXzXzXhX:X/ J M.Q H H f o {.jXcXeX:X(.y.t.;.,.5.U.~.~.!.!.!.!.U.!.!.!.!.Q.Q.Q.Q.g.[ , V.M.J J J ",
"R R Y R E H J J J W Y oXzXhXzXcXcXcXhXiX1Xs.G R R R f H + U 8XjX>XY.y.&.;.2.I.Q.~.!.U.!.!.U.!.~.!.!.!.!.Q.~.Q.Q.j.=.5 v J J J J ",
"W W R J J J R W R R D =XtXuXiXhXhXiXiX3X;X).#.F R f R f 8 c {.8X.Xi.8.0.4.I.~.~.U.!.!.!.!.!.!.!.!.!.!.!.!.Q.Q.R.c.>.} , J J J J ",
"W W J J H W W J R W D (.1X2X2XtX3X2X1X;X-X_.2.Z Y f H f u < I +X@Xi.&.T.Q.~.Q.!.!.~.!.!.!.!.!.U.!.!.!.!.Q.Q.Q.R.E.h.*.2 D J J J ",
"J J J J W J W W R R G Y.`.;X;X-X`.;X`.`.`.^.E...S F f Y f @ m u.%X*Xd.v.Q.I.I.I.!.!.!.!.U.!.!.~.!.!.!.!.!.Q.Q.R.b.c.>.6 v J J J ",
"m.m.W W R R J R W W D w.(.(.).^._._._.)._.W.E.*.n f j f F 8 2 7.(.(.z.v.4.4.I.I.U.!.!.!.~.!.!.!.!.!.!.!.!.~.Q.R.b.W.j.' v J H J ",
"W k J R J J R R R W D 8.d.l.z.W.)./.).^.E.I.2.=.Z F f H f u : N 0.f.d.l.2.2.I.I.!.!.!.~.!.!.!.U.!.!.!.!.!.Q.Q.Q.R.W.R.+.z J H J ",
"W m.W W R R W W W W F  .l.l.b.b.R.^.W.E.T.2.1.=.C Y Y f H f @ 4 ..w.r.a.1.4.I.I.!.!.!.U.U.~.!.~.~.!.!.!.!.Q.Q.:.C N :.>.N S H J ",
"m.m.k W W W W W R R R Z f.l.z.c.R.I.E.E.2.1.:.=.{ S H f j f 0 1  .$.*.>.1.v.6.Q.U.~.U.U.~.U.~.U.!.!.!.!.!.!.1.2 O   m 2.+.S J J ",
"W k W W W W W W W H E n t.f.l.j.E.R.E.1.1.:.=.*.} S f H F j F : ' ..@.>.4.n.U.!.~.U.~.~.U.~.U.~.!.!.!.U.!.I.+.: .   1 g.1.M J J ",
"m.W W W W W m.Q R J R D q.f.f.l.1.T.1.1.=.*.@.o.B x n n S S F , 6 ..$.>.5.Q.!.!.I.@.} ;.~.U.~.~.!.U.U.U.U.4.+.= : X 6 2.Q.o.S J ",
"W W k W W W Q W R R R Y A t.s.d.1.<.>.*.} } ' m ; ' } o.*.=.#.2 | X.*.g.v.Q.~.4.4 X X * ;.~.U.U.U./.`.1X1X=X(.8. .B %.2.6.^.G J ",
"k W W W W k R Q R W R H n q.s.e.r.=.&.+.] 6 4 ] %.;.>.1.1.2.$.2 C #.=.g.v.!.~.'   X X X ' !.U.~.;XiXzXkXsXwX>X%X$X(.E.R._.iX+XW ",
"W W W W W H W W J J W j Y Z q.q.&.&...| 2 2 } ,.2.I.U.Q.R.E.+.: C &.p.k.v.Q.Q.4 . X # $ ] U.`.tXzXcX%Xo o &XwX&X8XwXuXuXhXcX7X! ",
"W W W J J W J J H R W H J S V .. .| C 4 2 +.2.Q.U.U.~.I.c.1.{ # C &.p.z.c.Q.!.+.X * - ] 2.1XcXcXcXlX&XK K 0XjXfXjXkXcXcXcXkX#XV.",
"m.k W W R W W H H R H J H j S c A C m = ] 2.U.!.U.~.Q.R.j.=.N # N #.r.k.j.v.Q.5.[ ] ;.).tXcXcXcXcXcXcXxXdXxXlXxXcXcXcXcXcXaX].Q ",
"W k W W R R W k j j j R R R f Y n N m 5 @.c.!.n.n.n.v.h.p.X.> L 9.i.Y.(.z.T.E.Q./._.1XzXcXcXcXcXcXcXcXcXcXcXcXcXcXcXcXcXsX#XD.k ",
"W W W W k W R H H j ~ j j R f R j D c m $.l.b.v.n.c.g.=.$.1 < {.$X$X&X9X3X3X3XtXiXhXcXcXcXzXcXzXzXcXzXcXcXcXcXcXcXcXcXsXOXD.m.k ",
"m.W W k W H W R H j R f R j R f j j G m *.d.c.b.b.z.a.w.| L }.%X%X$X$X&XeXgXcXcXcXcXcXzXcXzXzXzXzXzXzXcXcXcXcXcXcXcXjX#XD.k k N.",
"W W W W k R R R R R R R j R R R R j T 5 &.d.l.c.z.x.d.r.7.U '.'.|.|.+X$X%X9XfXxXzXcXzXzXzXzXzXzXzXzXzXzXzXzXzXcXcXxX#XJ.N.N.m.N.",
"W W k W W R R k H j H j f R f f j f F V $.d.l.l.d.f.f.s.w.8.U P ( ) '.|.$X&X0XfXzXzXzXzXzXzXzXhXgXzXzXhXzXzXcXcXkX4XJ.m.N.m.N.N.",
"k W W W R R H H j j j j R f R R R H F b 7.s.k.d.d.d.d.s.e.q.U P ( ( ( ) K.|.$X8XdXgXzXzXzXhXzXzXzXzXhXzXzXzXzXdX#XJ.m.m.m.N.m.m.",
"W W W k j j j j f j R f j j j j H H R b 7.p.d.s.r.s.d.s.s.e.q.7.7.7.U 5 K ( _  X%X8XuXgXzXzXxXzXzXzXzXzXgXuX5X[.J.m.k m.N.k m.N.",
"k W W H j ~ j j f f f f j f j R H R J H Z d.d.p.w.e.s.s.s.s.p.0.X.7...| C V L ( '.].%X8X0XyXdXjXyXeX9X<X@X].J.D.m.k m.m.k m.m.m.",
"W W W j H H j f f d f f f f f f j H W H n d.d.r.&.8.w.s.s.s.s.t.$.X.X.7.| | | 5 L P ( '.[.OXOX#XOX].].[.K.D.m.m.m.m.m.m.m.m.m.m.",
"W W W R H H j f d f d f f p d f j j H f c s.d.p.&. ...e.a.d.d.s.r.w.0.$.8..... .7.7.I _ OX[.].].[.[.#X#XP.m.k m.m.m.m.m.m.m.m.k ",
"W m.m.W H j j f d p d f f p f d f j j a 3 e.d.p.$...C ..e.k.k.f.d.r.e.w.w.q.#.X.&.&.$.q..X7X6X7XpXpX4X#XH.N.m.m.m.m.m.m.m.m.m.m.",
"W W m.W H H j f f d s d p p p d d d d w < +.p.p.r.#.| m 7 7.p.d.d.r.w.e.r.r.r.=.=.=.p.:.(.rXjXjXlXaX#XP.m.N.m.m.m.m.N.m.m.m.m.m.",
"W W m.W W H j j f d d p p r p p a p a 0 O | +.@.%.%.V q o : m  .0.=.&.w.p.a.a.a.p.p.p.g.).yXxXzXcX8X/ A.m.m.m.m.m.N.m.m.m.m.Q m.",
"W W Q W H H j j j f f p p p p p p p p 8 : 7 [ [ } N 9 a 0 . O O 3 5 | 7.r.g.h.c.h.h.c.x.,XiXiXgXsX*XZ N.m.m.m.m.m.M.m.m.m.W W m.",
"m.W W H W j j j f f f p p p r p s p y 9 : 5 ` [ 4 @ r y r 8 .   o t t 3 @.g.h.n.n.n.6.g.:XcXxX9X(.T.A h k k m.m.N.M.m.m.Q m.m.Q ",
"N.k W H R R W H j j f f s p p p p p y o : & 5 2 O 0 y r r r 8 + o a r b } ,.3.3.3.6.3.O..XxXyXY.8.1.{ v k m.m.m.N.N.m.m.m.W m.m.",
"W k m.k H J H H H j f f p p p p i p i 8 . % = # 8 i i i w y y 0 0 r r t ` O.,.,.3.3.3.[ / XXK.C [ O.' e Q G.G.N.B.N.m.J m.Q m.Q ",
"m.m.k m.W J W j R j f f f s p p p i i + X # # X @ i i i i r r r 0 r r y 5 [ O.-.-.-.-.' b Y b $ N [ B z K.$X%XXXG.m.W m.m.m.m.m.",
"m.m.N.W W W W W H H j j f d f p s i s 8     X X 8 r w i p r 0 y r y y y 1 5 7 ` [ O.[ 4 b f u , 4 6 ; $ T K.K.K.K.M.W W m.m.J m.",
"N.m.N.k k W W Q W R R H k j f s i s s i 8 8 @ 8 i i r w y r y w r i p p , > - 6 ; ; 6 > S f a @ : > - - z T ^ E Q W W m.Q Q m.m.",
"m.m.N.k W H W V.W H R H j j j h s s s s s p p i i r i i s i i p p y i i @ : > - - - & # v h i @ : : % 6 = a H J J m.m.m.m.m.m.Q ",
"N.k m.m.W W W V.Q J H J k k k j h g g g g s s s i s i s i i i i i r i i 9 O > 1 & & & % , i i 9 O : : = * a J J J Q J J J m.m.m.",
"m.m.m.k W W W V.Q J k k j k k k h h h g g d g g s s g s s i i i p p i i e O : > % % % # X i i i 8 + @ + 9 d k J J Q J m.Q m.J m.",
"m.k k m.k W m.M.m.W W k k k k k k k k k h h g g h h h d d d d s p d s p @ O O O : # # X 8 i g i p p p s g j J J J m.m.J m.m.Q m.",
"N.W W W m.J m.m.M.m.k W k k k k k k k k k k k g j h h h h d d d f j s p r o o o o o + 9 w s s g s s i s h F J J J m.m.m.Q J m.m.",
"N.N.W J k J W N.m.m.m.m.m.k W W m.W k k k k k g h h h d h d d f j j f s a p q y p i i s s s g g g s s s h H J M.m.J J J m.m.J M.",
"W W W W W R k W m.m.N.m.W V.L.P.C.m.m.m.m.k k k j j h k h j h h j j d d d s s s s s s g g g g g g g h h H J J M.Q J m.Q m.M.m.Q ",
"m.m.J W W J W W m.N.m.W ! m.~ D.N.k m.k m.m.k k k k j h k k h k j j f h d d d d h s g g g g g k h h h J J J J M.m.J J M.J J m.m.",
"m.k m.k W W m.k m.m.N.m.W N.M.m.m.m.k m.m.W N.W J k k k k k k k j j j h f k h k k k h k k k k k J k J J J M.J J J J m.J M.J M.m.",
"m.m.m.m.m.k m.m.m.N.m.m.m.m.m.m.m.m.m.m.k N.W k W m.J J k k k k k k J j j R k j k k k k m.k N.m.m.m.J m.J m.m.m.m.M.J M.J M.M.J ",
"m.N.m.m.m.m.W N.m.N.m.N.m.m.m.W m.m.m.m.N.W k N.N.k J m.k m.m.k W W J J W k J J W W W k N.W m.m.m.J m.J m.J J m.m.J M.J M.J J M.",
"N.m.m.m.m.m.m.m.m.m.N.m.N.m.m.m.m.m.m.m.m.m.m.m.W J N.m.m.m.W m.W W W J J W W R k k N.N.N.W m.m.m.J m.m.J m.M.m.J M.J M.J m.M.J "
};
