/* XPM */
static char *result[] = {
/* columns rows colors chars-per-pixel */
"64 64 242 2 ",
"   c #171616",
".  c #2E1F1B",
"X  c #2B2A1F",
"o  c #37221A",
"O  c #312F25",
"+  c #333325",
"@  c #383925",
"#  c #47291B",
"$  c #542E1D",
"%  c #4B341E",
"&  c #58321D",
"*  c #68361B",
"=  c #773C1B",
"-  c #432C22",
";  c #4D2F21",
":  c #493627",
">  c #5B3423",
",  c #54392E",
"<  c #653A24",
"1  c #6B3D25",
"2  c #723D24",
"3  c #783F25",
"4  c #623F32",
"5  c #37462A",
"6  c #334A2A",
"7  c #354C2F",
"8  c #2F552E",
"9  c #33542D",
"0  c #3C542E",
"q  c #325A2E",
"w  c #325D31",
"e  c #3C5B35",
"r  c #33632F",
"t  c #336331",
"y  c #3A6335",
"u  c #356B33",
"i  c #396C36",
"p  c #3E663B",
"a  c #3D6D3C",
"s  c #367135",
"d  c #397237",
"f  c #3D733B",
"g  c #3E7A3C",
"h  c #7B411F",
"j  c #47482A",
"k  c #584829",
"l  c #44512D",
"z  c #544E31",
"x  c #465B34",
"c  c #555537",
"v  c #67462A",
"b  c #784529",
"n  c #7B462A",
"m  c #684436",
"M  c #794935",
"N  c #675639",
"B  c #765231",
"V  c #466639",
"C  c #436C3D",
"Z  c #53653C",
"A  c #41753F",
"S  c #417B3F",
"D  c #726438",
"F  c #5B4C49",
"G  c #585456",
"H  c #6E574E",
"J  c #775847",
"K  c #446C41",
"L  c #496847",
"P  c #506E4F",
"I  c #437541",
"U  c #437D41",
"Y  c #4A7847",
"T  c #4C7C49",
"R  c #517B4F",
"E  c #5A7956",
"W  c #6D654E",
"Q  c #535A61",
"!  c #596A6D",
"~  c #66686B",
"^  c #677C66",
"/  c #767370",
"(  c #85441F",
")  c #86482A",
"_  c #834B2C",
"`  c #954C2B",
"'  c #87522A",
"]  c #99532D",
"[  c #884D32",
"{  c #914E32",
"}  c #85573C",
"|  c #935234",
" . c #9C5533",
".. c #9B583A",
"X. c #A5572D",
"o. c #A45A34",
"O. c #A95B35",
"+. c #A45D3A",
"@. c #B35B32",
"#. c #BB602F",
"$. c #A6613E",
"%. c #AB613E",
"&. c #B96436",
"*. c #B4633B",
"=. c #BB653B",
"-. c #C46736",
";. c #C46A3B",
":. c #CA6D3B",
">. c #D16D38",
",. c #CC703E",
"<. c #D5713B",
"1. c #DC743C",
"2. c #E3763A",
"3. c #E5783D",
"4. c #EC7B3E",
"5. c #F57C39",
"6. c #855B48",
"7. c #965D42",
"8. c #966246",
"9. c #876859",
"0. c #986D54",
"q. c #A86544",
"w. c #B36641",
"e. c #B56B46",
"r. c #BC6B42",
"t. c #B27451",
"y. c #BA7656",
"u. c #8C7369",
"i. c #A97C68",
"p. c #C36D43",
"a. c #CB6F42",
"s. c #C47249",
"d. c #CB764A",
"f. c #CC7649",
"g. c #D47544",
"h. c #D97845",
"j. c #D47A4B",
"k. c #DC7C4B",
"l. c #C37A56",
"z. c #D07B51",
"x. c #E27B46",
"c. c #E47C44",
"v. c #EB7E43",
"b. c #F17F40",
"n. c #41813F",
"m. c #448342",
"M. c #498546",
"N. c #468843",
"B. c #498B46",
"V. c #4B8449",
"C. c #4C8C4A",
"Z. c #52874D",
"A. c #4D924B",
"S. c #51954F",
"D. c #568955",
"F. c #5E9357",
"G. c #589656",
"H. c #5B8873",
"J. c #688968",
"K. c #669466",
"L. c #698978",
"P. c #768574",
"I. c #779977",
"U. c #77A476",
"Y. c #F4803F",
"T. c #FD823E",
"R. c #8C857D",
"E. c #869170",
"W. c #AE8471",
"Q. c #B68976",
"!. c #81A87D",
"~. c #DA8458",
"^. c #ED8046",
"/. c #EA814A",
"(. c #F48243",
"). c #FD8542",
"_. c #FB894A",
"`. c #E68856",
"'. c #F48F58",
"]. c #C68465",
"[. c #D49472",
"{. c #F79965",
"}. c #F7A274",
"|. c #687D89",
" X c #6A8688",
".X c #788688",
"XX c #778B95",
"oX c #738E97",
"OX c #7EA9AB",
"+X c #868486",
"@X c #90928C",
"#X c #87969B",
"$X c #95979A",
"%X c #B6978B",
"&X c #A59A99",
"*X c #88A787",
"=X c #94AC94",
"-X c #B8A99B",
";X c #939EA2",
":X c #A99CA1",
">X c #9AA4A7",
",X c #93A6AE",
"<X c #A5A7A7",
"1X c #B9A9A8",
"2X c #ACB1B2",
"3X c #AAB5B6",
"4X c #B8B7B6",
"5X c #C89C86",
"6X c #DAA284",
"7X c #F2B28E",
"8X c #E6B69C",
"9X c #C7B6AF",
"0X c #DCBAA7",
"qX c #E4BBA3",
"wX c #B6C8B0",
"eX c #CFC6B8",
"rX c #E5CABA",
"tX c #FACCB3",
"yX c #ABB4C7",
"uX c #B1C4C7",
"iX c #BBC5D5",
"pX c #CAC9C4",
"aX c #D7C8C4",
"sX c #D3D3CD",
"dX c #C3CBD9",
"fX c #CBD2D6",
"gX c #D9D8D6",
"hX c #E9D5CB",
"jX c #EFDBCC",
"kX c #DCE3D6",
"lX c #E8E7DC",
"zX c #F7E6D8",
"xX c #D6DAE4",
"cX c #DFE2E5",
"vX c #EAEAE6",
"bX c #F3ECE5",
"nX c #FAF5EB",
"mX c #EDF2FB",
"MX c #F3F4F3",
"NX c #F9F7F7",
"BX c #FDFCF3",
"VX c #FEFEFD",
/* pixels */
"m.m.m.U n.U U n.U n.U U n.S U S U S U U U S U A A I A I S A A S S S A U U U U U U U m.m.m.m.m.m.m.m.m.N.N.N.N.N.N.N.N.N.n.N.n.N.",
"m.N.m.U n.n.n.n.m.U n.U U S f A U S U S A A I I A a A A A S U U U U U U S A U V.U U m.m.m.m.m.m.n.m.m.N.N.N.N.m.N.n.N.N.N.N.n.N.",
"N.M.m.n.n.U U U U U U U U V k x U U U U A I U U A A A A S A U U S U S S A U m.V.m.m.m.m.B.S.C.m.m.m.N.N.N.N.N.N.N.m.m.N.n.N.N.N.",
"m.N.m.m.U U U U U m.U U C v v z A U U A f I U U A A A A A A A A U I I S A U U M.m.m.m.m.K.U.I.m.m.m.m.N.N.N.N.N.n.N.N.m.N.N.N.n.",
"U m.m.U U U m.U S n.S A v n b k V U U A I a A U A A A A A A A S S U A U U A U U U m.m.m.Z.D.D.U m.m.m.m.N.N.N.N.m.N.N.N.N.N.N.n.",
"m.m.U U U U U U S S S c b _ _ v V U I A I A A A A A U A U A S A A S I I I U A U m.m.m.U m.U U U m.m.m.m.N.B.m.N.m.N.A.N.N.A.N.N.",
"m.m.U S g I m.U n.m.Z v b _ _ n z U A A A A A A A U I I A A I A A A S A S A A U U U U U U S U U U U m.m.m.B.N.N.N.N.A.N.N.A.N.N.",
"U U U S I U C.N.M.V.k v n _ ' n N a A A A a A A A A A a f A p e 0 j j z l e f U S U S S S A U m.U A U m.m.m.m.m.N.N.A.N.A.B.N.N.",
"n.n.S S S n.A.A.S.Z < v n ) _ n B k x g A g I a A f A A V j : $ * * * * * k V f S S U A I A I U V.U A U n.M.m.m.m.B.A.N.A.A.N.n.",
"U n.S Y A n.G.G.Z.k < 2 b ) _ _ b b > V A A f C a a C e 5 & * = = M B } _ v V f A A A A A f U U V.V.I U S S S n.N.A.A.B.A.B.N.n.",
"U S S S Y Y G.G.Z k * 2 b n n n b b ] v V C f f C p l % * = 3 6.u.+X$X9Xi.k V A A I A A A A A A M.A.M.S U S S M.N.A.C.C.A.C.B.N.",
"M.U S S S T D.S.z * v 3 b &.X.' h B <.<.' 0 V a y 5 # * h ) 9.#XyXyXxXmX%Xk y A f f A A A A A I S V.C.U V.S S n.N.A.B.C.C.C.A.N.",
"S S B.C.T Z.Z.Y k h ) n ' *.<.2.:.-.3.Y.Y.X.k l 5 # * ( { i.yXiXyXxXxXmX&Xk y A I f I a I A I A S M.S.C.Z.V.D.D.D.S.C.C.N.S.C.m.",
"S S U V.Y Z.T c k ) ` ` ] #.<.2.Y.Y.Y.Y.Y.T.#.& # = ` O.%XyXyXiXdXcXvXNX:Xj p C f K a A A a a A A S C.G.D.K.I.oX.XK.V.C.A.G.C.m.",
"U S A Y Y T Z.x 1 ` #.;.2.3.<.c.(._.).).T.T.5.@.X.X.#.].9XyXiXdXxXmXMXVX&Xj p a a A a a a A A I I K V.F.J.P.*X*X*X=XK.A.G.G.C.U ",
"K K A C V Y Y j 1 X.h.(.(.(.(.).T._.T.).).T.T.5.>.-.>.].yXiXdXdXvXmXNXVX@X: p a K f I a I a a a C V R D.E ^ ^ P.P.K.K.G.S.S.m.S ",
"A K K C K K Z j b -.(.).(.).).).).).).).).).).).).4.>.=.Q.%X-X0XaXmXVXvX/ 7 a a a a I a a A I a C K Y R P P P W E E D.V.M.U I U ",
"U A A K Y A V k X.h.(.).(.(.).).).).).).).).).).).).4.<.,.=.=.Q.9XvXVX9XF 8 a a a a a I I I A a K K T R R P L L Y Y K I S S S S ",
"U S S U S A j b =.c.(.(.).).).).).).).).).).).).).).(.Y.2.&.$.W.%XaXgX+X, e a a a a a I V.I A A I a I I T R Y Y I I I A I S S S ",
"S U S S A i k X.g./.(.(.(.).).).).).).).).).).).).)._.).)./.$.8.i.1X:XH @ p K a a a a a Y I a K a A A U A A A A I U I U S S S U ",
"U S S S S x v &.c.^.(.(.).).).).).).).).).).).).).).(.Y._.(.<.t.:X<Xu.4 7 a a a K a p p I f K K C a A A A A A A A A A A S S I S ",
"S U U U S l n <././.^.(.).).).).).).).).).).).).).).Y.Y.4.^.^.].5X&X6.; e a a a a K L p p c c N N N Z P A A A S S U I S S A A S ",
"m.S S U S j ] k./.^.^.(.(.).).).).).).).).).).).).T.Y.4.1.1./.~.z.q.2 O a a I a a p p L J q.e.s.f.j.z.t.E.D.Z A Y A A S S A S S ",
"n.U S S A k &.^./.c.v.(.).).).).).).).).).).).).).Y.Y.Y.1.<.g.s.y.[ < @ p a a a a I C J j./.`.`.'.'.{.6X8X-X!.F.S S S I A S A I ",
"m.U S U V ' 1.^./.v.2.(.).).).).).).).).).).).).).).Y.Y.1.>.;.*.+.n % w a a a A K C W j./.~.~.k.~.`.[.8XtXtXzXeX!.Y A S A S S S ",
"S U S U k -.^.,.*.;.:.4.).T.T.).).).).).).).).).).T.).Y.Y.<.=.$.o.1 5 A C a a a K Z q./.k.j.j.j.~.~.[.6XqXjXnXBXlX!.V.S S M.U S ",
"m.S U A ' h.(.=._ n X.5.T.T.).5.T.).).).).).).T.).).).).(.1.-.o.{ > x K A C K C p c w.j./.f.f.d.].].].[.qXjXnXnXBXgXI.S S S S S ",
"S S S x ;.(.4.2.>.#.1.k.`.}.{._.T.Y.Y.Y.Y.).).T.).).).).(.1.;.%.{ > m D } B _ v j k | r.r.l.l.l.=.].Q.[.rXzXnXBXBXBXsXI.T Y A S ",
"S U U P.8X_.5.b.^.~.[.aXvXNXnXjX}./.4.3.v.4.Y.T._.T.).)._.Y.,.%.+.< _ :.<.&.&.#.X.3 < [ $.t.].r.].=.].Q.eXjXlXvXnXnXnXsX=XD.A S ",
"S U V.uXVXtX7XqXeXvXVXVXfX+X$XgXhX8X~.2.1.&.X.X.,.Y.T.).^./.j.*.+.> b ,.^.Y.Y.2.<.-.) > B q.r.].].].[.Q.9XeXpXeXsXbXnXbXwXI.R S ",
"U S V.uXVXVXVXVXVXVXVXvX&X  + :XrXeX8X[.h.2.1.-.' ' 1.).Y./.f.=.+.> v &./.Y.T.).).4.:.) : m $.t.*.].Q.Q.%X-XeX4X2XeXlXnXkXU.S S ",
"m.S T OXvXVXVXVXVXVXMXMXgX2XpXlXhXrX0XeX8X`.5.5.3.1.Y.T./.h.,.=. .$ & $.<.^._.).).).v.=.M : B 8.t.].W.Q.W.&X:X:X$X=X4XkXnXeXZ.S ",
"U U A H.uXMXVXVXVXVXNXVXVXNXVXnXvXhXhXhXjXtX7X_.5.5.5.4.1.g.d.e.8.4 o [ a.c.b.(._.).b.h..., , 6.7.0.0.u.u.u..X+X.X+X$X4XlXlXU.m.",
"U n.n.U H.uXmXVXVXVXVXVXVXVXVXNXNXnXzXbXbXnXnXzXtX7X7X7X7X0X9X-X&X@XF # ] =.g.c.v._.v.k.w.4 ; 4 M 6.9.u.u.9./ J.L.P..X$X9XvXwXm.",
"n.U U S U H.uXmXVXVXVXVXVXVXVXBXNXNXBXMXNXVXVXVXVXnXnXnXvXaXyX4X4X4X<XG m +.a.h.v.v.c.j.w.M , 4 4 J 6.9./ ^ R T Y T Z.J.*XeXwXC.",
"U U S S g U  XiXVXVXVXVXVXBXBXBXBXBXBXBXVXVXVXVXVXVXVXNXfX4X2X<X:X;X$X~ J %.p.j.k.x.x.g.e.M , 4 m H H H E M.m.m.U U U U Z.U.*XD.",
"U U U g U A T  XfXVXVXBXBXBXBXBXnXBXBXBXBXBXBXBXVXBXbXsX4X<X$XXX|.|.~ J q.r.f.j.k.k.h.j.e.[ : , , F L Y S n.m.m.U U U m.m.m.Z.C.",
"U g A U A I A T  XiXNXVXVXBXBXBXBXBXnXBXBXBXBXBXBXvXsX2X;X.X~ ! Q Q G 8.w.s.f.j.f.g.j.j.q.4 7 7 l V I U n.U n.m.n.n.n.n.m.m.m.N.",
"U S U g I A I A Y H.3XcXBXBXBXBXBXBXBXBXBXBXBXbXsX4X$X.X~ G F H 6.J 6.q.r.z.j.f.d.a.j.j.%.z U S I I U U U n.n.S U U U m.m.m.m.m.",
"A U S A A I I A A U E  X>XpXgXkXlXvXbXbXvXgXsX3X#X/ ~ F 4 ) { | +.O.=.s.z.f.f.d.r.p.d.j.7.x M.S I U U U m.M.M.n.n.n.m.g m.m.m.N.",
"U U U A I A A A a A I I P |.XX#X;X<X3X3X,X#X|.! Q F m M [  .+.+.%.w.s.d.s.d.d.w.%.r.f.j.8.C N.U S S U m.m.m.m.m.m.U m.U n.m.m.m.",
"U U U I I A U A A A I U f L.oXXX X X|.oXoX|.~ F 3 ) [ { ..+.%.q.w.s.s.s.s.a.%.| ..p.f.z.6.K M.S S U m.N.m.m.m.n.n.m.U m.m.m.m.m.",
"n.U m.U U A A f A A U U A D.XX|.|.XXoXoX,X+X6.` [ | | ..%.w.w.w.p.p.w.=.w.+.| [ %.a.g.f.6.a B.n.S U m.N.N.m.m.n.m.m.m.m.U m.m.m.",
"n.U m.U A A I I A A A A A A E ~ / XXXX#X$X0.+.`  . .+.w.r.r.r.*.=.=.=.O.{ 3 M { *.a.d.a.M e A.m.U m.N.N.N.m.m.m.m.m.N.m.m.m.m.m.",
"U U m.U A A A U A A f A A a Y W / +X#X;X$X0.%.+.o.O.*.a.p.r.@.O.@. .[ 4 - @ k ..=.p.=.O.4 l S.N.U m.C.N.m.m.m.m.m.C.m.m.m.m.U U ",
"U U U S U A A A A f f f a A p J u.$X,X>X$Xi.w.@.*.=.a.:.:.*.{ n 1 $ o . O 8 8 k X.O. .{ 4 7 S.C.U N.A.N.m.m.m.m.N.M.m.m.m.T U m.",
"U U S A A A A g f A a A i a e M 0.R.>X,X>Xi.@.;.;.;.<.h.:. .: 6 @ . . X 6 w w 6 > ` ` ) > j D.C.U S.A.m.n.m.m.m.N.N.m.m.U m.m.U ",
"m.m.U S A f A f a A i i a u l 3 7.6.R.yXyX9.@.>.:.:.3.1.:.M q w 8 X O 8 w w w 8 + > 3 1 ; @ V.C.m.S.B.U U m.N.m.C.M.m.U m.U m.T ",
"U U g U f f f a i a i i t w j 3 ) [ H .X#XJ @.-.-.:.1.h.=.v t w 8 8 8 w w w w q 6 % & & # + A B.m.B.n.d T G.F.A.A.C.m.U U U U M.",
"U m.U g g g f s i u i i w w : 3 3 2 , L a z ] #.#.-.-.&.| j t w w w w w t t t t q o # # # X f C.N.n.i i K.>X3X=XK.V.U m.M.U U U ",
"n.n.g g g f a f a i t t w 5 $ 2 1 > @ q u j b ] X.X.] | v j w 8 w w w t t t t w q + o o o + f U n.g f t E ^ P.I.I.V.U U U U U M.",
"g g g g a i i i i w w t 9 + * > $ $ 5 u u 0 & ) ) ) n 1 , 6 w w w r t t t q w t q 6 5 @ 6 q i d s g f a e L L L Y U U U U M.U U ",
"g n.g f s u s f u t u r 5 $ * $ # o 6 u u 5 & * 2 3 1 $ - 7 t t r r r r r r t r t w y i a i i y u s s s t i i a A S U n.M.U M.U ",
"g g g d s u s f u u r r 6 # $ - @ + q u r : & & * & > - @ 9 t t w t r t t t r u t w w e y y y i u s u u u u s a i A S S U U M.U ",
"g f g d u u i f u t r r 8 @ + @ @ 6 r u 9 % & & $ $ ; - + 9 y t t t t t t t t u t r y t u u u s s s s s s s s u C A S M.S M.S U ",
"n.g d d s u i f u u u u u u r r r u u u q + o + - - - O + e t t t u t t t r t t u u s d d d g d f g d f f i a i A S S n.T U S M.",
"n.g g d s s s a s u u u u u r u u u u t u 8 6 X O O O O 6 t t t t u t t t t t u u d f g g n.n.n.n.S S A A A A A A S n.M.S S U M.",
"m.U g f i s s i d s s s u u s s s u u u u u u r w 8 8 8 t t t t u s u t t a i f g g n.U m.m.N.m.n.S S S A S S M.S n.S S U M.n.S ",
"m.U A g d i u s d d s s i A D.G.g s s s u s u r u u u u t t u t s a t u s a f A S S S m.m.m.m.N.n.n.S M.S S T S n.U M.M.S M.U M.",
"m.U g g f a d s d d g s i i a T g s s d s u s u t u t u u u u s a d d f f A A U S S m.m.m.m.m.m.n.n.n.S S S n.n.n.U S S n.U S S ",
"n.U U g g g g d g g g g f g f g f d d d d s s s s s s s d d d f f g g f A A U U S U U m.m.m.n.n.S n.S M.n.M.S S M.S T n.T n.n.T ",
"n.n.n.U g g g g g g g g g g g f g g g d g g g g d d d f g g g A U A U A U U U U U S S m.M.S M.M.M.S n.S S n.S M.S n.S S S S S S ",
"m.n.g n.g g g n.n.n.m.n.n.n.g g g n.g g g g g g n.g g g U g U U g U U U U U U g U U S n.n.m.S n.n.n.M.S T n.n.n.n.n.U Y U U S S ",
"m.m.n.n.n.n.n.n.n.n.m.m.m.n.m.n.g m.m.n.m.m.m.g m.m.m.m.n.n.n.n.U U U U A U U A S S m.m.m.m.M.n.M.S M.S n.S M.n.n.T U U U U S A "
};
