/* XPM */
static char *result[] = {
/* columns rows colors chars-per-pixel */
"64 64 244 2 ",
"   c #161616",
".  c #2C1F1B",
"X  c #2F2D1E",
"o  c #37261B",
"O  c #392D25",
"+  c #2A3323",
"@  c #3C3523",
"#  c #353826",
"$  c #492A1C",
"%  c #532E1E",
"&  c #4D331E",
"*  c #59331D",
"=  c #62351C",
"-  c #6A381D",
";  c #773E1D",
":  c #442C24",
">  c #4C2E22",
",  c #483526",
"<  c #543222",
"1  c #5C3422",
"2  c #59392B",
"3  c #5B3C31",
"4  c #633723",
"5  c #643924",
"6  c #6C3C24",
"7  c #643C28",
"8  c #733E25",
"9  c #613E33",
"0  c #2D472A",
"q  c #37482A",
"w  c #2F532E",
"e  c #34542D",
"r  c #33592E",
"t  c #325D31",
"y  c #3C5933",
"u  c #35612F",
"i  c #346432",
"p  c #3C6336",
"a  c #366B33",
"s  c #396C36",
"d  c #3D6D3B",
"f  c #367235",
"g  c #397237",
"h  c #3D733C",
"j  c #3E793C",
"k  c #7E401E",
"l  c #49492B",
"z  c #564529",
"x  c #45572F",
"c  c #54512C",
"v  c #434A33",
"b  c #594935",
"n  c #475634",
"m  c #435B33",
"M  c #535938",
"N  c #694429",
"B  c #754125",
"V  c #78462A",
"C  c #6C4737",
"Z  c #794B36",
"A  c #72593A",
"S  c #456539",
"D  c #436C3C",
"F  c #556237",
"G  c #41753F",
"H  c #4A703D",
"J  c #427B3F",
"K  c #6B653E",
"L  c #564F4D",
"P  c #6B554C",
"I  c #77584B",
"U  c #466C42",
"Y  c #546E49",
"T  c #427540",
"R  c #437D41",
"E  c #4A7C45",
"W  c #4C7849",
"Q  c #587955",
"!  c #706C54",
"~  c #585C60",
"^  c #566873",
"/  c #706F6C",
"(  c #697678",
")  c #844627",
"_  c #8C4C2B",
"`  c #934C2B",
"'  c #87522D",
"]  c #99532D",
"[  c #884C32",
"{  c #885438",
"}  c #975536",
"|  c #9B5534",
" . c #9C5A3B",
".. c #A6572C",
"X. c #B75D2B",
"o. c #A35934",
"O. c #A75A34",
"+. c #A45D3C",
"@. c #B65D35",
"#. c #836437",
"$. c #A7603E",
"%. c #AD623D",
"&. c #BB6334",
"*. c #B8663B",
"=. c #C6632D",
"-. c #D9682D",
";. c #C76738",
":. c #C46B3C",
">. c #CC6D3A",
",. c #D46D38",
"<. c #CE703D",
"1. c #D6713B",
"2. c #DC733C",
"3. c #E56E31",
"4. c #E37539",
"5. c #E4793D",
"6. c #EC7C3E",
"7. c #FD7C34",
"8. c #F47E3E",
"9. c #895A45",
"0. c #955C43",
"q. c #916854",
"w. c #A86544",
"e. c #B56944",
"r. c #BC6C44",
"t. c #B8724D",
"y. c #A16F53",
"u. c #BB7858",
"i. c #8A746C",
"p. c #B57B63",
"a. c #C26D43",
"s. c #C86E43",
"d. c #CB7244",
"f. c #C47249",
"g. c #CC764A",
"h. c #CD784C",
"j. c #D47544",
"k. c #D97844",
"l. c #D47A4B",
"z. c #DC7C4B",
"x. c #C27A56",
"c. c #DB7F50",
"v. c #E37B44",
"b. c #EA7D43",
"n. c #E47F49",
"m. c #F17F41",
"M. c #448242",
"N. c #498446",
"B. c #468843",
"V. c #498A46",
"C. c #4B844A",
"Z. c #4C8B4A",
"A. c #51874E",
"S. c #4C914A",
"D. c #51934F",
"F. c #498251",
"G. c #568A54",
"H. c #589755",
"J. c #5E9E5B",
"K. c #5A8A6E",
"L. c #778676",
"P. c #6A9572",
"I. c #749B74",
"U. c #76A476",
"Y. c #F4803F",
"T. c #FE823C",
"R. c #BE845E",
"E. c #8F8779",
"W. c #B98267",
"Q. c #B38773",
"!. c #D78053",
"~. c #D68458",
"^. c #ED8146",
"/. c #E98149",
"(. c #F48243",
"). c #FE8542",
"_. c #FF8A44",
"`. c #FC8A49",
"'. c #E78856",
"]. c #FF965B",
"[. c #C68665",
"{. c #CE9070",
"}. c #EC9262",
"|. c #E69E77",
" X c #FBA779",
".X c #6F7C85",
"XX c #768F8D",
"oX c #7B9FA3",
"OX c #878889",
"+X c #8E8D8C",
"@X c #86989A",
"#X c #999998",
"$X c #A9958D",
"%X c #8EAC8C",
"&X c #ACAA98",
"*X c #8998A2",
"=X c #AB9CA2",
"-X c #95ADAF",
";X c #A9A9AA",
":X c #B5A9A9",
">X c #ADB2B2",
",X c #B8B7B5",
"<X c #CD9C86",
"1X c #DAA78A",
"2X c #C5A89A",
"3X c #D4AD94",
"4X c #EAB698",
"5X c #FDB790",
"6X c #C2B2AF",
"7X c #C9B8A8",
"8X c #AEC3A9",
"9X c #C5C3BB",
"0X c #DBC6B9",
"qX c #F2C8AF",
"wX c #FECDB1",
"eX c #9CB8C1",
"rX c #A8B7C5",
"tX c #B0B5C9",
"yX c #C1BFC6",
"uX c #B8C3C4",
"iX c #BBC6D7",
"pX c #B4CED2",
"aX c #C8C9C7",
"sX c #D0CDC3",
"dX c #D3D6CA",
"fX c #C4CBD9",
"gX c #C7D7DA",
"hX c #D7D9D7",
"jX c #EDDACE",
"kX c #F9E0CE",
"lX c #EAE6DD",
"zX c #FAEADC",
"xX c #D7DAE2",
"cX c #D7E3E8",
"vX c #E9E9E7",
"bX c #F2EEE5",
"nX c #F4F2EA",
"mX c #FBF7EC",
"MX c #FCF5EC",
"NX c #EAEFF2",
"BX c #F3F3F3",
"VX c #FDFCF3",
"CX c #F8F9F6",
"ZX c #FEFEFD",
/* pixels */
"M.M.M.R R M.R M.j M.j M.j j R R R R R R R j G G G G h G J G J R R J J R T T R M.R R M.M.M.M.M.M.M.M.J M.B.B.B.B.B.M.B.B.M.B.M.M.",
"M.B.R M.M.R M.M.j M.M.M.R R R R R R R j G j G G G G G G T G J R R R R R J J M.N.R M.M.M.M.M.M.M.M.J M M M.B.B.B.M.B.M.B.B.B.B.B.",
"B.N.M.M.J R R M.R M.R R M.R R R R R F.G G G R R G G G G G J J J J R R R R T R N.R M.B.M.Z.D.S.M.M.H z N M N.B.B.B.B.M.B.M.B.M.B.",
"M.B.M.M.M.J J R R R R R j R R M.R R j G G G R F.G G G G G J J G R G G G T R R N.R M.M.B.J.XXU.M.R m 1 6 N S M.B.M.B.B.M.B.B.M.B.",
"M.M.M.J J R M.R M.j R R R R R R j R G G G G d F.G G G G G G G J R R J G T R R R M.M.M.M.Z.G.A.M.J v 1 6 8 b D M.B.B.B.B.B.B.B.B.",
"M.M.M.J R J R R R R R M.M.M.R R j F.G G G h h G G G T T G R G j J G G J R T h M.R M.M.J M.M.J J T @ 1 5 8 8 b T B.B.S.B.B.B.B.B.",
"R R R J J T M.R R M.Z.Z.M.R R R R R G G G G G G G R G d S m x x m S H T h R T R R M.M.J J J M.M.p : 1 7 6 8 9 F M.B.S.B.B.S.B.M.",
"M.R R R R R Z.B.M.S.S.N.M.R j j G F.G d G G G d G G d , * = - = * & q p T T j T R J J J G G J m l < < 4 5 8 8 b G B.S.B.S.V.B.B.",
"M.R R J J J D.S.D.D.Z.M.R T T T R G R G G G G G G h S - 8 [ V 8 ; - - & q D J G G J J G J G x = 5 < > 1 4 6 B N x V.S.B.S.S.B.M.",
"J J R R H M.H.H.D.F.N.M.R T T R R G R G h G d G d g S N y.E.E./ A ) k - * & y G G J G G G S B _ 6 > $ % < 4 8 B c M.S.V.S.V.M.M.",
"M.J R T T N.H.H.A.C.M.R T G T R R G T G h G G U D h y % 6XxXfXrX*Xi.{ k ; - $ , D G G D x ] ;.o.5 > % 1 5 6 - 6 N H Z.S.S.V.V.B.",
"M.J R R E E G.D.C.M.R R T T R T G G G T h U G d G T L % :XvXxXfXtXrX=Xq.) ; * $ # D u z ] 5.Y.&.B 8 _ | | ` ) V B M Z.Z.Z.V.S.V.",
"J J B.N.E A.A.A.E R R R R T R T G G G T G d G G R G p < ,XNXvXxXfXiXtX;Xp.[ k - o @ N &.Y.Y.6.2.&.*.&.*.o._ ) ` ` c E Z.V.S.S.M.",
"M.J M.C.W A.W W E R R G h T R R G G G T G G h T C.T d , 6XBXBXvXxXfXtXtX=Xp.....; ; &.Y.T.T.(.(.b.2.,.>.>.&...] | C U V.S.J.S.J ",
"T R R U U C.E F.E R M.R G T T G U d U W W G G N.Z.T d @ =XCXCXNXxXfXfXfXtX{.;.@.X.;.Y._._._._.(.(.(.b.(.^.b.4.&.] N Y Z.H.J.Z.J ",
"H U T T U W E E M.J J T G G G G U U y U T G G V.F.G d @ $XBXZXBXxXaXyXyX:Xp.;.k.4.Y.T.T.T._.T._.T.).).).).(.(.v...- M H.D.D.N.R ",
"T T U D U T W T R R R G T R J G G D G d G G G F.M.G d # ! hXZXBXsX<XW.W.u.:.1.m.T._.).).).T.).)._.).).).(.(.`.(.>.V l N.M.M.E G ",
"T T T T H T J T G T T J T G G G G T G G G G G T G U G w 3 ;XBXxX2XW.%.X.-.4.b.).).).).).).).).).).).).).).(.(.(.k.O.2 y J J J J ",
"T J J J J J T R G R R J J G G T G G G h G G G G G G G t , i.yXyXQ.y.w.*.6.T.)._.).).).).).).).).).).).).(.).(.^.v.;.) l J J J J ",
"R R J J J J M.T R R G J G G G G G G G G G G G G G d U d # P +X>X+Xw.*./.`.(.)._.).).).).T.).T._.).).).).).(.(.(.b.k.o.z D J J J ",
"R j M.j T R R J J J J G J H H D S S D d G G G G d G d d 0 2 q.;X=Xp.v.`.(.Y.Y.T.).).).).).).).).).).T._.).(.(.^./.v.*.N x J J J ",
"M.R R R T J T R J M.J E Y K A { { I A Y d G G G G U d U r : Z Q.1X'.b.b.5.6.Y.(._.).).).).).).).).).).).).).(.^.^./.<.V x J G J ",
"R j R T j T J T M.M.A.E.{.~.'.'.c.h.h.r.A D G G T d d d D @ 6  .h.h.j.k.2.6.8.).).).).).).).)._.).)._.).).(.(.^././.k.` l J G J ",
"M.M.R R T T R R H.E.7XqX4X|.}.'.'.'.z.'.l.! d G T T T d d 0 < [ t.f.d.1.1.6.8.Y.).).).).).).).T.).).).).).(.b.b.^./.b.@.c H G J ",
"M.R R J R R R I.dXzXjXqX4X|.{.!.z.c.z.z./.t.K j R R T d G t @ [ +.e.:.,.2.Y.(.Y._.T._.).T._.).).).)._.).).(.5.v.^.^.^.1.' p M.J ",
"j R J R R R U.hXmXMXkXqX1X|.{.!.h.l.l.z.!.g.9.H T G T d d D # 8 o.O.:.1.b.8.).)._.Y._.).).).).).).).).T.).5.1.<.%.| <.(.*.c M.J ",
"J R J R C.P.dXVXVXVXzXqX1X{.[.[.x.g.h.c.z.g.0.M G s S U G G x < [ O.:.1.6.).T.)._._._.T.).).).).).T.T.T.7.-.=._ ) | <.Y.2.) D J ",
"R J R N.U.8XmXVXmXmXnX0X3X{.x.x.x.x.x.f.f.e.V < l V Z ' #.A N 5 ` %.:.v.m.).).).T._._.T._.).).T.7.T.]. X X~.d.&.X.=.,.Y.Y.&.S J ",
"R M.H.%X8XBXVXmXbXlXlXsX2X{.[.x.x.x.x.e.0.8 6 ) ..&.&.>.1.<.V 6 } *.<.v.(.).)._.T._.Y./.m.).7.`. XwXzXMXlX6X2XQ.[.l.2.3.].4XL.R ",
"J N.P.8XbXVXbXhXdX9X0X7X2XQ.W.u.x.x.t.9.9 6 ] ,.4.5.6.n.b.d.N 5  .*.d.n.(.).).6.:.X.O.&.3.T.].5XzXBX,XXX@XaXaX,X,X7X4X5XwXVXuXE ",
"J J I.dXVXbXsX>X,X,X7X&XQ.Q.[.R.t.t.9.3 2 o.2.m.T._.).(.n.:.4 1  .*.j./.^.).(.O.] $.;.-.8. XkXZXZXvXOX  L uXhXhXhXNXCXZXZXZXpXF.",
"M.C.8XmXlX9X=X#X#X:X$X$XQ.Q.u.t.w.0.9 > [ j.m.)._.T.(.^.k.O.% % } :.j.k.n.Y.T.&.-.T.T.`.5XMXZXZXZXBXhX#X;XvXBXBXZXZXZXZXZXcXoXj ",
"j U.lXbX6X#XOXOXOXOXE.i.i.i.y.0.9.9 , C e.n.(._.m.m.m.v.s.) > 9 0.t.h.l.n.b.(._._.`.].wXZXZXZXZXZXZXZXZXZXZXCXZXZXZXZXZXNXeXK.M.",
"j 8XlXaX;XXXL.L.( / / i.i.q.q.9.Z 2 2 [ a.n.(.(.m.b.j.;.| > P i.$X&X2X1X|.|. X X5XwXMXZXZXZXZXZXZXZXZXZXZXZXZXZXZXZXZXNXuXK.R M.",
"Z.8XsX#XL.Q Q R J W / / q.I I I 9 9 3 { a.z.n.b.b.z.a.O.1 L +XyX>X>XaXhXnXMXBXMXZXZXZXZXZXZXZXVXZXVXZXZXZXZXZXZXZXZXCX8XK.M.R R ",
"D.%X%XG.R T T T G G T Q / I P C 9 3 3 } s.z.n.n.n.l.a.+.P ( -X;X;X;X;X,XdXnXZXZXVXZXZXZXVXVXVXVXVXVXVXVXVXZXZXZXZXZXiXXXM.M.B.B.",
"A.G.N.J T J G j G G G T U ~ L b 3 3 3 9.f.l.n.z.l.l.s.e.0.I ^ ( .XXX=X;X,XdXBXZXVXZXVXZXVXMXVXVXVXVXVXVXVXVXZXZXCXgXXXF.B.M.B.B.",
"J J J J G G T T G G G G G d p n , # , 9.a.c.l.j.l.l.g.a.e.9.~ ^ ^ .X.X#X;X,XdXbXVXVXVXVXVXVXVXVXVXmXVXVXVXVXZXZXgXXXF.M.M.M.B.M.",
"J J J J G R T T G G D G G G G G d d n Z f.h.j.d.g.h.g.g.a.w.9.P P ~ ~ ~ .X@X>XaXhXnXVXVXVXVXCXMXVXVXVXVXVXZXBXuXXXF.M.j M.M.M.M.",
"R R J G G G G T h G G T G G G G G T h C a.l.d.a.f.h.h.h.f.t.w. .} } [ C L ~ ( OX;XaXlXnXmXVXVXCXVXVXmXnXhXuX@XK.F.M.R R R M.M.B.",
"R J T T T T T h G h T G h h h T T T T M r.l.d.r.e.a.g.g.g.g.a.w.+.+.| [ V 9 P ~ .X.X*XtXtXyXsXaXuX,X>X%XXXK.F.M.M.M.M.j M.M.M.B.",
"R R T T R j T G h G T F.T G h d G G T n e.c.s.e. .w.s.g.h.h.h.r.w.$.$. .0.` [ 8 P L ^ .XoXoX*XoXoXXXoXoXP.F.M.M.j M.M.j M.M.M.M.",
"M.M.M.R R T T h d h G G h d d d h h d v e.k.s.r.| [ +.s.j.j.h.g.a.e.e.$.+. .o.| | 0.0.E.-XeXoX-X-XeXeXeXJ.M.M.R M.M.M.M.M.M.M.M.",
"J R M.R J h h h d f d d s s s s s s a q | j.s.;.| [ [ | e.j.j.l.f.r.r.r.e.e.%.%.*.*.@.t.,XgXfXgXxXgX-X%XZ.N.M.M.M.B.B.M.M.M.M.M.",
"R R M.J h h s s a a i i i i i i i i p # [ ;.;.;.@.[ 7 , 7 | *.s.s.r.e.a.:.a.;.;.s.;.s.;.1XlXCXCXNXfX+XH.B.M.M.R M.B.M.M.M.M.R R ",
"R R R G h s s i i i i i t i i i i p t # 8 | +.@.*.V e 0 . O 1 ' | | O.@.;.s.j.j.,.s.d.h.4XzXMXCXNX&XG.B.M.M.R B.N.N.M.M.M.M.R M.",
"M.J G g s i i i i i i i i i i i s i q O 8 ` ` ` V q t i + . . . > 3 V ] =.j.v.v.v.b.3.}.jXMXnXlX0XR.K M.M.M.M.B.B.B.M.R M.R R M.",
"M.M.J G d s s s i i i i i i i i i i q : 4 ) ` 8 @ w i i t + +   0 r q V ;.3.m.b.m.m.3.t.7XZXbX7X[.1.A G R R B.B.V.N.M.F.R R M.R ",
"J J J J h h s s s i i i t i i i i i 0 @ * = = & w i u u i w 0 0 w t t N @.2.6.b.8.).-.0.6XCX7Xy.r.<.V s C.J.G.G.D.V.M.R M.M.R M.",
"M.M.M.J J G G h h d s i i i i i a u 0 o % * & # u u i i i t t w t t i c ..,.2.4.4.8.-.{ ( I.! ) | ..B e I.-X,X%XP.N.R M.R E R R ",
"M.M.M.M.J J T R G h s s a a i s a a 0 . $ $ $ @ i i i i u i i i t t t l ) ..&.:.>.,.X.N F H v 4 ) ) B @ Q L.L.E.I.N.J R J E M.E ",
"M.M.M.J R R R R G G G G d s s a a f r X o o o + t i t u u u t u i i i v 1 8 ` ] O.X.` c G g e , - 6 - & y W Q W E J M.R M.M.R M.",
"M.M.M.j J J R C.R G J G h h g s f a a r 0 0 w r i i i i a i u i t i i r , 1 8 ) _ ` - l D g y : > % = = # p G J J J M.J M.N.J N.",
"j M.M.M.J J R N.R J G J J j j h g g f a f a a i i a a a a i a i i i i r , : 5 8 B B - , x p y O : , * - $ i g G J J J M.R R N.J ",
"M.M.j M.J J J V.E J j J T J j j g g f a f a a i i a a i i i i i i i i t , : < 6 6 6 = $ q u i 0 O : : $ @ i g G J J E M.M.M.M.J ",
"M.M.M.j M.J M.N.N.T R R M.j M.M.J J g f f a a a a a a a i i i i i a a t # : > < 1 4 < $ q f a a q # q # e s d G J E J M.J E J N.",
"M.M.M.R J M.M.N.N.M.J M.M.J R J R R j g j g f f a a a a i f i i a d a t # O : : : : : O e s f f f a i s a s J J J E E M.M.N.J N.",
"M.M.J J M.J J M.M.M.M.M.M.J M.M.M.M.M.M.M.R j f g f a a f i i i a d i i 0 O # # + # # e a f f f f a a a s d J M.J M.J M.M.J E J ",
"M.R M.J j J J J M.M.B.M.R F.I.U.Z.M.M.j M.M.j j j j h g f s f a g s i i i w w t i i f f s f f g f a s g g G J J J E M.J J M.M.M.",
"M.R J R T J M.j M.M.M.M.E R E G.V.M.M.M.M.M.M.M.J J J j j h j j h h d a d p s s a a f f f g g g g g g g G J J M.M.J J M.E M.E J ",
"M.M.M.j R j M.R M.M.B.M.M.M.N.N.M.M.M.M.M.M.M.j J J J M.R j R R G j h h d h g g g g g j j j j j j j j j J M.J J J M.N.J M.M.J N.",
"M.R M.R M.j M.M.M.M.M.M.B.M.M.M.M.M.j M.j M.M.M.M.J J J j M.M.j R j R j G G j R j j j R M.R R j M.J J J J M.M.J M.J J J J M.E J ",
"M.M.M.M.M.M.M.M.B.M.M.B.B.M.M.R M.M.j M.M.M.M.R R M.M.j j M.M.R R R R R R G R R R j j M.R M.M.M.M.J M.J M.J M.M.J J J N.M.M.M.M.",
"M.M.M.M.R M.M.M.M.B.B.M.M.M.M.R M.M.M.M.M.M.M.R M.M.M.M.M.M.R R R R R R R R R G R j M.M.M.M.M.M.M.j M.M.J J M.M.M.J J J J E J J "
};
