/* XPM */
static char *result[] = {
/* columns rows colors chars-per-pixel */
"64 64 240 2 ",
"   c #281D1B",
".  c #38261B",
"X  c #342C1B",
"o  c #3B2B25",
"O  c #293624",
"+  c #353825",
"@  c #35342F",
"#  c #482A1B",
"$  c #542E1C",
"%  c #45351C",
"&  c #5D341C",
"*  c #58351D",
"=  c #67361D",
"-  c #753A19",
";  c #462D25",
":  c #4B3425",
">  c #593727",
",  c #50362B",
"<  c #643A25",
"1  c #6B3B23",
"2  c #673C2A",
"3  c #743E24",
"4  c #623B30",
"5  c #2E4428",
"6  c #33452A",
"7  c #334C2C",
"8  c #394427",
"9  c #2F562E",
"0  c #33532D",
"q  c #325B2F",
"w  c #3C572D",
"e  c #2F5D30",
"r  c #325D30",
"t  c #3B5B33",
"y  c #33622F",
"u  c #3D612F",
"i  c #336331",
"p  c #3A6336",
"a  c #356B33",
"s  c #396C36",
"d  c #3E6D3C",
"f  c #3F663C",
"g  c #367134",
"h  c #387236",
"j  c #3D733B",
"k  c #3E7A3C",
"l  c #7F411C",
"z  c #464629",
"x  c #584426",
"c  c #45542D",
"v  c #584936",
"b  c #435B32",
"n  c #4C5A37",
"m  c #545A36",
"M  c #4B4E30",
"N  c #6A462A",
"B  c #74442A",
"V  c #7B4529",
"C  c #7D4A2C",
"Z  c #784326",
"A  c #684934",
"S  c #794A34",
"D  c #785638",
"F  c #6D532F",
"G  c #426C3D",
"H  c #476539",
"J  c #546339",
"K  c #41753F",
"L  c #417B3F",
"P  c #4B763E",
"I  c #52703F",
"U  c #72633D",
"Y  c #4A494A",
"T  c #575659",
"R  c #69574E",
"E  c #456D42",
"W  c #556C47",
"Q  c #437540",
"!  c #437D40",
"~  c #4D7D4A",
"^  c #497748",
"/  c #5A7A58",
"(  c #56714F",
")  c #6F6C4F",
"_  c #565C62",
"`  c #556F6C",
"'  c #6E746F",
"]  c #82492B",
"[  c #8B4B2B",
"{  c #854728",
"}  c #944D2B",
"|  c #984D2D",
" . c #97522D",
".. c #854D34",
"X. c #8C543C",
"o. c #8A5739",
"O. c #9B5432",
"+. c #965739",
"@. c #934F30",
"#. c #A1532C",
"$. c #A9572B",
"%. c #B35A2E",
"&. c #A75B37",
"*. c #B35D34",
"=. c #B85E38",
"-. c #A14F2D",
";. c #AD623D",
":. c #B4643C",
">. c #BA653C",
",. c #B86536",
"<. c #BC622F",
"1. c #9C4A1E",
"2. c #C26434",
"3. c #C3693B",
"4. c #CC6C3C",
"5. c #C76738",
"6. c #D46C37",
"7. c #D5713C",
"8. c #DC733B",
"9. c #D97036",
"0. c #D16429",
"q. c #E3763B",
"w. c #E5793D",
"e. c #EC7B3D",
"r. c #F17E3E",
"t. c #975D42",
"y. c #845D49",
"u. c #966E4E",
"i. c #A76545",
"p. c #BB6B42",
"a. c #B56A45",
"s. c #BC724C",
"d. c #B57756",
"f. c #A56E54",
"g. c #88746D",
"h. c #8E786F",
"j. c #AC7E69",
"k. c #C56D43",
"l. c #CB7144",
"z. c #CC764A",
"x. c #C8754A",
"c. c #D27444",
"v. c #DE7944",
"b. c #D47A4B",
"n. c #DB7C4A",
"m. c #DA7843",
"M. c #C97851",
"N. c #E37B44",
"B. c #EB7E43",
"V. c #E37D48",
"C. c #F47F41",
"Z. c #3F813D",
"A. c #41813F",
"S. c #448342",
"D. c #498546",
"F. c #468943",
"G. c #498A46",
"H. c #4B8449",
"J. c #4C8C4A",
"K. c #4C914A",
"L. c #469043",
"P. c #51934F",
"I. c #4D8259",
"U. c #568856",
"Y. c #599757",
"T. c #53844C",
"R. c #558266",
"E. c #69876A",
"W. c #69946A",
"Q. c #778877",
"!. c #769977",
"~. c #668174",
"^. c #75A475",
"/. c #63925A",
"(. c #FD823E",
"). c #AC8872",
"_. c #9D8E65",
"`. c #D38559",
"'. c #EE8145",
"]. c #EB824A",
"[. c #E5804C",
"{. c #F48243",
"}. c #FD8542",
"|. c #F88647",
" X c #E98856",
".X c #F68C53",
"XX c #CC8D6E",
"oX c #EC9667",
"OX c #FCA675",
"+X c #707A81",
"@X c #76878A",
"#X c #788C95",
"$X c #708F91",
"%X c #899696",
"&X c #95999A",
"*X c #8B9089",
"=X c #AF9389",
"-X c #8CA691",
";X c #B9A69A",
":X c #8F9CA4",
">X c #99A7A8",
",X c #92AFAF",
"<X c #A9A8A8",
"1X c #B1AAA9",
"2X c #A6B7A8",
"3X c #A7AAB2",
"4X c #B8B9B8",
"5X c #AEB5B3",
"6X c #A39DA7",
"7X c #D5A890",
"8X c #EBB393",
"9X c #CDB3A7",
"0X c #C19995",
"qX c #CCC8BA",
"wX c #F7C6AA",
"eX c #E6C9B8",
"rX c #F4CCB3",
"tX c #AEB7CC",
"yX c #C3BDC8",
"uX c #BDC6D8",
"iX c #B9C6C5",
"pX c #C3C7C6",
"aX c #DAD8D6",
"sX c #CECFD1",
"dX c #FBDBC8",
"fX c #E8D6CD",
"gX c #E6E4DC",
"hX c #F7E7DB",
"jX c #D4D8E3",
"kX c #DFE3E7",
"lX c #E8E8E6",
"zX c #F8EDE4",
"xX c #FAF5EB",
"cX c #FAF6F2",
"vX c #FDFCF3",
"bX c #FEFEFD",
"nX c #F4F5F6",
"mX c #EBEFF2",
"MX c #DDE1DE",
"NX c None",
/* pixels */
"S.S.S.! A.! ! ! A.! ! ! A.! Q L L ! ! ! ! L ! K K K K K k Q Q ! ! ! ! L ! L ! ! ! ! S.S.S.S.S.S.A.S.F.F.G.A.G.A.L.G.A.A.G.G.A.G.",
"S.F.! S.! ! A.S.S.A.! ! ! n n ! ! ! ! L K K Q ! K d K K ! Q L ! ! L L ! L Q ! D.S.! S.S.S.S.S.S.S.S.F.S.A.F.G.A.G.A.G.A.A.L.G.A.",
"D.F.S.S.! A.A.S.! S.! ! m B F ^ ! ! ! Q K Q ! ! K K K K L K ! ! ! ! ! L ! K S.H.! S.D.S.H.P.P.S.S.S.S.F.F.F.F.F.A.G.A.G.A.L.A.G.",
"D.D.S.S.A.! L ! ! ! ! n N { ] I ! ! ! K K j ! ^ K K K K K K K K k Q Q Q K ! ! D.S.S.A.S.Y.$X^.F.S.S.S.F.F.F.F.S.G.A.G.A.G.A.G.A.",
"! S.! ! ! ! ! ! ! L H A Z { C J L ! ! K K K Q Q K K K K K K K ! L L P L K ! ! ! A.S.S.D.J.U.T.S.S.S.S.G.G.S.F.F.A.G.L.A.G.G.G.A.",
"S.S.A.! ! A.S.! L j v B V { { F K ! Q Q K K K Q K K ! K K K K L L L L L ! Q ! ! ! S.! S.S.S.! ! S.S.S.S.F.G.F.S.G.A.P.G.G.L.G.A.",
"S.! L L L Q D.! ! n N V C { ] C I ! K K d K Q K K ! Q Q ! K K H b b b b H d K ! L ! A.! ! ! ! ! ! ! S.S.F.D.F.F.A.G.K.G.G.K.G.A.",
"A.A.! L Q ! H.F.d A V V { C C C M f K K K d j Q K K K d d t 8 : * = & & > c K K ! L ! L Q Q S.S.! L ! ! ! F.F.S.G.L.P.A.G.K.G.G.",
"L S.L Q P ~ P.G.J B V { C ] { V 1 > H k k K K d K j h H : $ = 1 - l B Z Z x P K K ! L K Q K ! ^ H.! K S.S.S.S.F.A.J.K.A.K.K.A.A.",
"A.! ! ! K A.Y.T.A B Z Z Z ] C B B { N u K K j K G p c % > - 3 S R g.*X).o.M k k K K K K K Q K ! J.D.K ! ! L P A.A.K.K.G.K.K.G.G.",
"! ! L L K ~ Y.I N Z 1 Z B V Z < = ,.5.F b G j j p + $ = - { y.h.:XtXsXaXf.% K Q Q Q K K Q j K K ! P.~ L ! L L A.G.K.J.J.K.G.G.G.",
"A.! L L P D.U.m B V V [ } } ] B V 3.(.8.[ z H t + # = { } h.3XuXsXjXkXkXh.+ K d k j K K j K K Q ! H.J.! D.L L P T.P.G.J.J.J.J.G.",
"! ! F.H.~ T.^ v @.} [ | &.,.,.3.3.8.(.}.e.<.x X # - 1.O.=XtXtXyXjXjXnXkXg.: k Q d Q Q K d Q d K K H.P.J.H.~ U.Y.U.P.K.L.G.K.K.S.",
"! L D.H.~ T.J N O.#.$.,.4.6.7.w.{.{.{.(.}.r.<.- { $.*.XX3XtXtXsXjXkXnXlXg.+ j G Q d d d K d K K K ! J.Y.Y.E.!.$X^.W.^.^.K.Y.J.S.",
"! Q K Q E ~ n = O.5.w.{.{.{.{.{.}.}.(.}.}.}.e.5.=.2.l.;XtXuXuXjXmXnXbXlX' 8 K j d d d K d d K Q G Q D./.W.!._.-X-X-X5X2XY.Y.J.L ",
"Q K Q E E Q c N *.(.}.{.{.}.}.}.}.}.}.}.}.}.(.r.e.9.5.).4XyXiXpXkXnXbXaXR 8 d G d Q Q d K K d d G E ~ U./ ` ~.E.*X4XMX2XY.P.D.L ",
"Q G P E G H , [ 7.|.{.{.}.}.}.}.}.}.}.}.}.}.}.}.(.(.3.,.`.f.XX7XaXbXcX1X, t Q d d d K d G K K d H f ~ ( ~ / ~.*XqXxXzX2XU.! ! K ",
"Q Q E Q Q b * ;.v.{.{.}.{.}.}.}.}.}.(.}.}.}.}.}.(.|.(.8.4.$.d.).9XmXaXg.@ d d d d d d K ! K K G E E ~ W._.2XsXgXxXbXlX2XT.A.L ! ",
"! ! K L K z [ 4.[.'.{.}.}.}.}.}.}.}.}.}.(.}.}.}.(.|.(.(.(.,.t.u.=XyX<XR 6 d d d d d d Q D.Q K j K H.!.qXgXxXxXvXvXvXlX>X/ ! ! L ",
"! ! L L b x ;.v.'.'.{.{.}.|.}.}.}.}.}.(.}.}.(.}.'.(.(.(.'.`.,.f.6X3Xg., 0 d d E d d d E Q Q s G ) _.8XdXzXzXxXxXvXvXMX-X~ ! k ! ",
"! L L L u N ,.'.'.'.(.{.}.}.}.}.(.}.}.}.}.}.}.}.'.(.(.'.(.[.[.XX1X=XR # r d d d E d f f G K W _.`.oXOX8XrXdXxXxXvXxXiXQ.L L Q A.",
"! ! ! ! c C 7.'.[.[.'.{.}.}.}.}.}.}.}.}.}.}.}.}.(.(.[.[.8.(.[.XX0Xi.< X E d d d d d f f G W `.].|..X XoX8XrXhXxXvXlX3XE.k Q k Q ",
"A.! L L c O.[.'.[.(.'.}.}.}.}.}.}.}.}.}.}.}.}.}.].(.(.9.7.[.`.7.s.[ : 6 d Q d d d f f E W d..X{.].]. X X`.7XeXzXzXeX*X/.K ! Q ! ",
"! ! L j N 3.'.|.[.'.(.}.}.}.}.}.}.}.}.}.}.}.}.}.(.(.(.(.9.3.s.>.&.3 + t d d d d d d d E u..X|.B.].[.[.`.`.XX7XrXeX;X@X/ K K K K ",
"S.L ! c O.[.(.m.[.w.(.(.}.}.}.}.}.}.}.}.(.}.(.}.}.(.|.(.9.3.,.;.+.< 5 d d d d d d Q G U `.].V.n.n.b.b.M.M.M.XX7X7X).Q.^ P ! ! ! ",
"L ! k F 4.'.;.C [ ,.6.w.(.(.(.(.}.}.}.}.|.'.}.}.}.}.(.(.'.6.,.&.[ : t j d j d d d j n a.b.z.z.b.z.x.M.d.d.d.d.XXXX)./.L K ! ! L ",
"A.A.H  .(.'.@..   = ,.w.|.}.(.(.(.(.|.(.'.(.}.}.(.}.'.(.[.3.,.;.B : J P H n m t s H o.c.z.s.p.s.s.s.a.i.i.i.f.d.d.u.~ P Q ! ! ! ",
"L L J `.}.e.5.O.C u.XX7XwXwXOX.X(.8.[.(.(.(.{.}.}.}.(.|.(.[.,.;.C 2 o.,.,.*.#.[ z z +.p.a.a.i.i.i.i.i.t.t.t.t.t.y.) P L K ! ! ! ",
"L ~ ,XfXOX(.[.XX9XqXgXlXkXmXzXwXXX(.9.8.8.7.w.(.|.}.(.|.'.[.>.:.[ >  .v.7.7.5.5.=.} 3 1 ] X.t.t.X.X.t.+.t.X.X.X.D I K K ! ! ! Q ",
"k I.iXnXzXdXhXlXmXcXmXsXT @ =XsXeX7X`.[.$.X * { ;.(.(.|.(.[.x.>...> [ v.'.{.(.(.N.7.#.> ; 4 ..@.X.t.+.X.X.X...S J L ! ! ! P ! L ",
"! ~ ,XnXvXbXbXnXbXvXnXaXY Y 1XfXfXeX9XoX6.1.x .   O.|.(.[.[.3.:.] $ V l.'.{.(.|.}.}.N.-., o 4 y.X.X.X.....S A m Q ! ! ! ! ! ! L ",
"A.D.$XjXbXbXbXbXbXbXnXnXkXaXmXzXgXfXfXeX8X X0.1.l 0.(.(.7.7.3.,.Z . = ,.[.{.|.(.C.C.C.m...; , 4 3 S S S 2 v J K ! ! L ! ! ! L ! ",
"! ! I.,XkXbXbXbXbXbXbXbXbXbXbXcXzXzXzXhXhXdX8XoX.X}.'.N.V.XXXXj.u.Y # } l.N.B.C.{.{.{.N.;.< ; 4 2 4 4 > v Q ! Q ! ! L S.L ! L ! ",
"! ! k I.:XkXbXbXbXbXbXbXbXbXbXbXnXcXnXcXcXvXvXhXdXrXrXrXfX9X4X<X1X&XT $ -.=.c.N.'.(.'.N.>.S : : > 4 v H Q ! ! ! L ! L ! S.A.! ! ",
"Z.! L L I.,XmXbXbXbXbXbXbXbXvXvXvXvXvXvXnXbXbXbXbXbXbXvXMXyX5X5X9XtX*XT S :.k.V.[.[.[.m.p.S v m m H K ! ! A.! Z.! ! ! ! S.S.Z.S.",
"! ! ! L k I.,XmXbXbXbXvXvXvXvXvXvXvXvXvXvXbXbXbXbXbXvXaXyX1X6X6X%X%X+X) t.p.l.b.[.v.v.n.a.C m P K L ! ! A.S.S.S.! ! S.! S.S.S.S.",
"! ! k ! K ! R.3XmXbXbXvXvXvXvXvXvXvXvXvXvXvXvXvXvXxXaX4X6X:X+X+X+X_ T t.:.p.z.b.b.m.n.n.a.F J K k Q ! S.S.L S.! S.! S.S.S.S.S.S.",
"k ! k ! ! K Q R.,XlXbXbXvXvXvXvXvXcXvXvXvXvXvXvXlXsX1X*X+X' _ _ _ R R i.k.M.b.b.z.c.b.b.;.A G Q K ! L ! k S.S.S.! ! ! S.S.S.S.S.",
"! K ! K K K K ! R.#XpXlXmXxXvXvXvXvXvXvXxXxXlXsX3X%X' _ Y 4 4 y.y.y.i.a.x.z.z.z.k.k.b.b.+.m ! Q K K ! ! S.S.! ! S.L S.! ! S.S.S.",
"! ! ! K K K K K k ^ ` $X>XqXsXaXgXgXgXMXsXpX3X+X` _ Y , 2 ] | O.-.&.k.x.z.z.x.k.:.k.l.b.o.H ! ! L ! ! ! S.S.S.S.S.! ! ! S.S.S.F.",
"! ! Q K K K K K K K K ^ +X$X#X@X#X%X:X#X$X+X_ Y , , A { ..O.&.t.;.s.x.z.l.l.>.&.&.>.k.b.D G F.! k ! L Z.S.S.S.S.S.k S.! S.S.S.S.",
"! ! ! Q K ! K K d K K ! E.$X@X#X$X@X+X$X#X' 4 4 ] [ @.t.&.;.i.;.k.k.l.k.k.p.O...-.=.4.c.A G ! Q d k Z.S.S.S.S.Z.S.S.! S.S.S.! D.",
"Z.S.S.! K ! ! K K K ! ! NX@X@X:X>X%X:X,X&Xt.@.-.&.&.&.;.;.a.;.=.5.4.4.5.=.-.3 ] =.=.4.k.A p A.h j j k S.S.S.S.! S.S.S.S.! S.S.S.",
"! ! S.! K K K K K K K K Q E.` #X&X>X3X3X).*.*.*.>.>.p.k.k.:.*.=.5.4.=.-.2 > ] @.=.5.4.=.> r S.h h h Z.S.A.S.S.S.S.S.F.S.S.S.D.! ",
"! ! ! ! ! ! K K Q Q K K K ^ _ ' *X>X3X3X=Xs.*.=.5.l.c.l.k.*.-.$.*.| 4 #   6 x -.=.=.=.| ; @ F.k g k k Z.A.S.S.S.F.G.F.F.F.S.S.! ",
"! ! ! ! K K K K k Q K K d ! F h.*X>X5X4X9XM.%.2.6.m.m.m.3.| V 2 ; o     O e 7 N -.-.-.{ 4 7 L.k s k Z.k k k k S.S.S.S.S.S.! ! ! ",
"S.! A.K K K K K K j j j j p N a.j.6X5X5X9Xs.*.5.9.w.B.N.3.2 8 7 o     O e e r 6 4 [ | 3 $ 8 F.A.h Z.Z.h h h k Z.A.S.! ! ! ! ! ! ",
"A.! k K K K K K j d s d s 9 V *.i._.4X5X;X#.%.5.9.q.w.v.:.x q e @ O O 9 e e i 9 o $ 1 = ; @ ! S.k F.Z.g g g k k A.S.L ! ! ! ! S.",
"! A.! L K d j d s s s p r + B #.O.B ' -X' } $.%.0.9.q.c.O.c y e 9 9 e y e e r r 6 % $ & # O K S.Z.F.k a ! U.U.S.G.S.L k L ! ! S.",
"A.! k k k h j s s a i i r + Z } [ $ M H n Z #.#.%.2.5.&.B w e e e e e e y i i r 6 . # # # O d G.F.A.h i W.-X2X-XW.! L L L ! ! ! ",
"A.! ! k h h j s a i i i 9 # = 3 1 : 0 i u x [ } | } O.] , q e e e e i e i y r i 7 X . .   + j A.Z.k j p / ' Q.Q.W.~ L L ! S.S.! ",
"Z.! k h d g d s p e i r + = & $ $ + q a u x - V { V B < : q e y e e y i y r r i r 7 6 + 7 r s h h j k K d W ( E Q L L L ! ! ! S.",
"A.k k h s a s j a y y 0 # = $ ; o + y a w : & = = Z < ; : r i i y y e i i i i i i t p s K s p p s h k K d d K K L ! S.! ~ P S.S.",
"k k k j s a s s a y y 0 # $ ; + o 5 y a z $ & & 1 1 > ; 8 r y i y i i y i i i a i r r t r p p s h j k k j j L L L ! ! S.A.A.! ! ",
"A.h h h g a a j a y y y 5 O + + 5 q a y + # * * < 4 : o 6 r i y i i i i i i i i i i i p a a s h k k k k L L L ! L ! D.P ! ! ! ! ",
"k k h h g a a s s a a a a i i i a a a y 8 o : % : ; ; o 6 q y i i a i i i i i a a a g h h h k k k S.L L A.L L A.! ! ! ! S.! ! S.",
"L k h g a a a h g a a a a a a y a a a a e 5 O O @ O @ O 9 e i i i a i r i i s s g s h k k k A.A.S.L L L L ! ! ! ! A.! ! ! ! ! ! ",
"L k j s a a i a g a a g a a a a a g a i a a i e q 9 7 e i i i i a h a a s s d s j k A.k ! A.S.S.S.S.A.L ! L ~ S.! ! ! ! S.! ! S.",
"A.k j h s a a a a g g a a d Y.U.k a a a g g g y y a a i a a a a s s s g h j j j K k ! S.S.S.S.F.S.L ! S.! ! ! D.! P S.! ! ! ! ! ",
"S.A.L j h s a a g g g a p p s ! h g a a a a a a y a i a a a s h K j d K K j K K L ! A.S.S.S.S.S.L S.! L ! ! ! ! ! ! ! ! ! ! ! ! ",
"S.k L k j h j g g g g h g g j g g s a a a g g a a g a g h j j k j k k k K ! ! k ! L ! ! S.S.S.S.L L L ! ! L ! ! ! L L L ! P S.! ",
"Z.S.S.! A.k k j k h k h h h g g h g g g g h h h h h h j j k k K K ! K k ! K ! ! L ! ! A.! S.S.! S.S.! ! ! A.S.! S.! ! ~ ! ^ ! ! ",
"S.S.S.A.S.L L Z.Z.Z.Z.k k k k h h k j k k k k k k k L L Z.Z.Z.! ! ! ! ! ! K ! K ! A.A.S.S.S.S.S.! ! A.! S.! ! S.! ! Q ! ! ! ! Q ",
"S.S.S.S.A.A.A.A.A.Z.A.A.A.k ! k A.A.k k A.k L Z.L A.S.A.! S.! ! ! ! ! ! ! ! ! ! L ! L S.S.S.S.S.S.S.k S.L ! S.S.S.! ! ! ! ! ! K "
};
