/* XPM */
static char *result[] = {
/* columns rows colors chars-per-pixel */
"64 64 237 2 ",
"   c #070702",
".  c #0D0D04",
"X  c #0F1006",
"o  c #131203",
"O  c #1B1B04",
"+  c #151609",
"@  c #1C1C0A",
"#  c #161616",
"$  c #1B1717",
"%  c #171916",
"&  c #1B1B16",
"*  c #171A18",
"=  c #1A1B19",
"-  c #201F06",
";  c #2C1515",
":  c #261817",
">  c #231B19",
",  c #341514",
"<  c #3B1414",
"1  c #1E241D",
"2  c #282807",
"3  c #383708",
"4  c #282815",
"5  c #23231B",
"6  c #2C341B",
"7  c #343414",
"8  c #393A18",
"9  c #1F2B20",
"0  c #222521",
"q  c #242B23",
"w  c #292D26",
"e  c #272B28",
"r  c #2A2E29",
"t  c #243425",
"y  c #273927",
"u  c #2C332B",
"i  c #2F332D",
"p  c #2D3B2C",
"a  c #353A27",
"s  c #32352D",
"d  c #353B33",
"f  c #353A35",
"g  c #393E34",
"h  c #431413",
"j  c #4C1212",
"k  c #571212",
"l  c #780E0E",
"z  c #68100F",
"x  c #39431C",
"c  c #25432A",
"v  c #29442B",
"b  c #2B4C2C",
"n  c #36462A",
"m  c #2C542D",
"M  c #2E5B2D",
"N  c #305E2F",
"B  c #3C5E2D",
"V  c #2E4832",
"C  c #3B4235",
"Z  c #374837",
"A  c #3C433B",
"S  c #2F5630",
"D  c #375536",
"F  c #335C32",
"G  c #3B5C3B",
"H  c #2E622D",
"J  c #30632E",
"K  c #366A2C",
"L  c #2F6030",
"P  c #346433",
"I  c #386636",
"U  c #356A33",
"Y  c #396B37",
"T  c #3B633B",
"R  c #3B6D3A",
"E  c #377136",
"W  c #397237",
"Q  c #3D743B",
"!  c #3F793C",
"~  c #49490A",
"^  c #514F0C",
"/  c #575608",
"(  c #474819",
")  c #585916",
"_  c #676607",
"`  c #77770A",
"'  c #67671A",
"]  c #706F10",
"[  c #7A7A16",
"{  c #464A27",
"}  c #4B5227",
"|  c #595A25",
" . c #474C35",
".. c #40473C",
"X. c #434A3D",
"o. c #495438",
"O. c #535839",
"+. c #546930",
"@. c #427A36",
"#. c #41763F",
"$. c #417A3F",
"%. c #646626",
"&. c #767726",
"*. c #656A39",
"=. c #707433",
"-. c #3E4741",
";. c #3F5643",
":. c #3F6840",
">. c #454B46",
",. c #444C44",
"<. c #484F44",
"1. c #454D4A",
"2. c #455746",
"3. c #4B5245",
"4. c #4B534B",
"5. c #4C5B4C",
"6. c #535945",
"7. c #515A4C",
"8. c #4E5651",
"9. c #4E5A52",
"0. c #4E5658",
"q. c #535B54",
"w. c #545B57",
"e. c #555D59",
"r. c #436C42",
"t. c #476448",
"y. c #4A6C4B",
"u. c #5A6549",
"i. c #437441",
"p. c #437D40",
"a. c #4B7948",
"s. c #4D6652",
"d. c #546355",
"f. c #566657",
"g. c #5B645D",
"h. c #5C6B5C",
"j. c #4F7254",
"k. c #537555",
"l. c #646A44",
"z. c #6D744E",
"x. c #575F61",
"c. c #5C6562",
"v. c #5E6A62",
"b. c #5E6769",
"n. c #5C7563",
"m. c #626C64",
"M. c #626C6C",
"N. c #686F6F",
"B. c #657165",
"V. c #677867",
"C. c #66736A",
"Z. c #69756C",
"A. c #6B7A6C",
"S. c #666F71",
"D. c #667171",
"F. c #6A7474",
"G. c #6E7B72",
"H. c #6C7679",
"J. c #6E797A",
"K. c #717E73",
"L. c #717B7D",
"P. c #8F0C0C",
"I. c #A50A09",
"U. c #B70807",
"Y. c #C60606",
"T. c #DA0404",
"R. c #EE0202",
"E. c #817F18",
"W. c #48853B",
"Q. c #57943C",
"!. c #7C8036",
"~. c #448342",
"^. c #498545",
"/. c #468843",
"(. c #4B8B45",
"). c #4C834A",
"_. c #4C8C4A",
"`. c #518B48",
"'. c #4D914B",
"]. c #549448",
"[. c #4F8250",
"{. c #568855",
"}. c #569753",
"|. c #639F45",
" X c #66A145",
".X c #67876B",
"XX c #6C8B6D",
"oX c #738375",
"OX c #758A77",
"+X c #75847B",
"@X c #7A8B7C",
"#X c #7A957A",
"$X c #66A264",
"%X c #888806",
"&X c #979505",
"*X c #86851C",
"=X c #969419",
"-X c #A19E12",
";X c #AAA907",
":X c #B7B50A",
">X c #ACAB1B",
",X c #B9B71B",
"<X c #888727",
"1X c #9B9A26",
"2X c #858835",
"3X c #A5A426",
"4X c #A6A82F",
"5X c #C1BF16",
"6X c #CBC808",
"7X c #D9D709",
"8X c #C6C514",
"9X c #D4D110",
"0X c #EAE806",
"qX c #F1EF05",
"wX c #F4F203",
"eX c #FDFC01",
"rX c #879360",
"tX c #747E81",
"yX c #768382",
"uX c #7A8484",
"iX c #7C8B84",
"pX c #7E8B8A",
"aX c #7F9384",
"sX c #818E8C",
"dX c #829685",
"fX c #83928C",
"gX c #859491",
"hX c #889894",
"jX c #8B9B95",
"kX c #8D9C9A",
"lX c #909F9D",
"zX c #88A48E",
"xX c #92A19E",
"cX c #95A6A3",
"vX c #99AAA5",
"bX c #9BACA8",
"nX c #A1B1AD",
/* pixels */
"~.~.~.p.~.~.~.~.~.! ! p.p.~.:.~.p.:.~.! ! p.:.:.j.t.:.:.~.:.~.! ~.:.p.p.i.:.~.~.~.p.~.~.~.~.~.:._.~.~./././././.W.~.~./.~./.~./.",
"~./.~.p./.:.! ~.~.~.~.! p.! p.W.p.p.! W T ;.s.f.n.n.j.y.:.:.~.p.~.~.p.p.a.a.~./._.'.~.~.~.~.~.~.~.~././././././././././.~././.W.",
"^.^.~.p.~.p.p.~.! ~.:.~.p.p.p.p.p.! U G ;.9.c.C.yXpXyXn.s.y.:.Q W E R :.s.n.pXxXaXaX.Xj.[.'._.~.~.~././././././.~.~./././././.~.",
"~./.~.~.p.! p.p.~.! /.~.p.p.p.~.! W T 1.9.g.v.F.aXhXhXuXH.k.a.:.:.:.;.;.;.yXcXbXbXcXpXyX.XyX$X~.p.~.~./././././.~./.~./.Q./././.",
"~.~.~.p.~.! ~.p.p.p.~.:.p.p.~.p.W G 2.4.q.h.m.L.aXjXkXhX+XD.b.x.0.0.;.-.x.yXlXcXxXkXpXtXH.F.n.:.~.~././././././././././.|.]././.",
"~.~.p.p.p.p.p.p.p.p.~.~.~.p.:.! Y G 1.8.g.M.G.K.aXpXhXpXyXC.b.c.0.0.0.0.M.tXuXpXyXtXtXtXH.J.J.c.~.~.~.~./.'.'./././.'./.|.|././.",
"p.p.:.p.:.$.~.p.p.~._._././.~.E Y ;.4.g.m.F.K.+XyX+XyXoXD.M.M.b.b.b.S.tXuXtXtXtXS.M.S.D.F.F.S.S.s.:.~.~.~.'.}./././.'.Q.].Q././.",
"~.p./.p.~.~._./.~.'.'./.~.:.! E I ;.4.g.B.Z.G.K.A.C.M.M.C.H.tXtXuXhXxXbXcXpXtXS.S.b.b.b.D.F.tXtXn.0.:.! ~./. X'././.'./.].'././.",
"W.~.$.$.$.a.}.`.}.'._.p.p.#.R Y I ,.q.m.C.C.m.Z.N.N.m.m.m.N.J.L.uXkXbXnXnXvXjXpXJ.b.b.M.S.tXuXgXpXS.1.5.a.`. X(././.'./.'.'.~.~.",
"p.p.p.$.#.a.}.}.}._.~.p.p.i.Q R T 9.B.G.G.C.m.m.g.w.g.c.g.m.m.N.tXlXbXnXnXnXvXxXsXF.b.M.H.uXkXcXlXuXc.b.@X{.|.(.~.'.'._.'././.~.",
"p.p.$.$.#.a.}.}.).p.p.p.Q Q R T 5.m.L.tX+XK.Z.m.7.4.g.g.g.g.c.m.F.pXxXvXxXvXbXvXlXpXH.F.tXsXcXbXcXpXb.M.iX{.(././.'.'._.'._././.",
"p.p.$.$.a.).].`.a.p.y.j.y.r.T ;.q.Z.+XrX@X+XK.m.w.w.w.w.w.g.g.e.g.H.gXkXjXlXvXvXcXkXpXtXtXpXcXcXlXpXx.c.H.p.p././.'._.'._.'.'./.",
":.! /._.`.`.[.).i.T 2.g.h.1.C 1.g.G.K.K.+XK.G.B.g.w.7.w.w.e.g.e.e.v.G.pXfXjXxXcXcXcXhXyXJ.yXsXgXpXb.0.x.c.j.[.{.{.'._._./.'.'./.",
"/.~.~.^.a.k.a.a.#.v d 4.4.A A 9.g.B.G.K.K.G.N.c.c.w.w.w.e.m.h.m.g.g.m.G.+XdXfXjXxXlXkXpXtXtXtXtXtXb.0.0.0.n.#XaXaX.X_.).'.}._.p.",
"p.i.i.i.#.a.a.a.Q y u f g f A 4.w.g.B.Z.Z.N.c.g.g.g.g.g.m.G.oX+XA.v.h.m.G.G.F.J.uXpXpXyXH.H.J.tXtXS.x.0.0.v.OXzXzXzX$X_.}.}._.p.",
"i.i.i.r.#.a.a.i.R t u f f f -.1.4.7.g.g.m.g.g.g.m.B.B.B.G.oX@X@XA.h.5.q.q.q.9.q.c.b.F.F.S.S.J.uXyXtXtXS.v.e.n.OX@X$X.X}.}.}.^.p.",
"i.#.#.#.t.#.+.r.U p A ..g g g 4.4.8.q.g.g.g.e.g.m.m.m.B.C.A.G.OXV.t.Z d f f f -.-.-.0.x.M.D.tXsXhXgXpXtXF.c.s.f.k.{.k.`.).W.a.$.",
"$.r.r.i.#.#.#.R I Z 5.7.,.,.A >.8.e.m.Z.Z.m.g.w.q.q.5.3.4.t.t.;.V r r e e u u f f f A 0.c.D.yXgXkXgXuXtXH.m.t.y.j.a.#.a.#.$.$.$.",
"p.p.#.$.p.$.Q Y D q.h.w.4.>.1.8.e.C.oXiXrXK.m.7.4.o.X.D C u 1 = $ $ = 0 0 q e r u i f -.9.g.C.yXpXpXtXtXJ.m.2.#.#.#.#.#.$.$.$.$.",
"$.p.$.$.#.i.W b A g.h.g.8.8.w.e.m.F.@XdXsXoXV.7.o.D s e 5 = = $ # # * = = = 0 e e e p C -.1.8.d.v.S.H.tXZ.7.O.u.#.#.#.$.#.$.$.$.",
"p.! p.$.$.! Y p >.g.g.q.4.w.w.w.g.Z.uXrX@XoXh.6.d 5 1 = = = * # # # # # # # # = 1 0 e e r r r s ,.9.b.F.g.l.z.z.n.a.a.#.#.$.#.$.",
"~.p.p.~.#.Q I V >.w.w.8.w.w.w.w.e.m.Z.K.G.B.u.X.e = = = = # # # # # # # # # # # * * = * = = 0 w f -.4.g.u.=.z.q.dXaX.Xa.$.#.$.a.",
"~.! /.! i.R I d >.>.4.w.w.w.8.8.w.w.h.h.d.7.<.A 0 = = # = # # $ # # # # # # # # # # # # # # 1 0 s g ,.q.l.l.6.q.F.hXXX#.#.#.$.$.",
"p.p.:.p.i.Q Y Z >.3.>.4.w.7.4.4.4.7.w.7.4.>...g = # # $ $ $ # % # # # # # $ # $ $ $ # # $ : > > u a A 6.*.*.l.u.c.@Xk.#.#.#.#.$.",
"~./.~.! #.Q #...g ..d A w.w.4.>.4.4.4.4.>.,.A i : : ; ; j h ; ; : ; ; ; ; ; , , < , , , < , , ; w a X.l.=.2X2Xz.q.g.t.i.i.p.p.:.",
"p.:.p.$.@.I +.} a ..i f 4.4.>.3.4.3.4.<.,.,.i : ; , k P.P.I.I.z j j j j j k l I.I.P.k j j j < , , p 2.*.4X4XrXl.4.,.3.j.p.~.~.~.",
"~.p.! ! I b o. .s f s g >.3.>.3.4.6.<.<.,.i = ; < h l Y.T.R.T.Y.l k k k k l Y.T.T.U.z k j j h , w s  .!.,X2X=.l.>.A >.5.t.i.p.p.",
"! ~.! :.D  .O.o.s f g -.>.>.>.3.<.3.X.g r = = : < h k U.R.R.R.T.l k k k z P.T.R.T.U.z j j < , ; 7 8 ' 8X<X=.*.l.>.,.8.q.2.t.Q $.",
"p.! T G 2.O.+.O.g r A A 1.8.4.3.3.<.A r 0 $ $ $ : ; , k I.Y.U.P.k h h h h z I.U.P.z , , ; ; 4 / / ~ _ &X{ 6.h.c.9.q.c.h.q.G #.$.",
"! W D ;.o.+.%.O...i 1.0.8.w.w.l.*.{ { } e $ $ $ # $ > = > ; ; > 5 > > 1 > : h h ; : $ & 5 ( _ _ 2 3 3 7 o.g.m.Z.C.B.B.c.4.t.#.$.",
"! Y S ;.+.&.| n O.O.*.E.=.z.E.%.4 + 2 | %.7 $ $ # # # = = = = = = = = * = * = = # # & ( [ &X%X2 @ 7 u d ,.e.m.Z.G.Z.B.q.<.i.$.p.",
"E Y S o.*.%.( 4 ( _ :X9X,X4X1X2X' O o ^ *X&.( 0 $ $ = = = = = = 1 = * = = * * * # 4 3 _ 6X:X%X2 - 0 s g -.5.v.Z.Z.C.c.q.r.$.p.p.",
"U U S D | %.8 4 3 &XeXeX0X5X3X3X*X- o ~ _ 1XE.' 8 = = * = & % % % * = 1 1 1 1 - O 3 ` ;X:X;X_ 2 * e i f A >.0.g.m.g.g.d.i.~.! p.",
"U U H D } | a 5 7 -XeXwXwX9X5X4X<X4 o 3 ^ =X,X<X' ) 8 7 4 4 3 7 x ( ) ) ^ / x - o x &X;X` ` 2 @ # = i f A ,.4.e.g.g.d.d.a.$.:.~.",
"U H P b  .} 6 > 4 &X0X0X0X9X,X,X*X7 . 2 ^ E.8X5X<X8 O O 3 / ` %X:X:X:X6X%X^ 2 o o / ` ] ^ 1 % # = = e f >.>.8.g.c.g.w.q.i.~./.W.",
"U J P p s g a = = ] ,X4X4X4X4X4X=X3 . 2 ~ E.>X8X,X' ~ ~ _ ;X6XeXeXeXeXwX&X3 O o - / ) 8 1 # # * = 0 e f 1.4.q.g.m.g.d.q.y.~./.~.",
"J J J y r s u 6 5 | *.l.z.z.z.E.2X( @ @ 3 *X1X3X,X,X^ 2 ~ :X7X0XqXqXqX6X_ 2 o o o 7 4 % 1 5 t u -.1.9.d.g.q.q.g.m.g.q.7.s.~./.~.",
"J J J y q r r s A <.6.w.g.h.m.g.6.{ 4   ( ] 1X1X3X,X%X@ + @ ) ,X:X;X!.~ 2 O + O 1 1 % 1 u Z X.5.d.v.V.C.B.c.g.c.g.e.q.q.2./.~./.",
"P H H b 0 t s A X.3.7.q.g.g.c.g.q.A > # 4 ) [ 1X1X3X[ @ o 2 7 ' !.~ x 3 6 x x 6 1 9 1 q V D 6.d.n.B.A.A.A.C.h.g.g.q.4.4.;.~./.~.",
"U P N H w r g X.X.<.<.4.7.d.c.m.8.f 0 = = 4 8 %.1X3X<X2 . @ 2 ' -X=X!.| } ( x v 6 6 6 u C X.t.h.B.A.A.oXG.C.g.g.q.7...A D ~./.~.",
"U H H N y u A X. ...<.6.3.5.q.e.w.4.>.s e 9 t 6 %.2X<X) o o . 2 -X9X8X3X&.| } { n x 8 x { X.u.h.g.m.Z.K.G.m.g.w.4.O. .d D ~./.~.",
"U H H H y p ..A ..Z ..X.X.X.3.8.q.w.4.>.f p t y y } &.&.+ X X X ^ 6XwXeX0X8X-X] } ( ( { ( ( { o.O.6.l.B.B.g.7.w.4.O. .u Q ~.~.~.",
"U U U H v u ....C C C C C C X.,.8.w.q.4.-.-.y c y c V } 8   o X + _ 9XqXeXeX0X` 3 ~ ^ ) | | | ) } { { g  .O.6.6.6.*.O.p ~.~.~.~.",
"E U U P v u Z  .C d s s s g g ..3.8.q.q.0.-.V c c c b c b y X   o 8 1X9X0XeXwX&XO 2 2 _ %X>X3X<X&.&.| 8 - 7 7 { O.=.o.D ~.~.~.a.",
"U U U J m t u C s u u r u s d A ,.4.9.q.0.4.V b b c b b c c b c % o | 1X5X7X0X9X2 O o O / ;X0XwXqXqX;X^ O o - 7 { %.{ G /.~.$.~.",
"U K I H J t q q q t q t r a d d ..4.0.9.9.;.V S m m b b S b b b b m n +.2X1X,X5XE.O o o 2 ~ &X7XwXeX0X%X3 - o 2 x } a F ! ~.p.p.",
"E U H M M m t 1 5 q q s a g g g d X.3.4.-.-.S S S S M S m m m m m m b m S B | &.*X( @ + o o 3 _ >X9X7X:X/ 2 - 4 6 6 s F #.i.p.~.",
"E J H M M M b t q t u d g A X.g d d f f Z Z F S M L S M S S S m m m m m m m F D F } a 4 O O . 2 ) =X,X5XE.( 8 6 8 { n I p.p.p.p.",
"E K K J M M M b c c c V C g X.,.C s s u u S M F P I P L F N N S N m m M m m m m S b  ...g { 6 @ 8 =.E.2X2X%.g a {  .G #.i.i.p.~.",
"! E W.K H M M M m m M 6 p s ..o.A g s w y P N P I Y Y I I P P F F F N N N N M b b b b Z <.<.<. . .l.A.z.l.*.O.C s g Y Q ! i.p.p.",
"W.W W.K H H H M M M M c w r d d d u q t N K U P Y R R Y I I I F F F J F J N S b v v c y s g X.7.A.pXrXgXOXV.g.<.2.R U R Q i.p.p.",
"@.W W.H H M M J M M m m y r r e q q c H J I U U Y R Y Y I I I P F P J J y.k.#.S b v c y y Z A d.oXrXdXjXdX@Xj.t.R Q W ! i.p.p.~.",
"W.@.Q.U H M H J M M M M M V p v m H H H J U U E Q R Q Q Q R Y I P P :.V.oX+XA.j.F b b v b K } y..XoXOXOXOXk.R R Q ! $.i.! $.p.p.",
"~.! Q.E U H J I K J N M B A 2.G K E J U U U ! ~.Q i.! ! ! W R R U P k.oX@X@XA.v.t.N S B K m m b D G D D G I R Q Q Q ! #.:.p.p.~.",
"~.~.|.~.E E U ! @.K J U G X.g.s.~.! ! ! ! ! :.:.i.p.! ! Q Q #.Q Y I r.V..XC.g.d.t.I F I H m m m m m m M N I R Q Q i.! i.Q $.p.~.",
"~.~.Q.! ! ! ! ~.Q.$.U K T 2.s.y.:.~.! p.~.).^.~.:.W.! ! ! Q R R R Y L :.q.,.,.,.T U Y Y U H H H N P P U E Q Q Q i.f.h.j.i.$.~.a.",
"p.W.(.p.~.$.@.`. XW.W Q Q :.:./.:./.~.k.OXaXaX.X$.$.$.! p.Q ! Q R U L M V p Z G E W W E E ! E ! W W U R W R #.i.j.c.g.f.p.p.p.~.",
"~.~.$.p.$.$.~.]. X`.W.~.~.p.~./.~.~.a.{.aXaXdXaXa.$.$.$.! Q Q Q :.Q U P I G Y E E ! E ! ! ! ! ! ~.! W W W R p.! t.5.5.y.p.p.a.~.",
"~.~.$.p.p.$.$.`. X(.~.~.p.[.#X$X[.i.s.b.+XaXpXiXj.$.$.! ! Q ! Q p.:.! Q W ! :.! E ! ! ! ! ! ~.! ! ! ! ! p.:.p.R P I I ! p.p.~.~.",
"~.p.$.p.p.#.$./.Q.~.~.~.a.p.).{.p.t.9.c.c.V.oXC.s.i.$.#.#.! Q ! ! ! Q Q ! :.Q ! ! ! ! ~.~.~.! /.~.~.p.p.$.~.$.! W Q i.p.p.W.a.p.",
"~.:./.~.! ! ~.~.~.~./.~.~./.~.! U Z -.-.1.2.4.2.t.i.$.$.~.! ! ! ! ~.! Q :.~.! ~.! :./.! ~.~.p.~.! ! p.p.$.~.$.p.$.p.p.p.p.p.p.~.",
"~.p.p.W.~.~.! ~.~.~.~.~.~.~.p.W U V f p f Z ;.G T $.$.$.p.! p.p.! ~.:.! ~.:.p.! p.p.~.~.~.~.~.~.~.~.p.p.p.$.~.$.p.a.p.p.p.~.~.a.",
"~.~.~.~.~.~.p.~.~.~.~./.~.~.~.! E E U U Y :.! ~./.:.W.~.p.~.~.p.p.p.p.p.W.~.! ~.p.p.:.~.p.~.! ~.~.! :./.$.~.p.~.p.p.p.p.p.p.p.p.",
"~.~.~.~.~.~.~.~.~././.~.~.~.~.p.~.~.~.p.~.~.~.~.~.~.~.~.! ~.~.p.! ~.p.~.:.:.p.p.! ~./.~.~.~.~.~.~.~.~.~.~.$.~.~.p.~.p.p.p.i.p.~."
};
