/* XPM */
static char *result[] = {
/* columns rows colors chars-per-pixel */
"64 64 235 2 ",
"   c #070702",
".  c #0D0D04",
"X  c #0F1006",
"o  c #131203",
"O  c #1B1B04",
"+  c #151609",
"@  c #1C1C0A",
"#  c #171717",
"$  c #1A1717",
"%  c #171916",
"&  c #1B1B16",
"*  c #171918",
"=  c #1A1B19",
"-  c #271716",
";  c #341812",
":  c #1E231D",
">  c #1F291B",
",  c #2B2B03",
"<  c #262608",
"1  c #383708",
"2  c #272914",
"3  c #22231B",
"4  c #2C341B",
"5  c #333414",
"6  c #393A18",
"7  c #1F2B20",
"8  c #222521",
"9  c #252B23",
"0  c #292D26",
"q  c #272B28",
"w  c #2A2E29",
"e  c #243425",
"r  c #273927",
"t  c #2C332B",
"y  c #2D3B2C",
"u  c #31362D",
"i  c #353A28",
"p  c #2F3531",
"a  c #353B33",
"s  c #353A35",
"d  c #393E34",
"f  c #461514",
"g  c #581212",
"h  c #6E0F0F",
"j  c #39431C",
"k  c #25432A",
"l  c #29442B",
"z  c #2B4C2C",
"x  c #36462A",
"c  c #2C542D",
"v  c #2E5B2D",
"b  c #305E2F",
"n  c #3C5E2D",
"m  c #2E4832",
"M  c #344634",
"N  c #3B4235",
"B  c #3C433B",
"V  c #3D4B3C",
"C  c #2F5630",
"Z  c #375536",
"A  c #335C32",
"S  c #3B5C3B",
"D  c #2E622D",
"F  c #30632E",
"G  c #366A2C",
"H  c #2F6030",
"J  c #346433",
"K  c #386636",
"L  c #356A33",
"P  c #396B36",
"I  c #3B633B",
"U  c #3B6D3A",
"Y  c #377136",
"T  c #397237",
"R  c #3D733B",
"E  c #3F793C",
"W  c #49490A",
"Q  c #504F09",
"!  c #565608",
"~  c #474819",
"^  c #585916",
"/  c #676607",
"(  c #77770A",
")  c #67671A",
"_  c #706F10",
"`  c #7A7A16",
"'  c #464A27",
"]  c #4B5227",
"[  c #595A25",
"{  c #474C35",
"}  c #40473C",
"|  c #434A3D",
" . c #495438",
".. c #535839",
"X. c #5A642B",
"o. c #516C33",
"O. c #427A36",
"+. c #41763F",
"@. c #417A3F",
"#. c #646626",
"$. c #767726",
"%. c #656A39",
"&. c #707433",
"*. c #3E4741",
"=. c #3F5643",
"-. c #3F6840",
";. c #454B46",
":. c #444C44",
">. c #484F44",
",. c #454D4A",
"<. c #455746",
"1. c #4B5245",
"2. c #4B534B",
"3. c #4C5B4C",
"4. c #535945",
"5. c #515A4C",
"6. c #4E5651",
"7. c #4E5A52",
"8. c #4E5658",
"9. c #535B54",
"0. c #545B57",
"q. c #555D59",
"w. c #436C42",
"e. c #476448",
"r. c #4A6B4B",
"t. c #5A6549",
"y. c #437441",
"u. c #4A7747",
"i. c #437D40",
"p. c #4D7D4A",
"a. c #4D6652",
"s. c #546355",
"d. c #566657",
"f. c #5B645D",
"g. c #5C6B5C",
"h. c #4F7254",
"j. c #527453",
"k. c #547857",
"l. c #646A44",
"z. c #6E754F",
"x. c #757B42",
"c. c #636D58",
"v. c #575F61",
"b. c #5C6562",
"n. c #5E6A62",
"m. c #5E6769",
"M. c #5C7563",
"N. c #626C64",
"B. c #626C6C",
"V. c #686F6F",
"C. c #657165",
"Z. c #677867",
"A. c #66736A",
"S. c #69756C",
"D. c #6B7A6C",
"F. c #666F71",
"G. c #667171",
"H. c #6A7474",
"J. c #6E7B72",
"K. c #6C7679",
"L. c #6E797A",
"P. c #717E73",
"I. c #717B7D",
"U. c #900C0C",
"Y. c #817F18",
"T. c #48853B",
"R. c #57943C",
"E. c #7C8036",
"W. c #448342",
"Q. c #498545",
"!. c #468843",
"~. c #4B8B45",
"^. c #4C834A",
"/. c #4C8C4A",
"(. c #518B48",
"). c #4D914B",
"_. c #549448",
"`. c #4F8250",
"'. c #568855",
"]. c #569753",
"[. c #639F45",
"{. c #66A145",
"}. c #67876B",
"|. c #6C8B6D",
" X c #738375",
".X c #758A77",
"XX c #75847B",
"oX c #7A8B7C",
"OX c #7A957A",
"+X c #66A264",
"@X c #888806",
"#X c #979505",
"$X c #86851C",
"%X c #969419",
"&X c #A19E12",
"*X c #AAA907",
"=X c #B7B50A",
"-X c #ACAB1B",
";X c #B9B71B",
":X c #888727",
">X c #9B9A26",
",X c #858835",
"<X c #A5A426",
"1X c #A6A82F",
"2X c #C1BF16",
"3X c #CBC808",
"4X c #D9D709",
"5X c #C6C514",
"6X c #D4D110",
"7X c #EAE806",
"8X c #F1EF05",
"9X c #F4F203",
"0X c #FDFC01",
"qX c #879360",
"wX c #747E81",
"eX c #768382",
"rX c #7A8484",
"tX c #7C8B84",
"yX c #7E8B8A",
"uX c #7F9384",
"iX c #818E8C",
"pX c #829685",
"aX c #83928C",
"sX c #859491",
"dX c #889894",
"fX c #8B9B95",
"gX c #8D9C9A",
"hX c #909F9D",
"jX c #88A589",
"kX c #8AA497",
"lX c #92A19E",
"zX c #95A6A3",
"xX c #99AAA5",
"cX c #9BACA8",
"vX c #A1B1AD",
/* pixels */
"W.W.W.i.E W.E E W.W.W.E W.!.W.E T.-.!.E E -.-.-.k.e.-.-.-.T.-.E -.!.i.i.-.-.!.W.W.i.W.W.W.W.W.W.W.W.W.!.!.!.!.!.!.W.!.W.!.!.W.!.",
"W.Q.i.W.W.W.W.W.i.E W.i.E -.W.i.W.-.E Y I -.a.d.M.m.h.r.u.-.!.W.E W.W.-.Q.^.W.!./.).W.W.W.W.W.i.W.W.W.!.!.!.!.!.W.!.W.!.!.T.!.W.",
"!.!.W.T.W.W.i.W.W.i.i.i.i.i.E i.i.E U Z =.7.b.M.eXyXeXM.a.r.@.E E Y U -.a.M.sXkXuXuX}.h.`.)./.i.i.W.!.!.!.!.!.!.!.!.!.!.!.!.W.!.",
"!.!.!.-.!.-.i.E i.i.i.i.i.i.i.i.E R S <.7.f.m.J.uXsXdXtXH.k.r.=.I -.=.=.8.eXlXcXcXzXyXwX}.eX+X`.W.W.W.!.!.!.!.!.W.W.W.!.R.!.!.W.",
"W.Q.!.i.i.E W.E W.-.i.i.i.i.i.i.R I =.2.q.f.B.J.uXfXkXsXeXG.m.q.8.=.8.*.8.eXgXzXlXgXyXwXK.F.M.i.W.W.W.!.!.!.T.!.T.!.!.T.[.R.!.!.",
"W.W.E W.i.i.W.W.W.i.W.W.!.i.i.E P S ,.6.f.N.J.XXyXuXdXaXeXA.B.v.8.8.8.8.B.wXrXyXwXwXwXwXK.wXK.s.W.W.W.!.!.).).!.!.!.).).{.{.!.!.",
"W.W.i.!.i.-.!.W.i.W.!./.!.!.-.E L <.2.q.N.S.P.XXeXXXeXL.G.B.F.B.m.B.F.wXeXwXwXK.F.F.F.F.F.F.K.F.a.-.W.W.W.).].!.!.!.).).R._.!.!.",
"-.!.i.-.-.W.).!.Q.).).!.W.-.E Y U V 6.f.A.S.J.P.D.S.M.B.A.K.L.wXrXsXlXzXzXdXwXK.F.m.m.m.F.K.wXwXM.8.-.E W.!.{.).!.).).!.).).!.!.",
"W.@.i.@.+.p.]._.).).^.W.i.y.U P J ,.s.N.A.A.B.S.V.N.N.N.B.V.K.I.rXgXcXvXvXxXfXyXL.B.m.m.F.wXwXsXyXF.,.3.^.(.{.~.!.!.).!.).).!.i.",
"@.i.i.i.+.i.].].]./.W.i.i.+.R U S 5.C.J.H.A.N.b.f.f.q.N.q.N.N.V.wXhXcXvXvXcXxXlXiXH.m.B.K.yXhXzXhXeXb.m.oX'.[.~.W.).).!.).).!.W.",
"W.@.i.i.+.u.].].^.W.i.i.y.R U I 3.C.P.XXXX XS.c.6.2.f.f.c.v.b.N.S.iXhXxXzXxXcXxXhXyXK.K.K.iXzXcXzXyXm.F.eX'.~.W.!.)././.)./.!.!.",
"i.i.@.@.y.^.'.(.p.y.r.j.r.U I =.9.S. XoXoXXXP.C.0.9.q.q.q.q.f.q.f.K.sXgXfXlXxXxXxXhXyXK.wXiXzXzXhXyXv.b.K.i.W.W.!.).!.)././.).!.",
"@.i.Q./.p.(.(.p.y.I :.f.g.:.M ,.f.D.P. XXXP.J.N.c.0.6.0.q.f.q.q.q.b.P.tXaXfXhXzXzXzXfXeXL.eXsXsXyXm.8.v.b.h.`.'.'.)././.!.].).W.",
"W.@.W.^.p.^.p.u.+.z a 2.2.*.B 6.f.A.D.P.P.J.V.N.b.0.6.0.f.f.c.N.f.g.N.J.oXiXaXfXhXhXfXyXwXwXwXwXwXm.8.8.8.M.OXuXuX}././.).].).-.",
"y.+.y.y.r.p.p.u.T r t d d s B 6.0.f.N.V.S.S.N.f.q.N.f.c.N.J. XXXD.g.g.N.D.J.H.L.rXyXyXeXK.K.I.wXwXF.v.8.q.n..XjXjXjX+X`.].].).W.",
"+.y.+.w.+.u.u.y.T e p s s s B ,.2.9.q.f.N.c.q.f.N.N.N.V.J. XoXoXD.f.7.9.9.9.7.9.b.B.G.H.F.F.K.wXeXwXwXF.m.s.M..XOX|.+X].].).).-.",
"y.+.r.o.w.w.+.+.L y B } d d d 2.2.6.q.f.f.f.0.f.g.N.N.C.Z.Z. X XZ.3.B a p s s *.*.*.6.v.m.F.wXsXdXsXyXwXH.m.7.t.k.'.'.^.^.W.@.+.",
"u.y.+.y.y.+.+.U P V 3.3.:.:.B ;.6.q.N.S.S.N.f.0.s.9.2.2.4.a.e.=.m w e w w t p p s s *.6.m.A.eXaXgXsXrXwXH.B.r.r.j.u.y.y.+.@.@.@.",
"@.@.@.@.@.+.U P m 9.g.q.2.;.,.6.q.A.XXoXqXP.c.9.2.>.| V M w 8 = % = = 8 7 9 q p p p s :.7.f.G.eXyXyXwXwXK.N.<.+.+.y.+.+.i.i.@.@.",
"@.@.@.@.@.+.T z B b.c.q.6.6.0.q.N.H.oXpXyX XA.5. .Z y 8 - = = * # # * = = = 8 8 q q p M *.,.6.s.n.F.K.wXS.4...t.y.+.+.i.@.@.@.@.",
"i.@.i.+.@.+.L y >.q.c.0.6.6.0.0.b.S.rXqXtX Xc.4.s 8 8 : = * # # # # # # # # # = = 8 9 q w w w p :.9.N.V.f.l.x.c.C.p.u.@.@.+.u.@.",
"W.+.i.i.+.+.J M ,.0.0.6.0.0.0.0.f.n.S.P.D.C.s.| 8 = * = * * # # # # # # # # # # * * = = = = 8 w d B 3.g.4.x.z.9.tXpX}.@.+.+.@.@.",
"T.-.+.i.+.+.P a ;.,.1.0.0.0.6.2.7.q.c.f.0.5.1.N 8 # * * * $ # * # # # # # # # # # # # # # = = 8 u d } 9.l.l.4.9.J.dX|.@.+.+.+.@.",
"W.W.i.i.+.T U M ;.;.;.4.0.0.6.6.2.5.9.5.5.>.V d 8 # # $ $ $ # # # # # # # # # # # # # # # * = 8 e a B 5.%.%.l.t.n.oXg.+.+.+.+.@.",
"W.i.i.-.+.R O.} d } a B 0.0.>.;.,.2.2.2.>.:.B w = # # $ - $ $ # # # # # # # # $ - $ # # # # * $ 9 u | t.E.qX,Xz.9.f.3.i.y.i.i.i.",
"i.E W.!.E K o.] i } u s 2.6.>.;.2.2.1.>.;.:.p - * # - - - - - - # # # # * $ - - - - $ $ # # * $ 8 i <.l.1X1X,Xl.3.*.,.j.i.i.i.i.",
"W.W.E E K x ..{ u s u B >.>.>.>.5.2.1.>.:.w : $ # # ; h h h g ; - # = * $ - f g g g - # # # # = : t  .:X;X,X&.l.:.*.;.3.e.E y.i.",
"E !.-.U A {  .{ u s s B ;.;.;.>.>.1.| d q = # # # # - g U.U.U.h ; # = * - f U.U.U.h ; # # # $ = 5 6 ) 5X:X#.%.s.:.:.6.6.2.e.+.+.",
"E E K I <...%. .d w B B ,.6.1.1.>.| B 0 - = $ # * # * - f g g f = * : * $ ; g g f - $ # $ $ 3 Q ! W / #X' ..c.N.9.s.n.g.3.S +.i.",
"E R S V <.X.#...} w ;.6.6.0.f.l.%.' { ' q = = $ * $ * = * : = * = : * * = - 3 - & = # = 3 ~ / / , 1 W 4 | f.N.S.N.N.N.f.3.e.+.+.",
"R L A <.o.$.X.x ....%.Y.&.x.x.#.2 + 2 ) #.5 $ $ * * * = * : * : = = * : * * = - # # & ~ ` #X@X, @ 5 0 u ;.9.N.S.J.S.N.q.<.y.@.@.",
"Y L Z Z #.#.~ 3 ~ / 2X6X;X1X>XY.) O o Q $X$.~ 8 * * = * = * * * * : = = = = # # # < 1 / 3X=X@X, @ 9 u s :.3.N.S.S.A.b.9.w.i.i.i.",
"P J C Z X.#.j 2 6 #X0X0X7X2X<X<X$X< o Q / >XY.) 6 = : = & & & % * * * : = > > O o 1 ( =X=X*X/ < % q p s B ,.6.f.N.c.s.s.u.@.i.i.",
"L G G C  .[ 6 3 5 &X0X0X9X6X2X<X:X2 . 1 ! %X-X:X) ^ 6 5 2 2 6 5 j j ^ ^ ^ ! 1 O o W *X#X( _ < @ % - p s d :.6.q.b.q.s.s.u.i.@.i.",
"L D F M N ] 4 - 2 #X7X7X7X6X2X;X$X5 . < ! Y.5X;X:X1 O O 1 Q / @X=X=X3X3X@XQ , o o ! E._ W : % % * = q s ;.;.3.f.b.q.q.s.u.W.W.W.",
"L D F l u d i & & _ ;X1X>X1X<X<X%X5 . < W Y.-X2X;X) W W / *X4X0X0X0X0X8X#X1 O o O ! ! 6 : % % % = 8 q s ,.2.0.f.N.f.q.9.r.W.W.W.",
"F F D r 0 t u 0 3 [ %.l.c.z.z.x.Y.~ O O 1 $X>X-X;X;X^ < W =X4X7X8X8X7X3X/ , o o o 5 2 # = 9 0 y B ,.7.s.s.q.0.f.c.g.9.3.e.W.!.W.",
"L D F r 9 0 w u N >.5.0.0.c.N.c.9.{ 2 . ~ ) >X<X<X;X@X@ + @ ^ =X=X*XE.Q , O O + : = % : r M V 4.s.M.Z.Z.A.n.f.N.b.0.9.9.3.W.W.!.",
"J F F z 9 0 u } :.>.5.5.f.c.c.f.9.B - # 2 ^ _ >X<X>X` @ o < 5 #.E.W j 1 5 j j e > > : 4 M | <.d.n.Z.D.J.S.A.f.f.f.9.2.2.S W.W.!.",
"L F b b 9 w d } | >.>.5.9.0.b.N.6.s 8 = - 4 6 #.>X<X$X2 . O < ) &X%XE.[ ] x j j e 4 4 r M | 5.g.Z.Z.D.J.J.A.f.f.6.5.| B V W.!.W.",
"F F D v r t B | } |  .2.2.4.9.q.0.3.;.s 9 7 e 4 X.:X>X^ . X . , &X6X5X-X$.[ ] ~ x x 6 j ' { t.g.N.c.S.J.J.N.q.0.5.1.{ a Z W.W.!.",
"L J J D k t } } N V | | | | >.6.6.0.2.;.d t e r r ] &.$.+ . X . Q 5X8X0X7X5X-X) ~ ~ ] ~ ' ~ ' ......f.N.C.c.9.9.5...{ u +.W.!.W.",
"Y F L F k t } { N N N N N N | >.6.0.9.2.*.*.k k k r m ] 6   o o O ) 6X8X0X0X7X( 1 W Q ^ ] [ [ ^ ' ' { ' { ..4.4.4.%. .u W.W.T.W.",
"L L Y F z r N B N a u u u a N } 2.6.9.6.8.*.m k k k z m z r X   o 1 <X5X7X0X9X#XO < < / @X-X-X:X$.$.[ 5 @ 5 5 ' ..&.{ Z W.W.Q.W.",
"L L L F c 0 y d a r w w t u s N ;.3.6.9.8.<.m C k k z k l z l l % o [ >X5X4X7X6X, o o O ! *X7X9X9X8X*XQ O o < 5 ' #.x S W.W.i.W.",
"P J L D b e 9 9 9 9 9 0 t u d d } 2.6.9.2.,.m C C C C z z z z z z c m X.E.>X;X2XY.O o o < Q #X4X9X0X7XY.1 O o < j ] i A E i.i.W.",
"Y F D D v z e > > 9 0 w u i d s s } 2.,.*.*.C C C C v c C C c c c c z c C ] o.$.$X~ @ + o o 1 / *X6X7X=X! , < 3 4 4 i A W.-.i.i.",
"Y G D v v v z e 9 e i d d } } } u a M s B M v C v v v v c c v c c c c c c c b C n ] i 2 O + . < ^ %X;X;XY.~ 6 5 6 ' x P E y.i.W.",
"R G G D v v v z k k k z d d | | N a u w u c b b b K J A A b A v v c c v c c c c z C { N i ' 2 @ 6 &.Y.,X:X%.' w ' { S y.y.-.W.W.",
"E Y T.D D v v v c c v 4 u a } | B d u 0 r F J J K U P L K A J b A A A v b v v c z z z N ;.2.1.{ ..l.C.z.l.%...s u N K E E y.i.W.",
"T.G T.G D D v v v v c k 0 w d d a t e e b L J J K U P P K K J A A J A F F F v z z k k k u } | 5.D.iXpXpX.XZ.q.>.<.U P P R y.i.i.",
"O.T T.G v v F F v v v c r 0 t 0 8 9 k D F L L L P U U U P K K J J b F J r.j.w.c z k k r r N } s. XqXpXpXpXoXj.e.+.P T E R i.i.W.",
"T.E R.F D v F F v v v b v l a k c D D D F L L U R U T T +.U P K J J -.Z.XXoXD.h.A z z l z G G r.D..X.X.X.Xk.U +.R E +.i.-.T.i.W.",
"W.T.R.Y L F F L G v b b b | 2.A L L L D L U R R R +.@.E +.U U K K J k. X.XXXD.n.e.A C n G c l x Z S Z Z S J U R R E E i.-.W.i.i.",
"W.W.[.W.Y L L E O.G F L A | f.a.E E E E E E -.T.y.@.E E +.T +.+.U K -.D.J.Z.f.q.e.L A K H c c v c c c v A K R U R y.y.-.u.i.i.W.",
"W.W.T.!.i.E E !.R.O.L P I <.a.r.i.i.i.i.i.^.Q.@.+.@.@.E E +.U T U L F I 3.>.:.>.I P P P L D D D b J J L T T R T u.d.k.j.-.i.i.i.",
"W.W.!.W.W.@.O.(.{.T.R Y E E i.W.i.i.i.`..XuXpX}.@.@.@.E y.R E R U L v v m s M S Y Y Y Y Y T Y Y T Y L U T U +.i.a.g.b.d.-.W.i.W.",
"W.W.@.W.@.@.W._.{._.i.T.W.-.i.W.W.i.u.'.yXuXaXuXi.@.@.@.E R R R -.R L L J J I T Y Y E E E -.E W.W.E R P U T i.+.e.3.3.r.W.W.i.i.",
"W.W.T.-.i.+.@._.{.(.!.W.i.`.OX+X`.u.a.m.XXuXuXtXk.@.+.E E E E R -.-.E R R R R -.E E E E !.E W.E E E E E i.y.+.T F J K R i.W.W.i.",
"W.E @.i.i.+.E !.(.T.W.W.p.i.`.'.W.3.7.q.g.S.J.A.s.y.@.+.+.E E E W.E E R R E E E E E E W.!.E E !.-.T.i.i.i.i.@.+.R R -.W.i.i.i.W.",
"W.W.E -.-.W.!.E W.W.W.!.W.W.W.E L M *.=.,.,.2.<.e.y.@.@.E W.E E E E E E -.E -.W.E i.i.E W.W.W.W.!.E i.i.i.W.@.@.y.i.i.i.i.i.p.W.",
"i.W.!.!.W.W.W.W.W.W.W.W.W.W.i.T L m s s M m =.S I @.T.@.i.E i.E W.!.-.T.i.i.W.W.i.E i.W.i.W.i.W.W.W.i.i.@.@.W.i.W.W.i.i.i.W.W.i.",
"W.W.T.W.W.i.W.W.W.!.!.W.W.W.W.E Y Y L L I -.E W.W.i.-.!.E W.E W.E i.E -.-.E E -.!.W.i.i.W.W.W.i.i.i.W.E i.W.i.W.i.i.i.Q.p.i.i.i.",
"!.W.W.!.W.i.T.W.W.W.W.W.!.W.W.@.W.W.W.E W.!.W.W.i.W.W.!.W.W.W.W.!.-.W.W.W.E W.!.-.i.W.W.W.W.W.W.W.W.E W.i.i.W.W.W.i.i.T.@.i.i.W."
};
