/* XPM */
static char *result[] = {
/* columns rows colors chars-per-pixel */
"64 64 248 2 ",
"   c #261D17",
".  c #3A2519",
"X  c #392A25",
"o  c #3A3B29",
"O  c #3D3C34",
"+  c #2E3227",
"@  c #090909",
"#  c #462A1D",
"$  c #5A361C",
"%  c #4C301E",
"&  c #66361B",
"*  c #763C1A",
"=  c #4B2D21",
"-  c #48382A",
";  c #543223",
":  c #583928",
">  c #493630",
",  c #593B32",
"<  c #502F20",
"1  c #643A25",
"2  c #6C3C24",
"3  c #633C2B",
"4  c #6A3D29",
"5  c #613725",
"6  c #723F24",
"7  c #633F34",
"8  c #38482B",
"9  c #38512E",
"0  c #3C4731",
"q  c #3B5432",
"w  c #3B5C33",
"e  c #365B33",
"r  c #2F482D",
"t  c #376635",
"y  c #396535",
"u  c #396A36",
"i  c #3C6439",
"p  c #3C6C39",
"a  c #3D733C",
"s  c #3F793D",
"d  c #46462B",
"f  c #55442B",
"g  c #45552F",
"h  c #464B33",
"j  c #594837",
"k  c #435C33",
"l  c #485836",
"z  c #595738",
"x  c #53502A",
"c  c #6A452A",
"v  c #7B4325",
"b  c #74432B",
"n  c #784528",
"m  c #664535",
"M  c #764A36",
"N  c #6C5536",
"B  c #7A563A",
"V  c #6D562F",
"C  c #426C3C",
"Z  c #466438",
"A  c #41763F",
"S  c #41793F",
"D  c #48733E",
"F  c #53693E",
"G  c #6B633C",
"H  c #7E421F",
"J  c #534D4F",
"K  c #684C42",
"L  c #72584E",
"P  c #496B45",
"I  c #526D4B",
"U  c #437441",
"Y  c #437D41",
"T  c #4A7A49",
"R  c #597856",
"E  c #4D784E",
"W  c #6C6D56",
"Q  c #535A62",
"!  c #576C6D",
"~  c #6C7471",
"^  c #874A2B",
"/  c #89532D",
"(  c #9C542E",
")  c #98542D",
"_  c #884D33",
"`  c #8A5337",
"'  c #945434",
"]  c #9C5A3B",
"[  c #975637",
"{  c #954E29",
"}  c #A6582D",
"|  c #A35D3C",
" . c #A55B34",
".. c #B35F31",
"X. c #836939",
"o. c #AB613C",
"O. c #A7603D",
"+. c #BA6335",
"@. c #BB6539",
"#. c #B76539",
"$. c #BC602C",
"%. c #87441E",
"&. c #C36A3B",
"*. c #CA6D3B",
"=. c #C66835",
"-. c #D46E36",
";. c #D3713C",
":. c #DB733A",
">. c #CD703E",
",. c #E2763A",
"<. c #EB7B3E",
"1. c #E4773B",
"2. c #F27E3E",
"3. c #FD7F38",
"4. c #EB732F",
"5. c #8A5B44",
"6. c #975E45",
"7. c #86685B",
"8. c #96684B",
"9. c #A56342",
"0. c #AC6542",
"q. c #A96947",
"w. c #B56A45",
"e. c #BC6C45",
"r. c #B66A46",
"t. c #BA7757",
"y. c #AE7152",
"u. c #8A7974",
"i. c #8C7367",
"p. c #B27C65",
"a. c #A25D40",
"s. c #C36E43",
"d. c #C47146",
"f. c #CB7244",
"g. c #C5744C",
"h. c #CB764B",
"j. c #CD794D",
"k. c #DE7944",
"l. c #D37A4B",
"z. c #DC7D4B",
"x. c #D57442",
"c. c #C37A56",
"v. c #D07B50",
"b. c #E37B44",
"n. c #EB7E42",
"m. c #E57E48",
"M. c #EB7F48",
"N. c #F17F41",
"B. c #42803F",
"V. c #448242",
"C. c #498546",
"Z. c #468843",
"A. c #498A46",
"S. c #4C834A",
"D. c #4C8B4A",
"F. c #51834C",
"G. c #4D914B",
"H. c #50934E",
"J. c #578856",
"K. c #589356",
"L. c #668B67",
"P. c #699769",
"I. c #71996E",
"U. c #748775",
"Y. c #769A77",
"T. c #6C8A70",
"R. c #78A575",
"E. c #5A8F69",
"W. c #FE823C",
"Q. c #F8833F",
"!. c #8E827D",
"~. c #BC8266",
"^. c #BA8A73",
"/. c #A98774",
"(. c #CA845D",
"). c #D88356",
"_. c #DC804D",
"`. c #EE8145",
"'. c #E2824F",
"]. c #F48243",
"[. c #FE8542",
"{. c #FE8A44",
"}. c #F38449",
"|. c #E78754",
" X c #FE8F52",
".X c #CF9172",
"XX c #F19A69",
"oX c #FBA678",
"OX c #EFA278",
"+X c #6C7C86",
"@X c #7A878A",
"#X c #7C919D",
"$X c #708D8D",
"%X c #7D9CAA",
"&X c #7EA593",
"*X c #99979A",
"=X c #8A8F8B",
"-X c #B0968C",
";X c #93AE93",
":X c #8FAA91",
">X c #A4B99D",
",X c #BBA99D",
"<X c #989CA1",
"1X c #96ABAF",
"2X c #A9A7A8",
"3X c #B7A7A5",
"4X c #B3B1AD",
"5X c #A7ACB5",
"6X c #B6B8B6",
"7X c #AEB6AF",
"8X c #CEAA97",
"9X c #FBBD9B",
"0X c #EDB393",
"qX c #D5BCA9",
"wX c #C5BCB7",
"eX c #C7B3A6",
"rX c #CB9A84",
"tX c #AFC7B5",
"yX c #F8D2BB",
"uX c #EFC5AC",
"iX c #CCC2B9",
"pX c #ADB9CC",
"aX c #9EBAC2",
"sX c #B6C4C6",
"dX c #BBC7D7",
"fX c #B2CAD1",
"gX c #C6C6C6",
"hX c #D6D2CB",
"jX c #C6CBD9",
"kX c #C8D6DA",
"lX c #D8D9D7",
"zX c #D1CFCA",
"xX c #E2DDDA",
"cX c #EFD8C8",
"vX c #E6E5DB",
"bX c #F8E6D8",
"nX c #D5D8E5",
"mX c #D8E2E4",
"MX c #E7E8E8",
"NX c #F5EEE5",
"BX c #FAF5EB",
"VX c #FDFAEE",
"CX c #F6F3E9",
"ZX c #FDFCF3",
"AX c #FEFEFD",
"SX c #F5F6F4",
"DX c #EEF1F6",
"FX c #DEE7D5",
/* pixels */
"V.V.V.V.B.Y Y B.B.B.Y Y B.Y Y Y Y Y Y s Y s A A A U a U Y A A A Y Y Y Y Y s Y Y Y Y V.V.V.V.V.V.V.V.Z.Z.Z.Z.Z.Z.V.Z.Z.B.Z.B.Z.Z.",
"V.Z.V.Y B.B.B.B.V.V.Y Y Y Y Y Y Y Y Y Y U A A A A A A A A A Y Y Y Y Y Y Y A V.C.V.Y V.V.Z.V.V.V.V.V.V.Z.Z.Z.Z.Z.Z.V.V.Z.V.Z.B.Z.",
"Z.A.V.S Y B.Y Y V.Y Y Y U U Y Y Y Y Y U A A Y Y A U A A A A Y Y Y Y Y Y A A V.S.V.V.V.V.A.G.D.V.V.V.V.Z.Z.Z.Z.Z.Z.B.Z.Z.V.V.Z.V.",
"V.Z.V.V.Y Y Y B.Y V.Y A l l s Y Y Y Y A A A Y T A A A A Y A A A Y A A A A Y Y C.V.V.B.C.E.R.I.C.B.V.Z.Z.Z.Z.Z.Z.V.Z.Z.B.V.V.B.V.",
"V.V.V.B.Y Y V.B.Y Y A z 3 f C Y Y V.Y A a A U Y A A A Y A A A Y Y Y Y A Y Y Y V.V.B.V.C.D.J.F.V.V.V.V.Z.A.Z.Z.V.Z.Z.Z.V.V.V.V.B.",
"V.V.Y Y Y B.Y Y Y Y l 1 6 : k Y Y T A A A A A Y A A A Y A Y Y Y s Y A Y Y A A Y B.Y V.B.V.V.Y Y V.V.V.V.Z.Z.Z.Z.V.Z.G.A.Z.C.C.V.",
"V.B.B.S Y U Y V.Y C j 6 2 : 0 U Y Y A A A A A A A Y A A Y A A A A A Y A Y A A Y B.Y Y S Y Y Y Y B.Y B.V.V.Z.Z.V.Z.Z.G.Z.A.C.V.V.",
"Y B.S Y A Y D.C.U z b 6 & ; O p Y A A A U a A A A A A A A A A A A s A A A Y A Y Y S B.Y Y U Y C.Y Y s V.V.Z.Z.V.Z.Z.G.C.A.A.V.V.",
"B.Y Y Y S D H.D.F 4 6 2 5 ; - k B.S S S a A A a A s A A A a l h i k k Z u A S S S S S S U S Y Y C.Y S T B.B.Z.Z.Z.A.G.Z.A.A.V.V.",
"V.Y S S D V.K.T j 4 2 2 5 < = d k A S S A S A a a A A A w d - ; ; ; & $ x Z S a S S S S A A s Y C.C.S Y S S S B.Z.D.G.A.A.A.Z.B.",
"S S Y Y D C.K.F b 6 1 : ; = ; 3 $ k S S A s D a A A u d ; & 2 * n b b v * C S A S s S A S s A S T D.V.Y V.D S B.Z.G.D.D.D.C.V.V.",
"S V.S Y Y S.F.x b 4 1 ; < = = 3 ^ n Z S s A s U A w o $ * * b M W u.-X8.c C S A s S A s s A A A S A.D.V.C.S S S C.G.D.D.A.S.V.V.",
"V.V.C.A.F.F.F : 2 6 2 5 : = # 5 ( =./ g C A A u 9 # & * v 5.u.*XpXgXnX-X3 Z A S A A s s A a U a S V.G.A.A.T F.J.J.D.D.D.A.C.V.V.",
"S S V.S.T E z b 6 6 ^ ' ' ^ 6 6 o.Q.<.( x y Z 8 # & * %.y.<XpXdXjXnXDX3X: i S A S A D s A A s A S T D.H.J.L.Y.&XR.P.F.C.D.D.V.Y ",
"S Y U U P E j { { ^ {  .@.+.@.@.;.Q.Q.Q.=.c o # & %.) p.5XpXdXjXnXMXDX3Xf y S A s A A A A s A A D D C.K.L.U.Y.=X:X:XP.D.G.D.C.Y ",
"U D A P P l 7 ( ( } +.=.*.;.b.N.Q.Q.Q.W.W.=.* * { } t.3XpXpXjXnXDXDXSX2Xd y A S A A S A A A A s a D T J.R R L.T.U.L.E.K.D.C.V.Y ",
"U C D C P k c ) +.:.n.N.N.M.N.{.[.[.[.[.[.N.=.$.$.=..XpXdXjXjXMXCXSXAX-X0 p A A Y A A A A A A A P C T E I I I I R J.J.S.V.V.Y Y ",
"Y U P U C d 2 } b.}.N.[.[.[.[.[.[.[.[.[.[.[.N.1.:.=.p.6XjXdXgXnXDXAXAX=XO p Y s A A A A Y Y A a a U T S.E I P P E E U U Y Y Y V.",
"Y Y A S a - ^ =.}.[.].].N.[.[.[.[.[.[.[.[.{.[.[.].-.@.t.p..XrXzXDXAXxXL r A A A A A A Y V.Y A A s U Y Y Y E T U U U U Y Y Y V.Y ",
"Y Y S S y : } x.M.[.].[.[.[.[.[.[.[.[.N.[.[.[.[.[.<.,.=.+.0.^.eXxXSX*XJ e A A A A A a A T A a U s s s U Y A U U A A S Y Y V.Y Y ",
"S S S S d v @.b.`.}.].[.[.[.[.[.[.[.[.[.[.[.[.[.[.[.].<.&.a.i.p.wXgXu.> i A A A A U a U A A A s U a A A A A U s S S D Y Y Y Y Y ",
"B.B.S a f } >.`.`.}.].[.[.[.[.[.[.[.[.[.[.[.[.[.[.[.[.{.k.0.a.-X5X=XL - p A A A A a U C D A a U a A S S S S s Y S U S Y Y Y A U ",
"B.B.S Z 1 +.b.'.n.`.].[.[.[.[.[.[.[.[.[.[.[.[.[.[.].].].}.l.~.2X2X7.5 8 A s A A A p U p s C Z Z C D A S s Y U Y U S Y A Y A A S ",
"V.S s k b *.'.`.`.}.[.[.[.[.[.[.[.[.[.[.[.[.[.[.].2.<.<.n.M.).rXp.B = w U s U A A A A P K N B B B G G T S s Y U Y S A A A S Y D ",
"V.S S g / k.}.`.n.`.].[.[.[.[.[.[.[.[.[.[.[.[.[.Q.Q.1.:.k.l.j.c.5.4 o u s U s U A A F 5.e.j.j.)._.).~./.L.E S s Y S S S A T S S ",
"B.S A x #.`.n.n.n.n.].{.[.[.[.[.[.[.[.[.[.[.[.[.].Q.<.:.;.d.e.w.^ ; 9 s A s A A A D q._.'.'.|.|.|.XXOX0XqX>XI.C.S S S S S V.V.S ",
"S S Z / :.:.{ / :.n.N.[.[.[.[.[.[.[.[.[.[.[.[.Q.Q.Q.Q.:.*.&.0.] b - u A S S A S U 8.z.'._._._.).)..X0XuXyXbXvX>XJ.D S S S S S S ",
"B.S x +.].}     ( 2.2.Q.W.[.[.[.[.[.[.[.[.{.[.Q.[.].Q.1.*.#. .[ 1 0 s A S A U a G y.z.m._.l.l.v.)..X.X0XyXbXVXCXtXJ.S S D S S S ",
"Y A ^ :.].) .   { :.1.2.W.3.[.[.[.W.{.[.{.Q.Q.Q.[.[.Q.<.:.@.] { ; k S S D D A Z N e.l.z.h.h.j.c.(..X.X8XyXCXVXZXCX>XF.S S S S S ",
"S Z @.Q.Q.=.6 c +.l.(.XXoX X[.[.[.[.W.{.Q.( n o.Q.[.Q.].x.s. .' : V X.X.` B V f 3 [ s.h.c.c.c.c.(.(..XuXbXCXVXVXZXvX>XJ.T S S S ",
"S ~ 9X X:.:.:.(..X3XzXMXVXbXuX XW.W.[.{.#.%   % =.{.[.].k.&.O.[ 1 n &.>.=.$.$.} ^ 4 _ 0.e.c.c.c.~.(.-XqXxXvXvXNXVXBXFX7XI.C.S S ",
"F.sXZXyX0X0XqX6X6XsXgX*X=XzXZXNX9X XW.{.) .   #  .].[.}.b.f.o.| : b *.k.<.<.,.-.=.{ 4 M q.t.t.c.t.~.^.eXiXgXzXzXvXZXBXzX;XL.B.S ",
"V.fXAXAXAXSXmXlXlXxXpXO @ ~ MXAXAXbXoXW.-.n . 1 x.[.N.n.m.f.0.| ; 1 @.b.N.[.[.N.2.:.} 3 m q.t.c.t.p..X-X,X6X6X4XwXxXBXCX>XA.V.S ",
"V.%XmXAXAXAXAXAXDXSXNX2X<XMXAXAXAXAXZX9X[.4.-.1.].[.[.M.z.f.#.[ < ;  .k.M.[.[.[.[.[.1.( , M 9.q.t.p.p.-X-X2X2X*X*X4XlXBXvXI.Y B.",
"B.E.fXDXAXAXAXAXAXSXAXAXAXAXAXAXAXAXAXAXcXoX[.3.3.3.n.:.f.d.a.5.: . ^ s.b.N.}.[.{.[.2.*.n , M 6.8.y.i.i.u.!.=X=X=X=X3XhXBXtXC.V.",
"Y V.T.sXAXAXAXAXAXAXAXAXAXAXAXAXAXAXAXAXAXBXyX9XoXOXXXrX8X8X-X-X!.K < [ s.x.m.N.].].n.>.' , 7 5.5.8.i.i.i.~ ~ U.U.=X=X4XFXFXP.V.",
"Y Y V.$XfXSXAXAXAXAXAXAXAXAXZXZXZXZXAXAXAXAXAXZXBXNXBXbXhXpX3X4X4X*XJ 7 ] s.x.m.M.m.b.f.' 3 , K L 7.7.i.~ R S.S.F.F.L.=X6XhXR.Z.",
"Y Y s s $XfXAXAXAXAXAXZXZXZXZXZXZXZXZXZXZXAXAXAXAXAXSXlX6X5X2X5X2X<X! K | e.l.l.m.b.l.d.[ 7 , m K L W W F.B.B.V.Y B.B.F.I.>XR.Z.",
"Y Y s s E $XlXAXAXAXZXZXVXVXZXVXZXVXZXZXZXAXZXAXAXCXzX4X<X*X@X+X+X! L 8.0.d.l.l.l.l.l.e.` , > , , K I Y B.V.V.S V.Y B.B.S H.K.Z.",
"s Y s s A T $XkXAXAXZXZXZXVXVXVXVXVXZXZXZXZXZXZXNXzX4X<X@X+X+XQ Q J 5.0.e.g.h.h.l.l.l.e._ > 0 h P Z S B.B.V.V.V.B.B.B.S V.V.B.Z.",
"Y Y A A A A E $XpXDXAXZXZXZXVXVXZXVXZXZXZXVXCXxXgX2X@X+XQ J J L L L 6.r.g.g.v.g.h.h.j.e.M k T U Y Y B.V.V.V.V.V.V.B.B.Y B.V.V.V.",
"Y Y Y Y A Y A Y E.=XsXlXNXBXBXVXZXVXVXVXNXvXgX<X+X~ Q 7 K 6 5.' ' a.r.g.g.g.g.e.e.f.h.w.z Y Z.Y Y Y B.V.V.V.V.B.B.Y V.B.V.C.B.V.",
"Y Y V.Y A Y A A U E ! $X1X7X7XpXzXzXgX6X5X<X$X! Q J 7 6 _ ' ] a.0.r.g.c.h.h.e.9.w.d.l.q.l D.C.Y Y Y V.Z.C.V.V.B.V.Z.V.B.V.V.V.V.",
"Y V.V.Y Y A A s Y Y V.T.#X$X@X#X$X#X#X%X$XQ J K 7 _ ' ' a.a.a.0.r.g.h.h.h.e.6.[ w.g.l.q.k A.D.V.B.B.V.A.V.V.V.B.B.C.A.B.Y V.Y V.",
"Y Y T Y A Y A A s U S K.1XaXaX1X%X%X1X1Xu.5.` [  .[ ] a.9.0.0.e.h.h.h.h.d.a.` ] e.h.v.9.l D.H.C.B.V.A.V.V.Z.V.B.Z.D.V.C.C.T V.V.",
"Y Y V.Y A Y Y A U Y S T &XaXfXmXkXkXkXeXy.o.#.0.| | 0.r.r.r.e.f.h.v.f.e.] _ ` 9.g.l.v.9.h C.H.D.V.Z.D.Z.V.V.B.Z.Z.C.V.V.Y V.Y V.",
"Y Y Y A U A A A A A A A K.:XsXAXDXDXMX.X*.*.&.e.e.s.s.s.e.0.e.f.h.s.| M , m ] e.h.h.g.` 0 C.H.D.V.G.D.V.B.V.V.Z.Z.V.V.V.Y C.V.V.",
"V.Y Y A Y A Y A A Y A Y Y R ,XSXAXAXvX0X).>.*.f.f.x.f.s.e.o.o.| ' 7 > X 0 g ` g.e.0.9.M 0 U H.D.Z.H.D.V.B.V.Z.V.D.C.V.Y V.Y V.Y ",
"Y V.B.s A A s U s U A A a z .XzXMXBXBXcX.X1.,.k.b.k.;.f. .M m f = X + + t t h ' | | a.M h i Y D.C.H.C.A F.E.K.G.G.D.V.V.V.V.V.S ",
"V.Y V.Y Y Y Y A A Y A A i N l..XqXBXAXhX(.4.Q.].<.n.b.>./ g y r + X o t t t e , _ | ` 4 > w Y C.V.Y a U U.;X7X;XP.C.S B.V.T V.V.",
"V.B.V.s Y s Y T A A A Y y M >.w.y.wXAXwX8.:.W.].n.<.b.@.V y t t r r e t y y t 9 : n 6 4 > e U U A A a i ! R U.U.T.T S B.V.V.V.V.",
"Z.V.V.V.Y s Y Y Y A A U g n +. ._ W :XU.6.:.Q.1.<.k.x.O.z t t t e t t t t y y w - 1 1 : - q a p a a U i i P P P A A S S S V.C.D ",
"B.Z.V.s Y Y Y S.Y S A A d v ( / 4 h P C V =.;.-.=.@.#._ l y t t t t t t t t p y - < ; ; X e i i p p a u t t p p u p A A S S C.V.",
"B.B.V.V.Y Y Y Y D y y q f v ^ b , q u u f ' ..} ( ' _ m k y y y t t t t y t t t 8 - # # o e i p p p u t u p u p p a A S S V.C.S ",
"V.V.B.s Y s s A u p y d 6 6 : : - Z u y x 6 { ^ v n 4 f w y y y t t t u u t t u t 9 r 8 e t t p p u a a a a a a A A S S D V.V.S ",
"V.s s Z.Y a a a u u w f n 3 : , o Z u k f 2 6 n n 4 , - y y y y t p t u t y t t u u u u u u a p a a s s B.s a A A S V.S V.S V.C.",
"V.V.S B.s a p a a u e d 1 : , > 8 u u g : & 6 6 4 1 > d t u t t t U t t t t t t t t u p s s B.B.S S V.S B.D B.S B.S S V.V.C.Z.V.",
"V.V.Y Y S a a p a a u e 8 o 0 q t a u h : 1 1 1 3 , > O t t t t p p p t t p t p p p s s s B.B.B.V.B.V.S S S V.T B.B.V.V.V.D V.S ",
"B.B.Y S s a p s a a a u y C R E.S u u q > > : > , > > 0 t u u u p p p t p p p a a a s B.B.B.B.Z.V.B.S V.B.T V.C.S V.V.C.S C.V.V.",
"Z.B.Y Y Y s s a s s s a i i P U s u u u e 0 O O O > O e t u u u p p p p p p a a a S B.V.B.Z.Z.B.B.B.B.S B.B.S V.V.S V.D C.S C.Y ",
"B.Y Y Y B.S B.B.B.B.s s S a a a a u u u u u u t e e e u u a a a a a a a a a A Y S Y B.V.V.V.V.V.S S B.V.V.V.S S V.V.V.B.V.V.S V.",
"B.B.B.B.B.B.B.Y B.V.V.B.B.S S s s s a a a a a a a a a s Y B.B.Y Y Y A a Y A Y Y S B.S Y V.V.V.V.V.B.V.S S V.V.V.S S V.T S C.V.V.",
"V.B.Z.B.V.B.B.V.V.V.V.Z.V.B.S s s B.s s s s s s V.B.S S B.B.B.Y Y Y Y A A Y Y Y S Y B.V.Y V.V.V.B.Y S B.V.S S V.V.V.V.V.D V.D C.",
"V.C.B.Z.Z.B.V.B.V.Z.Z.V.Z.Z.V.S B.V.V.B.V.V.V.B.V.V.V.V.B.B.Y Y Y Y Y Y Y Y Y A B.V.s V.V.V.V.V.V.S B.V.S V.C.V.S C.V.V.C.V.V.V."
};
