/* XPM */
static char *result[] = {
/* columns rows colors chars-per-pixel */
"64 64 244 2 ",
"   c #181613",
".  c #281E16",
"X  c #3C281A",
"o  c #3E391F",
"O  c #382B25",
"+  c #3B3928",
"@  c #3C3D32",
"#  c #2E3428",
"$  c #482D1E",
"%  c #5A361B",
"&  c #4D2F1E",
"*  c #65361A",
"=  c #753B1B",
"-  c #492C21",
";  c #4A3729",
":  c #5C3524",
">  c #543B2C",
",  c #5B3A2C",
"<  c #573626",
"1  c #4C382E",
"2  c #663A25",
"3  c #6C3C24",
"4  c #633C2B",
"5  c #6A3D29",
"6  c #613725",
"7  c #723F24",
"8  c #39482B",
"9  c #3B562D",
"0  c #3B4831",
"q  c #3C5532",
"w  c #3B5C32",
"e  c #355932",
"r  c #2F4A2E",
"t  c #376635",
"y  c #396535",
"u  c #396B36",
"i  c #3C6539",
"p  c #3B6C39",
"a  c #3E733C",
"s  c #3F793D",
"d  c #44462B",
"f  c #574729",
"g  c #46562E",
"h  c #4B4934",
"j  c #584A34",
"k  c #475933",
"l  c #575737",
"z  c #69442A",
"x  c #744126",
"c  c #7B4425",
"v  c #74442B",
"b  c #784729",
"n  c #684833",
"m  c #734533",
"M  c #7B4A35",
"N  c #765538",
"B  c #6B532F",
"V  c #436C3D",
"C  c #486638",
"Z  c #41763F",
"A  c #41793F",
"S  c #4C723D",
"D  c #55683B",
"F  c #75653A",
"G  c #7E401D",
"H  c #585558",
"J  c #524A4A",
"K  c #6A544C",
"L  c #476C44",
"P  c #516B49",
"I  c #437441",
"U  c #437D41",
"Y  c #4A7A47",
"T  c #51794C",
"R  c #497B51",
"E  c #587655",
"W  c #6C7050",
"Q  c #545D66",
"!  c #586E6D",
"~  c #687472",
"^  c #8B4C2A",
"/  c #85482A",
"(  c #904D2B",
")  c #97532D",
"_  c #854D35",
"`  c #8C533B",
"'  c #875335",
"]  c #945234",
"[  c #9B5534",
"{  c #93563C",
"}  c #95583D",
"|  c #9C5A3A",
" . c #85532D",
".. c #A5592E",
"X. c #A8582E",
"o. c #A65B34",
"O. c #A45E3C",
"+. c #A95E37",
"@. c #B25F34",
"#. c #B15D2F",
"$. c #BA612F",
"%. c #AC623B",
"&. c #A5633E",
"*. c #BA6335",
"=. c #B8653A",
"-. c #816838",
";. c #C46B3B",
":. c #CB6D3A",
">. c #C86935",
",. c #D66D34",
"<. c #DC743C",
"1. c #D5713B",
"2. c #D4682C",
"3. c #E7783C",
"4. c #F27E3F",
"5. c #FB7931",
"6. c #E56D29",
"7. c #885B45",
"8. c #995D42",
"9. c #9B6546",
"0. c #8D6F5A",
"q. c #A46141",
"w. c #AB6443",
"e. c #AE6B4A",
"r. c #B56A45",
"t. c #BB6C44",
"y. c #B36A48",
"u. c #BD7149",
"i. c #BA7756",
"p. c #A37153",
"a. c #8B7670",
"s. c #AA7965",
"d. c #A05D40",
"f. c #C26E43",
"g. c #C47146",
"h. c #CD7243",
"j. c #C4734B",
"k. c #CB764B",
"l. c #CD794C",
"z. c #D3794B",
"x. c #DB7C4A",
"c. c #D77644",
"v. c #C87C55",
"b. c #D27D51",
"n. c #E37B43",
"m. c #EC7E42",
"M. c #E27E48",
"N. c #F27F41",
"B. c #42803F",
"V. c #448242",
"C. c #498546",
"Z. c #468843",
"A. c #498A46",
"S. c #4C844A",
"D. c #4C8C4A",
"F. c #458148",
"G. c #51854C",
"H. c #4D914B",
"J. c #50934E",
"K. c #588757",
"L. c #589456",
"P. c #678C6A",
"I. c #778974",
"U. c #779878",
"Y. c #69906F",
"T. c #66926E",
"R. c #FE833E",
"E. c #F5813E",
"W. c #918479",
"Q. c #BA8367",
"!. c #AA8C77",
"~. c #93926A",
"^. c #D7875A",
"/. c #C48453",
"(. c #ED8046",
"). c #EC824A",
"_. c #E68049",
"`. c #F58243",
"'. c #FE8542",
"]. c #FF8A44",
"[. c #FA894B",
"{. c #F48D56",
"}. c #D5997A",
"|. c #C88C6D",
" X c #F19767",
".X c #F5A477",
"XX c #DFA07D",
"oX c #6C7A84",
"OX c #768486",
"+X c #7D929C",
"@X c #748D8D",
"#X c #7E99A5",
"$X c #7DA594",
"%X c #839A89",
"&X c #878E93",
"*X c #948E8C",
"=X c #A69C97",
"-X c #AE9790",
";X c #8EA395",
":X c #93A897",
">X c #87A689",
",X c #8E9DA4",
"<X c #9BA3A6",
"1X c #94AFB4",
"2X c #A7A8AB",
"3X c #B8B9B7",
"4X c #ABB1AF",
"5X c #B6A1A0",
"6X c #D0AC94",
"7X c #FBAE83",
"8X c #F1B695",
"9X c #C3BAB8",
"0X c #C9B6AD",
"qX c #E3BEA6",
"wX c #C89986",
"eX c #B8C1BC",
"rX c #CDC9B9",
"tX c #F8CAAF",
"yX c #A8BBC7",
"uX c #B3B9CD",
"iX c #C3BDC4",
"pX c #B7C3C4",
"aX c #B7C9D5",
"sX c #C6C7C6",
"dX c #C2CADB",
"fX c #C7D5DB",
"gX c #D9DAD8",
"hX c #D2D2CB",
"jX c #F1DACA",
"kX c #DEE2DA",
"lX c #FAE9DC",
"zX c #E6E1D7",
"xX c #D2D8E4",
"cX c #DAE4EA",
"vX c #EBECEC",
"bX c #E9E7E4",
"nX c #F7EEE4",
"mX c #FDF4EB",
"MX c #FDFAEE",
"NX c #F6F3E9",
"BX c #F4F4F4",
"VX c #FDFCF3",
"CX c #FEFEFD",
"ZX c #F6F9F8",
/* pixels */
"V.V.V.V.B.B.B.B.U B.U U U U A U U U U U U U Z a I a I a U Z I Z U U Z U U U U U B.B.U V.V.V.V.V.V.Z.V.Z.Z.Z.Z.Z.Z.B.Z.Z.B.Z.Z.Z.",
"V.Z.V.U B.B.B.U U V.B.U B.U B.U U U U s Z a U a a I a I I Z B.U A U U U U Z U F.U V.V.V.V.V.V.B.V.V.B.Z.Z.Z.Z.Z.Z.Z.Z.B.Z.B.Z.B.",
"Z.A.V.A B.B.U V.V.B.U U I L Z U U U s I Z Z F.F.Z Z I Z U Z U B.U U U U I U F.C.U V.V.F.D.J.J.V.V.B.Z.Z.Z.Z.Z.Z.B.B.Z.Z.V.V.V.V.",
"F.Z.V.V.V.A U A U U U U k k I B.U U U I I a Z Y I Z Z Z a Z Z Z U Z Z A A U U C.V.V.V.Z.L.U.U.Z.B.V.Z.Z.Z.Z.Z.Z.Z.Z.Z.B.V.V.V.V.",
"V.V.V.B.B.A U U U U A l z f C U U U F.Z a a I F.F.a a Z Z s Z U A U U Z A U A U V.V.V.Z.G.L.G.V.V.V.Z.Z.Z.Z.Z.V.Z.Z.Z.V.V.V.F.V.",
"V.V.B.U B.U V.U U U k 4 3 : k U s F.Z a I Z a Z Z Z F.s Z U U U U U Z U U A U U U V.V.s V.U U U V.V.V.V.Z.Z.Z.Z.V.Z.H.A.Z.Z.V.V.",
"V.V.s U Z I F.V.V.V j 3 3 < 0 L Z U Z Z Z Z Z Z Z F.Z Z U Z F.Z Z Z U Z A Z Z B.A V.U A U A U U U U U B.F.Z.Z.Z.Z.Z.H.Z.A.C.V.V.",
"B.A U U I U A.C.I l 5 7 3 < + i F.F.Z Z Z Z Z Z Z Z Z a a Z a Z A Z Z Z U Z Z U U U U A A U U V.B.U U F.B.Z.V.F.Z.A.H.Z.A.C.V.V.",
"V.V.U A A V.H.D.P z 7 3 6 < ; k V.s A a I a U a Z a Z Z A p k h q g k k C a s s Z B.A Z Z A A V.C.A Y U U V.Z.V.V.A.H.Z.A.Z.V.V.",
"A A V.A Z V.L.G.j 5 3 2 6 & ; ; g Z U A Z I a a Z s Z Z w 8 ; : % * % * f C s s Z Z A A A Z A A C.C.Z U U A V.A Z.H.H.A.H.Z.V.V.",
"A V.A A I Y L.D n 7 3 : < - - , % g A s A Z Z Z Z Z V 8 ; * * = = x b c z k A a A s A Z A Z A A Y H.C.U U A A V.V.J.D.D.D.V.V.V.",
"B.A A A Y S.G.j z 7 6 : & - - 2 / b C s Z Z Z Z Z 9 ; % * = c 7.0.W.*Xs.b k Z Z s A Z Z A Z a Z A A.D.U C.A A A C.J.D.A.D.C.C.V.",
"A V.C.D.S.G.D j 3 7 3 2 6 & - 6 ) >.) g p A s p 9 $ % = G 7.a.&X1XuXcX0Xn q Z Z A A A a A Z Z Z A C.H.G.Z.F.G.G.L.J.D.D.C.C.V.V.",
"B.A V.S.Y G.k v c 7 / ] ] / 7 7 %.(.E...f g u 9 $ % G / 0.<X2XuXdXcXZX9Xn 9 Z A A a Z Z Z s a Z Z U D.J.K.P.U.$XU.P.G.D.D.D.C.A ",
"U I Z I L P j / ( / ( o.@.@.;.*.1.E.R.E.>.b $ X * / ) p.2XuXdXdXxXbXZXiXK 9 A Z Z Z Z a Z Z Z Z Z A C.L.Y.U.$X~.>X>XP.H.H.D.V.A ",
"Z Z S L L k n ) X.X.@.:.1.c.n.N.(.E.].R.R.>.= = ..#.v.5XuXuXiXxXbXvXCX9Xl e A A Z A A Z Z s s Z V S S.E E E E I.I.;XU.J.D.C.C.V.",
"I L L V I k 2 ) *.<.N.`.m.m.`.'.'.'.'.'.'.N.,.$.>.>.|.uXdXdXdXcXvXBXCX9XJ t Z Z A Z Z Z Z Z Z Z p L Y T P P P E I.3X>XC.C.U V.U ",
"A Z S I L 9 6 X.c.`.'.`.'.'.'.'.'.'.'.'.'.'.N.3.,.:.i.2XiXiXiXzXvXCXCX5X@ p Z Z Z Z Z A A A A Z A I Y S.T Y T I.eXgX;XI U V.V.U ",
"A U A A Z d c >.`.[.`.`.'.'.'.'.'.'.'.'.'.'.'.'.N.1.*.i.s.Q.wX0XvXCXbXa.r u Z Z Z Z Z Z V.U Z Z I U U U K.T.>XrXvXkX:XU U V.U U ",
"A U A A w < [ c.).`.`.`.'.'.'.'.'.'.'.'.'.'.'.'.'.N.3.,.*.%.Q.5XgXBX3XK r p Z Z Z Z S I U U Z S A Y K.U.4XhXNXVXVXkX:XU U U U V.",
"A A A A g c *.n.(.`.`.'.R.].'.'.'.'.'.'.'.'.'.'.'.[.'.3.:.q.9.s.0XiX*X1 e a Z Z Z I I a A A Z S K.~.eXNXMXMXVXVXVXzX;XI U A A A ",
"B.B.B.p f ) c.n.).`.`.'.'.'.'.'.'.'.'.R.'.'.'.'.'.'.'.'.M.u.8.!.2X=XK @ i Z Z Z Z a a L A S T K.!.tXlXMXmXMXMXVXNXhX@XU U Y A A ",
"B.V.A k z =.x.m.(.(.`.'.'.'.'.'.'.'.'.'.'.'.'.'.'.N.N.N.`.x.j.5X2Xa.m 8 a Z I Z a a I a S S ~.^..X7XtXtXlXMXMXMXvX4XY.U A A Z A ",
"V.A A 9 z ;._._.(.`.`.'.'.'.'.'.'.R.].'.'.'.'.'.N.N.m.3.m.).^.wXQ.7.& q a s Z Z Z I I I W /.`.[.{. XXX8XtXMXMXMXgX:XE Z A A S A ",
"V.B.U g  .<.).(.(.`.`.`.'.'.'.'.'.'.'.].'.'.'.'.E.E.3.<.c.c.b.b.q.7 o y Z a I Z A Z Z W ^.[.`.).).). XXXrXjXMXlXrX&XR A Z U U A ",
"A A A f =.3.n.3.n.m.`.'.'.'.'.'.'.'.'.'.'.'.'.'.`.E.4.<.1.f.t.y.` 6 r a Z Z s I a A P l.{.(.(._._.x.^.|.}.tXjXrX=XI.Y A A U V.A ",
"B.s C  .x.1.) ^ >.m.E.`.].'.'.'.'.R.'.'.'.'.'.'.`.E.4.3.1.;.w.O./ ; e a A Z A Z s S p.).).(._._.b.b.b.v./.}.qXwX*XI.A A Z U U A ",
"B.s f =.`.o..   ^ 3.4.R.R.R.'.'.'.'.'.'.R.].].].'.R.4.3.1.*.+.o.5 d a A A A Z Z a F j.x./.c.z.h.v.j.i.i.i.|.}.|.!.E A A Y A A A ",
"B.Z  .<.`.[ X . / <.3.3.'.R.R.R.'.'.].R.].E.3.(.'.'.`.N.<.;.+.] : g A S S S Z V D &.z.j.u.j.j.j.u.e.e.e.e.i.i.Q.0.Y A A Z A A A ",
"U k u.'.E.>.c v *.z.^..X.X X].R.R.'.R.].E.[ 3 ..4.].'.N.c.;.+.] : B F -.'  .B f m =.g.t.y.y.y.w.w.q.8.8.8.9.9.7.W A A Z Z A Z A ",
"U I.8X{.3.3.^.^.}.4XsXbXMXlXtX.X].R.R.].*.$   & $.].].`.n.h.+.O.2 b =.h.>.>.>.X.( 7 _ 8.8.8.{ 8.8.8.8.8.{ { { N S B.A V.A V.A A ",
"R pXZXjX7X8X0X3X4XpXsX*X&X3XCXmXtX{.R.E...X . o ) ].].(.n.h.r.O.: 5 =.c.E.4.3.,.>.X.7 4 7 8.` ` { { ` ` ` ' N D A B.A V.A A A A ",
"D.yXZXZXCXBXvXgXgXcXiXJ   ~ kXCXCXlX7XR.6.c X 2 :.[.N.N.M.z.r.%.: 6 o.c.N.N.[.N.N.3.@.7 6 M 8.8.` _ 7._ M m l U A U U U U U U U ",
"F.#XcXZXCXCXCXZXvXBXbX4X<XgXCXCXCXCXmXtX[.6.2.3.N.[.N.M.x.c.=.o.& - ] c.m.N.'.[.'.'.4.@.5 < 5 7._ _ M 5 n C U U B.U U U U U U B.",
"Z.T.yXBXCXCXCXCXCXBXCXBXBXCXCXCXCXCXCXVXjX7X[.R.5.5.5.,.h.f.f.8.4 $ 7 ;.n.N.N.N.N.'.N.c.] : 4 5 m m 4 , C U B.B.U U U U B.B.U B.",
"s F.T.pXBXCXCXCXCXCXCXCXCXCXCXCXCXCXCXCXVXmXtX8X7X.XwX7X6X6X-X*X*XJ - / =.h.n.[.[.N.N.c.o.5 < , , > l L B.B.F.V.U s U B.F.B.Z.Z.",
"s B.F.T.pXBXCXCXCXCXCXCXZXCXVXVXVXCXVXCXCXCXCXmXnXnXlXlXhX9X3X2XuX=XQ , { f.c.n.m.M.M.c.+.z > j k C I B.U U U B.F.B.B.F.Z.B.Z.Z.",
"B.s s R T.aXZXCXCXCXCXVXVXVXVXVXVXVXVXVXCXCXCXCXCXCXBXgXiX2X2X2X2X,XoXK { t.h.z.M.x.x.z.O.B l S I U U B.B.B.B.V.B.B.B.B.B.Z.B.Z.",
"U s s s R @XdXCXCXCXVXVXVXMXMXVXMXVXMXBXVXCXVXCXVXNXhX9X2X<X&XoXoX~ H 8.q.j.k.z.x.x.x.k.| B S I U A A U B.V.V.B.B.B.B.B.B.Z.Z.B.",
"U F.Z s I U @XfXZXCXCXVXVXMXMXVXMXMXVXVXVXVXVXVXnXhX3X<X&XoXoX! Q H 7.q.y.j.k.z.h.z.z.g.} l U U U U U B.B.F.V.V.B.s U B.U B.F.Z.",
"U U s Z s Z R @XpXcXCXCXVXVXVXVXVXVXVXVXVXVXNXzXiX<X&X~ Q H H K J K 8.y.j.j.v.k.g.k.z.g.` k C.U U U B.V.V.V.V.V.F.B.B.B.F.Z.Z.B.",
"s U U s Z U s Z ! +XeXgXbXNXNXNXMXVXMXNXnXkXsX<X+X~ H J m _ _ ` 8.O.e.u.j.v.k.t.t.g.z.j.N V C.U A B.B.V.V.V.B.B.B.B.B.B.B.B.B.F.",
"F.s F.s Z a Z s I R R OX<X1X3XsXsXhXsXeX2X,X@X! H J 5 m M ] { | O.r.j.j.j.k.f.w.w.g.k.j.P I C.U U U V.V.V.Z.V.V.B.B.Z.B.V.V.B.F.",
"s F.F.F.Z F.Z Z Z Z Y P.;X+X@X+X+X+X+X#XoX! J K m _ _ ` 8.d.d.q.y.j.v.j.k.g.q.{ w.g.z.y.l V.D.V.V.B.Z.Z.V.V.V.V.F.Z.Z.F.V.V.V.B.",
"U U Y U U Z Z U Z A A K.1X1X1X1X,X#X1X<XW.7.7.] [ [ 8.d.q.w.w.t.j.k.k.z.j.O.` { r.g.z.u.l Y H.C.B.F.D.V.V.V.V.V.V.A.C.V.U U F.V.",
"U U V.U Z U Z Z Z Z A Y $XyXaXcXfXfXfX0Xi.@.=.%.+.+.w.r.r.r.r.j.k.z.k.f.d._ _ O.g.b.b.y.j U H.D.V.Z.D.V.V.V.V.V.A.C.V.V.F.V.V.U ",
"U B.B.Z Z U U Z A A A A J.>XpXZXZXZXbXwXf.>.f.=.t.t.f.f.t.r.r.f.h.j.O.M , n { y.k.k.j.8.h I J.D.V.H.A.Z.V.V.V.V.V.Z.V.V.U C.V.U ",
"B.U U I Z Z Z Z A A A A A E =XvXCXZXlXqXb.1.h.h.h.c.h.g.t.O.O.d.8.5 , O 0 q N r.g.w.w.` 1 V J.H.Z.J.H.B.V.V.Z.Z.A.A.V.U V.U U C.",
"B.B.B.U A Z A Z Z Z Z U I l Q.rXbXVXNXjX}.,.3.c.n.n.c.:.%./ B f - O O # e t q ' +.O.O._ > w C.D.C.J.C.A S.L.P.H.H.H.V.A V.C.A C.",
"V.B.U U A U Z U U Z Z Z p B c.|.6XlXCXzX|.6.'.N.m.m.x.h.} g e e # # # e u t e d m { ] m > q I Y F.U a V Y.:X4X>XT.C.V.V.V.U C.A ",
"F.B.B.B.A A U U Z Z Z Z i B :.=.p.0XvXsX9.,.].`.3.m.3.=.N y t t r 8 e u t t y q ; v v 5 1 0 V U U Z a i E ~ I.I.Y.V.A A A C.V.A ",
"V.V.V.B.U U U U U Z Z Z q v $.+._ W %XI.7.,.R.3.3.n.h.%.B t t t t t t t t t y y 8 : 3 2 ; r p p p a Z i e L P L S A Z A A A V.C.",
"V.V.B.U U Z F.Y A Z Z Z d c ) ( 5 h V L B @.<.>.;.*.%.' l t t t t t t t t t u t 8 - : % O 0 p i i p a p t t u p u a Z Z A A C.C.",
"V.V.B.B.U U U Y Z p y e ; c b v , q p p j ( #.X.[ ( _ z g t u t t t t t t u y u 9 - - O O e i p p u u u u p p p u V Z A A C.V.A ",
"V.B.B.B.U U a Z p y y d 7 7 4 , d k t C j = ( ^ c v 5 > w y y t t t t t t y t u t q 9 r e u u u p u a u a a a a Z Z A A A V.V.S ",
"V.B.B.B.B.a a a a y w f x z > 1 + w u y f 3 7 7 c 5 , 1 w y y y t p p y t t t u u u u u u u u u a s s s s A a A A A A A V.A V.Z.",
"B.B.U A B.a p a V u t d : , 1 ; 0 u u k > 2 3 3 5 4 1 1 t t t t i p t t t t t u u u u u s s B.B.A A A A A A A A B.A A C.A C.A V.",
"F.B.U U s a a p a p u 9 8 8 0 0 y u y d ; z 2 4 , > 1 @ t u t t p p p t t i t p u u s s s s V.B.Z.B.B.V.A A C.C.B.B.B.C.C.B.S V.",
"V.V.B.U a a a a s s u a i V K.P.I p u e ; 1 > 1 > 1 1 @ t y u u p p i p p p p p a s s s B.V.V.Z.Z.A V.A V.U A V.A V.C.A V.V.Z.V.",
"V.B.U U U Z a s s s s p i i V I s u u u e 0 @ @ @ @ 0 0 t p u u a p p p p a a a a s V.V.V.V.V.V.B.A A V.A Y V.C.V.A A C.A V.A V.",
"B.U U U U B.s U B.B.B.s a a a a p p u u p u t t w e e p p a s a Z a a a a a Z U A U V.V.V.V.V.Z.V.A A V.A V.V.A V.B.C.A C.C.A V.",
"B.V.B.B.B.B.B.B.B.B.B.V.V.B.s a s a a a a a a p Z p a a s B.B.s U s Z a Z U U U A A s V.V.V.V.V.V.B.A B.A V.A V.S V.A C.C.A A C.",
"F.Z.Z.V.B.V.V.B.B.V.Z.V.Z.V.U s A B.B.s s s A B.B.B.V.U B.U B.U U U U Z U U U A U V.B.B.V.V.V.B.B.A V.A A V.V.V.Z.V.C.A C.A C.A ",
"Z.B.Z.B.Z.B.B.V.Z.F.V.Z.V.V.B.U B.B.B.B.V.B.V.B.V.V.V.V.V.U U U U U U U Z U Z U A U U V.V.V.V.V.B.A B.V.V.A V.V.A V.B.C.A V.B.C."
};
