/* XPM */
static char *result[] = {
/* columns rows colors chars-per-pixel */
"64 64 246 2 ",
"   c #38261B",
".  c #322B1D",
"X  c #3C3D34",
"o  c #333226",
"O  c #221913",
"+  c #492B1C",
"@  c #56351E",
"#  c #522F1C",
"$  c #67361B",
"%  c #753A17",
"&  c #492D22",
"*  c #473828",
"=  c #533323",
"-  c #563B2C",
";  c #5C3B2B",
":  c #593824",
">  c #443930",
",  c #523429",
"<  c #633A24",
"1  c #6C3C24",
"2  c #653B28",
"3  c #723F24",
"4  c #39472D",
"5  c #3B522F",
"6  c #38552F",
"7  c #3A4D31",
"8  c #3E4231",
"9  c #3A5B32",
"0  c #395632",
"q  c #366635",
"w  c #396635",
"e  c #396A36",
"r  c #3C6C3A",
"t  c #3C6639",
"y  c #3D733C",
"u  c #3F793D",
"i  c #46462B",
"p  c #594529",
"a  c #465429",
"s  c #5D4835",
"d  c #445C32",
"f  c #475935",
"g  c #545A36",
"h  c #4B4F2E",
"j  c #69462A",
"k  c #74432A",
"l  c #7B462D",
"z  c #784427",
"x  c #674934",
"c  c #675634",
"v  c #755436",
"b  c #764E2E",
"n  c #4A6539",
"m  c #436D3C",
"M  c #496B3A",
"N  c #436536",
"B  c #55683B",
"V  c #41763F",
"C  c #41793F",
"Z  c #54733E",
"A  c #6F6538",
"S  c #7C401F",
"D  c #3F4345",
"F  c #56504D",
"G  c #725649",
"H  c #496D45",
"J  c #556B47",
"K  c #447541",
"L  c #437D40",
"P  c #4B7B46",
"I  c #4B784A",
"U  c #527648",
"Y  c #4C7855",
"T  c #567A58",
"R  c #526E50",
"E  c #786359",
"W  c #656B54",
"Q  c #566E67",
"!  c #6C726F",
"~  c #595E63",
"^  c #813E18",
"/  c #84492A",
"(  c #8B4C2B",
")  c #834726",
"_  c #924F2B",
"`  c #99532D",
"'  c #864D32",
"]  c #885538",
"[  c #945334",
"{  c #995937",
"}  c #89552C",
"|  c #A4552A",
" . c #B75E2D",
".. c #A45A34",
"X. c #AB5D33",
"o. c #A25C3B",
"O. c #A95E38",
"+. c #B25F37",
"@. c #BA612F",
"#. c #AC613C",
"$. c #A8643A",
"%. c #B46135",
"&. c #B3643C",
"*. c #BB6539",
"=. c #BA663A",
"-. c #95552F",
";. c #C36A3C",
":. c #CB6D3B",
">. c #C66734",
",. c #D46E37",
"<. c #CE713D",
"1. c #D3713D",
"2. c #DC753C",
"3. c #CC642B",
"4. c #E2763B",
"5. c #E4793E",
"6. c #EB7B3D",
"7. c #EB7738",
"8. c #FD7C35",
"9. c #F27E3E",
"0. c #FC7D38",
"q. c #E56D2C",
"w. c #C95F26",
"e. c #945B42",
"r. c #A35F41",
"t. c #8E6953",
"y. c #A96645",
"u. c #B66943",
"i. c #BB6C43",
"p. c #B56843",
"a. c #B1724F",
"s. c #8C7467",
"d. c #A47865",
"f. c #C26E43",
"g. c #C56F45",
"h. c #C47045",
"j. c #CC7244",
"k. c #CC764A",
"l. c #CD784C",
"z. c #C4754D",
"x. c #D37544",
"c. c #DB7741",
"v. c #DD7943",
"b. c #D3794B",
"n. c #DC7B49",
"m. c #D37747",
"M. c #E37B44",
"N. c #EC7E42",
"B. c #E57E48",
"V. c #E87F48",
"C. c #F17F40",
"Z. c #42803F",
"A. c #448242",
"S. c #498546",
"D. c #468843",
"F. c #498A46",
"G. c #4B8349",
"H. c #4B8B49",
"J. c #458249",
"K. c #52884E",
"L. c #4D914B",
"P. c #50924D",
"I. c #578956",
"U. c #569454",
"Y. c #4C8357",
"T. c #668B66",
"R. c #689669",
"E. c #758B74",
"W. c #769978",
"Q. c #6F8B71",
"!. c #65936E",
"~. c #FE813C",
"^. c #F6813F",
"/. c #8A8979",
"(. c #AF8A73",
"). c #D98355",
"_. c #EC8046",
"`. c #EB824A",
"'. c #E3814D",
"]. c #F48243",
"[. c #FD8542",
"{. c #FF8A44",
"}. c #F5874C",
"|. c #EA8854",
" X c #FC9258",
".X c #F18D56",
"XX c #CE9070",
"oX c #EB9566",
"OX c #F29A69",
"+X c #E79C73",
"@X c #F8A679",
"#X c #F5A171",
"$X c #6D7981",
"%X c #778389",
"&X c #74918D",
"*X c #7796A4",
"=X c #7EA280",
"-X c #879497",
";X c #95979B",
":X c #8F8D8B",
">X c #AE948E",
",X c #8FA993",
"<X c #B5A498",
"1X c #879BA4",
"2X c #97A8A9",
"3X c #91ACAE",
"4X c #A7A9AA",
"5X c #B7A7A5",
"6X c #A9B4B5",
"7X c #B6B8B8",
"8X c #ABAFB0",
"9X c #CCA795",
"0X c #FEBB94",
"qX c #EDB392",
"wX c #CAB8B6",
"eX c #C49684",
"rX c #B3C1BD",
"tX c #CBC2BD",
"yX c #FAC5A7",
"uX c #FBD3BA",
"iX c #EDCAB5",
"pX c #B1B9CC",
"aX c #C2BEC8",
"sX c #BAC9D6",
"dX c #BACCCE",
"fX c #B9CCE4",
"gX c #C8CBCA",
"hX c #D4C9C9",
"jX c #CAD5DB",
"kX c #D8D9D9",
"lX c #CFD0D1",
"zX c #FCDBC7",
"xX c #E5D8CD",
"cX c #FBE7DA",
"vX c #E9E1D7",
"bX c #D5DBE4",
"nX c #C1CFE2",
"mX c #DDE1E6",
"MX c #E8E8E7",
"NX c #FBEDE4",
"BX c #F8F3EB",
"VX c #EDF4F6",
"CX c #FDFCF4",
"ZX c #FEFEFD",
"AX c #F5F6F5",
"SX c #E9EDF0",
/* pixels */
"A.A.A.A.Z.Z.Z.Z.L Z.L L Z.L L L L L L L L V V V V y y K L V V V L L L L L L L L L Z.J.A.A.D.A.A.Z.D.D.D.D.D.D.D.D.Z.Z.D.Z.Z.D.D.",
"A.D.A.L Z.Z.A.A.A.L Z.L L L L L L L L L V V C V V V V K V V L L L L L L L V J.J.L Z.A.A.A.Z.A.A.A.A.Z.D.D.D.D.D.D.D.D.D.D.D.Z.D.",
"D.F.A.C L u L A.A.A.L L L L L L L L L K V V L I K y K V V V L L L L V V u u J.J.L A.A.J.D.U.P.Z.A.A.D.D.D.D.D.D.D.D.Z.Z.A.A.Z.D.",
"J.D.A.A.L L L L L L L L V u L Z.L L L y V y L L K V V V L V V V L u V L u L Z.J.A.A.A.D.U.W.W.D.A.A.A.D.D.D.D.A.Z.D.D.D.A.A.A.A.",
"A.A.A.Z.L L A.L L L L K f f L L L L I V V V K K V V V V V L V L C L L C L C L L Z.A.Z.A.H.U.K.A.A.A.D.D.D.D.D.D.D.D.D.S.A.J.A.A.",
"A.A.Z.L L L L L L L K g 2 p K L L L L y V V u V V V L V L V L L L L V C L K C L L A.A.A.L Z.C P Z.A.A.J.A.D.D.A.D.D.L.D.D.D.A.A.",
"Z.Z.L L u K A.A.Z.L g 2 1 - 9 L L L V V V V u V V L V V V V L V V V C C C V C L A.A.A.L K C C A.A.L A.A.D.D.D.D.A.D.L.D.F.D.A.L ",
"A.C L C K L F.F.A.H j 3 1 ; 7 K L L V V V y V V V V V V V V u V C V V C C C C C C L C C C C L S.L u L L A.A.A.D.D.D.L.D.F.S.G.A.",
"Z.Z.L L K A.P.L.P s 3 3 1 = X m Z.C C C V V C y V y u V y K H H C u L V C C C C C A.G.V C C C C S.L V A.A.A.A.S.A.F.L.D.F.F.D.A.",
"L A.C C V J.U.U.J j 3 1 < = > N C C C V V V y V V V V y K N 0 D 9 f d t V C u V G.,X,XT.K V C P S.S.V P C C C A.D.L.L.F.F.F.A.A.",
"L C L K K P U.P x 3 1 2 : = = i N C C C V V V y y C C m 0 * & $ $ $ $ : a Z.C V S.6XAXkX&XY V u G.F.A.L A.C C L A.L.H.H.F.S.A.P ",
"C A.L L K G.K.g 1 3 2 < = = = 2 @ N C C V V V V y V 9 i @ $ ^ $ % k z z p C C V C !.MXZXBX2XY u P S.H.L S.C C G.S.P.H.H.F.S.A.A.",
"A.A.D.F.P K.U x 1 1 < # # + # 3 ( p M C C C C C m i # $ $ % ) E s.:X>X' i C C C C T lXZXZXCX7XY C A.P.S.G.G.Y.I.I.K.H.F.F.F.A.A.",
"C C J.G.P G.n 2 1 1 3 1 < + + 2 %.;.b d m C C e 4 # $ % ) t.:X4XpXbXhXE a C C V C Y dXZXZXZXZX6XY C H.U.U.T.W.W.W.R.K.F.H.H.A.L ",
"V V V K H H s 3 ) 3 ( ` ..( 3 / :.^.q.} a d 6 . + % ^ [ d.pXpXnXjXSXbXt.f V V V C T rXZXCXZXZXZX4XI S.U.T.E.W./.,X,XR.H.P.F.A.P ",
"K V V H H H x _ _ ) _ ..+.*.*.>.2.^.^.7.@.p . # S ) $.>XpXpXfXhXbXAXbXs.B V V V V Y.rXZXZXCXCXZXAX%XU T T T T.Q.Q.T.T.U.H.S.A.A.",
"K M V H m f k ` ` %.>.1.,.2.N.C.].].[.[.^. .% / | *.XX8XpXpXnXmXSXZXmXE J V V V V T dXZXCXCXZXCXZXkXT U R R R R R I.I.G.A.A.C A.",
"K K K K m f 3 ` ;.5._.^.^._.].[.[.[.[.[.[.6.>.@.w.k.5XfXfXnXbXSXAXZXvXE U V V V V T.jXZXCXCXCXCXCXCX-XY Y H H H I U K K P A.C A.",
"L K L C V i 3 %.^._.].].[.].~.[.[.[.[.[.~.[.].6.,.>.(.7XaXhXhXMXAXZXtXW U V V V V E.bXZXCXZXCXZXCXZXlXU P P P K K K V L C A.A.C ",
"L L C C m * ( 1.].}.[.[.[.[.{.{.[.~.[.[.{.[.[.[.7.,.:.a.a.d.9XmXZXAX>XF V V u u M (.cXZXCXZXZXZXCXCXcXW C K K V C V K L C A.C A.",
"C Z.C C d $ %.v._.].[.].[.[.[.[.[.[.~.[.[.[.[.{.}.C.4.>...a.>XwXSXhXE J V V u V A +XzXNXBXCXZXCXNXNXzXE Z.Z.V C C C C L P A.C C ",
"Z.C Z.V i _ :._.].^.].[.[.[.[.[.[.[.[.[.[.[.[.[.[.[.[.5.u.r.y.>XaX;XF A C y V B $.@XyXuXcXcXNXcXzXuXyXs.m Z.C C C K C C C C C C ",
"A.C Z.N : %.2.`._.}.].[.[.[.[.{.[.[.{.[.[.[.[.[.[.].[.}.n.+.d.4X4XE j Z C V M A '.#X0X0XyXyXyXyXqXqXqXd.M C C C V V C C C C C C ",
"Z.A.u d k :.M.'._.].[.~.[.[.[.[.[.[.~.[.[.[.[.[.[.C.C.].C.b.eX8X/.1 c K V C M $.`.oX#X@X@XqXOXOX+X+XXXr.M C V C L C Z V V V V C ",
"A.A.u d ) c._.B._.].[.[.[.[.{.[.[.[.[.[.[.[.[.[.^.6.5.5.N.B.XXXXe.< A y y V g ;.B.|.oXoXOXOX.X|.'.).).r.M u C C L C K V V C C C ",
"C C V h ..V.`._.N.].].[.[.[.~.[.[.[.[.[.~.{.[.[.^.^.4.2.x.b.b.u.3 : Z V V V c ;.v.B.`..X.X.X.X'.'.m.).e.n C K L C C L C P A.A.C ",
"A.C V j :._.}.}.N.5.].[.[.[.{.~.[.[.[.[.[.[.{.^.^.^.6.,.:.f.u.o.2 * V u C M b ;.x.2.B.'.`.}.`.B.n.l.l.] m K K L L K C C C L C C ",
"C C d | 6.5.$.%.2.5.].[.[.[.[.{.{.[.[.[.[.[.[.[.[.^.6.2.:.u.#.[ = 5 V K C M b ;.;.<.c.M.`.`.V.M.n.b.l.v V A.L K L C C C C C C C ",
"A.C j 1.[.;.  . ( ,.7.8.8.~.~.~.~.[.[.[.[.{.~.{.^.[.^.5.:.%.../ * V u u C M z @.;.:.:.c.M.M.v.v.m.l.i.c L A.L L C P C C V C C L ",
"C N | 9.^.=.@ O @ >.4.].[.8.~.~.[.[.[.[.{.{.{.{.{.[.[.6.<.&...k @ M Z Z B g j ` X.%.=.:.c.x.x.m.k.z.y.B L S.A.L C C C C V C C V ",
"A.B |.8.q.3.%.{ r.(.qXuXuX0X X~.8.~.~.^.2.,.<.6.[.[.[._.1.=.O.l : -.$.$.` } } ) / ' ` +.;.g.k.k.i.z.] Z A.S.L A.C A.C C A.C C C ",
"P 2XcX#X`.|.XX9X5XrXgXgXbXBXcX0X X8.~.>.@     k ,.{.[.N.v.;.#.' @ $.'.2.1.,.>.| / 1 3 [ O.&.i.i.a.y.c L S.S.L C C C A.C C C C P ",
"Y.fXZXNXzXvXjXgXdXkX6XF X 4XVXCXzX@X[.w.$   O   +.{.C.N.M.g.p.' @ { v.N.C.[.C.5.:.` 1 < ( [ { y.r.v m L A.A.L L L L L L L Z.L L ",
"D.6XAXZXZXZXAXSXmXAXgXF F 8XVXZXZXNXyX}.q. .` X.M.{.C.V.M.j.p./ + } x.N.[.[.[.[.].4.| : : ' ' ' x n L L Z.J.L L L L u L L Z.L L ",
"A.&XjXZXZXZXZXZXAXAXAXbXbXVXZXZXZXZXZXzX#X~.8.8.8.0.N.c.x.>.y.3   1 ;.M.N.[.[.[.[.[.2.( = 1 l x n u K A.Z.Z.Z.Z.L L L L Z.A.Z.Z.",
"Z.Y.1XmXZXZXZXZXZXCXZXZXZXZXZXZXZXZXZXZXcXyX#X X}.V.B.b.XXXXd.t.s + _ :.v.N.].[.[.].N.%.< : x H u C Z.C Z.Z.J.A.L L Z.A.A.A.D.A.",
"Z.u Y.*XmXZXZXZXZXZXZXZXZXZXCXZXZXZXZXZXZXZXNXzXzXuXiXxXtX7X5X5X>XF , { f.x.V.].N.`.M.*.z h V C K L L A.A.Z.Z.A.Z.Z.Z.J.A.A.D.D.",
"Z.u D.Y.3XSXZXZXZXZXZXZXCXCXCXCXCXCXCXZXZXZXZXZXZXZXBXkX7XpX8XpX7X-XF l *.j.n.B.B.B.b.&.l B C C C Z.L u Z.Z.A.A.Z.Z.Z.Z.A.A.D.A.",
"L L Z.L Y.3XAXZXZXZXCXCXCXBXBXCXCXCXCXCXZXCXZXCXZXBXkX7X8X4X;X-X%X$XE r.i.m.n.n.M.n.m.p.k B L K C u L A.L Z.A.u Z.Z.Z.Z.Z.A.A.D.",
"L u u u u Q 6XVXZXZXCXCXCXCXCXCXCXCXCXCXCXCXCXCXBXhX7X4X;X$X$X~ ~ G r.u.h.b.b.b.b.n.m.$.j U A.A.C A.L L Z.J.A.A.Z.L Z.Z.Z.A.Z.D.",
"L u V V V V Q 3XmXZXZXCXCXCXCXCXCXCXCXCXBXCXBXMXgX8X;X%X! ~ ~ ~ ~ E p.f.l.l.b.m.m.n.m.{ g L G.L L L Z.Z.A.A.A.A.Z.Z.Z.Z.Z.A.A.A.",
"L L L V u L L Y.&XdXmXBXBXCXCXCXCXCXCXCXBXcXgX6X;X$X~ F G G e.e.e.r.i.k.b.k.l.f.g.b.k.{ d S.A.K L L A.A.A.A.Z.Z.Z.J.A.Z.J.A.A.A.",
"A.A.A.L V V L V I Q &X2XtXlXkXvXvXMXkXlXdX4X-XE.~ F ; ' ( [ ....p.g.k.k.b.k.f.u.h.b.l.v m D.A.J.L L A.D.D.Z.A.Z.Z.J.A.A.A.A.A.A.",
"L L J.L L L V V V u I Q.&X&X*X;X2X2X2X*X$X! ~ F G ' [ [ o.r.r.p.g.k.l.l.k.i.o.r.j.b.b.G V D.L.A.Z.Z.J.D.D.A.A.Z.Z.J.D.A.A.A.A.A.",
"L L P L V u K L C V C T.3X3X3X*X*X*X1X1X! e.e.[ ` { { r.#.#.p.h.z.l.m.k.f.{ [ p.j.b.l.c K J.L.F.Z.A.D.A.A.A.A.A.D.S.D.A.A.A.L J.",
"L L J.L K L K V V C C K.3XdXfXjXsXsXnX<Xa.+.+.r.#.#.p.u.i.i.f.k.b.b.m.f.r.[ { i.k.).l.x r F.P.J.A.J.D.Z.C L A.D.D.D.A.A.L A.J.L ",
"Z.L L K u K u K C C u u R.3XjXVXSXVXxXXX>.:.f.;.*.i.h.h.i.i.h.m.x.g.o.x 2 [ y.k.b.b.u.s t H.P.J.L D.A.L u C A.D.D.A.A.A.L A.A.L ",
"Z.Z.L u K V L u C C C u Z.T.tXCXCXAXxX+Xx.:.j.:.x.x.m.j.&.#.&.p.{ l , o 7 v u.b.h.&.{ p 9 P H.H.A.J.J.u y u A.A.F.S.A.L G.L A.A.",
"L Z.Z.L K L u u V u V u V c XXvXVXBXNXyX).2.5.2.'.5.c.;...' x p & . . 6 w 5 ] &.#.o.{ ; 7 V J.S.L G.L y P I.I.P.L.F.Z.C S.S.S.C ",
"A.Z.Z.L u L K L u K V V t b ).XXiXBXAXtX<.^.].6.6._.M.=.x a 0 o . . 4 q w q 4 z { { ' 2 7 y K J.L L r r Q.,X6X,XR.S.S.C A.C C S.",
"A.Z.Z.Z.L K L L K u V V 0 } z.p.(.vXVX<X$.9.~.^.5.^.n.#.g q q 6 o 7 q q w w 9 i l ' 1 ; 7 t K K L K K r T E.E.:XW.S.C S.S.C A.A.",
"A.Z.J.Z.L K L J.K L u K a } %.$.] /.2Xs.$.7.^.5.2.'.<.{ d q q q q q q q q q w 5 : 2 2 = 4 t r r y K L K K I T U P A.A.C C A.S.C ",
"A.A.A.Z.u L L I C V V r i / | [ 2 f U J ( ,.,.,.:.*.O.b 9 t q q q q q q q q q 5 # $ : + 4 t t t r V L L K K K A.C C C C A.S.C A.",
"A.Z.Z.L u L L L V e e 5 : z / k - 9 r t j X.@.| ` ` ' s w q e w q q q q q e q 6 o + &   4 t t r L K A.L L L C L C A.C S.C A.A.A.",
"A.Z.Z.Z.L u V V m w w i 3 j < 2 i w e N j l _ ( / k 1 h w w w w q q q q q q e q 6 4 4 7 q q e u A.A.A.u L C C C C S.C C C A.Z A.",
"A.Z.Z.Z.L V y V y w 9 ; z 2 - - i e e d @ k z z z j - h w w w w q r t q e q q e e e e e e y u Z.u A.L A.A.L L L C C S.C A.A.A.A.",
"A.A.A.C u y r y r e 6 @ j : - > 0 e e i < 3 3 3 1 2 > a q e q q t r q q q q q r e e e y y u Z.A.A.A.C C C C C C S.C C A.Z A.A.A.",
"A.A.u L u u r y y y e 6 4 8 8 7 t e w i ; 1 2 2 ; ; > 7 e q q q r r r q q t q e e e y u u u Z.D.A.Z.Z.S.C C S.S.S.C A.S.A.A.A.A.",
"A.A.Z.L u y r y y y y e w m T I.u e e 7 , - ; ; - - X 7 q e e e r r q q q t r y y y u u Z.Z.A.Z.A.C A.C S.C C S.C A.C C C A.C S.",
"Z.Z.C L K V u u u u y y t t H I V e e q 7 X X X X > X q e e e y r r y r y y y y u u A.A.D.A.A.D.Z.Z.C C S.C A.A.C A.S.A.S.S.C A.",
"Z.Z.Z.L Z.u L u Z.u Z.u y y y y y e q e e e q q 9 0 9 r y y y u u y y y y V V V C L A.A.A.A.A.D.A.C Z.A.A.A.C C A.A.Z A.C C A.A.",
"Z.A.A.A.Z.Z.Z.A.A.A.Z.Z.L C u y u y y y u y y e y y u V u u u u V V V V V V L L C C C Z.A.A.Z.A.A.C A.C C C A.A.C A.A.A.S.S.S.C ",
"A.A.Z.A.A.A.Z.D.A.D.Z.D.A.A.C C u L L u u L L L Z.L u L Z.Z.J.u L L V L V L L L C A.C A.C D.C A.A.C C Z.Z.A.C A.A.A.A.A.C S.A.C ",
"D.D.A.A.A.A.Z.Z.A.A.D.A.D.A.A.Z.Z.A.Z.Z.Z.Z.A.Z.A.A.A.A.Z.J.u J.L L L L L L V L L Z.Z.A.A.Z.A.D.A.C Z.A.C A.S.S.C A.C A.S.C A.S."
};
