/* XPM */
static char *result[] = {
/* columns rows colors chars-per-pixel */
"64 64 243 2 ",
"   c #3E2B19",
".  c #2C2724",
"X  c #3A3929",
"o  c #3E3D31",
"O  c #2E3227",
"+  c #1D1D1D",
"@  c #462A1D",
"#  c #58341C",
"$  c #4F2F1D",
"%  c #643418",
"&  c #763814",
"*  c #4B2D20",
"=  c #473929",
"-  c #523324",
";  c #55392C",
":  c #5B3B2C",
">  c #583825",
",  c #443B30",
"<  c #553426",
"1  c #643B26",
"2  c #6C3C25",
"3  c #653B28",
"4  c #723E24",
"5  c #693E30",
"6  c #38472B",
"7  c #3E532E",
"8  c #3B4931",
"9  c #365B32",
"0  c #3B5C33",
"q  c #3B5533",
"w  c #2F4427",
"e  c #376635",
"r  c #396535",
"t  c #396B36",
"y  c #3B6539",
"u  c #3B6C39",
"i  c #3E733C",
"p  c #3F793D",
"a  c #46472B",
"s  c #58462B",
"d  c #47552D",
"f  c #4C4A31",
"g  c #594931",
"h  c #475A34",
"j  c #565435",
"k  c #66422B",
"l  c #744229",
"z  c #7B4529",
"x  c #784326",
"c  c #674634",
"v  c #784934",
"b  c #645534",
"n  c #795835",
"m  c #74552B",
"M  c #426535",
"N  c #426D3C",
"B  c #486839",
"V  c #41763F",
"C  c #41793F",
"Z  c #48753E",
"A  c #55623C",
"S  c #6C643B",
"D  c #5A5759",
"F  c #6B544A",
"G  c #705950",
"H  c #476B43",
"J  c #546D47",
"K  c #437440",
"L  c #437D41",
"P  c #4A7C46",
"I  c #4D7D4C",
"U  c #497649",
"Y  c #517849",
"T  c #597A56",
"R  c #497E50",
"E  c #6A734A",
"W  c #586E6B",
"Q  c #67726E",
"!  c #505E68",
"~  c #8D4B29",
"^  c #854929",
"/  c #914D28",
"(  c #9D552E",
")  c #93522D",
"_  c #834D34",
"`  c #874E36",
"'  c #8D543B",
"]  c #885437",
"[  c #935334",
"{  c #995839",
"}  c #8A542D",
"|  c #A4562C",
" . c #BA5F2D",
".. c #A45A33",
"X. c #A35C3B",
"o. c #AC5E36",
"O. c #AA623E",
"+. c #B5653C",
"@. c #B96538",
"#. c #BD622F",
"$. c #82542D",
"%. c #C36A3B",
"&. c #CB6D3B",
"*. c #C56734",
"=. c #D66E36",
"-. c #DC743C",
";. c #D6713B",
":. c #CA6937",
">. c #E4793E",
",. c #EC7B3E",
"<. c #E57437",
"1. c #F27E3E",
"2. c #FA7B35",
"3. c #F3712A",
"4. c #995D41",
"5. c #875C48",
"6. c #9D6245",
"7. c #86684E",
"8. c #A76544",
"9. c #BC6C43",
"0. c #B36A46",
"q. c #BA7655",
"w. c #AD7451",
"e. c #90796F",
"r. c #A97B6C",
"t. c #C16E43",
"y. c #CA6F40",
"u. c #C47146",
"i. c #CC7344",
"p. c #C3724A",
"a. c #CC764B",
"s. c #CE784C",
"d. c #D37543",
"f. c #DC7945",
"g. c #D47A4B",
"h. c #DA7C4B",
"j. c #D87745",
"k. c #C67C59",
"l. c #E47C44",
"z. c #EB7E44",
"x. c #E47E48",
"c. c #F17E40",
"v. c #42803F",
"b. c #448242",
"n. c #498546",
"m. c #468843",
"M. c #498A46",
"N. c #4C8449",
"B. c #4B8B4A",
"V. c #458248",
"C. c #52874E",
"Z. c #4D914B",
"A. c #50934E",
"S. c #578757",
"D. c #589356",
"F. c #4A8152",
"G. c #5B8E74",
"H. c #688C69",
"J. c #689769",
"K. c #778875",
"L. c #799A7A",
"P. c #698772",
"I. c #719568",
"U. c #FF823C",
"Y. c #F4803F",
"T. c #87857A",
"R. c #B58772",
"E. c #918458",
"W. c #D98556",
"Q. c #C38453",
"!. c #ED8146",
"~. c #EA8249",
"^. c #E6814A",
"/. c #F48244",
"(. c #FD8542",
"). c #FB8949",
"_. c #F38C54",
"`. c #DA8C63",
"'. c #CB9272",
"]. c #F09868",
"[. c #F9A575",
"{. c #687983",
"}. c #698D83",
"|. c #768C98",
" X c #788E8C",
".X c #7FA384",
"XX c #7C97A3",
"oX c #7EA9AA",
"OX c #989798",
"+X c #88928E",
"@X c #AC958C",
"#X c #95A895",
"$X c #89A589",
"%X c #B4A296",
"&X c #949EA3",
"*X c #839BA6",
"=X c #9AA6A8",
"-X c #9CABB1",
";X c #A7A8A9",
":X c #A4B6A6",
">X c #A8AAB3",
",X c #A7B6B7",
"<X c #B9B8B8",
"1X c #B7AEAF",
"2X c #C4A693",
"3X c #DCB49B",
"4X c #D2AD98",
"5X c #F9B792",
"6X c #EFB08D",
"7X c #C9B1A5",
"8X c #E2BAA1",
"9X c #ADC0B9",
"0X c #CDC4BB",
"qX c #FEC7A8",
"wX c #F4CFB8",
"eX c #9CBAC5",
"rX c #ADBBD5",
"tX c #ABBAC5",
"yX c #A8C4CA",
"uX c #B7C4C6",
"iX c #B6C7D9",
"pX c #BACBE3",
"aX c #CAC8C6",
"sX c #D7D6CE",
"dX c #C5CEDA",
"fX c #D5D8D7",
"gX c #D3CAC6",
"hX c #F9DDCA",
"jX c #E3DACE",
"kX c #E3E3DB",
"lX c #FDEADB",
"zX c #D8DCE3",
"xX c #C6CFE0",
"cX c #D8E6E7",
"vX c #DFEAF0",
"bX c #E9EAE8",
"nX c #F2EDE5",
"mX c #FCF5EB",
"MX c #F9F4EB",
"NX c #FDFCF4",
"BX c #FEFEFD",
"VX c #F6F6F6",
"CX c #E9F0F6",
/* pixels */
"b.b.b.b.v.v.L v.v.v.L L L L L L L L L C L C V V V i K i V V V.C C L L L L C V.L L L b.b.b.m.b.b.b.b.m.m.m.m.m.m.m.v.m.v.m.m.m.m.",
"b.m.b.L v.v.v.v.V.L v.v.L p L v.L L L L V V V V V K V K V V V C C L C C C C L V.b.p b.b.b.v.b.V.v.b.m.v.m.m.m.v.m.m.m.m.m.v.b.v.",
"m.M.b.C v.L L b.V.b.L L L L L L C L C V V V C V K i V V V L L L L C C C L K V.V.V.b.b.b.M.A.A.V.b.b.m.m.m.m.m.m.m.m.v.v.b.b.m.b.",
"V.m.b.b.L L L L L p L L V V L v.C V.L V V V V.V.V V V K p V V V C V.V C K L L m.b.b.b.V.D.L.J.B.b.b.b.m.m.m.m.m.v.m.m.m.b.b.b.b.",
"b.b.b.v.L L L L L L L B j h L L L V.C V V V V L V V V V p L V L L C C C C L L L v.V.v.m.B.D.C.V.b.b.b.m.m.m.m.b.v.m.m.b.b.n.b.b.",
"b.b.L L L p b.L L L K g 3 f V L C C V V V V V V V V L V L V L L C L C C L C C L v.b.b.v.L L L L v.b.b.b.m.m.m.b.m.m.Z.m.M.b.b.b.",
"b.b.p L L K L b.L K j 2 2 a M L C V.V V V V V V L V.K V V V p V V V C C C C C L L L L L L L L L b.L v.b.b.m.m.b.m.m.Z.m.M.M.b.b.",
"C v.L L L L M.n.Z J 2 4 2 ; q K V.V V V V V V V V V i V V V V L C C C V C V C C C L L L p K L V.L C L V.b.m.m.m.v.M.Z.n.M.N.b.b.",
"b.C L V Z v.A.B.J g 4 4 2 - 8 K C C C V i V V V V i C i i V K B V i V L C C C i L L L p C C C L n.L K b.b.b.b.b.m.Z.Z.v.Z.m.n.v.",
"v.L L L Z n.D.B.j l 4 2 1 * , M C V C Z C C V V V C i p N y a , f d d h V C p L C K L V V V C L n.M.Z b.L C b.b.v.Z.Z.m.Z.v.n.b.",
"v.L L L V P D.J c l 4 1 > - - a M C C V i i V i V V u 0 a $ $ % % % % > M L C V C C V i V C p C L B.b.K L C C b.m.Z.B.B.m.n.n.v.",
"C L L L K N.C.j l k % > $ * > 2 s M C C C V V C V r a # # & & 2 v n z x M C C p C V C C V V V V L M.B.L V.C Z b.N.A.M.Z.B.n.n.b.",
"b.C m.M.N.N.J g 2 2 3 < @ @ * 4 ) m M p C V C V h = # & & _ 5.e.OX%XR.k M Z C C V p V V V V V V L n.A.n.n.P C.S.S.B.B.B.m.N.v.n.",
"C L V.N.P I j 1 2 4 4 4 2 $ * ^ %.;.m 7 N V i 6   % & x 5.e.>XrXxXvX1Xk t C Z V V V V i p C V V K L B.A.A.H.L.L.L.J.C.n.B.B.b.v.",
"Z K K K J U g ^ ^ x ~ ( ..) ^ | -.Y.;.} s 0 w   % & / r.;XrXpXxXvXCX7Xc M C V V V V V V V V p V V K N.D.H.K.L.$X$X$XJ.B.A.B.b.L ",
"K K K K H h c / / / | o.*.&.&.d.!.U.U.Y.#.#   & / | r.;XrXdXxXzXCXVXtXg r C V V V C C p p V V i V K I T T T Q K.L.H.H.A.B.N.b.b.",
"K K H Z N h l [ o.*.;.^.-.>./.(.(.(.(.(.Y.@.^ |  .k.1XrXpXxXzXbXVXBX7Xf y V V V C V V V V C p K N H U Y Y J W +X$XS.S.N.n.n.L L ",
"C K K K N a 4 | -.!.Y.(./.Y.).(.(.(.(.(.(.Y.=.=.:.k.1XpXxXxXzXCXBXBX;X= u L V V V V V V L K L i i K P N.I N.L.0X:XT K K L L b.L ",
"L C V C V = 4 :./.)./.).U.(.(.(.(.(.(.(.(.(.U.Y.=.t.R.%X%X7XgXCXBXMXT.6 u C V V V V V C V.L C p C K L P C.T.sXcX:XI K L L b.L L ",
"L L C C M - | l.(.).Y./.(.(.(.(.(.U.(.(.(.(.U.U.1.=.:.@.0.k.7XbXBXaXD 8 V V V V V V V V L K C p V F.H.$X9XkXNXnX=XP L L L L L b.",
"C C C V d x @.!./././.(.(.(.(.(.U.U.U.).(.(.(.).(.c.<.*.X.8.@X0XzXOX; q V V V V V V K i V V V C.L.9XsXnXMXNXBXnX:XI V L Z b.C C ",
"v.v.C N - ..;.!././.(.(.(.(.(.(.).).(.U.(.(.).U.).(.(.x.0.4.r.>X;X7., y V p V V V V i H N Z H.R.wXmXmXmXmXmXNXkX&XI C L L K Z C ",
"v.v.C M k @.^.^.!./.(.(.(.(.(.(.U.).).U.).U.U.).c.c.).).j.0.@X>Xe.k w i C V V V V V i H Y E.`.6XqXhXlXmXmXNXmXsXL.U K C Z C C C ",
"v.L v.d z &.!.^.!./.(.(.(.(.(.U.).U.U.).U.(.(.U.1.,.z.c.c.`.2X@X5.$ 9 K V V V V V C U E Q._.).].].8XwXlXNXNXnX:XP.K V V L C C C ",
"b.L C d [ f.!.~.!./.(.(.(.(.(.(.U.U.).U.).U.).U.Y.Y.^.;.f.W.W.0.z X r V V V V i C K E W.)./.~._._.].3XhXMXMXsX#XS.K K V K L C L ",
"v.L V s @.!.!.!.l.c./.(.(.(.(.(.U.).U.).U.U.U.).Y.Y.^.&.i.u.9.{ > w i V V V K L p S W._.!.~.~.^.h.k.'.3XhXhX7X+XT L L V L b.L C ",
"b.p M ~ j.z.x.z.>.>./.U.(.(.(.(.U.).).U.U.).U.U.Y.Y.<.:.%.9.O._ @ 0 V C L i p K H q._.x.!.^.x.g.k.k.k.2X8X3XR.K.R L V L K L L L ",
"v.v.s *.!.;.+.@.&.;.1.(.(.(.(.U.).U.).U.).U.).).U.Y.Y.=.*.O.( l 6 Z V V K V V V 5.g.h.g.g.g.a.a.k.k.k.Q.'.2XR.K.L L K C K L i L ",
"C V ^ >./.%.^ x ( *.,.2.U.U.U.(.U.U.).U.U.).).U.U.Y.Y.^.@.o.( > d Z C C Z C i A t.a.p.p.p.k.p.0.0.w.0.q.q.R.r.C.K L C C C C C C ",
"Z B &./.>.=. .( ..%.`.[.[.).U.U.U.).U.Y.).U.U.U.U.U.Y.^.&.O.[ # b S S m m b A n t.t.9.0.0.0.0.X.4.4.4.4.8.6.7.v.L L L C V C V C ",
"L K.5X_.<.=.a.`.'.%XgXnXmXhX5X).U.U.).Y.Y.U.).U.).U.).Y.&.+.O.k x &.-.&.*. .( ~ ` ' 4.X.4.4.4.4.4.4.4.5.' ] J L C L L C L C L C ",
"I uXVXqX5X6X7X,XtXsX<X XOXzXNXhX[.U.U.*.} ..@.^.U.).Y.~.;.+.X.k 1 *.f.Y.,.<.-.*.~ 3 5 ` ` 5.` 4.' ` 4.' v S Z L C L L C L C L L ",
"F.yXBXBXBXVXvXfXfXbXOX+ . >XBXBXmXqX(.3.#.| / o.c.).c.l.j.u.4.3 > @.l./.(.(.(.c.;.( : 3 v 4.5.' ' ' ' 5 j P L K b.C C L b.b.p L ",
"n.oXvXBXBXBXBXBXVXBXfX;X;XcXBXBXBXBXwX].2.3.<.=.c.c.z.l.d.%.( * @ ( f.!./.(.(.(.(.-.~ ; 5 v ` ` _ 5 k c K L L L b.C L p p b.p b.",
"b.G.yXVXBXBXBXBXBXBXBXBXBXBXBXBXBXBXBXlX5X).U.2.2.3.<.;.s.q.4.5 @ l %.l././.(.(.(./.@.2 : 5 5 5 k : j K v.v.v.v.L L v.L v.v.b.b.",
"p V.G.uXVXBXBXBXBXBXBXBXBXBXBXBXBXBXBXBXNXhXqX5X6X6X6X3X7X%X@X@XF @ ^ %.d.l.!././.x.i.` < ; 5 ; f B L L v.v.V.b.L L b.L v.m.b.b.",
"p C V.G.uXBXBXBXBXBXBXBXNXBXNXNXNXNXBXBXBXBXBXmXnXmXnXsXtX7X<XtX;XD : X.%.j.x.!.!.x.i.[ s s h B K L p b.b.b.v.b.v.L v.V.m.m.b.m.",
"b.C K L G.dXBXBXBXBXBXVXNXNXNXNXNXNXNXBXBXBXBXBXBXVXfX<X1X;X;X;X&XQ F X.t.g.h.x.x.f.i.] b Z Z C L L b.C v.L b.b.v.v.v.v.b.b.m.b.",
"L C L C R }.fXBXBXBXNXNXNXmXNXNXmXNXNXNXNXNXBXBXmXfX7X,X;X|.{.{.W G { 0.i.g.h.f.h.h.i.] j L b.K L C L L v.v.b.p v.V.v.v.b.b.v.m.",
"C L V L i R }.dXVXBXNXNXNXNXMXNXNXmXNXNXNXBXNXnXsX<X-X+X{.! ! ! D 5.0.p.s.a.g.g.f.g.u.v A b.b.C C L L L v.b.V.b.v.p v.v.v.b.v.m.",
"L L C i L L U G.,XcXVXBXBXBXBXNXNXNXNXNXNXMXfX0X&X+XQ D D G G 5.5.8.9.a.g.s.a.i.d.g.9.b N V.b.C L L v.b.v.b.b.b.v.v.v.V.v.b.b.b.",
"C L L K K C V U W }.&XuXfXfXbXMXMXMXnXkXfXuX&X XQ D 5 5 ` { { X.0.p.a.a.a.a.9.t.a.g.9.j L n.V.L L L v.b.b.b.b.v.v.V.v.v.b.b.b.b.",
"b.b.V.L C V K V V U S. X&X&X=X:X,X,X,X=X+X{.! D F 5 ^ [ { X.X.+.p.a.s.s.a.9.X.9.a.h.0.M L m.V.L L L b.m.b.b.b.b.v.m.b.v.b.b.V.b.",
"v.L b.L V C C C V V V.L.-XoX|.|.|.XXXXXXQ G v ` [ [ { X.X.O.0.p.a.s.g.s.9.{ X.9.a.g.8.h b.M.B.m.v.v.b.m.m.b.b.b.v.V.M.b.b.L b.V.",
"L L L L L K C V V C V J.eXyXyXyXeXeXtXOX6.X.o.o.X.X.8.0.0.9.u.s.g.h.g.t.{ ` X.p.s.W.6.h V.m.Z.n.v.V.m.b.b.b.b.b.b.M.M.b.L b.b.L ",
"L L V.L V L K L V L C P .XeXcXCXbXbX0Xk.%.%.t.+.+.9.t.t.9.t.a.h.j.u.X.v ` { 9.a.g.g.{ q L M.A.M.V.m.Z.b.b.b.b.m.n.M.b.b.b.L L n.",
"b.C L V K L C V C C V L C.K.fXBXBXMX8X`.y.&.%.y.y.d.i.u.+.+.%.9.X.5 : 8 g { a.a.u.9._ a K M.Z.B.m.Z.M.b.b.b.v.b.b.n.b.b.b.L b.L ",
"b.b.L V V V C V K L i Z B E 4XnXBXmXhX6Xx.<.j.j.l.f.d.@.{ ] n k < . O q 9 b O.+.8.X.v , y V.A.Z.m.Z.Z.b.v.b.m.m.B.m.L n.L n.L b.",
"p v.v.C K C C V V C V V y } `.7XhXBXMX3X;.Y./.,.z.l.j.o.b d 8 . . O q e e 9 k } X.[ v , 0 K V.N.n.Z.M.L C.D.J.B.Z.B.b.L b.b.P b.",
"b.b.b.C C L V C C V V i 7 ..d.q.2XnXbX@X*.(./.1.1.z.d.' d e e O O w e e e e 6 k ` z 3 , 9 i L I V.K K u P.#X:X#XJ.n.L b.b.L L b.",
"v.b.b.v.L C C L L V C N d ( @.| 7.#X:Xe. .Y.1.,.>.l.@.n r e e 0 9 e e e e t 9 = 1 2 3 * q N i L L V i y T Q K.K.H.P C L L b.b.b.",
"b.b.b.v.L L L P K V V u a / ..~ s J Y A | >.=.&.&.%.{ b e e e e e e e e e e r = $ 1 < X y u u N u i K y 0 H H H K V C C L L b.P ",
"b.b.b.L C C L V.Z V V 7 > ^ ^ 4 a y u A z #. ...( ) v j e e e e e e e e e e r 6 * @ * X y u y y y u t u e y t u u i i C Z L b.b.",
"b.v.v.L L L L P i y r a l l 3 : a u t h 3 ~ ) ^ z l : d t e e e e e e e r t r 9 6 6 O q y e y u u t i t t t u u u i i C L b.n.L ",
"b.v.v.v.L p i V u t 7 k 4 5 ; ; a e t d 1 l x x x 1 ; h t t e t e e t e e e e t e e e e t t e t u t i t i i i i i p Z C Z L L b.",
"b.v.v.v.L p i i u t 7 > 3 : = o 7 t r s 1 2 4 2 k : = 0 e e e e e u u e r t e t e e e i t t t i i p p p p p p V C C C L b.b.v.P ",
"b.b.L p p i u i V t e 7 X 6 , q t t 0 = 3 2 5 3 : ; , 0 t e e e t u t e e e e y t t t i i i v.v.C C C C v.Z L L C v.Z v.b.b.L n.",
"b.b.L L p i i i i u t t e t t t t t y o ; ; ; ; ; ; a 9 e t e t u u y t e e t u t t i p p v.b.v.b.v.v.b.L L P n.L L n.b.b.L n.L ",
"b.v.L L C i i i i i i u y K H.S.V t t e 8 o o o o o 8 e e t t t u u u y u y u u i p p v.v.v.v.b.b.b.b.C L L L L L b.L L b.v.L L ",
"b.v.L L L i i p p p p u y y H K i t t t y t e 9 q q e t e t t y u u u u i i u p i p v.b.v.m.b.m.v.v.L L L L b.L b.L L n.b.n.Z n.",
"v.v.v.L v.C L p v.v.p p i i i i i t t t t t t t e t t t u i p p i p i i i p i V L L L b.b.b.b.b.b.C v.b.b.L b.L b.L P b.b.L n.L ",
"v.b.v.v.v.v.v.v.v.b.b.v.b.p p i p p p i p i i i i i i p p v.p L V C V V p C C L L p L p b.b.v.b.b.C L C C v.L b.L b.v.L L b.P b.",
"b.b.b.b.b.b.v.b.b.b.b.m.b.b.L p p p p p p p L L v.v.C L L v.v.L L L C L V V.L L L L p b.b.b.b.v.b.C v.b.C b.b.Z b.L b.b.n.L v.b.",
"m.m.b.b.v.m.v.b.v.m.b.m.m.b.b.L v.b.b.v.b.b.v.v.v.v.b.b.V.v.v.v.C L L C C L C C b.p b.b.V.v.b.b.b.b.v.C b.v.b.n.L n.b.b.Z n.L b."
};
