/* XPM */
static char *result[] = {
/* columns rows colors chars-per-pixel */
"64 64 239 2 ",
"   c #191716",
".  c #281D17",
"X  c #3A2A1E",
"o  c #393A29",
"O  c #3E3B31",
"+  c #312C26",
"@  c #482A1B",
"#  c #59361E",
"$  c #4F321F",
"%  c #68381B",
"&  c #763B18",
"*  c #4A3828",
"=  c #543121",
"-  c #5C3522",
";  c #553A2D",
":  c #5C3A2C",
">  c #573828",
",  c #443C31",
"<  c #593B31",
"1  c #4C2D21",
"2  c #653B25",
"3  c #6C3C25",
"4  c #663B28",
"5  c #713F25",
"6  c #3B472C",
"7  c #3F552E",
"8  c #3C4931",
"9  c #3B5B33",
"0  c #395732",
"q  c #376635",
"w  c #396635",
"e  c #396B36",
"r  c #3C6439",
"t  c #3B6C39",
"y  c #3D733C",
"u  c #3F793D",
"i  c #48482A",
"p  c #574627",
"a  c #49552E",
"s  c #444731",
"d  c #594A34",
"f  c #465833",
"g  c #565736",
"h  c #6A442B",
"j  c #72432C",
"k  c #7C452A",
"l  c #794427",
"z  c #694636",
"x  c #7A4B35",
"c  c #655736",
"v  c #775536",
"b  c #6C512B",
"n  c #426C3C",
"m  c #456538",
"M  c #55683C",
"N  c #41763F",
"B  c #41793F",
"V  c #4B703E",
"C  c #73663B",
"Z  c #574F4F",
"A  c #76584A",
"S  c #6B544B",
"D  c #446D40",
"F  c #4C6B46",
"G  c #526D4A",
"H  c #447441",
"J  c #437D41",
"K  c #4C7D4A",
"L  c #497947",
"P  c #547848",
"I  c #597955",
"U  c #4D7650",
"Y  c #697758",
"T  c #746449",
"R  c #5C646B",
"E  c #59726E",
"W  c #6C726D",
"Q  c #515E67",
"!  c #844A2A",
"~  c #874929",
"^  c #924E29",
"/  c #97532D",
"(  c #874E34",
")  c #855639",
"_  c #935233",
"`  c #9A5838",
"'  c #90512F",
"]  c #A7592E",
"[  c #A45A34",
"{  c #A45D3A",
"}  c #A85C35",
"|  c #B25D30",
" . c #A5613D",
".. c #AB623E",
"X. c #AD6134",
"o. c #B4663E",
"O. c #BD6739",
"+. c #BB6436",
"@. c #8D5128",
"#. c #CB6D3C",
"$. c #C56A38",
"%. c #D46E37",
"&. c #DD743C",
"*. c #D4713B",
"=. c #C86633",
"-. c #EC7B3D",
";. c #E6773A",
":. c #F17E3F",
">. c #FA7D38",
",. c #EC712D",
"<. c #865B46",
"1. c #995E43",
"2. c #886957",
"3. c #996B53",
"4. c #AA6745",
"5. c #B46741",
"6. c #BB6B43",
"7. c #B56B46",
"8. c #BA7756",
"9. c #AE6F4C",
"0. c #87736C",
"q. c #A67C6B",
"w. c #C26E43",
"e. c #C37146",
"r. c #CC7244",
"t. c #C4744A",
"y. c #CC7649",
"u. c #CD784C",
"i. c #D27543",
"p. c #DD7944",
"a. c #D47A4B",
"s. c #DB7D4C",
"d. c #D77744",
"f. c #C37A57",
"g. c #D37F53",
"h. c #E37B43",
"j. c #EB7E43",
"k. c #E17C46",
"l. c #F37F41",
"z. c #C67F62",
"x. c #42803F",
"c. c #448242",
"v. c #498546",
"b. c #468843",
"n. c #498A46",
"m. c #4C834A",
"M. c #4C8B4A",
"N. c #47804C",
"B. c #528A4E",
"V. c #4D914B",
"C. c #50934E",
"Z. c #588857",
"A. c #589456",
"S. c #598A6F",
"D. c #688B69",
"F. c #689768",
"G. c #748975",
"H. c #779A78",
"J. c #6F8A72",
"K. c #79A476",
"L. c #688258",
"P. c #FD823E",
"I. c #8E866F",
"U. c #B98369",
"Y. c #B18979",
"T. c #82AB7D",
"R. c #DA8354",
"E. c #CE8058",
"W. c #EB8046",
"Q. c #E8814A",
"!. c #F48243",
"~. c #FD8542",
"^. c #FD8948",
"/. c #EA8854",
"(. c #F7925B",
"). c #C48D70",
"_. c #D08C6A",
"`. c #F49A69",
"'. c #ECA179",
"]. c #6D7C85",
"[. c #698D84",
"{. c #7A848A",
"}. c #77919E",
"|. c #7A908E",
" X c #7EA385",
".X c #7D97A3",
"XX c #7FAAAB",
"oX c #888788",
"OX c #9C9A9C",
"+X c #91918F",
"@X c #AC948A",
"#X c #8FAB8E",
"$X c #BBA299",
"%X c #A3B199",
"&X c #889EA7",
"*X c #9B9FA0",
"=X c #99A5A8",
"-X c #A8A8A8",
";X c #A6A8B8",
":X c #A7B6B7",
">X c #B6B6B6",
",X c #B1B1AB",
"<X c #AA9CA0",
"1X c #D0AA94",
"2X c #F3B491",
"3X c #C9B5AC",
"4X c #C7BBB4",
"5X c #D6BAA8",
"6X c #E0BFAA",
"7X c #B4C6B1",
"8X c #FEC8AC",
"9X c #EDCAB3",
"0X c #AEBBCB",
"qX c #9BB9C3",
"wX c #A8C2C9",
"eX c #B9C7C9",
"rX c #BBC8D8",
"tX c #A8C6D0",
"yX c #CDCBC6",
"uX c #D6D4CD",
"iX c #C4CDD9",
"pX c #DAD8D6",
"aX c #CECFCB",
"sX c #F8DBC8",
"dX c #E7DDD0",
"fX c #E8E5DB",
"gX c #FCE7D7",
"hX c #D6DCE3",
"jX c #DCE5E9",
"kX c #E8E8E7",
"lX c #F4EEE5",
"zX c #F4F2EA",
"xX c #F9F5EC",
"cX c #FCF9EE",
"vX c #F4F5F4",
"bX c #FDFBF4",
"nX c #FEFEFC",
"mX c #FAF7F5",
"MX c #E8EEF0",
/* pixels */
"c.c.c.c.x.x.J x.x.x.J J x.J J J B J x.B J N N N N y N y J J N J J u N J J J J J B x.c.N.c.c.N.c.c.c.b.b.b.b.b.b.b.x.b.c.b.c.b.b.",
"c.b.c.J x.x.x.x.x.J x.J J J J J x.B J J N N H N N D N H N N B J J J J J J N c.N.c.x.b.x.c.c.x.b.c.c.x.b.b.b.b.b.b.b.b.x.x.b.b.x.",
"b.n.c.B x.J J c.N.x.J x.x.B J J N.B J N N N N.J N N N N N J J J J J J J B u N.N.c.c.c.c.n.C.B.b.c.c.b.b.b.b.b.b.x.b.b.b.c.c.c.c.",
"c.b.c.c.J J J J x.J J J N u x.x.J J J N N y J J N.N N N N N u N J N N N B J x.c.x.c.c.N.A.K.F.N.c.c.c.b.b.b.b.b.b.c.x.b.c.c.c.c.",
"c.c.x.x.J J c.J J J J V d f c.J B J J N D N N J y y N N N N N J B J B B B J J J c.x.c.b.M.Z.B.c.c.c.c.b.b.b.b.c.b.b.b.c.c.c.c.c.",
"c.c.J J J J J J J J n d : f H J J N.N N N N N N N N J N N J J J B B B H B B B J x.x.c.x.c.J J J x.c.c.N.b.b.b.c.c.b.V.n.b.b.c.c.",
"c.x.J J u H J c.c.N d 3 3 s n J J J N N N N N N N N.N N J N N N B N B J B N B J J J J J J u J H x.J x.c.c.b.b.b.c.n.V.b.v.v.c.c.",
"J J J J J J M.v.c.g 3 5 3 * 9 H J J N N N N N y N N N y N N N J B B B N J B B B J J J N J J J M.x.u J c.c.b.c.b.x.n.V.b.n.M.c.c.",
"x.c.B J V B V.V.G z 5 5 2 = 8 H B B B B N y N u N y N N H H D F B N u u B B B u B B B B J y J J M.H B c.c.c.c.c.n.n.V.b.V.n.c.c.",
"x.B c.H B v.A.C.g h 5 3 - 1 s H B u B B N B N N N B y y t 0 6 < s a a r B B u B B B B B N N H J v.v.N J J B B c.x.V.V.n.b.b.c.c.",
"J B J B V v.A.F h 5 3 2 - 1 * i f x.B B N N H N N N y 7 * # - % % % % p n B B B u B N N J N u u v.M.v.H J J B c.b.V.M.n.n.v.v.J ",
"B c.J J H m.B.d 5 3 4 - = 1 - 3 p m B B B y u N B 9 6 # % & & 5 v x k h N B N N J B y B u N H N B v.M.J v.B B H n.C.M.V.n.v.v.c.",
"c.J b.M.K m.F p 5 5 - = @ @ = ! ^ b e B B B y y 7 $ % % & x 2.oXOX$Xq.# y u N B H u u N N N y N B v.C.v.n.m.m.Z.Z.B.M.M.n.v.v.J ",
"B x.J m.K m.g 3 5 5 5 5 5 = 1 ! #.#.b f N B t o @ % & ! 2.<X;X0XiXMX@Xd B u B N J y N N N u N N B J M.C.Z.S.H. XH.F.M.v.M.M.v.x.",
"H H H H F K < ~ ~ k ^ [ [ / ~ } *.P.&.@.p 9 o @ & l _ Y.;X0XiXiXjXvX+XT H B N N N H y y N N N N N N m.A.D.H.K.oX#X#XF.B.V.n.c.B ",
"H H H D F m j ^ ^ ^ [ | $.#.*.&.P.P.P.-.| # @ & ^ [ Y.qX0XiXiXhXMXvX+XT L B N B N N J N N u u N N N K I I I Y J.J.D.D.C.M.v.v.c.",
"H H n D D f k ` } $.*.&.&.h.!.!.~.~.~.~.-.] ~ | +.z.>X0XrXiXhXMXvXnXI.Y H N N B B N N N N H N N n D K P U G G U I I Z.m.J B x.v.",
"H N H H D i l ] &.!.~.~.^.~.~.~.~.~.~.~.~.P.%.=.=.).0XrXiXiXkXvXnXnX0.Y J N J N N N N B J J u N N D K m.U F F F U U N L B v.x.B ",
"J J B B u * ~ =.!.^.!.P.~.~.~.~.~.~.~.~.^.~.P.-.%.6.Y.$X$X3XpXvXnXkXS I N N N N N N N N c.J H y y J J H L N.L H N N N J B v.v.B ",
"J B B B m > ] &.!.!.!.!.P.~.~.~.~.~.~.~.P.P.~.P.-.%.=.+.5.z.3XlXnX,XZ U N N N N N N N H J H y N H y u H H J H N N B H J B x.x.B ",
"x.B B x.i l $.;.P.W.!.^.~.~.~.~.~.P.P.~.~.~.~.^.^.l.;.+...q.@XyXpX0.d F N N N N N N D D N N y N y J y J N H N u B V B B B K B B ",
"x.x.B y p ] *.Q.W.^.~.P.~.~.~.~.~.^.~.~.^.P.P.~.^.~.l.k.5...q.;XOXS c H N N N N N N D N n N N N H y N N y J H J B B B B B B B B ",
"x.B u f h +.Q.Q.W.!.~.~.~.~.~.~.~.~.P.P.~.~.^.P.l.l.^.l.a.9.<X=X0.- P H N N N N N t N D n n V B y N N u u H J J B B N B V B B B ",
"c.x.x.f k #.W.W.W.!.^.~.~.~.~.~.^.~.^.~.~.~.~.~.l.j.j.l.l._.$X@Xx # P B N N N N N D D F c c c g M L N B u J H u J B B B B B B B ",
"c.x.J i / k.Q.Q.W.!.~.~.~.~.~.~.P.~.~.P.^.P.^.~.P.P.*.d.s.s.g.4.% b N N N H u H B M 1.7.9.t.a.R.E.3.L.m.N B B c.J B B N V B J J ",
"B B B p O.j.W.W.j.l.~.~.~.~.~.~.~.~.P.^.P.~.P.P.P.&.*.*.y.e.7.( @ M N N N N N u M 7.R.Q.Q.(.(.(.'.2X9X%XF.K B x.B B N B B c.c.B ",
"B x.m @.d.h.h.h.;.h.l.~.~.~.~.~.~.~.^.P.~.~.~.!.W.P.;.#.w.5.{ l X N u B B N J V 4.R.R.s.R.R.R._.'.5X9XdXdX%XZ.B J L B B B J B B ",
"x.B g O.!.#.3 ! #.&.:.~.~.~.~.~.~.~.P.^.~.~.~.~.P.P.-.*.$.} ` 3 6 u y B B y y T t.s.s.a.a.a.E.E._.1X9XgXcXmX7XZ.B J B B B B B B ",
"B N ! p.^.} X   k %.-.P.P.P.~.^.^.P.^.P.^.P.P.~.P.!.P.*.O. ._ # m x.B B N B m ) e.s.a.u.y.8.E.E._.1X8XgXcXcXcX7XB.J N N H B B B ",
"x.a #.W.-.$.~ # ~ 6./.`.(.^.~.^.P.P.P.P.P.^.^.~.~.~.!.&.$.X._ - b ) C ) v g a j  .e.y.t.8.8.E.U._.5XdXcXcXcXbXzX,XZ.B N B B B B ",
"x.I.2X^.;.%.a.).@X3XuXxXbXsX2X^.P.P.P.%.@.l / *.~.~.!.&.e.X.{ 2 @.#.#.$.| | / l j _ 4.8.t.E.E.U.U.1XuXfXfXlXxXcXfX7XH.v.B B B B ",
"m.eXnX8X2X2X4X>X>XaX>X].=XkXbX8X`.^.P.k . . . 2 ;.^.!.Q.r.o.{ = k #.h.j.-.;.%.=.~ 3 ) 7.8.8.E.U.Y.1X5XyXyXaXpXzXbXuX%XF.J J J J ",
"K wXnXnXnXvXjXpXpXMX*X  + -XvXnXcX8X^.,.} 2 2 / l.^.l.h.d.6.} = h $.h.!.~.~.!.:.&./ 2 ( 9.8.z.8.q.1X$X3X4X>X>XuXxXxX7Xx.x.x.x.x.",
"x.XXMXnXnXnXnXnXvXvXpX-XiXmXnXnXnXnXsX`.,.,.;.:.~.!.j.s.a.5.[ 1 - X.p.W.~.~.~.~.l.&.~ - <.4.8.8.q.@X@X@X-X=XOX-XyXxXlXK.x.x.x.x.",
"x.S.tXvXnXnXnXnXvXnXnXmXnXnXnXnXnXnXnXxX8X^.>.>.>.;.%.*.y.7.1.< @ ^ #.h.!.!.~.~.^.j.O.4 : <.3.3.q.0.0.0.oXoXoX+X<XyXzXaXM.b.x.x.",
"x.c.S.eXnXnXnXnXnXnXnXnXnXnXnXnXnXnXnXnXbXgX8X2X2X2X2X5X4X$X+X@XZ @ ` $.d.h.!.!.l.h.#.k = 4 <.<.2.0.0.W W W G.G.+X-XuXfXF.x.b.b.",
"x.x.N.S.eXnXnXnXnXnXnXnXbXnXbXnXbXnXnXnXnXnXnXcXlXcXlXaX>X>X;X>X<XZ z { #.p.W.j.j.k.w.! 4 < A A A 0.W L.m.v.v.m.Z.J.,XuXT.x.b.b.",
"B B B J [.rXnXnXnXnXbXbXbXbXbXbXbXbXbXbXbXnXnXnXbXzXaX>X;X;X-X<X&XR <.o.e.a.k.s.k.d.w.( < < z S A Y K c.x.B B c.c.c.Z.#XK.b.b.x.",
"B J B N L [.hXnXnXnXnXmXbXmXbXcXmXbXbXbXbXnXnXbXzXaX>X-XoX].].R R ) 4.5.y.a.s.s.s.s.6.! < < < g F L H B x.c.x.c.c.J c.v.M.c.b.x.",
"J J B N u L [.iXnXnXbXbXcXbXbXbXbXbXbXbXbXbXbXlXyX>X=X{.].].R Q Q 1.5.e.u.a.a.i.s.a.5.z 8 0 m N D H B c.x.c.c.c.c.B B J c.c.b.b.",
"J B B N B N L [.0XjXbXnXbXbXbXcXbXbXmXbXcXzXpX7X=X].W R S A <.<.1.4.w.u.u.u.y.r.a.a.4.d y J c.J J J x.c.x.c.c.c.c.x.x.x.x.c.c.c.",
"J J J N N B N J I [.=XeXpXkXlXxXbXcXlXkXuX>X&X].R Z z 5 ( ` ` { o.w.u.u.u.y.6.w.r.s. .f N.b.N.J J J x.c.c.c.c.x.x.c.c.x.c.N.c.c.",
"x.J x.u N J N N N L S.[.&X&X*X:X:X:X-X=X|.].R Z S 5 ( _ ` { ..5.t.u.u.u.y.5...6.r.R.<.t x.M.v.J J J c.b.c.c.c.c.x.c.b.x.c.c.c.c.",
"x.N.c.N.N N B N N B B  X=X&X}.}.}.}..X}.W S x _ _ ` ` { ....5.y.u.u.i.y.7.` { w.r.R.) t x.n.M.c.x.x.c.b.b.c.c.c.x.c.n.c.c.J c.c.",
"J x.N.L B B N J N J y H.7XtXtXtXqXqX0X@X1.{ } } [ { 5.5.6.6.t.i.i.a.i.6.` ( 4.r.a.R.) m J M.V.b.x.c.n.c.c.c.c.c.c.b.v.c.J v.J c.",
"J J x.B B B N N J H u K  XqXjXMXMXjX5Xt.=.$.w.5.o.6.t.w.6.6.y.s.a.w.1.x ( { 6.a.a.i.x 9 J n.C.M.c.n.V.c.c.c.c.b.b.v.c.c.c.J v.J ",
"x.J J u N B B N H u u N Z.oXpXnXnXzX6Xg.i.#.r.#.r.r.r.w.5.o.w.5.` j ; 8 c 4.r.r.e.o.z 0 J n.C.M.c.V.M.c.c.x.c.c.b.c.c.c.J v.J v.",
"x.x.L N N B B H N J N u H T 5XzXmXzXsX'.d.&.&.d.h.d.i.o.` ( v h 1 + + q 0 x 5.....{ h 8 N L V.V.n.C.V.x.x.c.b.b.M.n.c.B v.J c.J ",
"x.x.x.J H N J N N H N N 9 ` _.5XfXnXkX1X%.P.j.-.W.;.i.` p f 6 . X + 0 q w 8 b `  ._ 4 6 r N J M.b.V.M.u B.A.F.C.C.M.J c.J J c.J ",
"x.x.x.J J u H u J u N N f X.u.8.1XxXfXY.=.P.W.P.-.h.#.) w q q + o 0 q q q w 6 j ( k 4 8 9 N H m.L J N t J.#X%X#XF.N.c.N.c.c.J v.",
"c.x.x.x.J J J u H H u y i ] O.` 2.%X:X2.=.P.-.;.P.&.o.c q q q q q q q q w w 0 * 4 3 - O r y N J N N y r I W W G.J.L J J J v.c.J ",
"c.c.N.x.J J J J J y H r p ^ ` @.z P m.c | &.%.%.O.$.` g q q q q q q q q q w 9 * - 2 1 O r t n t t N N r r F G D N N u u J J J v.",
"c.b.x.J J B N.N.B N y 7 - ~ ! h s m e M ~ +.| ] / _ j f t w q q q q q q q q 9 o 1 @ X 6 t t t r r t t t q e r y e y B N B J v.v.",
"x.x.x.J J B J L N e 9 i l h 4 : s e e a 3 / ^ ! k h p f w w w q q q q q e q q 0 6 o 6 0 r e r r t t e e e e e t t n N B B J v.B ",
"c.x.x.x.J u N N t w 7 h l 4 ; ; 7 e m a 2 l l l j : ; f w e w e q q q q q q q q e q q q q q e e t e t y y y y y N N B B B B B v.",
"c.x.x.x.J u y y t e 8 > h : * O 7 e w * 2 5 5 5 h > , w e w w w q e e e t q q e e e q t e y e e y u u u J u y u B B J B x.v.x.B ",
"c.c.J x.u y t y N e q 6 o 6 s 8 e e 9 * 2 3 4 4 : ; , q e e e q e t r q q q q t q q e e y u x.x.B B x.B B B B B B x.B v.B v.B x.",
"c.c.B B u y y y y t e y e w t e t t r , ; : ; < ; , , q e q q q t t e q q e q e e y u u u x.c.x.x.v.x.x.B B v.v.B x.B v.v.x.B v.",
"c.c.B c.u y y y y y y e r D Z.D.N e q q 6 O O O O O 0 q e q e e t t q e t r t y y y u u x.x.c.b.x.x.x.B J K x.v.x.v.B x.B v.v.x.",
"c.x.B J B N y u u u u y r t t H y e e e e w q 9 0 0 q q e e e t t y t t t t y N y u c.c.b.c.c.c.B v.B x.B x.B x.B x.v.x.v.x.B v.",
"c.x.u x.x.u u u x.x.u u B y y y y e e e e e e e e q e t y y y u N N N t N y N B J J u c.c.c.c.c.x.B v.B K x.x.x.v.x.v.B B x.v.V ",
"x.c.c.x.c.x.c.c.x.x.c.x.c.u u y u u u y u y u y y y y u u x.u u u u N N N B B x.J u J c.c.c.c.x.x.x.B x.x.x.x.K B x.B v.v.x.x.v.",
"c.c.c.c.c.c.x.c.c.b.c.b.c.c.J u u u u u u u J u x.u J x.x.x.x.J x.J J B J B J B B c.B c.c.c.c.c.c.B x.x.B x.x.v.v.B v.B B v.v.x.",
"b.b.c.c.x.c.c.c.c.c.b.c.b.c.c.J x.c.c.c.x.c.c.x.c.c.c.c.c.J J J B J J J N J J J B c.x.c.c.c.c.c.c.B c.x.B v.x.B v.x.x.x.v.B v.x."
};
