/* XPM */
static char *result[] = {
/* columns rows colors chars-per-pixel */
"64 64 245 2 ",
"   c #131312",
".  c #231D19",
"X  c #35271A",
"o  c #383726",
"O  c #3D3A32",
"+  c #322D26",
"@  c #482A1C",
"#  c #5C361D",
"$  c #47341E",
"%  c #66381D",
"&  c #753B1A",
"*  c #492E22",
"=  c #493828",
"-  c #543223",
";  c #5C3524",
":  c #5B3B2C",
">  c #563829",
",  c #4A3730",
"<  c #563E30",
"1  c #643A26",
"2  c #6B3C24",
"3  c #6B3E29",
"4  c #633A29",
"5  c #723E26",
"6  c #643F30",
"7  c #37472B",
"8  c #3A532E",
"9  c #3B4731",
"0  c #3A5D34",
"q  c #385832",
"w  c #2E482B",
"e  c #366535",
"r  c #396535",
"t  c #396A36",
"y  c #3B6D39",
"u  c #3B6438",
"i  c #3E733C",
"p  c #3F793D",
"a  c #7E421D",
"s  c #47472B",
"d  c #57462C",
"f  c #47582F",
"g  c #474932",
"h  c #574A32",
"j  c #425C34",
"k  c #4B5735",
"l  c #575937",
"z  c #52522B",
"x  c #69442A",
"c  c #74442B",
"v  c #794428",
"b  c #684632",
"n  c #774834",
"m  c #6B5636",
"M  c #775735",
"N  c #70532D",
"B  c #426435",
"V  c #436C3B",
"C  c #48663A",
"Z  c #41763F",
"A  c #41793F",
"S  c #4A743D",
"D  c #4D6535",
"F  c #6F653C",
"G  c #584945",
"H  c #515252",
"J  c #70564C",
"K  c #437541",
"L  c #437C40",
"P  c #4A7C45",
"I  c #4B7848",
"U  c #517B4D",
"Y  c #547850",
"T  c #6A734F",
"R  c #505B64",
"E  c #576773",
"W  c #707270",
"Q  c #86431E",
"!  c #854A2B",
"~  c #8C4D2C",
"^  c #854726",
"/  c #944E2A",
"(  c #99532C",
")  c #834C33",
"_  c #884E37",
"`  c #8C533B",
"'  c #875337",
"]  c #93563C",
"[  c #95593D",
"{  c #9C5B3C",
"}  c #965435",
"|  c #87572C",
" . c #A7592E",
".. c #B85C28",
"X. c #AB5D33",
"o. c #A35E3D",
"O. c #A65B36",
"+. c #836F3B",
"@. c #AB613C",
"#. c #A7623E",
"$. c #BB653A",
"%. c #B76438",
"&. c #D8692C",
"*. c #CC6D3B",
"=. c #C46838",
"-. c #D76E36",
";. c #D3713C",
":. c #DC743B",
">. c #CD6328",
",. c #EB7A3D",
"<. c #E57539",
"1. c #FD7C33",
"2. c #F37E3E",
"3. c #F97B35",
"4. c #F6752E",
"5. c #CE5D1C",
"6. c #985D41",
"7. c #8D5C46",
"8. c #9A6445",
"9. c #947057",
"0. c #AA6442",
"q. c #A86746",
"w. c #B56A45",
"e. c #BB6B44",
"r. c #B36A46",
"t. c #BC7149",
"y. c #A97559",
"u. c #B97756",
"i. c #8A756F",
"p. c #B87E65",
"a. c #C26E43",
"s. c #CB7345",
"d. c #C4744C",
"f. c #CB764B",
"g. c #CC794D",
"h. c #C47146",
"j. c #DE7943",
"k. c #D57B4C",
"l. c #DA7C4B",
"z. c #D67543",
"x. c #C57D58",
"c. c #D67E51",
"v. c #E47C45",
"b. c #EB7E43",
"n. c #E27D49",
"m. c #F17F41",
"M. c #448242",
"N. c #498546",
"B. c #468843",
"V. c #498A46",
"C. c #4C844B",
"Z. c #4C8B4A",
"A. c #46834A",
"S. c #51874D",
"D. c #4D914B",
"F. c #51924E",
"G. c #4B8353",
"H. c #558954",
"J. c #579455",
"K. c #59876B",
"L. c #678A67",
"P. c #689968",
"I. c #658D77",
"U. c #779878",
"Y. c #738B76",
"T. c #70A36F",
"R. c #71885A",
"E. c #FD813B",
"W. c #FC823A",
"Q. c #E9803F",
"!. c #8A897D",
"~. c #B28672",
"^. c #AD8D61",
"/. c #D28657",
"(. c #ED8045",
"). c #E9824B",
"_. c #F48244",
"`. c #FE8542",
"'. c #FE8A45",
"]. c #F7874A",
"[. c #F48D52",
"{. c #CE9170",
"}. c #F39C6B",
"|. c #FCA677",
" X c #EFA274",
".X c #6A7A85",
"XX c #76958A",
"oX c #7B8C95",
"OX c #728F8D",
"+X c #7C98A5",
"@X c #829789",
"#X c #878D94",
"$X c #989799",
"%X c #918E89",
"&X c #A79890",
"*X c #8EAA92",
"=X c #AFAA9A",
"-X c #87A7A8",
";X c #99A3A7",
":X c #93ADB4",
">X c #A9A9AB",
",X c #ACB2B3",
"<X c #B9B7B6",
"1X c #B1ABAC",
"2X c #8397A1",
"3X c #CBA693",
"4X c #FCB589",
"5X c #F1B390",
"6X c #CCBCAF",
"7X c #D4AA96",
"8X c #BDC5BB",
"9X c #FAC6A7",
"0X c #EECBB3",
"qX c #C3C0BD",
"wX c #ADBACE",
"eX c #C9BBC0",
"rX c #B9C5C7",
"tX c #B9C6DA",
"yX c #B9D2D8",
"uX c #A0C1C5",
"iX c #B2CAE5",
"pX c #C7C8C7",
"aX c #C4CCDB",
"sX c #C8D4D7",
"dX c #D7D9D8",
"fX c #D6CFC9",
"gX c #F0D8CA",
"hX c #E7E4DA",
"jX c #F9E8D9",
"kX c #F8E1CE",
"lX c #D5DEE4",
"zX c #DEE6EA",
"xX c #E6E7E9",
"cX c #FBECE2",
"vX c #F4F3ED",
"bX c #FDF4EB",
"nX c #FCF9EE",
"mX c #F2F0E5",
"MX c #F4F4F3",
"NX c #FDFCF3",
"BX c #F5F7FA",
"VX c #FEFEFD",
"CX c #F8F8F7",
"ZX c #EDF2F4",
"AX c #DEE4DA",
/* pixels */
"M.M.M.M.M.L L M.p M.p M.p p L L L L L L L p Z K Z i K i Z Z Z A L L L L A L L A.L L M.M.M.B.M.M.M.B.M.B.B.B.B.B.B.M.B.B.M.B.B.B.",
"M.B.M.L M.L M.L M.M.M.p M.L L L L L L L Z p Z Z i K i K Z Z A.p L A L L L Z L M.M.L M.M.M.M.A.L M.M.B.B.B.B.B.M.M.B.B.M.M.M.M.M.",
"B.V.M.A L L L M.L L L M.L L L M.L L A.Z Z Z A.A Z Z K i i K L p A A L Z L Z L Z.M.M.M.M.V.H.F.L p M.M.B.B.B.B.M.M.B.M.B.B.M.M.M.",
"M.B.M.M.L L L L L M.p M.M.p M.L L A A K i K Z A.Z Z Z K A.p p Z L L Z L Z L L A.M.L M.B.J.T.T.I k C L B.B.B.B.B.B.M.B.M.M.M.M.M.",
"M.M.M.L L L M.L L L L L p L L L p A.A i i K i A.Z Z Z A A A A A.L L L Z L L L L M.M.L B.F.H.C.V d 4 k B.Z.B.B.B.M.B.B.B.B.M.M.M.",
"M.M.L L L L M.L M.L L L B.M.L L p A.Z Z K K i Z Z A A Z A A A A L p Z L L Z L L M.M.M.L L L Z 0 : 2 x j M.B.M.B.M.B.D.V.M.M.M.M.",
"M.L L L L L L L M.L Z.Z.B.L L L A.A Z Z Z Z Z Z A A.Z Z Z A A Z Z Z L Z L p Z L A M.L L L A Z g ; 2 c b C V.B.B.B.B.D.B.V.B.M.M.",
"M.L L p p L Z.B.M.D.D.V.L p p p i A.i Z Z Z Z Z Z Z i K Z i Z A Z p Z Z L Z Z L L L L A Z L V O - 2 2 x h P B.M.B.V.D.B.V.B.M.M.",
"M.L L L S M.D.D.F.F.Z.M.L L i K L Z Z Z Z Z Z i Z V B j j j j j Z K p L A A A A A A A A A Z j = - 1 2 5 x C L B.M.V.D.B.V.V.M.M.",
"A L L L A M.J.J.J.Z.N.P L K p P A.K A Z Z Z i p B s % % % # ; * 8 y p K A A A Z A A A A Z r s * * 1 1 2 3 h V L M.D.D.V.V.V.M.M.",
"M.A L K S P J.J.C.A.M.L Z Z K L L A A A Z Z Z Z f x c n c v & % % $ 8 Z A A p A A p Z Z f ; 4 - * - 1 1 3 b j K B.D.V.Z.V.N.N.M.",
"p M.L L K N.J.S.A.M.M.L K K L L Z A A Z Z Z p Z D x 9.~.!.J 7.& a % # = r A A A p Z Z D x ! 2 @ * - - 1 5 3 d C V.F.Z.Z.Z.N.N.M.",
"M.L B.Z.P S.S.C.P A.L Z Z Z L K Z Z Z A L p Z K f N 3XzXaX:X#Xi.) a & % * 9 Z A A i B | $. .1 @ * ; 1 1 2 2 x Y H.S.Z.V.N.N.M.M.",
"p L M.C.I S.S.I P L L Z L L L Z Z Z A A Z Z p L r d 1XBXxXaXtXwX$X8.Q & % X 7 V B s ( <.Q.%.5 2 ^ ~ / ^ 5 v x T U.P.S.Z.Z.V.N.M.",
"K K K K K U G.P P L L L Z L L Z K K K I I p K M.B h <XBXZXaXaXtXwX>Xy./ Q % X X x %.W.'.W.;.%.%.$.%.O./ ^ / ~ m U.*XP.Z.F.V.M.L ",
"S K K I Y.U I P M.L L L Z Z Z Z K K u K L p p A.V g 6XVXVXxXaXaXiXwX1Xu.../ % & ..'.W.'._.m.2.v.-.s.=.%. .( } x W L.L.F.Z.N.N.L ",
"K K K L.<XU.I P L L L A L L L Z Z Z L Z p p L A.V g 1XVXVXvXzXaXaXiXwX{.*.....*.Q.`.`.'.`.`.`._.m.m.m.m.<.$.( 3 G H.H.C.N.L L N.",
"K K K U.sXqXL.L L A K A L Z p L Z Z Z Z L Z p L y o &XnXVXMXdXeXrXtX1Xp.>.-.<.`.`.`.`.W.`.`.`.`.m.m.m.].m.v.X.& g I K K L L N.A ",
"L L Z U.AXvXpX!.P.Z.M.A Z A p p p L L L Z L L Z y 7 i.dXVXMXfX3X{.p.u.$.-.W.`.`.`.`.`.`.`.`.`.`.`.`.].m.].].*.^ s Z Z L A M.A M.",
"L A A @XdXNXnXAXpX=XU.J.P A K p p p Z p L p L p i w G 6XBXxX3Xy.X. .>.<.(.'.'.`.`.`.`.`.`.`.`.`.`.`.m.].m.m.z.O.# u Z L M.A M.A ",
"L L L XXdXNXNXNXnXmXAX8X*XJ.p p L Z Z L p p L L p q g !.pXeX&X8.o.=.,.E.'.`.`.`.`.`.E.`.'.`.`.`.`.m.].m.].m.n.=.v s Z L A A L A ",
"M.L L Y.pXNXnXNXnXbXbXjX0X~.R.I Z L p p L Z p Z p u o J $X,Xi.6.@.n.'.`.`.'.`.`.`.`.`.`.W.`.`.`.`.].`.m.].b.b.l.@.- C L S L A A ",
"M.A M.H.,XmXNXnXbXjX0X0X5X}./.^.T L Z L p Z L p p Z o ; i.>X&Xu.:._.].m.W.].`.`.`.`.`.`.`.`.`.`.`.`.m.m.m.).b.n.=.1 B L A A A A ",
"M.A A G.$XdXNXnXbXkX9X X}.).].[./.T L Z L L Z L K K q * 7.~.3X}.(.m.,.,._.W.`.`.`.`.`.`.`.`.`.`.`.`.`.].m.n.n.).;.c k A A A L S ",
"M.M.A M.%X6XcXbXjX0X7X).[.).).].[./.T p A A A A A M.t o 5 0.x./.l.z.:.<.2.`.`.`.`.`.`.`.E.`.`.`.`.`.`._.b.b.m.].j.~ f Z A A M.A ",
"A A L P XX&X6XkX0X{.{./.).n.n.).(.[./.S A A A Z A A Z w - / $.d.h.;.:.,.2.E.`.`.`.`.`.`.`.`.`.`.`.`.`._.b.m.b.b.(.%.d Z A A M.A ",
"L L L L L.%X3X5X3X/.x.c.c.l.n.n.v.).).+.S Z A A A A Z q o ^ o.r.$.*.<.b._.W.`.`.`.`.`.`.`.`.`.`.`.`.`._.m.z./ / :.:.! B A L A A ",
"L L L L H.&X~.{.{.x.u.x.d.f.k.l.k.k.).).F Z A A A A A p w 3 } @.$.;.,.`.`.'.'.'.'.`.`.`.`.'.`.`.E.E.1.,.m./ X . @.Q.$.z A A A A ",
"L p L L L 9.p.~.y.r.r.q.t.u.d.d.d.d.f.l.r.D i V V S L S j - ! O.$.z.Q.'.`.'._.Q.W.'.'.`.`.`.W.1.1.1.1.&.4.Q     ( (.,.v S A A A ",
"L M.L L A Y 8.q.q.6.6.6.q.q.r.q.r.r.d.a.O.N z m N N +.+.m > ! #.=.<._.W.'.Q.%.v  .(.'.'.E.1.1.W.}.4X4X/.k.%.& & ..&.3.=.k A A A ",
"L L L L A S M ' 7.] ] 6.6.6.6.6.8.q.6.) ^ ~ ( ..=.-.;.%.c 1 / %.h.v._.'.'.$.@   X %.'.W.4.W.}.9XkXjXhX6X=X{.u.z.<.<.'.9XW L A A ",
"p M.L p M.A S n _ ` ` ] ] ] ` _ ` n 4 2 / =.<.,.,.Q.(.$.x ; [ e.f.j._.'.'.( .   . ( 1.W.[.4XjXCXrXoX2XrXrX<X6X6X5X4X9XNX8XC.A A ",
"L L p K Z L L l b ) _ ` ` ` } 7.n - 2  .<._.`.`.].m.v.$.; - } a.k.j.m.'.'.=.3 X & 5.W.|.kXnXVXBX#X. H rXlXdXlXzXCXbXNXVXyXG.M.L ",
"L M.L L K L p K G b 3 ) ) _ _ n 4 1 X.2.'.'.`.].].m.n.} @ @ ~ $.*.:.<.2.`.3.&...&.'.4XbXVXVXVXBXpXW $XAXMXMXBXBXVXVXVXzX+XV.L M.",
"L L L Z p L L Z p B < 6 6 3 b 6 - ~ :.`.`.'.m.m.m.b.=.5 X - 7.u.g.z.;.:.W.W.W.'.|.0XnXVXVXVXVXVXVXBXBXCXBXVXVXVXVXVXMXuXK.M.L M.",
"L L L L L L Z L L K K k < 6 > > 4 O.v._.]._.m.v.z.a.~ @ G i.&X&X3X7X X X X|.4X9XcXVXVXVXVXVXVXVXVXVXVXVXVXVXVXVXVXBXrXOXA.M.B.B.",
"L p L p L Z Z Z Z Z p K u k h > 3 O.z.n.n.b.n.z.a.} > H $XeX<X,X8XfXjXcXjXcXbXVXVXVXVXVXVXNXVXNXNXVXVXVXVXVXVXVXZXyXK.B.B.M.B.M.",
"L L L L L K K L p Z Z Z Z Z K l b o.s.l.n.n.l.k.$.] G E ;X<X>X>X,XrXzXVXVXVXVXVXVXVXCXNXNXnXNXNXNXNXVXNXVXVXVXVXyXOXA.M.B.B.M.B.",
"A A p p Z Z L Z p Z Z p A A Z K b [ f.l.l.z.c.g.a.0.7.J E .X.X#X$X>X<XdXMXVXVXVXNXNXNXNXnXnXnXNXNXNXnXNXVXVXVXlXXXG.M.M.M.M.M.B.",
"M.M.A p Z Z Z Z Z Z L p Z Z Z Z l ] f.l.k.f.f.f.d.w.q.7.R R R .X.XoX=X<XdXnXNXNXNXNXnXnXnXnXnXNXNXNXNXVXVXCXsXXXG.M.p M.p M.M.M.",
"A A L Z Z L K p Z Z p A p Z A.i j ' d.k.s.s.f.g.d.d.e.6.J H H H R R .X#X>XeXxXMXNXNXVXNXNXNXNXNXNXVXVXBXzXrXOXG.B.p M.M.M.M.M.M.",
"A M.L K Z p K Z Z Z A A.A.p p A C m d.k.h.e.d.d.x.f.d.r.o.6._ 7.n b G R .X#X>XpXxXmXnXNXNXNXNXMXvXxXdXrX-XI.G.M.p B.M.p M.M.M.M.",
"M.M.M.L L p p Z p Z Z A.Z A p A Z l t.k.a.0.0.t.f.d.d.d.w.@.{ } } ! 5 6 G R .X.X-X,X<XpXfXsXrX<X,X;XXXK.G.V.M.M.B.M.M.M.M.M.M.p ",
"M.A M.L K K L Z Z Z A p Z p Z p Z k r./.h.0.6.o.d.g.g.d.d.r.0.o.6.6._ _ ) 6 G H E OX+X2X+XoXoXoXoX*XU.A.B.M.L M.M.B.B.M.M.M.M.M.",
"L L N.L p A A L A Z A.Z Z Z A Z V l r.c.f.r.7._ 0.f.k.f.d.d.e.q.o.o.6.{ } } } _ 7..X:X-X+X+X+X:X:XuXP.B.M.M.M.M.B.A.B.M.L M.L B.",
"L L L K K A Z Z A Z i Z A A A Z y k r.c.k.a.{ ) _ o.a.l.l.k.d.w.w.w.r.0.o.O.@.X.X.t.=XaXyXtXlXyXuX*XF.B.M.L M.B.B.B.M.M.M.L M.M.",
"M.L A A Z L A Z A A p Z p A L L K g 6.f.g.f.a.6.b 6 n o.s.k.f.e.w.a.a.a.a.$.e.=.=.=.3XhXBXBXBXrX*XT.V.M.M.M.M.B.B.M.M.M.M.L L M.",
"M.M.L A Z Z A Z Z A K p p Z Z L y , _ r.r.h.h.n 8 w o = n { #.#.@.e.d.s.s.s.s.*.*.l.5XkXNXVXMX=XY F.V.M.L M.B.B.V.N.M.P M.M.A.L ",
"A M.A A A A A A A Z K Z i Z i y 0 , ' o.o.o.' s u e o + o = d b ) #.s.j.v.j.j.:.:.{.0XbXnXbXfX{.F D.V.A N.J.L.D.D.V.A N.M.M.M.A ",
"M.M.M.M.A A A Z Z Z p y y y t u 8 , n } { ) s q t e q o + . 7 0 f ' *.v.(.,._.`.&./.fXVXvX6X{.k.F M.N.L U.;X,X*XP.V.M.M.A M.M.N.",
"M.M.M.p A A Z K V t t e e e t u 8 = 3 c c s q r e e e q w w e e r M a.(.,.,._.`.&.q.pXvX6Xy.e.*.M S N.K L.Y.U.!.U.N.M.M.M.M.S N.",
"M.M.M.p i Z y y y u e e u e t t w * 3 2 ; s u t e e e e e e e e r l #.;.v.<.,.`.-.8.!.@XW ' O.%.v j A.P I Y Y U N.A S N.M.A N.M.",
"M.B.p p p t i Z y e e e e t e t w o # ; # 7 e t e e e e t e e e r l ' @.=.=.*.<.%.M D C k 6 _  .v g A A Z A A A A A M.A M.M.A N.",
"M.p M.p i i Z A y t t e t t e t 8 o @ $ o w e e e e t t t e t e r g x ! / ( X...| d u u g d c ^ ^ s 0 t t y y V A A M.M.A N.A M.",
"M.p M.p p p i L K y i i y t i t t 8 w 8 8 e t e e t t t t e e e u j d 3 ^ ^ ~ ~ v d B u f , : 4 5 2 s e y y t t V A N.M.M.A N.M.",
"M.M.p M.p A A M.P p p p p i i i i y t t t t t t t t t t t e e t u u , : x v v v % d u t r , , d 2 v d 0 t t t t t i A S M.M.N.A ",
"M.M.L L L L L M.B.L L M.L p p p p p i i t t t t t t t t t e e e t u , > 6 3 3 5 2 > f t t 9 , , ; 1 = 0 t t y y t y Z A M.M.A M.",
"M.M.L L M.L L M.B.M.L M.M.M.L M.M.L p p p p i t t t t t t t e e y 0 9 , : 4 3 2 1 > s t t r 8 7 7 7 8 t t t t y y i A A M.M.M.M.",
"B.L L L p p p L M.M.M.M.L C.T.T.D.B.M.M.p p p p t i t t t t t t y u 9 , , > , > , , q i y t i t y t t t t y y i i i A A N.A S N.",
"M.M.L L L p L p M.M.M.M.P P U G.B.p M.p M.p p p i i i i i i y y y u 9 O , O O O 9 q e t y i t i t t t t i V Z Z A A A M.A M.M.N.",
"p M.p M.p p M.M.M.M.M.M.M.M.B.B.B.M.p B.M.p M.M.p p p p p p p p A y y 0 q 0 u e t t t t t t y t t t y i Z Z Z A A A M.A M.M.A N.",
"B.p M.M.B.p M.M.M.M.B.B.M.M.L M.M.M.M.p M.M.M.p M.p p p p p p p A L L Z Z i y y t i t i p p p p A i p A A M.A L M.A N.M.M.M.A M.",
"M.M.M.M.L M.M.M.M.B.B.M.M.M.M.M.M.M.M.M.M.M.M.M.M.p p L p M.L L L M.L A L A L A p p p p p p p p p p p A M.A M.A M.M.M.M.N.A N.M.",
"M.M.B.M.M.M.M.M.B.M.M.B.M.B.M.L p B.M.M.M.p M.M.M.M.M.B.L M.L M.L A L L Z L L L p M.L M.M.M.M.M.M.A M.M.A M.M.M.N.A N.S M.M.N.A "
};
