/* XPM */
static char *result[] = {
/* columns rows colors chars-per-pixel */
"64 64 242 2 ",
"   c #141413",
".  c #221B16",
"X  c #34291B",
"o  c #2E2725",
"O  c #3A3727",
"+  c #3C3B32",
"@  c #323128",
"#  c #472A1C",
"$  c #55341E",
"%  c #4F341C",
"&  c #69391C",
"*  c #773B17",
"=  c #4A2C22",
"-  c #512F21",
";  c #483727",
":  c #553422",
">  c #5C3524",
",  c #5C3A23",
"<  c #533A2D",
"1  c #5C3B2B",
"2  c #513B2B",
"3  c #443830",
"4  c #643A25",
"5  c #6C3D25",
"6  c #653C28",
"7  c #723F24",
"8  c #703F29",
"9  c #38472B",
"0  c #3A4631",
"q  c #3B5533",
"w  c #3A5C33",
"e  c #355832",
"r  c #3B552D",
"t  c #366635",
"y  c #396535",
"u  c #396B36",
"i  c #3B6D39",
"p  c #3D6339",
"a  c #3D733B",
"s  c #3F793D",
"d  c #474729",
"f  c #59492C",
"g  c #494931",
"h  c #594733",
"j  c #435432",
"k  c #445B32",
"l  c #4B5835",
"z  c #575433",
"x  c #49532D",
"c  c #68422A",
"v  c #7B4325",
"b  c #72422B",
"n  c #7B462C",
"m  c #764527",
"M  c #674833",
"N  c #7D4933",
"B  c #754935",
"V  c #7A5737",
"C  c #6C512E",
"Z  c #456739",
"A  c #586838",
"S  c #41763F",
"D  c #41793F",
"F  c #776537",
"G  c #62471F",
"H  c #595657",
"J  c #544C4C",
"K  c #6B5852",
"L  c #6E5647",
"P  c #476B42",
"I  c #437441",
"U  c #427C40",
"Y  c #4A7D46",
"T  c #4C7D49",
"R  c #497748",
"E  c #51784E",
"W  c #6E6B53",
"Q  c #525C65",
"!  c #566D6B",
"~  c #68676A",
"^  c #626E77",
"/  c #75706C",
"(  c #88441E",
")  c #844B2B",
"_  c #8A4C2C",
"`  c #834726",
"'  c #95512D",
"]  c #9B542E",
"[  c #834C34",
"{  c #8A4E33",
"}  c #8B5437",
"|  c #945333",
" . c #9B5635",
".. c #9D5A3B",
"X. c #965838",
"o. c #8C512A",
"O. c #A6592C",
"+. c #B25E2E",
"@. c #AB5E34",
"#. c #A35C3B",
"$. c #A55A34",
"%. c #B15E34",
"&. c #AC613B",
"*. c #A7613B",
"=. c #B5653B",
"-. c #BA6537",
";. c #846F3B",
":. c #CA652D",
">. c #C46B3C",
",. c #CC6E3C",
"<. c #C76835",
"1. c #D36E37",
"2. c #CC723E",
"3. c #DB743D",
"4. c #D7733C",
"5. c #D86A2D",
"6. c #EC7A3D",
"7. c #E4773B",
"8. c #FF7C34",
"9. c #F37C3B",
"0. c #F5752D",
"q. c #925E47",
"w. c #A15F40",
"e. c #9C6547",
"r. c #876653",
"t. c #966D5C",
"y. c #A56242",
"u. c #AB6442",
"i. c #A16C45",
"p. c #B56944",
"a. c #BC6C43",
"s. c #B46944",
"d. c #BC714C",
"f. c #AF7654",
"g. c #85736A",
"h. c #8C7267",
"j. c #A57A6A",
"k. c #C36F44",
"l. c #C47145",
"z. c #CC7344",
"x. c #C5744B",
"c. c #CA764B",
"v. c #CC784C",
"b. c #D37543",
"n. c #DC7944",
"m. c #D47A4A",
"M. c #DB7C4A",
"N. c #D47747",
"B. c #C97E59",
"V. c #E47C44",
"C. c #EB7D43",
"Z. c #E37F49",
"A. c #F37F41",
"S. c #448242",
"D. c #498546",
"F. c #468843",
"G. c #498A46",
"H. c #4C844A",
"J. c #4C8B4A",
"K. c #46814B",
"L. c #51874D",
"P. c #4D914B",
"I. c #51924E",
"U. c #548A54",
"Y. c #589556",
"T. c #5B8C75",
"R. c #588965",
"E. c #739975",
"W. c #68916F",
"Q. c #76A676",
"!. c #FD823D",
"~. c #FA833B",
"^. c #E8803F",
"/. c #888A7B",
"(. c #B58871",
"). c #D18255",
"_. c #EC8146",
"`. c #EA8249",
"'. c #F48243",
"]. c #FE8542",
"[. c #FF8B44",
"{. c #F8894C",
"}. c #FA8E53",
"|. c #FD9759",
" X c #E68C5B",
".X c #CD9272",
"XX c #FD9D67",
"oX c #FAA677",
"OX c #F4A274",
"+X c #717B82",
"@X c #7C9888",
"#X c #768993",
"$X c #7C929C",
"%X c #748486",
"&X c #79A1A5",
"*X c #8E8F8F",
"=X c #B1978E",
"-X c #92B094",
";X c #B2A190",
":X c #8F9FAC",
">X c #94ADB1",
",X c #A8A9AA",
"<X c #A8A9B5",
"1X c #AAB7B8",
"2X c #B8B8B8",
"3X c #B1B1AC",
"4X c #A39DA8",
"5X c #D3A88F",
"6X c #FCB28A",
"7X c #FEBD97",
"8X c #F6B18C",
"9X c #CFB9AD",
"0X c #BDC2BF",
"qX c #FFC49D",
"wX c #FED3BA",
"eX c #F3C7AE",
"rX c #C6C1BA",
"tX c #AEB8C8",
"yX c #9EB9C0",
"uX c #B9C4C4",
"iX c #B7C7D2",
"pX c #B7C9E4",
"aX c #C9C9C8",
"sX c #C6CBD5",
"dX c #CBD3D7",
"fX c #DAD9D9",
"gX c #D1CDC9",
"hX c #EBDCD1",
"jX c #E8E3DB",
"kX c #F9E6D9",
"lX c #FFE7CA",
"zX c #DADDE5",
"xX c #C7D7E2",
"cX c #D6E3E8",
"vX c #E7E9E7",
"bX c #F8EEE4",
"nX c #FAF7EC",
"mX c #F4F4F4",
"MX c #FDFCF3",
"NX c #FEFEFD",
"BX c #F9F8F5",
"VX c #EBF0F2",
/* pixels */
"S.S.S.S.S.U U s S.S.U S.s s S.U U S.D S.D s S S S I a I S S I D D U D U U U U U D S.S.S.S.S.S.S.S.F.S.F.F.F.F.F.F.S.S.F.S.F.S.F.",
"S.F.S.U U U S.S.S.U S.s U U s U U U D D D D s S S a S S S U K.D U U U D U D S.K.S.U S.S.S.S.S.S.S.S.F.F.F.F.F.F.S.F.F.S.F.S.S.F.",
"F.F.S.U U S.U S.S.U S.S.U s S.U U U D S S S U K.S S S I S S s K.U U U D D D S.H.S.S.F.S.F.I.P.S.D D U F.F.F.F.F.F.S.S.F.S.S.S.S.",
"S.F.S.S.S.U U U U U s U U S.U S.U s K.a S S S R I S S a s s s D D D D D U U U D.U S.S.S.Y.@XE.F.S l Z F.F.F.F.F.F.S.F.S.S.S.S.F.",
"S.S.S.S.s U S.U s U U U S.S.U U K.s K.S a a S K.S S S D D D D D U D I U S D U U s S.S.F.J.U.J.U Z 4 c Z D.F.F.S.F.F.G.S.F.S.S.S.",
"S.S.U U U U U U U U S.S.S.U U U s s s a I S a S S S D S D D D D U U D S U U U U S.S.S.S.S.U U I j 4 7 h Z G.F.S.S.F.P.F.S.F.S.S.",
"S.S.U U U U U U S.S.J.G.S.S.U U U K.S S I a a S S K.S S S D D S S D D U D D D D U S.U U U U U Z 3 4 5 5 h P F.F.S.G.P.G.G.F.S.S.",
"U U U U s U J.F.K.P.P.F.S.s s s S K.S S S I S S S S a S S S S D D S D S D D S U D U U U I U U Z ; > & 7 M l F.S.F.G.P.F.G.S.S.S.",
"S.S.Y D D S.I.P.P.I.J.S.U I I I U S S S S S S S S S Z l k j j j S s D D D D D S D U U D D s S w = > 4 5 8 h Z S.F.G.P.F.G.G.S.S.",
"D D S.D S S.Y.Y.I.J.D.S.U I U U U S U S S S S S S x $ 4 & > > = ; e S D D D D D D D S D s Z j ; - - 4 5 8 b g D S.G.P.G.P.S.S.S.",
"S.D D D S Y Y.Y.L.D.S.U I S I U U U D D S S S S S f * & 5 * & * & $ ; w D D I s D D S S S x , > = - > 4 8 8 M k F.P.J.J.J.D.S.D.",
"D S.D D Y T I.U.K.Y S.U I S U U S U S S S S S S s % q.j././ q.8 * * & % 9 a s S S D D S x m n 4 = = - : 4 5 8 g G.I.G.P.G.D.D.D ",
"S.S.S.G.T L.L.H.Y U U U S S U U S S D D D S s D S.% r.rXsXtX4X*Xr.v * & - # p s D s i f O.-._ % # = > 4 5 4 4 M E Y.J.G.G.D.D.S.",
"D D S.D.R L.T T Y Y U S D U U S S S S U D D D S.E.f h.fXVXsXtXtX<X/.q.* * # X r Z r f +.^.3.] 5 5 [ ] _ _ 7 7 8 W Y.L.G.J.G.D.D ",
"U I D R P H.K.T Y U D U S D U I S S I R U I Y @XgX} h.fXVXzXsXpXtXtX=Xq.( * - X 9 ` 1.6.~.^.,.&.%.%.$.' ` ` _ _ L -XW.G.I.G.S.S.",
"S S I Z P R T Y S.U U U D D a I S P i I U R W.0XMXW / fXBXVXzXsXsXtX<X(.-.O.( & ` 1.~.[.!.'.^.7.b.z.,.<.%.] ' ' M E W.I.J.D.D.D ",
"P S P S P Z R Y Y D D S D U U S S S D D D W.3XhXMXW g.fXNXmXvXzXsXxXpX3XB.:.+.+.1.~.[.].].].!.'.A.C.A.C.V.,.%._ 6 P U.H.D.Y S.D ",
"D P S I S R D D S S U U U S D S S S D U U.4XeXwXbXE.K gXNXBXkXfXsXsXtX=Xd.1.5.6.A.].].].].].].].A.].].A.'.C.4.] 4 g I D U U S.S.",
"U D D D D D D D U U U U U D S s D D D K./.5X8X7XkX(.h =XBXNXvX9X=XB.(.a.>.3.'.].].].].].].!.].].].].].'.'.].C.-.7 d S D D S.D S.",
"S.D D D D Y D D S U U S S D s U D D D ! f. XXXoXqX(.h / fXmXgX=Xf.u.<.1.7.9.].].].].].].].].].].].].].'.'.'.C.2.' ; Z D S.D S.D ",
"S.D D D D D Y D S U U U U S s D D D Y r.a.C.{.}.oX.XC J ,XsX;Xf.e.u.1.A.'.{.].].].].].].].].].].].].].'.'.'.V.b.-.m x D D Y D D ",
"D U U U D D D D U U S U S U U U D D W w.<.b.C.A.{.|.} f h.<X4Xt.w.x.A.A.].].].].].].].].].[.].].].].].'.'.'.`.n.,.] % D D D D D ",
"S.D D U D D D D S U D D D D s U D D } *.=.z.n.`.C.|.i.> 8 *X<X=Xc.V.A.A.'.~.].].].].].].].!.].].].].].].'.'.`.`.b.&.$ Z S D D D ",
"S.S.U U I U U U U U U U D D S D D A _ $.@.=.N.Z.V.}.B.8 > t.=X.XZ.C.A.C.6.'.!.].].].].].].].].].].].].].'.'.`.`.V.>.c l D D D D ",
"S.U U D U U U U U D U U D D S D D z o. .$.=.z.M.M.`.`.} % n d.).B.Z.n.7.7.A.A.A.].].].[.!.].].].].].].].'.A.C.'._.4.` x s D U D ",
"D D U U U U U S.U I D D U U D D S c [ X.#.&.l.v.m.`.`.C ; 4 ..p.x.z.1.7.A.A.A.].].].].].].].].].].].].].A.C.C.C.C.V.&.d D S.S.U ",
"S.U U U U U S.U D D U U U D D D Z 1 n [ X.*.p.c.m.b.2.S 9 $ | *.s.k.1.7.A.].].].].].].].].].].].].].].].A.V.1._ ] 7.4.n Z U D D ",
"S.U U U U U Y Y U D D S D U D D Z , b N } #.a.l.2.=.F D y ; N  .@.>.3.9.A.A.].[.[.[.].[.].].].[.].].!.9.6.3._   X =.'.&.x D D D ",
"s D U U U D U S.U D D D D U D D j : 6 N [ .. . . .o.A D A d 5  .@.,.7.9.].].].'.^.[.[.!.].[.].!.8.8.8.0.5.5.`   X &.'.3.v S S D ",
"S.U U U D D U U S U D D D D D D k : 6 b N n m v V o.F ;.C f b  .=.2.V.'.].[.3.' v -.].[.].!.8.8.{.XX6XOXB.b.+.& ( :.7.9.-.Z D D ",
"s D S.D D D U D U U U D D D D D Z : > , 4 v ' O.+.-.<.2.X.4 N #.s.z._.].[.'.' X . 4 4.[.8.8.[.oXwXbXbXhX9X;X(.).z.7.7.}.qX/ D D ",
"U S.s D U U U D S U S D s D s D I d = , ` +.1.7.7.^._.V. .: N *.a.b.`.'.[.7.m .   % <.~.].XXwXbXVX1X^ :XdXuX1X9X9X8X8XwXBX0XT D ",
"U U K.S D D D S s a S S S D S D U 9 > ' ,.A.A.A.A.A.C.n._ - 8 u.k.m.V.A.[.'.@.> - ' 0.{.7XkXNXNXdX~   H zXfXfXcXvXmXMXNXNXiXD.U ",
"U U s D D D D S s K.S U D D S S S 2 ' 4.A.].[.{.{.A.C.z.8 # 8 $.>.b.n.6.A.].9.:.:.0.|.wXMXNXNXNXVX2X*X3XmXVXmXNXNXNXNXNXcX&XS.U ",
"U U U U D U S S s S s s D D D D Z 7 <.C.].].A.A.A.C.n.$.> = [ w.d.v.N.1.6.8.!.!.|.7XkXNXNXNXNXNXNXNXNXNXNXNXNXNXNXNXNXVXyXT.U S.",
"S.U D U U D K.S D S S S D D D D z _ k.V.'.A.A.C.V.z.s.& - ~ *X*X;X5X5X8XOXoX6XqXlXMXNXNXNXNXNXNXNXNXNXNXNXNXNXNXNXNXmX1XT.S.F.S.",
"U U U U U U S U D S S K.D S D D h | a.n.V.C.Z.Z.k.%.[ 3 ^ 3X2X2X2XaXfXkXbXbXbXNXNXNXNXNXNXMXMXMXNXMXNXNXNXNXNXNXNXVXyXT.F.F.S.F.",
"U s s U S S S S s S a a D S D D f { a.N.Z.M.M.m.k.s.N H *X4X,X4X,X1XuXvXNXNXNXNXNXNXMXMXMXMXMXMXMXMXMXMXNXNXNXNXmXiXT.S.F.F.F.S.",
"U s U s S S U S S S s s D D S D z [ a.v.m.m.m.m.c.p.w.r.~ ^ +X+X*X:X,XrXjXnXMXNXMXNXMXMXnXMXnXMXMXMXnXMXMXNXNXNXiXT.K.s S.S.S.F.",
"U U U s S S S S S S s U D D D D l B p.z.m.m.v.c.c.k.s.w.J Q Q Q ^ E.*X,X2XfXnXMXMXMXMXnXMXnXMXnXnXMXMXMXMXNXmXuX%XL.S.s S.S.F.S.",
"U U D a D S S S S S D s s s D D I M u.c.c.z.x.c.v.x.x.u.r.K K K J H ^ +X*X<XsXvXbXBXNXMXMXMXMXMXMXMXMXMXBXcX1XT.F.S.s S.S.S.S.S.",
"U U U D D D S D S S D K.U D D D U l u.c.c.k.a.x.x.x.x.d.u.w.X.{ [ 8 1 J Q +X*X<XgXjXbXnXnXnXnXnXbXbXvXdX1X@X! K.S.S.S.S.S.S.S.S.",
"S.U S.U D S D S S S D s K.S s s U w i.x.c.a.y.s.x.x.x.c.x.s.w.#. ._ [ 8 M J Q ~ *X:X1XtXgXdXaXuX1X,X-X%XR.K.S.S.S.S.F.S.S.S.S.S.",
"U S.S.U U D D S S s S K.S S S s s p e.x.x.a.w.X.s.x.c.c.x.x.s.w.w.w.q.q.{ N 8 J H ! #X*X$X$X#X#X#X#X@XR.F.U S.S.S.F.F.S.S.U U U ",
"U U Y U I U S I D S D D S s D s U w q.B.c.x.y.{ q.s.z.z.v.c.l.p.u.u.y.w.w. .]  .} W *XyX:X&X&X>X>XyX-XP.S.S.S.S.F.F.K.S.S.S.U S.",
"U U S.U S U I D D S D S s D s D U w } x.c.c.s.X.[ } u.k.z.m.c.d.s.s.s.u.u.w.u.s.-.%.j.9XxXxXxXcXpXyXQ.P.S.S.S.F.F.F.F.S.S.S.K.S.",
"S.U U s I U D D S D D S U S D D U 0 B s.x.c.x.w.V < 1 { u.k.l.a.s.a.a.k.>.a.-.a.k.:.c.9XmXNXmXVX2XE.P.F.S.S.S.S.F.S.S.U U S.U S.",
"S.U U S S S D S S D S D D S D D D 0 b ..u.p.x.w.z e + o 1 [ .... .u.a.b.b.b.b.,.b.b. XeXnXNXNXjX=XH.P.F.U S.F.F.J.D.S.S.S.S.U S.",
"S.S.U s D D D D D D U s I S S i u 0 b X...#...f w t e o o X ; l M } =.b.n.V.V.V.7.V.5XjXBXbXhX9Xi.A G.S.H.R.Y.I.P.J.U S.S.S.D S.",
"S.s S.U D S.D D D S S S a a i u t 3 6 N X.{ 1 r t t t 9 @ o @ e r z *.b.C.C.6.'.9.1..XvXNXgX5X).-.A S.s E.;X3X-XW.D.S.Y Y S.S.S.",
"S.U S.U D D U U S S S Z I a i i w O 1 5 n 6 9 t t u t t e @ e t t l X.z.V.6.6.].].<.j.dXvX;Xy.=.-.C a I W.W.E.*XE.D.U S.S.S.Y S.",
"F.F.S.U D D U Y I D S S a i i u e @ > 4 4 ; p u t t t t t t t t t Z V =.4.3.3.6.6.+.r.E.@XV _ @.$.c Z Y P E E E H.S.U S.Y S.D S.",
"S.S.s U s s U K.U I I s a a i u e @ % $ % ; e t t t t t u t t t t w C | &.<.<.1.1.O.z Z P g 8 | ' c r D Z I I D D D D D.S.S.D.D ",
"F.s F.S.U U U K.U s s s S s a u t 9 X ; # O t u t u u t u t u t t y g b [ ' ] @.@.) g p w g 6 B m m d y i i i a D D S.D S.D S.D.",
"S.S.s s U U U G.U I s D D D s a u t e 9 e y t t t u u u t t u u t p x 1 b n ` _ ` c z t t j < 1 6 m & d u u u u Z D S.D.D S.D D.",
"S.s F.s U U U F.S.U S.U D D s a a u u u u u u u u u u u u t t t t i j < , 7 v v c , f i t q 3 < 1 c b d u u u u u a D D D.D.D S.",
"S.S.S.U S.U U F.K.S.S.S.U U s U s s a a i i u u u u u u u u t t u i q 3 1 6 8 8 5 4 2 k u t + ; 2 6 , d u u u u u i S D S.S.D S.",
"S.S.U D U U U U S.S.S.S.S.D F.S.S.S.s s s s a u u u u u u t u t i i q 3 < 1 6 6 5 4 2 k u u t e 0 9 9 r u u u Z i S D U S.S.S.S.",
"S.S.S.D U D s S.S.S.S.S.U H.E.E.J.S.S.s s s s a u i u u u u u i i i q + 3 3 < < < 3 0 t u u a a i u u u u u Z S a D D D Y D D S.",
"F.U U U D D s S.S.S.S.S.Y Y K.J.F.F.s S.U S.s s a a a a a i i i i p w 0 3 + + + + 0 w u a u u u u u u u u S S D D D D U S.S.S.S.",
"s F.s S.s s S.s S.S.F.S.S.S.F.D.F.U s S.s S.S.S.s s s a s s a s a a a t q e w p t u u u u u u a u i u a D D D D Y D S.Y S.D Y F.",
"S.s s S.F.s S.S.S.S.F.S.S.S.S.S.S.F.F.s F.F.s s S.D D s s s s s D U D a I I i i i a i a s s s s s a a s D D D D S.D S.D S.S.D S.",
"F.s F.S.S.S.U F.S.F.S.F.F.F.S.D S.s S.S.s F.S.S.S.U U U U S.S.U U S.U U U U U U s s s s s s U s s s D D D S.D S.S.S.F.S.S.S.S.Y ",
"F.F.S.F.S.S.S.S.S.S.F.S.S.S.S.U F.F.s F.s S.S.U S.S.S.F.U S.U U U U U U D s U U U U U S.S.S.U S.S.U U S.S.D F.S.S.D Y D S.S.D F."
};
