/* XPM */
static char *result[] = {
/* columns rows colors chars-per-pixel */
"64 64 235 2 ",
"   c #39261A",
".  c #3D341E",
"X  c #3A2923",
"o  c #393831",
"O  c #343A2A",
"+  c #482B1E",
"@  c #512E1C",
"#  c #59331D",
"$  c #4C301D",
"%  c #68381D",
"&  c #763D1D",
"*  c #4A2E22",
"=  c #493727",
"-  c #543223",
";  c #5B3522",
":  c #553A2C",
">  c #5B3A2C",
",  c #573827",
"<  c #473931",
"1  c #59382C",
"2  c #6B3C25",
"3  c #643C2A",
"4  c #663B26",
"5  c #723E24",
"6  c #36482C",
"7  c #38532E",
"8  c #3E4531",
"9  c #3B5232",
"0  c #3A5D32",
"q  c #355631",
"w  c #366635",
"e  c #396635",
"r  c #396B36",
"t  c #3B6D39",
"y  c #3C6639",
"u  c #3E743C",
"i  c #3F793D",
"p  c #47442A",
"a  c #57432C",
"s  c #45562E",
"d  c #474A31",
"f  c #5B4935",
"g  c #435C32",
"h  c #4A5735",
"j  c #575536",
"k  c #50562D",
"l  c #6D422B",
"z  c #66472B",
"x  c #7A452A",
"c  c #774429",
"v  c #654637",
"b  c #764B37",
"n  c #705439",
"m  c #466739",
"M  c #54683C",
"N  c #41763F",
"B  c #41793F",
"V  c #4C733E",
"C  c #6E693B",
"Z  c #7D401C",
"A  c #52504B",
"S  c #684E44",
"D  c #74584A",
"F  c #446E40",
"G  c #437541",
"H  c #497444",
"J  c #437C40",
"K  c #4A7D46",
"L  c #4D7B4A",
"P  c #54794A",
"I  c #5A7A5B",
"U  c #576644",
"Y  c #6E6A54",
"T  c #585E64",
"R  c #5B6971",
"E  c #57716A",
"W  c #6E726D",
"Q  c #83492B",
"!  c #8B4B29",
"~  c #834626",
"^  c #914D28",
"/  c #9C542C",
"(  c #95512D",
")  c #854D33",
"_  c #895539",
"`  c #9C5A3A",
"'  c #965536",
"]  c #815128",
"[  c #A6582D",
"{  c #A35A35",
"}  c #A45D3C",
"|  c #AA5D35",
" . c #B15D31",
".. c #AC613C",
"X. c #A6623B",
"o. c #BB6333",
"O. c #B3643C",
"+. c #B96539",
"@. c #89522A",
"#. c #C36A3B",
"$. c #CB6D3B",
"%. c #C86934",
"&. c #D46E37",
"*. c #CE713F",
"=. c #D5723C",
"-. c #DA733B",
";. c #E4783D",
":. c #EC7C3E",
">. c #E1763B",
",. c #F27F3F",
"<. c #F87D3A",
"1. c #8C5E49",
"2. c #986543",
"3. c #886A5E",
"4. c #8B664B",
"5. c #A96745",
"6. c #B56943",
"7. c #BD6C44",
"8. c #B26843",
"9. c #BB7857",
"0. c #AF7052",
"q. c #86756F",
"w. c #A77A65",
"e. c #C26F44",
"r. c #CB7346",
"t. c #CD764A",
"y. c #CE784C",
"u. c #C47147",
"i. c #D37544",
"p. c #DB7742",
"a. c #DC7943",
"s. c #D17748",
"d. c #D47A4B",
"f. c #DC7D4B",
"g. c #C27955",
"h. c #E47C44",
"j. c #EA7E43",
"k. c #E47E48",
"l. c #F17F42",
"z. c #448242",
"x. c #498546",
"c. c #468843",
"v. c #498A46",
"b. c #4C844A",
"n. c #4C8B4A",
"m. c #51874D",
"M. c #4D914B",
"N. c #51924E",
"B. c #4B8652",
"V. c #548C52",
"C. c #5B8657",
"Z. c #589556",
"A. c #528563",
"S. c #668864",
"D. c #679566",
"F. c #749A74",
"G. c #749176",
"H. c #77A376",
"J. c #FE813D",
"K. c #F5803F",
"L. c #888679",
"P. c #9A867E",
"I. c #BA8669",
"U. c #B58C78",
"Y. c #80AC7F",
"T. c #CA825D",
"R. c #DB8253",
"E. c #EE8045",
"W. c #E4814C",
"Q. c #F48243",
"!. c #FD8542",
"~. c #FC8948",
"^. c #E68957",
"/. c #F99158",
"(. c #C88564",
"). c #D09271",
"_. c #EF9667",
"`. c #FFA979",
"'. c #6B7C86",
"]. c #778389",
"[. c #728E91",
"{. c #7B9BA9",
"}. c #87939A",
"|. c #969899",
" X c #8E8C8A",
".X c #AF9892",
"XX c #8BA68B",
"oX c #97B395",
"OX c #B7A494",
"+X c #8F9CA4",
"@X c #87A4A8",
"#X c #96AEB0",
"$X c #AAA9A8",
"%X c #B8B7B6",
"&X c #ACB1B1",
"*X c #BB9EA4",
"=X c #C49889",
"-X c #D6A78E",
";X c #EFB18D",
":X c #CAB6AD",
">X c #EEBCA0",
",X c #A3C1B6",
"<X c #C5C3BC",
"1X c #FCC7A9",
"2X c #EFCCB6",
"3X c #AFB9CA",
"4X c #9FB8C0",
"5X c #C3BEC6",
"6X c #BACBD3",
"7X c #B5C8CE",
"8X c #C7C8C6",
"9X c #D5D2CC",
"0X c #C2C9D7",
"qX c #CDD3DB",
"wX c #D7D7D5",
"eX c #D2D0C8",
"rX c #E4D4C8",
"tX c #F7DAC7",
"yX c #E6DFD4",
"uX c #DCE2D5",
"iX c #E6E5DB",
"pX c #FBE6D8",
"aX c #D6D8E2",
"sX c #DEE3E7",
"dX c #EBEBEC",
"fX c #E7E7E5",
"gX c #F3EDE4",
"hX c #FBF4EC",
"jX c #F6F4EB",
"kX c #EBF2F3",
"lX c #F3F3F3",
"zX c #FDFBF3",
"xX c #FEFEFD",
"cX c #F9F7F4",
"vX c #ECEFF0",
/* pixels */
"z.z.z.z.J z.i i z.z.z.i z.J J J J J z.J J J N N u G G N J N N N J J J J J J J J B J z.z.z.c.z.z.z.z.z.c.c.c.c.z.c.c.z.z.c.z.c.c.",
"z.c.z.J z.J z.z.z.i i z.J i i z.J J J J N u N N G u G N N J J J J J J J J N J B.z.J z.z.z.z.z.z.z.c.c.z.c.c.c.c.c.z.z.c.z.c.c.c.",
"c.c.z.J J J J z.z.i z.J i J J z.J J J G N G J N G u N N N N J J J J J N J i J B.z.z.z.z.v.V.B.z.z.c.z.c.c.c.c.c.c.c.c.z.z.z.i z.",
"z.c.z.z.z.J J J J z.i z.z.J z.J J J J N u u J B.G N N N N i i J J N N J i J J z.z.z.z.c.Z.H.F.c.z.i z.c.c.c.c.c.z.z.c.z.z.z.z.z.",
"z.z.z.J J J z.J J J J J J J z.J J J J u N N N J N N N N N J N J J J J N J J J J B z.z.c.n.V.m.x.z.g j z.c.z.c.z.z.c.v.z.c.z.J z.",
"z.z.J J J J J J J J J z.c.J J i N J N N N N N N N N J N J N J J B J N J J J J J z.z.z.J z.J B B B d 4 j z.v.c.c.c.c.M.c.c.c.z.z.",
"z.z.J J i J z.J J z.n.n.z.J J J J B.N N N u N N N J N N N N N N N N J N N N N i J z.z.B z.B B z.m : 2 2 j c.c.z.z.c.M.v.v.c.z.z.",
"J J J B J J v.c.z.M.n.v.z.J i J J J N G u u N N N N N N N N J N N J i N J J N J J B J B B B B x.9 , 2 5 z h c.z.c.c.M.c.v.v.z.z.",
"J J J J B z.M.M.N.N.v.z.J G G J J N J N G N N u N N i u N u G H i J N B B B B B B B B B B B B z.< - 4 5 5 f J z.v.c.M.v.c.v.z.z.",
"J J B B N c.Z.Z.N.n.x.z.J G G J J N J N N N N u N N t m g s s d 0 N B N B B B B B B B B N B B m < @ ; 2 5 2 h J z.M.M.c.M.c.z.J ",
"J J J J V K Z.Z.B.b.z.J G N G J J N B B N N N N u N s % % % 4 ; # = q N B B B N i B B B B N 0 s - * ; 4 2 2 v m x.M.n.M.n.x.z.z.",
"J z.J J G b.V.V.b.z.z.J G N J J N J B N N N N N N N k 5 c x x x & % # = 0 B B i N i B N B m # % , @ - 3 2 5 2 j v.M.n.v.n.x.z.x.",
"J J c.v.K b.m.b.L z.J G N N J G N N B B N B B G J J s ) .XP.q.D x Z & % @ = u B B N i i m z @.c @ * - ; 4 2 2 z P m.n.n.x.x.z.z.",
"J J c.x.L m.P L K J J N J J J N N N B B J N B J z.J m b aXaX0X&X|.3.~ Z % # + 0 N i i s Z %.o.5 @ * 4 4 2 2 % 4 I D.n.n.n.n.x.B ",
"B G G H H L L K z.J J J N J J N N G F L J G B J x.B P b aXsXqX0X3X3X|.1.~ & @   0 m p / E.K.%.] x ! [ / ( ~ ~ c D XXD.N.M.v.z.z.",
"G G F N F K L L z.J J N J N N N G G y G J G B x.x.B I S sXdXfXqX0X3X3X.X5.^ Z @   ; o.:.K.K.E.o.$.#. .{ ^ ! ! / v I S.N.n.x.x.B ",
"G N G F F H G J J J B N G B i N N N N B B B J z.J J C.S vXlXvXsX0X0X3X4X=Xo.[ / & o.K.J.~.J.K.K.j.>.-.-.$. .[ / c U C.x.z.z.K z.",
"G F V G F G G J J G J J J B J i N N B B B B J J J N P v fXxXlXvXaX0X0X7X*Xs.%.o.%.K.~.J.J.~.J.~.l.l.Q.l.Q.j.$./ l d H N J J z.B ",
"J J B B N J J J J B J B J B N B B B B B J i i N N B J n :XxXcXfXqX5X:X%XU.+.=.;.K.K.J.~.~.J.J.~.!.!.!.Q.Q.Q.j.o.5 p N B z.B z.B ",
"B J B B N J J G J B J G N B B B B B B B B J N J J G G M  XvXxXaX-Xg.0.6.%.&.K.J.~.J.~.J.~.J.J.~.!.!.!.!.Q.Q.l.p./ = N B B z.B z.",
"z.B J B J B J J B J J J B B B B B B B B B J J N N B N U D 5XvX:X.Xw.O.$.K.K.Q.~.J.~.J.~.~.J.~.J.!.!.!.!.Q.Q.Q.a.o.& g B B z.B B ",
"B J B J J G J B J J B J B B J J B B B B B i J i J N N U S P.3X.X5.}  .h.K.Q.~.J.~.J.J.J.J.J.J.~.!.!.!.Q.~.Q.Q.k.$./ p B B B V B ",
"J J J B B G J B J B B B B B i i B B N B i N N B B B G K 1 D $X$Xw.5.d.~.~.Q.J.~.J.J.~.J.J.~.J.J.!.!.!.!.Q.Q.Q.k.p.+.# m B B B B ",
"z.J J J N G J J B z.B J B B m m h m F N J J i J G J J J S 3 q.&X=Xf.E.l.K.Q.J.J.~.~.J.~.~.J.~.~.!.!.!.!.Q.Q.Q.k.h.#.c g H B B B ",
"z.J J J J B J J i J J J C.2.6.6.5.2.1.b V B B B B J B J C @ _ (.^.f.h.h.>.l.l.l.!.!.~.J.~.J.~.J.!.!.!.!.J.Q.E.W.E.p.Q s B B B z.",
"J J J J J J z.K J B S..X-X_.^./.^.f.R.f.5.V B B B B N B V @ x 8.y.g.p.-.>.<.<.!.!.!.J.~.~.!.J.~.!.!.!.!.Q.E.E.E.k.h.| p B z.z.B ",
"z.J i J J J z.z.D.oX9X2X>X)._.R.^.^.f.f.W.5.H i B N B B i 6 z ` 0.u.i.&.:.<.l.!.J.!.!.!.J.J.~.J.!.!.!.!.Q.:.h.Q.Q.E.$.l V J B B ",
"i J J J J J K H.iXhXpX2X1X).).R.d.f.f.f.R.r.4.i B B B N B 0 @ ( |  .e.-.:.l.!.!.!.!.!.!.~.J.J.~.!.!.!.!.Q.-.;.+.| h.h.| s B B B ",
"J J J J J J F.iXzXhXpX2X-X).T.T.y.y.s.d.k.y.5.U J B B B B N = x { ..$.;.<.!.!.!.!.!.!.!.!.!.!.!.!.!.!.!.;.-.(     $.Q.=.z B B B ",
"z.J J z.J S.uXzXhXhXhXtX>X).I.T.g.g.g.y.d.r.` f m V M V V V = l { O.*.;.Q.!.!.!.!.!.~.!.!.!.!.!.J.J.J.J.-.%.#   - +.E.E.[ m B B ",
"i i J b.XXuXjXzXhXhXgXpX<X).I.T.g.g.g.7.6.' 2 3 x / [ o.o.X.; Q | +.=.j.!.!.!.Q.-.-.K.J.!.!.J.J./.`.1X1X-XU.0.X.o.&.;.<.^.M B B ",
"z.J Z.XX<XfXzXgXiX9XuX<X-XU.I.T.g.g.9.5.1.% !  .%.$.$.-.p.+.# ) ..+.p.E.!.!.&.l   . $ o.!.J.~.;XpXxXkXsXeX<X&X*X).W.!._.pX$XJ B ",
"B B Z.oXiXzXgXeX:X:X<X:XOX).9.g.g.0.0.b 4 [ $.>.l.l.l.j.h.| * ) ..e.a.j.!.~.+.      l %.J.`.tXxXlX$Xo o %X8X3X8XqXiXpXhXxX6XB.z.",
"z.z.N.9XzXfX:X$X$X%X%X.X.X.X9.g.9.5.) - [ >.l.!.!.l.l.j.r.^ * x O.r.f.k.Q.!.:.o./ %.<.K.1XcXxXxXlX3XA A wXdXdXjXlXxXxXxXcX#Xz.J ",
"z.B oXzXiX%X|.|.|.|.|.w.w.w.w.0.2.1.- ! -.l.!.!.!.!.l.j.#.5   5 ..e.p.k.j.Q.K.J.J.J./.tXzXxXxXxXxXxXlXdXcXlXcXxXxXxXxXxXqX[.J z.",
"z.m.uXiX<X|. X].L.'.W q.q.3.1.2.) 1 4  .h.l.l.~.l.j.p.e.{ * S 3.w.I.(.f.k.E.~.~._.1XcXxXxXxXxXxXxXxXxXxXxXxXxXxXxXxXxXsX{.B.c.z.",
"B F.yX<X|. XS.I I I W W 3.3.1.D S 1 5 6.p.j.l.l.j.i.#.{ 1 < |.*X$X%XeXrXtX2XtXpXhXxXxXxXxXxXxXzXxXxXxXxXxXxXxXxXxXxXsX{.Z.c.c.c.",
"B H.<XXXI J N B G N P I W Y D S 3 1 5 8.s.k.k.k.k.t.7._ < |.5X&X&X&X%XwXvXxXxXxXxXxXxXxXzXzXzXzXzXzXxXxXxXxXxXxXxXkX{.B.c.c.c.c.",
"B D.D.z.N N N G i G N J P D A f 1 1 5 6.s.k.a.k.d.s.7...D '.'.|.|.$X$X%XeXjXzXzXzXxXzXxXzXzXzXzXzXzXzXzXzXxXxXxXxX#XA.i z.z.z.z.",
"z.B B B N N J G i i B G J G h A 1 < 3 5.s.a.d.d.d.d.u.6.` 1.T R R '.|.$X&X9XjXzXxXzXzXzXzXzXzXzXzXzXzXzXzXzXxXcX4XA.z.i z.z.c.z.",
"B B B N N N N N N i i J N J i N A y d ` y.d.s.s.s.y.y.7.8.Y T T W T R '.|.%X5XfXcXcXcXcXzXzXzXzXzXzXzXzXzXxXkX#XA.z.z.J z.c.z.z.",
"z.B J N J N N B N N J J J N N J J J m ' t.s.i.e.t.y.y.y.e.8.2._ 1.b D S T '.|.%XeXfXhXhXhXzXhXzXzXzXzXzXjX0X[.B.J z.J z.z.z.z.z.",
"z.z.z.J J V J N N N J J J J N N B J N n s.t.r.8.7.y.y.y.t.7.8.} ` ' ) ) S A T '.}.%X8XwXiXgXgXdXiXeX7X#X].A.B.J z.z.c.J z.z.J z.",
"z.B z.J B B N N N N N J N N i J B J i j s.t.r.O.} 7.t.t.y.y.u.8...{ 2.' ) ) b S T R '.[.{.+X+X{.[.].[.G.B.J z.z.J c.c.z.z.z.z.z.",
"J J K J N B B N B N B B N N i B B J J f d.y.t.8.' ` e.s.s.t.y.e.8...} } ` ` ' ' _ 1.q.#X@X{.{.@X#X4X,X[.z.z.z.z.c.v.x.z.J J z.J ",
"J J z.J B B N J B N N B B i J B B J G f y.y.s.7.} ) ` 7.s.s.s.t.e.e.7.7.8.} .. .8.| 0..X6X7X7X6X6X4X,XZ.z.J z.c.z.c.z.z.z.z.z.z.",
"J J B J N J B N B B B N B B B B J J t : 7.s.s.t...' b x } e.s.s.e.7.e.e.e.7.+.+.#.#.$.d.wXkXkXkXdXXXH.c.z.z.z.z.c.c.z.z.J z.J x.",
"z.z.J V N N B N N B N N B N B B B N e : ` 8.7.t.e.b 9 o = l ` ..8...O.e.i.i.i.r.r.$.s.).tXcXcXcXeXS.M.c.z.z.c.x.v.x.z.J x.J x.J ",
"B z.J J B B B B N N N N u G u u t t 0 : ' ..} O._ 7 e 7 X X . : b ) { e.i.p.h.-.K.-.W.2XiXjXgXiX=XC c.B P Z.D.M.M.n.z.J z.J z.z.",
"z.J z.i B B N N B N u t t e t e r w q : x ` } Q p w w w 6   X O 0 g z +.-.j.j.j.E.K.#.:XzXcX2X=XR.2.V B G.oX&XXXD.b.J z.J x.z.K ",
"z.z.z.z.N N N N N t r w w w w t r r 6 , l x b = 0 w w w w 7 O 6 e w k ..a.j.j.:.Q.!. .OXzXiXU.0.s./ m N S.G.G. XF.b.J z.J z.J z.",
"z.z.z.i N N t t y e e e e w w r r r 6 = 2 2 , 7 w w w w w w r w w w y ' $.h.;.;.K.K.[ L.&XL._ X.o.( d K H P I P b.z.z.J z.z.K z.",
"z.z.z.i u r u N t e e w e w r r r r 6 + , # $ 6 w w w w r w w w w w e b | #.#.&.$.=./ m H A z ) / @.p B u N N B B x.z.B z.z.B z.",
"z.z.z.i u i i B t r r w t r r r r r q   + $ $ 7 w w r r w w w w w w w z x ' / |  . .c g y 9 a b x ~ , 0 r r r N N B B z.K z.z.z.",
"z.z.i i i i u J G t t u t r t r r r w 7 6 7 0 w w r r r w w w w w w w k 2 c ! ~ ^ ~ 3 m e e p z z 2 c = r t r r m B B z.z.z.K z.",
"z.i z.i i i i z.J J i i i u u u u r r r r r r r r r r r r w w r e t e d , 2 c x c c ; g r t < = : 4 c 2 0 r r r r u B z.K z.B z.",
"z.z.J J J i J c.x.J i z.J i i B i i i i r r r r r r r r r w w w e t y 9 : 1 2 2 2 2 4 p t t q = a ; l # 0 r r r r t N B z.z.B z.",
"z.z.J J z.J J z.c.z.z.z.z.z.z.z.z.i i i i i r r r r r r r r w r t t y 9 < 1 3 3 2 2 3 = r t r q 8 8 8 6 e r N r t u B B z.z.x.z.",
"c.J J J i i i J J z.c.z.J b.F.F.v.c.z.i i i i i t t r r r r r t t y y q < : 1 1 > : = 8 t r u u r w e r r t r u u i B B B x.B x.",
"z.z.B J J J i c.z.z.z.z.K J L M.c.z.z.c.z.i i i u i u u t t t t t t y 0 8 o < o o o 9 w u r r r r r r r r N u B B B B z.x.B x.B ",
"z.i z.z.i z.z.i z.z.z.z.z.c.z.b.z.z.i i z.i c.i i i i i i i u i u N u r y q 0 w w r r r r r r u r r t u N N N B B B B x.z.x.z.B ",
"z.i z.z.z.i i c.z.z.c.c.z.z.z.J z.z.z.z.z.z.z.z.z.i B i i i i i B B B N N u t u r u t u i i i i i u i i B B B J z.B z.x.z.B z.z.",
"z.z.i c.z.z.z.z.z.c.c.z.c.z.z.z.z.z.z.z.z.z.i z.z.i i i i z.J J J J J J J N J N i J i i i i i i i i i B z.z.c.V z.x.z.B x.B z.V ",
"z.c.z.z.z.z.i z.c.z.z.c.z.z.z.J z.z.i z.z.z.z.z.z.z.c.c.z.z.z.J J J J J G J J J i J z.z.J z.z.J z.J z.J B z.z.z.z.B x.B z.z.z.c."
};
