/* XPM */
static char *result[] = {
/* columns rows colors chars-per-pixel */
"64 64 249 2 ",
"   c #152C25",
".  c #182C26",
"X  c #193425",
"o  c #1A352A",
"O  c #1B3C2B",
"+  c #183526",
"@  c #1D3C31",
"#  c #223C2A",
"$  c #273627",
"%  c #383A2A",
"&  c #293129",
"*  c #481D15",
"=  c #55251B",
"-  c #712F1B",
";  c #542B25",
":  c #47372A",
">  c #57352B",
",  c #523A31",
"<  c #662E2A",
"1  c #763728",
"2  c #6D3830",
"3  c #1E422B",
"4  c #1D4829",
"5  c #1F4032",
"6  c #23442B",
"7  c #254B2C",
"8  c #2A4C2D",
"9  c #2B452B",
"0  c #2A532E",
"q  c #2C5A2F",
"w  c #27502D",
"e  c #32582E",
"r  c #214432",
"t  c #244C31",
"y  c #294D34",
"u  c #265131",
"i  c #2A5433",
"p  c #2D5A33",
"a  c #2B533A",
"s  c #2D5A3B",
"d  c #335C33",
"f  c #325D3C",
"g  c #395837",
"h  c #364931",
"j  c #346334",
"k  c #396535",
"l  c #366B34",
"z  c #396C36",
"x  c #34633B",
"c  c #3B6C3A",
"v  c #39663B",
"b  c #397237",
"n  c #3C743A",
"m  c #3E7A3C",
"M  c #377035",
"N  c #2F612F",
"B  c #48482C",
"V  c #534F32",
"C  c #76462B",
"Z  c #684639",
"A  c #7A493E",
"S  c #75473C",
"D  c #6F5030",
"F  c #496938",
"G  c #566A35",
"H  c #42753D",
"J  c #417B3E",
"K  c #4A7B3E",
"L  c #487338",
"P  c #59793D",
"I  c #666534",
"U  c #716F37",
"Y  c #2F5E41",
"T  c #3A6C42",
"R  c #346542",
"E  c #3D7342",
"W  c #755249",
"Q  c #446E41",
"!  c #437441",
"~  c #437D41",
"^  c #4A7B43",
"/  c #4B7346",
"(  c #5B7E53",
")  c #557547",
"_  c #6A754D",
"`  c #74796A",
"'  c #963518",
"]  c #B13F1A",
"[  c #862F2F",
"{  c #873928",
"}  c #963A27",
"|  c #893533",
" . c #973736",
".. c #962C28",
"X. c #A73938",
"o. c #B63B3B",
"O. c #A63728",
"+. c #C53F3F",
"@. c #D03C3C",
"#. c #DE3F0B",
"$. c #AE401B",
"%. c #874A3A",
"&. c #964C38",
"*. c #914F2E",
"=. c #A74827",
"-. c #B74C27",
";. c #A6562C",
":. c #B6552D",
">. c #A34639",
",. c #A75435",
"<. c #B85433",
"1. c #B6493A",
"2. c #8F6733",
"3. c #B56538",
"4. c #DC4A19",
"5. c #DD541F",
"6. c #CD4C1D",
"7. c #E14D1B",
"8. c #E2511E",
"9. c #CB552B",
"0. c #C7572C",
"q. c #D3562A",
"w. c #D55A2C",
"e. c #DC5B2C",
"r. c #DB5626",
"t. c #C65933",
"y. c #D1502A",
"u. c #E35D2C",
"i. c #E55928",
"p. c #E75A34",
"a. c #D16437",
"s. c #E8602E",
"d. c #E36232",
"f. c #E76535",
"g. c #F26633",
"h. c #905546",
"j. c #B94A43",
"k. c #AA5342",
"l. c #896759",
"z. c #8C6C48",
"x. c #B26B52",
"c. c #98786D",
"v. c #AC7A6A",
"b. c #C84542",
"n. c #D94847",
"m. c #CE564A",
"M. c #E54A4A",
"N. c #EC4B4B",
"B. c #E14846",
"V. c #F54D4D",
"C. c #FA4F4F",
"Z. c #F44E46",
"A. c #EC5345",
"S. c #FD504E",
"D. c #F65444",
"F. c #FF5151",
"G. c #FF5A5A",
"H. c #F55352",
"J. c #DB6D46",
"K. c #DB7954",
"L. c #CC6F4A",
"P. c #E46B42",
"I. c #E47348",
"U. c #E97257",
"Y. c #FE6363",
"T. c #FE6C6B",
"R. c #FB6866",
"E. c #ED7770",
"W. c #41803F",
"Q. c #4C863F",
"!. c #52803D",
"~. c #3F834E",
"^. c #448342",
"/. c #4B8344",
"(. c #498A46",
"). c #4B8C49",
"_. c #478746",
"`. c #568946",
"'. c #4C914A",
"]. c #5A9346",
"[. c #5B9055",
"{. c #669949",
"}. c #6B8E53",
"|. c #73A74B",
" X c #78946B",
".X c #738F67",
"XX c #59A256",
"oX c #849C76",
"OX c #949074",
"+X c #A8877A",
"@X c #B1896F",
"#X c #92AD7C",
"$X c #E5845C",
"%X c #D58C6E",
"&X c #E49475",
"*X c #EA896D",
"=X c #E2916C",
"-X c #A88C81",
";X c #BB9E91",
":X c #B79487",
">X c #98A586",
",X c #8FA481",
"<X c #BCA89A",
"1X c #ACB292",
"2X c #BBB4A4",
"3X c #8E9D80",
"4X c #C89B87",
"5X c #F2948C",
"6X c #C6A899",
"7X c #D4A994",
"8X c #E7A78B",
"9X c #E4AB95",
"0X c #E7B39C",
"qX c #CAB8A9",
"wX c #D6B9A8",
"eX c #D0B3A8",
"rX c #E6B9A6",
"tX c #E6BCB2",
"yX c #E8BCB2",
"uX c #F3B3A3",
"iX c #BCC3AA",
"pX c #CCC3B3",
"aX c #DBC5B5",
"sX c #DDCBBB",
"dX c #D5C6B6",
"fX c #C9C3AB",
"gX c #E7C2AC",
"hX c #E5C2B5",
"jX c #E6C6B9",
"kX c #E4CDBC",
"lX c #EAC8B8",
"zX c #E3D0BF",
"xX c #EED0BB",
"cX c #F3C4B9",
"vX c #DBCDC2",
"bX c #DDD5C8",
"nX c #E5CEC1",
"mX c #E6CCC4",
"MX c #E5D3C3",
"NX c #E8D4C4",
"BX c #E4D4CA",
"VX c #E5DACC",
"CX c #EBDBCB",
"ZX c #E9D7C8",
"AX c #E7DDD2",
"SX c #F3D6C9",
"DX c #E9E2D5",
"FX c #F4E6D5",
"GX c #EDE0CE",
/* pixels */
"^.^.Q.~ W.W.Q.F Z h.v.@X+XZ < - 1 { { =.=.=.-.-.0.0.9.w.e.p.s.u.u.u.s.e.s.e.s.e.u.p.s.e.9.-.=.=.1 l.%X0XrXhXkXwX6X;XW V L Q.^.^.",
"^._.K P !.(.W.K % * C h.h.{ { =.=.-.-.-.0.-.0.9.y.q.r.e.e.e.e.d.s.u.s.e.e.s.s.s.u.u.u.u.w.9.0.9.-.l.:XwXgXgXgX6XqX-XW B H (.(.^.",
"_.(.^ 2.3.2.K Q.V < - - ' -.0.q.w.q.0.0.9.9.9.9.w.w.t.t.>.=.;.0.d.f.u.d.s.e.e.e.u.u.u.u.u.u.u.d.r.%.OXjXxXwXwXaXzX-XS B W.(.W.(.",
"_.(.^.[.a.e.0.3.2.2.;.-.q.e.u.e.e.r.q.q.9.9.9.y.-.>.h.x.v.@Xv.v.x.L.f.e.e.s.e.s.u.u.u.u.u.u.p.s.u.' x.qXzXgXlXNXNXOXZ F W.W.(.W.",
"^.^.^.[.+XK.i.w.a.t.t.w.e.u.u.u.s.r.w.q.9.q.r.:.,.l.-X<XfXqXqXqX2X4X%Xf.i.u.e.s.e.u.u.s.p.u.p.u.u.i.t.%XqXnXNXnX;XW V W.(.W.Q.(.",
"W.^._. X>X%X5.5.a.u.d.e.u.u.u.p.e.e.w.r.r.s.0.x.-XqXsXMXVXCXVXZXMXsX7X%Xf.d.s.e.u.u.u.u.s.u.u.u.s.r.6.a.7XdXwX<XW B L (.(.'.(.^.",
"^.^.`.,XiX&XI.i.i.u.s.u.s.u.u.u.e.s.e.e.r.w.x.:XdXAXCXCXZXZXNXZXZXMXdXeX$Xd.u.s.u.u.s.u.u.u.p.d.=.- - } 4X2XW W = V (.(.(.'.(.W.",
"~ J `.,XdXkX8XK.d.d.u.u.u.d.p.u.s.e.s.u.r.3.:XsXDXZXNXMXMXMXzXzXMXzXsXpX7XK.s.e.u.s.u.u.i.g.p.-.< W l.z.%Xx.; * : K '.^.'.'.(.W.",
"W.~ /.oXpXVXjX8X$Xa.i.u.e.e.s.u.u.u.u.u.-.%XaXGXVXzXMXMXMXzXzXzXMXMXzXdXqX%Xf.s.u.u.u.u.u.g.0.- W 2XVXqXx.$.=.V F Q.'.(.'.'.W.^.",
"^.~ ~ .XqXMXzXgXgX=X5.u.d.d.e.e.u.u.e.5.3.4XVXCXzXMXMXMXMXMXMXNXMXMXzXsXpX&Xf.d.u.u.u.d.u.e.=.W ;XVXFXVXx.$.:.) Q.'.'.).'.(.^.^.",
"m ~ ~ [.1XzXNXBXGX0Xd.d.$X$Xe.i.u.r.r.d.&XsXVXVXzXzXMXzXzXzXNXzXMXzXzXNXsX7XI.i.u.u.u.u.g.-.1 c.wXAXVXZX6Xx.=.I ~ ).).).'.(.'.(.",
"~ ~ J ).>XdXNXNXGXkX=Xa.8X0X$X5.i.r.r.&XkXAXbXMXzXVXMXzXMXMXNXzXMXNXzXMXbX7XK.e.e.u.u.d.u.' S qXDXBXNXNXZX4X=.C / '.).).).(.'.(.",
"~ E (.'.oXfXMXNXNXVXrX=X8XxX8Xa.7.e.K.gXGXVXNXzXzXMXVXzXMXMXNXNXMXMXZXzXVX7XI.u.s.s.s.d.6.' W bXFXMXnXMXFXeX&.- V ) `.Q.).'.).^.",
"W.~ ~ `.}.2XkXNXNXZXBXwXwXzXzX8XJ.J.9XVXZXNXNXNXzXzXzXzXzXMXzXMXzXzXzXzXbX7XL.r.i.e.s.g.$.C +XMXFXNXMXMXGXhXv.*.C D P !.[.XX).~ ",
"J ! ! / ( >XsXNXNXNXVXVXVXMXZXzX0X9XxXMXMXMXzXNXzXsXzXCXNXMXNXNXCXzXzXZXbX4X3.r.s.u.u.s.$.h.<XNXCXMXMXMXCXzX7Xa.$.*.2.OX}.XX).~ ",
"! ! ! ! Q oXdXnXNXBXMXZXMXNXNXCXAXAXNXkXlXkXkXkXsXsXzXzXMXMXMXzXzXCXzXZXbX6Xx.5.s.i.i.s.$.z.qXCXxXzXMXMXzXZXgXI.6.x.x.OXXX'./.~ ",
"H Q Q Q Q ( 2XkXmXNXNXNXNXBXMXMXMXMXlXhXtXhXtXhXjXnXMXMXMXMXzXNXNXNXsXMXDX7Xx.6.g.u.u.p.=.l.dXFXMXzXMXkXMXVXhX$XI.=X8XoX/.~ ~ ~ ",
"J ! H ! Q Q  XqXNXNXNXBXNXNXNXMXkXhXtXtXyXtXhXtXyXjXnXMXMXMXMXMXMXMXsXnXDX7Xx.6.p.u.u.g.<.v.pXCXMXMXNXMXMXMXjX0X9XgXvX,X^ ~ ! J ",
"~ ~ J J ! n / ,XdXNXBXMXMXMXNXsXhXtXtXtXtXtXtXtXyXmXtXmXNXMXMXzXMXMXaXkXAXwXL.y.i.u.u.u.K.6XdXMXNXMXMXMXMXMXmXmXkXbXBX,X~ J J J ",
"~ J J ! m E T ( 1XnXNXNXMXMXnXtXtXtXtXtXtXtXtXtXmXyX<XeXdXCXFXCXZXMXkXNXAXwXL.6.s.u.u.r.=XsXVXMXNXMXZXCXNXsXnXmXMXBXqX.X! ~ J J ",
"~ m ! J ~ m c T  XdXBXNXMXnXaXtXrXtXyXyXyXyXtXyXyXyX9Xc.c.:XeXaXdXqXZXCXDXrXL.4.u.u.u.i.=XkXVXzXGXCXZXpXwXhXmXjXBXAXoX/ E J ! J ",
"~ ~ ~ J J H H c [.1XkXNXMXnXjXtXtXtXyXtXyXyXyXyXyXyXyXv.Z 2 W l.+X6XMXCXDXgXK.4.u.p.u.7.U.uXsXdXaXaX6X+X;XyXcXmXBX2X}.T J J H J ",
"^.m ~ J J H J H E }.2XMXkXkXhXtXtXtXyXyXtXyXyXyXyXyXyXeXv.W ; Z c.qXzXZXAXlX$X4.p.u.u.7.P.8XaX2Xc.c.W c.6XyXSXmXvX X/ T T ! ! J ",
"~ ~ ~ E H H ! n l Q  XfXnXhXyXtXtXtXtXtXtXtXyXyXyXyXyXcXtX;X;X6XqXzXzXMXDXnX$X7.u.e.p.8.f.&XmX2XZ Z Z @XyXmXmXvX2X/ T x c n ! J ",
"^.W.m n c H K K c j / ,XsXkXyXyXtXyXyXtXtXtXtXyXyXyXyXyXlXSXFXFXNXNXMXMXDXkX&Xr.5.s.e.u.5.I.uXDXeX-XeXyXmXmXbXpX` s s Y T E ^.W.",
"~ E n c H K K K b k c ( >XMXjXyXtXtXjXhXyXtXtXtXtXtXyXyXhXnXCXNXNXzXMXMXVXMX0XU.4.5.i.u.5.e.$XlXAXyXyXyXtXbXbX-Xs a Y Y E E ^.J ",
"J J n E H L /.Q.n j j v ( >XtXjXtXtXyXhXhXhXtXtXtXtXtXyXjXzXMXMXMXMXNXMXMXMXNX0X$Xd.5.4.7.8.s.$XuXuXcXmXmXBXqX) u a Y Y T E ~ J ",
"J E n v z n K Q.H k d k v / 3XpXjXtXtXtXtXhXtXtXtXyXtXtXzXNXMXNXMXNXMXMXMXMXBXNXzX&X$XI.d.i.5.e.m.x.v.;XvXpX` Y a t a Y E E ! J ",
"J m m c x k g k z k j j c v /  X2XaXjXyXyXtXhXgXtXrXhXkXMXMXMXNXBXMXMXMXMXMXMXVXDXzXlX0X8X$Xt.'  .< = %.-Xc.Y % a a a Y T E ^.~ ",
"~ J E c x d 8 y 8 i d k c c E ^  X>XqXdXaXmXlXlXyXyXzXZXMXMXzXMXmXMXMXNXMXMXMXzXMXVXDXDXNXcX@X; = * * = V V r Y Y s Y R T E ~ ! ",
"m m m c v d 9 # 8 y d k c n H ^ /.{.#X1X1XdXzXZXmXNXVXbXMXMXMXzXMXMXMXkXjXjXzXzXMXzXzXMXGXFX2X2 * * ; ; B B g x T T R R R T ! T ",
"m ~ m m k d 8 # 9 8 j c H K ^ `.].}.|.|. X#XfXzXBXVXAXAXVXMXbXVXmXkXhXuX5X5X5XuXlXkXMXMXBXZXaX-X> = = B F Q ^ ^ / Q T R f R ~ E ",
"~ m J n j y h e 8 8 k H P P _ _ z.z.z.z.}.}.>XvXnXtX9X0XjXmXAXAXyX5XE.T.G.G.Y.T.5XyXkXNXMXMXGXhXl.< V F L /.].`.~ E x s s x E W.",
"m m c j p 6 k k 0 i k H P _ 3.j.t.1.>.>.&.W +XmXkX&Xi.P.&X9X8X*XR.F.G.Y.T.T.T.Y.Y.*XuXmXMXMXNXMX X) ) ^ `.{.{.`.E l x s s x E W.",
"m m x j k p L l 0 e z G 2.b.n.M.n.n.@.o.X.>.x.eXrXU.#.i.p.A.Z.F.F.G.Y.Y.T.T.T.T.Y.G.E.1X1X1X1X>X( Q H `.{.|.{.`.c d s s s R W.^.",
"m m n m c F L l 0 q F h.m.V.N.N.N.N.B.n.+.X.X.x.%Xf.7.i.p.D.C.F.G.G.Y.Y.T.Y.Y.Y.R.R.H.x.}.[././ Q F K `.].].`.~ x p s f f T W._.",
"m H J J n L H e 0 8 D m.C.C.C.V.N.V.N.N.n.@.o.o.m.d.r.p.C.F.F.F.F.G.Y.G.G.G.G.G.G.Y.G.m.U K v s f l n H ! K E l p i x v v E ^.^.",
"n J K H c L d 0 6 B k.H.F.F.C.C.V.V.V.V.N.B.+.+.n.A.p.V.C.C.F.F.F.F.G.G.F.G.F.F.G.G.G.M.%.g i i p s x j j x N p i i g R v T W.^.",
"J n n b z j 0 7 X Z j.H.F.C.F.C.C.C.V.V.V.N.B.n.M.Z.S.C.F.F.C.F.F.G.G.F.F.F.G.F.G.G.G.M.%.g u u t i i i i i i i i u a t a R E (.",
"m m H c j q 8 6 & S n.F.F.C.F.F.F.C.C.C.C.V.Z.N.V.C.S.C.C.F.F.F.F.F.F.G.F.G.F.F.H.G.G.n.} B t w u u i 0 u t u t t t t r a x W.^.",
"J n n c d 8 7 6 % h.n.F.F.C.F.F.F.C.C.F.C.C.C.C.C.F.C.C.F.F.F.C.F.F.F.F.F.F.F.G.F.G.H.@...B d d d e d e p u 4 5 r t r r u x E (.",
"J m n c i 8 6 X %  .M.C.F.F.C.F.F.F.F.F.F.F.F.F.F.F.F.F.F.C.F.C.F.F.F.F.F.F.F.F.F.H.B.o.} V c H K K `.].!.k t t t r 5 r a R E W.",
"J m m c d 6 6 $ : k.N.F.C.C.F.F.C.F.C.C.C.F.C.F.F.C.F.C.F.F.C.F.F.F.F.F.F.F.F.F.V.N.@...[ V K `.{.|.|.|.`.k i u t 4 r r a Y M ^.",
"m J E n d 6 O # , k.V.F.F.F.F.C.F.F.F.F.F.F.C.F.F.C.F.F.C.F.F.F.F.F.F.F.F.F.H.V.N.B.X...1 G Q.].|.|.|.].K c j u t t r r t x E W.",
"m m ~ b j 8 O # ,  .H.F.F.C.C.F.C.F.F.F.F.F.C.F.C.F.F.F.F.F.F.F.F.F.F.C.C.C.V.N.B.@.O.O.S F K `.{.Q.!.K H L j i t r r r t s E E ",
"! m m c k p 6 # : h.V.F.F.F.F.F.F.F.C.C.C.F.C.F.F.F.C.F.C.F.C.C.F.C.C.C.V.V.B.t.9.r.u.r.;.G L K H b b k v j i u r r r r a x n W.",
"m m n z j j 8 O % 2 n.F.C.F.F.F.F.C.F.F.C.F.F.F.F.C.F.C.F.F.F.C.C.C.C.V.N.b.<.9.r.r.i.i.:.U G k N p d i u u t 3 5 5 r r a v E ^.",
"E m n z k d 0 # & > j.V.p.A.M.N.F.F.C.F.F.F.F.C.F.C.F.F.F.C.C.C.C.C.C.V.j.,.t.q.r.u.u.u.0.D B 8 u w w 7 r 3 @ 5 O 5 @ t s v ~ ~ ",
"J m m b l k q 9 # > :.e.u.a.t.j.n.F.F.C.F.F.F.F.C.F.F.C.C.C.C.V.C.V.N.n.&.&.0.w.e.i.u.i.5.*.B 9 6 4 4 3 3 O @ @ @ @ r t R J ^.^.",
"W.m m b M z e 0 h C :.e.e.e.<.%.h.M.F.F.C.C.C.F.C.C.C.C.C.C.V.C.V.V.N.j.A &.:.w.i.s.5.i.w.*.% # 3 3 O + O o O o @ @ 5 x E E ~ ~ ",
"W.m m n M M k N I *.0.u.d.e.<.%.S j.V.C.C.V.V.V.V.C.V.C.V.C.V.V.V.V.M.h.A &.<.e.u.5.i.s.w.C % $ O + + + O o o @ o @ 5 c ! ! ~ ^ ",
"W.m m n M k z F D ;.w.e.e.u.,.%.S h.M.V.V.V.V.C.V.C.V.V.C.V.V.V.V.M.b.%.A &.t.w.u.s.s.5.0.D % $ o O + + o . . + o o r T ~ ^ ~ ^.",
"W.W.m n l l z F I ;.0.u.s.w.<.%.S A n.V.S.V.V.V.C.V.V.V.V.V.V.N.M.@.X.%.A &.t.w.e.s.u.w.;.B % X           o + + O O p c H ^ ^ ~ ",
"W.m m n b z l F I 2.0.u.e.0.<.%.S A n.V.V.V.V.V.C.V.V.V.N.N.M.B.+.X.| | %.&.t.w.u.u.w.;.C % $           o   + + O 8 j c n ~ ~ ~ ",
"W.m m m n M z L G 2.;.u.u.t.<.%.A A n.V.V.V.V.V.V.N.N.N.N.B.@.o. . .[ 1 %.,.0.0.5.0.;.D : X           o o O 4 7 e N j b ~ ~ ^.~ ",
"W.m m m n b z H L D ;.0.a.t.,.%.A W j.n.N.N.N.N.N.M.B.n.@.o.X.| [ [ 2 < , *.:.;.;.*.C : $           + 4 t p q N j l k n ~ ~ ~ ~ ",
"W.m m n m n b H L I 2.;.6.:.;.*.S 2 2 >.b.n.M.B.n.b.+.o. . .[ [ [ < ; & . % 2 C C C : $     X + O 4 7 4 w j k j k l c ! ~ ~ ~ ^.",
"W.J J n n b b b L G U 2.2.2.D D V % & : 2 |  .X. . .| 1 < < ; < ; ; $     . $ $ 9 # X   X + + 7 q N N N j j M m c k c J J ^.~ ^.",
"^.J n J n b c b M L G I I I _ _ e 9 7 w r % : > ; ; : , ; % % % % 9 O +   X 6 7 0 7 O 3 4 3 6 q q N l l l k c n z c J ! ~ ~ ~ /.",
"^.W.J J n H b b b L L G F G F / M l l M l N j h h % & % % % 0 0 Y @ + + 6 0 e N p q i i 0 w q q N N k l M M b n m J J ~ ~ ~ ^.~ ",
"^.E W.m m m m m m m b m H n n b M M M M l M M l x d d g g j l l l q 0 q N l l l l N N l l l l M M l M M n n m m J ~ ~ ~ ~ ^.~ ^.",
"_.^.^.^.W.m m m m m m m m n n n b M M M b b M M M M z z M M l l l l l k z z l l l l M M M n m n m m n n m m m m J ~ ~ ~ ^ ^./.~ ",
"~._.^.^.W.W.W.m W.W.m W.W.m m m m m b M b b b b b M M b b b b b b b z n b b b b n n n m m m m m m m m m m J J W.~ ~ ~ ~ ~ ~ ~ ^.",
"~._.(.^.W.W.W.W.W.W.W.W.W.W.m m m m m m m m m b m m m m n m m m b m n n n n n n n m m W.W.W.W.^.J m W.W.m ^.^.^.~ J ~ ~ ^ ^.^.~ "
};
