/* XPM */
static char *result[] = {
/* columns rows colors chars-per-pixel */
"64 64 230 2 ",
"   c #061B28",
".  c #08222C",
"X  c #072638",
"o  c #0A313F",
"O  c #264C25",
"+  c #294C26",
"@  c #294C2A",
"#  c #295227",
"$  c #2B552A",
"%  c #2D5B2C",
"&  c #275025",
"*  c #305D2E",
"=  c #285939",
"-  c #315D30",
";  c #3C573B",
":  c #294E32",
">  c #2F602D",
",  c #31612F",
"<  c #336431",
"1  c #366A34",
"2  c #396D36",
"3  c #3B6D39",
"4  c #386438",
"5  c #397037",
"6  c #3D743B",
"7  c #3E793C",
"8  c #41763F",
"9  c #417A3F",
"0  c #09354C",
"q  c #285A46",
"w  c #2C6447",
"e  c #3F7743",
"r  c #2C6958",
"t  c #3C7759",
"y  c #0D5776",
"u  c #09476B",
"i  c #0F607F",
"p  c #2C6D66",
"a  c #2F756F",
"s  c #2B7677",
"d  c #317771",
"f  c #0C4559",
"g  c #446E40",
"h  c #4B6C48",
"j  c #516D4E",
"k  c #437440",
"l  c #437C41",
"z  c #4A7D46",
"x  c #4C7C49",
"c  c #487549",
"v  c #576A55",
"b  c #577955",
"n  c #4A784F",
"m  c #60785E",
"M  c #677D66",
"N  c #4A5D49",
"B  c #3C8067",
"V  c #458242",
"C  c #498546",
"Z  c #468843",
"A  c #498A46",
"S  c #4C8449",
"D  c #4C8B4A",
"F  c #46864B",
"G  c #51864D",
"H  c #4D914B",
"J  c #51924E",
"K  c #458354",
"L  c #4A895C",
"P  c #498558",
"I  c #548D53",
"U  c #568455",
"Y  c #559552",
"T  c #599357",
"R  c #4B8C64",
"E  c #498D68",
"W  c #4B9678",
"Q  c #559776",
"!  c #528C6A",
"~  c #658A65",
"^  c #689869",
"/  c #728C72",
"(  c #789879",
")  c #6C8670",
"_  c #77A677",
"`  c #1E7387",
"'  c #0C6796",
"]  c #1D7C9C",
"[  c #0F6C8D",
"{  c #277A87",
"}  c #317D83",
"|  c #247C94",
" . c #0C6595",
".. c #379096",
"X. c #1880A4",
"o. c #0C80BF",
"O. c #188AB6",
"+. c #1392BF",
"@. c #2383A5",
"#. c #3595A9",
"$. c #2C8FB6",
"%. c #37A6BD",
"&. c #4C9E89",
"*. c #539C84",
"=. c #448386",
"-. c #56A28C",
";. c #4BA498",
":. c #54AA9C",
">. c #59A797",
",. c #6EA88B",
"<. c #57B2AE",
"1. c #43ADBA",
"2. c #56B7B8",
"3. c #51ADAD",
"4. c #65B5A9",
"5. c #63BCBC",
"6. c #66B9B6",
"7. c #73C1B7",
"8. c #1C8DC7",
"9. c #1993D9",
"0. c #108DC9",
"q. c #2F9BCB",
"w. c #15A6D5",
"e. c #3CA6C2",
"r. c #35A4D4",
"t. c #1597E7",
"y. c #0E9BFF",
"u. c #0F99F4",
"i. c #109BF4",
"p. c #119BFD",
"a. c #1197F2",
"s. c #249CE1",
"d. c #16B7E9",
"f. c #0EA5FF",
"g. c #0EAAFF",
"h. c #0EA6F4",
"j. c #11A4FF",
"k. c #12ACFF",
"l. c #1CA6F9",
"z. c #0EB3FF",
"x. c #0FB8FF",
"c. c #13B3FF",
"v. c #15BBFF",
"b. c #1BB8FD",
"n. c #15A7E8",
"m. c #21A1EC",
"M. c #22A3F2",
"N. c #26ADFC",
"B. c #23BDFE",
"V. c #2AB4F8",
"C. c #3DBBFF",
"Z. c #35B5FC",
"A. c #39ACE4",
"S. c #58BCC3",
"D. c #63BEC2",
"F. c #41BEFE",
"G. c #17C2FF",
"H. c #19C5FF",
"J. c #1BCAFF",
"K. c #18C4F8",
"L. c #1CD1FF",
"P. c #22C5FE",
"I. c #24CAFF",
"U. c #2BCCFF",
"Y. c #2DC6FC",
"T. c #34CFFF",
"R. c #3ACFFF",
"E. c #3ACBF7",
"W. c #28D7FF",
"Q. c #33D1FF",
"!. c #3CD2FF",
"~. c #32DDFF",
"^. c #3DD8FF",
"/. c #2DE3FF",
"(. c #32E3FF",
"). c #3BE6FF",
"_. c #55C1CD",
"`. c #66C2C6",
"'. c #68CADA",
"]. c #7AD2DC",
"[. c #74C9CA",
"{. c #5BCDE2",
"}. c #53C6E6",
"|. c #59D0EC",
" X c #43C1FE",
".X c #48CAFB",
"XX c #43D4FF",
"oX c #4BD6FF",
"OX c #40DBFF",
"+X c #4CDBFF",
"@X c #4DD1F7",
"#X c #53D4FF",
"$X c #58D4FF",
"%X c #53D9FF",
"&X c #5ADAFF",
"*X c #5ED6F3",
"=X c #50CEFF",
"-X c #6CD5EC",
";X c #66D2E9",
":X c #74D6E9",
">X c #61DCFF",
",X c #6DDDFE",
"<X c #6BD7F3",
"1X c #72DEFE",
"2X c #72D9F3",
"3X c #63CBE2",
"4X c #42E6FF",
"5X c #5CE8FF",
"6X c #58E5FF",
"7X c #6BE0FF",
"8X c #66E6FF",
"9X c #74E2FF",
"0X c #7AE2FF",
"qX c #7DE9FF",
"wX c #839F84",
"eX c #89A78A",
"rX c #85DCE9",
"tX c #83DFF2",
"yX c #83E5FF",
"uX c #8AE7FE",
"iX c #83EBFF",
"pX c #8DE9FF",
"aX c #8DE4F4",
"sX c #94EBFF",
"dX c #9CEEFF",
"fX c #91E6F8",
"gX c #9FF0FF",
"hX c #A1EFFF",
"jX c #A3F0FF",
"kX c #AAF0FF",
/* pixels */
"V V V V l V 7 7 V V 7 V 7 7 V 7 e l l l l 7 l k e 3 g k k 9 8 l l 9 l l 9 l l l e l V Z V V V V V V V Z Z Z Z V Z Z V V V Z Z Z ",
"V Z V 9 V V V V V 7 V l V l e V l l l l 9 9 k k 8 8 6 e 9 8 9 l l l 9 l l 8 l C V V V V V V V V V V Z Z Z Z Z Z Z V Z Z Z V 7 Z ",
"Z A V l l l 9 V V l 7 V l l l l l l l k 6 8 l l k 6 k k 8 8 l 9 9 l 9 l k l z D V V V V Z J D C V V V Z Z Z Z Z Z V Z Z V V Z V ",
"V Z V V l l l l l V V 7 l l l V l l l k k e l l l k 6 e 9 8 9 9 l l k 9 l l l V e V V Z T _ ^ F V V V Z Z Z Z Z V Z Z 7 V V V V ",
"V V V l 7 V V l V 9 l l V V l l l l l 6 k 6 k l k e 8 9 6 l l 9 l l 8 l k l 9 l 7 V V Z D I S V V V V Z Z Z Z V V Z Z Z V V V V ",
"V V V l l l l l 7 l l V V l l l l z l k e 8 8 8 6 9 8 l k l 9 9 9 9 9 k l l l l V V V V V l l l V V V Z Z A Z Z V Z H A Z Z V l ",
"V l l l 7 l V l V V D A V V l l l l k 6 8 6 8 8 l l e 9 9 l e 8 8 8 l l 9 8 6 l l l l l l l l z V V l V V Z Z V Z Z H Z A Z V V ",
"e l l l 7 l D Z V H H A V e 7 7 l l e 8 e k 8 6 k k 6 8 6 k 6 l 9 9 6 8 l l e l l l l 9 l k l C e 7 7 V V Z Z V Z A H Z A Z V V ",
"l V z 9 9 9 J J Y H S V l l e k l k l k e 6 8 8 k l 9 k k l l l l l k 9 9 9 9 l 8 l l 6 9 8 l l S l 7 z V l V Z V A H Z A A V V ",
"l 9 V 9 8 C Y Y Y S Z V l k k l l 9 l 6 e k 8 K E *.>.4.5.5.5.5.2.<.:.Q R K l 6 9 l l k 8 9 9 l C Z k l l l l V V H H A H Z V V ",
"l l 9 9 8 x Y Y S Z V l 8 8 k l l k l e n W <.`.:XrXaXfXsXfXuXyX1X2X2X;X'.5.:.W K 9 6 k 8 8 6 l z D V l l l l l Z H A A D C V z ",
"l l 9 9 z x I J S z z l 8 e l l l 6 K &._.].aXsXhXkXkXhXhXhXdXdXsXyXyX1X1X1X<X'.5.&.R 7 l 6 k 8 l A D z V 9 e z C J D H A C V V ",
"V 9 Z A x G G x z l l l 8 k l l l W S.;X0XdXhXjXjXjXhXhXdXhXhXjXhXsXyX1X1X1X1X1X,X;XD.>.R 6 6 k l V H D S x G U I I D A A C V V ",
"V 9 V C x x G x l z l 6 8 l l K :.|.>XqXsXjXjXhXhXdXdXhXhXhXhXhXhXsXyXyX1X1X1X1X1X1X1X-XS.-.R l 6 z D J T ~ ( _ ( ^ D S D D V l ",
"8 8 8 k h x S x z l l l 8 e E 2.&X7XiXsXpXpXsXdXdXdXhXdXhXhXhXhXhXsXuX0X0X1X1X1X0X0X0X1X0X2XD.Q P l S T ~ / ( wXeXeX^ D J A C l ",
"8 8 h 8 8 c x x V l l l k E S.>X8XqXpXiXiXiXiXuXsXsXsXdXdXhXjXhXhXsXyX1X1X1XyX1X0XuXsXuXuXyXyX2X2.! K b b m M ) / / ~ Y D C V l ",
"8 8 8 8 8 h 8 j l l l k E S.>X>X9XiXiXqXqX9X9X9X9X9XqXiXiXpXsXhXsXsXyX1X0X0X0X0XuXsXsXsXsXsXpXuXyX'.>.U j j j j b b U S V z V l ",
"h 8 h 8 8 8 9 9 k l l P S.&X>X>X9X0X9X7X,X>X&X6XoXoX4XoX+X%X6X9X0X0X0X1X0X1X1XyXdXhXhXdXsXdXsXpXuXuX-X6.~ j h h n x k k l V l V ",
"9 9 9 9 9 9 9 9 l 9 K <.&X>X>X>X7X8X>X&X%XoXXXOXXX^.^.^.OXOXOX4XXX^.XX>X1X0X1XuXdXdXhXhXhXdXdXsXsXuXyX-X5.Q c k k k k l l V V 9 ",
"9 9 9 9 9 9 9 9 l l ;.>X>X>X>X>X&X%XoXoXXX!.!.!.T.Q.T.Q.Q.Q.Q.Q.U.U.U.T.R.%X1XsXjXdXhXhXhXhXdXsXsXsXfX1X1X5.R k l k l l 9 9 V l ",
"V 9 9 9 9 x 9 9 7 W {.>X>X>X$X%XoXXXXX!.Q.T.T.U.U.U.U.U.U.U.W.I.I.I.U.U.U.W.!.8XsXkXjXgXjXgXgXgXdXsXsXyX1X<X>.l 8 8 9 9 l l 9 9 ",
"9 9 V 9 9 9 9 9 l 2.&X>X>X&XXXXX!.!.T.T.U.U.U.I.I.P.J.P.J.J.J.J.P.P.J.J.P.I.U.~.6XiXkXjXgXgXgXjXhXdXsXsX1X,X'.Q 9 9 8 9 9 l 9 9 ",
"V 9 z 9 9 8 9 9 *.|.>X>X%XXXT.T.T.T.U.U.U.I.H.P.P.H.G.J.J.J.H.L.J.P.H.P.P.I.P.W.(.4X8XjXkXjXjXgXhXhXdXsXyX1X1X5.G k z 8 8 9 8 9 ",
"V V 9 9 8 9 z x 2.>X>X$XR.U.T.U.U.I.I.H.P.H.J.H.H.H.H.J.G.J.H.H.J.J.H.J.H.J.J.W.W./.).8XsXkXgXgXhXhXhXsXuX1X,X-X>.l 8 9 8 9 k 9 ",
"V 9 9 V l l l W {.&X&XR.I.U.I.I.H.H.P.J.H.H.H.H.H.H.H.G.H.G.H.H.J.H.H.H.H.H.J.I.L././.(.6XgXjXjXdXhXhXdXsX0X,X1X'.R k 9 8 9 9 9 ",
"9 9 9 9 l l F 2.*X&XR.U.J.P.P.H.P.J.J.H.H.H.H.G.H.H.H.H.H.H.H.H.H.H.H.H.H.P.J.J.L.W././.(.5XgXjXjXhXhXgXsXyX1X1X2X4.9 9 z l l V ",
"V 9 9 V 7 l E {.&XoXU.H.J.J.H.H.G.J.J.G.H.H.H.H.H.H.H.G.H.H.H.G.H.H.H.G.H.G.G.G.H.L././.(./.8XjXhXhXhXjXsXyX1X1X1X].P 8 9 l 9 9 ",
"9 V 9 9 l V :.*X%XR.P.H.J.J.H.H.G.G.G.J.H.H.H.H.G.H.H.H.H.H.H.L.J.H.H.J.G.J.H.G.G.H.L./.(./.(.qXhXhXdXjXdXuX1X1XyXtX-.9 8 9 9 9 ",
"9 V 9 l l 9 S.&XXXU.H.J.K.K.K.H.J.G.H.H.G.H.H.H.H.H.L.H.H.H.H.H.G.J.J.G.J.G.G.J.G.H.G.L././.(.4XsXjXjXgXsXuX1X1XyXuX6.8 9 8 8 9 ",
"9 9 l l 7 L {.oXR.H.J.K.w.X.w.K.J.G.H.H.H.H.H.H.H.H.H.H.H.H.H.H.J.G.G.G.G.J.G.G.H.H.H.G.L./.(.(.8XdXjXgXdXyX1X1X0XsX[.l 8 z 9 9 ",
"l l l 9 9 &.|.^.Y.J.H.O.o . f w.J.G.G.H.H.J.H.J.H.H.H.H.H.G.H.G.G.G.G.J.J.G.J.G.H.H.H.H.J.L.(.(.).iXhXjXsXuX1X1X0XuXrXI C 9 9 9 ",
"l l l l 9 <.@XQ.H.L.d.y . o 0 O.L.G.J.G.H.H.H.H.H.H.H.H.H.H.H.H.J.G.G.J.G.G.J.G.H.G.H.H.H.L.W.(.(.6XdXkXsX0X1X1XyXsXrXQ 9 9 9 9 ",
"l l 9 9 n _.XXU.G.L.K.[ . . f w.L.H.H.G.G.H.H.G.H.H.H.H.H.J.H.G.G.G.G.H.H.H.H.H.H.H.H.G.H.H.J.W.).4XiXkXsX1X1X1XuXuXaX,.e 7 V 7 ",
"V l 9 9 W }.R.P.G.G.L.w.i y +.K.G.H.H.G.H.H.G.H.H.H.H.H.L.H.H.J.G.J.H.G.H.H.H.H.H.G.H.H.G.H.J.L.W.~.5XpXyX1X,X1XuXsXfX,.l V V V ",
"l l l 7 &.@XU.J.G.H.K.H.d.d.H.H.H.H.G.G.H.H.H.H.H.G.H.G.+.y ' h.G.G.v.v.v.G.G.G.v.G.J.G.H.H.H.J.I.W.^.8X1X1X1XyXpXsXaX4.7 V 7 V ",
"7 l 9 e ;.E.P.G.H.H.K.L.K.L.H.J.H.H.G.G.G.G.x.x.x.x.x.0.0 X X  .c.z.c.c.c.g.x.x.v.v.v.G.G.H.H.J.P.U.U.XX,X1X0XuXpXsXfX7.Z Z V Z ",
"l 7 l l :.E.J.G.G.H.G.H.J.G.G.v.G.x.x.z.g.g.g.g.g.z.h.'   X X u g.g.g.g.g.g.g.g.c.c.z.v.v.v.v.J.J.U.U.!.&X9XyXpXpXsXsX`.F Z V Z ",
"7 l 7 7 1.Y.J.G.H.G.H.H.G.v.c.c.z.g.g.g.g.g.g.g.g.z.t. .  X X  .g.g.g.g.g.g.g.g.g.g.g.g.z.c.v.v.v.P.P.T.oX0XpXpXsXsXyX7.F Z V Z ",
"9 9 7 e 1.I.G.G.G.G.G.G.c.k.g.g.f.g.g.g.g.g.g.g.g.z.h.o.0 0 u ] z.g.g.g.g.g.g.g.g.g.g.g.g.g.g.c.c.b.b.Y.oX9XsXpXpXyX9X2.V V V Z ",
"9 9 7 e e.b.v.G.H.G.x.z.g.k.g.g.g.g.g.g.g.g.g.g.g.g.g.g.0. .o.z.g.g.g.g.g.g.g.g.g.g.g.g.g.g.g.g.k.k.b.B.R.,XuXsXyX0X>X3.V V Z V ",
"9 7 8 6 e.b.c.G.G.b.g.k.g.g.g.g.g.g.g.g.g.g.g.g.g.g.g.z.x.x.x.z.g.g.g.g.g.g.g.g.g.g.g.g.g.g.g.g.g.f.k.P.!.&X0XuX1X9X<X&.7 V V V ",
"9 9 6 6 #.b.c.v.c.c.z.g.g.k.g.g.g.g.g.g.g.g.g.g.g.g.g.g.g.g.g.g.g.g.g.g.g.g.g.g.g.g.g.g.g.g.g.g.g.f.g.B.R.$X>X1X1X1X3Xn 7 V V V ",
"V e 9 5 ..l.c.c.k.k.g.g.g.g.f.g.g.g.g.g.g.g.g.z.g.g.g.g.g.g.g.g.g.g.g.z.g.g.g.g.g.g.g.g.g.g.g.g.f.g.g.B.XX#X&X>X,X>X2.< 3 l V l ",
"7 7 7 3 t m.k.c.k.f.f.f.f.g.f.f.f.g.g.g.g.g.g.g.g.g.g.g.g.g.g.g.g.g.g.g.g.g.g.g.g.g.g.g.g.g.f.g.g.f.k.B..X=X$X$X$XS.d < 2 l V V ",
"9 6 6 2 < 9.g.g.k.j.y.f.f.f.f.f.f.g.g.g.g.g.g.g.g.g.g.g.g.g.g.g.g.g.g.g.g.g.g.g.g.g.g.g.g.g.g.f.f.f.l.C..X=X=X=X.X..< < 2 9 V l ",
"6 5 3 4 % ] i.k.k.k.f.f.f.f.f.f.f.g.g.g.g.g.g.g.g.g.g.g.g.g.g.g.g.g.g.g.g.g.g.g.g.g.g.g.f.f.j.j.j.c.V.E.=X XF. Xe.w % < 1 9 l V ",
"7 5 4 * $ q 9.f.j.k.c.g.f.f.f.f.f.f.g.g.g.g.g.g.g.g.g.g.g.g.g.f.g.g.g.g.g.g.g.g.g.g.g.g.g.j.j.k.k.N.Z.F.E.F. Xe.r * % < 2 9 V V ",
"7 5 1 $ O @ ` u.f.j.k.z.z.z.g.g.f.f.f.f.f.f.f.f.f.f.f.f.g.f.g.f.g.f.f.g.f.g.g.f.g.g.g.z.k.k.k.j.l.N.Z.C.C.C.e.r % , * < 3 l C l ",
"6 5 < % @ @ = ] i.y.f.j.c.b.c.c.c.c.z.g.g.g.k.j.g.f.f.g.g.f.g.g.g.z.g.g.z.c.c.c.c.c.k.j.p.p.p.p.l.Z.C.C.A.#.n : - - * 1 8 9 V V ",
"6 2 , % % # @ = { 0.y.y.f.j.g.b.c.b.b.z.c.b.k.c.c.c.c.c.b.v.v.v.v.v.v.v.v.v.v.b.c.k.j.p.p.p.p.N.N.Z.A.$.=.M ,.m h 4 , 8 9 V 9 V ",
"6 2 < > % $ $ $ + r @.t.u.y.y.f.j.k.k.c.c.k.c.c.c.c.c.v.v.v.v.v.v.v.v.b.b.k.j.j.j.p.p.p.p.p.j.M.r.#.a @ ; N v m b < 8 8 V z V V ",
"7 5 1 , % % % $ $ @ : p @.8.t.a.i.y.y.f.f.j.j.j.j.f.k.j.j.j.j.j.j.p.y.f.y.y.y.p.y.p.p.p.a.9.$.{ r * $ @ @ ; ; ; 8 8 8 8 V V 9 V ",
"7 5 1 , * % * - $ $ $ $ $ r s @.O.9.9.i.a.i.i.f.j.p.j.y.y.y.p.p.y.y.y.y.p.p.p.a.t.t.8.] s w $ + + @ % % $ - < 4 8 8 9 9 V V V 9 ",
"7 5 1 , , , * < * $ $ # # # # w p s { ` | X.O.8.s.t.m.M.M.M.t.l.M.l.m.m.s.9.$.| p q : @ O & @ # $ $ % > < 4 1 2 8 9 V V 9 V V S ",
"7 5 5 1 , , < 4 * $ % $ $ $ $ $ # = - = = = = w r r d d } } } } } s a p q = + O O O @ + & & # # % % , < < 2 2 6 8 8 V V V V 9 z ",
"7 6 1 1 < , < 2 < * % % % % % % % % # & & & & & O O & O # O + O O + + + O O O O O + + @ # # > > > < < 1 2 5 6 8 9 9 V z 9 V V V ",
"9 7 2 2 1 < < < 1 , , , , % * % > > % $ % # # # # # # & # O O O O + + + + + + O # # # # > > > , , , , 1 8 8 9 V 9 l C 9 C V V 9 ",
"V 9 5 2 1 < 1 1 1 1 , , , * , < , , > > > > % # % # # # # + O O + + + @ + O # # # # > > > > , 1 8 , 8 8 8 9 V z 9 V 9 V V 9 V C ",
"V 7 6 5 5 1 1 1 1 1 1 1 - 4 b G 1 , , , , > > > % % % % $ $ % # % $ $ # $ $ $ $ % > > > , 1 1 5 5 8 9 9 8 9 z V 9 9 V C C 9 9 C ",
"V l 8 8 5 1 1 1 2 2 1 , - < ; e 5 , 1 , , < , > * % * % > % > > - - * % * * % * > , , 1 5 5 5 7 5 9 9 9 9 9 9 V V V V 9 9 V C 9 ",
"V 7 l 7 7 5 7 5 5 5 5 1 2 1 2 1 1 1 < 1 1 < < , , , , , , , < , < < < < < < < < , 1 1 5 8 9 7 9 7 7 V 7 V V 9 9 V 9 9 V z V V z ",
"V l V V 7 7 7 7 5 7 5 5 5 2 2 1 1 1 1 1 1 1 1 < 1 , < < < 1 1 1 2 2 3 3 3 3 3 3 5 8 9 9 9 V Z 9 Z 7 V V 9 9 V V 9 V V V V V V V ",
"V V V V V 7 7 7 7 7 7 7 6 7 5 2 5 5 5 5 5 5 5 5 5 5 5 6 6 6 7 7 6 9 6 8 9 6 8 9 9 9 7 V 7 Z 9 Z Z 9 7 V 9 V 9 V z V V V V V 9 V ",
"Z V V V 7 V V V V V l l l 7 9 6 7 7 7 7 7 6 7 7 7 9 l 9 l l l 9 9 9 9 9 l l 9 9 V V 7 V V V Z 9 Z 7 Z 7 V V V V V V V z 9 V V z "
};
