/* XPM */
static char *result[] = {
/* columns rows colors chars-per-pixel */
"64 64 226 2 ",
"   c #2D1D14",
".  c #311F16",
"X  c #2D2719",
"o  c #352219",
"O  c #3C251A",
"+  c #36271A",
"@  c #2B331E",
"#  c #31341E",
"$  c #38331F",
"%  c #2D3D22",
"&  c #333B22",
"*  c #3B3923",
"=  c #41271B",
"-  c #44291C",
";  c #4B2C1E",
":  c #512F1E",
">  c #54301E",
",  c #5C351E",
"<  c #41331F",
"1  c #64381F",
"2  c #4D2E20",
"3  c #4A3723",
"4  c #543222",
"5  c #5B3422",
"6  c #5F3921",
"7  c #502F20",
"8  c #613721",
"9  c #643923",
"0  c #6B3C24",
"q  c #713F25",
"w  c #2E4324",
"e  c #364828",
"r  c #36542E",
"t  c #3A562E",
"y  c #395D33",
"u  c #375C30",
"i  c #396535",
"p  c #386B36",
"a  c #3B6639",
"s  c #3B6C39",
"d  c #376633",
"f  c #3D733B",
"g  c #3F793D",
"h  c #46482A",
"j  c #49532E",
"k  c #51512C",
"l  c #425B31",
"z  c #584E2E",
"x  c #674727",
"c  c #754126",
"v  c #7B4426",
"b  c #7B472A",
"n  c #655C31",
"m  c #7C5839",
"M  c #73512E",
"N  c #436C3B",
"B  c #4D6A3A",
"V  c #476437",
"C  c #5A6838",
"Z  c #41763F",
"A  c #41793F",
"S  c #4C753E",
"D  c #55773E",
"F  c #666738",
"G  c #796335",
"H  c #6A753D",
"J  c #75733C",
"K  c #765C4A",
"L  c #615041",
"P  c #446E40",
"I  c #4C6D49",
"U  c #516D4E",
"Y  c #447441",
"T  c #487445",
"R  c #437C40",
"E  c #4A7C46",
"W  c #4C764B",
"Q  c #4C7D49",
"!  c #54794A",
"~  c #567854",
"^  c #576D51",
"/  c #66785B",
"(  c #6D6B51",
")  c #757B79",
"_  c #6F7266",
"`  c #824626",
"'  c #854B2B",
"]  c #8D4D2B",
"[  c #864927",
"{  c #954D29",
"}  c #95522D",
"|  c #9B532D",
" . c #865332",
".. c #9C5632",
"X. c #9D5A34",
"o. c #925430",
"O. c #A3552D",
"+. c #AC5A2E",
"@. c #A8582D",
"#. c #B25A2C",
"$. c #B5592D",
"%. c #A35731",
"&. c #A35A33",
"*. c #AC5C32",
"=. c #A45D39",
"-. c #B35E32",
";. c #BA5E33",
":. c #89653B",
">. c #88703B",
",. c #AC6538",
"<. c #B46134",
"1. c #BB6234",
"2. c #B36439",
"3. c #BA663A",
"4. c #BD693B",
"5. c #BB612F",
"6. c #C25E30",
"7. c #C36433",
"8. c #C46936",
"9. c #CB6A36",
"0. c #C56B3A",
"q. c #CC6C39",
"w. c #C46737",
"e. c #D46C37",
"r. c #D26E3A",
"t. c #DB6E3A",
"y. c #D76936",
"u. c #CC713D",
"i. c #D5713C",
"p. c #DB743C",
"a. c #DF783F",
"s. c #E2753C",
"d. c #EB753B",
"f. c #E4793E",
"g. c #EB7A3E",
"h. c #ED763C",
"j. c #955F43",
"k. c #805A46",
"l. c #9B684A",
"z. c #93674F",
"x. c #B1724D",
"c. c #8F7667",
"v. c #C97645",
"b. c #DB7442",
"n. c #D77A49",
"m. c #CA7850",
"M. c #E27644",
"N. c #E57A42",
"B. c #EC7D43",
"V. c #ED7E4A",
"C. c #E67846",
"Z. c #F27D41",
"A. c #F17F4B",
"S. c #448242",
"D. c #498446",
"F. c #468843",
"G. c #498A46",
"H. c #4C844A",
"J. c #4C8C49",
"K. c #51874E",
"L. c #4D914B",
"P. c #51934E",
"I. c #578856",
"U. c #549552",
"Y. c #5B9359",
"T. c #70875C",
"R. c #678B64",
"E. c #699568",
"W. c #738C72",
"Q. c #759676",
"!. c #748B6B",
"~. c #9C8476",
"^. c #808C7E",
"/. c #AD8B76",
"(. c #988C5C",
"). c #D88557",
"_. c #EC8046",
"`. c #ED824B",
"'. c #E4814B",
"]. c #F58141",
"[. c #F2824D",
"{. c #F88447",
"}. c #E78857",
"|. c #F38450",
" X c #F38A53",
".X c #D98E68",
"XX c #D99976",
"oX c #C2957B",
"OX c #E28D66",
"+X c #E69266",
"@X c #EC9A6D",
"#X c #7EA280",
"$X c #849B86",
"%X c #96938F",
"&X c #A69B95",
"*X c #B69886",
"=X c #93AD93",
"-X c #AAA398",
";X c #B5A59A",
":X c #ADB198",
">X c #A7AAA4",
",X c #B5ABA5",
"<X c #A9B6A9",
"1X c #B3B6B4",
"2X c #C49983",
"3X c #DF9F81",
"4X c #DBA489",
"5X c #CAA896",
"6X c #E7A986",
"7X c #E9B99C",
"8X c #D7B7A6",
"9X c #C6BCB6",
"0X c #CBB2A6",
"qX c #E3BBA6",
"wX c #B5C7B3",
"eX c #E4C7B8",
"rX c #D7D6D5",
"tX c #CCCAC7",
"yX c #E5DCD9",
"uX c #E7D5C9",
"iX c #E7E2DE",
"pX c #EAE5E2",
"aX c #EAE9E6",
"sX c #F1EFED",
"dX c #F5F5F4",
"fX c #D7E0D5",
/* pixels */
"S.S.S.S.S.g S.S.S.S.S.S.g g R R R R S.R R A Z Z P Z Z Z A S Z A A R A R R R R R R R F.N Z S.S.S.S.S.S.F.F.F.F.F.S.S.S.S.F.F.S.F.",
"S.F.S.R R R S.g S.g g S.g S.g S.R R R A f f Z T Z Z Z Z A Z A A S.A R R A Z S.D.R S.p X # Z S.S.R F.F.F.F.F.F.F.S.F.F.S.S.S.S.F.",
"F.F.S.R S.R R S.S.S.g g R S.S.R R R A P % X w y f Y Z f A Z A S.A S.R R Y E R G.R V < o   V H.S.S.S.S.F.F.F.F.F.F.F.S.F.S.S.S.S.",
"S.F.S.S.R R R R S.g S.S.g g R S.R R R y X   o + & r a f A A A A A D D S R R R D.N 2 ; O o h E.S.S.S.S.F.F.F.F.F.F.F.F.S.S.S.S.S.",
"S.S.S.R R R S.R R R R A S.R S.R R E R y X . O - 2 O 3 h B I S E >.,.G S H >.D Z $ : - = O o P S.S.S.S.F.F.F.F.S.F.F.F.F.F.S.S.S.",
"S.S.R R g R S.R R R S.D.S.S.R A R S.A y o . O - 2 7 5 0 q M G ,.a.8.,.u.q.*.k & ; : - = O O t A S.S.F.S.F.F.F.F.S.F.L.G.F.F.S.S.",
"S.R R R S.Y S.R R S.G.G.D.R R R R R Z a X o O 2 4 8 8 q { } -.q.a.a.p.t.e.%., > , : : - - = * A R R S.S.S.F.F.F.S.F.L.F.F.F.S.S.",
"S.R R R g R G.F.D.L.L.G.R A g A R R Z Y & . = : 0 q q ] O.*.w.f.B.f.s.p.e.1.| c 1 8 , ; ; ; $ Y R g R S.S.F.S.S.F.F.L.F.G.F.S.S.",
"R R R R Y D.L.J.L.P.G.D.A A Z Y E Z Z A r X O : v ] ..@.-.8.p.g.f.f.g.f.t.7.+.[ c 0 1 > > : - V D.A Z S.S.S.S.S.F.G.L.F.G.G.R F.",
"R R R Z Y S.U.U.U.G.D.S.R Z Z R R A A Z a X = 4 ` } +.5.9.p.f.g.f.].g.g.d.e.5.| ` c 1 , 5 : ; l D.D.A E g R R S.F.J.L.G.G.G.S.R ",
"R R R R Y E Y.Y.K.D.D.R Z Z A R A A A A P X 2 8 ` | #.9.e.p.f.g.g.g.g.g.g.d.9.@.` ` c 1 1 , > u D.J.D.A R R R S.F.L.J.J.J.D.S.S.",
"S.R R R T D.U.U.Q E R R Z Z E A A A Z Z f @ 7 0 ] +.8.q.e.i.s.g.].g.g.].g.g.t.#.{ [ v c 9 , , l E D.G.R D.A A R D.L.J.J.J.D.S.D.",
"R R F.G.Q H.K.H.Q R R A Z A R A A Z g A Z h [ } +.8.u.q.q.i.p.g.g.g.g.Z.Z.B.g.9.+.} ] ` c 0 0 V g D.J.G.D.H.I.I.I.P.J.G.G.D.S.S.",
"g S.S.D.Q H.H.W R W R A Y R R Z Z Z A A S x 1.8.u.e.9.q.q.i.p.B.g.].g.Z.B._._.f.9.5.+.| [ [ [ B A R J.U.P.R.W.#XQ.E.K.J.J.J.S.A ",
"A Y R T I Q Q Q S.R R R Z R R Y Z Z Y E B b 1.r.q.q.u.9.q.p.p.f.g.].g.g.B._._.g.f.p.e.4.#.+.+.F Z A D.Y.R.Q.Q.$X=X$XE.J.L.J.D.S.",
"Y P Y P P E W Q S.R R A A Z Z Z P Y s T k ..3.8.8.9.8.9.q.p.b.p.g.g.].B.[._._._.g.g.g.g.p.p.u.H P P Q ~ ~ / _ W.W.E.R.P.J.D.D.A ",
"Y Z N P P Y T E R R Y g Y R A g g g W n ..*.*.2.3.w.9.0.q.p.f.a.a._._._.`.`._._.].].].].].].].>.f P ! ! U U U U ~ I.I.H.S.S.R S.",
"R P P Y Y Y Y R R A A R R A A A g Y n o.%.%.&.<.<.2.3.9.9.p.b.f.f.'._.`.`.[._._.].].].].].].{.p.! N E H.W U I I W W Y Y R R S.R ",
"A A g A g R A R Y R A R R A g A Y W ^  .} | %.*.<.<.3.8.q.p.s.f.f._._.`.`.{.[.].].].].].].].{.].u.J Y R R Q Q T P Z Y R R S.R R ",
"R R R R Z R A R A A R R g Y Y A A g ^ K  .] } ..&.*.<.8.q.p.f.f.f.N._.`. X{.Z.B.h.].h.].].].].]._.v.! R Z Z Z Z A A A R R R R S.",
"R R A R R R A R A A A R A g g R A A Y ^ K b ` ' ] } &.4.q.p.f.f.N.N._.`. X_.g.d.h.h.h.h.f.g.B.`.@X(.Y A Z Z Z Z Z Z Z A R R Y R ",
"R R R A Y R Z R R R Y R A A R A A A R T _ K b b b ] ..<.q.p.s.N.N._._.{.`.C.p.y.y.y.y.t.t.t.n.XX7XT.Z Z A A Z R A A A E E R A A ",
"S.g A R R Z Y A R A R R A A g g A A A A T _ K K M  .o.@.8.p.p.N.f._.`. X|.M.e.7.6.6.6.6.6.q.oX0X-XI.g Z A A A R A Z Z A A Y Z A ",
"S.R R R Z A R R A R A Y A A g R A A Z Z Y W ( _ K m o.%.8.p.s.f.f._.`. X X`.r.6.$.$.$.$.3.oX9X=XD.g g Z g g Z A R S A A A Z Z A ",
"S.g R R A R R R A A A A R g Z Z A Y g R A A E ~ ( m ] *.w.t.p.f.f._.{. X X X'.i.<.O.O.=./.-XQ.f g Z g A Z A A R R A A A Z R R R ",
"g S.R R R R E S.A A A A R R R g A A g A A A A A C ' } <.9.r.p.M._._. X X X X|.`.b.;.%.~.#XI.Z g A g A g A Z A R A A Y A R R S.A ",
"g R R R R R D.R A R R A R Z R Z g Y R Z A A A A M [ O.1.9.r.p.N._.`. X X|.|.|.|.[.B.x.T.I Z Z Z A Z A R A A Y A R R A Z A R Y A ",
"S.S.R g R A R E A A A A Z R g Z R g R Z A A A z ` } *.1.9.p.p.B._._. X`.A.`.|.|.|.[.).H Z Z Z Z g A A R R R A R A R A A Y A A A ",
"R R R R R g R R R A R A A A g R R Z A A A A C q ] @.-.1.q.r.p.C.V.A.A.A.A.|.|.|.|.V.[.4.E A A A g A R R R S.S.E R A A A A A A S ",
"R g R R A A R R R R R A R A R g R A Z A A B c v | *.<.4.i.r.b.C.A.A.A.A.A.V.A.|.[.V.V.b.! A A A A A R R R S.S.R R R Y A A A A A ",
"S.g S.R A A R A A R A A R Z R R R A Z A N x v ] &.X.&.*.4.i.b.V.A.A.A.A.A.A.|.|.A.C.t.d.J Z A R A A R R S.D.S.A A R R A R A A A ",
"R R R g R R R A Y A A A R Z Z Z Y A A N z b ] &.&.&.X...X.3.b.V.A.V.V.V.V.A.V.|.A.M.y.d.J A A A A A A S.F.D.R S.A R A S.A R R R ",
"R R R A Y R A A A A g A Z A A A Z Y V n ' &.,.2.-.*.=.=.%.j.;.M.A.V.V.A.V.A.|.|.V.b.y.t.J Y A A A R R R F.S.S.R R g g R S.S.S.g ",
"S.R R R Y R A A A g Y g g A A A S C G X.2.x.4.2.=.=.=.=.%.....;.M.V.V.|.|.|.|.|.V.q.9.b.J Z A A A A R R S.S.g R R R S.g g R g S.",
"R S.R A A A A Y A Z Z A A A g S F  .,.v.v.0.4.,.3.-.=.-.%.%.=.=.q.C.C.V.A.|.A.|.C.;.3.u.J A A A R g R R S.g g S.R R S.g S.S.S.S.",
"S.g R R A A A A A Z Z g g A F.( z.x.).).v.4.4.u.9.x.3.3.-.;.l.x.m.m.M.V.|.A.|.|.s.O.X.4.H g Z A g R g R S.S.S.S.R R S.S.S.S.S.S.",
"g R g R A A A Z A Z Z g A A (.l./..X+X).v.0.u.i.b.r.b.3.*.*.l./.2XXXn.A.A.A.|.A.t.] ] ,.D A A A g R R S.S.S.S.S.S.g S.S.S.F.S.F.",
"R R g R Z g Z A Z g g A A T./.2X/.@X@XOXi.i.p.b.r.b.p.1.;.%.c.;X5X4XXXA.|.A.Z.h.e.v c X.D A R R R R g S.S.g S.S.S.S.g S.S.S.S.F.",
"R g R A Z Z T R g Z Z g R.;X0X8X5X6X@X'.p.a.f.f.i.f.q.1.$.=.~.;X0X8X3XOXOXn.s.d.1.0 1 m D R R R R R R S.g S.S.g g S.g S.S.S.F.S.",
"R R A A Z Z Q I.Z Z A I.:X9XyXeXqX6X+X'.'._.f.p.a.p.7.1.$.l.&X&X0XqX4XOXOXV.Z.d.O.: 1 :.S S.S.R g R R g S.S.S.S.g S.S.S.g S.F.S.",
"R R A Z Z A Q =XE.I.=XwXtXfXuXeXeX7X@X+X}.a.p.a.t.9.;.5.*.c.&X&X0XqX3XOX+X'.g.f.` - 1 G S S.S.R g S.R R S.S.S.S.F.g g S.S.F.S.S.",
"R R R A A Z R <XaXtXfXaXiXiXyXyXiXuXeX@X}.'.u.u.w.;.#.#.z.%X&X,X,X8X3XOX}.B.g.5.> o , n Z R S.R R g S.S.S.S.S.R g F.S.S.S.S.S.S.",
"S.S.R R Z R A E.dXdXaXaXiXpXiXpXiXiXuX7X@X'.9.5.;.*.$.j.) %X>X,X0X5XOXC.f.d.t.` . o > k a g A R R S.S.F.S.F.S.S.F.S.F.S.S.S.S.g ",
"g S.S.R Z Y R S.<XdXaXaXiXiXpXpXsXdXiXeXXXu.5.5.$.$.%._ #X%X-X,X2Xm.b.b.p.p.5.>   o - j p g A g R S.S.F.F.S.S.S.S.F.F.g S.S.S.F.",
"R R R R R Y Z A K.1XrXrXiXyXpXaXsXsXfX0Xx.,.+.+.@.O.c.) ) &X&X/.m.v.e.t.i.r.] o o O - h i Z R A g S.F.F.S.S.F.S.S.J.D.S.S.g S.S.",
"R R S.R Z R Z R Y K.=XtXtXtXrXrXrXtX9X/.x.,.@.| { K ) _ ( %X/.x.$.;.q.q.q.1.9 X o O - $ d Z S.A S.F.G.F.S.R S.S.S.F.S.S.S.S.S.S.",
"S.R R g Z A Y A A A Q $X>X<X1X1X<X<X<X/.=.{ ` 0 0  .z.L z z.l.{ | -.w.w.1.} h # o = = e i f S.Y S.L.J.S.S.S.S.F.F.F.S.R R S.R S.",
"S.S.R Y Z Z A Z Y A A Y I.Q.Q.!.R.R.( I.C , 1 0 v b q 3 * 9  .` { @.;.*.*.b e # o O $ t a Z S.S.S.L.J.S.S.S.F.S.F.J.S.S.S.S.R S.",
"R S.R g R R Y Z Z Z Z Z g g A A S.g g g f h c c c 9 5 # @ 2 c v [ ..%...} x t & $ e y a a f R E J.U.J.g W I.Y.L.L.J.R D.R R D.R ",
"S.R R R R R R Y A A g Z P g A A g S.g g p k 6 9 5 2 2 # @ = c 0 q ' ] o.` z i u y s R f s Z E P.U.L.S.A #X=X<X=XE.Q S.R S.S.R S.",
"S.S.S.S.R R R R Z Z Z Z g A A R g g g f p j , 5 4 ; O w w O 9 0 q b ` ` c j d a a a Y E Y Y S.P.J.J.H.Y / #X#X#X#XH.R S.R S.D.R ",
"S.S.S.R A R E R Y Z f Z Z A R R g g p p p p h > 4 4 = w w - 5 6 9 0 q b x l i i a y a Y D.E E D.S.F.J.Q I ^ ^ W R R R S.S.Q S.S.",
"S.S.S.g g g E R Z f f f Z Z Z g g f p p p p h : 2 2 - w w - 2 2 5 8 8 9 z y i p a a s T D.D.E E R S.F.R Y Y R R R S.S.R S.R S.S.",
"S.F.S.g S.R R S.Z g f f Z f f p p p p p p d h > 2 ; - w w - 2 2 4 5 5 5 j d i p a a s Y A A S R R R R R R R R R A R R S.R D.S.E ",
"S.S.S.S.g S.S.F.R P f s f s p p p p p p p d h ; ; ; - w e O ; 2 4 4 4 4 j a a p p s f Y g g S.g S.S.R S.R R R R R R R R R S.S.R ",
"S.g g S.S.g g S.A g f f s s p p p p p p p p e - - - O % e X - 2 4 4 4 4 e d a p s g A S.S.g S.g S.S.S.R S.R R R R R D.R D.R D.S.",
"S.S.R S.R g S.F.E g g g f f p p p p p p p p r O O O o r % o O - 2 2 2 O * y y a f f S.S.S.S.S.S.S.A A D.A E S.S.S.R D.R R S.D.R ",
"S.S.g R R S.g S.S.g g g g f f g g p p p p f d r w # w d @ o O O O 2 2 O o r s f f g S.S.S.g S.F.F.S.S.A A R R S.R R S.R D.R R S.",
"S.R S.g S.g g g R S.g g Z E E.E.S.p f f p p p p d d p d % . O O O O O + & i a f g S.S.S.S.S.F.S.S.A S.A S.A R S.S.S.R D.R S.S.R ",
"S.S.g R R g g g R S.S.g Z T R H.S.g p p p f p p p p d d r X o O O O 2 & y s a f g g S.S.F.S.S.S.A S.S.A A S.R A R R D.R S.S.R D.",
"S.g S.g g g S.S.S.S.S.R R S.S.R S.f p p f p p p p p d p p r @ % e r y i i s P A S.A S.S.S.S.S.F.S.S.A S.R F.A F.S.S.A S.D.R D.R ",
"S.S.S.S.S.S.S.S.S.S.F.F.D.S.S.S.S.g g g g f f p p p d p p p p p s p p s s s A R A g g S.S.S.S.g S.A g A A S.R R A A D.D.R S.R D.",
"S.S.S.S.S.S.S.S.S.S.F.S.S.F.S.R g S.S.g g g g g f f p p p s s p s f f f g g R R g S.g S.S.S.S.S.S.S.S.S.A R F.S D.S.S.A S.D.S.E ",
"S.F.S.S.S.S.S.F.S.S.S.F.S.S.S.R S.S.S.S.S.g g g g f A A f g f f g A R A A A R A S.g S.S.S.S.S.S.S.g S.g F.R R S.D.A S.D.A A S.S."
};
