/* XPM */
static char *result[] = {
/* columns rows colors chars-per-pixel */
"64 64 236 2 ",
"   c #2A1B14",
".  c #311E16",
"X  c #2C281A",
"o  c #342219",
"O  c #3C251A",
"+  c #3C2D1E",
"@  c #32281A",
"#  c #2C331E",
"$  c #32331E",
"%  c #2D3A21",
"&  c #3A3A23",
"*  c #442B1E",
"=  c #4B2D1D",
"-  c #43271A",
";  c #542E1C",
":  c #53311E",
">  c #59331F",
",  c #65351B",
"<  c #4B2E21",
"1  c #472D20",
"2  c #463522",
"3  c #533323",
"4  c #5B3522",
"5  c #5C3924",
"6  c #563B27",
"7  c #532F20",
"8  c #643B24",
"9  c #6C3D25",
"0  c #633B25",
"q  c #723F23",
"w  c #324425",
"e  c #3C4B2A",
"r  c #394627",
"t  c #3A542D",
"y  c #3C5D33",
"u  c #395931",
"i  c #3A6535",
"p  c #396B36",
"a  c #3C6639",
"s  c #3B6D39",
"d  c #376433",
"f  c #3D743B",
"g  c #3F793D",
"h  c #46482A",
"j  c #584929",
"k  c #48532F",
"l  c #58552E",
"z  c #475C32",
"x  c #565135",
"c  c #6A4627",
"v  c #744126",
"b  c #7C4425",
"n  c #734229",
"m  c #7D4529",
"M  c #7B4A2A",
"N  c #79552E",
"B  c #6C4835",
"V  c #795739",
"C  c #6C4D32",
"Z  c #426D3C",
"A  c #476839",
"S  c #41763F",
"D  c #41793F",
"F  c #4E763E",
"G  c #56763E",
"H  c #576637",
"J  c #66763E",
"K  c #7A743D",
"L  c #6F6938",
"P  c #446E40",
"I  c #4C6D49",
"U  c #54684B",
"Y  c #447441",
"T  c #497344",
"R  c #437C40",
"E  c #4A7C45",
"W  c #4D764B",
"Q  c #4C7D49",
"!  c #527846",
"~  c #597955",
"^  c #526E50",
"/  c #6D6E50",
"(  c #727766",
")  c #655848",
"_  c #814625",
"`  c #834A2A",
"'  c #8B4B2A",
"]  c #864829",
"[  c #924E2B",
"{  c #994F29",
"}  c #8C532E",
"|  c #94522C",
" . c #9B532D",
".. c #8B5636",
"X. c #9C5530",
"o. c #985837",
"O. c #A4562D",
"+. c #AA5A2F",
"@. c #A8572D",
"#. c #B35A2E",
"$. c #B95A2D",
"%. c #A55A32",
"&. c #AB5C32",
"*. c #A05531",
"=. c #B15D32",
"-. c #BC5E31",
";. c #A54F26",
":. c #956D38",
">. c #A7673A",
",. c #B46135",
"<. c #BB6336",
"1. c #BA673A",
"2. c #BD713C",
"3. c #C36635",
"4. c #CA6432",
"5. c #C46836",
"6. c #CB6A36",
"7. c #C36A39",
"8. c #CC6C39",
"9. c #C6673B",
"0. c #D26D3A",
"q. c #DA6E3A",
"w. c #D86D37",
"e. c #D5713B",
"r. c #DC733C",
"t. c #DF783E",
"y. c #C8743B",
"u. c #E3753C",
"i. c #EB753B",
"p. c #E4793E",
"a. c #EC7B3E",
"s. c #F17B3E",
"d. c #E06E37",
"f. c #8B6956",
"g. c #996C54",
"h. c #A76948",
"j. c #A67358",
"k. c #B2724D",
"l. c #977969",
"z. c #897C74",
"x. c #87776B",
"c. c #A57C67",
"v. c #855A44",
"b. c #CB7647",
"n. c #DD7644",
"m. c #D07D52",
"M. c #E47643",
"N. c #E57A42",
"B. c #EC7D43",
"V. c #EE7E4A",
"C. c #E57B4A",
"Z. c #F27E41",
"A. c #F07F4B",
"S. c #448242",
"D. c #498446",
"F. c #468843",
"G. c #498A46",
"H. c #4C844A",
"J. c #4C8C49",
"K. c #51884E",
"L. c #4D914B",
"P. c #51934E",
"I. c #588858",
"U. c #549552",
"Y. c #5B9359",
"T. c #608D5F",
"R. c #668965",
"E. c #77896A",
"W. c #699469",
"Q. c #738C72",
"!. c #779878",
"~. c #7DA47D",
"^. c #5D8E6C",
"/. c #878979",
"(. c #9C8274",
"). c #B08872",
"_. c #B98C58",
"`. c #DC8357",
"'. c #C6815D",
"]. c #EC8045",
"[. c #ED834B",
"{. c #E4824D",
"}. c #F48142",
"|. c #F98241",
" X c #F2824D",
".X c #F1884E",
"XX c #E58657",
"oX c #F48450",
"OX c #F38B53",
"+X c #C7967C",
"@X c #D89777",
"#X c #CE8865",
"$X c #E28C63",
"%X c #E5946B",
"&X c #E59C76",
"*X c #ECA07A",
"=X c #7EA280",
"-X c #8C8983",
";X c #958B81",
":X c #869786",
">X c #96968E",
",X c #979997",
"<X c #8E9595",
"1X c #A38E82",
"2X c #AC978B",
"3X c #95A796",
"4X c #8FAC8F",
"5X c #ABA29B",
"6X c #B6A69B",
"7X c #A4B19E",
"8X c #9CA3A3",
"9X c #9FB8A0",
"0X c #A6A7A5",
"qX c #B8ADA6",
"wX c #A8B6A6",
"eX c #B5B0AD",
"rX c #B6B5B4",
"tX c #A0ADB0",
"yX c #DDA387",
"uX c #D8AD99",
"iX c #D4B09B",
"pX c #EBB394",
"aX c #C8B5AA",
"sX c #D8B9AA",
"dX c #D0BAB0",
"fX c #CC9B83",
"gX c #B2C3B2",
"hX c #EBCCBB",
"jX c #C8C6C6",
"kX c #DAD8D8",
"lX c #CFD3CC",
"zX c #E9D4C6",
"xX c #E7E9E6",
"cX c #F6F8F7",
"vX c #EFF2EE",
"bX c #D4E1D4",
/* pixels */
"S.S.S.S.R S.R S.g S.g R R R S.g R R R R R D Y Y S P S S S S D E D D R R R R R R R S.R D Z S.S.S.F.R S.F.F.F.F.F.F.S.F.F.F.S.F.F.",
"S.F.S.R R S.S.S.S.S.S.R S.g g S.R R R R S S Y Y S S S f D S D D S.D D R D S S.D.R R Z X $ g S.S.S.F.F.F.F.F.F.F.S.F.F.S.S.F.F.g ",
"F.F.S.R S.g R S.S.S.S.S.R R R S.R R R s % # w a P S S S S S S.D D S.D R Y R E J.S.A 2 o X A H.S.R F.S.F.F.F.F.S.F.F.S.F.S.S.F.S.",
"S.F.S.S.R R R R g g g g R g S.R R R R i X   o @ % u s S D D D D D G G D R R R S.S 2 - O o h W.S.S.S.S.F.F.F.F.F.S.S.F.S.S.S.S.S.",
"S.S.S.S.R R S.R R R R R S.R R R R R E u . . o 1 + + 2 h A T F F K >.L F G K G S & = * O O + T S.S.S.F.F.F.F.F.F.F.F.F.F.S.S.S.S.",
"S.S.g R S.g S.R g R R S.S.S.R R D S.D y @ o O - < 7 4 0 n N L :.y.2.,.2.8.>.j r = ; * - O O t D S.S.S.F.S.F.F.S.S.F.L.F.F.F.S.S.",
"S.R R R g Y R R S.S.J.J.D.R R g E R S a @ o O = 4 4 0 q ] | +.y.p.t.r.r.0.O.> : 4 : = - - O & S.R R S.S.F.F.F.F.F.F.L.F.F.F.S.S.",
"S.R R R R R J.F.S.L.L.D.S.R g g D D Y P % . O 7 0 9 q ]  .&.1.u.a.p.r.r.0.-.[ v , > 4 = = = + D R g D S.S.S.F.S.S.G.L.F.G.F.S.S.",
"S.D R S R E P.L.P.P.J.S.R Y S Y R Y R S t X O 7 v }  .O.#.<.r.p.a.p.a.u.w.6.@._ q 9 > > : : * Z H.R Y S.S.R S.F.F.G.L.F.G.F.F.S.",
"R R R R S D.U.U.U.J.D.S.R Y S R R g R S a X O 4 b | +.-.5.r.p.a.p.a.a.a.d.w.-. .b v 8 > > : 2 y D.D.S R R R R S.F.J.L.J.G.G.S.S.",
"R R R R Y E Y.U.H.D.S.R Y Y D R R Y R g a # 1 , _  .#.5.0.r.p.B.a.a.a.a.a.d.4.O._ b v , , 5 : u S.J.E R R R g R S.L.J.J.J.D.S.D ",
"R R R R Y Q U.K.Q D.R R g Y R R D g Y Y s $ < 9 ' +.3.6.0.r.u.a.a.s.s.s.s.a.w.+.' _ b c , > : z R J.J.R D.R Y R D.P.J.J.J.D.S.D.",
"R R F.G.H.H.K.K.Q S.R R Y Y R D S g g g Z h v [ +.5.6.8.8.e.t.i.a.s.s.B.B.Z.p.6.@.{ ' b q , 8 z R E L.J.S.Q K.I.I.J.J.J.G.D.F.D ",
"S.R S.D.W H.Q Q E R R Y D D R D S S S R Z c +.5.6.0.0.6.8.8.r.B.a.s.s.Z.B.].].u.5.+.@.[ ` _ ` A S R J.P.I.^.!.=X~.W.K.J.J.G.D.S.",
"Y Y R T T Q H.Q R R R R S R R Y S S Y T F N 1.e.0.8.8.5.y.e.t.N.a.}.s.a.B.].].p.u.e.6.-.@.O.%.H S S D.Y.R.Q.=X=X:X4XW.J.P.G.S.D ",
"Y Y Y Z P W W Q R R R R S S S S P Y s Z H } <.7.6.y.6.6.8.n.r.t.N.].s.B.].[.].].a.a.p.u.e.8.2.J P Y E ~ ~ ~ ( E.Q.W.R.P.J.D.D.S.",
"S P P P P T T E R R D Y D D D S g S P H N %.=.1.1.5.6.7.8.r.t.t.N.B.B.[.[.[.].].Z.a.a.}.Z.a.{.:.P P R W ^ ^ ^ ^ ^ I.I.H.E S.D S.",
"R Y Y S T S R E Y R D R R D D D S S L } *.%.&.=.,.1.7.7.8.r.t.p.N.B.B.[..X[.[.B.Z.|.|.}.}.|.}.y.F P E K.W ^ I P W W S E D S.S.D ",
"D R S D S R R R D D R R R D D D D Y / o. .X.*.=.,.,.<.7.0.r.t.t.N.N.].[.[..X}..X}.}.|.|.}.}.|.}.>.G R R R Q Q Y S T S D D S.S.D ",
"R R D D D R R Y D R D D Y D S D D S U V ' [ X.%.%.,.<.7.0.r.t.p.N.B.B.]..X.X}.Z.}.}.|.|.|.|.|.|.a.k.! Y S S Y S S S D R D S.D S.",
"D D D D R D R R D R R Y D D D D g R Q U V ` ' } | X.,.1.0.r.t.p.N.N.].[..X XB.i.a.s.s.s.Z.Z.a.}.OX_.E S S S S S R F D D D D D S.",
"S.R R R D Y R D R D D R D D D E E E S W ) B m b ` ' X.,.y.r.p.N.B.B.]..X.XM.u.q.w.d.d.d.r.q.n.$X*XE.D S S D S R S D D D D E D D ",
"R R D R D Y R D D R D g D H.=X9XgX9X!.T.R./ V n n M } ,.6.r.t.N.N.N.[..X.XM.6.4.4.4.4.4.3.6.#XsXaXY.D S D D D R R S S D S D F D ",
"R R R R S Y R R D R R g W.gXxXcXcXvXxXlX9X0X2Xf.V V } O.7.r.t.p.p.B.[.OXOXM.0.-.$.$.$.$.-.m.iX0XW.D.S D D S D D R S S D S S D D ",
"S.R R g R g R R R D E 4XbXcXcXxXxXvXcXcXvXxXzXfXh...'  .3.q.u.p.p.].[.OXOXOXM.9.=.O.;.;.k.qX3XI.S R g S Y g S R R D Y D S R R R ",
"S.R R R R D D.R Y D =XlXxXkXlXjXjXjXkXvXcXcXzX*XC.6.+.&.3.0.r.u.B.]..XOXOXOXoXC.9.+.O.l.>XQ.K.S S g g g g S R R D D R F R R R R ",
"S.g R R R R S.E g W.jXjXrXrXeXeXrXrXjXkXvXcXzX%Xa.i.u.9.3.0.r.N.].[..XOXoXoXoXoXB.0.>.(.^.E g S g g g R R Y Y R R R S D R R R D ",
"R R R R R R E R E 9XrXtX0X0X0X0X0XrXaXkXxXxXhX&Xa.s.Z.u.8.0.r.N.N.[.OXOXoXoXA.oX.X].`.I.Y Y S g Y R R R R R R R R D S D S D D D ",
"R g R R R g R R T.0X=XQ.3X8X0X5X0X0XeXjXkXzXpX&X].s.s.a.r.0.q.M.B. X XoXV.V.oXA.oXA.{.:.D D D D g D R R R S.R R R D D D S Y D D ",
"R R R R S.g R R W.W.Q E Y.!.,X,X0X5X6XaXaXuX&XC.p.a.}.s.p.0.r.M.B.A.A.A.V.oXoXoX XA.V.b.! D D g D D R R S.S.S.R R D D D S D S D ",
"R g R g D R D R H.R R g R E Q.(.,X5X2X2XfX@Xm.n.e.t.}.}.s.w.r.M.A.A.A. XV.oXA.oX XC.M.r.J R D R D D R R D.D.S.R D R D D D S.D D ",
"S.S.g R D R R R R R S g R Y E E.;X2X1X).m.b.n.n.t.r.a.}.}.u.r.M.A.A.V.V.V.V.V.oX XM.q.w.K S D D D D D S.D.D.R D R R D S.D D D E ",
"R R R D S R S Y D D S g D D D ~ x.l.(.c.j.9.9.0.w.n.u.Z.Z.n.9.C.A.A.A.A.A.A.A.oXV.n.w.0.K R D g R D D S.S.S.g g S.g g S.R g S.g ",
"R S.R D R S R R D g S D D D Y D ( f.x.g.j.h.*.$.3.0.q.M.M.9.9.0.C.V.A.A.A.A.oXoXC.q.0.0.K Y R g D D R R S.S.g S.R S.R g R S.R S.",
"S.R R D S R R S g S D g D S D D ! L V f.h.h...[ O.+.-.b.4.-.&.<.q.M.V.A.A.oXoXoXB.3.3.b.K S S Y D g R R g S.S.g R g S.R S.S.S.S.",
"R R D D S R S R D S S S D D D D S ! B q ..[ ' m _ ' [ *.@.%.h.h.b.n.M.A. XoXoXoXM.&.,.7.J g R g g D R R S.S.S.S.R R R S.S.S.S.S.",
"R R g R R S R S D g S S S D D D S D H 4 q m ] m q q q ` m ..c.fX@XC.n.A.A.oXoXA.r. .| ,.G D D D g R R R S.S.S.S.g F.g F.S.S.F.F.",
"R R R g S R Y S S S S S D D D S S D z 3 q 9 9 q q q 9 8 , v.2XuXuXfX$XA.oXA.A.Z.w.' ` >.G D R R R R R R R S.g S.g g F.F.F.S.F.S.",
"R R g R S S S S S g S R Y g R g D D t c o...B 8 8 , , ; 9 l.6XdXsXuX@X$XXXC.i.i.6.q c ..G R R R D D R R S.S.g S.F.g S.g S.S.S.S.",
"D R D g S S S S g g R S g g S S D D e 9 o.j.f.) 9 9 8 B x.2XqXdXsXsXyX$X$XC.i.i.-.> 8 } E S.S.R D R S.D S.S.F.S.F.g g S.g S.S.F.",
"R R D S D S S S S g D D D D S R D D t q o.j.(./.z.x.x.-X<X5XqXaXdXsXyX$X$XXXs.i. .= 8 N R E S.R g S.g S.S.S.S.S.S.g S.g S.S.S.S.",
"R R R g S D D S S S D R R D S R D D y M O.g.l.(.<X,X,X<X,X5XqXqXaXdXyX%X$X].}.e.q O 9 L g R S.R R g S.S.F.S.g S.g F.S.g S.F.S.S.",
"R R S.R D D D S S S R E R R g g S.S.A M $.h.l./.<X,X8X,X,X5XqXqXqXuXyX$X{.a.a.+.- o > l s g g R R S.S.F.S.S.S.S.F.S.F.S.S.S.S.S.",
"R S.S.R S S D S Y D g D S S S g D D f c $.k.j.l.<X8X8X8X,X5XeXqXaXfXm.M.t.i.w.q   o : l s S g g R S.S.F.F.S.S.S.S.F.F.S.g S.S.S.",
"R R Q R D R Y D S g S Y D g D D D E D z O.-.k.c.1X8XtX8X,X5X0X6X+Xm.r.r.r.u.+.=   O = k p g R Y g S.F.F.S.F.S.S.S.J.H.S.S.S.R S.",
"R D S.R S D R S R Y g g g D D D D D D Z N $.&.h.j.;X8X,X:X,X5X).b.4.6.w.e.6.b .   - : h p f S.g S.F.J.F.S.S.S.F.F.D.S.S.S.S.R S.",
"S.R D D Y R S S S g g g Y g D D S.D R S l  .o.} ..g.c.( / l.).h.;.-.9.8.6.&.j X o = = 2 d g E R R L.J.S.S.R S.S.F.S.S.S.S.S.S.S.",
"S.S.R S S S D S Y R S Y g g D D D D R R z M [ ] m o.v.x x V o.' { =.<.3.<.' h @ O - 2 r i g S.R F.L.L.R R S.F.F.G.J.S.S.R R S.R ",
"R R S.g D S D S D S S S S S D D R R g g Z c ` m q m 0 2 % 4 m _ ' *.=.=.O.n e % + + & y a S E H.J.P.J.R J.^.Y.P.L.J.R S.E R S.S.",
"S.R S.S.D R Y D D S S S S S D R R g R g f j q n 9 0 : $ # = q m ] [ X.X.[ j z r & k R f a S R P.P.L.D.D !.3XwX4XW.S.S.S.S.S.S.R ",
"S.S.S.g R R R R D S D S S S D R R R g g f k 0 0 0 3 1 % # + 0 n q ` ] } M l i i a a Y T Y Y E J.J.J.D.Y ( Q.=X=X!.H.R E S.S.S.E ",
"S.S.S.S.R Y R R S S S S D R R R R R g p p z j 4 3 3 + % % + 5 9 9 q m _ c k i i a a a Y H.S.S.H.D.G.D.Q I ^ ^ W H.S.R S.R R S.S.",
"S.S.F.g g g R H.D S S S D R R R g g f p d A h 3 3 3 * w w + 4 5 0 9 9 q c y p p i i s T H.E E D D S.F.R S Y R R R R S.R D.S.E S.",
"g S.S.g g S.R S.D S S g S R g g f p p p p p h 3 3 3 & w w + < < 4 0 0 9 j a p i i a P Y D D D E D.R F.R R R R R R R R S.R S.R S.",
"S.g S.S.R R R S.Q f f g f g s p p p p p p d h 2 1 < + w w 1 < 1 3 4 0 6 h a i d s s f Y g g g g R S.R R R R R R R R R S.S.R S.S.",
"S.S.g S.S.g S.F.D g g f p s p p p p p p p p e = 1 * + r e 1 1 1 3 3 0 6 t p i p f f g S.S.S.S.S.S.S.R R S.R R R R R S.E S.S.S.E ",
"S.S.S.R g S.S.F.Q g f p p p p p p p p p p p r * 1 O @ w r 1 1 1 < 3 4 3 2 a a s f g g R S.S.F.g F.D D D R R R E S.R R S.S.S.R S.",
"S.S.R R S.R g g R g f f f p p p f p p p p p e $ O o X w r * 1 1 < 3 3 < & y a s g g S.S.S.S.F.F.S.S.S.S.D R S.S.E R S.S.E S.E S.",
"g S.R R R g g S.g g f p a Y ^.^.g p f p p p p t % # t d w * 1 * 1 1 < 1 X t s s g S.S.S.S.S.S.S.S.D S.D E D D S.S.S.R E E S.S.S.",
"S.S.R R D g S.g R g g f s a a S g p p p f p p p p d i i r * 1 1 1 * 1 1 & i s S g g S.S.F.S.S.S.S.S.D S.D S.S.S.R R S.S.S.S.S.D ",
"S.g g S.g g F.g S.g g g s f s f f p p p p p p p p d p p u & 1 1 1 1 2 r a s s R R R R S.S.F.S.F.D D D S.S.S.D D D D.D S.S.S.S.S.",
"S.S.S.S.F.g g F.S.S.g g R f f g f f g f g f f p p p p d p u & & e u y p a S S R D R S.g S.S.g g S.S.D S.D D S.S.S.D D.D.S.D S.E ",
"S.S.S.S.S.S.S.S.S.S.S.S.S.g R g g S.S.R g g g g f p p p p p p p s s s g g S R R S.g g S.S.S.S.S.S.D D S.S.S.S.D S.S.S.D S.D.S.D ",
"S.F.S.F.S.F.g S.S.F.S.S.S.S.S.R S.F.g g S.R g g g g g g f f S S S R D R S R R R g S.S.S.F.g S.S.S.S.g S.D S.S.S.F.F S.D.D D S.D."
};
