/* XPM */
static char *result[] = {
/* columns rows colors chars-per-pixel */
"64 64 238 2 ",
"   c #2C1C15",
".  c #301E16",
"X  c #2C291A",
"o  c #352218",
"O  c #3C251A",
"+  c #36291B",
"@  c #29351E",
"#  c #31351E",
"$  c #393A23",
"%  c #2F3E23",
"&  c #41271C",
"*  c #43291D",
"=  c #4B2C1D",
"-  c #512E1E",
";  c #55321F",
":  c #5B341E",
">  c #46301E",
",  c #4B2E20",
"<  c #452D20",
"1  c #4E3122",
"2  c #453A24",
"3  c #543223",
"4  c #5C3623",
"5  c #5E3A25",
"6  c #573823",
"7  c #643A24",
"8  c #6C3D24",
"9  c #663A25",
"0  c #743E22",
"q  c #7A3F21",
"w  c #64391F",
"e  c #364828",
"r  c #37542D",
"t  c #3C5C32",
"y  c #375430",
"u  c #2F4626",
"i  c #396535",
"p  c #386B36",
"a  c #3C6639",
"s  c #3B6D39",
"d  c #3D743C",
"f  c #3F793D",
"g  c #464829",
"h  c #584929",
"j  c #48532E",
"k  c #59542E",
"l  c #435A31",
"z  c #585439",
"x  c #6A4229",
"c  c #744126",
"v  c #7C4325",
"b  c #7B4529",
"n  c #69512C",
"m  c #774931",
"M  c #765A36",
"N  c #705032",
"B  c #466938",
"V  c #576739",
"C  c #41763F",
"Z  c #41793F",
"A  c #4C753E",
"S  c #59773E",
"D  c #69743C",
"F  c #71733C",
"G  c #6D6437",
"H  c #476D44",
"J  c #536D4D",
"K  c #447441",
"L  c #437C40",
"P  c #4A7C46",
"I  c #4D7D4A",
"U  c #4B7548",
"Y  c #547947",
"T  c #597855",
"R  c #556D51",
"E  c #6A6F56",
"W  c #74776C",
"Q  c #7A5740",
"!  c #824424",
"~  c #8A4926",
"^  c #83492B",
"/  c #8C4C2A",
"(  c #864727",
")  c #934926",
"_  c #924E2B",
"`  c #9B4D29",
"'  c #994B27",
"]  c #95502C",
"[  c #9C542D",
"{  c #885A38",
"}  c #985736",
"|  c #8F502E",
" . c #A54F27",
".. c #A3532C",
"X. c #AB552C",
"o. c #AB5A2E",
"O. c #B7592D",
"+. c #AC5C31",
"@. c #A55B36",
"#. c #B45E32",
"$. c #BA5E32",
"%. c #8F6E39",
"&. c #B46033",
"*. c #BB6133",
"=. c #B8673B",
"-. c #AC6B3A",
";. c #C35D2E",
":. c #C55E30",
">. c #C46434",
",. c #CA6332",
"<. c #CA6A36",
"1. c #CC6B39",
"2. c #C66A38",
"3. c #D36533",
"4. c #D56936",
"5. c #DA6935",
"6. c #D46D3A",
"7. c #DC6C38",
"8. c #DB743B",
"9. c #D5713A",
"0. c #C57039",
"q. c #E46C35",
"w. c #E66E38",
"e. c #EA6E37",
"r. c #E3733B",
"t. c #EB743B",
"y. c #E5793E",
"u. c #EA7A3D",
"i. c #EB7436",
"p. c #F3773E",
"a. c #915E44",
"s. c #976348",
"d. c #966B55",
"f. c #A66648",
"g. c #A7745A",
"h. c #B7734B",
"j. c #997966",
"k. c #847E78",
"l. c #957D70",
"z. c #8E7769",
"x. c #A77D66",
"c. c #C16D45",
"v. c #C97B4A",
"b. c #D97647",
"n. c #CA7C55",
"m. c #EC7C43",
"M. c #ED7E4B",
"N. c #E37946",
"B. c #F27E42",
"V. c #F27E49",
"C. c #448242",
"Z. c #498446",
"A. c #468843",
"S. c #498A46",
"D. c #4C844A",
"F. c #4C8C49",
"G. c #51894E",
"H. c #4D914B",
"J. c #51934E",
"K. c #558754",
"L. c #549552",
"P. c #5B9359",
"I. c #4F8550",
"U. c #768A5D",
"Y. c #678B64",
"T. c #6A986A",
"R. c #758975",
"E. c #769977",
"W. c #6F8B70",
"Q. c #87857D",
"!. c #98857A",
"~. c #A68878",
"^. c #B68A73",
"/. c #978D5B",
"(. c #D6865B",
"). c #ED8145",
"_. c #ED814D",
"`. c #E5834F",
"'. c #F58142",
"]. c #F3824E",
"[. c #FA8342",
"{. c #E78757",
"}. c #F38350",
"|. c #F68C58",
" X c #DD8D65",
".X c #DB9877",
"XX c #CC8F71",
"oX c #E28E66",
"OX c #E6946A",
"+X c #F59563",
"@X c #F29D72",
"#X c #F4A478",
"$X c #EDA47C",
"%X c #7EA280",
"&X c #8A8C8A",
"*X c #849786",
"=X c #97938E",
"-X c #979896",
";X c #968C86",
":X c #A29388",
">X c #B19A8D",
",X c #98A898",
"<X c #8EA990",
"1X c #A6A49D",
"2X c #B9A69B",
"3X c #B5BA9E",
"4X c #9BA3A3",
"5X c #A4A7A6",
"6X c #B5AAA3",
"7X c #BABAB5",
"8X c #B3B3A9",
"9X c #C59B85",
"0X c #DD9F81",
"qX c #D5A890",
"wX c #F5AC85",
"eX c #E7B397",
"rX c #F7BA97",
"tX c #EDAC88",
"yX c #C8B6AC",
"uX c #D9B9A8",
"iX c #C8BDB5",
"pX c #EBBEA4",
"aX c #F9C09E",
"sX c #CEC2B8",
"dX c #F8C7A9",
"fX c #EFCCB8",
"gX c #F1CBB2",
"hX c #F7D3BA",
"jX c #D5CEC6",
"kX c #F7DBC7",
"lX c #EADCD0",
"zX c #FBE1CD",
"xX c #FAE4D5",
"cX c #E7E4DD",
"vX c #FBF2EB",
"bX c #FEFEFE",
"nX c #FBF8F6",
"mX c #F1EAE4",
/* pixels */
"C.C.C.C.C.C.f f C.f C.f C.f L L L L Z L L Z C K K d d K Z C C Z Z C.P Z C.Z Z C.Z L C.C.C.C.C.C.C.A.C.A.A.A.A.A.A.A.C.A.C.A.C.A.",
"C.A.C.L C.f C.C.C.C.f C.L L f C.L L C.f K f L K d K K d C C Z Z Z Z Z Z Z Z P S.C.L A.C d C.C.C.C.C.A.A.A.A.A.A.C.A.A.C.A.C.C.A.",
"A.A.C.L L C.L C.C.C.L C.C.f C.L L L L K d K L P C C C C Z C C.C.Z Z Z Z L Z C.Z.C.C.B X # G.G.C.C.C.C.A.A.A.A.A.A.A.C.C.C.C.C.C.",
"C.A.C.C.C.L L L C.f L f L L L C.L L L a X @ e s C C C C Z Z Z f C.Z Z Z C Z L Z.C.B + O   T T.S.C.C.C.A.A.A.A.A.C.C.C.A.C.C.C.C.",
"C.C.C.C.f L C.L L L L L L L C.L L L P y   . . O % y K C C C f f C.S S Z L Z P Z B > * O o $ G.C.C.C.A.A.A.A.A.C.A.A.A.A.A.C.C.C.",
"C.C.L L C.L L L L L L L C.C.L L L L f r   . & * < O 1 g B U A C.%.-.G P U.3XY C > = * O O o B L A.C.C.A.C.A.A.A.A.A.H.A.A.A.C.C.",
"C.L L L f L L L L C.F.F.A.L L f L P K y   . & * , 3 4 9 v N { -.9.=.h.(.kX^.k # - - * * O O y L Z f C.C.A.S.A.A.A.A.H.A.A.C.C.C.",
"C.L L L C L F.A.A.H.H.A.C.L C C L L C t . O & - 4 7 7 0 _ [ &.9.8.OXtXxXhX..: w : - = * * O $ C.L Z Z C.C.C.C.C.A.A.H.A.S.A.C.C.",
"L L L L A C.J.J.J.J.F.C.L L K K L L L s X o & ; x c v _ ..+.2.y.`.eXlXnX$X&._ 0 w w : > = = O Z D.Z C Z.L L A.A.C.S.H.A.S.A.C.C.",
"L L L K C C.L.P.L.F.Z.C.L K K L L C L C e . & ; v ] [ o.&.<.8.t.`.sXvXxX9.;.o.v 0 8 : ; ; - * B Z.A.K L L L L L A.F.H.S.H.A.C.C.",
"C.L L L K P L.L.I.C.C.L K K Z L L C L C t   * 7 ~ [ o.*.2.8.m.e.XXsXnXrXq.3.*.[ v c w : : - = t L H.Z.Z C.L Z L A.H.S.F.S.Z.Z.Z ",
"L L L L K Z.L.G.P C.P L C K L L C L C C a X - 9 ~ [ *.<.9.8.N.m.2XjXbXwXi.r.,.[ ! ! c 7 w : - t L D.F.L Z.Z K L Z.J.F.F.F.S.C.Z.",
"C.f A.F.C.I.I.I P P L C C Z L Z C C C C p + : 0 ] &.>.<.b.4.w.N.1XjXbXdXt.u.9.O._ / v 8 w : : l Z Z.H.D.A.D.I.K.K.F.F.S.Z.Z.A.C.",
"C.f C.Z.U I.I.I P C.L C C Z L K C C C L B : ~ _ &.2.1.<.>.1.7.^.5XcXbXxX'.m.y.1.o.] _ ! v 8 0 B Z L F.J.K.T.E.%XE.T.G.D.F.S.Z.A ",
"L C K K H D.I P L L L L C L L C d K K U A b >.>.1.1.<.2.c.3.x.4X7XmXbXvX{.u.'.y.<.&.o.[ ~ ~ / B K Z D.P.Y.R.E.*X<X<XT.F.J.S.Z.C.",
"K K C H H U I I C.L L L C C C C K K s U B ] >.2.2.<.*.v.n.c.-X4XjXcXbXnX@Xu.).y.y.8.9.>.+.+.+.S K K L T T E Y.W.R.Y.Y.J.F.S.C.Z ",
"A H H s H K K U L L C C L L L C C C K K k +.#.#.>.c.c.XXc.l.-X4X8XlXnXvX$Xy.).m.u.y.u.u.8.9.9.D d H P U J J J R T K.K.D.Z.C.L C.",
"K d K A K C C L L C L C L C f C C C H n _ @.+.+.$.n.9X9X~.=X&X-X8XlXxXvXrX).).).'.'.'.'.'.).'.%.d H P I.U J H H U U H L L L C.L ",
"L L C Z Z L L L L L L L L L C f f H n ^ | ` [ @.g.>X2X=XQ.k.&X4X7XcXzXxXaX).].).'.'.'.'.'.[.[.8.D f Z L L I U K H K K L L C.L C.",
"L L Z Z Z L Z K C L C L C C C L f U G m ^ / _ [ s.l.-Xk.k.k.-X5XfXzXzXxXdX'.).'.'.'.'.[.[.'.[.[.0.E C C L L C C Z Z Z L L L L L ",
"L Z L Z Z Z L L L C L L L C f C Z K R Q b ^ ~ ! m z.l.k.k.!.:XiXfXfXcXzXzX{.'.u.u.p.[.'.'.'.'.[.u.v.S f C Z C C C C A L L L L L ",
"C.Z L L L L K Z L L L C C L L L Z C K E Q ^ v q m a.z.l.l.:X2XuXaXfXzXzXxX+Xu.t.t.u.p.u.u.m.u._.+X/.C C Z Z L C Z L C L L L L K ",
"C.f L C f K L Z L C L C C L f L Z Z C U E m q 0 ^ a.d.x.~.9XqXpXaXgXkXkXzXOX5.7.4.5.4.4.9.6.n..XeXY.Z Z f L K K K Z C Z C Z C C ",
"C.Z L L L K L L C L L L L f C L Z Z C K R 8 0 q ^ | a.g.~.9XqXrXaXgXkXhXdX@X,.>.:.;.;.>.>.1.XXuX,XG.Z Z L d L L L Z C L C C C Z ",
"C.f L L L C L L L Z L Z L C C f Z Z Z Z V 8 0 q ! | f.x.>XXX0XrXaXdXhXdX#X#X8.;.$.O.X.#.=.XXsX<XD.f L C C f C L L Z K Z C Z Z Z ",
"C.f L L L L C.L L Z K L L L L C C Z Z C n w q ! ! ' =.XXXXoXOXwXaXaXhXaX#X#Xm.9.#... .@.~.5XW.C C L C f C Z K L Z Z L C L P L C.",
"f C.Z C.L L C.L Z Z Z Z L C Z C Z Z Z K x 9 q ! ( X.=.n.b.M..XtXaXaXgX#X+X|._.).b.#.@.!.*XK.K C C f C L L L K L L L C Z Z P Z Z ",
"C.L L f L L P P Z L Z Z L f Z Z C Z Z H 8 0 q ! ' X.X.1.e.b. XwX$XaXwX+X|.}.}.}.}.m.h.U.L L C C C C L C L L L L L Z Z C Z Z Z Z ",
"L f L L L f L L L L Z Z Z L Z Z L L Z V x 0 q ~ ' X.X.3.e.b.M.tX#X#X+X}.].].].].}.M.v.D C f C f L Z L L L C.L L L Z Z A Z Z C Z ",
"L L L L L L L L Z L L Z f Z L f L K Z V c 0 q ~ '  .X.5.3.3.b.OXOX}.p.B.'._.].}.}.M._.h.L L C f f L L L C.A.C.L Z Z Z Z C Z Z Z ",
"C.L L L L L C C L Z L Z L C Z L L L C z 8 0 q ) ` X.$.5.3.5.b.M.N.e.e.p.m._.].}.}.M.N.8.Y Z L L f L L L C.Z.C.Z L L Z C.Z C.Z Z ",
"f C.L f C L L L K Z Z Z f L C C K Z Z V 7 0 v ) ' ` :.5.3.7.5.5.e.e.e.p.].].].].V.N.r.r.D Z L C f L L L Z.D.L L L Z Z C.Z Z Z Z ",
"L L L L L C L C Z Z C Z C C C C C C L z 9 0 ! ) ' ` :.5.3.q.5.3.e.e.e.V.V.M.V.}.M.b.5.w.E Z Z Z f Z f C.L A.f L f L L L C.C.f C.",
"C.L L Z C L C L Z Z C Z f L C L C K L l 9 0 ! ) ' ` :.3.5.5.3.q.q.e.m.M.M.V.}.}.M.b.4.7.F Z Z Z Z Z Z C.C.C.f C.C.L f L f C.C.f ",
"L L Z Z L C L C C C f Z f L C f L C H g 4 9 ! ) )  .;.3.5.3.3.e.e.e.V.M.V.}.}.}.m.,.1.8.F Z Z Z Z Z Z f C.C.f A.L L C.f f C.C.C.",
"L L L L C L C L C Z C C f C L f C L H 3 9 9 q ! (  .;.3.3.:.3.q.e.e.M.M.].}.}.V.m.#.=.1.F Z Z Z Z Z C.C.C.L C.C.L L L C.A.C.C.C.",
"L L L f L C L C Z C f f f L C C L L t 9 v 4 q q ( ` O.:.;.:.3.q.m.b.N.V.}.}.}.V.r.[ @.=.S L L f Z Z f C.C.C.C.C.f C.C.C.A.A.C.A.",
"L L f L C C C L f C C C C C L C f C g c a.m 4 0 q ) X.O.;.;.;.5..X XN.V.}.V.V.V.9./ | -.S f L L Z Z Z C.C.f C.C.C.f C.C.C.C.A.C.",
"L L L L C C L C C C C C f L C Z Z Z g c } f.m 3 q (  . .O.;.h.9XuX0XoXoX{.M.t.t.4.0 b } A C.P C Z Z f f C.A.f f f C.C.f C.C.C.C.",
"L L f f C C C C C C C L C f L Z Z Z g v f.j.l.a.m ' ` $.g.x.2XyXuXuX.XoXoXN.r.e.>.: x { L C.C.L f C.C.C.C.C.C.C.f C.C.f C.C.A.C.",
"L L Z Z C Z C C C C f Z Z Z Z Z Z Z g v s.g.!.;X;Xl.;X=X=X1XyXyXuXuX0XoXoX`.u.i...> 8 M L C.C.L C.L C.C.C.C.C.C.A.f C.C.C.A.C.C.",
"L L L f C Z Z C C C L L Z Z C Z Z Z j ~ @.d.z.;X&X-X=X&X=X6XiX6XyXuX0XoXoX`.u.8.b * 8 M d L C.L f f C.C.C.C.C.L f A.f C.f C.C.C.",
"L C.L L Z C C C C C L L L C Z Z C.L l ] X.g.z.Q.&X-X=X-X-X6XyX6X6XuX0XoX{.y.u.&.= O w n d d L L L L C.A.C.C.C.C.A.C.A.C.C.C.C.C.",
"L L A.L C Z Z C C C L C Z Z Z Z Z Z B ] $.f.g.!.=X5X4X4X-X1X6X6XyX0X XN.y.i.8.q   > : l s d C f C.C.C.A.A.C.C.C.C.A.A.C.C.C.C.C.",
"L L I L L C C L f L d C f Z Z Z Z Z Z n $.#.g.x.:X4X5X4X-X5X6X2X9Xn.b.8.9.t.&.= . = 3 j s C L f f C.A.A.C.A.C.C.A.A.A.C.L C.C.C.",
"L L C.L C L C C K L L C C Z Z Z Z Z Z B X.#.f.g.l.=X5X4X;X-X1X^.n.,.6.8.6.6.v o O > - g p d C.f L A.S.A.C.C.C.C.Z.A.Z.C.L C.L L ",
"L L L C C L L C K f L d d Z Z Z C.Z Z Z m @.} } a.j.:XW E :X~.h.O.$.1.1.<.&.h o * 1 3 g a C C.Z L H.S.A.C.C.C.C.C.A.L C.C.C.C.L ",
"C.C.L C C C C C f K C Z Z d Z Z Z Z Z C.k | / ^ ( a.s.z n d.s._ ..#.2.*.*.[ g + * = 1 g a d C.P A.J.F.C.L L A.A.F.A.Z.L C.C.L A.",
"L L C.L C C C C C C K d K C C f L f L f B v ^ b b b 8 2 $ c ^ ^ ] +.&.&.+.c j # * < 2 t s B P Z.F.J.F.L Z.P.P.J.H.H.C.L Z.L C.L ",
"C.L L L L L L C C L d d d K C L f f L f C x c 0 8 9 3 % X - b b / } [ [ ] h y % $ e K K s C L J.J.H.C.L E.4X8X<XT.Z.C.L L Z.L Z.",
"C.C.C.C.L L L L C f C d C C L L C.f f f p h 9 9 7 3 , % X * 8 0 b / / / ^ h i t t a K K K K Z.G.F.F.Z.K Y.R.%X%XE.Z.L Z.C.L C.C.",
"C.C.C.f L C L C.L K C C C L L f f f d p p j 4 4 3 < * u @ < 7 8 8 b b b c l i i i a a K Z.P Z.C.C.F.Z.I H R R R P C.C.L C.C.C.L ",
"C.A.C.f f f L C.C C C f C L L f f f s p p i 6 6 , , O r @ O 4 7 9 8 8 m x i p i i a s K D.Z.L U L C.Z.C.K C L L L C.C.L P C.C.P ",
"C.C.C.C.f C.L Z.L C L f L L L L f s p p p p 2 ; , , + u @ * , 3 4 7 9 9 h i i p a a B K K L U L L C.L L L L L Z L L L C.C.L C.C.",
"C.C.f f C.C.f Z.L C f L f L L f s p p p p p 2 > , < o r % , = 1 3 5 5 5 j p i i s s K C Z Z f f C.C.L C.L L L L L L C.L P C.P C.",
"C.f C.C.C.f L A.Z.C L L L f L C p p p p p p 2 = * * o r e , , , 3 5 5 5 t i i p d f C L C.f A.f C.C.L L C.L L L L L L C.C.C.L C.",
"L C.L L L L f A.I L f C.f L f d p p p p p p 2 O O O X u $ < , , 3 5 5 5 g a a a d d f f C.C.A.C.C.C.Z Z C.Z Z P P C.C.P C.C.C.C.",
"C.C.L L L L L L C.C.C.C.C.f L f d p p p p p % + O o   r $ < < , 1 3 3 3 2 a a s f f C.C.A.A.C.A.C.C.C.C.Z Z C.Z.L Z C.C.C.Z C.P ",
"C.C.f C.L f f C.L L C.L L I T.T.C.d f p p p p u # # r i + < * < , , 3 , + y a d Z A.C.C.f A.A.A.C.Z C.Z P Z Z C.L C.P Z C.Z.C.Z ",
"C.C.L L L L f C.C.C.C.C.L L Z.I.C.f p p f p p p p p p i # * & O < < , & $ i p d f f C.C.A.C.f C.C.C.Z C.Z C.C.C.C.L C.C.C.Z C.Z.",
"C.f C.f f C.L f C.C.C.C.C.C.C.C.C.f p p d p p p p p i p r X O O . < $ % a p d C L L C.C.A.A.f C.Z C.Z C.Z C.C.Z C.C.C.C.Z C.A Z.",
"C.C.C.C.C.f C.C.C.C.C.C.Z.C.C.L C.f f f d d d d p p i p p r $ $ g y a a s d Z L f L f C.f f A.C.C.f Z C.C.Z Z C.Z C.A Z.C.C.C.C.",
"C.C.C.C.C.C.C.C.C.A.C.A.A.A.C.L f C.C.f f f f d d p p p p p p p s d d d C Z L Z L L Z A.A.f C.C.C.Z C.Z Z C.Z C.C.C.C.Z Z.Z C.Z ",
"C.A.C.C.C.C.C.C.C.A.A.C.C.C.C.C.C.C.C.C.C.f f f f d f f d d f f C L Z Z L Z L L C.f f A.C.C.C.C.C.Z C.C.C.C.C.C.P C.Z.Z C.C.C.Z."
};
