/* XPM */
static char *result[] = {
/* columns rows colors chars-per-pixel */
"64 64 161 2 ",
"   c #0F2A1F",
".  c #0F2421",
"X  c #0F2C21",
"o  c #112523",
"O  c #132B23",
"+  c #142629",
"@  c #152B29",
"#  c #192E29",
"$  c #153225",
"%  c #193426",
"&  c #173B26",
"*  c #1B3B27",
"=  c #163229",
"-  c #19352A",
";  c #1C3B2A",
":  c #1A3630",
">  c #1D3D31",
",  c #213E2A",
"<  c #213F32",
"1  c #1D4127",
"2  c #1E422B",
"3  c #1E492B",
"4  c #1F4231",
"5  c #22442B",
"6  c #244B2D",
"7  c #294C2E",
"8  c #27502D",
"9  c #2A532E",
"0  c #2D5A2F",
"q  c #33542F",
"w  c #305E2F",
"e  c #214532",
"r  c #254C31",
"t  c #294E33",
"y  c #274B38",
"u  c #2A4E39",
"i  c #265132",
"p  c #2A5433",
"a  c #2D5A33",
"s  c #2C533A",
"d  c #2E5A3B",
"f  c #315C34",
"g  c #305639",
"h  c #325C3A",
"j  c #2F612F",
"k  c #31602F",
"l  c #2F6130",
"z  c #346334",
"x  c #396535",
"c  c #366B34",
"v  c #396C36",
"b  c #34633B",
"n  c #39653B",
"m  c #37693A",
"M  c #3B6C3B",
"N  c #377135",
"B  c #397237",
"V  c #3C743B",
"C  c #3E7A3C",
"Z  c #406E37",
"A  c #406E3D",
"S  c #42743D",
"D  c #427B3E",
"F  c #497C3E",
"G  c #2F5E41",
"H  c #326241",
"J  c #396541",
"K  c #376A43",
"L  c #3C6C41",
"P  c #3E7242",
"I  c #436E41",
"U  c #456E4C",
"Y  c #437541",
"T  c #497543",
"R  c #437C41",
"E  c #4A7C42",
"W  c #46774E",
"Q  c #4D7D49",
"!  c #53795A",
"~  c #42803F",
"^  c #4C823F",
"/  c #52803D",
"(  c #3F834E",
")  c #458342",
"_  c #4C8344",
"`  c #468843",
"'  c #4A8B45",
"]  c #43854C",
"[  c #4C8449",
"{  c #4C8B49",
"}  c #518544",
"|  c #548A45",
" . c #5A8D45",
".. c #51844A",
"X. c #548C4A",
"o. c #588E48",
"O. c #4D9446",
"+. c #4D914A",
"@. c #4F9A49",
"#. c #559245",
"$. c #5B9345",
"%. c #5D9A45",
"&. c #54924B",
"*. c #5C944A",
"=. c #559C4B",
"-. c #5C9A4C",
";. c #4F8950",
":. c #548C50",
">. c #5C8B5F",
",. c #549552",
"<. c #569A53",
"1. c #5B9C51",
"2. c #609447",
"3. c #689D47",
"4. c #619549",
"5. c #629C4B",
"6. c #699E4B",
"7. c #629F50",
"8. c #57A24D",
"9. c #5BA24E",
"0. c #5DA152",
"q. c #65A24D",
"w. c #6AA54D",
"e. c #64AA4C",
"r. c #6CAA4F",
"t. c #71A54D",
"y. c #72AB4D",
"u. c #79AE4B",
"i. c #75B44E",
"p. c #7AB44E",
"a. c #65A451",
"s. c #69A650",
"d. c #6CAC52",
"f. c #72AE52",
"g. c #7AAF50",
"h. c #6FB054",
"j. c #73B253",
"k. c #7BB652",
"l. c #76B855",
"z. c #7CBA54",
"x. c #5D8A64",
"c. c #5F9064",
"v. c #719676",
"b. c #7EC057",
"n. c #86BE4F",
"m. c #83BC53",
"M. c #8ABE53",
"N. c #8DC34E",
"B. c #91C74F",
"V. c #93C84F",
"C. c #85C255",
"Z. c #8CC353",
"A. c #8DC956",
"S. c #91C653",
"D. c #94C954",
"F. c #99CC55",
"G. c #94CE58",
"H. c #9CD056",
"J. c #9DD358",
"K. c #A2D758",
"L. c #A5D958",
/* pixels */
") ) ) R ~ ~ R C ) P P ~ ~ R R C R P ~ ) C R Y S P S S Y Y S Y Y V P I Y _ E _ ) E ) R ) ) ) ) ) R ) ) ` ` ` ` ~ ` ` ` ~ ` ` ` ` ",
") ` ) R ) ~ ~ ) ) ) R ) ) D R ) D R R D Y S R Y R E E Y Y Y V Y S Y } o.$.| [ [ R R ) R ) ) ) ) ) ) ` ~ ` ` ` ` ~ ` ` ` ` ~ ` ~ ",
"] ` ) D ~ ) D ) ) R C C P R P ~ R R Y D S S R _ | } E E E T E Y [ |  .4.6.f.w.$.X.X._ R R ;.;.) ) ) ) ` ` ` ` ` ` ~ ` ~ ` ~ ` ` ",
") ` ) ) ~ P R ~ D ) ) R ~ R R C S D R Y Y Y } o.o.o.| o.4.6.6.t.t.y.g.g.m.m.g.o.| [ R L W x.c.] ) ) ` ` ` ` ` ) ` ) ` ` ` ` ` ~ ",
") ) ) ) P ~ ) P R C ) P ) D R R V Y T A Y Y | *.5.s.h.l.C.A.D.F.F.D.A.A.m.C.l.s.-.&.[ S L Y Q } | ) ) ` ` ` ` ) ) ` ` ` ` ` ) ( ",
") R C ) D R R R R ) D ) ) ) R R S E E T Y [ *.a.h.l.b.A.G.J.L.L.K.K.J.G.C.C.l.j.s.q.*.E I T o.5.X.) R ) ` ` ` ) ) ) @.` O.O.^ ~ ",
"~ R D D R Y ) ) R ) { { ) R S Y E Q | [ o.-.a.s.d.l.z.A.G.J.K.L.L.K.G.G.C.l.l.l.d.d.s.o.Q | 5.s.s.5.{ R ] _ ` ` ` ` +.` ` O.` ~ ",
") D R R R R ' _ ) +.+._ R Y T | 2.w.q.s.f.l.t.5.d.j.l.z.C.G.G.F.H.G.A.A.m.l.j.d.s.s.d.d.s.s.d.d.f.k.k.o.R ) ` ` ) ' +.` +.@.` ` ",
"~ ) R P R E ,.:.,.+.{ R Y M } f.p.z.b.z.b.Z.p.d.f.h.f.l.z.M.Z.S.D.F.S.M.m.j.6.4.5.r.j.z.l.l.j.d.w.q.q.*.[ R ) ) ` ' +.` +.+.( ~ ",
"( D R R Y R <.,.,.[ ) R Y Y X.f.b.C.C.N.A.A.Z.k.j.h.f.f.f.k.m.M.M.M.S.M.M.u.w.5.t.k.z.M.b.b.j.d.s.s.w.5.*.X.) ) ) +.+.' +.+.` ~ ",
"D D R R Y E <.1.X.[ _ E E [ 1.j.b.Z.A.A.D.D.Z.z.l.f.d.s.d.f.k.u.m.M.S.S.S.n.m.n.M.C.Z.C.b.z.l.h.s.s.w.f.f.*.{ _ ) +.{ { +.' ' ` ",
"~ D R R Y Q :.X.[ [ | &.&.=.a.d.z.C.Z.D.D.D.A.n.z.f.s.7.a.s.w.w.6.m.S.D.M.V.M.S.D.Z.C.C.z.l.j.j.j.h.s.e.4.[ Q X.` ;.{ { { { O.` ",
"D D ` { Q ....Q [ | &.=.=.1.9.d.k.C.N.S.D.D.D.m.z.d.*.7.<.1.5.f.m.M.D.S.S.S.V.S.F.S.Z.M.k.j.j.h.h.d.s.q.*.[ Y *.;.;.' { ] +.{ ] ",
"~ D ) [ Q ....Q [ ' &.=.=.9.8.e.p.M.S.D.D.D.D.m.k.f.7.7.7.a.d.j.m.M.F.F.S.S.V.F.F.D.Z.M.k.j.h.h.s.d.s.e.*.' Y :.>.x.{ ] +.0.{ R ",
"R S Y T U Q ..[ [ _ ' =.8.8.8.e.g.m.M.F.D.D.S.m.k.j.f.s.s.d.h.l.m.M.F.F.V.B.B.V.F.S.S.M.k.j.j.j.d.h.f.r.o.T I Q >.v.c.{ <.0.{ R ",
"Y I T A I T T E D V ) O.=.@.=.=.6.m.M.M.M.D.M.m.l.j.d.s.a.d.j.l.m.m.S.M.M.B.n.V.S.S.M.m.z.j.j.j.j.j.f.s.} Y L I W ! x.;.,.&.` R ",
"Y A A I I I I M V P ` [ @.=.&.&.&.y.n.m.M.M.M.k.l.h.d.s.a.h.h.l.m.m.Z.Z.n.n.m.M.Z.Z.M.m.k.l.j.j.j.j.f.s.o.Y Y J J U ;.Q ] ) R S ",
"Y Y T Y I M b M C P ) ` O.@.+.&.&.e.j.k.m.m.k.f.j.h.d.s.s.h.h.j.k.k.z.m.n.z.z.m.m.m.z.k.l.l.j.j.d.d.s.q.4.| | E L L P Y Y D D R ",
"D D D D P V M n M P O.O.O.+.' { &.1.s.d.d.j.g.s.d.d.d.h.d.h.h.j.j.j.j.j.j.i.k.k.z.l.l.j.j.j.d.s.s.s.5.e.q.q.5.| E Y I P R R P ~ ",
"R R R D S P M M M ~ #.^ O.{ ` +.&.1.a.a.a.s.s.a.a.d.d.d.h.h.d.h.d.j.j.f.j.f.k.k.k.j.f.d.d.s.w.s.s.s.s.7.e.w.w.*.X.E Y Y P D D D ",
"R C R R P C V m V ' %.%.#.+.+.=.=.1.0.1.*.-.5.a.a.s.d.d.h.j.h.h.h.d.j.j.j.j.j.j.f.f.s.5.4.5.s.s.d.f.s.6.7.q.q.-.$.[ Y L C R D P ",
"R R R C D D P V S ' $.| ` +.<.1.a.s.a.:.{ o.&.*.*.a.j.l.j.h.h.h.d.h.h.h.h.j.j.d.d.5.*.X.o. .*.a.s.f.7.5.6.q.w.q.$.E R P Y S D D ",
") C R D D S S S V B S V ~ #.1.a.f.g.7.R Y Q R | o.q.j.m.z.f.d.d.d.d.h.h.j.f.d.s.q.| [ E E E } 4.d.s.5.5.4.*.5.4.| _ Y J P Y S R ",
") R R Y V S Y V m c z v D q.e.a.s.s.*.L b L V E ' q.k.m.k.d.r.d.d.d.f.l.k.j.s.q.*.E E S Z D ' 4.q.6.4.*.o.| o.} S M J m M V Y D ",
") R V V M S F F M x x m S } -.*.5.o.[ J h h h A E 4.p.m.k.s.g.d.d.d.k.m.n.y.q.-.-.} D D F E  .-.4.*.4.4. .} T A h h h G L P R R ",
"C R P M Z F F F M x x v M P ) [ [ Q J y u s h n Y o.4.6.w.q.f.q.s.l.Z.Z.p.q.%.$.$.^ ^ } | *.-.*.*.*.*.2. .} A g a a d H P R ) R ",
"R C V V A F } F B x z x M M P Y Y L b g d J n b P _ ..|  .4.q.5.a.k.Z.n.y.#.| | | ^ #.%.4.4.4.*.2.4.4.4.3.E q u y s d G K R R C ",
"R P V m Z Z F F S x f z n M L P Y Y L J L Y Y L L T R E [ | o.*.a.k.Z.i.2.' ^ ^ #.%.5.3.q.q.*.| *.2.o.3.4.I u u u y s G K P P R ",
"C R C M b x x x v z f x x M M P W Y Y T [ _ R Y P Y Y Y Y E [ | *.r.y.3.^ ^ ^ ^ #.$.%.9.q.*.}  .o.| } | } A u u s y s G K Y R R ",
"R C V M b f 7 7 7 p f x M M P Y R [ [ ] { &.{ E Y R Y Y Y Y Q ..| #.| } / D D F ^ | } $./ / }  .[ E Q | E h u u h G G H K W R R ",
"C C C V n f 7 , 7 t f v M S S E [ &.1.*.X.=.*.X.[ Q T Y Y P ) [ _ _ _ ^ F S S F ^ F ^ / ^ ^ F  .F Q  .} T h h H K L K H H L Y M ",
"P ~ D V b f 7 , 5 7 x Z S F E | *.5.s.s.*.7.7...X.*.[ R Y Q E R E F F F F S S F F F S S S D F F F T }  .T I T E E Y J J G K Y V ",
"C D V V x 7 7 q 7 9 x S ^ ^ / 5.q.w.d.d.7.*.*.| o.*.} E E Q [ R F R F F E F E D F S A Z F S F / T E } E S }  .| E M b d d m P ( ",
"D P V z q 7 w Z 7 9 x S ^ / |  .*.5.q.5.5.*.| Q ..o.} _ _ } E E F F F F ^ F F F F S Z Z S F F E T E E E  .5.4. .D m b d d H C ~ ",
"C C M z x g Z x q 9 c Z S F F ^ | o.$.o.*.&.| T E [ [ [ } } } ^ E F F F F F S F F S Z F F F / E A I F  .w.3.5.} M d d d d b C ) ",
"C V V S Z Z F x 9 0 k N B S D F E _ E _ } ..[ T Y F E E Y E Y S S S D F F S A F } } F } /  ._ M h A F } 2.2.| D b a d f h K ) ) ",
"C S D D V Z S w 9 8 0 k x Z D S V S V Y F E [ F S M M M m m m z z z M F S S F /  . .}  .| F M s g Z M Y E F P m s p b n J P ) ) ",
"C C D D B Z x 7 5 5 7 q x x Z B M b b n S _ } F M b a p p a a a 0 0 x v S S ^ | $.3. ./ S b p p a f z z z b l a p p x J n J R ` ",
"D V S B v z 9 5 * * 1 8 w x c k d a a z M E | Y b a i i i i p d a p z Z F F F | 5.6.| Y b p t i t i p p i p a p i i i y s b ( ~ ",
"C C S v x q 9 5 % * 1 5 9 q w q 8 r r p b Y | E b a i i 8 p a f f x S F F D F / 4.2.T M f i i i t i p 9 r r r r r r y e u m ~ ~ ",
"D V V V f 7 6 5 $ , 1 , 5 7 7 7 5 1 5 r a M D E b h d a a a f f M E | E D D A D E D x h f a a a a f f x a i 4 4 4 r e e s G P ` ",
"D V V M p 7 , * O , $ 1 5 1 1 1 1 * * 5 i d M Z M M m m b h b D $.5.2.E V M z b h h h g z n M A D / / / / x r 3 i 4 4 e s b V ` ",
"C P D B f 5 5 % $ , O , 5 1 * * & & * ; 3 t p b n Y Y F S S Y | 6.2.| D m d d i i p p h M S F  .3.u.u.t.} x a 8 r r 4 4 y b K ) ",
"D C C V f 5 , - % , O % 5 1 * * % * * * ; 2 r a x D } | _ E _ |  .} F M z p r 3 r 6 y f v S F 2.t.u.t. .F S x 8 r 3 e e y b V ) ",
"D D D V x 5 , , * O o O ; % - ; 5 ; 5 1 ; 2 5 i f M [ } E Y D Y Y S M b a r r 2 2 r t f M S F } / / / ^ S S z i r e e e y d N P ",
"V C V M x w , , , O   o $ - ; 2 6 7 6 5 1 ; 1 r i b M M M M n n z h a a i r 4 4 ; y a z z M S F F S M c n z a t e e e e s b V ( ",
"D C B v x z 7 , * O O X % - 3 r i i 8 6 5 ; ; ; 5 i i a a a i i r r i i i t 3 4 > y p a a z x x l a a a p i r 4 e > e e s b V R ",
"C C V v x f t , - $ O $ & 2 6 i i i r 5 * & % % ; ; 4 5 r r i r i i i r r r e > > 5 5 e 6 t p 7 8 8 8 6 4 2 ; > ; < > y s M D ) ",
"D C C N v z p 6 - $ % & & 2 3 3 3 4 4 ; = $ X @ O @ @ > r r r r i i i r y 3 4 4 > 2 2 2 ; 2 2 3 3 2 3 1 ; > > ; > > 4 t m P R R ",
") C V B B v z 9 5 , & * 1 1 1 2 2 - - = @ X + + + + @ @ 5 r r r 6 4 6 y 3 2 2 ; - ; - ; - ; ; & & 2 & & - ; - : : > 4 b Y R R R ",
"~ C C V c c v a 9 5 , 5 & $ $ $ $ $ @ O X X + + . + @ @ : > ; : - : : ; - - - = - - - - ; ; & - - - - ; ; - - - : ; e M S Y R ) ",
"~ ~ C B c c v v w 7 , * = + o X o O O o X @ + . X + + @ @ @ @ @ @ @ @ @ = = = = = - - - - ; - - & & - = = # - % - : y M V R R R ",
"~ ~ C V c v c B k 9 5 , = O o + . . o o   $ O O X + o o @ + O @ @ @ @ @ O = = $ = - & & * * % = @ @ # @ # % % % ; ; a M V D R ) ",
"~ C C V B c m M x 9 7 5 ; @ + + + o o o X       X X O X X O O O $ $ $ $ $ $ $ $ & $ & & & $ O O @ @ O @ % % % & 5 9 k v P D R R ",
"~ C C C V N c B x 0 7 7 , - - # o o .       . . . . . . . o O o . X X . O X X O O O $ X O O O o O O $ % $ * 5 7 0 w x M V R ) R ",
"~ C C C V N B B N k w w 9 e - - # o . o o o . . . o . o o X   . . X . . o o o X O O O O O O O O O $ & 1 7 0 0 k x x v V R R R _ ",
") C C V C V N V B c j c j j 8 1 % $ O     O       o O o     O o O O O O O O O $ O % $ $ O O $ & 1 3 6 6 9 k v c z c M S R R ) R ",
") R C D V V N V N N N N N j j 1 % $ $ $ $ O         O $ O @ O % % = % O O # $ % , & $ $ % % & 6 0 0 j 0 k z c V v v V D R R R ) ",
"( C C V V B N N B B B N v A >...0 6 3 8 5 1 % $ O O $ * % # $ 1 7 5 * $ O % , 7 9 6 1 ; 5 * 6 0 0 j c c c v M V M V Y R R R R _ ",
"~ D C D V V V N V B B B v M M Y N c c c k k k 9 5 5 * , * 5 8 9 a 5 % * 5 9 w k l p 9 0 9 8 0 0 j j v c c B V V V V D R R R R ) ",
") ~ D C C C C C C N B C B V B B B N N N N N N N c k k w l c c c z 0 9 0 x c c z c z k c c c c N N N B B V C V C D R R R ) R ) R ",
"] ~ ) ~ ~ C C C ~ ~ C ~ C C V C N N N N N N N N N c c N c N c c c v v v c v c c c B c B N V V C C B V V C C C C D R R R R ) R _ ",
"( ' ) ~ ~ C ~ ~ ~ C C C ~ C C B C N C N N B N B B N B B N N B N N V B M B B B B B B B C C C C C ~ C C C C C P C R R R R ) R ) R ",
"( ] ' _ ~ ~ ~ ~ ~ ~ ~ ~ ~ ~ ~ C C C C C C C C B C C C C C C C C V V V V V V V V V C ~ C ~ ( ~ ~ ~ P D ~ ~ ~ ` ) ) D R R R _ R ) "
};
