/* XPM */
static char *result[] = {
/* columns rows colors chars-per-pixel */
"64 64 242 2 ",
"   c #05090D",
".  c #121213",
"X  c #2A1E17",
"o  c #3C2617",
"O  c #38291A",
"+  c #3A341D",
"@  c #343A20",
"#  c #3D3922",
"$  c #2D2928",
"%  c #442A1A",
"&  c #4B2C1A",
"*  c #452817",
"=  c #59331D",
"-  c #4A3018",
";  c #63391E",
":  c #6F3A1D",
">  c #773C1D",
",  c #443C21",
"<  c #573C28",
"1  c #6A3C23",
"2  c #723E23",
"3  c #394826",
"4  c #38562D",
"5  c #3D5D31",
"6  c #355B30",
"7  c #3A6535",
"8  c #396B36",
"9  c #3C6439",
"0  c #3B6D39",
"q  c #366434",
"w  c #3D733B",
"e  c #3F793D",
"r  c #464727",
"t  c #59472A",
"y  c #4B552E",
"u  c #425A2F",
"i  c #46562D",
"p  c #58542D",
"a  c #4D5B31",
"s  c #445C31",
"d  c #575834",
"f  c #594937",
"g  c #674728",
"h  c #784727",
"j  c #79582E",
"k  c #665637",
"l  c #735E32",
"z  c #684D36",
"x  c #446435",
"c  c #426D3A",
"v  c #486538",
"b  c #596538",
"n  c #41763F",
"m  c #41793F",
"M  c #49703B",
"N  c #58733E",
"B  c #726536",
"V  c #5B5450",
"C  c #685843",
"Z  c #775341",
"A  c #446D40",
"S  c #4C6D49",
"D  c #516D4A",
"F  c #437541",
"G  c #437C41",
"H  c #497C45",
"J  c #4D7D4A",
"K  c #4B7447",
"L  c #537C4D",
"P  c #597945",
"I  c #587855",
"U  c #4E7551",
"Y  c #78675A",
"T  c #696F55",
"R  c #6D6E69",
"E  c #577465",
"W  c #91441C",
"Q  c #8B4D2A",
"!  c #854927",
"~  c #954C26",
"^  c #99522C",
"/  c #985834",
"(  c #885433",
")  c #A3552D",
"_  c #A95629",
"`  c #B55B2C",
"'  c #AC5C33",
"]  c #A65A37",
"[  c #B45D32",
"{  c #BB5F33",
"}  c #A04F23",
"|  c #AA6238",
" . c #B56133",
".. c #BC6336",
"X. c #BD693B",
"o. c #B9612F",
"O. c #A44D1F",
"+. c #C36536",
"@. c #CB6C3A",
"#. c #C76838",
"$. c #D66D38",
"%. c #DB733C",
"&. c #D5723A",
"*. c #D3652C",
"=. c #E3743B",
"-. c #E5793D",
";. c #E9783B",
":. c #F37E3D",
">. c #FD7C3A",
",. c #E66E31",
"<. c #C95D2B",
"1. c #925F42",
"2. c #805E4B",
"3. c #8D6954",
"4. c #A9745A",
"5. c #B4704A",
"6. c #887969",
"7. c #977867",
"8. c #A57D6F",
"9. c #CB7748",
"0. c #D87744",
"q. c #D17D50",
"w. c #E87842",
"e. c #FC7D43",
"r. c #F57C44",
"t. c #E57F53",
"y. c #448242",
"u. c #498546",
"i. c #468843",
"p. c #498A46",
"a. c #4C8549",
"s. c #4C8C4A",
"d. c #51864E",
"f. c #4D914B",
"g. c #51934E",
"h. c #588957",
"j. c #549552",
"k. c #5B9359",
"l. c #758658",
"z. c #5A846C",
"x. c #678965",
"c. c #69986A",
"v. c #799267",
"b. c #738C73",
"n. c #779877",
"m. c #73846E",
"M. c #77A677",
"N. c #FD823D",
"B. c #F6813F",
"V. c #87867E",
"C. c #889778",
"Z. c #8C8B6D",
"A. c #AF8B7B",
"S. c #9EA07B",
"D. c #A7824C",
"F. c #D58358",
"G. c #EA8347",
"H. c #FE8542",
"J. c #FE8A44",
"K. c #F78648",
"L. c #E68453",
"P. c #F88D57",
"I. c #FD945A",
"U. c #CF8E6D",
"Y. c #FD9864",
"T. c #ED956C",
"R. c #FEA672",
"E. c #FFA96F",
"W. c #727B83",
"Q. c #758990",
"!. c #7EA280",
"~. c #858787",
"^. c #889984",
"/. c #999687",
"(. c #989A9C",
"). c #928F8A",
"_. c #A89689",
"`. c #A89B94",
"'. c #B3958A",
"]. c #91AB92",
"[. c #B1B09A",
"{. c #879BA7",
"}. c #8B9EAB",
"|. c #8FA2AB",
" X c #96A4AC",
".X c #97AAB7",
"XX c #9EB2BC",
"oX c #90A8AC",
"OX c #A9A8A9",
"+X c #A6AFB1",
"@X c #A6B5BB",
"#X c #B7B7B9",
"$X c #B1B2A5",
"%X c #C89C84",
"&X c #DE9E83",
"*X c #CCA28A",
"=X c #C7A998",
"-X c #DAA98F",
";X c #EDA987",
":X c #FEB485",
">X c #F3B291",
",X c #C6BBB7",
"<X c #CDB5AD",
"1X c #FABBA3",
"2X c #FFC298",
"3X c #C7C2BB",
"4X c #D2C5BB",
"5X c #FCC8AD",
"6X c #FED3BE",
"7X c #F0D0BE",
"8X c #E9C4B0",
"9X c #ABB9C5",
"0X c #B6BDC5",
"qX c #9FB3C4",
"wX c #B8C2CC",
"eX c #BBCBD5",
"rX c #C8C8C8",
"tX c #D5CCC7",
"yX c #DED3CD",
"uX c #C2CBD4",
"iX c #CBD4DC",
"pX c #C9D1D6",
"aX c #D8D8D7",
"sX c #D0CFD0",
"dX c #FBD7C7",
"fX c #E8DBD5",
"gX c #F6DDD2",
"hX c #E0D4CB",
"jX c #EEE1DA",
"kX c #F6E3D8",
"lX c #D5DCE2",
"zX c #CEDAE4",
"xX c #DBE3E9",
"cX c #E5EAED",
"vX c #E9EBEE",
"bX c #E7E5E5",
"nX c #F8EBE5",
"mX c #E8EDF1",
"MX c #EEF0F3",
"NX c #F3F4F5",
"BX c #FDFDFD",
"VX c #F6F7F8",
/* pixels */
"y.y.y.y.G y.e y.e y.y.e y.G G G G G G G G e n n n w A n m n m m m H G G m G H y.G G y.y.y.y.y.y.y.y.i.i.i.i.i.i.y.i.y.i.y.y.i.i.",
"y.i.y.G y.G y.y.e y.e y.G e e y.G G G G n n m n n n n n n n m m y.m m m G m y.y.y.G i.y.y.y.y.y.y.y.y.i.i.i.i.i.y.y.i.i.y.i.y.i.",
"i.i.y.G G G G y.y.y.G y.y.e y.G G G n F n n G H n n n n m m m m m m y.m G F G a.y.y.i.y.i.g.s.u.y.y.y.i.i.i.i.i.i.i.i.y.y.y.y.y.",
"y.i.y.y.y.G e G y.e G e e y.G y.y.G G n n w G H n n n n m m m m m m m m n G G p.G y.y.y.k.M.c.a.y.y.i.i.i.i.i.i.y.y.i.y.y.y.y.y.",
"y.y.y.G G G y.G G G G G G G G G m G G n n n G G n n m m m m m m G G m n G m G G G y.y.i.s.h.s.y.y.y.i.y.i.i.i.i.i.i.i.y.i.y.y.y.",
"y.y.G G G G y.G G G G y.y.y.G G G y.m F n n n H a.U m m m m m m m m n G G F m y.G y.y.G y.G G G y.y.y.y.i.i.y.i.i.i.f.i.y.i.y.y.",
"y.y.G G e G G G G y.s.p.y.G G G G H n n n K l.S.$X[.v.m m m n m m n F G G e m m G y.G G G m G H e y.y.y.y.p.y.i.i.y.f.i.i.i.y.y.",
"G G G m G G s.i.y.f.f.p.y.G e G G G n n L ^.4XjXbXaX3Xv.m n n m e m n e G F e G G G G m n G G u.y.n e y.y.i.i.y.i.p.f.i.s.i.y.y.",
"G y.G m n H g.f.g.g.s.y.G F F m G F G I /.tXkXfXtX#XOXOXl.n n m G m n m n F e n m G m m G n G G a.G F y.y.G y.u.i.i.f.i.f.i.y.y.",
"G m G F n u.j.j.j.s.u.y.G F F G G m H n.rXfXfXtX#X(.).OX^.m m n e n m m G m m e e F m m n n n G u.u.n H G G y.G y.s.f.p.p.i.y.y.",
"G G G G M H k.j.d.a.y.G m F m G G F h.$XfXfXhX,X(.Q.^.$XC.m m m n m m m G G s r c n n n F e n F y.s.y.G G G m y.i.f.s.s.s.u.y.y.",
"G y.G G F a.g.g.H y.G G F F G m F F b.3XkXfXtX,X~.E x.Z.d.m m m m n m m F s < < y e m e e n e e G a.s.G y.m m G p.f.s.s.p.u.y.u.",
"G G i.p.J a.d.J H G G G n n G m F H ~.tXjXfX4X3X(.x.m n e e m m m m G n i C _.7.r c F e n n n n m y.f.s.p.H d.h.h.d.s.s.u.u.y.y.",
"G G y.p.J a.d.J H H G G F G G n w J ^.rXjXjXtX3X#X[.C.Z.l.N m m n n n i Z $XfX[.t 9 w n n e e n m G s.g.j.x.n.!.M.c.s.a.s.s.y.G ",
"G F F F S J a.H H G F 0 n F G n F L ^.,XfXgXaXtX4X-X-X*XU.D.N m n n 5 t _.sXaX4Xk u n e n n e F n F a.k.x.b.!.!.].^.c.s.s.s.y.y.",
"M F F A A K J H y.G F i r i 9 9 n K ^.#XyXjXjX8XR.I.P.L.&.F.D.N n 9 , 7.tXsXaXsXY 5 F e e n n w n F H I I E R b.b.x.x.j.s.i.y.H ",
"F A A A A F K G G G F r f 6.R f y D m.+XhXdX5X:XI.B.:.-.&.9.F.B x 3 ( =XsXrXaXjX6.s n n n F n n A A H U S S U D I I h.a.H y.G G ",
"G F F F F M F G G m n 3 < OX9XOX6.C C 7.<X5XR.P.w.w.%.@.X.#.&./ t g U.8XrXeXaXjXV.5 n n G m e n w A a.a.U U S S U J F F m y.G y.",
"G G n m n m G G m m G s < (.iXeX0X(.3.z 3.U.q.#.X.X.X... . .+.| ! ' F.&X,XrXpXbX_.a n n y.G A e n n G F G U H A n F n G m y.y.m ",
"G G m m m G G F m G G c , ~.0X0X0XuX0X).2./ ] ) / /  .#.+.#.&.+...&.&.F.-X4XaXvX`.v n F G G n w n n n n F G m F n n G G m y.m y.",
"G e G m G m G m m G F n , Y 0X0X#X#XsXsX=X4.5.) ' +.-.:.=.B.B.%.-.r.=.=.T.;X7XkX_.v n c A F n n n e n n n n F m m m n n H m y.m ",
"G G G G G F G G G G m m 4 z OXuX3X*X'.=X>XT.t.=.-.B.H.N.H.H.H.H.J.J.H.N.e.K.:XdX_.v c F w w n n n n m n m m G m m m m H m m m m ",
"y.e G m e m n G G n m G A , ).uXwX*X5.5.G.P.J.H.N.J.H.H.J.H.H.H.H.J.J.J.>.>.Y.8X/.v F n n n w n e n n n e m m m m M m m m m m m ",
"G y.G G F F G G G m G F F r 3.wX3XU.9.*.;.>.N.H.H.H.H.H.H.H.H.H.H.H.H.N.e.e.t.>X7.x n n n n n n n w n n m n m m G G m m M m m m ",
"y.y.e G G m G G m m m m m u d OX<XF.9.0.K.N.H.H.H.H.H.H.H.H.H.H.H.H.J.N.J.e.r.T.3.x G m m n n n n n e G n m n G G n n n n m G m ",
"G e G G m G y.H m m m G m n t ~.'.9.%.w.r.H.H.H.H.H.N.H.H.H.H.H.H.H.J.N.H.e.r.t.2.v n F n e e n e m m e m m F G m m H m m y.y.m ",
"G G G G G G y.G m n m G G m 4 Y A.5.@.;.:.H.H.H.H.H.H.H.J.H.H.H.H.H.J.J.e.e.r.t.1.s n F n m n n m m m m m G F G G F m n m m H m ",
"G G y.e G G H H G m G m m m x z 4.5.#.=.K.H.H.H.H.H.H.H.N.H.H.H.H.J.K.G.H.e.r.0.] g v F m n n m n m m G G G G G G G m m m m m m ",
"e y.e y.G m G G G G n G e G m d ( | +.w.r.H.J.J.H.H.H.H.H.H.H.H.J.w.] ! #.H.e.=.{ ~ z M m m m m m m G G G y.G G m m m m m m m m ",
"e G G G G m G G G G G G G e m 9 1 ] +.=.r.H.J.J.H.H.H.H.H.H.H.J.J.X.% X h r.H.r.#.) ^ k n m m e m m G G G u.y.G m m m m m m m m ",
"y.G G e m G G m n G G n e m m w t ^ { $.=.+.' %.H.H.H.H.N.N.N.J.J.| X   1 w.H.K.w.` ) j M m m G e G G G y.p.y.m H m m y.m m m m ",
"G G G G m G G m n G n n G e n n d ^ { 0.+.= X h -.N.H.N.N.N.H.N.N.$.: * ^ e.H.e.e.0...^ v m m m m m m y.p.y.H m y.m m y.m H m m ",
"G G G m m m m F m m e G m n n n f Q [ %.' X   o ..>.H.J.I.E.R.Y.I.J.G.X.-.N.N.>.e.P.t.| C G G G e G m y.y.y.y.e e G G G y.y.e y.",
"y.G G m m m m m m n n e m m m n y ! [ #.{ 1 X = ` =.P.:X>X*X*X8X6X5X2XE.E.Y.I.I.Y.;X1X&XZ.d.G G F e G G y.y.e y.e y.e G e y.y.e ",
"G G G m m m G F n n n m e m m n a Q [ +.0.[ ~ ~ #.F.-X[.V $ V uXBXBXnXkXdX6X6X6XdX6XdXgXyX].k.e G e G G e y.y.e y.G G e e y.G y.",
"G G G G m G m m m n n e m m n n a Q [ { $.,.,.@.U.4XpXR     R lXBXBXBXBXBXBXBXVXNXnXbXbXsXOXk.F e m G G y.y.y.y.G G y.y.y.y.i.y.",
"y.e G G G m m n m n m e m m m n p } <.<.*.,.t.-X4XlXxX$XV.).sXBXBXBXBXBXBXBXBXBXvXbXxX3X6.h.G m m G m y.y.G y.y.e i.e i.i.y.i.i.",
"e G e G n F F m m n n n m m m c h 5.0.0.L.R.8XbXcXvXVXBXMXNXBXBXBXBXBXBXBXBXBXMXbXzXuX'.l H G m G e y.e y.G y.y.e e i.e i.y.i.y.",
"G e G e n n G m n n e m m m M D 4.&X;X1XdXkXVXVXNXVXBXBXBXBXBXNXVXVXVXVXVXVXNXvXzX0X'.] j m G G m e G y.G y.y.e i.e y.y.y.y.y.y.",
"G G m m n n m n n n n m m G T /.OX4XfXnXBXBXBXVXNXVXVXVXBXVXMXNXMXNXNXNXNXNXMXxX9X_.] O.l u.y.G m y.G G y.y.y.y.e y.e y.e y.y.i.",
"G G m n n n n n n e m m m H b..X9X0XzXxXxXmXmXMXNXNXNXMXNXNXNXMXNXNXNXNXMXvXxX#X8.] _ ~ B y.y.G e e y.y.y.y.y.y.i.e y.e y.y.y.y.",
"G G G m m m m m n n G G G m z.z.W.}.9XeXeXuXzXlXmXMXmXvXvXmXvXmXcXvXcXxXxXzX@X8.[ ` / ! k u.u.G G y.e y.y.y.y.e e i.y.y.y.y.y.y.",
"G G y.G n m F n n n n y.G n G G I z.Q..X9X9X0XwXiXlXxXxXlXlXlXlXlXiXiXpXeX#XA.' { { Q 2 b i.u.G y.y.y.i.y.y.y.y.i.y.y.y.y.y.y.y.",
"y.G y.y.m m n m n n G n G n n G K H z.Q.}..XqX9X0X0XuXpXzXiXiXiXeXeXwX9X@X`.| o.#.[ h < b p.s.y.y.y.i.i.i.y.y.y.y.i.i.i.G y.y.y.",
"G G y.G m m G n m m n G n e m m m G G L E W.Q.}.qXqXqX9X9X0X9X9X9X@X X+X+XA.5.@.$.) ; , p p.f.u.e y.i.y.y.i.y.y.y.s.y.y.y.y.y.G ",
"G G H G F m m F m G n n n n m n G G m m S f V R W.}.}.|. XoX XOX X|.oX@XeXU.&.&.%.Q - % y y.g.s.y.i.s.i.y.y.y.y.i.i.y.y.y.G y.y.",
"y.G e F F G G n n n n n e m n G m G m m m y = : j W.{.|.|.{.{.|.oXoXqXeX4XT.G.B.$.2 o o i a.f.s.i.f.s.y.y.y.i.i.y.i.y.y.y.H H y.",
"y.G G F e n m n n m n n m e e G G m m m m c g W ~ 2.~. X X X.XoX+XwXeX0X'.F.K.B.' t + r x u.g.f.i.f.f.G G G i.y.s.p.y.G y.y.G y.",
"G y.y.e F e F F e F n n n m m m e e m m w w p ( o.) 1.7._.@XwXXXwXpX#XA.5.&.%. .l v 5 5 9 u.g.g.f.g.s.G d.k.k.j.f.s.G y.y.y.G y.",
"y.G y.G G G G e n e n n n n m m e e e w c 0 x j #.*.` _ 5._.XX@XXX^.6.^ o.*.o.h v 0 K n 0 G d.j.g.f.u.F n.].+X].c.a.y.G H y.H y.",
"y.y.y.e G G G G F n n n e m m n w w w w c w 0 p ..w.*.*.+.X.4./.k.U g W [ o.Q p 7 9 F F F H a.f.f.p.a.F x.b.C.Q.n.a.G y.y.y.y.G ",
"y.y.y.y.G G G G G n G n m m e w w w 8 w w 8 0 a / ;.r.=.-.*.} C q 9 - ~ ^ ~ 2 i 7 9 9 c u.H H u.y.s.i.U K U I U H y.G y.G H y.y.",
"y.y.y.e e y.G a.G G m m n n w w 8 8 8 8 8 8 8 s ( $.e.w.;.$.} i q 3 = j ! ! t 5 7 9 9 n y.H H G G y.y.y.n n G G m y.m u.y.y.y.m ",
"y.y.y.y.y.e G u.G m n m m w 8 8 8 8 8 8 8 8 8 8 l [ =.%.$.#.~ 3 q @ = 2 2 2 t q 7 7 9 c n e n H y.G G G G G G G m m y.y.y.H y.y.",
"y.y.e e e e y.i.H F n e w w 8 8 8 8 8 8 8 8 8 q p Q +.#.+.{ h + 4 @ & 1 ; ; i 8 7 7 0 F e y.e y.G y.G y.G G G m m u.y.m y.y.y.H ",
"y.e y.y.y.e y.i.y.m e n w 8 8 8 8 8 8 8 8 8 8 8 a j ) [ ` _ h 3 3 + * & & = r q 8 8 w G e y.y.e y.y.G y.y.G G G m m H y.y.m y.y.",
"y.y.e y.y.y.G i.u.m e e e 8 8 8 8 8 8 8 8 8 8 8 u g ! ) ~ ! 1 3 4 $ o * * - + 7 8 w e y.y.y.y.y.y.m m m m m m m u.m y.m u.u.y.m ",
"y.y.G G e G G y.G G e e e 8 8 8 8 8 8 w 8 8 8 8 6 < 2 h 2 ; = @ 6 3 O o * % 3 8 8 w G y.y.y.i.y.y.y.y.y.y.m u.u.m u.u.m y.m y.u.",
"y.y.G G e G e e G y.e e n F h.x.m w 8 8 8 8 8 8 4 O = ; = & o + 4 q 3 O , 3 9 0 w y.y.i.y.y.y.i.y.y.y.m m N m u.m y.u.y.m y.m u.",
"y.e G G G m e e G y.y.G A A A G e 8 8 8 8 w 8 q + % & & & * o O 3 q q 6 7 7 8 w e e y.y.y.y.y.y.e y.y.m y.y.y.y.u.m m y.u.u.m y.",
"y.e y.e y.e y.y.y.y.y.G y.y.m m e w 8 8 w 8 8 q + * * & - o o O 6 7 8 7 8 8 0 G e e G y.y.y.y.i.y.y.e y.y.y.y.m y.y.m y.y.y.m u.",
"y.y.y.y.y.e e i.y.y.i.i.y.y.G G e e e w w w w w 5 , % % O O @ 6 7 8 8 8 0 w m G y.e G G y.y.y.e y.e m y.m m m y.m m u.u.m u.N y.",
"y.y.y.y.y.y.y.i.y.y.i.y.i.y.y.e y.e y.e e e e w w 5 r 3 3 6 8 0 0 w w n n m G m e y.e y.y.y.y.y.y.e m y.y.y.y.m u.y.y.m y.y.y.y.",
"y.y.i.i.y.y.y.y.y.y.y.i.y.y.y.y.e y.y.e y.y.e e e e e e w w w e e e m m G m G G e y.y.y.y.y.y.y.y.y.y.e m y.y.y.u.m y.y.m y.y.y."
};
