/* XPM */
static char *result[] = {
/* columns rows colors chars-per-pixel */
"64 64 233 2 ",
"   c #1A1816",
".  c #3C2617",
"X  c #3C2719",
"o  c #372919",
"O  c #3A351E",
"+  c #2E3029",
"@  c #201A16",
"#  c #442B1A",
"$  c #4B2C1B",
"%  c #452917",
"&  c #44351D",
"*  c #56351D",
"=  c #502F1C",
"-  c #62371F",
";  c #76391E",
":  c #463922",
">  c #5A3823",
",  c #663B22",
"<  c #713E22",
"1  c #384A28",
"2  c #38562D",
"3  c #395B31",
"4  c #3A6535",
"5  c #396B36",
"6  c #3B6439",
"7  c #3B6D39",
"8  c #356032",
"9  c #3D733B",
"0  c #3F793D",
"q  c #444424",
"w  c #4C4A29",
"e  c #584727",
"r  c #43552D",
"t  c #4B562E",
"y  c #4A5D34",
"u  c #495932",
"i  c #565B32",
"p  c #594F33",
"a  c #694929",
"s  c #784727",
"d  c #79582F",
"f  c #634D39",
"g  c #665735",
"h  c #765935",
"j  c #6F4E30",
"k  c #436436",
"l  c #4B6435",
"z  c #426D3A",
"x  c #446A37",
"c  c #566435",
"v  c #41763F",
"b  c #41793F",
"n  c #49743D",
"m  c #5B703B",
"M  c #6B6437",
"N  c #6C5749",
"B  c #446D41",
"V  c #4C6D49",
"C  c #536E4D",
"Z  c #437441",
"A  c #437C41",
"S  c #497D46",
"D  c #4D7D4A",
"F  c #4A7648",
"G  c #55794A",
"H  c #577755",
"J  c #507754",
"K  c #786453",
"L  c #65735D",
"P  c #6B6E6A",
"I  c #514D4A",
"U  c #8D4C2A",
"Y  c #864A27",
"T  c #944D28",
"R  c #94512D",
"E  c #9B532D",
"W  c #895836",
"Q  c #985936",
"!  c #88512F",
"~  c #A4552D",
"^  c #A9582B",
"/  c #B65C2E",
"(  c #AB5A32",
")  c #A65935",
"_  c #B35D33",
"`  c #B85E35",
"'  c #BB6133",
"]  c #B6653A",
"[  c #A86635",
"{  c #C36435",
"}  c #CB6A36",
"|  c #CD6A38",
" . c #C76738",
".. c #D46D3A",
"X. c #D86C3B",
"o. c #DC7136",
"O. c #D5723B",
"+. c #DB733C",
"@. c #DB652F",
"#. c #E4753C",
"$. c #ED7B3D",
"%. c #E6763C",
"&. c #F37E3E",
"*. c #FC7C3A",
"=. c #E56F37",
"-. c #8F5D43",
";. c #886344",
":. c #926D54",
">. c #A86642",
",. c #B57250",
"<. c #847568",
"1. c #8C7972",
"2. c #A87967",
"3. c #C87548",
"4. c #D87646",
"5. c #CB714D",
"6. c #E97842",
"7. c #F27D40",
"8. c #FC7C43",
"9. c #F57C49",
"0. c #E77E52",
"q. c #448242",
"w. c #498546",
"e. c #468843",
"r. c #498946",
"t. c #4C8449",
"y. c #4C8C4A",
"u. c #51864D",
"i. c #4D914B",
"p. c #51934E",
"a. c #5C8A5A",
"s. c #558755",
"d. c #549552",
"f. c #5B9359",
"g. c #668A59",
"h. c #5B8375",
"j. c #668B65",
"k. c #69986A",
"l. c #769668",
"z. c #738C72",
"x. c #759878",
"c. c #6C8674",
"v. c #77A677",
"b. c #FD823D",
"n. c #998976",
"m. c #8D8978",
"M. c #AF8774",
"N. c #9CA478",
"B. c #F68241",
"V. c #FE8542",
"C. c #FC8947",
"Z. c #F78A56",
"A. c #FF9559",
"S. c #E78553",
"D. c #D78B67",
"F. c #C89279",
"G. c #D09371",
"H. c #F89767",
"J. c #F1956F",
"K. c #FCA477",
"L. c #FFAC73",
"P. c #C9845F",
"I. c #7A8D96",
"U. c #6E8488",
"Y. c #7EA280",
"T. c #7F93A0",
"R. c #879797",
"E. c #8D978E",
"W. c #A89488",
"Q. c #A59A99",
"!. c #B39587",
"~. c #95AD99",
"^. c #8EAA8F",
"/. c #B3A698",
"(. c #AEA995",
"). c #899BA7",
"_. c #929FA9",
"`. c #98A6AB",
"'. c #9AABB6",
"]. c #96AAB0",
"[. c #AAA9A8",
"{. c #ADB4BC",
"}. c #A7B3BB",
"|. c #B6B7B9",
" X c #B5B0AD",
".X c #C8A28D",
"XX c #D6AB96",
"oX c #D1AA8D",
"OX c #FBA983",
"+X c #FBB897",
"@X c #F3AC8C",
"#X c #CBB7AE",
"$X c #F9BEA6",
"%X c #BAC6BA",
"&X c #D8C4B8",
"*X c #CECBBC",
"=X c #FBCBB4",
"-X c #F7C8AF",
";X c #ABB9C2",
":X c #B6BCC4",
">X c #C2BCC0",
",X c #BAC4CA",
"<X c #BDCBD4",
"1X c #C6C5C6",
"2X c #D7D0CC",
"3X c #C3CCD4",
"4X c #CAD2D9",
"5X c #D9DADA",
"6X c #D5D6D8",
"7X c #D3CEC9",
"8X c #FAD9CA",
"9X c #E6DEDC",
"0X c #F6DCD2",
"qX c #E6CFC5",
"wX c #FDE3D5",
"eX c #F6E7DD",
"rX c #E9E3DF",
"tX c #D6DDE3",
"yX c #CED8E0",
"uX c #E0DFE1",
"iX c #DBE1E5",
"pX c #ECE6E4",
"aX c #E6EAED",
"sX c #EAEBED",
"dX c #E2E5E7",
"fX c #F7EBE5",
"gX c #FDF2EB",
"hX c #ECEEF1",
"jX c #EFF1F3",
"kX c #F3F4F5",
"lX c #F6FBFC",
"zX c #FDFDFD",
"xX c #F7F7F7",
/* pixels */
"q.q.q.q.A q.0 q.0 q.q.0 q.A A A A A A A A 0 0 v v v B 9 v v b f.j.w.b A A b A q.A A q.e.q.q.q.q.q.q.q.e.e.e.q.q.e.e.q.e.q.e.e.e.",
"q.e.q.b q.A q.q.q.0 0 q.A 0 0 q.A A A A v 0 0 0 v B v v Z 0 Z x.~.a.A A A 0 A w.A q.q.q.q.q.q.q.q.q.q.e.e.e.e.e.e.q.e.q.q.e.0 e.",
"e.e.q.q.A A A q.q.A q.q.A A A q.A A A 0 v 0 A J v v v v Z A a.~.7XN.e.b b v q.t.A q.q.q.r.p.u.w.q.q.e.e.e.e.e.e.e.e.e.q.q.q.e.e.",
"q.e.q.q.q.A A A A q.0 0 q.0 q.A A A A v v B A A v v v v A A x.%XfX*Xp.0 b A A w.q.q.q.e.f.v.k.r.q.q.q.e.e.e.e.e.q.e.q.e.q.q.e.0 ",
"A q.q.A A A q.A A A A A A A q.A A J A 0 v v v A v v v A v h.~.5XgXeXl.n b A b A q.q.q.q.u.d.u.e.q.q.q.e.e.e.q.e.q.e.e.e.q.q.q.q.",
"q.q.A A A A A A A A A q.q.q.A A A A 0 0 v v v v v v v A 0 U.%XpXgXeX Xu.b A b q.b q.q.q.q.b q.n q.q.q.q.e.e.e.e.q.e.i.e.q.e.q.q.",
"q.A A A 0 A q.A A q.y.r.q.A A A A A v v v v v v A A v v s.~.4XsXgXwX7Xg.v v b A q.q.q.b b b b q.A A q.q.q.e.e.e.e.e.i.e.e.e.q.q.",
"q.A A A A A r.e.q.i.i.r.q.A 0 0 A v v v v v v 9 v v v Z U.;XtXpXeXwX8X^.w.v v A A b b b b b b q.q.0 A q.q.e.q.q.e.r.i.e.y.e.q.q.",
"A q.b A n b p.p.p.p.y.w.b Z v Z A Z v v Z v v v v v v V R.7X9XpXwX8X-XXXg.q.n 0 b b b b b b b q.w.A A q.A q.w.q.q.r.i.e.r.r.q.q.",
"A A A b Z w.d.d.d.y.w.q.A v Z A A v A v v b v v v v v J ).2X0XeX8X=X$X$XN.n b x b b b b v v b b w.w.Z A A A A A q.i.i.r.r.r.e.q.",
"A A A Z n w.f.d.u.w.q.A Z Z b A A A A v v v v v v v Z L [.qX$X0X-X-X+X+XoXu.y # t 9 b b b b 0 b S y.A A q.A b q.e.i.y.y.r.w.q.q.",
"q.A A A S S d.u.S w.A A 0 Z A A v b v b v v v v v 9 V K [.$X+X$X+X+X+XL.G.;.f N w b v b 9 v v b A r.y.A w.0 v A r.i.y.y.r.w.w.q.",
"A A e.r.D u.u.t.S q.A A v b A b b v b v b v v v A b Z K XXOXK.OXK.K.OXOX>.N #XW.w x b 9 b v v v A w.i.t.w.D s.s.s.y.y.r.w.w.q.q.",
"0 A q.r.S u.t.D S A A Z v b A Z v v b A b v b b q.A A ;.D.J.H.H.J.K.OX>.-.[.rX#Xg 4 v 9 9 b v v v A y.p.d.j.x.Y.v.k.u.w.y.y.w.q.",
"Z Z A Z V D D D A A A B y 6 A Z v v B F A v b q.w.b Z -.5.0.Z.Z.0.H.5.Y W.3X5X>XK r 0 b v v 0 9 v A w.f.j.z.v.m.^.^.k.y.p.r.q.A ",
"Z B Z B B F D S q.A A 6 : p u 3 6 B 7 F A b b w.q.b n W ] 4.9.6.4.{ ; :.>X>X5X9X<.r b v v b v v B Z S H a.L L c.c.c.j.d.y.w.w.A ",
"Z n z B B Z V Z q.b b k # <.E.<., : 4 v b b b e.q.A n d `  .6. ._ ; W .X1X1X5XrXW.u v v v b Z 9 7 B F D V V C C J H s.t.A q.q.A ",
"A Z Z Z Z Z A b Z A A n O <.;X;X[.E.f : k b b A b b n h _ `  .{ T s ,.XX*X%X6XpXW.3 v v A b b v Z Z S t.J V V V D J Z Z A A A q.",
"A A b b b b b A Z b b A q K ;X;X:X:XQ.<.> w n b b b m Q  .) '  .R ( 3.D.XX1X7XpXQ.u v v w.A v v v v S A F t.F Z v Z Z A A q.S q.",
"A b b b b b q.Z b A A A 2 f [.:X;X:X1X>XW.;.d m m M [ +. .| $.| ' X.O.3.J.#X2XjX(.y Z v A v 9 v v v v v b b b Z A v A A b A A A ",
"b b A b b q.b b b Z b b z : Q.:X|. X X*X&X.X3.[ [  .b.B.%.b.b.$.7.V.$.6.Z.J.-XeX/.y Z B 9 v v v v 0 v 0 v v b b n b b A A A A b ",
"q.q.b A A Z A b A A A A A O 1.:X,X#XF.M.G.K.Z.B.$.b.C.B.B.C.B.V.C.V.V.C.b.7.K.=X(.u Z 9 B Z 9 Z v v v v 0 b b b A b b Z A b b b ",
"q.b A b b b b Z A b b b Z 2 N {.1X#XM.{ +.b.C.C.b.C.V.V.V.V.V.V.V.V.V.V.b.*.S.$XW.y Z 7 9 9 v v 9 v v v b b b b A v v b b b n b ",
"q.b A b Z A A A A b b b b x : Q.>X.XP.3.%.b.C.b.V.V.V.V.V.C.V.V.V.V.V.V.V.8.9.@Xn.k Z Z v v v v v v v v b b Z b A v A n Z b b b ",
"q.b q.b A A A A A Z A b A b 1 1. XF.4.X.6.C.b.V.V.V.V.V.V.C.V.V.V.V.b.C.b.8.8.J.:.u v v b v v v v b 0 b b b v A A b Z b v A A A ",
"q.0 b b A A S A A b b A b A u N Q.P.} #.7.V.V.V.V.V.C.V.V.V.V.V.C.V.C.b.V.8.*.0.:.u v v v b v b 0 0 b 0 v Z v A b b A b A A A b ",
"0 q.q.b A A A A b b b A A b Z w 2.2.] o.b.B.b.C.C.V.b.V.V.V.V.V.b.V.V.C.V.8.7.6.>.u v Z v b v v b v b A b b v A A A b v Z A A b ",
"q.b q.b A A A S A b b b A b A u -.,.] X.&.V.b.V.b.V.V.V.V.V.V.V.V.V.C.b.V.8.8.4.( s i Z b v v 0 b b A A A A A S A b n A b b b b ",
"0 A b A A b A A b A b b b A A 7 p Q ` 4.$.8.V.V.V.V.V.V.V.V.V.V.V.V.7.} O.B.V.6.{ E ! l b b b b b b A A A q.A A A b b v b b n A ",
"q.b A A A A A A A b A b b b b b w U ` ..$.8.V.C.V.V.V.V.V.V.V.V.C.7.R . , +.V.8.X.) E h b b b 0 b b A A q.q.q.A b Z b b b b b b ",
"b 0 q.A 0 A A A b A b b A b b v u ! _  .%.7.7.B.C.V.B.C.V.V.b.V.C.+.* @ > 4.C.8.6.` ~ W B b 0 A b b A A q.w.q.b A q.b q.b b b b ",
"q.A 0 A A A A v Z b b b b b v b k s (  .X.E , R %.b.b.V.b.V.V.b.b.b.U $ R B.V.8.8.6. .E l b A b b b b q.w.r.A A b b A A A A A A ",
"A A b A Z A A b 0 b v b 0 b v b l a ~  . .,   . T $.b.C.A.L.K.K.H.A.C.b.b.b.b.*.8.Z.J.,.g A b b b A A q.q.q.0 q.0 q.A A A q.0 q.",
"A q.A b b b v v b b v b b b v v z a ~ { | R o % ^ o.S.OX-XoX!.#X8X8X=X+X@XL.A.A.K.@X$X@Xn.D b b b b b A q.q.q.0 q.0 0 0 A q.A 0 ",
"q.A A b b b A v 0 v v b 0 Z b b z a ~ {  .| ` ^ { D.XX/.I @ + [.xXzXgXeXwXwXwXwX0X8X8X0XrX%Xf.b b 0 b A q.q.q.0 0 q.0 q.0 q.q.q.",
"A A A A b b A b b b b b b 0 b b l j ( { | =.#.4.G.#X2X_.@   P 6XzXzXzXzXzXzXzXlXxXpXuXuX#X^.s.v A A A A q.0 q.q.A A A q.e.e.q.q.",
"0 0 A A A b b v b 0 v v b b b b l ! ` { X.=.S.oX*X6XuX5X X[.5XzXzXzXzXzXzXzXzXzXsXuX5X>X:.S b A 0 A A A q.q.q.q.q.0 q.q.e.q.q.q.",
"q.A A A v v A Z v v v v b b b v p [ 5.0.S.K.-XdXsXsXkXzXzXzXzXzXzXzXzXzXzXzXxXkXuX6X>X!.h A A A 0 A A A 0 q.q.q.0 q.0 q.q.e.q.e.",
"A A A 0 v v A v 0 v v A b b A F :.!.@X$X8XgXzXzXkXkXzXzXzXzXxXxXjXxXkXkXkXxXkXaXyX{.!.) d A A A A A A A q.q.q.0 e.0 q.q.q.q.e.q.",
"A A 0 9 v v v v v v v A b b G m. X#X7XaXlXlXkXkXkXkXkXkXxXxXkXjXkXjXkXkXkXkXjXyX{.n.) T d q.q.A A A A A q.q.q.q.0 q.0 q.0 q.q.e.",
"A A b v b b v v v b v A b b h.R.'.;X,XyXyXiXiXhXhXjXhXhXjXjXjXjXjXjXjXjXhXaXtX{.2._ ~ U h q.e.A A A A A 0 q.q.e.e.0 0 q.q.q.q.q.",
"A A A b v b A v v v b A A v A s.P I.].,X<X,X<XyXiXaXhXaXaXhXaXaXaXiXaXiXtXyX{.2./ / Q s M w.q.A A 0 q.q.e.q.q.0 0 e.q.q.q.q.q.q.",
"q.q.q.b v A v v v v b A A v v 0 b J U.T.'.;X;X,X<XyXtXiXtXyXtXyXyX4X4X3X<X:XM./ ' ` T < c w.w.A A q.q.e.e.q.q.q.e.e.q.q.q.q.q.q.",
"A A q.b Z v b v v b b b A v v A b b w.U.I.).'.'.;X:X:X:X4X4X3X<X<X,X,X;X}.(.>./  .` s > i r.y.q.q.q.e.e.q.q.q.q.q.e.e.q.q.0 q.q.",
"A A w.A b b b Z Z b b b v 0 b b 0 A A A C P U.T._.'.'.;X}.}.;X{.}.}.].].}.!.3.| O.~ , = t r.i.e.0 e.e.q.e.q.q.q.q.r.w.q.q.q.q.q.",
"A A A b b b b b b b b v v v b v A A b b b u : N P R.).)._._.`.`.`.).).}.%XoX4.$.+.R $ # r r.p.r.q.e.y.e.q.q.q.e.r.r.q.q.q.q.q.A ",
"q.A b b b Z b Z b v b v 0 b v A A A b b Z z p < Y P ).R.`.)._._.].'.}.,X*XoXS.$.} s o # t w.p.y.e.i.y.q.A q.q.e.e.q.q.A q.q.q.A ",
"q.q.A b Z b v b v b v v b 0 0 A A b b b A Z p U R Q 1.R.`.`.].].'.;X,X;X!.3.B.%.[ a O q k w.p.p.y.i.r.q.A q.e.q.y.r.q.q.A A q.q.",
"A q.A A b v b b v v v v v v b b 0 0 b 9 b 5 l s ^ _ Q :.n.[.{.}.'.3X X!.,.} o./ h l k 6 6 A p.p.y.p.y.A D j.f.i.i.i.q.A w.S q.q.",
"A A q.0 A A b v v b v v v b b b 0 0 9 9 5 v x i ] ../ / ' M.[.}.%X~.P -.] } ' d l 7 A Z 7 S p.d.p.i.q.A x.~. X^.k.e.A q.A q.q.A ",
"q.q.q.q.A A A A b v v v b b b b 0 9 5 9 v n 5 c E 6...} } ] ,.<.j.B i T [ / T e 4 6 z Z Z S t.y.y.y.w.Z g.z.x.I.x.t.A q.q.w.w.A ",
"e.q.q.0 A A F A A v Z b v b 0 9 9 5 9 9 5 5 5 l j +.7.%.%.o.} e F 6 * U E E s t 6 6 6 v S S w.w.q.r.r.J F J H J S q.q.A b b w.A ",
"e.q.e.0 0 0 A w.b b b b v b 9 7 5 5 9 5 5 5 5 5 g { 8.#.%.X.' * 6 2 # s s Y a r 4 4 6 v w.S b Z A q.q.A v A A A b q.w.n w.w.q.b ",
"e.0 q.0 A 0 A w.A Z b b b 9 7 5 5 5 5 5 5 5 5 5 c R #.X...} ^ q 8 1 > , < ; e 8 4 4 6 B b A n w.q.A q.A A A A A b b q.q.q.b q.q.",
"q.q.q.q.A A A r.w.Z 0 0 9 7 7 5 5 5 5 5 5 8 5 5 c a } { { / T & 3 O # * - - w 4 5 4 5 0 0 0 0 q.q.q.q.A A A A A b q.b q.q.w.q.b ",
"q.0 0 q.q.0 q.e.w.b 0 0 9 5 5 5 5 5 5 5 5 5 5 5 l e ~ ( / ^ U & 2 o . $ * = q 4 5 6 0 A 0 q.q.0 A q.A q.A A A A b q.q.w.b b q.w.",
"q.q.0 q.q.A A e.w.0 0 0 9 5 5 5 5 5 5 5 5 5 5 5 k e Y T T Y s : 3 + o . # % & 8 5 5 0 q.q.q.0 e.A A b b q.b b b q.n q.n w.q.q.b ",
"q.q.q.A 0 A A q.q.0 0 0 0 5 7 5 9 5 5 5 9 5 5 5 5 q - Y ; - * & 3 1 o o # # q 4 5 9 q.q.q.q.e.q.e.q.q.q.b b w.w.q.w.w.b q.q.q.w.",
"q.q.0 A A A 0 0 A A A 0 v Z a.a.b 5 5 5 5 5 5 5 3 O = - * = # . 1 8 1 O & 1 6 5 9 q.q.q.q.q.e.e.q.A q.b b S b q.b q.w.q.b w.b w.",
"q.0 A A A 0 0 q.q.A q.A Z v B F 0 5 5 5 5 5 5 5 1 % # $ $ % o o 1 4 5 3 4 4 5 9 0 0 q.q.q.q.q.q.q.A b q.b q.q.q.q.b b q.q.q.b q.",
"q.0 q.0 0 q.q.q.q.q.q.q.A q.b b 0 9 5 5 5 5 5 5 1 # # # # # % o 2 4 5 4 5 5 9 Z A A A q.q.q.q.q.A b q.b q.q.b b b q.q.w.q.w.q.q.",
"q.q.q.q.q.0 0 q.q.q.q.e.q.q.A b 0 0 0 9 0 9 9 9 3 & # # o o o 1 4 5 5 5 5 9 A A 0 q.A q.q.q.q.q.q.q.b q.b q.q.q.w.q.b b q.n b w.",
"q.q.q.e.q.q.q.q.q.q.q.q.q.e.q.A q.0 0 0 0 0 0 0 9 4 r 1 1 8 5 7 5 9 9 9 0 0 A A q.0 q.q.q.q.0 q.q.q.q.q.q.b q.q.b w.q.q.n q.q.q.",
"e.q.q.q.q.q.q.q.q.e.e.q.e.q.q.A q.q.q.q.0 q.b 0 0 0 0 0 9 9 0 9 9 b A A Z A b A 0 0 q.q.q.0 q.q.q.0 q.0 w.n q.q.b q.q.q.w.w.b q."
};
