/* XPM */
static char *result[] = {
/* columns rows colors chars-per-pixel */
"64 64 233 2 ",
"   c #06090B",
".  c #3A2919",
"X  c #3A351E",
"o  c #2C371A",
"O  c #3A3B28",
"+  c #442B1A",
"@  c #4B2D1B",
"#  c #432817",
"$  c #43301B",
"%  c #59341D",
"&  c #67391C",
"*  c #583721",
"=  c #4B3B26",
"-  c #6C3D22",
";  c #633920",
":  c #743E22",
">  c #3A4425",
",  c #384B28",
"<  c #39522C",
"1  c #3A5E32",
"2  c #365B30",
"3  c #3A6536",
"4  c #396B36",
"5  c #3B6D39",
"6  c #396436",
"7  c #3D733B",
"8  c #3F793D",
"9  c #474927",
"0  c #5A4C29",
"q  c #46552E",
"w  c #59542D",
"e  c #435D31",
"r  c #4A5A30",
"t  c #565E35",
"y  c #564637",
"u  c #6A4728",
"i  c #784426",
"p  c #64562D",
"a  c #74562E",
"s  c #685733",
"d  c #7A5B34",
"f  c #6D4A32",
"g  c #436D3A",
"h  c #496536",
"j  c #586435",
"k  c #41763F",
"l  c #41793F",
"z  c #4A763E",
"x  c #57723D",
"c  c #796938",
"v  c #6A683A",
"b  c #55574B",
"n  c #695744",
"m  c #795A49",
"M  c #685A54",
"N  c #446D40",
"B  c #4C6D49",
"V  c #516E4A",
"C  c #447441",
"Z  c #437C41",
"A  c #4A7C45",
"S  c #4C7D49",
"D  c #4A7648",
"F  c #53764D",
"G  c #577656",
"H  c #517655",
"J  c #6E7552",
"K  c #567A65",
"L  c #707370",
"P  c #813C1E",
"I  c #864927",
"U  c #974D28",
"Y  c #89532E",
"T  c #9C532C",
"R  c #94532E",
"E  c #8C5332",
"W  c #9C5832",
"Q  c #804F35",
"!  c #A9572C",
"~  c #B35A2D",
"^  c #AD5A32",
"/  c #A55B33",
"(  c #B55D34",
")  c #946838",
"_  c #AC6237",
"`  c #BC6233",
"'  c #B96337",
"]  c #BA6C36",
"[  c #C35F31",
"{  c #C46535",
"}  c #CD6B39",
"|  c #CA6836",
" . c #D56C38",
".. c #DD733B",
"X. c #D97239",
"o. c #CF6933",
"O. c #E3743C",
"+. c #EC7B3D",
"@. c #E6773D",
"#. c #F47B3A",
"$. c #FE7D39",
"%. c #E26D37",
"&. c #995D41",
"*. c #855D47",
"=. c #906F4E",
"-. c #AB6444",
";. c #B76944",
":. c #B47554",
">. c #897769",
",. c #907568",
"<. c #A67C6A",
"1. c #B07D6B",
"2. c #C96C43",
"3. c #C97849",
"4. c #DB7648",
"5. c #D97E55",
"6. c #D66F41",
"7. c #E67944",
"8. c #F57D41",
"9. c #FC7D43",
"0. c #F17741",
"q. c #448242",
"w. c #498546",
"e. c #468843",
"r. c #498946",
"t. c #4C844A",
"y. c #4C8C4A",
"u. c #52854D",
"i. c #4D914B",
"p. c #51934E",
"a. c #548C53",
"s. c #588557",
"d. c #549552",
"f. c #5B9359",
"g. c #738A57",
"h. c #5B856A",
"j. c #658B66",
"k. c #6A9869",
"l. c #738C72",
"z. c #769978",
"x. c #6A8676",
"c. c #79A577",
"v. c #FF823C",
"b. c #938349",
"n. c #8D8D78",
"m. c #A8867A",
"M. c #B78971",
"N. c #D48357",
"B. c #DB894F",
"V. c #F48141",
"C. c #FE8542",
"Z. c #FF8944",
"A. c #FF8C4C",
"S. c #FB844B",
"D. c #E98852",
"F. c #F88A56",
"G. c #FD945A",
"H. c #E29057",
"J. c #D68862",
"K. c #C99479",
"L. c #D69474",
"P. c #FC9A68",
"I. c #E9956D",
"U. c #FFA267",
"Y. c #FCA779",
"T. c #7B9396",
"R. c #74888C",
"E. c #7EA280",
"W. c #859B87",
"Q. c #9A989B",
"!. c #908D8A",
"~. c #B7988B",
"^. c #A6938C",
"/. c #91AC92",
"(. c #B2A895",
"). c #899AA6",
"_. c #929DA4",
"`. c #96A5AC",
"'. c #99ABB6",
"]. c #9FB1BD",
"[. c #8DA2B0",
"{. c #A7A6AA",
"}. c #B6ACA8",
"|. c #A6ADB2",
" X c #A9B6B9",
".X c #B5B7BA",
"XX c #ADB4AC",
"oX c #C49A88",
"OX c #C6A18F",
"+X c #D2AB91",
"@X c #F4AB88",
"#X c #FBB588",
"$X c #E8B198",
"%X c #FDBA99",
"&X c #E7AC8D",
"*X c #C6BDB8",
"=X c #CFB7AE",
"-X c #F7BDA3",
";X c #AAC2A3",
":X c #C8C7BF",
">X c #D3C8B4",
",X c #F9C5A9",
"<X c #FECCB4",
"1X c #EFCBB6",
"2X c #FFC099",
"3X c #ACB9C3",
"4X c #B4BCC5",
"5X c #B9C3CA",
"6X c #BBC8D1",
"7X c #C7C8C8",
"8X c #D4CBC5",
"9X c #C5CDD4",
"0X c #CAD3DB",
"qX c #DDDCDC",
"wX c #D4D7D9",
"eX c #D2D9C8",
"rX c #F9D6C5",
"tX c #E8DBD6",
"yX c #F0DACE",
"uX c #E9E4DD",
"iX c #FAE5DA",
"pX c #D5DDE3",
"aX c #E1DEE0",
"sX c #DDE3E7",
"dX c #E9ECEE",
"fX c #E6E6E7",
"gX c #F6EAE5",
"hX c #EAEDF0",
"jX c #EFF1F2",
"kX c #F3F4F5",
"lX c #F7F9FA",
"zX c #FDFDFD",
"xX c #F9F7F6",
/* pixels */
"q.q.q.q.q.Z Z q.8 q.8 q.q.Z Z 8 Z Z Z Z Z Z 8 k 7 C 7 C k k k Z Z Z Z Z Z Z Z t.y.q.q.q.q.q.q.q.q.q.e.e.e.e.e.e.e.q.q.q.e.e.e.e.",
"q.e.q.Z Z Z q.q.q.q.q.q.8 8 Z Z Z Z Z Z k 7 8 8 k k k 7 k Z Z Z Z Z 8 Z Z k i.R.k.i.r.q.q.q.q.q.q.q.q.e.e.e.e.e.e.e.q.e.q.q.q.q.",
"e.r.q.Z 8 q.8 q.q.q.8 Z Z 8 Z q.Z Z Z k k C Z Z k k C k k k Z Z Z Z Z 8 q.a.E.T./.c.e.e.r.d.y.q.q.q.q.e.e.e.e.q.q.e.e.q.q.q.q.q.",
"e.e.q.Z q.Z Z Z 8 q.8 Z q.q.q.Z Z Z Z k k 7 Z H C k k k 8 8 8 Z Z k k D h.E.;X6XeX;Xe.e.f.c.k.t.Z q.e.e.e.e.e.e.e.q.q.e.q.q.q.q.",
"q.q.q.q.Z Z q.Z Z Z Z Z 8 q.Z Z Z Z Z k k k k Z k k k k k k Z 8 Z Z w.k.W. XqXuXuXeXk.i.y.a.y.q.q.e.e.e.e.e.e.e.e.e.e.q.e.q.q.q.",
"q.Z Z Z Z Z q.Z Z Z Z q.q.Z Z Z Z q.Z k k k k k k k k Z Z Z 8 8 Z H z./.5XqXgXgXgXeXn.e.Z q.Z z Z q.q.e.e.e.e.q.q.e.i.e.e.e.e.8 ",
"q.Z Z Z 8 Z Z Z Z q.r.y.q.Z Z Z Z D k k k k k k k Z k k k k k 8 h.E.XX5XqXgXxXgXuXyXXXw.Z Z l e.Z Z Z q.q.e.e.e.e.e.i.e.e.e.q.q.",
"q.Z Z 8 Z Z y.e.q.i.i.r.q.Z 8 Z Z k k k 7 k k 7 k k k k k k H h.T.|.7XuXuXgXgXgXiX1X>Xj.C Z l e.q.Z Z Z q.q.e.q.e.e.i.e.y.e.q.q.",
"Z Z Z Z l A p.p.p.p.y.q.Z k C k Z k k k k k k k k k k k N N L T. X7XtXuXgXgXiXiXrXrX>Xn.z q.l z e.A 8 A q.Z e.q.e.y.i.e.r.e.q.q.",
"Z Z Z C l w.d.d.d.y.w.q.Z C k Z Z k Z k k k k k k k k k k b R.{.7XtXtXiXgXgXiXiXrX<X1X(.u.z l q.t.e.C Z Z Z Z q.q.y.i.r.i.e.q.q.",
"q.Z Z Z z A d.d.t.w.q.Z k k Z Z Z Z Z k k k k k k k k k H L Q.4X8XyXrXyXgXrXOXm.$X,X-X+Xg.q.l l Z y.q.Z Z Z Z Z e.i.y.r.y.w.q.w.",
"Z Z Z Z C A a.a.t.A Z Z k k D Z k Z k k k k k k l 7 k C M n.=X=X-X%X,XrXrXK.f u M.2X,XL.n.z 7 l Z y.y.A q.l Z Z w.p.y.y.y.e.q.q.",
"Z 8 e.r.A t.u.t.A q.Z C k k Z l k k Z k l k l k Z k l B ,.1.$X$XY.Y.#X%X1.*.>.m ) #X#X@XM.u.k k C q.p.t.t.A u.s.a.a.y.r.e.e.w.Z ",
"q.Z q.w.A u.u.S A Z Z Z l Z D k k k k Z l k l Z q.Z 8 n -.5.@X9.P.P.Y.:.m ^.8Xm.Q I.#XY.L.b.l 8 8 Z y.d.a.j.z.E.z.k.y.r.y.t.e.l ",
"C C Z C B S S t.A Z C C k k Z k C 7 N D D 8 l Z e.Z z d ;.2.5.8.F.P.2.i m.8XfX}.) J.Y.P.H.b.q.l 8 C e.f.j.l.c.n./.W.k.y.i.y.w.l ",
"C C C N g D S A q.Z g < q h 5 7 C C 5 C Z l l A w.A j E ( ' 2.4.9.6.P ,..X9XqX*X=.3.Y.P.H.b.z 8 g C A G G K j.x.l.l.j.d.y.e.z w.",
"z N C N N C D Z Z Z g $ n M b 9 e g k k k l Z q.Z z s R ( ( | }  .P Q OX7X7XuX8X<.] U.G.H.b.z k C N D S D B H V H G s.t.q.q.Z Z ",
"Z C g C N C C Z k Z g + L |.{.!.m 9 e z l l Z Z k z s R ' ^ { ( P : M.=X7X7XqXqXm.] G.G.B.) z k 7 C A S H B B B F S C Z Z Z Z q.",
"l l 8 l l l Z Z l Z l X m .X4X4XXXn.n 9 e k k l l z a _ ' / { ~ I ^ J.+X*X7XwXqX~.{ A.G.B.b.k k k k A Z D S D C C C C Z q.Z q.Z ",
"Z Z Z Z l C Z l l q.Z q y {.4X3X5X5X}.,.f p z C z j _  .' ` X._ ^ } } N.+X:XwXfXOX{ Z.v.B.c k k k k k k k Z l k C C l Z l Z q.Z ",
"Z l l l Z Z l Z Z Z l g @ Q.4X4X.X5X7X7X~.-.) c ) ] 7.O.X.V.+.X.7.8.X.7.I.$XyXfX~.[ C.V.B.x l k k 8 k 8 k k k k l l k Z Z A l l ",
"Z Z Z Z l Z l Z l Z Z k $ >.*X5X=XOX(.+X&XI.B.X.O.V.Z.v.V.C.V.C.C.V.V.S.V.G.%XyX~.~ #.+.3.x 7 k 7 k k k l l Z l l Z k l Z l l l ",
"q.Z l Z l C C Z C l C Z < M |.6X*XK.:.N.D.A.v.v.C.C.C.C.Z.C.C.C.C.C.Z.C.#.#.P.1X~.U  . .) x k k k k k 8 l l l l C l z k z l l l ",
"Z Z Z Z k C Z l Z Z Z C g = ^.4X=XK.;.} v.v.C.Z.C.C.C.C.C.C.Z.C.C.C.Z.C.C.#.F.$Xm.P ~ _ c k k k k k k k l k l l l l l l k l l l ",
"q.Z Z Z l Z Z Z Z l Z l l > >..X~.5.3...C.C.C.C.C.C.C.C.C.C.C.C.C.C.C.C.C.#.F.I.,.: U E F k k k 8 k l k k k k Z Z l C l l l l l ",
"q.8 Z Z Z Z Z Z Z l l Z 8 h s {.M. .O.7.C.C.C.C.C.C.C.Z.C.C.C.C.C.Z.C.Z.C.9.9.5.=.: I c z k k k k l l k 8 k Z Z l l l l Z A w.l ",
"q.Z Z Z Z Z q.q.l l l Z l l y ,.M.;. .#.V.V.C.Z.C.C.C.C.C.C.C.C.C.C.C.C.C.9.0.5.&.- s x l l k k l l 8 Z Z Z C Z Z C l l l l l l ",
"8 Z Z 8 Z Z A A Z l l k l l e *.:.;.o.+.v.C.C.C.C.C.C.C.C.Z.C.C.C.C.C.C.C.9.9.6.W u t C l l k k k l Z Z Z Z Z Z l Z l l l l l l ",
"Z Z Z Z Z 8 Z Z l Z Z k l Z k f &.-.| 7.9.C.C.C.C.C.C.C.C.C.C.C.C.C.C.Z.C.C.9.O.^ I f C l l l 8 8 l Z Z Z q.Z Z l Z l l l l l l ",
"Z Z 8 Z Z 8 Z Z Z l Z l l l D q Q ^ | 0.v.C.C.Z.C.C.C.C.Z.C.C.C.C.Z.C...4.8.9.0.| T W t l l l 8 l l Z Z Z w.q.Z Z Z Z l z l l l ",
"q.8 Z Z Z Z Z l Z Z l l l l l 1 i ^ { O.8.Z.Z.V.C.C.C.C.C.C.C.C.Z...T u / 8.S.9.6.^ ! d C l l Z 8 Z Z Z q.w.A Z Z l Z l Z l l l ",
"8 q.Z Z l Z Z l k l l l l l k 5 p ! [ 6.8.V.v.V.C.v.C.v.v.v.$.$.v.o.I I } C.C.9.0. .^ R g l l l l l l q.e.w.Z l Z Z Z l Z l Z Z ",
"Z Z Z l k Z Z k 8 l k k C 8 C g u T [ X.{ I i T @.#.$.C.G.U.P.G.A.v.v.v.v.v.#.#.9.9.5.^ t D Z l l Z Z q.e.q.8 8 Z Z 8 Z q.8 q.8 ",
"Z q.Z l C Z k k l l 8 l 8 l l k w T ( } / % % I o.@.F.#X#X+X+X-X<X2XY.U.G.G.A.Z.F.@X%XoX=.A l l l l l Z q.q.Z Z q.Z Z q.Z q.8 q.",
"q.Z Z l l l Z Z k l k l l l 8 k 0 T ( o.| _ ! ` } J.$X{.M , L tXzXxXiXrX<X<X<X<X<X<XrXrX8X/.s.l 8 8 l Z 8 q.q.8 Z Z q.8 8 q.q.q.",
"Z Z Z l l Z C k l k 8 l l l Z k 0 T ~ |  .X. .3.K.=X4Xb     L fXzXzXzXxXzXzXzXzXkXfXgXaXwX;Xs.Z Z Z Z Z q.q.q.q.Z Z 8 q.q.q.e.e.",
"Z Z Z 8 Z k Z Z l 8 k l k l l g f ~ [ o.%.%.N.+X8XwXqX`.L !.aXzXzXzXzXzXzXzXzXzXdXaXpX7X>.S Z l 8 Z 8 Z q.q.q.q.q.q.8 q.e.q.e.e.",
"Z 8 8 Z k k k k k k k l l 8 l e E 2.} 7.D.@X1XfXsXdXxXzXkXxXzXzXzXzXzXzXzXzXzXjXtXwX9X~.d l Z Z Z Z q.Z q.Z q.q.8 8 e.q.e.q.e.q.",
"Z Z Z 8 k k k k 8 k k l Z C A v :.&X@X-XrXgXlXlXkXlXzXzXzXzXxXkXlXlXlXlXlXlXkXfX0X3X~.^ d q.Z Z Z Z Z Z q.q.q.8 q.8 8 q.q.q.q.q.",
"Z Z 8 Z C k Z k k 8 l l Z S J ^.=X=XtXxXzXlXlXkXkXxXxXxXlXlXkXkXkXkXkXkXkXkXhXpX3X^.-.U c q.q.Z 8 Z Z Z 8 q.q.q.8 q.q.q.8 q.q.q.",
"Z Z l l k l k k k l l Z k s.T.'.3X5XpXsXhXhXhXjXhXkXkXhXkXkXhXhXkXkXkXhXjXhXpX3X<.-.! I d q.q.Z 8 q.8 q.8 q.q.q.e.q.q.8 e.q.e.q.",
"8 Z l l k l l k k k Z Z Z D h.R.).'.3X6X6X0XpXsXhXhXhXhXhXhXhXhXdXfXhXsXsXsX3X<.( ~ T I v w.e.Z q.8 q.q.q.q.q.q.8 q.q.q.q.q.e.8 ",
"Z Z q.Z k l l k k k l Z l l l Z H R.).].3X3X4X9XpXsXsXpXsXsXpXpXpX0X0X0X6X.Xm.^ ` ( R u j w.w.Z 8 q.q.e.e.q.q.q.e.q.e.8 q.q.q.q.",
"Z q.q.q.l k l k k l l l l l 8 k N D h.T.[.].].3X4X4X0X0X0X0X0X9X6X5X5X5X3X^._ ' ] ( i ; j r.y.q.q.q.q.e.e.q.q.q.q.e.e.q.q.q.8 q.",
"Z Z w.Z l l Z k l l k k 8 C l l l Z Z F L R.T.[.'.3X3X3X5X3X X5X3X X'.XX|.M.] } } ! ; = r y.i.e.q.q.e.q.q.q.q.q.q.r.w.q.q.q.q.Z ",
"Z Z Z k C l l C k l l l k 8 l k Z Z l l N y M L R.).).).[.`.`.`.`.[._. X.XK.X...X.I @ + q w.i.y.q.q.y.e.q.q.q.e.q.r.q.q.q.q.q.q.",
"q.Z l Z C Z Z k k l 8 k l l l Z Z l l l k y * : m R.)._._.)._.[.[.[.].6X:XL.v.v.| i . + q y.p.y.e.i.y.q.q.q.q.e.e.e.q.Z Z q.Z q.",
"Z q.Z k k k l k k l k l k l k l Z Z l l 7 b : U U J !._.`.`.'.`.].5X5X.X~.B.V.X.W 0 X = h q.p.i.r.i.y.q.q.q.q.q.y.r.q.q.q.q.Z q.",
"Z q.Z Z l l l k k l k l k 8 l l l l l l k g w T ~ / =.<.^.XX X].3X6X}.m.] X...~ s h e 1 4 w.p.p.i.p.y.Z u.f.f.a.p.y.q.l w.q.l w.",
"q.Z q.Z 8 Z Z k l k k k k k l l l 8 7 4 k 4 h R X.[ ! ~ :.(.|.'. XW.,.) ] o.~ u h 5 A 7 5 l a.p.p.i.q.C z./.XX/.k.w.q.Z l w.z q.",
"q.q.q.q.Z Z Z Z C k l k k l l 8 8 7 4 7 g 4 g p ..O.o.o.[ :.<.n.j.B u T _ ` i w 3 g C C z Z t.a.i.i.t.C j.l.R.R.z.w.Z w.w.Z q.q.",
"e.8 q.q.Z l D Z Z k k k l l 8 7 7 4 7 7 4 7 g p ( #.O...%.[ ! j 6 2 & U T U u r 6 6 3 N A A w.A q.r.w.S D u.F H A q.Z Z l q.q.q.",
"q.q.q.8 8 q.Z t.Z k l l k k k 5 4 4 4 4 4 4 4 h E 0.0.+.@. .U , 6 o - I I I 0 1 6 6 3 B w.A Z A Z Z w.q.k C Z Z Z Z z q.w.w.q.l ",
"q.q.e.8 q.8 Z w.A l l 8 l 7 5 4 4 4 4 4 4 4 4 h a } %.X. .` I , 6 o * - - : 9 3 3 6 6 g l l Z Z S Z q.8 Z Z Z Z l Z q.l q.l q.q.",
"q.q.8 q.8 Z Z e.A l k 8 k 5 4 4 4 4 4 4 4 4 4 4 p T { ( ` ~ : > < X @ ; ; % q 4 4 6 5 C 8 8 8 q.q.q.q.8 Z Z Z Z q.q.q.w.l q.q.z ",
"q.8 q.8 q.8 q.e.q.8 8 8 7 4 4 4 4 4 4 4 4 4 4 4 w I ^ ^ ~ T : , , . # @ % @ 9 6 4 4 8 Z 8 q.q.8 8 q.q.q.q.Z Z Z l l l q.w.w.q.q.",
"q.q.Z Z 8 q.Z q.q.l 8 8 7 4 4 4 4 4 4 4 4 7 4 4 r - R U U I ; , , X . # # # = 4 4 7 8 q.q.q.q.q.q.l l q.Z Z q.Z q.q.w.l w.w.q.l ",
"e.q.Z Z q.Z Z q.q.Z 8 8 7 4 5 4 4 4 4 4 4 4 4 4 e * : : ; % % X 2 O . . # + , 4 4 8 Z q.q.q.e.q.q.q.q.l Z Z Z q.w.l q.q.q.l q.q.",
"q.8 Z Z q.8 8 q.Z Z q.8 C C h.f.8 4 4 4 4 4 4 4 , # ; ; % + # . 2 2 > X $ < 3 4 8 8 q.q.q.q.q.e.q.Z l q.A l q.A l l q.q.l w.q.z ",
"e.q.Z l 8 8 8 8 q.Z q.Z C 7 N C 7 7 4 4 7 4 4 2 X # # % # . # . 2 6 6 2 3 4 3 7 8 8 q.q.q.q.q.q.q.q.q.l Z q.l q.l w.q.z w.q.q.q.",
"q.8 q.8 8 8 q.q.q.q.q.q.Z Z Z k 8 7 4 4 4 4 5 2 @ @ + + . + . o 2 4 4 3 5 5 5 l Z Z q.q.q.e.q.q.l l l q.q.q.l q.q.q.l q.q.q.l w.",
"8 e.q.q.q.q.q.q.q.q.e.q.e.q.Z l 8 8 8 7 8 8 7 4 9 . + + . . o 3 4 4 5 3 5 7 l Z Z 8 8 q.q.q.8 q.q.q.8 q.l q.q.l l l w.w.l w.l q.",
"q.q.q.q.q.q.q.q.q.e.q.e.q.e.q.Z 8 q.8 8 8 8 8 8 5 1 q , < 2 5 4 5 5 7 7 8 l Z Z Z Z 8 q.q.q.q.q.q.l q.8 l q.q.q.q.q.q.l w.q.q.q.",
"q.e.q.e.q.8 q.q.q.q.e.q.e.q.q.Z q.q.q.q.8 q.l 8 l 8 7 7 7 8 7 8 8 l l Z Z Z l Z q.8 q.q.e.8 q.q.q.8 q.q.Z q.q.q.z q.w.l q.q.z q."
};
