/* XPM */
static char *result[] = {
/* columns rows colors chars-per-pixel */
"64 64 237 2 ",
"   c #131212",
".  c #251B16",
"X  c #3C2618",
"o  c #382718",
"O  c #38331D",
"+  c #393725",
"@  c #452A1A",
"#  c #4A2C1A",
"$  c #56341D",
"%  c #4A321C",
"&  c #63371F",
"*  c #463C23",
"=  c #5B3724",
"-  c #563F32",
";  c #6B3C22",
":  c #643B21",
">  c #7A3F23",
",  c #374827",
"<  c #37562D",
"1  c #34572E",
"2  c #396536",
"3  c #396B36",
"4  c #3B6539",
"5  c #3B6D39",
"6  c #366434",
"7  c #3D733B",
"8  c #3F793D",
"9  c #494828",
"0  c #584828",
"q  c #43532C",
"w  c #4A562E",
"e  c #54532D",
"r  c #574733",
"t  c #415C30",
"y  c #525337",
"u  c #784626",
"i  c #76542F",
"p  c #694B35",
"a  c #645932",
"s  c #795935",
"d  c #6D4C2F",
"f  c #446435",
"g  c #416E3B",
"h  c #486938",
"j  c #556837",
"k  c #41763F",
"l  c #41793F",
"z  c #4B723D",
"x  c #53723C",
"c  c #71693C",
"v  c #6C5A4B",
"b  c #7D5A48",
"n  c #446D41",
"m  c #4C6D49",
"M  c #556B4B",
"N  c #447541",
"B  c #497444",
"V  c #437C41",
"C  c #4A7C46",
"Z  c #4C7D49",
"A  c #4C764B",
"S  c #587947",
"D  c #567957",
"F  c #536D54",
"G  c #66734F",
"H  c #597969",
"J  c #6B6D66",
"K  c #56514E",
"L  c #813E19",
"P  c #884A28",
"I  c #944E2B",
"U  c #904925",
"Y  c #99532D",
"T  c #8D5430",
"R  c #9D5533",
"E  c #935A35",
"W  c #8A562D",
"Q  c #A2552E",
"!  c #AB5B2D",
"~  c #A7582F",
"^  c #B95D2B",
"/  c #A85933",
"(  c #B95F33",
")  c #B75D36",
"_  c #876334",
"`  c #95733E",
"'  c #A5633B",
"]  c #BB6035",
"[  c #B56238",
"{  c #B6632E",
"}  c #C46634",
"|  c #CA6536",
" . c #CA6B37",
".. c #D36C3B",
"X. c #D96D38",
"o. c #DC733A",
"O. c #D67239",
"+. c #E4753C",
"@. c #E8783C",
"#. c #F47E3E",
"$. c #F97F3C",
"%. c #E66C33",
"&. c #8A5E46",
"*. c #A15E41",
"=. c #9C6444",
"-. c #8E7157",
";. c #A86647",
":. c #B1724D",
">. c #8E7467",
",. c #A67763",
"<. c #B07D61",
"1. c #C46945",
"2. c #D87743",
"3. c #CC7853",
"4. c #E87643",
"5. c #FB7C43",
"6. c #F47C45",
"7. c #E07952",
"8. c #448242",
"9. c #498546",
"0. c #468843",
"q. c #498946",
"w. c #4C844A",
"e. c #4C8C4A",
"r. c #54844C",
"t. c #4D914B",
"y. c #51934E",
"u. c #548D53",
"i. c #588657",
"p. c #549552",
"a. c #5B9359",
"s. c #5D8668",
"d. c #658A64",
"f. c #6A9769",
"g. c #738C72",
"h. c #769878",
"j. c #6B886F",
"k. c #749B6B",
"l. c #FD823E",
"z. c #F3803F",
"x. c #84895D",
"c. c #B1884F",
"v. c #848976",
"b. c #B1876F",
"n. c #95A075",
"m. c #C1884F",
"M. c #EA8349",
"N. c #F68241",
"B. c #FF8542",
"V. c #FE8A44",
"C. c #FB884C",
"Z. c #F68959",
"A. c #FA945C",
"S. c #E68156",
"D. c #C78769",
"F. c #D69674",
"G. c #CD8F6E",
"H. c #F69569",
"J. c #F19A72",
"K. c #E89673",
"L. c #F8A579",
"P. c #E5A47F",
"I. c #6F7F86",
"U. c #76828A",
"Y. c #788C95",
"T. c #7EA280",
"R. c #819B85",
"E. c #959292",
"W. c #A7948C",
"Q. c #A69895",
"!. c #B39488",
"~. c #88A688",
"^. c #95AE97",
"/. c #ADAB97",
"(. c #8C9CA6",
"). c #969FA3",
"_. c #899FB1",
"`. c #A59FA2",
"'. c #97A5AA",
"]. c #9AABB7",
"[. c #98ACAF",
"{. c #A7A6A9",
"}. c #B8ACA7",
"|. c #A3AEB6",
" X c #ABB6BE",
".X c #A5B4BA",
"XX c #B6BABD",
"oX c #ACB6AA",
"OX c #CAA798",
"+X c #D6A792",
"@X c #FBAA84",
"#X c #FDB896",
"$X c #EFAD8A",
"%X c #C5B4A7",
"&X c #C7BCB8",
"*X c #D8BDAC",
"=X c #EEBBA6",
"-X c #BCC5BC",
";X c #FFC19D",
":X c #CCC5B9",
">X c #FCC3A8",
",X c #EDCCBC",
"<X c #F9C9B2",
"1X c #F3CEB7",
"2X c #ABB9C3",
"3X c #BABDC4",
"4X c #B4BDC5",
"5X c #B7C3CA",
"6X c #BCC8D3",
"7X c #C9C9C9",
"8X c #D4CDCB",
"9X c #C4CDD4",
"0X c #CCD3DA",
"qX c #D7D7D8",
"wX c #D2D6C9",
"eX c #E6D4C5",
"rX c #FAD7C8",
"tX c #F7DED4",
"yX c #E9DBD5",
"uX c #E6E2DB",
"iX c #F9E2D7",
"pX c #D3DAE1",
"aX c #D9DFE4",
"sX c #C8D4E0",
"dX c #E2DEE1",
"fX c #DEE3E7",
"gX c #E5E9ED",
"hX c #EBEDEE",
"jX c #E5E5E6",
"kX c #F6EAE5",
"lX c #ECEFF1",
"zX c #EFF1F3",
"xX c #F3F4F5",
"cX c #F6F9F9",
"vX c #FDFDFD",
"bX c #FAF7F6",
"nX c #F9F2EE",
/* pixels */
"8.8.8.8.8.V V 8 8.8 8 8.8 V V 8 V V V V V 8 k k k n k 7 k k V k V V V V V V V V C V 8.8.8.0.8.8.8.8.0.0.0.0.0.8.8.0.0.0.8.0.8.0.",
"8.0.8.V 8.V 8.8.8.8.8.8.8.V V 8.V V V V l 8 l k k k k k k V V V V V V V V k V 9.8.V 0.8.0.V 8.8.8.8.8.0.0.0.0.0.0.8.0.0.0.8.8.8.",
"0.0.8.V V V V 8.8.V V 8 V V V V V V V N k k V Z k k k k V k V V V V V V 8 8 u.u.8.8.0.8.0.p.e.8.8.8.8.0.0.0.0.0.0.8.0.8.8.8.8.8.",
"8.0.0.V V V V 8.V 8.V V 8 8 8.8.V V V k k k N V N k k k k k k k V k k k 8 s.T.f.e.8.8.0.a.h.k.9.8.8.0.0.0.0.0.0.8.0.0.8.8.8.8.8.",
"8.8.0.8 V V V V V V V V 8.V 8.V V V V k k k k V k k k k k k V V V V 8 8.s.~.^.oXk.0.8.0.e.u.r.8.8.8.8.0.0.0.8.0.0.0.0.0.8.8.8.8.",
"8.8.V V V V 8.V V V V 8.8.8.V V V 8.N N k N k l k k k V V V V V V l 9.f.(.-XwXwX^.0.8.8 8.l 8.l 8.8.8.8.0.0.0.0.0.0.t.0.0.0.8.8.",
"8.8.V V V V V V V 8.q.e.0.V V V V V k k k k k k k V k k k k k k 8 w.h.[.:XkXhXuX:Xt.V V V l l 9.8 V 8.8.8.0.0.0.8.0.t.0.0.0.8.8.",
"V V V l 8 V e.0.8.t.t.0.8.8 8 8 V V k k n 7 k k k k k k k k k V d.Y.oXwXjXnXkXuX:Xf.V l l l l 8.8.l V 8.8.0.8.8.8.0.t.0.q.0.8.8.",
"V 8.V l l C y.y.y.y.e.8.V V k N V N l 7 N k k 7 k k k k 7 N A H (.5XwXjXkXnXkXtXeX~.l l l l l 8.9.V N 8.V 8.0.8.0.q.t.0.q.0.8.8.",
"V l V V k 9.p.p.p.e.9.8.V N k V V l V k 7 V k 7 k 7 k k N B H (.-XwXuXjXkXkXiXtXrX/.r.l k k l l 9.9.k C V V V V 8.t.t.q.e.0.8.8.",
"V V l V z C p.p.w.9.8.V N k N V V N V l k k k k k 7 7 V C H E.4XqXuXiXkXkXtXtXrX1X%Xf.g l k l k 8.e.8.V V V V V 0.t.e.e.e.9.8.8.",
"8.V V V B 9.u.u.w.C V V k k V V l k k k k k k k k k V 7 M I.|.0XyXeXtXiXtX<XrX<X>X>Xn.l k k k k C 9.e.V 8.V V V 9.t.e.t.e.9.9.8.",
"V V 0.q.w.w.r.w.C 8.V N k k V V k V k l l k k V V l k A J W.&X=X=X<XrXrX<X=X<X#X;XP.F.y.8 l k 7 V 8.y.9.w.w.r.i.i.e.e.e.0.9.8.V ",
"V V 8.9.C r.Z Z C V V V N V N k k V k V l k k V 8.V z M ,.+X=X@XL.#X>X#X#X#X#XK.=.a b.x.l 8 k 8 k V e.p.u.d.h.T.h.f.e.w.e.e.8.8.",
"V N V B m Z w.C C V V l N N f q f 5 n A V N l V 8.V z s 3.+XK.H.H.J.L.L.@X@XD.&.b p ;.n.B l l k 7 l 9.a.d.h.h.~.~.^.f.e.e.q.9.V ",
"N N N g n B Z C 8.V V N V N , - v K , n V l k 9.8.V M E 1.7.7.Z.H.A.H.H.H.3.b E.&X>.T c.S l 8 k k z C D D D J j.g.j.d.p.e.0.9.V ",
"n g g n n n B C V l V V N l q - `.Q.>.r < k l 8.8.k a R ;...4.6.Z.5.6.7./ p W.0XqX!.P m.S N k 7 n n Z A m F F m D i.i.9.8.8.C 8.",
"V N k B B k k l V l V k V l < - |.4X3XW.v q g V 8 x s / ) ) ..+.4.4.1.U ; b.7X8XqX/.W m.S V k k 7 N Z w.A F m m A A k C V V 8.l ",
"V V k l l l V V N l l V l l 4 - {.2X2X5X}.-.9 f l x i R / ) ) | ..) U ; ,.8X7X7XyX}.Y m.r.z k k k k V N V Z A N k k k l l 8.8.l ",
"V V l l k V V l V l V V V k k * Q.4X2X3X6X&X>.i j j d I Q ) ( ) | / > R $X&X7XwXuX%X! c.S l k g 7 V 7 k k l l k k k B l l 8.l 8.",
"V V V l V l l l l l V l l l k * E.3XXX}.}.7X*Xb.' _ _ ~  .o. . ...) / 2.D.+X:X7XdX%X^ :.B k k k N 7 7 l k l k l l z l l l l 8.l ",
"V l V l C k V l V V l V l l k , -.3X3X+Xb.G.P.J.M.o.o.#.B.z.@.B.@...+.o.O.F.:X8XjX/.^ ` g k k k 7 V k k k l N V l l l l l C l l ",
"8.V V V l l V l l V N V l l l 4 v  X&XOX:. .#.l.B.N.V.B.B.B.V.l.N.B.B.N.z.A.P.1XkX!.} ` N 7 k 7 N 7 N l l l l l B l k l l l z l ",
"8.V l V N N V V l V l l V l k 7 - {.OXD.3.O.l.l.B.B.B.B.N.B.B.B.B.B.B.V.l.z.V.;XrXb.{ x k k k k 7 V l k l 8 l l l l l k k l l l ",
"8.V V V V l V V V N l V V l l l 9 Q.!.2.o.4.V.B.B.B.B.B.B.B.V.B.B.B.B.B.B.l.z.J.eX-.E x l k k l k 8 l l k 8 7 V l l l l l l V l ",
"V 8 V V l V 8.V V l l l V l l l 9 >.,.1.X.#.l.B.B.B.B.B.B.B.B.B.B.B.B.B.B.B.6.H.+X&.c z k l 7 l 8 l l 8 l N V V l 8.B l l 8.8.l ",
"8 8.V 8 V V 8.V l l V l l l l l f &.:.;.O.#.N.B.B.B.B.B.B.B.B.B.B.B.B.B.B.B.5.Z.b.p x k k k k k l k 8 V V N V l l V l l l l C l ",
"8.V V V V V C C l l l V l l l l z p *.) ..#.B.B.B.B.B.B.B.B.B.B.B.B.B.B.B.5.5.4.:.e C k V k k l l l V V V V V k l l l l l l l l ",
"V 8 V V V 8 V V V l l l l V V l B 9 I [ X.6.B.B.B.B.B.B.B.V.B.B.B.V.V.V.B.B.5.7.;.h V l l l l l 8 l V V V 8.8.C l l l l k l l l ",
"V V V V V 8 V V l V V l l l l l V e Y ) ..#.6.N.V.B.B.B.B.B.B.V.B.V. .Q O.B.5.+.E k l k l l l 8 l l V V V 9.8.V l C l l l l z l ",
"8.V V V 8 8 V V V l V l l l l k N w Y ) X...; ; o.l.B.B.B.B.B.B.V.o.= . u B.5.4.c l l k l l l V 8 V V V 8.9.8.l l l 8.l l l l l ",
"8 8.V 8 V 8.V l k V l l l l k l V e I ) o.P o . Y z.B.l.B.l.B.l.V. .@ o ; 6.5.5.=.k k k l l l l l l l 8.9.q.V l 8.l l l 8.8.l V ",
"V V V l N V V l l l l l l k k l B 0 I ) ..I o . P o.z.l.C.C.C.B.V.o.: o Y l.l.B.1.x l l l l l l l l V 8.8.0.V 8 8 8.8.8 8.8 8.8 ",
"8.V V V l l k l l l k l l l k k k 0 Q )  .| u ; ! O.M.@X>X>X#X@XL.A.z.M.z.l.B.l.5.;.z l l l l l l l V V 8.8.V 8 8.8 8 V V 8.V 8.",
"V V V l l l l k l k k 8 l l l l g u ~ } | 4.o. .3.F.*XQ.K + J yXnXrX>XL.A.V.l.B.A.J.-.V l l l 8 V 8 V l 8.8 8.8 8.V 8.V V V 8.8.",
"8.V l V V l N V l k k k l l V N w Y ^ } X.%.2.G.OX8X7XJ     R.hXvXbXnXiXrX<X;X#X#X#X#Xx.l l l l 8 8 8.V 8.8.8.8.8 8.8.8 8.0.8.8.",
"8 8 8.8 l k l k l k k 8 l l l B s 3.7.7.A.J.=XeXqXjXhXwXE.`.aXvXvXvXvXvXvXvXbXnXtXtXtXuX^.w.l l V l V 8.8.8.8.8.8 8.8.8.0.8.0.0.",
"V V 8 V k V N V k 8 8 l l l D g./.OX=XrXiXkXxXzXnXxXvXvXbXcXvXvXvXvXvXvXvXvXvXxXjXdXpX}.~.C V V l l V V 8.V 8.8.8.8.8 8 8.8.8.8.",
"V V V 8 N 8 N k l k k l 8 l h.Y. X3XpXzXcXcXcXxXxXcXcXvXvXvXcXcXcXcXcXvXvXvXxXdXqX0X!.G w.8.V V l l V V 8 8.8.8 8.8 8.8.8.8.0.8.",
"V V l l k k l k k k 8 l 8 8 u.U.E.2X6XpXaXjXlXlXxXxXxXxXcXzXzXxXxXcXxXxXcXxXjX0X4X!.E B V 8.8.V l 8.V V 8.8.8.8.8 8.8 8.8.8.8.0.",
"V l l k k k k k k k V V k k V V H Y.].2X4X6XpXgXzXlXlXzXxXxXxXzXxXxXxXzXlXgXsX{.,.R P M V 8.8.V 8 8.8 8.8.8.8.8.8.0.8 8.8.0.8.8.",
"V V V k k V V k k k V V V l k k l F Y._.].2X4X0XaXgXgXfXgXgXgXgXhXhXlXgXfX9XQ.:./ I u z 8.9.9.V V 8 8.8.8.8.8.8.8 8.8.8.8.8.8.8.",
"8.8.8.V V k k k k k V V V V k k l V H U._.].].2X4XsXpXaXpXpXpXpXpXpXpX0X3XW.' { ! L d g V q.0.C V 8.8.0.8.8.8.8.0.8.0.8.8.8 8 0.",
"8 8.8.V k k V k k k l l k k V k l l 8.V F U._.].].2X4X4X6X6X6X6X6X6X4X2XW.[ ] } Q & 0 g l q.q.8.8.8.0.0.8.8.8.V 8.0.0.8 8.8.8.8.",
"V V C V k l k V k 8 l l k 8 l l l V V l 7 y J I.Y._.].'.|. X2X2X|.]..XoXb.| O. .P $ * f l q.t.0.8 0.0.8.8.8.8.8.8.q.9.8.8.8.8.8.",
"V V 8.V l l k N N V k l 8 l 8 l V V l l n + : p J U.(.(.(.(.'.'.(.'. X3XF.+.@.} & @ % 2 8 9.y.e.8.0.e.0.8.8.8.0.0.0.8.8.8.8.V 8.",
"8.V V k N V V k k l l k l 8 l l V l l l k 9 ; L b I.(.'.(.(.'.[.]..X5X&XF.#.+.! $ X 9 6 5 9.p.e.0.t.e.8.8.8.8.8.0.0.8.8.8.V 8.8.",
"8.V V k k k l k k l k l k l l l V l l l k h : I I -.E.).|.].[.|.5X5XoXG.o.@. .s e + q 6 5 9.t.t.0.t.e.8.8.8.0.8.e.9.8.V 8.8.8.V ",
"V 8.8 V N k l k k k k k k l l l 8 8 l l l 3 e ! ^ ! ' ,.Q.2X2X X4X/.,.[ X. .W j 4 4 5 4 g 8.y.y.t.y.e.l r.a.d.t.t.e.8.V 8.C 8.8.",
"V 8.8.V V V V k l k k k k k l l l l l 3 g g f W X.} ^ ^ <./.'.[.h.G R { } Y 0 3 4 5 V 7 5 C e.p.y.t.8.V h.^.oX^.f.0.V 8.8.8.8.V ",
"8.8.8.8.V V V V V l k k k l l l 8 3 8 3 l 3 g i ..+.O.X. .[ -.k h = Q ! ! ; q 2 2 4 N N z V r.e.e.e.w.N d.g.U.T.h.0.V C C 8.V 8.",
"8.8.8.V V V V V N k k l l l 8 7 7 7 3 8 3 g 3 a [ #.@.+.%.^ e 6 , : I U U 0 6 2 4 4 4 n C C 9.9.8.q.w.Z B A D F Z 8.V 8.8.8.C 8.",
"8.8.8.8 V 8 V 9.V l l l k k 7 7 3 3 3 3 3 3 3 j R +.@.+.X.~ * 6 , $ u u u 9 3 3 2 2 4 g 9.C l l V 8.8.V N V V V l 8.8.l 8.8.8.C ",
"8.8.0.8 8 V V 9.C k l V l 7 5 3 3 3 3 3 3 3 3 f i ( ..| } I 9 1 + @ & & : q 3 3 2 2 4 g l l B C 8.8.8.V V V V V l l 8.8.l 8.8.8.",
"8 8.8.8.8.V V 0.V V 7 l 7 5 3 3 3 3 3 3 3 3 3 3 d Y ( { ^ P * , O @ $ $ $ q 2 2 3 2 5 N 8 8 8 8.V 8.8.V V V V V l C 8.C 8.8.l 8.",
"0.8 8 8.8.8 8.0.9.k 8 8 7 3 3 3 3 3 3 3 3 3 3 3 e P Y Q I > * < O X @ # # , 2 3 3 5 7 V 8 8.8.8 V 8.V 8.V V V V l 8.8.8.l C 8.8.",
"V 8.V V 8 8.8 0.V V 8 8 7 3 3 3 3 3 3 3 3 3 3 3 w & P > & & O 1 , o @ @ @ , 2 2 3 7 8 8 8.8.8 0.8.8.8.l 8.l 8.l 8.l C 8.8.8.8.8.",
"0.0.V V 8.V V V 8.V 8 V 7 3 7 3 3 3 3 3 3 3 3 3 , # & & $ @ O , 6 O X @ , 6 4 3 3 8 8.8.8.0.0.0.8.8.l 8.l l C 0.8.C l 8.8.C l 8.",
"8.8.V V 8 V 8 8.V V 8.V n N i.a.8 3 3 3 3 3 3 1 O # % $ # X o , 3 3 < 6 3 2 3 3 8 8 8.0.8.8.8.0.8.V 8.l 8.l l C l l C 8.8.0.8.8.",
"8.V 8 V V V V 8 V 8.8 V k 7 n A 8 7 3 3 8 3 3 < @ @ # @ @ @ o , 3 4 2 2 2 4 3 7 V 8 8 8.8.8.8.8.V V l 8.C l 8.8.8.8.8.8.8.z 8.8.",
"8.8 8.8 8.8 8.8.8.V 8.8.V 8.l l 8 8 3 3 7 3 3 3 * @ @ X o o , 3 3 2 3 2 3 3 7 l V 8 V 8.8.0.8.8.V 8 V 8.8.8.8.l l 8.8.8.l 8.l C ",
"8.8.8.8.0.8 8 8.8.8.0.8.8.8.V V 8 8 8 7 8 7 8 3 3 q , , 1 6 3 3 5 3 3 3 5 7 8 C V V V 8.8.8 8.8.8.8.8 V l l l 8.8.0.z 8.C 0.8.0.",
"8.8.8.8.8.8.0.8.8.8.8.0.8.0.8.V 8.8 8 8 8 8 8 7 7 3 3 3 3 7 5 7 5 7 8 7 l l l l 8 8.8 8.8.8.8.8.8.8 8.8 8.8.8.l 8.l 8.8.8.8.l C ",
"8.8.0.8.8.8 8.8.8.0.0.8.0.8.8.V 8 8.8.8.8.8 V 8 8 8 8 8 7 7 7 7 7 8 l V l V l l 8 8.8.8.0.8 8.8.8.8.8.8.l 8.8.8.0.C 8.C l 8.8.8."
};
