/* XPM */
static char *result[] = {
/* columns rows colors chars-per-pixel */
"64 64 235 2 ",
"   c #141415",
".  c #251A13",
"X  c #392619",
"o  c #3A2818",
"O  c #3C341D",
"+  c #363C22",
"@  c #323438",
"#  c #452B1B",
"$  c #4A2C1A",
"%  c #412717",
"&  c #44361D",
"*  c #57331D",
"=  c #502F1C",
"-  c #65391E",
";  c #4A3F22",
":  c #673B22",
">  c #394825",
",  c #3B532C",
"<  c #37572E",
"1  c #3C5D32",
"2  c #365E31",
"3  c #3A6536",
"4  c #396B36",
"5  c #3B6538",
"6  c #3B6D39",
"7  c #366534",
"8  c #3D733B",
"9  c #3F793D",
"0  c #434225",
"q  c #474A28",
"w  c #574928",
"e  c #44542C",
"r  c #4A532D",
"t  c #45592F",
"y  c #58532D",
"u  c #564934",
"i  c #485C35",
"p  c #535534",
"a  c #664828",
"s  c #734123",
"d  c #794426",
"f  c #66542E",
"g  c #7C532A",
"h  c #685838",
"j  c #755834",
"k  c #674C34",
"l  c #446335",
"z  c #426D3B",
"x  c #486737",
"c  c #41763F",
"v  c #41793F",
"b  c #4C773E",
"n  c #566C39",
"m  c #736639",
"M  c #6F6D3A",
"N  c #4C4E44",
"B  c #755848",
"V  c #67564B",
"C  c #446D40",
"Z  c #4C6C4A",
"A  c #53694A",
"S  c #437541",
"D  c #437C40",
"F  c #4A7C45",
"G  c #4D7D4A",
"H  c #4B7547",
"J  c #557A48",
"K  c #4D7B57",
"L  c #587956",
"P  c #526E50",
"I  c #776457",
"U  c #687054",
"Y  c #6E7772",
"T  c #84441F",
"R  c #894927",
"E  c #954D26",
"W  c #9C522B",
"Q  c #98522A",
"!  c #8E5634",
"~  c #A8582E",
"^  c #B55C2D",
"/  c #A75A32",
"(  c #B55E33",
")  c #A24E23",
"_  c #86683C",
"`  c #956435",
"'  c #A86234",
"]  c #BD6334",
"[  c #B76538",
"{  c #C36534",
"}  c #CC6C3A",
"|  c #C66A38",
" . c #D46C3A",
".. c #D96E38",
"X. c #DB723B",
"o. c #D77239",
"O. c #CF642E",
"+. c #E57539",
"@. c #E6793E",
"#. c #EA7738",
"$. c #F37D3E",
"%. c #FC7B3A",
"&. c #E6692E",
"*. c #C15D2D",
"=. c #946449",
"-. c #906F54",
";. c #A26548",
":. c #A66E53",
">. c #B5744A",
",. c #867669",
"<. c #907D70",
"1. c #AC7861",
"2. c #855741",
"3. c #C56E41",
"4. c #CB7445",
"5. c #D57948",
"6. c #C47D55",
"7. c #D36F43",
"8. c #E77A46",
"9. c #FD7C43",
"0. c #F57A41",
"q. c #448242",
"w. c #498546",
"e. c #468843",
"r. c #498946",
"t. c #4B8449",
"y. c #4C8C4A",
"u. c #52824D",
"i. c #528D4F",
"p. c #4D914B",
"a. c #51934E",
"s. c #568855",
"d. c #549552",
"f. c #5B9359",
"g. c #67875B",
"h. c #688965",
"j. c #699769",
"k. c #738D73",
"l. c #759878",
"z. c #688372",
"x. c #67956E",
"c. c #FF833C",
"v. c #FF8237",
"b. c #84867E",
"n. c #968779",
"m. c #9D947E",
"M. c #8D9472",
"N. c #A7897A",
"B. c #B48C76",
"V. c #9D8559",
"C. c #D98356",
"Z. c #F58242",
"A. c #FE8542",
"S. c #FE8A44",
"D. c #FB834A",
"F. c #FD8D4B",
"G. c #FD9558",
"H. c #ED8850",
"J. c #D19070",
"K. c #FC9965",
"L. c #EA9870",
"P. c #FEA26D",
"I. c #E9A37E",
"U. c #FAAA79",
"Y. c #FAB077",
"T. c #7B7B80",
"R. c #72878D",
"E. c #7EA280",
"W. c #7D92A0",
"Q. c #869985",
"!. c #989995",
"~. c #8E8E8F",
"^. c #A79A98",
"/. c #AF968A",
"(. c #91AA8F",
"). c #ACA998",
"_. c #B7AA99",
"`. c #AFB297",
"'. c #8B9BA6",
"]. c #8C9FB1",
"[. c #8EA1A8",
"{. c #96A6AB",
"}. c #99A9B5",
"|. c #98ACB8",
" X c #A7A8A8",
".X c #BBACA8",
"XX c #A6B2B9",
"oX c #BAB8B9",
"OX c #AEB1AE",
"+X c #C6A393",
"@X c #D4A890",
"#X c #FBB795",
"$X c #F2AD8A",
"%X c #C9B5AB",
"&X c #D1BBB0",
"*X c #E8BCA5",
"=X c #C59A8A",
"-X c #C9C3BE",
";X c #D0C4B0",
":X c #FCC5A5",
">X c #FED5BD",
",X c #F2CAB7",
"<X c #A9B8C4",
"1X c #B2BCC4",
"2X c #B7BEC7",
"3X c #B6C2CB",
"4X c #BAC3CA",
"5X c #B9C9D2",
"6X c #C8C7C6",
"7X c #DAD1CA",
"8X c #C6CDD5",
"9X c #CBD4DC",
"0X c #C9D3DA",
"qX c #D9D8D8",
"wX c #D5CAC3",
"eX c #E5D5CC",
"rX c #E7DDD7",
"tX c #F3D9CD",
"yX c #F9E6DB",
"uX c #E6E0DD",
"iX c #D6DDE4",
"pX c #CEDDE8",
"aX c #DEE4E8",
"sX c #E2E6EB",
"dX c #EAEBEC",
"fX c #E7E8E9",
"gX c #F2E6E3",
"hX c #FFF3EC",
"jX c #EAEEF1",
"kX c #EDF2F5",
"lX c #F3F4F4",
"zX c #F6F7F8",
"xX c #F5F9FA",
"cX c #FDFDFD",
"vX c #FEF8F4",
/* pixels */
"q.q.q.q.q.D D q.9 q.D 9 q.q.D D D D D D D v c 8 S S 8 S D c c S D v v D D D D q.D D q.e.q.q.q.q.q.e.q.e.q.e.e.q.e.e.q.e.q.q.e.e.",
"q.e.q.D q.D q.D q.q.q.9 D 9 D 9 D D D D v c D S S 8 S 8 c c v D v q.D S v v D e.D q.e.q.q.q.q.q.q.q.q.e.e.e.e.e.e.q.e.e.q.e.q.e.",
"e.e.q.D D D D q.D D q.q.D q.q.D D D v c c S D F S c S 8 S v D v v v D v S D q.t.e.D e.q.r.a.p.q.q.q.e.e.e.e.e.e.e.e.q.q.q.q.q.q.",
"q.e.q.q.q.D D D D q.9 D 9 9 D q.D D D c c 8 D D c c c c 9 v v c D D D v D D D w.D D D e.f.l.x.y.q.q.q.e.e.e.e.e.e.q.e.q.q.q.q.q.",
"q.q.q.D D D q.D D D D D q.D q.D D F D c c 8 v v c c 9 v 9 D D v D D v v S v D D q.q.q.e.y.s.i.q.q.q.e.e.e.e.q.e.q.e.e.e.q.q.q.q.",
"q.q.D D D D D D D D D q.q.q.D D D D D c c c c v c v v v v v D 9 9 v D S D D D D D q.D q.q.D D D q.q.q.e.q.r.e.e.e.e.p.r.e.e.q.q.",
"q.q.D D 9 D q.D D q.y.r.e.D D D D D c c c 8 q.q.K w.v v c S D S c D v D v v 9 D 9 q.D D D D S q.D D q.q.r.r.e.e.q.e.p.e.e.e.q.q.",
"D D D v D D r.e.e.p.p.r.D 9 9 9 D D c S S G M.+X%X(.g.9 8 D 8 D c c c v v c c D D D D v c D D w.D 9 9 q.D e.q.q.e.e.p.e.r.e.q.q.",
"D q.D D v F a.a.a.a.y.w.v S c S F v v S g. X7XrXrX-X`.g.z c c v v v v v v D 8 v v D v v v v D D t.D S q.D q.q.e.q.r.p.e.r.r.q.q.",
"D D v v c w.d.d.d.y.w.q.D c c D D v v g.).eXrXeX-XOX X!.u.c v c v c v v v D v v v v v v S 9 c D w.e.S D D v D q.e.p.p.e.r.r.q.q.",
"D D D D b F d.d.t.t.q.D c c v D S v K (.7XrXeX-X X!.). Xg.v c v c v v v 9 v v c v v c c v c v v D y.q.F D D D D q.p.y.y.y.w.q.q.",
"q.D D D S G i.i.G q.D D S S D D c c h.-XrXrX7XoX~.Y Q._.u.c c v v c v v D v v c c c 8 c c v 8 c D r.y.D q.D c F r.p.y.p.y.t.q.q.",
"D D e.r.G u.i.u.G D D D c c D D v S Q.7XyXeX;X XR.s.s.g.v v v v v v v v v v D c 5 e r x 9 8 c c D q.d.t.t.w.u.s.s.i.y.y.r.w.q.q.",
"D D q.w.G u.G G D D D c v S i 1 5 Z ~.rXgXeX-XoX!.h.H J b v v v c c c v D v 8 i p B k t c D c c S D y.a.d.h.l.E.l.j.y.r.y.r.q.q.",
"S D D S C G t.G w.D v D c c 0 u p p Y &XgXyX7X-X%X_.m.M.V.b 9 v c c c v D S 1 h /._.-.> 8 8 v 8 c S t.f.h.k.l.Q.(.(.j.y.i.r.q.D ",
"c C S C C H G G D D D v S C ; V ~.n.I ,.%XrXyX;X$XI.I.J.4.V.b 9 c c 9 c 8 , V ^.qXqX,.0 S v v c c S D L L L z.z.k.h.h.a.y.w.w.q.",
"S C C C C C S F D D v D S v > B XX3X^.,.,./.*X#XK.Z.H.5.} 4.V.n b b c c q f /.7XaXqXn.q c c c c z C H G P P P Z L s.s.w.q.q.D q.",
"v S b S S S S D v S D v D v > V  X5X5XOX,.I :.5.c.#.+.X.5.4.[ m M M n r a B.wX0XqXrXn.e D c c c S S G t.H Z Z Z H H S S F D q.D ",
"D D v v c D v D c D D D v v 1 u  X1X<X8X8X~.2.! { 5.4.7.} [ [ ' [ ` a - >.@X-X6XqXrXN.e w.S c c c v D S F G K S S S S D D q.D D ",
"v D v v c D v D D D v c D c 5 u ^.2X1X.X&X6X.X:./ ] [ [ | } | | o.' W ^ C.@X%X6XqXuX~.i D v c c 8 c c c v c c c S v v D D D D q.",
"D D D v D D D v v v D D v c c ; ~.2X6X+X/.+X*XI.5.{ { | +.$.o.@.c.| } X. .C.@X-XqXuXM.t S S c 8 c c c c c 9 c c b v v D D D D v ",
"D v D v D v S D D D v D v D c > ,.1X6X+X6.| 8.D.F.$.$.A.D.A.A.S.Z.@.Z.Z.+.8.L.*XrXuXY l 6 c c c c c c c v v D v D c v D S D v v ",
"q.D D D v c v D v D S D v v v < B OX&XJ.4.} #.A.A.A.A.S.Z.A.S.c.A.A.S.S.S.A.Z.P.>X,XI b S 8 8 S c v c v 9 v v v S c c S c D v v ",
"D D v D S S D D v D v v D v v 5 N ^./.5.o.8.Z.A.A.A.A.A.c.S.A.A.A.S.A.A.S.c.#.F.#X&XU v c c D 8 c 8 v c v c v v D v v c c b c v ",
"q.D D D D D D D v v D v D v v c u <.B.7...c.Z.S.A.A.A.A.A.A.A.A.A.A.A.A.A.A.%.Z.$X=XV v v 8 S 9 9 c v v c 9 c D v v S v v D D D ",
"q.9 D D D D D F D v v D v D v v p -.1.>...$.Z.c.A.A.A.A.A.A.A.A.A.A.A.A.A.A.9.9.L.N.i v v v c v 9 v v 9 v v S D v v S c v q.q.v ",
"q.D D 9 D D q.D v v v D v v v v i 2.;.( o.0.c.A.c.A.A.A.A.A.A.A.A.A.S.S.S.A.9.9.H.-.i c c v c 8 v c 9 D D S D D D D v v v D S v ",
"9 D D D D D D F D v v c v v v v l k ! ] ..0.S.S.S.A.A.A.A.A.A.A.A.A.S.S.F.A.9.9.5.2.x c c v c v v v D D D D D D D v v v v v v v ",
"D D D D D 9 D D D D v v v v D 9 S w Q ( 7.9.D.F.S.A.A.A.A.A.A.A.c.S.Z.o.X.Z.A.9.7.m b c v v v 9 9 v D D D q.D S D v v c v v v v ",
"q.D D D D 9 D D S D D v v v v v S p W ( +.X.( ( 8.S.A.Z.A.A.A.A.S.F.| s s | D.D.} m c c v v v v v v D D D w.q.D D S v v b v v v ",
"9 9 D 9 9 D 9 D v D v v v v v v D y R { ../ $ X ~ A.A.c.c.c.c.c.c.S.R   . Q Z.F.7.m v c v v v D 9 v D D e.w.q.D v q.v q.D v v v ",
"q.q.D D D D q.v v D v v v v c v S y R | 7.R     s #.c.c.S.S.F.c.v.v.E . o / D.A.8._ c c v v 9 D v D D D w.w.D D v v D D v D D D ",
"D D D v D v D v 9 v c v v c S 9 z u W *.} ~ * X T ..0.G.Y.U.U.K.G.G.o.E Q Z.v.c.9.3.m S b v D 9 D D v D q.e.9 9 D D 9 D q.9 q.9 ",
"D D D v c v S c v 9 c v v D 9 S x a ~ ( O...^ W ^ C.J.@XB.<.N.&X>X:XY.L.H.c.v.#.9.9.>.J v v 9 S v v D D q.q.D D D D D D D q.D q.",
"D q.D v D D D S v c v v v c D 9 r R ^ *.O.&.#.5.J.@X&X!.@   N 1XhXvXyX>X:XY.P.G.K.U.$X1.J D 9 D D 9 D D 9 q.q.D D D D D q.9 q.q.",
"D D D D v S c D v v 8 v v v 8 8 f / 7...+.8.L.@X;XqXiX XN @ Y qXxXcXcXvXhXyXyXtX>X,X>X,X_.g.q.D 9 v D D e.9 q.q.q.D q.D q.e.q.q.",
"D D 9 D v v D v v v c v v D H U 1.J.@X$X#X:XeXfXjXjXkXfX6X-XsXcXcXcXcXcXcXcXcXcXlXgXgXjXqX(.u.v D 9 D q.q.D e.q.q.9 q.e.e.e.q.e.",
"D D D D c v S c c c c c v D h.^..X&X,XyXhXxXxXxXxXxXcXcXcXcXcXcXcXcXcXcXcXcXcXlXjXsXiX%XM.j.t.v D D D D q.q.9 q.q.e.9 9 q.q.q.e.",
"D D 9 9 c c S c c c 9 v v K x.W.<X2X9XjXxXxXxXzXlXzXxXxXxXcXzXzXzXzXxXxXcXcXvXdXiX8X.X-.J w.D v v 9 D D D q.9 D 9 q.9 q.9 q.e.q.",
"D D 9 9 c c v c 9 9 v v 9 v s.z.T.|.2X8X9XiXfXdXlXlXlXzXzXzXlXlXlXzXlXlXkXlXkXaX2X/.:.g b F q.F v q.D D q.q.q.e.9 q.e.9 q.q.q.e.",
"D 9 D v c v c c c c 9 D v v v v K T.W.|.<X3X5XaXdXjXdXdXjXjXkXjXlXlXkXlXkXjXpXoXN.;.T R b q.q.D q.9 q.q.q.q.q.q.q.q.q.9 q.e.q.q.",
"D D D v c v v c c c v D D v 9 v c K R.W.|.<X<X5X9XiXsXsXsXsXsXsXsXsXsXsXaX0X X1./ ) R j F e.q.D 9 9 q.q.q.q.q.9 9 q.q.q.q.q.q.q.",
"q.D q.D v c v c c c D D D v v v D D K z.R.].|.<X<X5X0XpX9X9X9X9X0X0X8X0X5X).:.^ ^ W : w b r.w.D 9 q.q.e.q.q.q.q.q.q.e.q.q.q.q.9 ",
"D q.q.D c v v c c c D v S v c v D D 9 K Z Y W.W.}.|.<X1X3X3X5X3X3X3X1X<X X1.^ O.| R - w c r.y.q.q.q.q.e.e.q.q.q.q.e.e.q.q.q.q.q.",
"D D w.D v v S v c v v c c 9 v v 9 D D v C + V Y T.W.].].}.}.XXXX}.{.}.XX`.C.o.X.] s $ q z r.p.e.q.q.e.e.q.q.q.q.q.r.q.q.q.q.q.q.",
"D D D S v v c D v v c v c c v v D D v v C + : : I T.W.].[.'.[.{.{.{.XX3X%XC.#.#.~ = o 0 z w.a.r.q.e.y.q.q.q.q.q.r.r.q.q.q.9 q.q.",
"q.D D c c v D c v c v c 9 v v v D D v v z p : R B Y '.[.{.[.{.{.|.XX3X4X+XH.c.o.R & o q 8 w.a.y.e.p.y.q.q.q.q.q.e.q.q.D D q.q.q.",
"q.D D D c S c c c v c c v 9 9 D D v c D S C ; E / =.<.!. XXX|.}.3X5X3X/.6.8.X.' h r > t 6 w.a.a.e.p.y.q.q.q.e.e.y.r.q.q.q.q.D q.",
"D q.q.9 v c v c c v c v c v v v v v v v 8 z y R | ( ` :./.XX<X<X5X XN.:.| o.^ j i 5 5 5 5 w.a.a.p.d.y.9 w.f.f.a.p.y.q.D w.D q.q.",
"q.D q.D D D c v v c c c c c v v v 9 8 8 z 6 x g o.o.^ ] >.N./.{.l.U _ ' { ^ g y 6 8 S S 6 D y.d.a.p.w.D l.).OX(.x.w.D q.D w.q.F ",
"q.q.q.D D D D D D c v c c v v v 9 8 8 4 8 8 x m { 0.X... .| ;.L 4 i d W ^ E w l 3 5 S S S F t.i.y.y.t.S h.k.R.E.l.w.D D q.q.q.D ",
"q.q.q.q.v v F D S c c c v v 9 8 8 4 8 8 8 4 6 f / 0.0.#...O.R 1 7 ; d R E s w 7 5 5 5 8 G F w.q.q.r.q.K H J P K G q.D q.D F q.q.",
"q.q.q.9 9 9 D w.D v v v c c 8 6 8 8 4 4 4 4 7 n ! } $.X...^ : , < O : : d s t 4 3 3 5 c w.F F F D q.q.D S D D D v v q.q.q.q.F q.",
"e.9 e.q.D D D w.D v c v v c 4 4 4 4 4 4 4 4 4 x f / X.{ { ^ : < > + * : - w 1 4 3 5 5 z v v S D q.D q.D D v D D v q.b v D q.D q.",
"q.9 e.9 D D D r.G v 9 9 9 6 6 4 4 4 4 4 4 7 4 4 f R ] [ ^ Q * , + X = * * * 1 4 4 3 5 c 9 9 9 9 q.q.q.D D D D v q.q.q.q.q.v q.q.",
"9 e.9 q.q.9 q.e.q.c D 9 6 4 4 4 4 4 7 4 4 4 4 4 p s Q W Q R - , + X X $ $ & , 7 4 4 c D q.9 e.9 D q.D q.q.D D D D D F q.q.q.q.F ",
"q.q.D D q.D D e.q.v 9 9 8 4 4 4 4 4 4 4 4 4 4 7 e : : R - - & < , o X % % + , 5 4 8 9 q.q.q.q.e.q.D v v q.S D D D q.q.q.q.q.q.b ",
"q.q.D D D D D q.q.D D 9 9 4 6 4 8 4 4 4 4 4 4 7 > = : : = $ X + 2 , + O ; > 3 6 4 9 D q.q.q.q.e.q.q.q.q.D D q.w.F D v q.q.F q.q.",
"q.q.D D D 9 9 9 D D q.9 8 H s.h.9 4 8 4 4 4 4 2 + % $ = $ % X o 5 6 2 < 7 5 5 6 9 9 q.q.q.q.e.q.q.q.q.v D D q.D v v q.q.q.F q.q.",
"e.9 D D D 9 q.9 D q.q.9 S 8 C D 9 4 4 4 8 4 4 2 ; % % $ $ % X + 2 5 5 5 3 7 6 8 9 9 q.q.q.q.q.q.9 q.v q.v F D q.q.q.q.F q.q.q.D ",
"q.9 9 q.9 9 q.q.q.D q.q.D q.v v 9 9 4 4 8 4 4 7 + # # # o o + 7 4 7 4 3 6 6 6 D D D q.q.q.q.q.q.q.q.v q.v q.q.D v q.q.q.D F q.q.",
"q.q.q.q.q.q.q.q.q.q.e.q.q.q.D v 9 9 9 8 8 8 8 8 3 e > > < 2 7 4 6 4 6 6 6 8 v D 9 D 9 q.q.q.q.q.q.9 q.v q.v v q.q.F q.v q.q.q.D ",
"q.q.q.q.q.9 q.q.e.q.q.e.q.e.q.D q.9 9 9 9 9 9 9 8 4 6 6 4 8 6 8 6 6 8 8 S 8 D D D D 9 q.9 e.D q.q.9 9 q.v q.q.q.q.q.q.q.q.q.q.D ",
"e.q.e.q.q.q.q.q.q.q.e.q.e.q.q.D 9 q.q.q.D D 9 9 9 9 9 9 8 8 8 8 9 v 9 D D D v D q.9 q.q.q.q.q.q.q.q.9 q.q.D q.q.q.b F q.D F q.q."
};
