/* XPM */
static char *result[] = {
/* columns rows colors chars-per-pixel */
"64 64 211 2 ",
"   c #171717",
".  c #171917",
"X  c #181817",
"o  c #171A18",
"O  c #191B19",
"+  c #1C231D",
"@  c #1C2A1F",
"#  c #20221E",
"$  c #1D2C20",
"%  c #1F3423",
"&  c #222421",
"*  c #252B23",
"=  c #292D26",
"-  c #272B28",
";  c #2A2E29",
":  c #233425",
">  c #2B3027",
",  c #223A27",
"<  c #27372A",
"1  c #2C332B",
"2  c #243D29",
"3  c #2C3C2C",
"4  c #31352D",
"5  c #32392E",
"6  c #2F3330",
"7  c #2E3931",
"8  c #323632",
"9  c #343B33",
"0  c #393E35",
"q  c #373D38",
"w  c #393E3A",
"e  c #264227",
"r  c #26432B",
"t  c #29452B",
"y  c #2B4B2C",
"u  c #32402E",
"i  c #2C542D",
"p  c #2E5B2D",
"a  c #365B2E",
"s  c #305E2F",
"d  c #2E4432",
"f  c #2F4A32",
"g  c #354234",
"h  c #3A4236",
"j  c #324B34",
"k  c #384937",
"l  c #36443A",
"z  c #3C433B",
"x  c #3C4B3C",
"c  c #2F5830",
"v  c #325433",
"b  c #3A5637",
"n  c #335D32",
"m  c #365439",
"M  c #3D523D",
"N  c #3A5C3B",
"B  c #2E622D",
"V  c #30632E",
"C  c #366A2C",
"Z  c #2F6030",
"A  c #346433",
"S  c #376737",
"D  c #356A33",
"F  c #396B36",
"G  c #3B633C",
"H  c #3B6D3A",
"J  c #377136",
"K  c #397237",
"L  c #3D733B",
"P  c #3F793C",
"I  c #41463D",
"U  c #424A3E",
"Y  c #42533D",
"T  c #45792E",
"R  c #427A36",
"E  c #41763F",
"W  c #417A3F",
"Q  c #3E4541",
"!  c #3E4A41",
"~  c #3F5642",
"^  c #3F5A44",
"/  c #3F6840",
"(  c #414741",
")  c #444C44",
"_  c #484F45",
"`  c #454E4A",
"'  c #484E49",
"]  c #445244",
"[  c #4A5246",
"{  c #435C44",
"}  c #4A5B47",
"|  c #46574A",
" . c #4C534B",
".. c #4D5B4C",
"X. c #50574D",
"o. c #51594E",
"O. c #4E5651",
"+. c #4E5A52",
"@. c #4E5658",
"#. c #535B53",
"$. c #525956",
"%. c #555D59",
"&. c #436344",
"*. c #436C42",
"=. c #47674A",
"-. c #4C634C",
";. c #4A6B4B",
":. c #53664E",
">. c #447441",
",. c #497345",
"<. c #427D40",
"1. c #497B46",
"2. c #4A744A",
"3. c #4D7D4A",
"4. c #4D6550",
"5. c #4E6855",
"6. c #546255",
"7. c #5A6356",
"8. c #516C52",
"9. c #56615A",
"0. c #5B645C",
"q. c #556C59",
"w. c #5C6B5D",
"e. c #4F7254",
"r. c #527453",
"t. c #547857",
"y. c #616C5E",
"u. c #575F61",
"i. c #576062",
"p. c #5D6661",
"a. c #5E6A62",
"s. c #5E666A",
"d. c #5F696A",
"f. c #5C7463",
"g. c #606762",
"h. c #626C64",
"j. c #626C6C",
"k. c #686F6F",
"l. c #647165",
"z. c #687566",
"x. c #637B67",
"c. c #66736A",
"v. c #69756C",
"b. c #6B7B6D",
"n. c #666F71",
"m. c #667171",
"M. c #6A7474",
"N. c #6E7B72",
"B. c #6C7679",
"V. c #6E797A",
"C. c #717E73",
"Z. c #717C7C",
"A. c #48853B",
"S. c #57943C",
"D. c #448342",
"F. c #498545",
"G. c #468843",
"H. c #4B8B45",
"J. c #4C834A",
"K. c #4C8C4A",
"L. c #518C43",
"P. c #51894D",
"I. c #4D914B",
"U. c #549245",
"Y. c #599844",
"T. c #52934C",
"R. c #4F8250",
"E. c #538C52",
"W. c #598458",
"Q. c #559653",
"!. c #569A53",
"~. c #639F45",
"^. c #618E53",
"/. c #66A145",
"(. c #68A345",
"). c #67856F",
"_. c #688869",
"`. c #71816F",
"'. c #679769",
"]. c #738275",
"[. c #748A75",
"{. c #75847B",
"}. c #768A7A",
"|. c #7A8B7C",
" X c #7E917D",
".X c #769C78",
"XX c #72A272",
"oX c #747E81",
"OX c #768382",
"+X c #798484",
"@X c #7C8D82",
"#X c #7C8788",
"$X c #7E8B8A",
"%X c #7F9384",
"&X c #818E8C",
"*X c #819485",
"=X c #849987",
"-X c #83938B",
";X c #859491",
":X c #899796",
">X c #8B9B94",
",X c #8D9C9A",
"<X c #909F9D",
"1X c #88A589",
"2X c #8AA497",
"3X c #91A19D",
"4X c #95A6A3",
"5X c #96A8A3",
"6X c #99AAA5",
"7X c #9CADA9",
"8X c #A1B1AD",
/* pixels */
"D.D.D.<.P D.P D.P D.P P D.G.D.P <.<.P / A./ / <.e.=./ / <.>.E <.W <.<.<.<./ D.D./ G.G.D.D.D.D.D.D.D.G.G.G.G.G.G.G.G.D.G.D.G.G.D.",
"D.G.D.<.D.D.D.D.G./ D.D.P / P D.<.<.L K H / 4.5.d.a.;.;.*.P <.<.D./ <.<.2.1.D.G.G.I.G.D.D.D.D.D.D.D.D.G.G.G.G.G.G.D.G.G.G.G.G.G.",
"F.F.D.D.<.<.<.D.D.P D.D.P D.D.<.<.P H m ^ $.p.c.}.$XOXf.5.;.P P L K L / 5.f.;X2X%X%X).e.R.I.K.D.D.D.D.G.G.G.G.G.D.G.D.G.G.G.G.D.",
"D.G.D.<.<.<.<.<.D.D./ G.D.G./ D.<.K N ] O.9.d.M.$X>X;X$XM.t.;.^ G / ^ ! @.OX3X7X7X5X%XOX).OX'.D.D.D.D.G.G.G.G.G.D.D.G.A.S.A.D.G.",
"D.D.D.D.P D.D.<.G./ / <.P <.D.<.K N ] | #.p.j.C.$X2X2X;XOXM.d.%.@.@.` ! @.OX<X4X4X:X$XoXB.M.W./ D.D.D.G.G.G.A.G.G.G.G.A.~.Y.G.G.",
"D.D.D.G.P P <.<.D.D.G.D.D.D.<.L F N ` +.0.h.N.Z.@X%X;X-X{.c.j.u.@.@.@.@.d.oX#X#XoXoXoXoXB.B.oX9.D.D.G.G.G.I.I.G.G.G.I.I./.~.G.G.",
"D.D./ / <.>.D.<.D.D.K.K.F.<.<.K F { [ 9.h.M.C.{.{.{.{.V.m.j.n.j.d.d.n.oXOXoXoXm.n.n.n.m.m.B.B.n./ / <.G.D.I.!.G.G.G.I.G.Y.Y.G.G.",
"<.<.D.D.<.<.K.G.D.I.I.F.<.<.L F S ~ O.0.c.v.C.C.M.v.c.j.n.B.V.oX#X;X<X6X4X:XOXB.n.s.s.d.n.n.oXoXoX^ / / D.K.~.H.G.G.I.G.I.I.G.G.",
"A.D.<.<.E F.T.P.I.Q.F.D.1.<.H F n ] %.h.c.c.h.v.k.h.g.g.h.k.B.Z.#X,X6X8X8X6X,X$XV.d.s.d.n.oX#X&X$Xj.` +.3.J.~.H.G.H.I.G.I.I.D.D.",
"<.W <.<.E 1.!.!.Q.G.D.<.<./ L H G +.l.N.C.c.h.g.y.%.p.g.g.g.h.k.oX,X6X8X8X7X6X<X&XM.d.n.B.#X,X4X3X#Xi.d.}.^.~.H.D.I.I.H.I.I.D.D.",
"<.<.W W E 1.!.!.J.D.<.<./ L L G } l.].{.{.].v.y.O.O.7.0.%.g.0.g.m.-X3X5X3X6X7X5X<X$XB.m.oX&X4X7X5X$Xd.c.+XW.L.F.G.I.K.K.I.G.G.G.",
"<.<.W W ,.3.W.U.1.>.;.r.3./ G M #.z.{.{.{.{.C.l.%.X.%.%.0.%.y.7.p.N.-X,X,X3X6X7X4X,X$XoXV.$X4X4X<X#Xi.i.B.<.<.D.G.I.K.K.K.I.I.G.",
"<.<.F.K.3.P.P.3.>.G ] 9.w.~ q ` 0.C.C.{.{.C.N.k.g.%.X.$.%.%.%.%.%.0.N.@X-X:X,X5X4X4X,XOXB.OX&X:X$Xd.@.i.u.e.W.E.E.E.K.G.K.I.I.D.",
"<.<.D.F.3.R.3.E E y 9  . .Q z O.0.l.v.C.C.N.l.g.0.%.$.$.%.0.h.h.0.0.h.N.+X*X-X,X<X<X,X#XV.oXoXoXoXs.@.@.%.q..X%X%X'.P.K.I.!.K.D.",
"W >.>.,.*.3.3.1.L < 1 9 q 9 z  .$.0.h.v.N.l.g.0.%.y.%.y.l.C.{.{.N.w.w.c.b.N.v.N.#X$X$XOXV.V.Z.oXoXn.u.@.@.f.}.1X1X1X'.K.!.!.K.<.",
">.E >.*.E ,.1.>.K > 6 9 9 q z  .X.o.0.g.g.0.%.y.g.l.l.k.b.].|.|.b.w...$.$.#.$.#.9.n.M.m.n.n.V.oX#XoXoXn.s.%.f.[.}.'._.Q.Q.Q.F.<.",
">.E E E &.;.E E D 3 z I z q w ` ' O.%.0.0.9.%.0.y.h.h.l.z.b.`.[.x.-.z 9 9 q w w Q ! O.u.j.m.oX&X;X;X#XoXM.p.4.8.r.W.W.J.D.D.W E ",
"W *.E ,.E E Y T A x ..X.) I Q ) O.9.h.v.v.h.0.%.#.#.X.[ ..-.-.] 7 = = ; - ; 8 8 9 9 z O.p.m.OX-X:X:X#XoXM.d.;.;.r.2.,.E W W W W ",
"W <.E W E W L F j +.0.6. .' ' $.9.c.{.|. XC.y.o.[ ] U U g ; # O O O O & & * - ; 6 6 q ) $.0.v.OX$X#XOXoXV.j.8.>.E E E E 1.W W W ",
"<.<.W W W W K y x w.a.9. .O.#.%.g.N.|.*X*X].z.o.Y b 5 & # O O X .     o O # & - - - 1 l ! `  .%.a.k.V.V.B.j.a.:.E E E 1.W W W W ",
"<.W <.<.W E F 3 ' 9.0.#.X.$.%.%.g.z.|. X|.b.y.o.8 & # # O O O                   $ $ & - 6 ; ; 6 ) #.a.m.B.Z.|.Z.x.3.3.E W W E W ",
"<.<.<.<.E L D g [ $.#.+.#.$.$.#.7.y.z.z.b.z.:.Y - O O O O                           O O O O & - 0 x +.0.Z.*X>X>X,X*X_.W W E E W ",
"<.<.<.<.>.L S g ( '  .#.%.#.O.O.X.7.y.y.7.o.U I &   X X X X                               O O & 4 q U 6.{.-X3X3X3X>X_.W W E E W ",
"<.<.<.<.L K H g ( ( (  .%.#. .'  .X.7.o.X.U I 0 #   X X                                   O O # > 5 h #.`. X=X>X-X@Xw.W ,.E E W ",
"D.<.<.<./ P K g Q Q 8 w #.#.' ' ' X.X.' ' ( I - X X X X     O             O                   O # 5 z :.z.}.@X@X{.0.-.>.W <.<.<.",
"P <.<.<.P L H l z q ; q  .O.' '  .' ' ' ' ( 4 # X X X X                               O       O # 1 z o.l.C.C.v.%.) ` r.<.<.<.<.",
"<.D.P P L / ~ Q Q q 6 w _ ' _ _ X.X.' U ( 6 # X   X         O O   .   .                       O # > h [ o.7.0.#.) Q ` ..=.>.<.>.",
"D.P <./ / | ! ` Q w q Q ( ) ) _ U [ U I - O X X     X X O O O O . O O O O O O O O   O   O     O # = 5 z ] $.0.%.) ) O.O.| &.E W ",
"P P S G ~ ` ! Q Q w w Q Q ) ) _ [ U I = # X X X X X O O O O O O o o o o O O O O . . O   O       O # 5 9 ) 9.h.h.$.6.p.w.#.&.W W ",
"/ K m ~ ! k l Q Q Q w w Q ` _ [ X.U U 8 & X X X X X X O O O O O O + O + O O O O . .   .         O # > 9 [ 9.h.c.h.l.h.0.| Y W W ",
"P D n k l 9 7 7 w Q w w w ' O.#.o.' U 0 & X X X X X X O O O O O + o o o O O O . . . O           O & 4 9 ` %.j.v.C.v.c.%.[ E W <.",
"K J v j d 7 6 7 w w w Q ( O.%.0.7.X.' 0 # X X X X X X X O O O O o o + O O O . O O               O & 1 9 ( ..y.v.v.l.0.$.*.<.<.<.",
"D D p j 8 6 4 6 w 0 0 w ' $.g.g.%.$.' z $ O o     o o o o o o o o o o + . o . + . . .             + 1 9 Q ` O.y.g.0.9.6.1.G.D.D.",
"D C V j 6 4 4 6 8 8 8 0 ' 0.y.g.%.O.' ( & o   . o o o   . o o   o o . . . . . . . . .             o 1 0 w )  .%.0.%.6.6.,./ D.P ",
"D V V y 8 4 4 ; 6 8 w ' #.g.g.g.#. .' w #         .   . . . o o o o o . . . . . .                 O & q ) ` O.0.g.0.%.6.2.D.P D.",
"D V V 5 ; 6 4 ; 6 8 I X.0.y.y.g.o.[ ` 8 O             .   . o o o o + . . . . . . .             O $ - q '  .#.9.h.0.%.o.;.D.G.D.",
"V V V 2 > > > ; ; 0 _ X.0.y.g.g.o.) I & . .               o o o o o o o . o o o o . .   O * > 4 Q ' 4.9.%.#.%.0.h.w.#.o.=.D.G.D.",
"V V V < # = ; 4 0 ( X.7.7.0.g.g.X.( 4 X . .                 o o o o o o o o @ o o o o + 1 g M } 6.p.z.c.c.p.0.y.9.6.#.$.} D.D.G.",
"A V V y # = 4 I U _ _ X.7.0.y.0.$.z # X . . . . . o . o $ $ $ % % % $ $ @ @ @ @ @ + + # g x } 7.l.x.b.N.v.c.w.0.9.#.X. .M D.G.D.",
"D V V p = > 0 U U _ [ X.#.7.0.y.X.8 & O o . o @ $ % % % % % % % % % % % % % % % % @ @ : k Y -.w.x.z.b.N.N.c.0.0.#.X.' ( m D.G.D.",
"A V B s , 1 z U I Y Y Y X.X.7.7.%.X.( 8 & $ * % % % 2 2 % 2 % 2 % % % , % , % % % $ @ % g Y :.w.y.y.z.C.b.h.%.#.O.) z z m D.D.G.",
"D V B B 2 1 x U h I I U U U U o.$.$.O.) w 1 % , 2 % 2 % r % % 2 % , % , % % % % % % $ * 5 h _ X.$.0.z.b.v.y.#.#.X._ ( q E D.D.D.",
"J D C A e 3 I I h h h I I I I U X.%.$.O.` l 2 2 2 2 r 2 r r r r r r r r 2 2 2 % % : = > 5 0 )  .o.%.y.y.7.#.o.#.O.X._ z D.D.D.D.",
"D D D A y > h I h 5 5 5 4 5 h I ' X.%.X.O.` d t t r r r t t r r y r r r r r r r e : 5 g h q I [ #.#.#.#.#.o.#.o.o.o.[ E G.D.D.D.",
"D D C V i : 5 5 u 5 > > > 4 5 I ) | $.#.+.| j f t y y r t t t t y r r y y y r y t t h Y Y U ) X.X.o.o.o.o.o.o.o.O...} >.G.D.D.<.",
"D V D B a : # > > # # > 4 4 9 9 I [ $.#.O.] d i i y y i i y y y y i y y y i i i i j Y } X.X.X.[ [ [ X.o.o.o.o.o.$.....>.D.D.<.D.",
"K C B p p y : # # : = > 4 0 h 9 9 U [ ` ! ! v c c c c c c i i i i i i y i i i i c b [ X.} X.[ [ I z I U X.o.#.#.[ x ] >.<.<.<.F.",
"J D C p p p i , # : 5 5 0 I U I 8 8 0 0 q j c p p p p p i c p i i i i i i i i p c j Y } X.X.o.[ I I U U X.o.#.$.) h M *.<.<.<.<.",
"J C C B p p p i e e e j g 0 U Y h 4 4 > 4 c s s n S A A a V n c i p i p p i i i i y U Y X.X. ._ I U ' ' I I ( ( I I / >.<.<.<.<.",
"L J A.C B p p i i i i e 5 9 U U I 0 4 = < V V A S F F S S A A s n s n p s p p y y i y 0 I U U U [ 7.y.y...U I w q k H L <.<.<.D.",
"A.K A.C B B B p p p p e = > 5 0 5 1 * % s C A A S H S S S S G n n A V n V s p i y e e , > 0 h Y y. X X|.].z.7.[ -.L D K <.<.D.1.",
"T K A.B B p p Z p p p e > ; > = * * e B V D D F S K H H S S A A A n A V ;.r.&.p y e e , , k I 7.[. X X=X*X X8.&.L F K W >.<.<.D.",
"A.P S.D B p B A p p p p a 5 3 t y B B B V D F F E L K L L H F S A A / x.{.}.b.r.Y f t t y C C :.`.`.[.}.}.r.H E L W W >.<.<.<.<.",
"D.D.Y.K V B B D C s p B V x } N D D D D D J L L L E E P E K H F S A t.N.}.}.v.a.E a a a J i e y b N v m b G F L L L E W <.W <.F.",
"D.D.Y.P L D D P R D V C b U 9.8.P P P P P P / D.E E P P E L H K F S *.b.N.z.0.6.-.S a D Z i i p i i i p V A K H L E E E W W <.D.",
"D.A.L.A.D.P P A.S.R D D G | 4.;.D.G./ <.D.J.F.W W W E P R L E H H F A G #.] ( ) G F D F D B B B B V D D K L L E >.q.w.r.E 1.D.<.",
"D.D.G.D.D.D.D.U.(.A.L L P L >./ / G.D.3.}.%X*X_.A.W W P / L L P F D p p f 7 j m J J K K K K J J L J J K L K W / 8.0.i.q.<.<.D.D.",
"D.D.D.D.D.A./ U.(.L.<.D.D.P D.H.D.<.1.W.$X%X-X%X1.W W P A.L L P / L F F n S S P J J P K K D.P P D.P K L K L <.P &.....;.W <.<.<.",
"D.P D./ P / D.L.(.H.G.D.<.J.XXXXK.2.8.d.{.*X*X@Xe./ P P P P P P D./ L L L L L / P P P P / P D.P P P P P L <.P J A S S H 1.<.D.<.",
"D.D.P D.P D./ A.L.G.D.D.1.1.3.E.D.} +.%.w.c.N.c.8.<.D./ P P / K P P L L L L P P P P D.P G.G.D.D.P D./ <.<.<.D.D.L H L >.W <.D.1.",
"D.P P D.P D.D.D.D.D.D.G.D.D.D./ D l Q ` ` ` | | &./ D.P D.P P P / P L L >./ P D.P D.P P D.D.D.D.D.D./ A.D.D.P / <.E E W W 1.W D.",
"D.D.D.D.D.D.P D.D.D.D.G.D.D.D.P D f 7 9 g l ~ N / <.<.<.A./ D.D.D.<.<.P <.<.G./ D./ D.D.D.D.D.D.D.P D.D.D.G.D.P <.E <.W <.W <.D.",
"D.D.D.P P D.P D.G.D.G.D.D.D.D.P J J D D F P P D.D.D.D.W P D.P D.D.W <.<.P <.D.P P D.D.D.D.D.P D.D.D./ D.<./ W D.<.W 1.E E W <.F.",
"D.G.D.D.D.D.G.D.D.G.D.D.G.D.D.P D.D.D.D.G./ D.P D.D.D.D.D.D.D.D.W <.<.<.<.<.<.W D.P D.D.G./ D.D.D.P D.D.<.A.D.D.<.<.W E W 1.<.<."
};
