/* XPM */
static char *result[] = {
/* columns rows colors chars-per-pixel */
"64 64 238 2 ",
"   c #070702",
".  c #0D0D04",
"X  c #0F1006",
"o  c #131203",
"O  c #1B1B04",
"+  c #151609",
"@  c #1C1C0A",
"#  c #171717",
"$  c #171917",
"%  c #1B1C16",
"&  c #171918",
"*  c #191B19",
"=  c #1E231D",
"-  c #1F291B",
";  c #232304",
":  c #2B2B03",
">  c #28280B",
",  c #383708",
"<  c #202513",
"1  c #272914",
"2  c #22231B",
"3  c #2C341B",
"4  c #333414",
"5  c #3C3D14",
"6  c #37391B",
"7  c #222521",
"8  c #252B23",
"9  c #292D26",
"0  c #272B28",
"q  c #2A2E29",
"w  c #243425",
"e  c #273927",
"r  c #2C332B",
"t  c #2D3B2C",
"y  c #31362D",
"u  c #353A28",
"i  c #2F3531",
"p  c #353B33",
"a  c #353A35",
"s  c #393E34",
"d  c #39431C",
"f  c #25432A",
"g  c #29442B",
"h  c #2B4C2C",
"j  c #36462A",
"k  c #2C542D",
"l  c #2E5B2D",
"z  c #305E2F",
"x  c #3C5E2D",
"c  c #2E4832",
"v  c #344234",
"b  c #3B4235",
"n  c #344934",
"m  c #3C433B",
"M  c #3D4B3C",
"N  c #2F5630",
"B  c #375536",
"V  c #335C32",
"C  c #3B5C3B",
"Z  c #2E622D",
"A  c #30632E",
"S  c #366A2C",
"D  c #2F6030",
"F  c #346433",
"G  c #386636",
"H  c #356A33",
"J  c #396B37",
"K  c #3B633B",
"L  c #3B6D3A",
"P  c #377136",
"I  c #397237",
"U  c #3D743B",
"Y  c #3F793C",
"T  c #49490A",
"R  c #504F09",
"E  c #565608",
"W  c #474819",
"Q  c #585916",
"!  c #676607",
"~  c #77770A",
"^  c #67671A",
"/  c #706F10",
"(  c #7A7A16",
")  c #464A27",
"_  c #4B5227",
"`  c #595A25",
"'  c #474C35",
"]  c #40473C",
"[  c #434A3D",
"{  c #495438",
"}  c #535839",
"|  c #5A642B",
" . c #5A6435",
".. c #487431",
"X. c #427A36",
"o. c #41763F",
"O. c #417A3F",
"+. c #646626",
"@. c #767726",
"#. c #656A39",
"$. c #707433",
"%. c #3E4741",
"&. c #3F5643",
"*. c #3F6840",
"=. c #414741",
"-. c #444C44",
";. c #484F44",
":. c #454D4A",
">. c #494F49",
",. c #465546",
"<. c #4B5245",
"1. c #445C44",
"2. c #4B534B",
"3. c #4C5B4C",
"4. c #535945",
"5. c #515A4C",
"6. c #4E5651",
"7. c #4E5A52",
"8. c #4E5658",
"9. c #535B54",
"0. c #545B57",
"q. c #555D59",
"w. c #436C43",
"e. c #476448",
"r. c #4A6C4B",
"t. c #5A6549",
"y. c #437441",
"u. c #437D40",
"i. c #497B46",
"p. c #4A7348",
"a. c #4D7D4A",
"s. c #4D6652",
"d. c #546355",
"f. c #566955",
"g. c #56615A",
"h. c #5B645D",
"j. c #5C6B5C",
"k. c #4F7254",
"l. c #527453",
"z. c #547857",
"x. c #646A44",
"c. c #6E754F",
"v. c #757B42",
"b. c #636D58",
"n. c #575F61",
"m. c #5C6562",
"M. c #5E6A62",
"N. c #5E6769",
"B. c #5C7563",
"V. c #626C64",
"C. c #626C6C",
"Z. c #686F6F",
"A. c #657165",
"S. c #677867",
"D. c #66736A",
"F. c #69756C",
"G. c #6B7A6C",
"H. c #666F71",
"J. c #667171",
"K. c #6A7474",
"L. c #6E7B72",
"P. c #6C7679",
"I. c #6E797A",
"U. c #717E73",
"Y. c #717B7D",
"T. c #817F18",
"R. c #48853B",
"E. c #57943C",
"W. c #7C8036",
"Q. c #448342",
"!. c #498545",
"~. c #468843",
"^. c #4B8B45",
"/. c #4C834A",
"(. c #4C8C4A",
"). c #518B48",
"_. c #4D914B",
"`. c #549448",
"'. c #4F8250",
"]. c #568855",
"[. c #569753",
"{. c #639F45",
"}. c #66A145",
"|. c #67876B",
" X c #6C8B6D",
".X c #738375",
"XX c #758A77",
"oX c #75847B",
"OX c #7A8B7C",
"+X c #7A957A",
"@X c #66A264",
"#X c #888806",
"$X c #979505",
"%X c #86851C",
"&X c #969419",
"*X c #A19E12",
"=X c #AAA907",
"-X c #B7B50A",
";X c #AAA91C",
":X c #B0AF19",
">X c #B9B71B",
",X c #888727",
"<X c #9B9A26",
"1X c #858835",
"2X c #A5A426",
"3X c #A6A82F",
"4X c #C1BF16",
"5X c #CBC808",
"6X c #D9D709",
"7X c #C6C514",
"8X c #D4D110",
"9X c #EAE806",
"0X c #F1EF05",
"qX c #F3F203",
"wX c #F8F505",
"eX c #FDFC01",
"rX c #879360",
"tX c #747E81",
"yX c #768382",
"uX c #7A8484",
"iX c #7C8B84",
"pX c #7E8B8A",
"aX c #7F9384",
"sX c #818E8C",
"dX c #829685",
"fX c #83928C",
"gX c #859491",
"hX c #889894",
"jX c #8B9B95",
"kX c #8D9C9A",
"lX c #909F9D",
"zX c #88A589",
"xX c #8AA497",
"cX c #92A19E",
"vX c #95A6A3",
"bX c #99AAA5",
"nX c #9BACA8",
"mX c #A1B1AD",
/* pixels */
"Q.Q.Q.u.Y Q.Y Y Q.Y u.Q.Y Q.Y u.u.u.*.Y Y Y *.y.k.e.*.*.*.R.*.*.~.Q.*.~.Q.*.Q.Q.Q.Q.Q.Q.Q.Q.Q.Q.Q.Q.Q.~.~.~.~.Q.~.Q.Q.~.Q.R.~.~.",
"Q.!.u.Q.Q.Q.Q.Q.Q.u.u.Y *.~.Y Q.u.Y Y Y K 1.s.k.N.M.s.p.p.*.Q.u.Q.Y Q.*.u.a.Q.Q.(._.Q.Q.Q.Q.Q.Q.Q.Q.~.~.~.~.~.~.~.~.~.Q.~.~.~.~.",
"~.~.Q.R.Q.Q.u.Q.Q.Q.Q.Q.~.*.u.u.u.Y L B &.7.m.D.yXpXoXB.s.r.u.U I P L *.s.B.gXxXaXaX|.z.'.(.(.Q.Q.Q.Q.Q.~.~.~.Q.Q.~.Q.~.~.~.Q.~.",
"~.~.~.*.~.*.u.Y *.~.Q.Y Q.u.u.Q.u.I C ,.7.g.N.K.aXgXhXpXK.z.r.*.*.*.&.&.8.tXvXnXnXvXpXyXyX|. X~.Q.Q.~.~.~.~.~.~.~.Q.~.~.E.~.~.Q.",
"Q.!.~.u.u.Y Q.Y u.u.~.*.Q.Y Q.Y I K &.2.q.j.V.Y.aXjXxXgXyXJ.N.q.8.8.:.%.8.yXlXvXvXpXpXyXP.P.B.*.Q.Q.Q.~.~.~.~.~.R.~.~.~.{.E.~.~.",
"Q.Q.Y Q.u.u.Q.Q.u.u.Q.!.Q.Q.u.Y J C :.6.h.C.L.U.pXaXhXfXyXD.C.n.8.8.8.8.C.tXuXpXyXtXyXtXP.I.I.g.Q.Q.Q.~.~._._.~.~.~._.^.{.{.~.~.",
"Q.Q.u.~.u.*.~.Q.Q.u.(.~.!.u.*.Y L 1.2.g.V.F.U.oXoXoXyXY.J.C.H.C.N.C.H.tXyXyXtXJ.H.H.C.J.K.J.P.H.s.*.~.Q.~._.[.~.~.~._._.E.`.~.~.",
"*.~.u.*.*.Q._.~.Q._.(.!.Q.u.Y H L M 2.h.C.F.L.U.L.D.B.C.Z.K.I.tXpXpXcXnXvXpXtXtXH.N.N.C.J.J.tXtXC.&.*.Y u.(.}._.~.~._.~.`._.~.~.",
"Q.u.O.i.o.i.[.)._.[.^.Q.u.*.U J F :.q.V.D.D.V.F.Z.V.m.V.V.Z.P.Y.pXkXbXmXmXbXjXpXP.N.N.H.H.tXtXgXpXH.:.3.a.).{.^.~._._.~._._.~.Q.",
"O.u.R.O.o.i.[.[.[.!.~.~.u.Y U L K 5.A.G.L.D.V.V.b.n.n.b.h.V.V.Z.yXkXbXmXmXnXbXvXpXK.N.N.P.pXkXvXlXuXn.N.OX].{.^.Q._._.~._._.Q.Q.",
"u.u.O.O.o.i.[.[./.i.u.*.U Y L K 3.V.U.OXoXU.F.V.6.6.h.h.q.h.V.V.K.pXcXbXvXbXnXbXlXpXP.K.tXpXbXnXvXpXN.H.uX].^.!.Q._.(.~._.(.~.~.",
"R.u.o.O.i.a.`.].i.u.r.k.r.*.K &.9.F..XOXOXoXU.V.0.6.0.0.n.h.q.h.h.L.fXkXjXlXbXbXvXkXpXtXtXsXcXvXlXpXm.m.L.o.u.Q.~._.(._.(.(._.~.",
"*.u.~.~.a.).'.).o.K ,.h.j.-.v :.h.G.U.U.oXU.U.V.b.0.6.0.q.q.q.q.q.M.L.pXfXjXlXbXvXvXkXyXP.yXsXgXpXN.8.n.m.k.z.[.].].(.(.~.[._.Q.",
"~.u.Q./.a.'.a.o.o.g p 2.2.%.m 6.h.C.L.L.U.L.Z.V.m.0.6.0.q.b.V.V.h.h.M.L.OXdXfXkXcXcXjXpXtXtXtXtXtXN.8.8.q.k.+XaX+X@X'.~._.[.(.u.",
"o.o.u.p.w.a.a.i.U e r a m a m 6.0.b.V.Z.G.A.V.q.n.b.h.b.V.L..XXXG.M.j.A.L.L.K.L.uXpXpXuXP.P.I.tXtXH.n.8.q.N.XXzXzXxX@X(.[.@X(.u.",
"y.w.o.w.o.p.i.o.L w r a a a m >.2.9.q.m.V.b.h.q.V.C.V.Z.L.U.OXOXG.j.3.0.6.9.6.9.m.N.K.J.H.H.I.yXyXtXtXH.N.q.B. X+X X|.[._._.!.u.",
"o.y.y.o.w.w.o...H t m m b s m :.>.6.q.h.h.g.q.h.V.V.V.A.S.F..X.XS.e.m p a a a %.%.%.6.m.C.J.tXgXhXgXpXtXK.m.s.f.l.].]./.!.Q.u.u.",
"o.y.y.y.o.o.o.o.F M 3.5.-.=.m -.6.q.V.F.F.V.g.q.d.9.2.<.5.e.e.,.v q w q 0 r i i a i %.6.m.J.yXfXkXhXuXtXP.V.s.e.p.a.y.y.y.O.o.o.",
"u.u.o.o.o.o.K G n 9.h.q.2.>.>.6.h.D..XiXrXU.b.9.2.[ [ [ v q 7 * & & * = 7 8 0 r i i a -.6.h.F.yXpXpXtXtXP.V.3.o.o.o...y.u.O.O.O.",
"O.u.O.O.o.O.L c M j.j.g.6.6.0.q.m.L.OXdXsX.XS.5.{ B u 0 2 * * # # # & & * = 7 7 0 0 i v %.>.2.q.M.H.K.tXK.4.{ t.p.o.y.u.o.O.O.u.",
"u.O.u.o.O.O.H t >.q.b.0.>.0.0.0.m.F.uXrXiX.Xb.4.a 2 2 * * * # # # # # # # # # # = 7 7 0 q r q i -.8.V.J.h.x.v.b.B.a.i.o.u.o.O.O.",
"u.O.u.u.o.Y H v >.0.0.6.0.0.0.0.g.M.K.G.G.A.d.[ 0 * * * * * # # # # # # # # # # & & * * * * 7 0 a M 6.j.4.v.v.9.iXaX|.i.o.o.o.i.",
"Q.Y u.y.y.U G p =.>.>.0.0.0.5.6.9.q.b.h.q.5.;.b 7 * * # * # # # # # # # # # # # # # # # # * * 8 y b M 5.#.x.4.9.L.jX Xy.O.O.o.O.",
"Q.u.u.u.Y U I v -.>.-.4.0.0.>.>.2.5.q.5.4.;.] s * # # # # # # # # # # # # # # # # # # & # # # 7 r y m 5.#.#.x.d.M.uXl.o.O.o.o.o.",
"Q.u.u.u.o.o...b b ] p m 0.0.>.>.2.2.2.2.>.=.] q * # # # # # # # # # # # # # # # # # # # # # # * 8 t { t.$.rX1Xc.9.g.e.y.y.u.u.u.",
"Y u.u.u.o.J ..} u b y s 2.5.>.>.2.<.2.;.;.=.y * # # # # # # * # # # # # & # & # # # # # # # # * 7 i { x.3X3X1Xx.2.-.>.l.u.Q.u.u.",
"u.u.Y Y G h { { y a i s >.>.;.>.2.4.;.-.=.y 2 # # # # # # # # * # & # & * # # & # # # # # # # * 2 r ' 1X>X1X$.x.-.=.-.3.e.y.y.u.",
"u.u.Y *.B ) { ' p i m m =.;.=.>.;.<.[ s q * # # * # # # # * * * & & * & * * # * * # & # * # # * 4 5 ^ 7X%X$.$.9.-.-.6.6.3.e.L u.",
"Y Y K C 1.}  .} s 0 =.m :.>.>.>.<.-.s q 7 * # # # * * * * * * * & & & $ * * * & # $ $ # # * 2 R E R ~ #X) 4.b.V.6.g.M.h.6.1.o.o.",
"Y U B &.{  .+.} ] q =.6.0.0.x.x.#.) ) ) 0 & * * * # # * * * * * = & = = * & * & $ # $ * 2 W ! ! > : , u { g.V.D.A.A.V.j.3.K u.o.",
"U J V &. .@.| d } } #.T.T.v.v.#.> + 1 ^ ` 6 * % # * # * * * * * & & = & & & & & # # 2 W T.$X#X: O 4 3 p ,.q.V.G.L.F.A.q.,.y.o.O.",
"I H N { | +._ - W ! 4X8X3X3X<XT.^ @ o R &X+.W 7 * * * # * * * * * & & $ = & $ $ # > , ! 5X=X#X: @ 8 y a =.6.M.D.F.D.h.9.w.u.u.u.",
"H F z V ` ^ 6 1 5 $XeXeX9X4X;X2X,X; + R ! &XT.+.6 * * & $ $ $ $ * * & = = - < O o d ~ =X-X=X! ; $ 7 i a =.:.6.V.V.h.g.d.y.u.u.u.",
"H S A n { ` u 2 4 *XeXwXwX8X4X3XT.1 . , E &X>X,X^ Q 5 4 1 4 5 4 d d Q Q R Q d O X T $X=X~ ~ > @ * = i a s -.>.q.h.q.d.f.p.Q.u.u.",
"H H A n ' _ 3 < 1 $X9X9X9X8X4X:X%X4 . ; Q T.7X4X,X5 O O , R ! #X-X-X5X5X#XR : X o E ~ / T = $ # * * 7 a -.:.6.h.V.q.q.9.p.u.Q.Q.",
"H Z A t i s u % % / >X3X<X3X2X2X&X5 . ; T T.;X7X>X^ T T ! =X6XeXeXeXwXqX$X, O o O E Q 5 = $ $ * * 7 q a ;.2.9.h.b.m.q.9.r.Q.Q.Q.",
"A Z A e q r y 9 2 ` #.x.b.c.c.v.T.W @ O , T.<X2X>X>XQ : T -X6X9XqXqX9X5X! : o X o 6 1 $ * 7 q t =.>.s.q.q.q.q.h.b.h.0.3.e.Q.Q.~.",
"S Z Z r 8 9 q y m ;.5.q.q.b.V.b.0.' 1 . W / <X<X2X:XT.@ + @ Q -X-X=XW.R : O O + & = $ = r n M 3.d.M.D.S.A.j.h.m.h.q.9.9.e.Q.Q.~.",
"H Z Z h 8 9 y ] [ <.<.5.b.h.V.m.0.m 2 # > Q @.<X2X<XT.O o > 4 ^ W.T d , 3 d d 3 - - - 8 n M 3.t.V.S.F.F.G.D.b.h.h.0.2.2.{ Q.Q.Q.",
"F Z F l 8 9 s ] -.;.<.5.5.q.h.b.6.i 7 * * 1 5 ^ <X2X,X: . @ ; ^ *X&XW.` _ W d f 3 3 3 9 n { 3.b.S.S.G..XL.D.m.q.9.5.%.%.B Q.Q.~.",
"H Z D l e r m ] [ [ <.<.4.2.0.q.0.6.=.a 0 7 w 3 | ,X<XW + o . > *X8X7X2X@.` _ ) j j 5 6 ) { 5.g.b.V.F.U.U.V.q.0.2.<.' p B Q.Q.~.",
"H A A D g t m ] b ] [ [ [ [ <.2.5.0.2.>.s r w e e _ $.( + . o . T 5XwXeX9X7X;X/ W W ) W W ) _ } } } b.A.A.g.9.9.4.} ' r y.Q.~.Q.",
"H H H A g t [ ' b v b b b b [ ;.6.9.0.2.%.%.e f e f h { 6 . . o + ! 8X0XeXeX9X~ , T R Q _ ` ` Q ) ) ) s } } 4.4.4.#.} y Q.Q.Q.Q.",
"P H H A g w b m v p y u y p b ] >.0.5.6.6.&.c f h f f h h e X   o 5 2X7X9XeXqX$XO : ; ! #X:X;X,X@.@.` 4 > > 4 ) } $.{ N Q.Q.Q.Q.",
"J H H A k w y b p r r r r y s b -.2.6.0.8.2.n h f f h f h f h f % X ` <X7X6X9X8X: o o O E =X9XqX0X0X=XR O o ; 4 ) | ) C ~.Q.u.u.",
"H S H Z z w 8 8 8 8 8 8 r y p s m 2.6.0.6.%.c N k k h N h h h h k h j  .@.<X>X7X#XO o o ; R $X6XqXeX9XT., @ o > d _ u V Y Q.u.Q.",
"P A Z l l k w = 2 w 9 r y p b p a [ 6.:.%.%.N N N N l l N N k k k h k k V B | @.,XW @ . o o , ! =X8X9X-XE : ; 1 3 3 u V Y y.u.u.",
"P H Z l l l h w 2 w t u s ] [ ] y p s v v n z N l l N N N k N k k k k k N k V N N { ) 2 O O . ; Q &X>X>XT.W 6 4 6 ) j K Y u.u.i.",
"P S S A l l l h f f f j n s [ [ b y y r r N l V F G F D V z V z N k l l k k k k h N ' b s ) 3 O 6 $.T.1X1X+.) u ) ' C y.y.u.u.u.",
"U P R.S Z l l l k k k f u p ] [ ] v y 9 r A z F G J J J G F D V V l V l z l l k h h h b [ ;.;.' } x.A.c.x.#.<.s y s J I Y y.u.u.",
"R.I R.S Z Z l l l l k w 9 r p b p r w e l F H F J L J J G G F V F V A V A z z h h g f f y m [ 3.L.pXdXrXXXS.q.:.1.L J L Y y.u.i.",
"X.I R.Z Z l l A l l l k w 9 9 9 8 8 e Z S H H H J I K J G G G F V F V F p.l.*.k h f f e e b M f..XrXfXkXdX+Xf.w.o.J L Y Y u.u.u.",
"R.X.E.H Z Z Z F l l l l z g p g h Z Z Z A H P P U L U U U L J G F F *.S.oXOXG.k.V h h g h S x t.|..XXXOXXXz.K Y U Y Y y.*.u.Q.u.",
"Q.Q.E.P H Z F H S z l A z [ 2.V H H H Z H J U U Y y.Y Y Y U ..J G F z.|.XXXXG.M.e.V N V P k f h B C N B C F L U U U u.o.o.u.u.Q.",
"Q.R.{.Y I P H Y X.S A H B [ g.f.Y Y Y Y Y Y *.R.*.Y O.Y U L o.L J G r.S..XD.h.q.e.F x G D k k l h k k N z F L U U y.Y o.y.u.u.!.",
"Q.Y ^.Q.Y Y Y R.E.X.H H K 1.s.r.Y Q.Q.~.*.'.!.O.Q.Y Y o.o.U U L L H F K 3.<.=.;.K J J J A Z Z Z z F H H I U U U y.f.j.l.y.u.u.u.",
"Y Q.~.u.*.R.R.).}.R.Y I Y Y y.u.u.u.u.a.oXaXdX|.O.O.O.Y y.U U I L H z k c a n C P P I P P I P Y I P H P U I *.u.s.M.j.f.u.Q.u.i.",
"Q.Q.Q.u.~.O.O.`.}.`.u.Q.O.u.i.Q.Q.Q.i.].aXfXfXaXi.O.O.O.Y Y U U *.U J G F F J L P P Y Y Y u.Y Y Q.Y U P I U Q.Y e.3.7.w.u.u.u.Q.",
"Q.u.Q.u.Q.Y O.).}.^.R.Q.i./.+X@X'.p.s.N..XaXaXiXl.R.o.o.Y Y Y Y u.Y I L U Y *.Y Y Y Y Y Y Y Q.Q.Y Y Y Y Y *.Q.I F F G u.u.u.Q.u.",
"Q.Q.R.*.u.o.O.Q.).~.Q.Q.u.i./.].Q.e.8.q.m.F.L.D.s.y.o.o.Y Y Y Y *.Q.Y U Y *.U Y Y Y Y Y ~.Y Q.Y *.R.Q.~.*.Q.*.Y I U *.Q.Q.u.Q.u.",
"u.Y u.u.Y Y Q.Q.u.Q.Q.Q.Q.!.Q.Y H %.%.&.:.:.,.,.e.u.u.Y Q.Y Y Y Y Y Y Y Y Q.Y Y Q.Y Q.Q.Q.Q.Q.Q.~.Y u.u.u.R.*.Y u.u.u.u.u.u.u.Q.",
"Q.Q.Q.Q.Q.Q.u.Q.Q.Q.~.~.Q.Q.*.I H h t i v n &.C K *.Y Q.Y Q.*.~.Y Q.Q.*.*.u.~.*.*.u.Y Q.Q.u.Q.u.Q.Q.u.u.o.Q.~.Q.u.u.u.u.i.Q.R.i.",
"Q.Q.Q.Q.Y Q.Q.Q.Q.~.~.Q.Q.~.~.Y U P H H *.U u.Q.~.*.Q.u.Y Q.Y Q.*.~.u.u.*.Y Q.Y u.u.u.Q.u.Q.Q.Q.Q.u.u.u.Q.O.Q.u.u.u.Q.u.u.u.u.i.",
"Q.~.Q.Q.Q.Q.Q.Q.Q.Q.Q.Q.~.Q.Q.Q.u.Q.u.Q.u.u.Q.Q.R.Q.Q.Q.Q.Q.u.Q.Y Q.u.u.R.Q.~.*.u.u.u.Q.Q.Q.u.Q.Q.Y Q.Q.u.O.Q.Q.u.u.u.u.u.u.u.Q."
};
