/* XPM */
static char *result[] = {
/* columns rows colors chars-per-pixel */
"64 64 55 1 ",
"  c #3E6B3D",
". c #3F753F",
"X c #416F3E",
"o c #40763F",
"O c #41793F",
"+ c #446D40",
"@ c #4B6B47",
"# c #4C6E4A",
"$ c #516D4E",
"% c #447541",
"& c #497444",
"* c #427C40",
"= c #497C46",
"- c #4C764B",
"; c #4D7D4A",
": c #52794F",
"> c #526E50",
", c #577654",
"< c #5B7659",
"1 c #448242",
"2 c #498446",
"3 c #468843",
"4 c #498A46",
"5 c #4C8549",
"6 c #4C8B4A",
"7 c #51834C",
"8 c #518D4E",
"9 c #4D914B",
"0 c #51934E",
"q c #548453",
"w c #548D53",
"e c #598158",
"r c #598859",
"t c #549552",
"y c #599057",
"u c #569852",
"i c #5D925D",
"p c #658462",
"a c #638C63",
"s c #6D8A6D",
"d c #70856F",
"f c #639465",
"g c #689768",
"h c #6D9B6D",
"j c #738C72",
"k c #729773",
"l c #7B9B7D",
"z c #6FA06E",
"x c #77A677",
"c c #808C7E",
"v c #7EA280",
"b c #8AA88A",
"n c #91AE91",
"m c #9BB29C",
"M c #A7BCA7",
/* pixels */
"111111*1*1O1O1OO*****O%.%.+.OooOOOOO1O*1O11113111113333331313313",
"131**1*11*1OOOO1*****.*%....ooO=O1O=OO*2O11111111133333313311111",
"331***1111*1OOO1***%.o**%%%.Oo*OOO*O*O22111148811113333333131131",
"23111OOO***O1O11***...%*....OOOOO**Oo**21113ixh31113333331311111",
"1111.11O1..111O1***%ooo**..O.OOO**OO****O1116y811113333133333111",
"11111.1O111311OO***%oooO%.OOOOOOOOOo*o**11111OOO1131333133933111",
"***..O11.144111O**...oo.O*%.OOOooOO*OOoO111OOOO1*O11133113933311",
"1*.1OO6319431*..***.% o..*...ooOOooo*oO*OOOOOO111OO1133334934311",
"1*1OO=009042*%.%*%O.oo....oo.o.OOOOOO*O.O1OOooO12=o111111493431O",
"1*O=o20yt622*oo**O*.oo..ooooo.O%oOOoOO.OOOOOooOO32o=OO1134949321",
"**OOo=uu52**%%***%%*o.%.oooOOooooOOOOOOo.O.OOoOO=61*1OO129696211",
"**OO&;w852**o%**.*O..o..o.ooooOOOoOOOOOoO.O..o.oO26*2OO149466412",
"**33;575=***.o**O.O.O...OOOOoOooOOo**oooO..oooooO10425qyy8662211",
"1*12;77;=***o**%..**OoOO1OoooooOooo****oOOooO.o.O=60wfkclf74662O",
"O&O&@57=2**O*O*%.%%-*%o22*oOoo.oo%oO%OOo.ooo..ooo*2yajccbbg6841O",
"oXoX+&;=**OO%%...X +**.22OoO.%ooooOo..oooOoooO.oXX=e<paddsau6221",
"X&X&X&&=***oO*OooooOOO*2**%OO..o...o%oo.ooooOOOXX+=:$$$$,er51O11",
"OoXoX&oOo**%*OOOoooOOOOO*O..ooo..%..oooooooOOO.ooX=7-&#@-;&oO11O",
"OOOOOOOOO***OOoOOoOOOOOOOO....o.o.o.oO.ooooo1Ooooo*%=:-ooooOO11O",
"O=OOOOOO**OOoOOOO*OOOOOOOOO%oO.*o.o.ooo.oooOOOoooooooOooooo=O1O1",
"OOO1=O1OOOO*OOOOO..*O*..oOooO.ooOo%.ooo.ooXXooooooo.OooOOOOOOOO2",
"11OOOOOO1OOOOOO*O**.OO*.Oooo.O.oo...ooo%oXXoXXXoooo.OOOOOXOOO=OO",
"1OOOOOOOOOOOOO.*OO***.1.*oO.O.OOoO..oo%ooooXXoXoooooOOOOOOOOXOOO",
"1OO=oOO=O1OO*O.O*..*..1.**oO.OoOOO.OoooooooooOoooooo.OOOOOOOOOOO",
"1O1O*****%***OOOO*OOOOOO**OOoO...o..o%..ooooOoooOOOOOOO1OOOOXOOO",
"1OOO***=*OO**OOOO..OOOOOOOOOo..O.Oo.o..OOooooOooOOOOOOO=OOOOO77O",
"O11O**11O.OOOO*.O.*OOOOOOOOO.oo.oO..O.OOoooooOooOOOOOOOOOOOOOOOO",
"1O1O***=*o**O*O*OOOOOO.OOOO.Oo..O.O*OooooOooOooOoOOOOOOOO;OOOOOO",
"OO***O****OO.1*.*OOOOOOOOOoo.O.OO..*oo%.ooOOOOOOOOOOO11OOOOOOOOO",
"1O**OO1O%*1...OOOOOOOOOOOOOOO.O.oO..O...OoOoOOOOOOO11=1OOOOOOOOO",
"O**OO**OO*OO**.OOOOOOOOOOOOOOooOOOooo.O.oOoOOOOOOOO1=3=OOOO1=OOO",
"*1*OO**OO*...OOOOOOOOOOOOOOOoOOOOOO.oO.OoOooOOOOOOO13311=OO1=OOO",
"OO1OOOOOOOOOOO.OOOOOOOOOOOOOOOOOOOO.%..Ooo.oOOOOOO**31OO1O1O11OO",
"11OOOOOOOO.OOO..OOOOOOOOOOOOOOOOOOO..OOOOOOOOOoOOO**11OO1OOOO1O1",
"1OOOOOOOO..OO.OOOOOOO1OOOOOOOOOOOOOoOoOOOOOOOOOO*.O*O1O1OOOOO111",
"O11OOO.OO..OOOOO.OOOO1OOOOOOOOOOOoOOOOOOOOOOOOOO****111111113131",
"OOOOOOOOO.OOO.OOOOOOOO1OOOOOOOOOOO.OOOOOOOOOOOOO.*O111111O113313",
"1OOO.O.OO.O.O.OOOOOOOOOOOOOOOOOO**OOOOOOOOO*OO*O.11OO1O111O31131",
"OOOOOOO....OOO.OOOOOO1OOOOOOOOO3*.OOOOO*O*OOO=***O11111OO11O1111",
"O1OO..OO.OOOOOOOOOO1OOOOOOOOOOOO.*OOO.*OOOOOO11***OO11111OOO1131",
"3OOOOOO..OOOOOOOOOOOOOOOOOOOOOOO*.*..*OOO1.OO31*1OOO1OO311O11311",
"OOOOOO.O.OOOOOOOOO1OOOOOOOOOOOOO*****O*OOOO1122*OO113311O11O1111",
"311O.OO...OOOOOO1O1OOOOOOOOOOOOOOO.*OOO*O11O134OO113311O11311111",
"O11OOO.OOOOOOOOOOOOOOOOOOOOOOOOOOO.OOOOOOO.114411133313O13311O11",
"O111OOOOOOO.OOOOOO3OOOOOOOOOOOOOOOO.*O.OOOO113931333113133311111",
"OO1OOOOOOOOO.OOOOOOOOOOOOOOOOO..O.O*OOOOOOOO1304O33131O333111O11",
"11OO.OO...O.OOOOO3OOOOOOOOOOOOO.O*..OOOOOOOO14093933113133111111",
"1OO..O.O.O.O.OOOOOOOO3OOOOOOOOOO..OO.OOO...OO4003933O1133311O11O",
"O11OOOO.O.O..OOOOOO3OOOOOOOOOOO.XOXOOOOOOOOOO400909*qii88411**1*",
"3O1OOOOOOO...OO*3OOOOOOOOOOOOO.OOOOOOOOOO507==8u993.kmMnh2*112*2",
"11111OOO.O..O.**OOOO3OOOOOOOO.O.OOOOOOOOOO785228664.pjvvk2*=1*2*",
"3O11OO1OO.O.OO1OO3O3O33OOOOOO.OOXOOOOOOOXOO27221242;#>>>-1*112*1",
"111OOO13OOO.O*11O3OO111OOOOOOOOOOOOOOO=O:OO:33OO*111.%**OO=1*11*",
"1O11OOO31OOOO*OOO33OOOOOOO3OOO3OOOOOOOO1OOXOOOO11*11****O1O12**2",
"1O1O1OO31O.O.1111OO11OOOOOOOOOOOOOOOOOO=OOOOOOOO111.****11O11*11",
"11111O131O11OO1OO3O1O11OOO3OOOOOOOOOOOO=OOO71O3O*1*11***OO1=111=",
"11O1*1*13111OOO11OOO111OO1O1O*O.O7OOO&OOO111O11111111OO111O112O2",
"111O1**1311111111111111OOOOO**O*O2=OOOOOO111111311O=O1==O=122OO1",
"11O1OOO1O131O7hz33O11O1111O11OO122OOOO=OO11111131O1OO11111OOO121",
"11O*OO.11111=O;83111111O1OOO1O**OOOO=OOOOO111311O1OO1O=OO12122O1",
"1OO1OO1O1113122111O13O3OOOO1***OO11OO1OOO1O11111OO1OO1111O111=11",
"O11111111131311O1111O3O11OOO**1*OOOOOOO1OO1O11113OO1O11O111=O2O1",
"11111*111331313OO11131O1111O*11O1OOO=OOOO1O111111O11O1O1O21O11=3",
"3111111113131111111111111O1311*11O1OOOO1O11111111O1*1112O1111=O1"
};
