/* XPM */
static char *result[] = {
/* columns rows colors chars-per-pixel */
"64 64 201 2 ",
"   c #1B0E08",
".  c #18140C",
"X  c #1D1E12",
"o  c #250A07",
"O  c #240E0A",
"+  c #2C0E0A",
"@  c #340E0C",
"#  c #23120C",
"$  c #2B120B",
"%  c #24190F",
"&  c #34120E",
"*  c #3C110F",
"=  c #221D11",
"-  c #2C1A12",
";  c #3C1611",
":  c #361A13",
">  c #3A1C14",
",  c #0E2312",
"<  c #132514",
"1  c #1C2313",
"2  c #122A16",
"3  c #152E18",
"4  c #1F2C18",
"5  c #16311A",
"6  c #1A351C",
"7  c #1C3A1E",
"8  c #232314",
"9  c #2F2316",
"0  c #232917",
"q  c #232C19",
"w  c #332316",
"e  c #392215",
"r  c #392F1C",
"t  c #23321C",
"y  c #2B341D",
"u  c #22391E",
"i  c #38311C",
"p  c #1C3D21",
"a  c #223E20",
"s  c #2C3C21",
"d  c #343A21",
"f  c #3B3B23",
"g  c #430F0C",
"h  c #520E0A",
"j  c #43110D",
"k  c #57140F",
"l  c #461411",
"z  c #4C1511",
"x  c #491D18",
"c  c #521311",
"v  c #581711",
"b  c #760E0B",
"n  c #66110E",
"m  c #6C100D",
"M  c #76130E",
"N  c #641311",
"B  c #6B1310",
"V  c #691815",
"C  c #721A16",
"Z  c #572416",
"A  c #4B3924",
"S  c #693827",
"D  c #783526",
"F  c #18431E",
"G  c #1F4322",
"H  c #1D5627",
"J  c #224323",
"K  c #2C4325",
"L  c #254B26",
"P  c #2E4926",
"I  c #264C28",
"U  c #2A4D2A",
"Y  c #334425",
"T  c #364B29",
"R  c #3C4829",
"E  c #265029",
"W  c #2C542C",
"Q  c #2E5A2E",
"!  c #32522C",
"~  c #3F552F",
"^  c #325B2E",
"/  c #2F5B30",
"(  c #335730",
")  c #325D31",
"_  c #3B5D33",
"`  c #395B38",
"'  c #26612E",
"]  c #346334",
"[  c #3A6536",
"{  c #346936",
"}  c #386937",
"|  c #376638",
" . c #3B663A",
".. c #376939",
"X. c #3D6D3C",
"o. c #337739",
"O. c #3F723E",
"+. c #444C2D",
"@. c #43522F",
"#. c #5E562F",
"$. c #425D34",
"%. c #5E5A32",
"&. c #65462E",
"*. c #615D3A",
"=. c #456136",
"-. c #4E6737",
";. c #41663D",
":. c #416C3E",
">. c #4B6A3B",
",. c #41753F",
"<. c #427A3F",
"1. c #3F7440",
"2. c #436642",
"3. c #446E40",
"4. c #4C6A4A",
"5. c #437640",
"6. c #497544",
"7. c #437C40",
"8. c #497C46",
"9. c #4C734C",
"0. c #4C7C49",
"q. c #51754F",
"w. c #507B4E",
"e. c #536C51",
"r. c #5A7957",
"t. c #687A66",
"y. c #870B08",
"u. c #930B08",
"i. c #81140F",
"p. c #94120F",
"a. c #9F100C",
"s. c #901612",
"d. c #AC0E0A",
"f. c #AC130E",
"g. c #B9120D",
"h. c #A21412",
"j. c #B6221E",
"k. c #9A2925",
"l. c #A92D24",
"z. c #B72925",
"x. c #A3372B",
"c. c #B53633",
"v. c #C7110C",
"b. c #D9150F",
"n. c #D71914",
"m. c #CA241E",
"M. c #D4211A",
"N. c #EA251E",
"B. c #C72824",
"V. c #D92D27",
"C. c #C3302D",
"Z. c #CA3936",
"A. c #D43D39",
"S. c #E22721",
"D. c #9D4C3E",
"F. c #8E543B",
"G. c #9B503E",
"H. c #B44036",
"J. c #D1433F",
"K. c #A85546",
"L. c #CC4A46",
"P. c #D44B48",
"I. c #D6524E",
"U. c #CC5D54",
"Y. c #D95754",
"T. c #E54943",
"R. c #EE5850",
"E. c #CE706E",
"W. c #E16663",
"Q. c #3E8242",
"!. c #448242",
"~. c #498446",
"^. c #468843",
"/. c #498A46",
"(. c #478248",
"). c #4C8549",
"_. c #4C8B4A",
"`. c #51834C",
"'. c #518C4E",
"]. c #4D914B",
"[. c #51934F",
"{. c #568355",
"}. c #548C53",
"|. c #598C59",
" X c #559552",
".X c #569B53",
"XX c #599B55",
"oX c #5F935D",
"OX c #58A156",
"+X c #678A66",
"@X c #659266",
"#X c #699768",
"$X c #778976",
"%X c #779176",
"&X c #779B78",
"*X c #6FA06F",
"=X c #76A577",
"-X c #839B84",
";X c #88A589",
":X c #92AE92",
">X c #A7BBA7",
/* pixels */
"!.!.!.!.!.<.!.7.7.!.<.!.Q.<.<.!.<.!.O.<.<.<.5.O.1.O.O.5.<.,.,.8.<.<.7.7.<.7.7.7.7.7.!.!.^.!.!.!.!.!.^.^.^.^.^.^.!.^.^.^.!.^.^.^.",
"!.^.!.7.Q.!.7.!.!.7.<.!.<.<.<.<.7.7.!.Q.,.<.7.5.O.5.1.O.,.<.7.7.<.<.<.7.7.<.7.^.7.Q.!.!.!.!.!.!.!.!.Q.^.^.^.^.^.!.^.!.^.^.^.^.Q.",
"~./.!.Q.!.<.<.!.!.!.7.<.<.<.!.7.7.7.7.5.,.,.7.7.5.7.<.O.<.,.7.<.<.<.7.7.7.7.!.).!.!.^.!./. X'.!.!.!.^./.^.^.^.^.^.^.!.!.Q.^.^.^.",
"!.~.!.Q.<.Q.<.!.7.7.Q.<.<.Q.!.!.7.7.7.1.,.O.7.8.5.O.O.7.,.,.<.,.<.7.7.O.5.7.7.(.!.!.!.~.oX=X*X!.!.!.!.^.^.^.^.^.^.Q.^.!.^.Q.^.^.",
"!.!.!.<.!.<.!.<.<.Q.<.!.<.7.!.7.7.7.7.5.O.1.5.7.O.O.O.,.<.,.,.<.<.7.,.,.5.7.7.7.O.^.!.!.'.}.'.!.!.!.!.^.^./.^.^.^.^.^.^.^.^.^.^.",
"!.!.Q.<.!.<.!.<.<.<.!.!.^.7.7.7.7.7.7.1.5.O.5.,.O.7.<.5.,.<.<.<.<.,.<.5.7.1.7.7.!.!.!.Q.<.!.<.<.!.!.!.!.^.^.!.^.^.^.].^.^.^.^.^.",
"!.!.<.!.<.<.!.<.!.!././.^.!.7.<.7.8.O.,.O.O.5.O.7.7.5.5.5.5.O.,.,.,.7.7.<.,.O.7.<.!.!.<.7.<.7.8.1.!.Q.!.!./.^.^.^.^.].^././.^.^.",
"Q.<.<.<.,.<._.~.!.[.].^.7.7.O.<.7.7.7.1.,.1.O.1.O.,.,.X.O.O.O.7.,.<.O.O.5.<.O.7.7.7.<.<.,.7.<.~.!.7.<.!.!.!.^.!.^.^.].^.].^.^.^.",
"Q.!.7.<.<.8.[.].[.[._.!.<.<.,.,.7.,.,.,.,.O.O.O.O.O.,.X.O.3.1.O.,.5.,.,.,.7.,.O.<.7.7.,.,.,.<.<.~.8.<.!.!.!.!.!.^.^.].^.].].^.!.",
"<.<.7.7.,.!. X X}./.^.!.8.,.,.7.8.<.<.,.,.,.1.3.X.O.:.,.O.X.O.,.,.O.,.,.<.,.O.5.O.7.,.,.,.,.<.<.~.~.,.8.7.<.!.7.^./.]./.]./.^.!.",
"Q.<.<.<.>.~.XXXX`.).!.8.<.O.<.8.7.,.7.,.,.X.5.X.,.:.O.,.,.X.3.1.O.,.,.,.<.,.1.O.,.O.,.,.,.,.,.,.!._.!.7.7.<.<.!.^.]./.].]._.^.^.",
"!.<.<.<.6.).'.'.).!.<.<.,.O.8.<.,.,.,.,.O.1.X.5.O.5.O.1.5.:.X.5.5.,.1.,.,.5.O.1.,.,.,.O.O.,.,.,.7._._.7.~.<.<.7.^.].]./._./.].^.",
"<.<.^._.).`.`.`.8.!.7.7.,.O.<.<.5.O.1.,.,.1.1.1.7.5.5.O.1.X.:.X.X.5.X.5.1.5.X.5.O.,.,.,.O.,.,.O.8.~.[./._.0.`.{.}.'.]././.[.].!.",
"!.<.8./.0.`.`.8.8.7.7.,.,.8.7.O.5.X.,.5.,.1.1.1.(.5.X.1.1.3.1.1.X.1.1.5.7.5.1.3.O.:.:.X.O.:.,.O.O.<._. X|.@X&X;X=X#X`.~.].XX_.<.",
"<.,.,.6.6.w.w.(.8.7.7.7.,.7.7.,.1.2.1.9.6.O.1.(._.5.X.3.1.X.1. .X.2.X.1.1.5.1.X.X.X.:.,.O.O.,.,.,.6._.oX+X$X-X-X;X:X#X[..XOX].<.",
",.6.,.:.:.6.0.8.!.<.7.5.5.,.1.O.2.1.` 2.6.X.1.).).5.X.1.2.` 1.1.X.1.5.X.1.X.X.1.,.,.,.X.O.,.X.:.:.:.w.r.r.t.t.$X$X$X+X X[.[.^.<.",
",.3.:.>.5.5.6.8.7.7.7.,.5.7.<.O.O.O.X.O.,.O.O.^.8.,.,.,.X.X.1. .1. .X.1.X.2.1. .X.1.1.X.O.3.,.X.;.;.0.r.e.e.e.e.r.r.{.).~.!.8.<.",
",.6.,.6.3.6.,.,.5.7.,.7.<.,.<.O.O.X.X._ f i O.O.,.,.:.O.:.X.1.1.1.1.X.X.X.X.1.1.3.X.X.3.5.5.,.,.:.:.0.`.q.4.4.4.9.0.3.5.<.<.<.<.",
"<.7.<.<.<.<.<.7.O.7.7.7.5.,.,.O.O.X.} ^ > x O.O.,.:.:.X. .] |  .`  .X. . .X.1. .X.X.X.5.~.5.,.:.O.O.<.6.8.0.0.5.,.5.,.,.<.<.<.<.",
"<.<.<.<.,.7.7.<.5.7.<.7.,.,.,.O.O.O.} P o l +._ ,. .X.| Q / | .. .| { { | .. .1.X.X. .1.8.5.O.O.O.O.O.O.,.5.5.,.<.<.5.7.<.<.<.<.",
"<.<.7.<.7.7.7.<.5.<.7.7.,.,.,.,.X.O.X.^ % # & l r d  .W ' { o.o.Q.Q.o./ U U /  .X.:.;. .3.3.1.X.O.O.,.O.,.,.,.,.<.,.<.,.<.,.<.<.",
"!.!.O.7.7.<.5.7.7.<.5.O.,.<.7.7.O.X.O.] a 3 1 1 A > ! J E ' ' H H G 6 5 J ( $.=.:.;.;.;. .;.X.2.X.,.,.O.,.,.,.7.,.<.,.<.<.<.,.<.",
"Q.<.7.<.<.5.5.<.<.7.,.,.,.<.<.O.O.O.O.] W L 6 6 +.; 8 5 E F G J p 2 5 I ~ S x.H.D.*.;.;.:.;.:.X.,.,.,.,.,.<.,.5.<.,.<.,.<.,.<.<.",
"<.Q.7.7.,.5.7.7.<.<.6.7.,.,.1.O.O.O.O.] W Q E ] 1 & . 2 5 2 5 < , 6 E ` Z f.Z.I.Y.U.*.1.X.,.O.O.:.O.O.,.,.,.<.<.<.<.,.<.,.,.,.<.",
"!.<.<.<.7.7.7.7.7.5.7.5.5.O.O.O.O.O.X.Q ) ] ' J < # . - < < , , 2 E  .f h v.M.A.Z.P.K.:.,.,.:.,.,.O.O.,.O.O.7.7.7.<.,.<.<.<.<.8.",
"Q.<.<.!.7.7.7.8.1.7.7.1.<.5.1.O.O.O.{ Q ^ J 7 3 , 0   # : = u p P ( _ 9 n v.b.B.d.B.l.-.,.:.O.:.,.O.7.O.1.7.5.1.<.<.7.,.6.!.!.<.",
"<.Q.<.<.7.7.!.8.7.O.5.5.<.,.O.O.O.O.^ K A S S A q U J 1 > + q 3 p U Y w m h.f.u.y.u.l.>.:.,.,.,.,.O.O.<.7.5.5.5.7.7.,.<.<.<.<.<.",
"!.<.<.!.7.7.7.7.7.O.7.1.<.<.<.O.O.:.d M d.z.C.L.D.@.W t & @ 4 I E U X 9 j V C B n m D :.,.:.:.,.O.<.7.7.7.7.7.7.<.7.,.<.,.<.<.<.",
"<.<.<.!.<.<.8.7.7.7.7.,.O.7.O.O.O.@.v a.v.m.I.I.I.K.~ o O @ = 6 L I G y : c * ; ; ; +.X.X.,.O.,.5.7.7.7.7.!.8.7.<.<.<.,.,.<.<.<.",
"!.<.7.<.7.7.7.5.5.5.7.O.1.O.O.X.[ e m f.M.S.R.I.I.P.&.: + O $ 9 3 6 G , s w : & 9 f [ X.,.,.,.,.O.7.<.7.7.^.!.7.<.<.<.<.,.<.,.<.",
"<.<.<.<.<.7.<.7.5.7.5.<.<.O.} ] T * M f.j.V.N.T.J.L.D - 8 1 O > P 2 2 , 6 T Y P ! ] X.X.O.,.,.<.,.,.7.7.~.).<.8.<.7.<.Q.<.<.<.<.",
"Q.!.<.<.5.7.7.,.O.7.O.O.O.O.] Q T & N p.h.m.n.b.V.C.D s P a . : T ] J 2 W W U ^ ]  .X.X.X.O.,.7.O.,.7.7././.7.7.<.7.<.<.!.8.<.<.",
"<.!.<.<.,.8.<.<.O.<.<.O.O.} ) Q s & c V i.p.g.v.v.j.S Q W U X + e Y ( p I J a J J /  .O.O.5.<.,.,.,.<.!.^.^.<.8.<.<.<.<.Q.<.<.Q.",
"Q.<.Q.<.,.<.,.,.<.,.O.O.O.X.) Q u . g c v n i.p.s.C R ] ^ W 6 o x x f T p I U J 5 G ] 3.O.O.,.,.1.<.7.7.!.Q.<.<.Q.<.<.<.!.!.<.<.",
"<.!.<.<.<.<.7.,.O.O.O.<.O.} ) Q Q P # @ ; l k h g w ^ X.[ Q J s w ; > > 0 I p 6 p U [ O.5.5.O.,.O.,.5.7.7.!.!.!.<.<.Q.<.7.!.!.!.",
"!.<.<.<.<.,.,.<.<.,.,.O.O.X.{ Q Q ^ P 8 & @ * & 9 T O.O.} U G # = 1 % > > q Y _ } X.X.O.O.O.1.,.<.<.<.7.7.7.!.!.!.<.!.!.!.!.^.!.",
"<.<.7.<.<.,.<.,.,.O.,.O.O.X.X.] ] ^ ) ) T Y d P ) X.O.X./ ] / 6 < 2 < $ g C G.F.%.,.O.<.,.,.O.<.O.7.!.Q.Q.<.Q.!.!.<.!.<.^.!.^.^.",
"<.<.<.7.,.<.6.,.,.,.O.,.O.O.X.X.} ] ] ] ] { } } O.O.X./ { { / W 7 3 2 e k.Y.Y.W.H.#.,.O.,.,.7.,.<.<.<.7.Q.!.<.!.<.Q.!.!.!.^.^.!.",
"<.<.<.<.,.,.5.,.,.O.,.,.<.,.O.O.,.O.,.O.O.O.O.O.,.{ / ] { { Q W 3 2 2 v z.z.z.E.L.F.>.5.O.7.7.8.<.<.7.7.<.!.!.!.!.Q.!.Q.!.!.!.^.",
"<.<.<.<.,.,.,.,.,.,.,.,.1.O.O.5.,.<.<.<.<.,.,.,.X./ Q / O.W L 2 2 2 0 v b i.y.k.c.x.-.O.7.~.!.7.,.7.7.<.!.!.!.!.!.<.<.<.Q.!.!.!.",
"Q.<.<.,.,.<.,.,.1.O.7.7.,.O.,.O.,.,.<.<.,.O.O.,.} Q Q [ E G 2 5 7 7 u ; k N m m b i.>.7.7.(.).7.<.7.7.7.!.!.!.!.!.Q.!.!.!.!.!.!.",
"<.<.8.<.,.,.,.,.O.5.5.7.5.5.7.O.<.,.<.<.,.O.O.,.X.W Q Q G 5 7 G I Q ! 1 @ l l z c A >.7.(._.(.7.<.7.!.^.^.!.!.7.<.!.<.!.!.!.^.<.",
"!.!.!.7.,.,.<.,.O.O.7.7.5.O.1.O.,.<.<.,.,.X.,.,.] W ^ G p J U Q ^ Q Q a X # O # X [ 7.!.!.]._.7.<.7.^.^.^.!.!.!.!.!.^.!.!.!.!.!.",
"Q.<.!.7.<.<.,.,.1.5.5.7.5.1.O.7.,.<.<.<.O.O.O.O.^ E E W ^ ^ / ) ) Q Q W P u t u ! X.<.<.!._.[.^.!.!.^.^.!.^.!.!.!.!.^.!.!.!.!.!.",
"!.<.8.8.<.,.<.,.,.<.,.O.1.O.,.,.,.,.<.,.O.O.<.O.] E ^ ] ) ] | { } { ] ) ) ] ] [ O.,.,.<.!.]..X/.!.^./.^.!.^.!.!.!.~.^.!.!.!.!.<.",
"<.<.!.7.,.<.<.,.,.<.5.O.O.<.O.,.<.<.<.,.,.O.O.} { ) ] } ..{  . .} X.X.{ X.X.O.O.,.,.<.<.^.'.OX].!.^.].^.!.!.!.^.^.^.!.!.!.<.!.!.",
"!.<.<.<.,.<.<.,.,.,.<.1.1.<.,.7.<.<.,.,.,.,.O.o.} } X.X.....X.{ X.O.X.O.O.O.O.O.,.,.,.,.8._.OX[.^.[.].!.!.!.!.^.^.^.^.!.!.<.!.<.",
"!.Q.<.<.,.,.,.,.,.7.O.O.<.O.,.,.<.,.<.<.<.,.,.,.X.X.O.X.,.X.X.X.X.X.X.O.O.O.O.O.,.:.:.:.8._.XX.X]..X].!.<.!.!.^././.!.!.8.!.!.!.",
"!.Q.!.<.<.<.<.,.,.,.,.,.,.,.,.,.<.<.<.<.<.<.,.:.:.,.,.,.,.O.O. .| X.O.1.:.5.,.:.:.7.8.>.<.].XXXX[..X_.<.`.oXoX}.[._.!.8.!.<.!.!.",
"!.<.!.<.!.<.,.<.,.<.,.,.,.,.8.,.<.<.<.<.!.<.<.,.<.,.,.,.,.O.1.O.X.X.,.,.,.,.,.,.6.'.XX'.6.`. XXX.X[.!.6.%X>X>X:X#X~.7.!.!.!.8.!.",
"!.!.!.7.<.<.<.<.<.,.,.,.,.,.<.<.!.o.<.<.<.!.!.<.,.,.,.,.,.O.O.X.1.X.,.O.,.,.,.,.6.8.}.}.`.`.`.[.[._./.6.+X$X$X%XoX!.!.!.8.!.!.!.",
"!.!.!.7.<.<.8.!.,.,.,.,.<.<.<.<.<.<.!.Q.!.!.<.<.O.,.,.,.O.O.O.,.1.5.<.,.5.,.,.,.:.3.6.w.'./.~.`.!.~.).8.6.w.w.0.8.7.!.8.!.!.!.<.",
"^.!.!.<.o.<.<.`.7.<.,.,.,.<.7.!.<.!.!.!.<.!.<.<.<.,.o.<.<.<.<.,.1.O.,.,.,.,.<.,.8.6.7.0._.~.6.<.8.!.~.7.8.8.!.8.~.<.!.<.!.!.!.~.",
"!.!.!.<.<.!.<.!.7.,.<.<.7.7.<.<.<.!.Q.<.^.<.<.<.,.<.<.!.<.<.>.,.O.5.,.<.<.,.<.8.<.:.:.6.>.<.<.8.7.!.!.7.Q.<.<.!.!.!.!.~.<.!.!.<.",
"!.Q.!.!.<.!.!.^.0.<.<.<.<.<.!.Q.!.Q.<.<.<.<.o.<.<.<.<.<.<.<.<.<.,.5.7.,.,.<.7.<.<.,.,.7.<.<.!.<.!.!.!.!.!.!.!.!.<.~.<.!.!.~.~.<.",
"!.<.<.Q.<.<.!.^.!.<.Q.!.<.<.Q.<.<.!.!.<.^.<.!.<.<.<.<.<.<.<.<.,.7.8.7.,.<.,.8.7.<.<.<.8.!.<.!.!.!.7.!.8.<.!.8.!.<.!.!.~.<.<.!.!.",
"7.!.7.7.<.!.<.!./.8.Q.!.Q.<.<.<.<.<.<.<.^.^.!.<.<.<.!.<.<.<.<.<.7.!.7.5.5.7.5.7.<.7.!.!.!.!.!.!.!.<.!.!.<.!.!.8.8.^.<.!.!.!.!.<.",
"^.^.7.7.7.<.!.!.^.!.!.!.<.!.!.^.!.!.^.<.^.<.Q.!.<.<.Q.<.<.<.<.<.8.8.7.1.7.5.7.1.<.<.!.!.!.!.^.!.!.!.!.~.!.!.!.!.<.!.!.^.8.!.^.8.",
"!.Q.<.<.<.<.<.!.<.!.^.!.7.`.&X*X/.^.!.!.<.<.!.<.<.<.<.<.<.<.7.7.(.8.1.5.7.5.<.7.<.!.!.!.!.^.Q.<.!.<.<.8.8.!.!.<.!.!.!.8.!.!.!.<.",
"^.<.<.!.<.<.<.<.!.!.!.!.7.8.0.}.^.^.<.Q.!.!.!.<.<.!.<.7.<.<.7.7.7.7.7.7.<.7.,.7.<.<.!.!.!.!.!.!.<.!.!.!.<.!.!.!.!.8.!.<.!.8.!.!.",
"!.<.!.<.o.!.!.<.!.!.^.!.!.!.).!.^.<.!.Q.^.<.<.Q.!.<.<.<.7.7.7.7.7.7.7.<.5.7.7.7.<.<.!.!.!.!.!.!.~.!.!.<.!.!.<.!.<.!.<.!.!.^.<.!.",
"Q.<.!.!.!.!.!.!.!.!.!.^.^.!.!.!.^.<.<.!.<.^.Q.<.Q.<.!.<.<.7.!.7.7.<.7.<.7.O.!.<.!.<.<.!.!.!.!.!.!.<.!.!.!.8.!.8.8.^.8.!.<.8.^.8.",
"!.Q.!.!.!.!.Q.^.^.^.^.!.^.!.!.!.!.Q.!.<.^.<.!.!.!.<.<.!.<.!.!.<.7.Q.7.7.Q.!.O.!.!.<.<.!.!.!.!.!.!.<.<.~.<.!.<.!.^.!.<.!.!.^.<.!.",
"^.^.!.!.!.!.7.!.!.!.!.^.!.!.!.<.!.^.!.!.!.!.!.Q.!.Q.!.^.!.Q.!.Q.<.<.<.<.<.O.7.<.<.<.!.!.!.!.!.!.!.!.<.!.!.^.8.!.!.<.^.8.<.8.<.!."
};
