/* XPM */
static char *result[] = {
/* columns rows colors chars-per-pixel */
"64 64 237 2 ",
"   c #0D0D0B",
".  c #281D17",
"X  c #38271A",
"o  c #2E2019",
"O  c #3A3827",
"+  c #3D3D34",
"@  c #332B26",
"#  c #482B1E",
"$  c #57351D",
"%  c #512F1C",
"&  c #6A381C",
"*  c #753A19",
"=  c #482D22",
"-  c #4A3729",
";  c #543222",
":  c #5B3524",
">  c #573A2B",
",  c #49362B",
"<  c #653A25",
"1  c #6B3C25",
"2  c #663C29",
"3  c #723F24",
"4  c #38462C",
"5  c #3B4731",
"6  c #3B5B33",
"7  c #385632",
"8  c #324E2E",
"9  c #376635",
"0  c #396535",
"q  c #396B36",
"w  c #3C6539",
"e  c #3C6C39",
"r  c #3D733C",
"t  c #3F7A3D",
"y  c #7C411F",
"u  c #43462A",
"i  c #574729",
"p  c #47562D",
"a  c #494A32",
"s  c #574835",
"d  c #465A33",
"f  c #565736",
"g  c #6C422B",
"h  c #68452B",
"j  c #754226",
"k  c #74432B",
"l  c #7B452B",
"z  c #784828",
"x  c #664734",
"c  c #784834",
"v  c #675735",
"b  c #795738",
"n  c #6D552D",
"m  c #436C3B",
"M  c #466637",
"N  c #536638",
"B  c #41763F",
"V  c #417A3F",
"C  c #72693A",
"Z  c #584F50",
"A  c #685A55",
"S  c #7C584A",
"D  c #486D44",
"F  c #546C4E",
"G  c #437441",
"H  c #437D41",
"J  c #4B7C4B",
"K  c #4A7847",
"L  c #5A7758",
"P  c #4E734E",
"I  c #7A6856",
"U  c #65775D",
"Y  c #525B63",
"T  c #586F6F",
"R  c #666F6F",
"E  c #854B2C",
"W  c #874929",
"Q  c #95522E",
"!  c #9C532D",
"~  c #854D34",
"^  c #8A5438",
"/  c #945334",
"(  c #94563A",
")  c #9C5B3D",
"_  c #995838",
"`  c #8C522B",
"'  c #B55E2F",
"]  c #A65B33",
"[  c #AB5D33",
"{  c #A45D3B",
"}  c #A75C38",
"|  c #B25E33",
" . c #A6582C",
".. c #AB613C",
"X. c #A8613D",
"o. c #BC6434",
"O. c #BC693D",
"+. c #B66438",
"@. c #C36B3C",
"#. c #CC6E3B",
"$. c #C46836",
"%. c #D66E36",
"&. c #CE703E",
"*. c #D5733D",
"=. c #DC743B",
"-. c #DA7036",
";. c #CD672D",
":. c #EB7B3D",
">. c #E3763B",
",. c #F37E3E",
"<. c #FE7E37",
"1. c #E6702E",
"2. c #8C5C46",
"3. c #99664A",
"4. c #95765D",
"5. c #AB6442",
"6. c #A66241",
"7. c #B46944",
"8. c #BC6C44",
"9. c #B46A46",
"0. c #BC714A",
"q. c #AC7655",
"w. c #90766F",
"e. c #B06E52",
"r. c #C56E42",
"t. c #C57146",
"y. c #CD7344",
"u. c #C3744B",
"i. c #CB764B",
"p. c #CD794D",
"a. c #D27442",
"s. c #DC7944",
"d. c #D3794B",
"f. c #DB7B49",
"g. c #D77745",
"h. c #D37D51",
"j. c #E37B43",
"k. c #EB7E42",
"l. c #E47E48",
"z. c #F27F41",
"x. c #42803F",
"c. c #448242",
"v. c #498546",
"b. c #468843",
"n. c #498A46",
"m. c #4C844A",
"M. c #4C8B4A",
"N. c #468249",
"B. c #4D914B",
"V. c #548C54",
"C. c #598759",
"Z. c #579454",
"A. c #518B4E",
"S. c #5B8366",
"D. c #5A8A78",
"F. c #688A68",
"G. c #6C8A77",
"H. c #748A76",
"J. c #779878",
"K. c #6A946C",
"L. c #79A478",
"P. c #FE823D",
"I. c #F7813F",
"U. c #96837C",
"Y. c #809379",
"T. c #B7866F",
"R. c #D88356",
"E. c #EC8046",
"W. c #EA824A",
"Q. c #F58243",
"!. c #FE8542",
"~. c #FE8947",
"^. c #EB8A56",
"/. c #F6925C",
"(. c #EF8D57",
"). c #C88969",
"_. c #DC9570",
"`. c #EC9465",
"'. c #F59C6A",
"]. c #F9A578",
"[. c #6D7A83",
"{. c #768786",
"}. c #798B95",
"|. c #7A9596",
" X c #6A9188",
".X c #7B99A7",
"XX c #7EA280",
"oX c #859B89",
"OX c #84979B",
"+X c #919192",
"@X c #AF958B",
"#X c #8CA98D",
"$X c #BAA195",
"%X c #9B9CA7",
"&X c #93ABAB",
"*X c #AAAAAB",
"=X c #A7ABB5",
"-X c #AAB5B5",
";X c #B6B8B6",
":X c #B2B1AC",
">X c #A099A0",
",X c #CEA490",
"<X c #F4AC84",
"1X c #FBB38B",
"2X c #EDB18F",
"3X c #C6BBBB",
"4X c #CAB4A1",
"5X c #EDBFA3",
"6X c #B2C8BD",
"7X c #FDD3BA",
"8X c #F9C9AD",
"9X c #DEC8B9",
"0X c #AEB4C9",
"qX c #B8C4CA",
"wX c #BCC5D7",
"eX c #BAD2D8",
"rX c #C7C8C6",
"tX c #C5CBD5",
"yX c #D7D9D8",
"uX c #CED2D3",
"iX c #FBDAC7",
"pX c #E6DAD1",
"aX c #DDE1DB",
"sX c #FDE0CD",
"dX c #FBE8DA",
"fX c #EBE4DC",
"gX c #DBDDE3",
"hX c #CCD9E3",
"jX c #DDE2E4",
"kX c #EAEBE9",
"lX c #FDF5EC",
"zX c #FAF5EB",
"xX c #F4F5F4",
"cX c #FDFBF3",
"vX c #FEFEFC",
"bX c #F7F9FA",
"nX c #F6EFED",
/* pixels */
"c.c.c.c.x.x.H x.x.x.H H x.B H H H H B H B H B B r G G r V B B V H H V H H H H N.x.x.N.c.c.c.c.c.c.c.b.b.b.b.b.b.b.x.x.b.c.b.b.b.",
"c.b.c.H x.x.x.x.N.x.x.H H H B H H H x.H G B G B G r r G B V V H H V H H H B N.N.H x.c.c.c.c.b.c.c.c.x.b.b.b.b.b.b.b.b.b.b.x.b.x.",
"b.v.c.x.x.H H c.x.x.H x.H H x.N.x.H B B B B H H G B G r V V H t H H V G H t H N.N.x.c.c.n.V.A.N.c.c.b.b.b.b.b.c.b.b.x.x.c.c.c.c.",
"c.b.c.c.H H H H x.H H H m d B H x.t N.B B r H N.G r B G B B V H V V V V B H x.N.c.c.x.v.Z.L.K.n.c.c.c.b.b.b.b.b.x.b.b.b.c.c.c.c.",
"c.c.x.x.H H c.H H H V M > s m H V N.G B B r G H B B t G t t t B x.H t B H H H H x.x.c.b.A.V.A.c.c.c.c.b.b.b.b.b.c.b.b.b.c.c.c.c.",
"c.c.H H H H H H H H M s 3 > d V H H B B B B B B B B G t N.G H H H t G H H B t H H c.c.x.c.H V H x.c.x.N.N.b.b.c.b.b.B.n.n.b.c.c.",
"c.x.H H t G c.c.c.B s g 1 : a B H N.B B B B B B B N.B B B B B B B B H G H B G x.x.c.c.V V V G c.x.x.x.x.b.n.b.b.c.b.B.n.n.v.c.c.",
"H H H H G H M.b.J f h j & : + w H B B B B B B B t t B r B B B B t G t t G B B H V c.V V V G H c.x.x.H N.x.c.b.c.b.n.B.c.M.v.c.c.",
"x.V H V B v.B.M.D x 3 1 < ; , 6 V V V V B t t B r t t B B r e D e m m m V V B B V A.L.J.J V V v.v.H G c.H c.c.c.c.n.B.b.n.n.c.c.",
"x.V v.H B v.Z.Z.f g 1 1 < ; , u M V V V B B r G B B B V r 6 , ; - $ $ i u M V V V C.6XaX&XL V H v.v.G c.H V c.c.c.B.B.n.n.n.c.c.",
"x.V V H G K Z.N h k 1 < : ; = > i 6 V t r r G r B B t 6 u $ : * & & * * & M t t t m.*XzXbXrXG.J c.M.c.G H H H c.b.B.M.B.n.v.c.c.",
"V c.V V G m.A.f g 1 < ; = = ; 2 y i M t B B t B B e 4 ; & & 3 3 b I 4.3.z M G G t t K.kXvXvXyXH.K M.M.H b.G G c.n.B.M.M.n.v.v.N.",
"x.V n.M.J m.K s < 1 1 : ; = = : Q [ n 0 V B B B 0 - $ & * * 2.w.%X=XtX$Xx d t t H B S.jXvXcXvXjX{.J M.M.n.J A.C.V.M.M.n.v.v.v.c.",
"H H v.m.K m.f g 3 3 W ~ W 3 : < X.=.-.` u 0 B 7 X % * * 2.U.%X0X0XhXxX3Xx d G t B B S.hXvXcXvXvXaXG.m.Z.Z.S.J.J.J.K.A.n.M.n.v.V ",
"G B B D D P s W W W W ! } | [ ] $.I.I.-. .i 4 X % y W X.@X0XwXwXhXgXbX3Xx M G G B B S.yXvXvXcXvXvXyXS.C.F.H.J.Y.#X#XK.n.B.n.v.V ",
"B G B m D D 2 Q ! Q [ | $.#.=.j.I.I.I.P.I.;.& $ Q  .7.@X0X0XwXtXkXkXvX3Xs w r G B G S.hXvXcXvXcXvXvX-XL L U F.H.H.F.F.Z.M.v.v.x.",
"G m B m D d g Q +.#.>.k.k.:.E.!.Q.!.!.!.!.I.o. .' o.).3X0XtXtXgXkXxXcX3Xa M B t G G K.jXvXlXcXcXcXvXkXG.P F F F F C.V.m.N.v.V c.",
"G G D G B a < ! a.Q.Q.Q.!.Q.!.!.!.!.!.!.!.!.I.-.%.#.q.0XtXtXtXgXkXvXvX*X, 0 B B G G J.kXvXcXbXvXcXcXcX;XF P D D K J G G V c.c.V ",
"c.V V V V u * O.Q.Q.Q.Q.!.!.!.!.!.!.P.!.!.!.!.Q.,.%.O.T.@X@X,XuXkXvXxXU.4 e B t B N @XzXvXvXvXvXcXcXcXpXF J J G G G B G V c.c.V ",
"H H V V M - ! *.E.Q.Q.Q.Q.!.!.!.!.!.!.!.!.!.!.!.!.:.-.;.' | h.$XaXvX3XA 4 r B V B C ,XdXlXvXvXvXcXlXlXfXI B G r B G V H V c.V c.",
"x.V V V 4 j o.s.E.Q.Q.~.!.!.!.!.!.P.!.P.P.!.!.!.~.!.Q.:.$.6.q.T.3XyX+X> 7 B B V N 5.1X7XiXdXlXcXlXsXiX8X4.e t G V V V H V c.V V ",
"c.x.V r i ! @.W.E.Q.Q.Q.!.~.P.!.!.!.~.!.!.!.!.!.!.!.!.!.s.7.) w.=X>X2., 0 B r m C ^.].1X8XiXiXiX7X8X9X2X4.m V H V G V H V V V V ",
"V x.t M i +.s.W.E.E.Q.!.!.!.!.!.~.!.!.!.!.!.!.!.!.Q.Q.Q.~.d.9.>X=Xw.x + e V B N +.^.'.2X2X1X1X<X<X<X_._.3.N H G V V G V V V V V ",
"c.H t d j @.s.W.E.Q.Q.~.!.P.~.P.!.!.!.!.!.!.!.!.!.,.:.:.E.E.R.,X@X2.; 7 B B B N #.W.`.'.'.'.'./.^._._.R.3.M V H G V H G N V V V ",
"c.V H p E *.E.R.>.I.E.I.P.~.!.!.P.~.!.!.!.!.P.!.I.I.>.=.s.s.d.R.6.k = 9 t B m b &.j.l./.`./.(.(.W.s.R.d.) M V V H V G V V V V V ",
"t H V u X.W.I.I.I.E.Q.Q.!.!.!.!.!.!.!.P.~.P.~.!.~.I.I.-.*.y.0.0.^ < 4 e t B M ^ @.j.k.l.W.^.(.^.W.s.g.p.^ m V c.V V V V V J V c.",
"x.V m E &.>.X.! =.E.I.~.~.!.!.!.!.P.!.!.P.~.I.~.I.I.I.=.#.@.7.X.E - 7 t V V M ` @.r.*.j.l.W.W.k.l.f.p.u.b G G V H G V V V H V V ",
"V V p +.I.| X . ! =.I.I.P.!.!.!.!.!.!.~.~.P.~.P.!.Q.I.>.*.O.} ] 3 , q t V B N ` $.@.#.a.j.k.k.l.s.d.R.0.b G H G V H V V V V V V ",
"V V z *.Q.! X . E -.-.,.P.P.P.!.!.~.P.~.P.~.I.~.!.~.I.I.*.O.} / : d B B B V f ` [ O.@.@.*.s.s.s.g.p.i.9.v x.c.H V V V V V V B V ",
"x.d +.Q.I.$.& $ ' *.R.(./.~.P.P.P.!.~.P.I.o.` o.~.P.Q.I.>.@.} / : i C C n n n j W  .] [ @.y.&.a.i.u.0.3.N v.c.V V V V V V V B V ",
"V U 2XP.-.%.&.p.).,X3XfXlXsX1X/.P.P.P.~.#.# o % $.~.P.Q.W.&.X.X.2 k O.&.$.' ' ! W 3 3 Q } O.8.t.t.9.8.b V v.J c.V c.V V c.V V V ",
"m.-XvX8X].].4X:X-XqXrX*X*XyXvXdX1X~.P.I.] o X X Q ~.~.I.s.y...X.: < O.j.>.>.>.%.$.! 1 1 ` _ { 7.7.7.3.f v.n.V V V V c.V V V V J ",
"N.qXbXvXvXbXjXuXuXyXtX+   R jXvXcXiX].<.%.< X % @.~.Q.k.l.g.9.} : : [ j.k.Q.~.z.,.=.[ 1 : E ^ ( ) ( f G c.N.H t H H H t H x.H H ",
"b..XkXvXvXvXvXvXkXxXkX>Xw.rXbXvXvXcXlX1XP.1.o.%.z.~.Q.k.f.g.8.} ; ; _ a.k.Q.!.!.!.!.:.[ 1 : l E c s B c.c.c.H H H H H H H x.H x.",
"N.D.qXbXvXvXvXvXvXbXvXbXbXbXvXvXvXvXvXcX7X/.P.P.<.<.>.=.a.r.7.) : X j @.j.z.Q.!.!.!.Q.*.Q : g l f m V V H x.c.x.H H H H x.x.x.x.",
"x.N. XtXvXvXvXvXvXvXvXvXvXvXvXvXvXvXvXvXcXlX8X<X'.`.`._._.,X@XU.U.Z # ! r.a.l.z.Q.Q.Q.s.] 2 i N V V c.V x.c.c.c.H H x.x.c.b.c.c.",
"x.x.N. XeXvXvXvXvXvXvXvXvXcXvXcXcXcXvXvXvXvXvXlXdXdXdXnXyX3X;X*X;X+XZ : _ 8.a.j.E.E.W.a.X.h f V V V x.x.v.x.c.c.x.H x.c.c.b.c.b.",
"t x.t t  XtXvXvXvXvXvXvXcXcXcXcXcXcXvXcXvXvXvXvXvXvXcXaX3X=X=X:X*X=X[.Z ( 8.y.f.l.f.g.i.X.h M V V V V x.x.x.x.c.x.x.c.x.b.c.b.c.",
"H H t t J |.jXvXvXcXcXcXcXzXlXcXcXcXlXcXcXcXcXcXcXzXyX;X=X>X+X[.[.R A 2.6.0.i.d.g.f.f.p.{ x D H V V c.V V c.c.V x.H x.H x.c.c.b.",
"H H B t t J |.hXvXvXcXcXcXlXcXcXzXcXcXlXcXcXcXcXzXyX3X:X%X[.[.T Y Y S 6.9.u.i.p.p.g.d.u._ s H H c.V V x.c.c.c.c.x.H x.x.x.c.b.c.",
"H B V B V B J  XqXbXvXcXcXcXcXcXcXzXcXcXcXcXzXfXrX:X%X[.R Z Z A A A 2.7.u.u.p.u.i.y.p.t.^ d J H H x.x.x.x.c.c.c.x.x.x.x.N.c.b.c.",
"H H V V B V t P T &XqXkXlXcXcXvXcXcXcXcXzXfXuX-XOXR Y Z > S ~ 2.2.) 5.t.u.u.p.u.0.t.p.u.b G c.H H x.x.c.c.c.c.x.x.N.x.x.x.N.x.c.",
"x.H N.V B H G t H P T {.&X:X;XrXyXyXuXrX-X%X{.R Y Z x k ~ / ( ) 6.9.u.u.u.i.u.5.5.t.p.u.v N.v.c.H H c.b.c.c.c.H x.N.b.x.x.N.x.N.",
"x.c.c.H t G G t t t c.G.oX|.}.|.|.OXOX|.}.T A Z S c ~ ^ 2._ ) 6.9.u.u.u.i.u.6.( 5.t.p.0.f c.M.c.x.H b.c.c.c.c.c.x.N.b.x.c.x.x.x.",
"H H N.N.G H B B G H t V.&X&X&X&X.X.X&X&X+XS ^ ^ / ( ( ) X.5.5.9.u.u.i.y.i.5.^ ( 7.t.h.9.f J B.c.x.x.N.x.x.x.x.t x.n.v.c.c.N.c.H ",
"H t N.V G H V V t G t J XX0XeXhXeXeXwX4Xe.} | +.X.} 5.7.7.7.9.t.i.d.y.r.{ ( ~ { t.p.h.9.s G B.c.H H c.t t t t c.c.c.c.c.c.H c.c.",
"H H H B B V V V t G t t Z..XqXbXxXxXkX,X$.$.r.8.O.8.t.8.0.7.7.t.i.u.5.2.> x 2.9.i.u.u.6.a G v.J r H H e r t V x.x.c.c.c.N.H H c.",
"x.H H B B V B B G t t t x.C.$XxXvXbXnX2Xh.&.y.r.y.a.y.r.8.X...X.6.3 > @ + 5 b 8.t.7.5.( , w c.H r N.t q e t V V n.n.c.V v.c.N.H ",
"x.x.x.x.G B B B B B B B B f ).9XfXzXzXiX_.=.>.s.=.>.s.y...~ n s O @ @ @ 6 9 p ~ { { { ^ > 6 H H t J B 9 K C.C.B.B.B.v.V v.V c.V ",
"x.x.x.x.H H H B H B B B e f g.).4XzXcXpX).-.~.E.E.E.I.y.( i 6 8 @ @ O 7 9 9 6 u l _ / k > 6 G N.c.H e q F.#X:X#XK.b.V c.x.v.c.v.",
"c.x.N.H H H H H B B G G 0 n #.+.q.:XxX3X2.-.P.Q.I.E.s.O.b 0 9 0 8 8 6 9 9 9 e 7 , k k 2 , 5 B G G B G w U H.H.J.J.m.H N.V c.V v.",
"c.x.x.H H G H H H B B t 7 j +.X.^ I oXoX^ %.I.>.=.=.g...v 0 9 9 9 9 9 9 9 9 0 0 5 : 2 2 , 8 e e r r t G D P L P H c.H H v.v.V c.",
"c.b.N.H t t H m.G B B r 4 j ! ` 2 a D D h $.%.#.o.O.+./ f 9 9 9 9 9 9 9 9 9 9 9 5 ; : $ # 4 q w w r H H G G G c.c.V v.V V c.V c.",
"x.x.x.x.H H H H B q q 7 - W W 3 > 7 e w a Q ' [ Q Q ~ g p 9 9 9 9 9 9 9 9 9 q 9 5 = - X O 8 w e r t x.H H H H H V V V c.c.c.c.c.",
"x.x.x.x.H t B G e w 0 u 3 3 > > i 6 q M i j ` W z l 2 > 6 w 9 9 9 9 9 9 9 9 9 q 9 7 8 4 7 0 q r H x.H H H H H H V V v.V V c.J c.",
"N.x.x.x.H r r r r 9 0 > l 2 > > O 6 q 0 i < j j z j > > 6 w 9 9 9 9 9 9 9 w 9 q q q q q q q t x.H c.H x.x.H H G V v.V c.v.c.V c.",
"x.c.H x.t r w r r q 9 u $ > > , 5 9 9 7 : 1 1 1 2 2 > , 9 9 9 q q e w 9 9 9 9 q q q q q r t x.x.x.V V v.V V V V V V V c.v.V v.V ",
"c.c.H H t r r r t e q 7 4 u 5 5 q q q d > 2 < 2 2 > , 5 9 9 9 9 e e q 9 9 w q q q q r t x.x.x.b.b.v.V V V V v.v.V v.c.v.V v.c.v.",
"c.c.x.V t r r r r r r r w D S.C.B q q 6 , , > , > , , , 9 9 q q e e q q w w q r m t V V x.b.b.b.x.V v.V V V v.V V c.V V V c.V v.",
"c.x.V V V B t t t t r q q e m J t q q q 7 + + + + + + 8 q w q e e e e e r r r r B V x.c.x.x.x.x.c.x.V V V v.V x.v.V v.c.v.v.V c.",
"c.x.H H t t V t t x.t t r t r r e q q q e q 9 9 w 7 6 e e r r r B r r r r B B t V c.V b.c.c.x.c.V V V c.v.V x.V x.x.V v.V V v.c.",
"x.c.c.x.c.x.c.x.c.c.c.c.V t r t t t r r r r r e r e B B t H x.t B B B B B B H x.V V V x.x.c.c.c.c.x.V x.V x.x.v.v.V v.V v.c.v.V ",
"x.c.c.c.c.c.x.c.c.b.b.c.b.c.V t t t t t t t H H x.x.B x.x.x.x.H H H B H H H B x.V c.x.c.c.c.c.c.x.x.c.V v.V v.x.V v.V v.V c.c.V ",
"b.b.c.c.x.b.x.x.b.x.c.b.c.c.c.V x.c.c.c.x.c.c.x.x.x.c.N.c.x.x.x.H H H H B B H H V c.V c.c.c.c.c.c.V x.c.V x.x.V v.V v.x.v.v.V v."
};
