/* XPM */
static char *result[] = {
/* columns rows colors chars-per-pixel */
"64 64 241 2 ",
"   c #271D17",
".  c #39271C",
"X  c #38371E",
"o  c #3A3829",
"O  c #3B3931",
"+  c #342A24",
"@  c #0F0E0E",
"#  c #46291B",
"$  c #4F331C",
"%  c #67371D",
"&  c #763D1C",
"*  c #4A2E22",
"=  c #483729",
"-  c #543323",
";  c #5B3523",
":  c #563B2C",
">  c #593A28",
",  c #493633",
"<  c #523A30",
"1  c #643A25",
"2  c #6C3C24",
"3  c #643C2B",
"4  c #6B3E29",
"5  c #603725",
"6  c #713F25",
"7  c #38472C",
"8  c #3C4832",
"9  c #3A5C33",
"0  c #385733",
"q  c #3B542F",
"w  c #366535",
"e  c #396535",
"r  c #396A36",
"t  c #3C6C39",
"y  c #3C6439",
"u  c #3E733C",
"i  c #3F793D",
"p  c #7F411F",
"a  c #46482B",
"s  c #58472C",
"d  c #464733",
"f  c #5A4833",
"g  c #475935",
"h  c #555734",
"j  c #4A512D",
"k  c #69432B",
"l  c #754227",
"z  c #7A4325",
"x  c #7A452B",
"c  c #7E482D",
"v  c #73432B",
"b  c #674733",
"n  c #784934",
"m  c #795536",
"M  c #6B5631",
"N  c #436434",
"B  c #44643A",
"V  c #436C3C",
"C  c #486638",
"Z  c #41763E",
"A  c #41793F",
"S  c #53663D",
"D  c #726738",
"F  c #565558",
"G  c #5B4943",
"H  c #685852",
"J  c #725649",
"K  c #486D44",
"L  c #546B49",
"P  c #437441",
"I  c #437D41",
"U  c #4A7C46",
"Y  c #4B7C4B",
"T  c #4A7749",
"R  c #51794C",
"E  c #537754",
"W  c #6E6E59",
"Q  c #525C65",
"!  c #586A6F",
"~  c #6B716E",
"^  c #844A2B",
"/  c #8C4C2A",
"(  c #854925",
")  c #98532E",
"_  c #834D33",
"`  c #8B4E32",
"'  c #8A5338",
"]  c #935333",
"[  c #965639",
"{  c #9C5A3C",
"}  c #995936",
"|  c #8D512B",
" . c #A5572C",
".. c #A35D3B",
"X. c #A85C34",
"o. c #B45E30",
"O. c #AD623B",
"+. c #A5623C",
"@. c #BB6434",
"#. c #B4643B",
"$. c #BB6639",
"%. c #BC693E",
"&. c #B56032",
"*. c #B9612E",
"=. c #89461F",
"-. c #C46B3C",
";. c #CC6D3C",
":. c #C56835",
">. c #D36E37",
",. c #CF713F",
"<. c #DC743B",
"1. c #D6723B",
"2. c #CD672E",
"3. c #E2763B",
"4. c #E5793D",
"5. c #EB7B3D",
"6. c #E97537",
"7. c #F27E3E",
"8. c #FD7D37",
"9. c #E46E2D",
"0. c #985E43",
"q. c #825B4A",
"w. c #9A6648",
"e. c #8A6C5E",
"r. c #AB6442",
"t. c #A76545",
"y. c #B36A45",
"u. c #BB6C45",
"i. c #B76C47",
"p. c #BE7149",
"a. c #AF7A5B",
"s. c #897872",
"d. c #AF7D68",
"f. c #C36E43",
"g. c #C96F41",
"h. c #CB7244",
"j. c #C5744C",
"k. c #CB764A",
"l. c #C9764A",
"z. c #D27342",
"x. c #DD7944",
"c. c #D3794A",
"v. c #DC7D49",
"b. c #D67644",
"n. c #D17C50",
"m. c #E37B43",
"M. c #EB7D42",
"N. c #E37E49",
"B. c #F17F42",
"V. c #42803F",
"C. c #448242",
"Z. c #498546",
"A. c #468843",
"S. c #498A46",
"D. c #4C8449",
"F. c #4C8B4A",
"G. c #51894D",
"H. c #4D914B",
"J. c #50934E",
"K. c #578957",
"L. c #589356",
"P. c #5B8770",
"I. c #678B65",
"U. c #699769",
"Y. c #768B76",
"T. c #769978",
"R. c #698974",
"E. c #77A677",
"W. c #FC823D",
"Q. c #9B867A",
"!. c #80947F",
"~. c #B48774",
"^. c #EC8146",
"/. c #E6814B",
"(. c #F48244",
"). c #FE8542",
"_. c #FF8944",
"`. c #F6864A",
"'. c #EB8A53",
"]. c #FD9358",
"[. c #F88D52",
"{. c #D4916E",
"}. c #CC8E6B",
"|. c #F49E6F",
" X c #DEA17E",
".X c #FBA576",
"XX c #FFA46E",
"oX c #CF845B",
"OX c #6E7B84",
"+X c #6E8189",
"@X c #798B94",
"#X c #789397",
"$X c #719089",
"%X c #7EA280",
"&X c #7FAAA9",
"*X c #8B9290",
"=X c #8DA890",
"-X c #BCA89C",
";X c #879EA6",
":X c #969BA3",
">X c #96B1B6",
",X c #A7A9AA",
"<X c #B9B8B7",
"1X c #ADAEB2",
"2X c #A49595",
"3X c #C99889",
"4X c #D1A792",
"5X c #FDB48B",
"6X c #EEB391",
"7X c #C7B3AA",
"8X c #CCBAAF",
"9X c #FFC19D",
"0X c #CAC4BA",
"qX c #D7C5B8",
"wX c #FBC7A9",
"eX c #F5CDB5",
"rX c #ADB6CB",
"tX c #9FBAC2",
"yX c #BCC7CB",
"uX c #B8C9D4",
"iX c #C7C7C8",
"pX c #D6D2CC",
"aX c #C6CBD8",
"sX c #C5D3D7",
"dX c #D6D8D7",
"fX c #D4CECB",
"gX c #F4DAC9",
"hX c #EAE4DA",
"jX c #FAE5D7",
"kX c #D2DAE2",
"lX c #DDE5E8",
"zX c #E8E7E7",
"xX c #F9EDE4",
"cX c #FDFAEF",
"vX c #F6F2EA",
"bX c #EDF2F5",
"nX c #F4F4F2",
"mX c #FDFCF3",
"MX c #FEFEFD",
"NX c #F8F7F6",
"BX c #EBEEF1",
/* pixels */
"C.C.C.C.V.V.I V.I V.I I V.I I I I I I I I i Z Z Z Z u P i Z Z I I I I I A I I I I I C.C.C.C.C.C.C.C.A.A.A.A.A.A.C.C.A.A.A.A.V.A.",
"C.A.C.I V.V.V.V.C.V.V.I I I I I I i I i Z A Z Z P Z Z P i T I I I A I I I Z C.Y C.I C.C.A.C.C.C.C.C.C.A.A.A.A.A.C.A.A.C.V.A.V.A.",
"A.S.C.A V.V.I C.I I I I i Z I I I I A Z Z Z I A P Z P u Z Z I A A I I I A A C.D.C.C.C.C.Z.K.H.C.C.C.C.A.A.A.A.A.A.A.A.C.C.A.A.V.",
"C.A.C.C.I I I I I C.I I g g I I Y I I Z Z Z I Y Z Z Z Z A Z A A I Z Z Z Z I I Z.I C.C.A.L.E.U.S.V.C.A.A.A.A.A.C.A.C.A.V.C.V.V.V.",
"C.C.C.V.I I I I I I i h 4 s P I I I I Z Z Z P I Z Z Z Z A A A A I I Z Z A I I I A C.C.A.G.L.G.Z.C.C.C.A.A.A.A.A.C.A.A.A.C.C.C.C.",
"C.C.I I I I C.I I I g 4 4 : 9 I I Y A Z Z Z Z Z Z Z I Z A A A A A A A I A A I I C.C.C.V.A V.A A C.C.C.C.A.S.A.C.A.A.H.A.A.A.Z.C.",
"C.I I I i P I C.I K 3 4 2 > 8 I I I Z Z Z Z Z Z A I Z A Z A Z I Z A A I A A A I I C.C.A A A A V.I I I C.C.F.A.A.C.A.H.A.Z.Z.C.I ",
"C.I I i I I S.Z.I f 2 6 5 ; O V I Z Z Z Z Z Z Z Z Z Z Z Z Z Z A Z Z Z Z A Z A A I A I A A I A Z.C.I I V.C.C.C.A.A.A.H.A.F.Z.Z.C.",
"V.C.I A A U J.S.L 3 6 2 1 - = g V.A Z Z Z Z i Z Z Z Z Z Z Z g g y g N t V A A A A A A A A Z A V.D.I Z C.C.C.Z.C.A.A.H.A.S.A.C.C.",
"V.A I I Z C.L.G.b 4 2 1 ; - = d N A A A A A Z u Z Z Z Z y 8 * ; : ; % 1 a Z A A A A A A Z A A V.D.D.Z I A A A C.A.H.H.A.H.A.C.C.",
"I I A I Z U L.S k 6 2 ; ; * * 1 $ C A A Z u Z Z Z Z r 7 $ % 2 & l v l z k V I Z u A A A A Z Z Z C.F.C.U I A A C.A.H.F.F.F.Z.C.C.",
"C.A A A U U G.f 2 2 5 ; - * * 4 ( k V A i Z Z Z Z 9 $ ; & & x n e.s.Q.0.s Z Z Z A A A Z Z Z Z Z A S.F.I Z.A A I D.F.F.H.S.C.A.U ",
"A I Z.F.Y G.S 3 2 6 2 5 ; * # 2 } :.x N Z Z Z t 7 # % & ^ q.e.:X>XaXzXd.* E A A A A Z Z i Z Z i A C.J.D.D.U K.J.K.G.F.F.Z.Z.C.C.",
"V.I C.D.U R h v 6 6 ^ ] ` ^ 2 6 @.W.<.| a r V X # % p =.e.:XrXaXaXkXbXs.b I.U I Z u i Z i Z Z Z A U F.J.L.I.U.*XT.U.F.D.F.F.Z.C.",
"P P Z K K K b / ) ( / X.#.$.$.@.1.^.W.6.*.s X # & =.) ~.1XrXaXaXkXzXNXs.J pX=XR Z Z Z Z Z i Z Z Z U Z.L.I.Y.T.*X=X=XU.F.J.S.C.I ",
"Z Z P Z K K 4 ) )  .&.:.:.;.m.M.W.(.).W.W.*.% &  . .a.,XrXrXaXkXBXnXMXs.J hXpX$XU Z Z Z Z Z Z u V Z U E E E I.R.Y.I.I.J.F.Z.Z.I ",
"K Z K V V g l ) @.<.(.(.(.M.(.(.).).).).).5.:.*.*.>.3XrXaXaXaXzXbXNXMXe.W hXjX<XY.T Z Z P Z Z V V V U R L E L E E E K.D.I Z.I I ",
"P Z Z Z K a 2 o.m.(.(.(.).).).).).).).).).).7.3.>.;.~.rXiXyXaXlXnXMXnXH s.gXgXeX-XP.Z P I I Z Z Z Z Y D.E K K K T E P P I I I C.",
"U A A A Z a ( ;.(.(.(.(.).).).).).).).).).).).).7.2.-.a.d.}.3XfXnXMX8Xd Q.wX9X5X4XQ.D.I C.I Z Z Z A I P I Y T P P P Z I A C.C.U ",
"A A A V.N ; X.<.^.(.(.).(.).).).).).).).).).W.).).5.3.2.o.#.~.7XzXnX*Xa ~.5X.XXX'.oXW P I P Z Z Z Z Z Z P I Z P P Z I I A V.V.A ",
"I A A A a ( -.x.^.`.(.(.).).)._.).).).W.).).).)._.`.).4.$.w.a.~.iXrXH 3 }.XX[.[.^.-.w.Y Z Z Z Z Z Z Z A Z P i I A Z A A U A A V.",
"C.V.A Z - o.,.N.^.(.(.).).).).W.).).).).).).).).).(.).(.v...0.2X1XQ.< m '.[.`.5.<.-.O.W V Z Z Z Z Z u Z i I P i A Z Z U A A A A ",
"V.A A N 1 -.x./.^.(.(.).).).).).).).W._.).).).).).W.(.(.`.z.~.,X,XJ * w.'.(./.m.,.@.X.' V Z Z Z Z Z Z i i I I P A Z Z A A A A A ",
"A C.A g l 1.N./.^.`.(.).).).).)._.).).).).).).).).B.4.4.M.N.{.3Xd.k < p.'.N./.b.%.O.X.| S Z u Z Z Z Z A i P Z I U A Z Z Z A A A ",
"C.I A j | m./.^.^.(.(.).).).).).).).).).).).).).W.W.<.1.x.c.c.j.' $ k /./.1./.l.#...} ` M Z Z Z A i A A A Z A A A A Z A Z A A A ",
"V.A A s $.^.M.5.M.m.(.).).).).).).).).).).).).).(.W.4.1.z.f.p.y.c . M h./.oXoX%.#...[ ^ b P Z A i A A A A A U A A A U A A D.V.A ",
"V.A N | <.<.) ) <.5.(.).).).).).)._.).).W.).).(.(.W.W.1.;.%.r.{ v X t +.z.c.,.%.r.{ ` x : V Z Z I Z A A A A A A A A A A A U A A ",
"V.V.j $.m. .    X.(.5.W.).).).).).W.).).)._._._.W.(.W.4.;.@...] 5 0 u D O.-.p.%...' _ v > N Z Z P i A I A A A A A A A A A A A A ",
"A A z ^.W.|     ( 6.>.8.8.8.W.).).).)._._.).W._.)._.W.m.1.#.X.^ - C Z Z D ) } +...` x k - g Z Z i I I I A C.C.U A A A A A A A A ",
"V.h -.W.<.$.& & -.c.oX|.XX].W.8.W.).W._.W.) z :.(._._.W.<.#...^ - M D D | | x l c c v 3 > g i Z i I I I V.Z.C.A U A A A A A A A ",
"I ~ 9X`.9.<.n.oX}.-XiXvXcXjX9X].W.W.).W.} .   5 >._.).^.v.%.O.[ > | ,.,.:.*.o.| p 2 > > - N I I Z I i I Z.Z.D.A A A A V.A A A A ",
"D.yXmXwX5X6X8X<X<XyXiX*X*XaXNXjX5X_.W.W.(     . @._.).^.v.f.O.[ - _ 1.m.4.4.6.>.:.| 1 - = u i I i I I I V.G.A A V.A U V.A A A A ",
"C.uXMXMXMXNXlXdXdXdXyX+ @ *XbXMXmXgXXX8.2.% # l m._.B.M.N.h.y.[ * l -.N.B.).).B.5.1. .; a A i I Z I A I Z.C.I i I I I I V.V.V.I ",
"V.&XlXMXMXMXMXMXnXBXzX,X*XdXNXMXMXMXxX5XW.9.:.3.)._.B.N.x.g.#.` # 1 #.x.B.)._.).).).<.) a A I Z I i I I C.I I I I I i I I I I V.",
"V.P.yXbXMXMXMXMXNXNXMXMXMXMXMXMXMXMXMXmXeXXX_.W.8.6.3.>.h.f.X.` * # ] h.m.B.(.).(.).M.-.6 C Z A I i I I I C.V.V.I I I I V.V.V.I ",
"C.C.$XuXMXMXMXMXMXMXMXMXMXMXMXMXMXMXMXMXMXjXwX5X.X|.|.4X4X4X2X2Xs., ; X.g.b.N.B.(.(.M.;./ h A A i A I I C.V.C.C.I I I C.C.A.C.A.",
"I i C.+XuXMXMXMXMXMXMXMXMXMXmXmXmXmXMXMXMXMXMXmXxXxXxXhXfXrX1X1X<X*X, 6 ..f.b.N.^.N.x.g.] s P I i I A C.C.V.V.V.C.i C.C.C.C.A.C.",
"I I V.V.$XsXMXMXMXMXMXmXmXmXmXmXmXmXmXmXmXMXMXMXMXMXnXdX1X,X-X1X,X:X! J r.f.c.v.v.m.c.f.' f I I I I I A V.V.V.C.C.V.V.V.C.A.C.A.",
"I I i i Y #XlXMXMXmXmXmXcXcXcXmXmXcXNXmXmXMXmXmXcXxXfX1X,X:X@XOX~ ~ H 0.y.j.k.c.c.v.c.u._ h I I A A I C.V.C.C.I i C.V.V.C.C.A.C.",
"I I A i i Y #XdXMXMXmXmXcXnXcXmXcXcXmXmXmXmXmXcXzXfX1X,XOXOXOXQ Q F 0.r.i.j.k.c.k.c.c.i.n S C.I A I I A V.C.C.C.C.i V.V.V.C.C.A.",
"i I Z Z Z Z Y #XyXMXMXmXmXcXmXmXcXcXcXmXcXcXvXdXiX,X*XOXF F F J H J t.y.j.j.n.l.j.c.k.y.b P C.I I i V.C.C.C.C.C.C.C.V.V.C.C.C.C.",
"I I I Z I Z u Y P.;XiXzXcXcXmXmXmXmXmXcXvXhXiX,XOXOXF G b n 0.] 0.{ y.j.j.k.j.i.f.j.k.y.h Z.Z.I i V.V.C.C.C.C.V.i C.C.C.C.C.C.C.",
"V.C.I I I Z i Z P E ! +X:X,X<XyXpXdXiXrX,X:X+X! F G J 6 q.] 0.{ t.i.j.j.j.k.i.r.u.j.j.r.y S.A.U C.I C.A.C.C.C.C.C.C.C.C.C.C.C.C.",
"V.I C.C.Z A i Z Z I I T.=X@X@X@X@X#X#X#X+X! F b 4 _ ` ' [ { { r.i.j.j.j.k.i.{ 0.u.j.k.t.y Z.Z.C.C.C.C.A.A.C.C.C.C.C.A.C.C.I C.C.",
"I I Y I Z I Z Z A A Z U.>XtX>X>X&X;X>X:Xs.q.' [ } [ { ..+.r.y.i.j.j.k.k.j.{ ` ..u.k.n.0.9 Z.J.A.C.C.A.Z.C.C.C.C.C.S.C.C.C.I Y C.",
"I I C.I I Z Z I Z A A D.%XtXsXkXsXuXsX-Xy.O.#.#.....r.y.y.y.i.j.k.n.k.i.[ 0.' r.h.j.n.0.9 D.J.S.I A.F.C.C.C.C.C.S.S.C.C.I C.C.C.",
"V.I I Z u Y Z Z Z A i Z U.&XsXMXbXbXhX{.:.-.u.%.u.u.f.f.u.r.i.h.c.u.0.4 < _ 0.u.l.j.f.n 0 Z.J.F.C.H.F.C.C.C.C.C.A.C.C.I C.C.C.I ",
"V.V.I Z Z Z Z I Z A Z i I L -XNXmXNXjX4Xn.h.;.,.h.z.k.g.u...O...0.3 * + 8 d { j.i.r.t.n 8 Y J.J.A.J.F.C.V.C.A.A.F.S.C.I Y C.C.C.",
"I V.V.I Z A Z Z Z A Z Z P h {.dXxXvXvXeXoX4.m.x.m.x.b.;.X.n b = o + + 7 w 9 s { { ..{ n 8 P Z.F.H.J.F.I G.I.L.J.J.H.A Z.V.Z.A Z.",
"C.V.V.I I A I Z I Z Z Z t M '.~.8XmXmXqXp.4.).M.5.M.x.g.m 9 w 7 + + o w w w 0 s ` .._ 4 = t U F.H.F.Y Z T.=X1X=XU.Z.C.V.Z.A V.A ",
"C.C.C.V.I I i T Z Z Z Z y ^ z.y.d.0XMX8Xw.6._.B.5.M.x.#.M w w 9 o 0 w w r w w 7 : x 4 3 o y P U Z.F.Z.Z I.Y.$X$XT.Z.A Z.V.D.Z.A ",
"C.V.C.I I Z I C.I Z Z P a c &...' W =XY.[ 6.5.4.3.3.h.+.g w w w w w w w w w w 9 = 1 1 > o 9 t Z i Z.F.Y K R E E U V.A A A A V.Z.",
"C.C.C.i I I I C.A Z Z u 8 ( ) ` 3 g V B v ;.>.;.-.@.X._ g w w w w w w w w w w 9 = $ ; - + y t t I C.C.Y Z I A A A V.A A A D.A V.",
"C.C.C.i i I Y C.Z r e 0 - ( x v : 9 r B s  .&. .) ] c b N w e w w w w w w r w w o * * . o y y P C.I C.I I I I I A A A A A V.V.D.",
"C.V.V.V.I I u Z V e e a l l 3 > a y r N s z / / ( x 3 s y w e e w w w w w w w r 9 0 q 7 w e r i I I C.i I I I A A A A A A A V.V.",
"C.V.V.V.I u u u u e 9 > l 3 : < = w r N > l z x l 4 > d e e e w w r w w r w w r r r r r r r i i I C.I C.I I I I V.A A A D.V.A D.",
"C.V.I I i u t u u r w $ 1 > < , 8 r r j ; 2 6 4 4 1 , d w w w w w u t w w w w t r r r r u i V.V.V.V.A V.V.A D.A A V.V.R V.D.V.V.",
"C.C.I I I u t u u r r q 7 7 8 8 r r r a > 1 1 4 3 : , 8 w r w r t t w w w y w t r r u i V.V.V.A.D.V.V.V.A A A V.A D.V.A V.V.A D.",
"V.C.I I i u u u u i u u e K K.K.I t r q , , : : < , , 8 w w r r t t w w t w t t u u A A V.V.A.C.V.V.V.R D.A V.D.A D.V.D.A D.V.V.",
"C.V.I I i u u i i i u r y y K T u r r r q O O O , O O 0 r r r r t u u t u u u u Z A V.C.V.V.A.C.V.V.A V.A V.V.V.V.A V.V.V.V.V.D.",
"V.V.V.I V.I I i V.V.i i u u u u u r r r r r w w w 0 w w r u i i Z u u u u Z Z A A A C.C.C.C.C.V.A V.A D.D.A V.R A V.D.V.V.V.D.A ",
"C.C.V.V.C.V.V.V.V.V.C.C.C.i i u i i u u u u u u t u u i i V.i I A Z Z Z Z Z A A C.A A V.V.C.C.Z.V.V.V.A A V.V.V.G.V.A V.D.V.D.V.",
"C.C.C.C.V.C.V.V.C.A.A.C.A.C.I i i i i i i i i V.C.i A C.V.C.I I I I A I A I I I C.A A C.C.C.V.V.V.A A V.V.V.V.V.A V.G.A D.V.A V.",
"A.A.C.C.C.C.C.V.A.V.C.A.C.C.C.i V.C.C.V.C.C.V.V.C.C.C.C.C.C.I I I I I I A A I A A A C.C.C.C.Z.V.Z.V.V.V.A V.D.A D.V.V.V.A V.D.V."
};
