/* XPM */
static char *result[] = {
/* columns rows colors chars-per-pixel */
"64 64 244 2 ",
"   c #231B17",
".  c #35261B",
"X  c #363827",
"o  c #3C3B32",
"O  c #302926",
"+  c #191714",
"@  c #44291B",
"#  c #4E341E",
"$  c #5A361D",
"%  c #68391D",
"&  c #743A1A",
"*  c #492D22",
"=  c #493729",
"-  c #533223",
";  c #5B3523",
":  c #52372D",
">  c #543C2D",
",  c #5B3B27",
"<  c #493931",
"1  c #593A32",
"2  c #643925",
"3  c #6B3C24",
"4  c #653C2B",
"5  c #6D3F29",
"6  c #623623",
"7  c #703E25",
"8  c #38472A",
"9  c #39532D",
"0  c #3D4731",
"q  c #355431",
"w  c #3C5532",
"e  c #395B32",
"r  c #375C32",
"t  c #2E4728",
"y  c #376635",
"u  c #396535",
"i  c #396B36",
"p  c #3B6D39",
"a  c #3C6439",
"s  c #3E733C",
"d  c #3F793D",
"f  c #454629",
"g  c #55482A",
"h  c #464A32",
"j  c #594735",
"k  c #425B33",
"l  c #4B5A37",
"z  c #58593A",
"x  c #4A532C",
"c  c #6A432B",
"v  c #74422A",
"b  c #794327",
"n  c #684535",
"m  c #774B35",
"M  c #695639",
"N  c #735633",
"B  c #436C3A",
"V  c #446538",
"C  c #41763F",
"Z  c #41793F",
"A  c #4A713B",
"S  c #6A663C",
"D  c #776337",
"F  c #7A401F",
"G  c #535453",
"H  c #77574A",
"J  c #775E53",
"K  c #67574E",
"L  c #446E40",
"P  c #437541",
"I  c #427C40",
"U  c #4A7C45",
"Y  c #4D7C49",
"T  c #497648",
"R  c #577955",
"E  c #51734D",
"W  c #706B52",
"Q  c #515C65",
"!  c #586A6E",
"~  c #757568",
"^  c #6C7071",
"/  c #625F61",
"(  c #844A2A",
")  c #8B4D2B",
"_  c #834727",
"`  c #94522C",
"'  c #9B532D",
"]  c #854C33",
"[  c #8A5337",
"{  c #9A5634",
"}  c #9D5B3C",
"|  c #955637",
" . c #984F2A",
".. c #A7582D",
"X. c #A35E3C",
"o. c #A85C35",
"O. c #B45F31",
"+. c #B25C2D",
"@. c #AC613D",
"#. c #AF6135",
"$. c #B76439",
"%. c #BF612B",
"&. c #8D5428",
"*. c #C46A3B",
"=. c #C86A37",
"-. c #D46D35",
";. c #CE713F",
":. c #DC743B",
">. c #D6723B",
",. c #CF6528",
"<. c #EB7B3D",
"1. c #E4773C",
"2. c #F37E3E",
"3. c #FC7C35",
"4. c #E26E2F",
"5. c #845B47",
"6. c #975D44",
"7. c #926751",
"8. c #A56142",
"9. c #AC6442",
"0. c #A3674C",
"q. c #B46944",
"w. c #BC6C44",
"e. c #B26845",
"r. c #BC714B",
"t. c #B97655",
"y. c #A37059",
"u. c #987768",
"i. c #86736D",
"p. c #A46B52",
"a. c #C46E43",
"s. c #CB7345",
"d. c #C4744B",
"f. c #CB764A",
"g. c #CD794D",
"h. c #C47146",
"j. c #D47543",
"k. c #DC7741",
"l. c #D37A4B",
"z. c #DB7C4B",
"x. c #DE7944",
"c. c #C17A57",
"v. c #E37B43",
"b. c #EB7E42",
"n. c #E47E48",
"m. c #F17F42",
"M. c #448242",
"N. c #498546",
"B. c #468843",
"V. c #498A46",
"C. c #4C844A",
"Z. c #4C8B4A",
"A. c #468349",
"S. c #51874E",
"D. c #4D914B",
"F. c #51924E",
"G. c #4A8354",
"H. c #568B55",
"J. c #559553",
"K. c #5C945A",
"L. c #5B8B78",
"P. c #678766",
"I. c #6A9969",
"U. c #749B74",
"Y. c #728D71",
"T. c #73A271",
"R. c #FE823B",
"E. c #8E8A73",
"W. c #B98268",
"Q. c #B48974",
"!. c #D88356",
"~. c #CC8158",
"^. c #EC8046",
"/. c #E2814F",
"(. c #F58243",
"). c #FD8542",
"_. c #FF8A44",
"`. c #F9894B",
"'. c #E88856",
"]. c #FF9256",
"[. c #C59278",
"{. c #D79B7B",
"}. c #CC8968",
"|. c #FF9D63",
" X c #EB996F",
".X c #FCA777",
"XX c #FAA06F",
"oX c #6D7C85",
"OX c #7C858A",
"+X c #768A95",
"@X c #7A9494",
"#X c #6C9489",
"$X c #7D9BA9",
"%X c #8A898B",
"&X c #819580",
"*X c #8B9896",
"=X c #999A9B",
"-X c #978A87",
";X c #B3988D",
":X c #93AE93",
">X c #8DAB96",
",X c #B0AC9C",
"<X c #919CA3",
"1X c #94A9AF",
"2X c #A9AAA9",
"3X c #A9ABB4",
"4X c #ADB2B7",
"5X c #B8B9B7",
"6X c #AEB5A9",
"7X c #A59CA5",
"8X c #CFAC98",
"9X c #F0B28E",
"0X c #D4B8A6",
"qX c #C7BDB8",
"wX c #B0C5B0",
"eX c #FFC39F",
"rX c #D2C4B9",
"tX c #F2C8AF",
"yX c #ABBACD",
"uX c #BBC4D6",
"iX c #B4C8CC",
"pX c #C7CAC8",
"aX c #D3CBC7",
"sX c #D9D6CB",
"dX c #C6CCD8",
"fX c #C7D4D7",
"gX c #D8D8D6",
"hX c #D3CED5",
"jX c #F8DAC8",
"kX c #E3DAD0",
"lX c #E6E7DC",
"zX c #F9E5D7",
"xX c #D8DCE3",
"cX c #C8DCE1",
"vX c #DCE4E6",
"bX c #E7E7E6",
"nX c #F7ECE3",
"mX c #FCF9EE",
"MX c #F8F4EA",
"NX c #F3F4F4",
"BX c #FDFCF2",
"VX c #FEFEFD",
"CX c #F7F8F7",
"ZX c #EBF0F1",
/* pixels */
"M.M.M.M.M.I I M.d M.M.d M.I I I I I I I I d C C C s L C Z C C Z Z Z I I Z I I A.d M.M.M.M.M.M.M.M.M.B.B.B.B.B.B.B.M.B.M.M.B.M.B.",
"M.B.M.Z M.I M.I M.M.d M.d I d M.Z I I I C d C C C s C C C Z A.Z I I Z I I C Z A.M.I M.M.M.M.M.M.M.M.M.B.B.B.B.B.B.B.B.M.B.B.M.M.",
"A.B.M.M.M.I Z M.I d M.I d I I M.I I Z C C C A.C P C C P C C d A.I I Z I Z Z A.A.M.M.M.M.A.J.D.A.I M.M.B.B.B.B.M.M.B.M.B.M.d B.M.",
"M.B.M.M.Z M.Z M.I M.d M.I I M.I I d A.C C C C A.P C C C Z C Z Z Z I I C Z I I A.M.M.M.B.K.T.I.A.V l M.B.V.B.B.B.M.M.B.M.M.M.M.M.",
"M.M.M.M.I I M.Z I I I I M.I I I I A.Z C s C s A.C C C Z Z Z Z Z Z I Z Z Z Z I I M.M.M.B.Z.H.C.P g c l M.B.B.B.M.B.B.B.B.B.M.M.M.",
"M.M.I I I d I Z I I M.M.M.M.I I Z A.C C C C C C C C Z Z Z Z Z Z I I Z Z I Z Z M.I M.M.I M.M.I B > 3 c l M.B.B.B.B.B.D.B.B.B.M.M.",
"M.I I I I Z M.M.I M.Z.V.B.I I I Z Z C P s P C C Z Z Z C C Z Z C C C Z Z Z Z Z I I I I I Z P P w = 3 7 n A B.B.M.B.B.D.B.B.B.M.I ",
"I I I I d I Z.B.B.D.D.B.I I d d A.Z C C s P C C C C C C C C C Z Z Z C Z Z C Z Z I I I I Z Z C 0 - 2 7 5 j P B.B.B.B.D.B.Z.B.M.M.",
"I I M.Z A Z F.F.F.F.Z.N.P P C P I C P C C C C s d d s V k V k k Z I P P Z Z Z Z Z Z Z Z Z Z p f - 6 3 7 c l M.M.M.V.D.B.V.B.M.M.",
"M.Z M.P I N.J.J.J.A.N.M.I C C M.I Z I C C C C s C k $ , % $ - - 8 e I I Z I Z Z Z Z Z Z A V x * - 6 2 3 5 g C M.B.Z.D.V.D.B.M.M.",
"I I Z I P U J.J.C.N.M.I P C P I I C Z C C C C C s x & & % b & % % # 8 V Z Z Z d Z d Z Z s f , - * - 6 2 7 c l M.B.D.Z.Z.Z.N.M.U ",
"I I Z Z U C.F.H.C.A.I I Z P I I Z Z Z Z I C C C Z x ] u.i.J 5.b & & , # 9 Z Z Z d Z d B g b v - * - - 6 5 5 j A N.F.V.Z.Z.N.M.M.",
"I I B.V.Y S.S.C.U A.I P C P M.P C Z C Z C d Z Z Z f 5.rXdXyX=Xi.[ & & % * = i Z Z Z i g O.#.3 @ @ - ; 2 % 3 4 L H.Z.Z.Z.V.N.M.M.",
"M.d N.N.T S.Y Y U I I I C P I d C C Z Z Z C Z Z N.f J aXZXdXyXyX1Xu.) F % @ X u B 9 c *.R.=.b , 7 ) ` ] b b 5 K U.I.S.N.Z.Z.N.Z ",
"P P Z P T Y C.U I I I Z P Z I C C C P T I P Z A.B.8 J gXNXxXdXuXyX3XQ.X._ & @ . f  .4.R.R.;.#.#.O.o...( _ _ ) M &X>XI.F.F.V.B.Z ",
"C P P L B T Y U A.I I Z Z Z Z C s L L P I P P B.M.9 J gXVXZXxXdXdXyX3Xu.+. .F %  .<.R._.R.^.^.>.s.*.*.O.' ` { n W P.P.F.Z.N.M.M.",
"P L P L L P T U I I P Z Z P Z Z C C d C Z Z Z A.M.9 K gXVXNXbXxXdXuXyX,Xf.%.+.+.:.).).)._.R._.(.b.m.m.b.;.$. .v l R H.U N.M.I M.",
"Z P P P P P C C Z I I I I Z Z Z C d C Z Z Z Z I Z e j aXVXCXZXhXdXdXuX;Xa.,.:.<.R.).).).).).).).m.m.m.m.(.v.+.3 h Y C U P M.I I ",
"I Z Z A Z I Z I Z I Z I I Z d d Z Z Z Z Z Z I d Z u = 7XCXVXbX0X;Xc.t.r.=.1.).).).).).).).).).).).).m.).(.^.=._ = C C Z M.Z M.I ",
"I I Z Z Z I Z P P I I I Z d P I d Z Z Z Z Z Z Z d s X ~ gXVXaX;Xt.9.=.-.<.m._.).).).).).).).).).).).m.).(.(.k.o.$ a C I Z M.M.Z ",
"M.Z Z Z Z I Z M.Z Z I Z I P P I I Z Z Z Z Z Z Z Z Z t K 7XdX8Xy.0.o.>.m.).)._.).).).).).).).).).).).(.(.`.b.v.$.b f Z I I Z Z Z ",
"Z Z M.I I P Z Z M.Z P I d I I P d Z Z P I Z Z Z Z C r > i.3X7X7.X.d.`.m.`.(.).).).).).).).).).).).).).(.(.^.v.j.o., B Z Z U Z Z ",
"M.Z I I Z Z P I I P Z Z P Z B B B P P P Z Z Z Z C C p = m -X4X;Xa.b.).m.(.R.).).).).).).R._.).).).).).(.(.^.n.z.$.c k Z I A A I ",
"M.I Z I P P I I I Z I U S S D N H M L C Z Z Z Z I Z d X 4 7.;X{.z.m.b.b.2.(.).R.).).).).).).).).).).).(.(.^.n.n.>.b k Z P Z Z Z ",
"M.I I Z I P M.I P Y Y.W.~.z.!.z.r.r.q.S A M.Z Z I M.d q # ] r.~.z.z.1.1.b.m.m.).).).).).).).).).).).).).(.b.n.b.x.` x d Z P I I ",
"I I I I I I I A.U.:XrX9X X X'.'./././.!.S d Z Z I P d p X v X.r.d.s.-.1.2.m.).).).).).).).).).).).).).(.b.b.m.m.^.$.g A Z M.M.Z ",
"M.I I I I I K.:XsXjXtXtX.X}.!.!./.z.z./.d.S C Z Z Z P d t ; | @.q.a.:.<.m.(.).).).).).).).).).).).).).m.b.v... .:.:.( V Z I I Z ",
"I I d I I J.wXMXmXzXtX8X8X}.!.g.l.l.z././.6.A Z Z Z Z Z p = ( X.O.*.:.m.).R.).)._.).).).).).).).).).).2.<.o.. . ' (.$.x C Z Z Z ",
"d I I I A.6XMXBXmXMXtX0X{.}.~.c.f.f.l.z.l.9.z C C A Z Z Z f 7 { #.;.1.(.).).)._.R._.).).).).).R.3.3.3.4.4. .+   ) (.1.N B Z Z Z ",
"M.I d K.:XbXmXCXmXmXlX0X[.~.~.~.c.d.d.f.w.] , g N N D D S , c { @.;.^.R.).).>.) &.1._.).).).R.R.].|.|.!.s.=.& 3 %.<.2.*.l Z Z Z ",
"d C.I.6XlXmXBXnXlXlXkX0X[.}.t.t.c.c.r.8.m 7 ) ..+.%.*.;.o.2 v @.$.l.^.(.`.R.b . . ) _.R.3.3.].9XjXMXnXrX,X[.c.h.:.4._.9X~ P Z Z ",
"M.K.:XsXmXmXlXsXsXaXrX8XQ.W.~.t.t.d.6.c 7 ..=.1.1.<.^.x...- v 9.w.k.^.(.(.:.; +   c 2.R.).9XjXBXxX<X%XiXpX6XqX0X9X9XeXmXiXY M.Z ",
"Z Z.wXMXMXkXqX5X5XqX8X;X;XW.c.c.t.0.4 7 O.1.m.).`.m.m.k.| - v 9.a.z.^.(._.^.&.@ ; ..3.].tXmXVXZX7X  O 5XbXhXfXvXCXBXVXVXiXA.I I ",
"I I.lXmXsX4X=X:X7X7X;X;Xc.t.t.e.6.n 4 O.m.).).`.).m.n.a.b @ 7 O.*.j.v.<.).).1.%.,.R..XzXVXVXVXNXgX=X%XvXCXZXVXCXVXVXVXbX$XB.I M.",
"V.wXBXsX2X-X%X%X-Xi.i.u.u.y.0.6.m : ` k.).).m.m.m.m.n.$.6 @ m 0.r.j.>.4.<.3.R._.|.eXnXVXVXVXVXVXVXVXVXVXCXVXVXVXVXVXCXiXL.M.I M.",
"I.lXkX4X%XOXOX^ ^ ^ ~ ~ i.7.5.H 1 4 o.v.m.(.m.m.v.s.$.7 @ / E.-X;X8X8X X X.X.XeXzXVXVXVXVXVXVXVXVXVXVXVXVXVXVXVXVXVXuX#XB.M.M.B.",
"T.lX6XE.P.R R Y H.R ~ i.i.H H m : 5 9.l.n.n.n.v.s.q.) : / 2XqX3X5XpXlXzXzXnXMXVXVXVXVXBXBXBXVXBXVXVXVXVXVXVXVXVXCXiXL.B.B.B.M.B.",
"T.,XU.Z.C Z Z C P P R W J H m 1 : 5 @.f.x.n.n.z.s.e.[ G +X3X3X2X2X4XpXZXVXVXVXVXVXVXVXBXBXBXBXBXBXBXBXVXVXVXVXVXcX#XA.M.M.M.M.B.",
"H.S.I d C C C C d Z Z T E j G 1 : 4 X.f.z.l.l.l.f.e.8.5./ ^ oXoX*X7X2XpXbXBXVXBXCXBXBXmXBXBXmXBXmXCXmXBXVXVXVXvX@XG.M.M.M.M.B.M.",
"I Z Z d C C Z C C Z I P C B h 0 o : } d.l.l.l.g.g.d.e.8.H Q Q ! ^ OX<X2XrXlXBXBXBXBXBXBXmXBXBXmXmXmXBXBXVXVXxX>XG.M.d M.d M.B.M.",
"I I I Z C Z C C C C Z d C Z C s L h | d.f.s.s.g.g.d.r.9.5./ K / Q Q ^ OX7XyXhXnXBXBXBXBXBXmXBXBXBXBXBXBXMXfX#XG.M.I M.d B.M.B.M.",
"I I I P C Z Z C C Z Z A.Z Z Z Z I a D h.f.a.q.d.g.d.c.r.9.o.| ] m m 1 G ^ oX=X5XgXnXMXBXBXBXBXmXMXZXlXiX1XL.G.I M.M.M.d M.M.M.I ",
"I I A.Z Z P Z C C C I I Z Z Z Z I s K h.f.a.9.e.d.f.c.g.d.9.X.X.| ) b 5 1 G Q oX*X3XwXhXgXgXpXiX4X2X@X! Y A.I M.M.M.B.M.M.Z M.M.",
"M.I A.I Z Z Z C C C C I Z Z C Z C s z h.g.a.X.6.8.h.s.d.g.r.e.8.X.6.[ 6.5.5 n G Q oX+X@X@X@X+X@X#X@XU.Z.B.I M.M.I B.M.B.M.M.M.M.",
"Z Z A.M.Z P d P C C Z Z C Z Z Z P L z r.g.f.9.[ [ e.s.f.g.d.r.q.9.9.8.6.| { | | 5.i.<X1X1X$X1X1X4XwXT.B.B.M.M.M.B.V.M.M.M.A.M.M.",
"M.Z M.P P Z I Z I C Z C C C Z C I p j r.g.g.w.6.] [ @.h.f.j.f.w.e.e.e.9.@.X.@.O.O.@.;XpXcXuXcXuXyX$XD.B.M.M.M.B.B.B.M.A.M.Z M.I ",
"M.Z Z Z C Z Z Z I C C d Z Z Z I I i : 8.d.s.d.9.] j n [ 9.d.d.w.e.w.a.a.a.a.q.a.*.=.}.kXCXNXCXcX@XT.D.B.I M.M.B.B.M.M.I M.M.M.I ",
"M.I I P C Z P d C C d Z C Z Z I I r < 6.9.e.s.q.M r X O , ] } @.X.@.w.s.s.j.s.-.s.l.{.jXCXBXCXrXP.D.B.M.Z M.A.B.V.V.M.A.I I M.M.",
"I I M.d Z Z Z Z C C P d s C C s p r 1 [ X.} @.N 9 u q O O . : j N | $.k.v.v.v.v.1.!.tXMXMXzXkX[.D D.V.M.C.K.K.Z.F.Z.M.I M.N.I I ",
"M.M.M.I Z Z C C Z C d p a i i a i q : m | | c 0 y u y q O O X r 9 M @.x.b.<.b.(.2.r.8XVXBXrX[.l.{ M.M.Z U.1X6X:XI.A.M.I I M.I N.",
"M.M.M.d Z C C C B i i y y y a y y 8 : 3 b 7 f r y y y y q t 9 y y l } j.b.<.b.).2.@.-XmXsXW.9.*.' V N.A P.Y.E.&XU.N.I M.M.N.N.Z ",
"B.M.B.d C C p p i i u u y i i i y 8 * 6 2 : 0 u y y y y y y y y y V [ a.k.:.1.<.<.o.~ >X~ N { #.&.h N.N.P E R Y Y A.I M.Z Z M.N.",
"M.M.d d s s s C p i a y y i i i i t @ $ $ # 9 y i y y y i y y y y u n o.$.*.=.-.=.` V L G - ( ' ) f C Z C C A Z Z M.M.Z N.N.M.Z ",
"M.M.M.d s s s C p i y i i i i i i q X X @ X 9 y y i i i i y u y y e g v ) ' ..o...c l a k < c b b , 9 p i p s B Z A M.M.M.Z M.M.",
"M.d M.d s d d M.C p s p p i i i i y q 9 9 9 i y y i i i y y y y y a x 4 v b _ ) b c k a e h , , 3 7 f i p p i i p Z M.M.M.N.M.Z ",
"d M.d M.d d Z M.M.C d d d s s s s i i i i i i i y i y i i y y i a p h : 6 b b b 7 , k p u 0 : > 5 b 2 9 i i i i i s Z N.A Z M.N.",
"M.M.I I I I M.M.A.I I M.I I d d d s d s s i i i i i i i i y i y i p 0 < 1 5 3 7 3 6 f i i q o : > 4 , 9 i i i i i p C Z B.M.M.Z ",
"M.M.I I I d I B.B.M.I M.M.I M.M.M.I d d d s s i i i i i i y y i p p q < 1 1 4 3 2 , > u i i e 8 8 X 9 i i p p p p s Z Z Z M.M.N.",
"B.I I Z I d d d M.M.M.M.U A.I.T.D.M.M.d d d d s s i p i i i i i p i q < < : : : : < 9 i p i s i i u i i i i s s C s Z Z Z N.Z M.",
"M.M.Z M.I Z I d M.M.M.M.U I Y H.B.M.M.M.M.d d d s s p s p s p i p p r o o o o o o q y i p s i s i p i i i C s Z C Z Z M.N.Z M.M.",
"M.d d M.d d M.M.M.M.B.M.M.B.B.A.B.M.d M.M.B.M.d d d d d d d d d s s s u e r a r y i i i i s i s i p i s Z Z Z Z Z Z M.Z M.N.M.Z ",
"M.M.M.M.M.M.M.M.M.M.B.M.M.M.M.M.B.d M.d d d M.B.M.d Z d d d d d Z Z Z C P s s s s s i s s s d d d s d Z A M.Z Z M.Z M.M.M.Z M.N.",
"M.M.M.M.M.d d B.M.B.M.B.B.B.M.I M.M.M.M.B.M.M.d M.d I I I I I I I I I I I Z Z Z d d d d d d d I d d d Z M.Z M.Z M.M.Z N.M.B.Z N.",
"B.M.M.M.M.M.B.M.M.M.B.M.M.M.M.d M.B.d B.d M.B.d M.M.M.B.M.M.M.I I I I I Z Z I Z d I I M.M.M.M.I M.I M.I Z M.M.N.Z N.M.N.Z N.A M."
};
