/* XPM */
static char *result[] = {
/* columns rows colors chars-per-pixel */
"64 64 241 2 ",
"   c #0E0C0C",
".  c #3A261A",
"X  c #2F2118",
"o  c #382924",
"O  c #393924",
"+  c #3C3C31",
"@  c #2D3228",
"#  c #201A15",
"$  c #462B1D",
"%  c #5A351D",
"&  c #42341C",
"*  c #68391D",
"=  c #753B1B",
"-  c #4A2D21",
";  c #4D352C",
":  c #473828",
">  c #5B3524",
",  c #5C3B2B",
"<  c #553828",
"1  c #443C31",
"2  c #502F22",
"3  c #653A25",
"4  c #6C3C24",
"5  c #6B3E29",
"6  c #633B28",
"7  c #713E25",
"8  c #36482C",
"9  c #3A532D",
"0  c #3B4731",
"q  c #365C33",
"w  c #3B5C33",
"e  c #385532",
"r  c #366635",
"t  c #396635",
"y  c #396B36",
"u  c #3B6D39",
"i  c #3C6539",
"p  c #3D733B",
"a  c #3F793D",
"s  c #45462A",
"d  c #56472C",
"f  c #43572E",
"g  c #484A33",
"h  c #574834",
"j  c #435C32",
"k  c #4A5934",
"l  c #545636",
"z  c #6C412B",
"x  c #67442A",
"c  c #754126",
"v  c #74432B",
"b  c #7B4629",
"n  c #684834",
"m  c #774834",
"M  c #675837",
"N  c #795636",
"B  c #75502E",
"V  c #426334",
"C  c #436B3B",
"Z  c #4A683A",
"A  c #556738",
"S  c #41763F",
"D  c #41793F",
"F  c #48753D",
"G  c #7B6A3C",
"H  c #564F50",
"J  c #6D564F",
"K  c #456E45",
"L  c #437540",
"P  c #437C40",
"I  c #497C45",
"U  c #4C7C4A",
"Y  c #4A7448",
"T  c #557451",
"R  c #6F6C54",
"E  c #4E5B65",
"W  c #5A6B6D",
"Q  c #687174",
"!  c #854B2B",
"~  c #894A29",
"^  c #8A552D",
"/  c #94522D",
"(  c #9B542C",
")  c #874E33",
"_  c #895538",
"`  c #945333",
"'  c #945639",
"]  c #9C5B3D",
"[  c #985838",
"{  c #904D27",
"}  c #A6572D",
"|  c #A45B35",
" . c #AC5D33",
".. c #A45E3C",
"X. c #A65B36",
"o. c #B45F30",
"O. c #856738",
"+. c #AC623C",
"@. c #A7613A",
"#. c #BB6333",
"$. c #BD693C",
"%. c #B66439",
"&. c #82431F",
"*. c #C56937",
"=. c #C36A3B",
"-. c #CB6E3B",
";. c #CB6B35",
":. c #D56F38",
">. c #D4723C",
",. c #DC743C",
"<. c #DE7135",
"1. c #D06E39",
"2. c #EC7B3D",
"3. c #E4763B",
"4. c #F37E3E",
"5. c #FC7D36",
"6. c #8F5D46",
"7. c #98664A",
"8. c #9E765A",
"9. c #AC6442",
"0. c #A76342",
"q. c #B46944",
"w. c #BC6C43",
"e. c #B76C48",
"r. c #BB724B",
"t. c #BA7756",
"y. c #A37257",
"u. c #8B7369",
"i. c #A3796B",
"p. c #C46F44",
"a. c #C57146",
"s. c #CD7243",
"d. c #C3734B",
"f. c #CB764A",
"g. c #CD784C",
"h. c #D27442",
"j. c #DD7944",
"k. c #D3794B",
"l. c #DC7B49",
"z. c #D77745",
"x. c #D17B50",
"c. c #E37C44",
"v. c #EA7D42",
"b. c #E37E48",
"n. c #F17F41",
"m. c #448242",
"M. c #498546",
"N. c #468843",
"B. c #498A46",
"V. c #4B844A",
"C. c #4C8B4A",
"Z. c #47834A",
"A. c #51874D",
"S. c #4D914B",
"D. c #51924E",
"F. c #558A55",
"G. c #599557",
"H. c #4A8153",
"J. c #5B876D",
"K. c #678868",
"L. c #749875",
"P. c #699170",
"I. c #73A373",
"U. c #609B5E",
"Y. c #FE823E",
"T. c #878C7D",
"R. c #B7856C",
"E. c #D7855A",
"W. c #C9825A",
"Q. c #EC8046",
"!. c #E9824B",
"~. c #F58243",
"^. c #FE8542",
"/. c #FD8947",
"(. c #EA8A56",
"). c #F58D54",
"_. c #F5915A",
"`. c #D09071",
"'. c #F69B69",
"]. c #E39D76",
"[. c #EF9B6D",
"{. c #FAA679",
"}. c #EBA47B",
"|. c #6E7B84",
" X c #788B95",
".X c #7D939C",
"XX c #6D8C85",
"oX c #7EA2A9",
"OX c #849A88",
"+X c #869598",
"@X c #989598",
"#X c #918988",
"$X c #B69D99",
"%X c #AE9D8F",
"&X c #92A995",
"*X c #8CA892",
"=X c #B2AA9E",
"-X c #899EA8",
";X c #97ACAF",
":X c #A9AAAA",
">X c #A4A8B4",
",X c #A9B6B8",
"<X c #B8B8B7",
"1X c #B2AFA7",
"2X c #A89BA4",
"3X c #CE9B84",
"4X c #D1AB94",
"5X c #F8AC83",
"6X c #EFB392",
"7X c #C6B6B3",
"8X c #F2BEA1",
"9X c #BBC5BD",
"0X c #FEC6A7",
"qX c #F7CCB3",
"wX c #EEC2A9",
"eX c #B0B6CA",
"rX c #9FBBC1",
"tX c #C3BEC5",
"yX c #B6C3C7",
"uX c #B5C8D2",
"iX c #C9C8C8",
"pX c #C1C9DA",
"aX c #D8D9D9",
"sX c #CCD4D6",
"dX c #FBDCC9",
"fX c #EAD9CC",
"gX c #FDE8DA",
"hX c #E6E2D9",
"jX c #D4D9E2",
"kX c #D7E1E5",
"lX c #ECECEC",
"zX c #E6E7E7",
"xX c #FAEDE3",
"cX c #FCF4EB",
"vX c #F8F4EB",
"bX c #F4F5F5",
"nX c #FDFCF3",
"mX c #FEFEFC",
"MX c #F9F9F6",
"NX c #EEF2F3",
"BX c #DEE0DB",
/* pixels */
"m.m.m.m.m.a m.m.a m.a m.a P P P a P P P P S L p p S S S P S S p D Z.P P D P P P P P m.m.m.N.m.m.m.m.m.N.N.N.N.N.N.m.m.m.m.N.m.N.",
"m.N.m.P m.P P m.a m.m.a m.a a m.Z.P P P a S a K L S S S S S D Z.a a P P P D Z.Z.m.P m.m.m.m.m.m.m.m.m.N.N.N.N.N.m.N.N.m.N.m.m.N.",
"N.B.m.D P P P m.m.m.P m.P a P m.P P D S p L P P S S S S S S P P Z.P P a D D P Z.m.m.m.m.N.F.D.m.P P N.N.N.N.N.N.N.N.m.N.m.m.m.m.",
"m.N.m.m.P P P P m.a P P P P m.P P a Z.S p S P Z.S p K S P a S S a p D L D P m.Z.P N.P N.G.I.I.L l V m.N.N.N.N.N.N.m.N.m.m.m.m.m.",
"m.m.m.P P P m.P P P P P m.P P P D Z.a S K p S Z.S S S S P S S P D P L P D P D P P m.m.N.C.F.A.C d 6 l B.B.N.N.m.N.N.N.N.m.N.P m.",
"m.m.P a P P m.P P P m.m.m.m.P P D Z.p S p S S D S a S P S P P P P D D D D P P P m.m.P m.m.P D f , 7 6 Z N.B.N.m.N.N.S.B.N.N.m.m.",
"m.P P P a P P P P m.C.B.N.P P P a P S S p S S S P P S S a S P a D S D D D D D P m.P P P P P S 0 > 4 7 h K N.N.N.m.N.S.N.N.N.m.m.",
"m.P P P P P C.N.m.S.S.Z.m.P a a Z.P S S S S S p S S S S S S S S D D D S D S D D D P P D D L C + > 3 7 5 g I m.N.N.N.S.N.B.N.m.m.",
"P m.D P F F D.S.D.D.C.m.P L S L D T &X*XD.D a p a p j k j j j C D P L P D D a P D P P S F D w : 2 3 4 7 n k m.N.N.B.S.N.B.B.m.m.",
"P P P P D N.G.D.D.C.N.m.P L S U P.9XNX9XF.D p S j % 3 * * % 2 2 8 u D S D D D a a P D S S w s 2 2 6 3 4 5 h p P m.C.S.B.B.B.M.m.",
"P P P P F M.G.G.A.Z.m.P L L Y +XaXmXbXOXU S S S j = 7 7 c = 7 4 % : 9 p F D D S a P a S f > , 2 2 > 3 4 5 x k P N.S.C.C.B.M.M.m.",
"P P F P L V.F.D.U m.I P L K &XlXmXmXlXK.L S S S j B y.#Xu.R 7 7 = * % : t D D a S a D j c ! 3 - - 2 2 3 5 5 d L M.D.C.B.B.M.M.D ",
"P P N.B.U A.A.V.I m.P P Y *XNXmXmXmXkXJ.D S S L V v 7XaXeX>X#Xu.! = = * $ 9 D D L a f ^ *./ % $ - > 3 4 7 4 6 Y F.F.C.B.B.B.m.M.",
"m.a m.M.U A.U U I P P I .XNXmXnXnXmXaXJ.D S D P w n 7XNXjXpXeX>X@X7.&.= % . 8 C f s ( ,.Y.%.c x ! / / ! 7 7 z R L.U.A.C.C.C.m.D ",
"P L P K K U V.I I P P Q zXmXnXnXnXmXjXQ P S a m.C n eXmXkXjXjXeXeX2Xy.{ &.* X O c #.Y.Y.Y.=.%.@.%. .( ~ ! ~ ) M OX*XU.F.D.B.M.D ",
"L F S K C Y U U m.P T yXnXmXnXmXnXmXkXJ.P D L m.C h tXmXlXzXjXpXeXeX$Xe.} ( = = ;.Y.Y.Q.Y.z.Y.>.h.-.=.o.| ( ( n R P.K.D.C.M.m.m.",
"S K K C L L Y P I S L.bXnXnXmXMXMXmXaXL.a D P m.C h <XmXbXNXkXpXpXeXeX`.*.*.o.;.Y.^.^.^.^.^./.~.v.n.n.n.z.#./ 5 H T F.V.I M.D m.",
"S S L L C L L P F K tXMXnXnXmXnXnXmXzXT.L D P P y 1 %XmXnXlXjXtXtXtX1Xt.;.<.3.~.^.^.^.^.^.^.^.^.n.n.n.^.n.c.} 3 g U L P P P M.D ",
"F P D D S P P P D T hXnXnXmXmXmXmXmXvX%XA P P S p 8 u.zXmXlX7X3X%Xt.r.*.:.Y.^.^.^.^.^.^.^.^.^.^.^././.n.n.n.*.7 s F D P m.m.D m.",
"P P D D S P P L F R dXxXcXnXmXnXMXcXgX6XR D D S S 8 J <XMXaX4Xt.o.#.;.3.2.^.^.^.^.^.^.Y.^.^.^.^.^.n./.n.n.n.z.} % t D D D D m.D ",
"P P P P P P P P F 8.wXfXdXcXcXcXgXdXqX{.$.A P a a q h #XiX7Xi.y.0.s.n.n./.^.^.^.^.^.^.^.^.Y./.Y.^.^.^.~.~.b.l.$.b s S P D D I D ",
"P P P D F P L P C 8.6X8X0XqXqXqXqX0X8X{.(.O.F P D i + J @X>Xi...e.b.^.n./.^.^.^.^.Y.^.^.^.^.Y./.^.^.^.n.~.!.b.h.} < C P D D D D ",
"P a D P D L D D Z 0.`.}.].}.{.5X5X{.}.[.!.$.A a L S 8 5 u.>X$Xt.l././.n.Y.~.^.^.^.^.^.^./.Y.^.^.^.^./.n.~.!.v.b.%.d V P D D F D ",
"m.P P P S P D P Z 7.E.E.E.(.(.'.'.'.[._.!.1.M D D L e - 6.R.3XE.v.v.3.2.~.Y.^.^.^.^.^.^.^.^.^.^.^.^.n./.n.b.b.b.;.c j D F F D D ",
"m.P a P P P P P C ' g.k.l.!.(.)._.(._.!.c.-.N F m.m.y O v @.g.g.k.j.3.2.n.^.^.^.^./.Y.^.^.^.Y.^.^.^.^.^.Q.v.b.Q.z.^ f D D D D P ",
"P P P P P P P I Z 6.g.k.l.b.!.).(.(.!.!.>.-.^ A P a S 8 3 ` e.r.a.:.:.4.4.n.^.^.^.^.^.^.^.^./.^.^.^.^.~.v.v.2.c.3.%.d D D P m.P ",
"m.P P P P P Z.P S N g.g.l.c.v.Q.Q.!.>.-.-.$.^ A D D S q - m +.9.p.1.3.4.4.^.^.^.Y.^.^.Y./.^.^.^.^.^.^.v.2.>.{ / ,.z.! V D D D D ",
"P P a P P P P I P M r.g.k.l.b.c.!.!.>.-.;.$./ k D D S u s 7 ..X.*.:.v.n.^.^.^.^./.^.^.^.Y.^.^.^.^.^.^.v.3.( # .  .~.%.d F D D D ",
"P P a P P a P P P l q.d.k.z.z.j.>.-.=.#.$. .! k F F D F 9 > ` X.$.,.2.Y.^.^.~.~.~./.Y.^.^.^.^.Y.Y.Y.Y.<.:.~ # . [ ~.,.b S D F D ",
"a P P P P P P P P A 6.r.d.f.h.s.s.$.X.| ( b c b ^ ^ O.G d 3 ` @.-.j.~.^.^.Y.} x } Y./.Y.^.^.Y.^.).'.[.W.h.$.4 c 1.3.~.$.k D D D ",
"P a P P P P P D P S N r.e.r.a.p.%.X.^ v 7 { } #.%.$.-.$.b 5 ..+.a.3.~.^./.#.$ X $ *.^.Y.Y.Y.'.0XgXMXxXiX=X`.E.!.<.3./.0XK.D D P ",
"m.P P P a P P a L P k _ 9.9.9...[ ! 6 7 } ;.<.3.Y.z.Q.%.3 > @.%.f.c.~.^././ $ . X @.Y.Y./.0XcXmXiX#X+XiX9X,X<X7X6X5XqXmXyXU P P ",
"P P P D P D D L a D a l _ ' ` ) ! > 7 #.c.n.n./.n.v.c. .> > ..q.z.l.~.~./.1.> . v 3.5.{.gXmXmXaXQ   + iXBXsXaXzXbXmXmXMXrXZ.m.m.",
"m.P P P D D D D P S a S l m m m > 7 #.4.n.^./.n.n.v.s.[ 2 > ..w.k.l.b.~.^.^.,.:.5.^.0XcXmXmXmXmXBX2X:XNXbXbXmXmXmXmXmXzXoXN.P P ",
"P P D D D D L D S S S D F l v v > ` h.n.^.^.n.n.n.b.=.7 $ , ] w.a.>.<.2.Y.Y.Y.Y.{.dXnXmXmXmXmXmXmXMXmXmXMXmXmXmXmXmXNXeXJ.m.P m.",
"P P P D D P P D L a S a D S A h 5 X.j.v./.n.v.b.s.p.{ $ H #X#X%X4X4X].].[.{.5XdXcXmXmXmXmXmXmXmXmXmXmXmXmXmXmXmXmXmXuXP.Z.m.m.N.",
"P a P P D D D D D a S D D D p k z ..h.b.v.v.b.h.p.` , H 2X1X>X<X<XaXxXxXcXcXnXmXmXmXmXmXnXnXnXnXmXmXmXmXmXmXmXmXNXuXJ.Z.N.m.N.N.",
"P P a P L D L D D S S D S D D K n ..s.l.b.b.k.f.q.6.H |.>X2X:X:X1X9XaXcXnXmXmXmXmXnXnXnXnXnXnXnXnXMXnXmXmXmXmXmXuXXXZ.N.N.N.N.m.",
"P a P a P L L D a L S a a D a K n ] f.k.l.k.k.g.e.0.6.J W |.|. X&X1X<XsXvXnXnXnXnXnXnXnXnXnXcXnXcXnXnXnXmXmXmXkXXXS.m.a m.N.a N.",
"P P D D p L D p S a D D a a a K h ' f.k.k.f.f.g.d.e.] 6.E E W |.|.+X:X<XaXvXnXnXnXnXvXnXnXvXnXcXnXnXvXnXmXmXsXXXH.m.a m.a a N.N.",
"P P D S D D S S S D a S S a a P k ' d.f.s.a.f.f.d.d.e.6.J J J H H E Q @X2XtXhXcXcXMXnXcXnXvXnXnXnXnXmXMXNXuXXXZ.m.m.m.a m.N.m.m.",
"P P P D L D D S S S P Z.P a S P i N d.f.a.w.r.f.g.d.t.9...6.6.) m J H E |.+X>XiXzXxXnXnXnXnXnXnXnXvXaX9X.XJ.Z.P a m.m.m.m.m.m.m.",
"P m.N.D D S D L p D p Z.P P S P p M d.x.p.q.9.d.d.d.d.d.w...] ] ) ) ! 5 H H Q |.+X>X<XiXiXsXyX,X;X@XXXW Z.N.m.P N.N.N.a m.m.m.a ",
"P P m.P D D D S S S D P S S S a p l e.x.p.+.6.0.d.f.f.d.d.e.0.] ] 6.) 6.6.5 H H W  XoX+X.X X X X.X*XI.Z.N.N.m.m.a N.N.m.m.m.m.Z.",
"P P I P S D D L S P S S D D D D L l r.x.d.q.' ) 9.f.f.f.f.d.q.9.+.0.] 6.` | ' 6.6.#X;X;XoXoX;XrXrX&XU.N.N.m.m.m.m.B.Z.m.m.a m.m.",
"P P m.P D D P D S P S D p p D D S h e.x.f.d.] ) _ ] a.k.k.k.d.q.q.q.q.0...+.%.+.o.y.1XsXuXpXkXuXrXoXS.N.m.m.P N.N.N.N.m.m.Z.m.P ",
"m.P P S L P S S S D S S P a L D u g ] d.f.f.e.6.n , m 0.p.f.a.q.q.p.p.p.w.$.=.=.=.*.3XzXmXbXmXyXOXU.S.N.m.P m.N.N.N.m.P P Z.m.P ",
"P P P S S S D S S D S P p P P P i ; _ 9.9.a.w.m e 8 o ; v ' @.@...w.p.s.h.s.s.s.h.E.8XgXMXmXbX%XF.S.S.m.P m.N.N.N.Z.m.m.m.P m.m.",
"P P m.a D D D D S S L D S S S p q ; _ ] ....N f t q @ o o : h h ) @.s.z.c.c.j.c.,.].fXvXcXhXwXW.A D.C.F V.G.G.D.S.C.m.D M.D M.m.",
"m.m.m.P D P L D S D S L u u y r e < v ' ' v s q r r q @ X @ e e g [ h.3.Q.3.~.~.3.t.fXmXxX7XR.k.N N.N.F L.:X1X&XP.M.D M.m.m.M.D ",
"m.m.m.m.P a P P P S a u u r r y 8 : 5 v v s w t r r u q 8 8 r r r N a.c.2.2.Y.^.<.6.iXvX1Xy.w.-.B C B.F K.P.L.T.L.M.D P m.F m.D ",
"m.m.m.a D P P I L D p u r r y y 8 - 6 6 > 0 t y r r r r r q r r t M +.h.,.,.3.4.:._ T.OXR ^ ..o.v j C.I U T T T V.m.P M.m.m.m.m.",
"m.N.N.a a a P Z.P S S p u u y y 8 . 2 % 2 8 r y r r r r y r r y t l ) %.#.=.;.1.$.x C C g z ) ( c f D F S S S D D m.D M.M.m.m.m.",
"N.a m.a P a I N.P S S p u u y y 9 O O - O 9 r r r y y r y r r r t f 5 ! / /  . ./ d w i g h v b b : t y u u u u S D m.D M.D m.I ",
"m.m.a N.P P P Z.I P a D S p u y y q 8 9 9 y y y r y y r y t r t i w , 5 b b ! ! c d V i w ; , , c 7 s y u u y y u F m.M.m.m.m.D ",
"m.a N.a m.P m.N.Z.P P m.a a S u y p y y y y y y y y y y r y y t t i ; , c c c c * d i u w 1 ; < 5 c d q y y y y u u F D m.D m.M.",
"m.m.P P P m.P N.m.m.P P P P P a a a a a y y y y y y y y y r y r i i 1 < 6 5 7 4 4 > f u t 0 1 ; < 3 s w y t u u u u S D m.D m.m.",
"N.m.P P P P P N.m.m.m.m.m.P m.m.P P a a a a u y y y y y y r r y u i 1 ; , , 6 5 6 ; f t u i 9 9 0 0 9 y y y u u u p D D m.m.D m.",
"m.P P P a D a a m.m.m.m.I V.L.I.C.m.N.a a a a a u u y y u r y y u r + 1 ; ; ; , ; : w u u u u y y y y y y u p p p a D D m.D M.m.",
"m.m.D P P D m.a m.N.m.m.P P U C.N.m.m.a m.a a a a a p p u p u u u i 0 + + + + + 0 q y y y y u p y y y y u p p a a D D m.m.M.m.D ",
"m.a m.m.a a m.a m.m.N.m.m.m.M.Z.m.m.a N.a m.N.a a a a a a a p a S S S q w r q i y y y y y y y p u u u p p a a D D D M.D m.M.m.D ",
"m.a m.m.m.m.N.m.m.m.N.m.m.m.m.m.m.m.m.a m.m.m.m.a P a a a a a a a D a L K S S u p p y p a a a a p p a a F D D P m.m.D m.F M.m.m.",
"a N.a m.m.m.m.m.m.m.m.N.m.m.m.m.m.N.a m.m.m.m.a N.a P P P P P P P P P P D D a D a a a a a a a a a a D D m.m.D M.m.F m.m.D M.m.F ",
"N.N.m.N.a N.m.m.m.m.N.m.N.m.m.P a N.N.m.m.m.N.a m.m.m.m.m.m.P m.P a P P D P D D a m.a m.m.m.m.P m.P m.P D m.m.M.m.m.D M.m.M.m.m."
};
