/* XPM */
static char *result[] = {
/* columns rows colors chars-per-pixel */
"64 64 245 2 ",
"   c #121011",
".  c #221A16",
"X  c #3C291A",
"o  c #392924",
"O  c #393826",
"+  c #3E3D31",
"@  c #2E3327",
"#  c #482B1D",
"$  c #5B341D",
"%  c #4E301D",
"&  c #67391C",
"*  c #773C1A",
"=  c #483927",
"-  c #5B3422",
";  c #543B2D",
":  c #583927",
">  c #453B31",
",  c #4D2E20",
"<  c #643A25",
"1  c #6B3C24",
"2  c #673C28",
"3  c #713E24",
"4  c #38482C",
"5  c #3A542E",
"6  c #3C4831",
"7  c #3A5D34",
"8  c #375731",
"9  c #2F4A2D",
"0  c #366535",
"q  c #396635",
"w  c #396A36",
"e  c #3B6D39",
"r  c #3B6538",
"t  c #3D733C",
"y  c #3F793D",
"u  c #47482B",
"i  c #59452B",
"p  c #45532E",
"a  c #454932",
"s  c #574932",
"d  c #435B33",
"f  c #495832",
"g  c #565735",
"h  c #6E412A",
"j  c #684729",
"k  c #754226",
"l  c #7A4326",
"z  c #74432A",
"x  c #79472B",
"c  c #6A4833",
"v  c #784A34",
"b  c #675838",
"n  c #795835",
"m  c #73522E",
"M  c #436C3B",
"N  c #486537",
"B  c #566939",
"V  c #41763F",
"C  c #41793F",
"Z  c #51733E",
"A  c #766639",
"S  c #56514D",
"D  c #645148",
"F  c #705A52",
"G  c #456E42",
"H  c #437540",
"J  c #4A7344",
"K  c #437C40",
"L  c #4A7C45",
"P  c #4C7A4B",
"I  c #557649",
"U  c #4D7551",
"Y  c #5B7052",
"T  c #776958",
"R  c #6C6C52",
"E  c #555C63",
"W  c #64717A",
"Q  c #70716F",
"!  c #506573",
"~  c #84451F",
"^  c #834A2A",
"/  c #8B4C2B",
"(  c #824729",
")  c #98532D",
"_  c #874D32",
"`  c #895436",
"'  c #955434",
"]  c #9A5634",
"[  c #9B5A3A",
"{  c #955739",
"}  c #90512A",
"|  c #A4572D",
" . c #A55A34",
".. c #A75D38",
"X. c #B35F33",
"o. c #B75D2B",
"O. c #AC613C",
"+. c #A9603B",
"@. c #BA6435",
"#. c #B76439",
"$. c #BF622E",
"%. c #856536",
"&. c #D8692D",
"*. c #C36B3B",
"=. c #CB6D3B",
"-. c #C86935",
";. c #D46D36",
":. c #D5733D",
">. c #DB743C",
",. c #DC7036",
"<. c #CF713F",
"1. c #EC7B3D",
"2. c #E5763A",
"3. c #F37E3E",
"4. c #FD7D36",
"5. c #E96F2F",
"6. c #C55D24",
"7. c #8B5E47",
"8. c #996447",
"9. c #9C7359",
"0. c #AC6541",
"q. c #B26641",
"w. c #B36944",
"e. c #BC6B43",
"r. c #BB6F49",
"t. c #BA734B",
"y. c #AE7456",
"u. c #87746E",
"i. c #AA7B69",
"p. c #C26E43",
"a. c #C86E41",
"s. c #CC7244",
"d. c #C4734A",
"f. c #CB7549",
"g. c #CD784C",
"h. c #C67145",
"j. c #D37543",
"k. c #DD7944",
"l. c #D3794B",
"z. c #DA7C4A",
"x. c #D87743",
"c. c #CC7B52",
"v. c #E37B43",
"b. c #EB7E43",
"n. c #E47E48",
"m. c #F27F41",
"M. c #448242",
"N. c #498446",
"B. c #468843",
"V. c #498A46",
"C. c #4B844A",
"Z. c #4C8B4A",
"A. c #468249",
"S. c #51874D",
"D. c #4D914B",
"F. c #51924E",
"G. c #4A8252",
"H. c #548853",
"J. c #599456",
"K. c #628D5A",
"L. c #5A8367",
"P. c #598C74",
"I. c #648868",
"U. c #699769",
"Y. c #739773",
"T. c #698D75",
"R. c #73A373",
"E. c #FC813D",
"W. c #83907D",
"Q. c #B9886F",
"!. c #D98457",
"~. c #EC8146",
"^. c #EB824A",
"/. c #E8844D",
"(. c #F48243",
"). c #FE8542",
"_. c #FF8944",
"`. c #F9874A",
"'. c #E98A58",
"]. c #FA945B",
"[. c #F18F5A",
"{. c #CF8D6B",
"}. c #F59B69",
"|. c #EB9C71",
" X c #F6A578",
".X c #E7A37C",
"XX c #6D7A84",
"oX c #79868A",
"OX c #7D929B",
"+X c #71908C",
"@X c #7FA5AB",
"#X c #7F99A5",
"$X c #899698",
"%X c #989496",
"&X c #8D9086",
"*X c #B99E98",
"=X c #A79689",
"-X c #8EA995",
";X c #8198A1",
":X c #90A9B0",
">X c #A7A9AA",
",X c #A6ABB5",
"<X c #ACB1B2",
"1X c #B7B6B5",
"2X c #B2ACA7",
"3X c #B2A19F",
"4X c #CD9B84",
"5X c #D7A88E",
"6X c #FAAE83",
"7X c #F0B493",
"8X c #C2BABA",
"9X c #CBB6AA",
"0X c #F2BFA0",
"qX c #B2C4B7",
"wX c #FBC5A6",
"eX c #FACDB4",
"rX c #E5CABA",
"tX c #E6C1AC",
"yX c #B1B8CC",
"uX c #9EBAC3",
"iX c #C2BFC8",
"pX c #BAC5C7",
"aX c #B5C9D5",
"sX c #C7C8C8",
"dX c #C5CBD8",
"fX c #CCD5D8",
"gX c #D7D9D7",
"hX c #CED0CD",
"jX c #FBDAC7",
"kX c #E6D6CD",
"lX c #EBE5DD",
"zX c #FAE9DC",
"xX c #FAE2CF",
"cX c #D7DBE4",
"vX c #D5E1E3",
"bX c #EDEDEC",
"nX c #E4E7E8",
"mX c #FCEDE3",
"MX c #FDF4EC",
"NX c #F8F4EB",
"BX c #F3F4F3",
"VX c #FDFCF4",
"CX c #FEFEFD",
"ZX c #F6F9F8",
"AX c #EEF0EB",
/* pixels */
"M.M.M.M.y M.y M.M.y y M.K K K K K K K K K y H V t t t H C C H C C A.y K y K K A.C M.M.M.M.M.M.M.M.B.M.B.B.B.B.B.M.B.M.B.M.M.M.B.",
"M.B.M.K M.M.M.M.M.M.M.M.y K y M.K K K K V V H t V G V H C C C C C C y A.K K K A.M.K M.M.M.M.M.M.M.M.M.B.B.B.B.B.M.B.B.M.B.M.M.B.",
"B.B.M.K y M.y M.M.M.y y K K K M.K K K H V H A.A.H V V t H y K K A.A.y y K y K A.M.M.M.M.B.J.G.M.K K M.B.B.B.B.B.B.B.M.B.M.M.M.M.",
"A.B.M.M.M.K K K y K M.K M.y M.K K y A.V t t K K H y H H y H y K y H V V K y A.A.M.M.M.B.J.R.R.M.J f N M.B.B.B.B.M.B.B.M.M.M.M.M.",
"M.M.M.y M.y M.K K K M.H K K M.K K K K t t V H K y y y H y H H y K K K y H y K K K M.M.M.S.F.S.M.M i 2 N N.N.B.M.B.B.B.B.M.B.M.M.",
"M.M.M.M.M.K M.K K M.K B.M.M.K K K K H V V V H V y H K H y K y K y K H H K K K K M.M.M.M.K K C C f : 1 j N N.B.M.M.B.D.V.B.B.M.M.",
"M.K M.y C H M.K K M.V.V.A.K K y K A.V V V t V V C K H y H H K H V y K K y H K K C M.K M.K C C V a - 3 3 s J A.B.B.B.D.B.B.B.M.M.",
"C K y K H K Z.B.M.D.D.A.M.C y C K K H K P H t V H H y V y t y V y H y H K y y H M.C C C C C M.M + - 1 3 3 s K N.B.B.D.N.V.B.M.M.",
"M.K M.K V M.F.D.F.F.Z.M.K H V H C L U -X-XZ.V V C y w N d d f d t t C C C C C y C H K C C C C d = - < 1 1 c N M.M.V.D.V.V.V.M.M.",
"M.K C C V B.J.F.F.Z.N.M.K V H K L T.sXAXqXJ.V t t d $ & & & - - = 5 e V C C y C C C C C C V d u , , < 1 3 3 s V B.Z.D.V.V.V.M.M.",
"M.y K H V L J.J.S.N.A.K K H H U $XvXCXBX-XJ V V V f & k 1 k 3 3 & & = 5 t C C H C y y V C p i & , , - < 1 3 j f M.D.D.V.V.N.N.M.",
"M.K C C Z C.J.H.L A.K K H H U -XAXCXCXnXI.V V y C f k i.&Xu.F v * * & $ = r V t C H y V f j ( j , , , - < 3 h s Z F.V.D.V.N.N.M.",
"y y B.Z.C.S.S.C.L A.M.H H U $XBXCXCXCXgXL.V V V M.N c 9XcXyX,X%X9.x * * - # 5 M C y M p } -.) $ # , - 1 & 3 1 i I Z.Z.Z.N.N.M.M.",
"K M.A.N.L S.I L K K K H P $XBXCXCXVXCXfXL.V C K M.Z F 2XBXcXdXyX,X%X7.~ * - X O M 7 u ) ~.E.X.k 3 ( ' ) / l l k D U.S.Z.Z.Z.N.M.",
"C H V J G P S.L L K K K T.nXCXCXVXCXCXfXL.C V M.N.I R 2XZXnXcXdXyXyX>X9.) ~ & X O j -.1.E.E.*.O.@.X.X. ./ ( / / b &XU.Z.F.V.M.K ",
"H H H M G J P L M.K K U 8XCXVXZXCXVXCXfXI.V C N.N.H.T 2XCXbXnXfXdXyXyX3Xr.| ) * * -.E._.E.E.E./.v.:.=.-.@.| ] ] b Y I.F.V.N.N.K ",
"H G M G G J J K K K H oXNXZXVXCXVXVXCXcXY.C C A.M.S.T 3XCXZXbXcXdXdXaXyX{.-.$.o.-.3._._.).).).).m.m.m.m.b.>.@.) h G H.C.L N.C M.",
"V V V J H H H H K H U pXCXVXVXCXVXVXCXnXW.L C C V L R =XCXCXNXcXiXiXiX2Xi.=.,.1.E.).).E.).).).).).).m.`.(.).2. .1 u H H K K N.C ",
"K C C C C K C K K K Y lXVXVXVXCXCXCXCXMXQ.Z C C C C R Q nXCXbXiX4XQ.i.d.-.,.(.).)._.).).E._.).).).).).m.(.`.(.=.3 u M K M.C C M.",
"K K C C V K C K K K 7.xXmXMXVXCXCXVXmXxX5XA C C C Z I D 2XZXgX4Xy.X.o.&.2.m.)._.).).).).).).).).).).).).).(.~.x.| - N K C M.M.C ",
"K K K C K K K C H V 9.tXjXjXmXMXmXzXjXeX6Xt.Z C C V Z b u.hXyXi.9.+.=.b.).).).).).).E.).E.).)._.).).).).(.(.(.k.-.^ u V C M.C C ",
"K C K K K C H K L M 9.7X7X0XeXeXeXeXwX7X X'.%.V C V J b F %X,Xi...e.n.).(.)._.).).).).)._.).).).).).).).(.(.^.b.:. .% V C C C C ",
"M.K K C C H C K K N 8.|..X4X X X X6X X.X}./.@.B C C V b < u.:X3Xc.v.`.(.~.(.).).).).E._.).).).).).).).`.(.m.b.^.v.@.< N V C C Z ",
"K K K C H H K K K N 8.c.!.'.'.[.}. X}.|.[.~.-.b C C C Y 2 v Q..X!.b.m.v.1.E.E.).).).).).).).).).).).).).`.(.^.b./.=.l d V C C C ",
"M.K K K K H M.K C N [ g.l.v.n.[.[.[.[.'./.v.=.%.M C C Z j $ 0.!.l.z.x.2.2.3.(.).).).).).).)._.)._._.E.`.E.~.E./.^.k.} p V C C M.",
"M.y M.K K K K A.H M 7.g.l.k.n./.`./././.k.x.*.` N C C C g # { t.d.f.:.,.3.m.(.).)._.).).).).E.).E._.E.E.E.E./.^.(.~.#.i C K M.C ",
"y M.y C K K A.L C V n g.l.z.n.v.E././.>.:.=.*.} N C C C 7 # _ ..q.a.:.2.E.(.E.)._.E._.E.)._.).)._._.(.`./.;.E.<.<.~.:.} N K C C ",
"K K K K K K K K C C b t.g.l.k.v.x.~.~.:.<.*.@.} g C C V M 4 x  .X.#.:.1.(.E.).)._.E._._._.E.).)._.E.E.E.E.:. .< h >.~.@.s C C C ",
"K M.K K K C K K L C g w.f.g.l.x.j.x.j.*.@.#.#.l g C Z y C p < ' O.*.:.E.(.).)._._._._._._._.E.E.E.E.E.4.2.$.%   # =.).2.l M C C ",
"K y K K C C K K C C N 8.d.d.f.j.<.<.#... .] / x m m A A A j - ' #.*.k.E.E._._.).E.E._.E.E.E.E.E._.]. X}.!.t.x 3 } -.1.E.*.N C C ",
"M.y K y C M.C K C K V m r.r.r.p.#.#.../ k l / ) o.X.@.;.@.k 2 ..#.=.k.(._.(.:.) x ^ X.E.E.E.E.}.wXzXVXlX8X*XQ.Q.l.,.5.].0XQ C M.",
"M.y K K K C C C C C C B 7.0.0.q.+.{ m 2 k | -.,.E.~.E.!.@.j < ..e.s.~.(._.E.l .   . 1 &.E.].wXzXZXpXoX%XhXpX1X1X9X7X6XeXVXpXL C ",
"K K K V H K K y C C V V g _ 7.` _ x < 3 X.v.m.`.m.m.m.v.X.- - O.p.z./.~.).1.) - < / 6.4.6XjXCXCXnXQ   > sXgXgXcXnXZXCXCXCXaXA.y ",
"K K K K y V K V C C V C G g x v v - 2 X.3.).).`.`.m.b.j.' # -  .*.j.v.b.).).1.;.5.5.).0XMXCXCXCXZXhX%X,XbXBXBXZXCXCXCXCXnX@XK M.",
"M.y K K K H K V y V V C H V f v 3 - ) v.).).m.m.m.m.v.*.3 # 2 8.t.f.:.2.1.4.4.4.`. XjXVXCXCXCXCXCXCXCXCXCXZXCXCXCXCXCXZXaXP.K M.",
"y M.K K y K H K V C y C C H G G ; 2 ..v.b.).m.m.n.k.@./ # S &X=X*X5X5X.X|. X X6XeXMXCXCXCXCXCXCXCXCXCXCXCXCXCXCXCXCXZXpXP.B.B.M.",
"K y K K y K H y C y H y C C C C f h O.z.n.m.b.n.x.p.' ; S 3XyX2X<XsXgXzXmXzXmXVXCXCXCXCXVXZXVXVXCXCXCXCXCXCXCXCXCXZXaXP.V.B.M.B.",
"y M.K K H y K H y V V y y H C C B c +.x.n.n.n.n.j.p.8.D XX>X2X,X2X1XqXgXZXCXCXCXCXCXCXCXVXVXVXVXVXVXZXVXCXCXCXCXCXaX+XA.B.M.M.B.",
"K K K y V H H H V V y y y C C y Z c +.l.k.z.z.l.l.a.O.7.F W XX$X$X>X1X8XgXNXCXCXVXVXVXVXVXVXVXVXVXVXVXVXVXCXCXCXcX+XG.M.M.M.M.B.",
"K K V y V V K V V V K K C y C H V s [ f.z.z.l.l.l.f.p.O.F E ! ! XXXX$X>X8XgXNXVXCXVXVXNXVXVXVXVXVXVXNXVXVXCXCXfX+XA.y M.y M.B.M.",
"K C C y H C V V V V y y V y C C V f { d.z.j.s.g.g.g.f.e.8.F D F S E E XX%XyXsXlXMXVXVXVXVXNXVXVXVXVXCXCXZXAXpX+XZ.M.y M.M.M.M.M.",
"K K K V V C K V V V C A.A.y C C C N ` f.l.s.e.f.l.g.g.d.w.+.8.` 7.v v D E XX$X,XhXnXNXMXCXCXVXCXVXMXAXgXpX$XP.G.M.M.M.M.M.M.M.M.",
"M.M.M.C C C V y t V K K V V y C C C b f.z.h.w.w.h.l.f.g.f.e.O...[ ' _ v 2 S E W oX:X<XqXhXhXhXpX1X<X-XoXP.G.M.M.M.M.B.M.M.M.M.M.",
"y M.A.K V C H H V K H K K V y C C C g d.z.h.q. .0.f.l.g.c.d.e.q.+. .8.' _ _ v D S W OX;X;X#XOX#XOXOX:XU.A.A.M.M.M.M.B.M.K M.K M.",
"K K L K C V V C V V y V V y C C H H g d.z.g.e.{ { q.j.l.l.g.f.e.q.q.0.+.8.] ] [ 7.7.oX,X:X@X@X:X:XuXuXJ.M.M.M.M.M.V.N.M.M.M.M.K ",
"K K M.K C K K V K H K V V C y C C H s r.!.l.d..._ { 0.h.z.z.l.f.e.e.e.e.q...O.X.X.X.w.9XdXaXdXvXaXaX-XD.M.M.M.B.M.B.M.M.M.K M.A.",
"M.C K C H V V V y K y V y y C C K t ; 0.g.g.g.e.{ c i _ O.s.z.s.e.p.p.a.a.p.*.*.a.-.-.5XnXZXZXZXpX-XJ.B.M.M.B.M.V.B.M.M.A.K K A.",
"M.M.K V V K V C H y H y V K C K H r ; { q.e.h.p.n 5 4 o : v [ O.O.O.p.a.j.j.a.j.a.j.z.0XmXBXCXBX=XK.D.B.M.M.M.M.V.V.M.K M.M.K M.",
"K y M.y C C C V V C H V V t t t e 7 ; ' ..0.+.` 5 0 8 @ o o , i c / #.j.k.v.2.k.1.,.|.rXNXNXbXkXQ.B B.C N.J.K.D.D.V.M.C N.C N.M.",
"M.M.M.M.K K C C C V V M e e e r w 5 ; x ] [ x u 0 0 w 8 @ X @ 9 q p { j.v.b.b.(._.&.{.kXVXzX9X{.>.A C C Y.>X<X-XU.N.M.C M.M.N.C ",
"M.M.M.y C C H H V t t e 0 0 0 w 0 9 : h x z > 8 0 0 0 0 8 9 9 0 q N n h.1.b.b.(._.&.8.hXZX9Xy.r.<.m M Z I.Y.Y.&XY.N.C M.M.N.M.C ",
"M.M.M.y C y K L H y e e e r w w 0 9 % < 1 - u q 0 0 0 0 0 0 0 0 0 0 b #.>.>.2.2.E.-.7.W.$XT ` ..@.z f K P U Y I C.N.L M.C C M.N.",
"B.M.M.y y y K A.H V t t e w w w w 9 # $ $ % 9 0 w 0 0 0 w 0 0 0 0 0 f ' #.@.*.-.>.@.j J U a 3 ' ) l p V V V V C C M.N.C N.C N.M.",
"M.M.M.y y y K B.K V V y V t e w w 8 O X = X 5 0 0 w 0 w w 0 w 0 0 0 p z ^ ) ) X.o.} s r r p s 3 ( l = 7 w q w V V C C M.M.M.B.Z ",
"y M.y M.y y K A.L C C C y y t e w w 8 9 5 8 0 0 0 w w w w 0 0 0 q w f ; h l ( / } * s M w 5 ; ; 2 k h u q w w w M V C B.N.C M.M.",
"B.y M.y M.y M.A.A.K K K y y y t e e e w w w w w w w w w w 0 w 0 r e d ; : h l l k & u N w 7 > ; : h k i q q w w e M C C M.M.N.C ",
"M.M.M.K M.K y M.A.M.M.M.y y K y y y y t w w w w w w w w e 0 0 0 w e 7 > ; 2 3 3 3 1 - f e w 4 = ; : 2 = q r w w e e V C M.M.C M.",
"M.M.y C M.y M.M.M.M.M.M.M.K M.M.M.M.y y y y t w w w w w e 0 0 0 e e 7 > ; ; 2 2 2 < , a w e w 8 6 u 4 5 q w t w e t C C M.M.M.M.",
"M.M.M.C y C y M.M.M.B.M.K C.Y.R.V.M.M.y y y t t e e w w w w w e e e 7 6 > ; ; ; ; ; + 7 e e e w w q w w w w t t t y C C M.N.C M.",
"M.M.K K C C y y M.M.M.M.L L A.G.B.M.M.M.M.M.y y t t t t t e e e e r r 6 > + > + + 6 5 w e e e t w w w w w V t y C C C M.C C M.M.",
"y y M.M.y y M.M.M.M.B.M.M.M.N.N.B.y M.M.M.M.M.y y y y y t y t y V V e e 8 7 7 r 0 w w e e e e t w e t t t C C C M.C C N.N.N.M.C ",
"M.M.y M.M.M.M.M.M.M.M.B.M.M.M.M.B.y M.y M.M.M.M.M.y y y y y y y y y K H G t e e e e e t t t y y y t t y C C C C C C N.C M.C N.N.",
"M.M.M.M.M.M.M.M.M.M.B.M.M.B.M.K M.B.M.M.y M.M.y M.y M.y y M.M.K K K K y K K K K y y y y y y y y y y y K M.M.M.N.M.M.M.M.M.M.Z M.",
"M.B.M.B.M.M.M.M.M.B.M.B.M.B.M.K y B.M.M.M.M.M.M.M.M.M.B.M.M.K M.K K K K V H K K M.y M.M.M.M.y M.M.y M.M.C M.M.Z M.M.M.C M.C M.B."
};
