/* XPM */
static char *result[] = {
/* columns rows colors chars-per-pixel */
"64 64 245 2 ",
"   c #2E3C28",
".  c #393A25",
"X  c #3A3A31",
"o  c #312823",
"O  c #28281D",
"+  c #462A1C",
"@  c #49381D",
"#  c #58371E",
"$  c #542E1C",
"%  c #65381D",
"&  c #743A18",
"*  c #482E22",
"=  c #4A3828",
"-  c #5A3423",
";  c #553B2C",
":  c #573828",
">  c #453832",
",  c #513728",
"<  c #6C3C24",
"1  c #643C2A",
"2  c #663A26",
"3  c #703E25",
"4  c #713F28",
"5  c #3B432D",
"6  c #36492A",
"7  c #39532E",
"8  c #3C4931",
"9  c #395B32",
"0  c #395532",
"q  c #366535",
"w  c #396635",
"e  c #396A36",
"r  c #3B6D39",
"t  c #3C6539",
"y  c #3E743C",
"u  c #3F793D",
"i  c #7E411D",
"p  c #464729",
"a  c #5B442B",
"s  c #57472A",
"d  c #4B4A32",
"f  c #594932",
"g  c #445D32",
"h  c #4A5836",
"j  c #565734",
"k  c #43572F",
"l  c #69432B",
"z  c #7B4224",
"x  c #72422A",
"c  c #7C452B",
"v  c #754326",
"b  c #7A592E",
"n  c #684634",
"m  c #764933",
"M  c #7A5439",
"N  c #6F5D33",
"B  c #446739",
"V  c #54673B",
"C  c #41763F",
"Z  c #41793F",
"A  c #746437",
"S  c #48421F",
"D  c #5A5759",
"F  c #695952",
"G  c #6F5546",
"H  c #446E40",
"J  c #437541",
"K  c #427C40",
"L  c #497C45",
"P  c #4B7A49",
"I  c #537947",
"U  c #537752",
"Y  c #757550",
"T  c #605E60",
"R  c #586770",
"E  c #7D7969",
"W  c #676D72",
"Q  c #4B5B66",
"!  c #834A2B",
"~  c #864A29",
"^  c #89522D",
"/  c #94522E",
"(  c #9C542D",
")  c #864D34",
"_  c #8C543B",
"`  c #885439",
"'  c #935334",
"]  c #9C5935",
"[  c #92563C",
"{  c #9C5B3C",
"}  c #985839",
"|  c #914E2D",
" . c #A6582C",
".. c #B25D2D",
"X. c #A55A34",
"o. c #A35D3A",
"O. c #A85C35",
"+. c #B15F31",
"@. c #8B653C",
"#. c #AC623E",
"$. c #A7613C",
"%. c #BC6434",
"&. c #B4643B",
"*. c #B96539",
"=. c #BF612D",
"-. c #88461F",
";. c #C46B3D",
":. c #CA6D3C",
">. c #C86835",
",. c #D46E36",
"<. c #D3713C",
"1. c #DB743C",
"2. c #DB7238",
"3. c #C76632",
"4. c #E3763A",
"5. c #EB7B3D",
"6. c #E67739",
"7. c #F27D3D",
"8. c #FD7E37",
"9. c #EF732E",
"0. c #9A5D41",
"q. c #855D49",
"w. c #9E6345",
"e. c #997355",
"r. c #AB6746",
"t. c #B16640",
"y. c #BA6B43",
"u. c #B46A46",
"i. c #BA7755",
"p. c #AE7452",
"a. c #8E7870",
"s. c #B97F60",
"d. c #C36E43",
"f. c #C57145",
"g. c #CC7345",
"h. c #C3734B",
"j. c #CC764A",
"k. c #CE784C",
"l. c #D37543",
"z. c #DC7944",
"x. c #D47A4B",
"c. c #DB7D4A",
"v. c #D77745",
"b. c #C77D58",
"n. c #E47B43",
"m. c #EB7E43",
"M. c #E47D48",
"N. c #F17E41",
"B. c #448242",
"V. c #498546",
"C. c #468843",
"Z. c #498A46",
"A. c #4C834A",
"S. c #4C8B4A",
"D. c #51884E",
"F. c #4D914B",
"G. c #51924E",
"H. c #538B52",
"J. c #589556",
"K. c #498251",
"L. c #628659",
"P. c #5A866F",
"I. c #668A64",
"U. c #679967",
"Y. c #759974",
"T. c #718C76",
"R. c #73A373",
"E. c #FC813D",
"W. c #AB8252",
"Q. c #8C8D7B",
"!. c #BB826A",
"~. c #AD8878",
"^. c #8B8151",
"/. c #D98355",
"(. c #C98D5C",
"). c #ED8046",
"_. c #EA824B",
"`. c #F58243",
"'. c #FE8542",
"]. c #FC8948",
"[. c #EA8955",
"{. c #F89058",
"}. c #C68867",
"|. c #CE9373",
" X c #F19A69",
".X c #F9A778",
"XX c #E9A077",
"oX c #6B7C85",
"OX c #79868A",
"+X c #6A9487",
"@X c #7D939C",
"#X c #779091",
"$X c #7DA0A5",
"%X c #989899",
"&X c #86918D",
"*X c #AC928C",
"=X c #97AC9A",
"-X c #8CA897",
";X c #BCA394",
":X c #849BA6",
">X c #999CA3",
",X c #99A4A7",
"<X c #90AFB6",
"1X c #AAABAC",
"2X c #B5ACA5",
"3X c #A8ABB6",
"4X c #B7B8B7",
"5X c #ABB1AD",
"6X c #A09DAA",
"7X c #C49A8F",
"8X c #D2AE98",
"9X c #F9BA96",
"0X c #ECAF8D",
"qX c #D3B8AB",
"wX c #B5C2AE",
"eX c #D1C4B7",
"rX c #FCC3A3",
"tX c #F1CEB9",
"yX c #AFB7CB",
"uX c #9CB9C1",
"iX c #C4BFC7",
"pX c #B9C5C6",
"aX c #B9C3D7",
"sX c #A9C4C8",
"dX c #BACDE4",
"fX c #C9CBCA",
"gX c #C6CCD8",
"hX c #C7D4D7",
"jX c #D9D9D7",
"kX c #D1CECB",
"lX c #F1D9C7",
"zX c #E4E4DB",
"xX c #FBE4D5",
"cX c #CED9E3",
"vX c #D3E1E5",
"bX c #ECEBE3",
"nX c #E6E8EA",
"mX c #F8EFE6",
"MX c #FDF4EB",
"NX c #FDFAEF",
"BX c #F8F2E8",
"VX c #FDFCF3",
"CX c #FEFEFD",
"ZX c #F6F7F6",
"AX c #ECEFF0",
/* pixels */
"B.B.B.B.B.u B.B.u B.K K B.K B.u K K K K K u C C C y H C C C C K K K K K K C K K K B.K B.B.C.B.B.B.B.C.C.C.C.B.C.C.B.B.C.B.C.B.C.",
"B.C.B.K B.B.u B.B.B.u B.u K K K u C K K C C C C C y C C C K K K K K K K K C B.K.B.K C.B.C.K B.B.B.B.B.C.C.C.C.C.B.C.C.B.C.B.B.C.",
"C.Z.B.Z K K K B.B.B.u K K B.K K K K.K C C C K Z C C C C C C K K K K K K Z Z K K.B.K C.B.C.H.H.B.B.K K C.C.C.C.C.C.C.B.B.B.B.B.B.",
"B.C.B.B.K K K K u B.B.u K u K B.K K K C C y K K.J C C C u C C C K C C C K Z K C.B.B.B.B.J.R.R.B.K g h B.C.C.C.B.C.B.C.B.B.B.B.B.",
"B.B.B.K K K B.K K K K K K K B.K u K K y y C C K C C u u C K K K K K K C Z K K K B.B.B.B.D.H.D.B.C a < j B.V.C.C.C.C.C.C.B.B.B.B.",
"B.B.K K K K K K K K K B.C.K K K u K.K C J C C C y u C K K C C K J K C K K Z Z K K B.B.B.K B.Z Z B : 3 1 h V.C.C.B.Z.F.C.C.C.B.B.",
"B.K K u u K B.K K B.S.Z.B.K K K K K C C C C C u J K.u C C C C K C Z Z Z Z C Z K K B.K B.K Z Z Z 0 : 3 3 f H L V.C.C.F.Z.Z.C.B.B.",
"B.K K K K K S.C.B.F.F.Z.B.K u u u K.C J y y C C C J y y u u C C C Z Z Z Z Z C K K K Z Z Z Z B.Z 5 - < 3 x j C V.B.Z.F.C.Z.C.B.B.",
"B.B.Z Z Z B.G.F.G.G.S.B.K J C J K.y C C C C C y C u y B g k d d q u C Z Z Z Z Z Z Z Z Z Z Z Z B > , 2 < v n h L C.Z.F.C.Z.Z.B.B.",
"K Z B.Z C C.J.J.J.S.V.B.K J J K K C Z C C C u y C y p # % % # $ = p 9 u Z Z Z u Z Z Z Z Z Z g S , $ % < < < f C C.Z.F.Z.Z.Z.B.B.",
"K K Z L C I J.J.K.V.B.K J C K K K K Z C C C C C C y l i & l % & & % , p B Z Z y Z Z Z C Z B = 2 $ * - 2 2 x l h B.G.S.F.S.V.B.B.",
"K K Z Z C V.H.H.V.L B.K J C K K C Z Z Z C C C C C C s 0.a.Q.a.q.& & & # @ 7 C y u y Z C e l ~ x $ + * $ % < 4 d Z G.S.S.S.V.V.Z ",
"K K C.Z.P D.D.A.P K K K C C K K C C u Z u J C K Z C S e.iXgXyX6Xa.q.3 & & * 5 B Z Z Z 9 b =.O.< * + - < < < 2 l V D.S.S.Z.V.B.B.",
"K K V.V.P D.A.P K K K C C K K C C C Z Z K C C K B.C p a.nXnXgXyXyX6Xa._ i % + . B w p b 2.5.%.z 2 ! | | ~ z 3 v F U.D.Z.S.Z.B.B.",
"K J Z J P I K.P V.K K K J K J J C J H P K J Z K C.J p a.nXAXnXgXaXaX3Xs.( -.3 + o s  .6.E.E.1.%.+.%.+.X.~ ~ ~ ^ N Y.U.D.G.Z.B.Z ",
"J J J B H I.I.P B.K Z J K Z C C J H r H K K C V.B.K p a.AXZXnXcXgXyXyX3Xs.&.( & %  .E.E.E.`.).).n.<.:.;.%. .( / M T I.G.D.V.V.B.",
"J J J H H -X5XI.B.u u Z K Z Z u J u C Z Z Z K B.K K 6 a.bXCXAXnXcXgXdXaX7Xg.=...%.E.E.].].E.E.].N.m.N.`.).1.%./ x h H.A.L B.Z B.",
"J J J J J =XkX5XI.K K Z Z K Z Z C C Z Z Z Z K K K Z 7 F jXCXZXnXgXiXpX4X*X;.,.2.E.E.].E.E.E.].E.'.'.'.`.`.`.4. .< d C C Z B.Z B.",
"L Z Z Z L =XzXBXwXR.I.V.K C C Z Z C Z Z Z Z u J Z C 9 d 2XCXCXjX8X|.!.!.*.<.E.`.`.E.E.].].E.E.].'.'.'.`.`.].).:.z p C Z Z B.B.Z ",
"Z K Z Z L =XbXVXZXzXeX=XY.K.Z Z Z Z Z Z Z Z K u Z K t X &XzXAXqX*Xp...3.2.5.E.].E.].E.].E.].].E.'.'.'.`.'.`.).1.O.- B Z Z B.Z B.",
"K Z K K V.-XbXVXNXNXNXmXzXwXY.V.C K u K Z Z Z Z Z Z C 6 F 2XkX*Xp.w.&.4.E.`.].'.].E.].E.E.].E.].'.'.'.'.`.`.).n.%.! p Z Z B.Z Z ",
"B.K Z K K &XjXVXNXNXMXMXMXxX8X~.L.K K u Z Z Z Z Z C C 6 1 a.3X6Xw.w.x.N.`.).].'.E.].].E.].E.].E.'.'.'.'.`.`.)._.<.O.# C L Z Z Z ",
"u B.K C C T.wXAXNXNXNXxXtXrX0X X(.e.P K Z Z Z Z Z C Z 9 , q.%X1X~.j.`.].).E.E.].E.].E.].].E.].E.'.'.'.'.].).).)._.*.l g Z Z Z Z ",
"B.K Z K J I.,XbXNXNXMXtX0X.X[.{.`.[.W.I Z Z Z Z K K C H . 4 e.7XXXM.m.m.E.E.E.E.].E.].E.E.].E.].'.'.'.'.`.`.).)._.:.c k V Z Z Z ",
"B.B.K Z K U &XfXBXNXlX9XXX[.[.[._.`.{.W.Z Z Z Z Z B.Z Z 6 $ ` h.x.x.z.2.4.7.N.'.E.].E.].E.].].E.'.'.'.'.`.).)._._.1.' k Z Z Z B.",
"u u K K K K.&X;XtXlXqX|.|./.M.M.).).].[.e.u Z Z Z Z C Z q @ z $.h.f.l.,.5.N.N.'.E.].].E.].E.E.].'.'.'.'.`.E.n.).)._.%.s C Z B.Z ",
"K K K K K L T.*X8XqX7X(.b.b.x.c.M.M._.[./.A C Z Z C Z Z y   < ] #.y.:.2.5.7.N.'.].E.].E.E.].E.E.'.'.'.'.`.1.1.).).).1.^ B Z Z Z ",
"K K K u K B.I.~.|.|.}.b.i.h.b.k.k.x.x.x._.r.V Z Z Z Z C y B , ^ O.&.:.4.E.'.'.'.E.].E.].].E.E.].'.'.E.E.5.<.>.&.] :.).%.s Z Z Z ",
"K B.u K K K I e.!.i.i.u.r.r.u.h.h.h.h.i.k.v.A C Z C C C C V = c X.&.<.4.`.'.'.'.].E.].E.'.'.'.E.E.E.E.E.9.3.| z / :.`.1.~ C Z Z ",
"K u K K K Z Z Y w.r.w.0.0.r.w.#.u.u.u.u.h.d.{ j j b b b @.N : c X.*.l.E.'.'.'.'.E.].].E.'.'.E.E.E.{..X.X(.i. . .3.,.6.7.:.g Z Z ",
"K u K u Z K K V M 0.q.[ 0.[ 0.0.[ 0.w.0._ ) ~ ( ..=.>.1.1.] 2 ~ #.*.z.).'.'.'.'.E.E.1.E.'.E.E.{.rXxXMXxXeX7X|.}.j.2.9.].9XQ.Z Z ",
"K B.K B.Z K K J V m ) _ q._ [ [ _ [ _ x 1 c +.,.6.5.n.n.z.^ - ) &.g.c.).`.'.E.<.&.( ( 2.E.].9XxXZXgX&X#XpXaX4X5XqX0X9XtXZXpXP Z ",
"K K K Z C K Z J H j 4 q.) q.) 0.0.q.1 : ! >.N.N.N.].N.m.l.! $ ) y.g.z.m.`.'.1.( ~ X.=.9.{.tXCXCXAX&XO o 4XnXkXcXnXZXCXCXCXsXK.B.",
"K K K Z C K Z K L J d 1 4 m ) q.) 4 , 4 ;.`.'.].'.'.N.n.;.3 + 4 &.:.z.n.`.'.4.,.9.8.E..XxXCXCXCXZXjX>X>XnXCXZXCXCXCXCXCXnX$XB.B.",
"K K K Z K C J Z J Z H h 1 1 4 n 4 ; ; { n.'.].'.'.N.m.v.X.$ * ` r.b.l.,.6.7.8.8.'.{.rXMXCXCXCXCXCXCXCXCXCXZXCXCXCXCXCXZXsXP.B.B.",
"B.K K Z Z K C K Z C H H H f ; : : * x &.n.m.`.`.M.M.g.+.% > E *X*X;X8X0XXX X.X9XrXxXCXCXCXCXCXCXCXCXCXCXCXCXCXCXCXCXZXpX+XC.B.B.",
"u B.u u Z K C Z Z Z C Z C C t H ; > c y.z.m._.m.M.g.&.c > W 4X4X4XyXkXzXmXmXMXMXCXCXCXCXCXCXVXVXCXCXCXCXCXCXCXCXCXZXdXP.C.B.B.B.",
"B.u u B.Z J J Z C C C u Z C C C H G m y.v.M.M.M.c.g.&.q.T %X3X1X1X1X4XkXbXCXCXCXCXCXCXCXVXVXVXVXVXVXVXVXCXCXCXCXCXdX+XB.C.C.B.C.",
"K Z u K C C J K Z y y K Z Z K C Z V M &.x.M.c.c.x.j.y.o.q.W W oX&X%X1X5XkXbXCXCXVXVXVXVXVXVXNXVXNXVXVXVXVXVXCXCXvX+XK.B.B.B.C.B.",
"K K K u C C Z C C J u K Z C u C Z C n t.v.c.v.x.x.j.h.y.w.F Q R R W #X>X2XfXbXNXCXVXVXVXVXNXVXNXVXNXNXVXCXCXZXcX+XK.u B.u B.C.C.",
"K K J C C Z C C C C K K C C u K Z C j o.x.x.g.g.k.k.j.h.t.q.F F F D T W OX6XiXjXmXVXCXVXVXVXVXVXVXVXVXCXVXAXpX+XK.B.B.B.B.B.B.B.",
"K Z K K Z J Z Z C C K K K K K C Z Z B { x.v.f.d.j.k.k.j.y.t.o.{ q.) n G D R oX6XiXjXbXBXNXNXNXVXNXAXbXjXpX:XP.K.K B.K B.B.B.B.B.",
"B.K B.K C C C C C C Z K K u K C Z B.B @.x.x.d.t.y.j.k.k.k.g.t.o.o.o.| ! 4 G D R oX>X3XwXfXkXhXfX4X3X,X#XP.P B.B.B.B.C.B.B.B.B.K ",
"u B.B.K K K C Z C Z Z Z C C u u Z Z B M k.x.f.o.{ y.j.l.k.b.h.t.o.o.{ } | ) 4 G D R oX$X:X@X@X@X#X@X$XY.V.B.B.B.B.C.C.B.B.B.B.K ",
"K K L K J C J Z C Z Z Z J y Z Z K K t ` x.c.h.r._ } d.k.v.k.k.f.y.t.t.#.o.o.X.] ' _ a.,X<X$X$X<X<XuXuXJ.B.C.B.B.B.Z.B.V.B.K B.B.",
"K K B.K Z K C K Z Z C Z Z K u Z Z K t G k.c.x.y.} ) } &.g.c.x.k.f.y.y.y.t.#.O.&.*.%.y.7XcXdXdXvXcXsX-XG.B.B.B.B.V.C.B.B.K B.V.K ",
"B.K Z Z C C Z C Z C u C Z Z C Z K K 0 n y.j.k.j.#.) f 1 [ y.g.l.d.y.d.f.f.d.d.;.d.>.:.}.zXZXZXZXfX-XU.C.B.B.B.B.C.B.B.B.B.B.K V.",
"B.B.K C C K J u C Z C u C Z Z Z Z C 0 1 o.y.y.g.w.f 0   * 1 ) o.o.o.&.f.l.v.l.l.<.<.x.0XxXVXCXZX2XL.F.C.K B.C.C.Z.Z.B.B.Z L B.K ",
"u K B.B.Z Z Z C Z C J C C C C y y e 8 n [ o.$.] f 9 w 7   o o , f m ] ;.z.n.n.n.4.4./.tXBXZXmXeX}.A C.B.D.I.J.F.F.Z.B.Z B.V.B.Z ",
"B.K K u Z Z C C C C y r e e e q e q 6 1 ) ] | l 0 w q q 6 O o   q g m y.n.m.5.N.'.6.f.eXCXVXqX|.x.^ r u Y.=X5X=XU.Z.V.Z B.Z B.V.",
"B.B.B.B.Z Z C J C e e q q q q e q q X : 4 c 1 5 q q q q q 6 6 9 q q j &.z.5.m.N.'.5.O.2XnXeXe.&.:.^ B J I.T.T.Q.Y.A.Z B.Z B.Z V.",
"B.B.B.u C y r r t e w w t q e e q q . $ < 2 = 0 q q q q q q q e q q g } ;.1.1.1.7.6./ Q.&XI.) X.&.! k L P U U U P V.B.B.V.V.Z B.",
"B.B.B.u y e y C r e e q q e e e e q 6 * $ # . 7 q q q q e q q q q q B m o.*.3.3.,.>.b h H h 1 ) ( z p B u J C Z Z Z Z B.B.B.Z V.",
"B.B.B.u u y y Z r e q e e e e e e e 6   @ @ . 7 q e e e e q q q q q 9 s c | '  .+.( l B w k ; 4 c c # 7 r e r y Z Z V.B.Z V.Z B.",
"B.B.u u u y u K J r r r r r r e e e q 7 6 7 q q q e e e q e q q q q w s 1 v c ~ | z a g w B d : 2 v v p e e e e B Z Z V.V.Z B.V.",
"B.u B.u u u u B.L C K u y y y y r e e e e e e e e e e e e q q e q e w d : 2 z z z x : g e w X , a 1 x s 9 e e t e C Z Z B.B.V.Z ",
"B.B.K K B.u K C.C.K K B.K u K u u u y y e e e e e e e e e q q q e r q d > 1 4 4 x < 2 p e e 7 X ; a 2 S 9 e e e e B Z Z K Z B.B.",
"B.B.K K K K K B.B.B.K B.B.K B.B.B.B.u u u u y e e e e e e e q e r r r 8 > : 1 1 2 < : p w y e 0 5 5 5 7 e e B e r y Z Z C.B.Z B.",
"B.B.B.u K u u B.B.B.C.B.B.A.R.U.F.B.B.u u u y y r e e e e e e e r t t 8 > > , ; ; ; > 7 e r y y e e e e e r e C u u Z K Z B.B.B.",
"C.u K K K u u u B.B.B.B.K P P H.C.u B.B.B.B.u u y u y y y y r r r r q 0 p > > X X X 7 q r r e e e e e e r y C Z u Z Z K V.V.Z B.",
"B.B.u B.u B.B.B.B.B.C.B.B.B.V.V.C.u B.B.B.C.B.B.u u u u u y y u y y y r 9 9 9 q q e e r r r r y e y e y B Z Z Z Z Z Z B.B.B.Z V.",
"B.u B.B.B.B.u B.B.B.C.B.C.B.B.K B.C.B.u u B.u u B.u u u u u u u K Z u Z J C y r r y r y y y u u u y y u Z B.B.u L Z B.B.Z V.Z B.",
"u C.B.B.B.u B.B.B.C.B.C.C.B.B.B.B.u B.B.C.B.B.B.B.K K K K B.K B.K K K Z K Z K J u u u u u u u u u u u K B.Z B.Z V.B.V.B.B.B.V.V.",
"C.B.B.B.B.B.B.B.B.B.C.B.B.B.B.K C.C.u C.u B.B.u B.B.C.B.B.K K B.K Z Z Z J K K K u B.u B.B.B.u B.B.B.B.K Z B.B.B.B.B.L Z B.B.L Z "
};
