/* XPM */
static char *result[] = {
/* columns rows colors chars-per-pixel */
"64 64 221 2 ",
"   c #061C2B",
".  c #082836",
"X  c #09242E",
"o  c #274D26",
"O  c #284E27",
"+  c #2A4E29",
"@  c #295227",
"#  c #2B552A",
"$  c #2D5B2C",
"%  c #27512A",
"&  c #305D2E",
"*  c #2C5A33",
"=  c #2A593C",
"-  c #325D31",
";  c #3C583B",
":  c #2F602D",
">  c #31612F",
",  c #336431",
"<  c #366A34",
"1  c #396D36",
"2  c #3B6D39",
"3  c #386438",
"4  c #397037",
"5  c #3D743B",
"6  c #3E793C",
"7  c #2D613C",
"8  c #41763F",
"9  c #417A3F",
"0  c #083046",
"q  c #2B5D44",
"w  c #2D6449",
"e  c #316B49",
"r  c #2A6658",
"t  c #347354",
"y  c #3D7848",
"u  c #0A496B",
"i  c #094E76",
"p  c #2B6A63",
"a  c #2B6C68",
"s  c #32766B",
"d  c #2A757D",
"f  c #4A5E4A",
"g  c #446E40",
"h  c #4B6B47",
"j  c #437440",
"k  c #437C41",
"l  c #4A7D46",
"z  c #4D7D49",
"x  c #477848",
"c  c #576A55",
"v  c #557755",
"b  c #677D66",
"n  c #398575",
"m  c #458242",
"M  c #498546",
"N  c #468843",
"B  c #498A46",
"V  c #4C8449",
"C  c #4C8B4A",
"Z  c #45854C",
"A  c #51864D",
"S  c #4D914B",
"D  c #51924E",
"F  c #478655",
"G  c #548D53",
"H  c #568455",
"J  c #559553",
"K  c #5A9557",
"L  c #498C65",
"P  c #4B9578",
"I  c #52987A",
"U  c #509168",
"Y  c #658A66",
"T  c #689869",
"R  c #728C72",
"E  c #779A79",
"W  c #6B8673",
"Q  c #5DA577",
"!  c #77A677",
"~  c #0A5A86",
"^  c #0C6797",
"/  c #11789B",
"(  c #146B8A",
")  c #267B8A",
"_  c #2D7B91",
"`  c #0C77B1",
"'  c #37898A",
"]  c #2B839B",
"[  c #37949B",
"{  c #1C85B8",
"}  c #1889B3",
"|  c #2D98BB",
" . c #278AAF",
".. c #3EA0A3",
"X. c #4A9B84",
"o. c #549D89",
"O. c #6D9D8E",
"+. c #5BA58C",
"@. c #54A699",
"#. c #4EA494",
"$. c #71A587",
"%. c #58B2AA",
"&. c #57B7B8",
"*. c #52AAA5",
"=. c #68BCBA",
"-. c #6AB2AC",
";. c #0C8ACC",
":. c #178CCA",
">. c #158FD9",
",. c #1492DE",
"<. c #1C94DA",
"1. c #1093CE",
"2. c #259AD6",
"3. c #2C96C5",
"4. c #16A5D3",
"5. c #3DACDA",
"6. c #37ACD4",
"7. c #0D9DE6",
"8. c #1498E8",
"9. c #0F96FF",
"0. c #0F9CFE",
"q. c #0F97F4",
"w. c #1097F1",
"e. c #119DFE",
"r. c #1499F7",
"t. c #259EE1",
"y. c #0EA3EE",
"u. c #12A7E9",
"i. c #0EA6FF",
"p. c #0EAAFF",
"a. c #0EA6F5",
"s. c #11A3FF",
"d. c #12ABFF",
"f. c #1BA7FD",
"g. c #0EB2FF",
"h. c #0FB8FF",
"j. c #13B4FF",
"k. c #15BCFF",
"l. c #1ABBFF",
"z. c #1BB3FD",
"x. c #27A2E8",
"c. c #3BAEE4",
"v. c #22A7FD",
"b. c #2BACFB",
"n. c #25B7FC",
"m. c #35B5FE",
"M. c #3DBAFD",
"N. c #3AB5F6",
"B. c #4AAFC8",
"V. c #64BFC3",
"C. c #42BEFD",
"Z. c #17C3FF",
"A. c #19C5FF",
"S. c #1CCAFF",
"D. c #18C1F6",
"F. c #19D1FF",
"G. c #22C5FF",
"H. c #23CAFF",
"J. c #2CCCFF",
"K. c #34CEFF",
"L. c #39CFFF",
"P. c #38C4F9",
"I. c #23D4FF",
"U. c #2DD2FF",
"Y. c #2BDBFF",
"T. c #26DAFF",
"R. c #3CD3FF",
"E. c #3CDAFF",
"W. c #34D3FF",
"Q. c #2DE3FF",
"!. c #33E4FF",
"~. c #3BE5FF",
"^. c #57C6D8",
"/. c #53C2D1",
"(. c #64C4CC",
"). c #6AC9D6",
"_. c #7BCCCF",
"`. c #59CEE7",
"'. c #5ED2EE",
"]. c #45C3FE",
"[. c #4CCCFF",
"{. c #47C7FC",
"}. c #56CDF9",
"|. c #44D4FF",
" X c #4BD5FF",
".X c #47D5FA",
"XX c #52D4FF",
"oX c #59D6FF",
"OX c #54DAFF",
"+X c #5DDCFF",
"@X c #5FD4F3",
"#X c #6ACFE2",
"$X c #6FD4EB",
"%X c #63DCFF",
"&X c #6DDDFE",
"*X c #69D7F7",
"=X c #72DEFE",
"-X c #77DCF4",
";X c #47E6FF",
":X c #57E4FF",
">X c #6BE2FF",
",X c #67EAFF",
"<X c #75E1FF",
"1X c #7BE2FF",
"2X c #77E7FC",
"3X c #839F84",
"4X c #89A78A",
"5X c #80CED1",
"6X c #84DFF1",
"7X c #85DCE9",
"8X c #8CE2EF",
"9X c #84E5FE",
"0X c #8AE7FF",
"qX c #83E9FF",
"wX c #8DEAFF",
"eX c #89E3F5",
"rX c #93EAFF",
"tX c #9DEEFF",
"yX c #A1EFFF",
"uX c #A3F0FF",
"iX c #AAF0FF",
/* pixels */
"m m m m k 6 m 6 m 6 6 m k m k k k y k k k 9 j j y 8 8 8 9 8 8 9 9 9 k 9 k 9 l k 6 m m m m N m m m m m N N N N N m N N N 6 N N N ",
"m N m 9 m m m m m m m 6 k 6 m 6 k k 9 k 9 9 k j 8 8 j 2 8 8 9 l 9 9 k k k 8 k M m y m m m m m m m m m N N N N N m m N N N m 6 N ",
"N B m k m k k m m m m m k m k k k k k j 8 8 k k j 5 8 8 8 9 9 9 m 9 k 9 k j m V m m N m N G C N m m N N N N N N N m N m m m N m ",
"m N m m k k k k k 6 6 k k 6 k m k k k 6 8 5 j k j 8 8 8 8 9 9 9 9 k k 8 8 k k N m m m m K ! T Z m m m N N N N N m N N m m m m m ",
"m m m k k k m 9 k k k k m 6 m y k k k j j 5 j k j y 8 8 9 9 9 9 9 9 9 9 k k 9 k 6 m m m C G G m m m m N N N N m N N N N m m m m ",
"m m m k m 6 9 9 k k k m m m k k k k x 8 y 8 8 8 8 8 9 9 8 9 9 9 9 9 9 8 k k k k m m m m k k 9 k m m N m N N N N N N S B N N m m ",
"m k k k 6 9 m m m m C C N k k k k k 8 8 8 8 8 8 9 9 9 8 9 8 8 8 9 8 9 9 k y 8 k 9 m k k k k k k y k m m m N N N m N S N B N m m ",
"y k k k 6 k C M m S C N m k 6 6 k k j 8 8 2 5 y 8 8 8 8 y 8 9 F U U I P L F x k k k k 9 j k k M k 6 k m m N m m N N S N B N m k ",
"m m 9 l 9 m D D D D C m k j j k k 8 8 8 8 8 6 5 6 j y F +.=._.7XeXeX1X=X-X#X(.%.o.L k 9 k j k k V k 8 M k m m m M N S N B N m m ",
"m 9 9 9 9 M J J J C M m k j j k k 8 k 8 8 8 y 2 k P V.6XrXyXuXuXyXyXrX0X1X1X=X&X*X).&.I z 8 8 k M M 8 k k 9 m k N C S B S N m m ",
"9 9 9 9 8 l J J V V m k 8 8 j k 9 9 9 9 8 y 6 P ^.-XtXuXyXyXyXyXyXyXuXrX1X=X=X=X=X=X=X-X(.@.F k l C m k k 9 k l M S B B B M m l ",
"9 m 9 9 8 z G G z m k k 8 y k k 9 9 8 y k z &.*X2XwXrXtXtXtXtXyXyXyXtXwX1X1X=X=X=X9X9X9X9X6X#X@.F B C k M 9 k M M D C S C M m m ",
"m m M B z A A V l k k j 8 8 k k 8 8 8 6 P ^.&XqXwXqXqX0X0XwXrXyXuXiXuX0X<X<X=X1X0XtXrXrXrXwX0X-X).+.J M M V H H G C C C B M m m ",
"9 9 m V z z z z l m k 8 8 k k 8 8 8 9 o.`.%X2X2X2X2X>X>X:X+X:X%X>X2X1X1X1X1X=X9XrXyXtXtXrXtXrXrX9X$X=.Q G Y R ! E T A M C C m k ",
"8 8 8 8 h z V z k k k k 8 k j j 8 8 @.'.%X&X>X>X+XOX|.|.|.R.E.|.E.E.R.R. X%X1XwXtXyXyXyXyXtXtXrXwX9X*X).O.R E 3X4X4XT C D C m m ",
"8 8 h 8 8 x z z m k k k j 9 8 8 y *.@X%X%X+XOX|.|.R.K.U.W.J.U.U.U.H.H.H.J.J.R.>XtXiXyXyXyXyXtXrXrXwX1X=X).W b W R R Y J C M m k ",
"8 8 8 8 8 h h 9 k k k j k k k 6 @.@X%X%XXX|.R.R.K.J.J.G.H.H.G.H.H.H.G.G.H.H.H.W.:XwXiXuXtXtXyXyXtXrX0X=X=X=.c h v v H V M m k m ",
"8 h h 8 8 8 9 9 j 8 k 6 k 8 y o.`.>XOX|.R.K.J.H.H.H.S.S.S.S.A.S.A.S.S.G.S.S.H.I.Q.;X2XuXuXtXyXyXyXtXrX9X&X*X-.h x z j j k k 9 l ",
"9 9 9 9 8 9 9 9 k k k 9 k y L ^.+XOXK.J.J.H.H.H.S.S.A.Z.Z.S.A.S.A.A.S.A.A.S.S.I.Q.Q.~.:XuXiXyXyXuXtXrX0X=X&X*Xo.x j 8 k 9 m m 9 ",
"9 9 9 9 9 9 z 9 9 k j k 8 x /.%X XJ.H.H.H.G.S.S.A.A.A.A.Z.A.Z.Z.A.A.A.S.A.Z.Z.F.F.Q.Q.!.,XuXuXyXtXyXtXrX1X=X=X).U 8 j k 9 m 9 m ",
"9 9 9 9 9 9 9 z 9 k k k 6 %.@X XJ.G.G.S.S.S.Z.Z.A.A.A.A.A.Z.Z.Z.A.A.S.A.A.A.A.A.S.T.!.Q.~.,XuXuXyXuXyXrX9X<X=X1X=.9 8 9 9 9 9 9 ",
"m m 9 9 9 9 9 9 k k k 8 P @X XJ.Z.S.A.A.Z.Z.Z.S.Z.A.A.A.A.A.S.Z.S.A.A.A.A.A.Z.A.A.S.Q.Q.Q.~.2XiXuXtXuXrX9X=X=X1X8XI 9 9 9 l 9 9 ",
"m 9 9 l 8 l 9 9 9 9 y Z ^.OXJ.S.Z.S.A.A.A.A.Z.A.A.A.A.A.S.A.A.F.Z.S.A.Z.Z.A.A.A.A.Z.S.Q.Q.Q.;XwXiXuXyXtXwX1X=X1X0X=.8 9 8 9 9 9 ",
"m 9 9 9 8 9 9 9 9 9 9 %.XXW.S.A.Z.Z.Z.A.A.A.A.A.A.A.S.S.A.A.A.A.A.A.Z.A.A.A.A.A.Z.Z.Z.F.Q.Q.Q.:XtXuXtXtX0X=X=X<X0X7XH 9 8 8 9 9 ",
"m 9 9 9 k k k k k j L `.W.S.Z.A.S.A.A.A.A.A.A.A.A.S.S.Z.A.A.Z.A.Z.A.A.A.A.A.A.Z.A.A.Z.A.F.Q.Q.~.2XiXuXtX0X<X=X<X0X0X+.8 8 9 9 m ",
"m 9 m 9 k k k k k k B.|.F.Z.A.Z.Z.Z.A.A.A.A.A.F.A.Z.A.Z.A.A.A.A.A.A.A.A.A.A.Z.A.Z.A.A.A.A.T.!.~.;XrXiXrX0X<X=X<XeX0X_.9 9 9 m 9 ",
"m 9 9 9 k k m k 9 X..XK.Z.Z.Z.Z.A.Z.A.Z.Z.A.A.Z.A.A.A.A.Z.A.Z.Z.A.A.A.A.A.Z.A.A.A.A.A.A.Z.F.T.!.;X,XiXyX9X=X=X=X0X0X8XU 9 l 9 9 ",
"m 9 m 9 k y l l F /.L.S.Z.F.F.F.F.S.Z.A.A.A.A.Z.A.A.A.A.Z.F.A.Z.A.A.A.A.A.Z.F.Z.A.A.A.A.A.A.S.Y.~.:XrXyX1X=X&X1X0XwXrXO.8 9 9 9 ",
"9 9 k k 9 k k k #.|.G.Z.Z.F.4.] } Z.A.A.A.A.Z.S.A.A.Z.Z.Z.Z.Z.Z.Z.Z.Z.Z.Z.Z.A.A.Z.Z.A.A.A.A.A.H.Y.E.:X9X1X=X=X9XwXwXtX-.8 9 8 9 ",
"m 9 9 9 9 k k Z B.H.A.Z.S.4.u . 0 4.F.A.Z.Z.Z.k.k.h.k.h.j.h.k.j.k.j.j.j.h.h.h.Z.k.Z.Z.Z.A.A.A.G.I.W.R.%X=X&X=X0XwXrXrX5Xl 8 9 9 ",
"9 9 m 9 k 9 9 X.R.A.A.Z.F.( . X X 1.Z.h.h.g.p.p.p.p.p.p.p.p.p.p.p.p.p.j.p.p.g.h.j.k.k.Z.A.A.S.S.H.J.W.|.=X=X1X0XwXrXrX8XU 9 9 9 ",
"m 9 9 9 9 9 k B.H.A.A.A.F./ . . ( y.g.p.p.p.p.p.p.p.p.p.p.g.h.p.p.p.p.p.p.p.p.p.d.g.h.j.k.k.Z.A.G.J.J.L.%X=X9XwX0XrXrXrX+.9 9 9 ",
"9 k 9 9 8 6 L P.Z.Z.Z.Z.A.u.^ ` y.p.p.p.p.p.p.p.p.p.p.p.p.7.7.i.p.p.p.p.p.p.p.p.p.p.p.j.h.j.k.k.A.G.J.L.XX<X0X0XrXrXrX9X%.k k k ",
"k k 9 9 8 5 ..l.Z.A.A.k.j.h.h.g.g.p.p.p.p.p.p.p.p.p.p.g.;.u u ;.g.g.p.p.p.p.p.p.p.p.p.p.p.g.j.j.z.l.G.K. X<XwX0XrXwX0X1X=.k k m ",
"k 6 9 8 6 k 6.k.k.Z.k.j.p.d.p.p.p.p.p.p.p.p.p.p.p.p.g.7.u     ~ a.g.p.p.p.p.p.p.p.p.p.p.p.p.p.p.p.z.z.G.R.>X0XwXrX0X1X=X(.N k m ",
"6 m 9 9 8 n n.j.k.k.j.p.d.p.p.p.p.p.p.p.p.p.p.p.p.p.g.` 0 0   i y.g.p.p.p.p.p.p.p.p.p.p.p.p.p.p.p.d.z.n.L.OX1XrXwX1X<X1X(.Z N N ",
"6 9 9 9 6 [ j.j.j.j.d.p.p.p.p.i.p.p.p.g.p.p.p.p.p.p.h.` 0 X   ^ p.g.p.p.p.p.p.p.p.p.p.p.p.p.p.p.p.p.p.n.K.|.>XwX9X<X=X=X^.S N m ",
"6 m 9 9 6 | d.j.d.d.d.p.p.i.i.p.p.p.p.p.p.p.p.p.p.p.g.7.~ 0 i ;.g.p.p.g.p.p.p.p.p.p.p.p.p.p.p.p.p.i.p.l.K. X+X<X<X<X<X&X(.C m N ",
"9 9 9 6 y 2.d.j.i.i.i.i.i.i.i.p.p.p.p.p.i.p.p.p.p.p.p.g.a.;.7.g.g.p.p.p.p.p.p.p.p.p.p.p.p.p.p.p.p.p.p.l.K. XXX%X&X=X&X&X&.m N m ",
"9 9 9 4 y <.d.d.s.i.i.i.i.i.i.i.p.p.p.p.p.p.p.p.p.p.p.p.p.h.h.p.p.p.p.p.p.p.p.p.p.p.p.p.p.p.p.p.p.p.p.j.P. XXXoX%X%X%X%X@.m m N ",
"9 9 8 5 y 8.s.d.s.i.i.i.a.i.i.i.p.p.p.p.i.p.i.p.p.p.i.p.p.p.i.p.p.p.p.p.p.p.p.p.p.p.p.p.p.p.p.p.p.s.i.j.M.[.oXoXoXoXoX'.P m m m ",
"9 9 8 5 t w.s.d.d.i.i.i.i.i.i.i.p.p.p.p.p.p.p.p.p.p.p.p.p.p.p.p.p.p.p.p.p.p.p.p.p.p.p.p.p.p.i.p.d.i.d.n.P.[.XXXXXX[.[.B.g x m m ",
"9 6 9 1 t 8.s.s.j.d.i.i.i.i.i.i.i.p.p.p.p.p.i.p.p.i.p.p.p.p.p.p.p.p.p.p.p.p.p.p.p.p.p.p.i.p.i.p.i.s.d.m.P.[.[.[.[.[.C.X.4 k m k ",
"6 9 6 1 e ,.s.s.d.j.j.d.i.i.i.i.i.i.i.i.i.i.i.p.i.i.i.p.p.p.p.p.p.p.p.p.p.p.p.p.p.p.p.p.i.i.i.i.d.d.n.N.].[.{.].].C.B.t 2 9 m m ",
"6 8 5 3 7 :.0.s.s.j.k.j.j.p.p.i.i.i.i.i.i.i.p.i.i.p.i.i.i.p.p.i.p.p.p.p.p.p.p.p.p.p.i.i.i.i.s.s.d.z.n.C.].].C.C.C.C.[ , 1 6 k m ",
"6 5 2 , - ) 8.0.r.s.j.k.k.j.j.g.d.p.i.i.i.i.i.i.p.p.p.p.p.i.p.p.p.p.p.p.p.p.p.p.p.p.p.d.d.d.d.f.z.v.x.N.C.C.C.M.C.6.e > 1 9 k m ",
"6 1 3 - o = } q.0.s.s.d.j.k.k.j.j.j.j.p.p.p.p.p.p.p.p.p.p.p.p.p.p.p.p.p.p.p.p.d.j.j.j.d.d.d.d.f.f.v.b.C.M.M.N.C.6.p $ , 1 k M k ",
"6 1 , $ o o r 8.e.0.e.e.s.d.j.z.j.k.j.j.j.g.g.g.p.j.j.j.g.j.j.j.h.g.k.j.k.j.k.j.j.j.d.d.s.e.e.r.r.v.m.M.M.M.N.C.s & & , 5 k m k ",
"5 1 > $ + O % d 8.w.e.e.e.s.s.d.d.d.z.z.j.j.l.k.k.k.Z.Z.Z.k.Z.Z.Z.Z.l.Z.k.k.j.z.j.s.0.e.9.9.9.e.v.b.m.M.C.C.5.a ; & > < 8 m m l ",
"6 1 > $ # @ @ # _ ,.w.e.0.e.s.0.s.d.i.d.d.d.d.j.k.k.k.l.k.Z.l.Z.k.l.k.j.j.j.d.s.s.0.9.9.9.9.e.f.b.m.M.m.C.B.O.b h - , 5 9 k k m ",
"6 4 , > & # # # = ) :.w.q.0.0.0.0.s.s.s.s.s.s.s.s.s.s.s.s.s.s.i.d.d.s.d.d.s.e.s.0.e.e.e.e.e.e.v.b.m.N.3.s f c c v 3 5 9 m l m m ",
"6 4 , > & # # & % q d { 8.w.0.0.0.0.0.0.s.e.s.s.0.0.e.e.0.e.0.0.e.e.e.e.e.e.0.0.0.0.e.e.e.e.f.b.x.3.' q + ; ; ; g 2 8 k 9 m m k ",
"6 4 < > $ $ & - $ + * s _ } >.8.w.r.e.0.0.0.e.e.e.s.0.e.0.e.0.0.0.0.0.0.0.0.0.0.0.0.0.e.9.w.2. .) w $ # # - , 8 1 8 9 m m l m m ",
"6 4 < > > > & , & # # * r s d ) } 1.8.w.r.0.e.e.0.0.0.0.0.0.0.0.0.0.0.0.0.9.0.0.9.q.w.,.} ] a = # # & > > < , , 8 9 9 l m m m 9 ",
"6 5 < < > , , 3 - # $ # # $ 7 w w p d } 3.<.8.y.r.f.e.e.e.e.e.0.e.e.e.r.w.8.8.,.{ _ d r : @ @ @ $ & > , < < < 8 8 9 m m l m m m ",
"6 5 < < , > , < , & : $ # $ $ # # @ @ * w p d ]  .3.2.2.t.t.x.x.t.2.2.| ] ) r q % o O O @ @ : : & , , < 1 8 8 8 9 9 9 m m m m 9 ",
"9 6 1 < < , > < < - > : : $ $ $ : $ $ # $ $ $ % $ w r r p p a p p r q + o o o o @ @ @ @ $ : : > > > , < 8 8 9 9 m m 9 M m m m m ",
"k 9 5 1 1 1 , < 1 , , > : : , , > > : : : $ : # # @ @ # @ O O O + # O o o + O % @ @ : : : : > < 4 > 8 8 8 9 m M 9 9 M 9 9 l 9 m ",
"k k 5 1 1 , < , , < < < - 3 v H 1 > : : : : $ $ $ # $ # # # # # & # + # # # # $ $ : : > > < < 4 8 4 9 9 9 9 9 l m m 9 m m m l M ",
"N k 8 6 5 1 < < 1 1 < , ; , 3 2 < : < < > < : : : : : $ : $ : : - & & & & & & & > > > < 4 4 4 6 9 9 9 9 9 9 m 9 9 m m m m 9 m m ",
"m 6 k 6 4 6 4 4 4 4 4 4 < < , < < < < : < < , > > : > , > > , > , , , , - , - , > < < 4 9 9 6 6 9 m 6 m m 9 m m m k l 9 9 m m 9 ",
"k m m m 6 6 6 6 4 4 4 4 5 4 1 < 4 < < < < < < , < , , , , < < < 1 1 2 1 2 2 1 5 8 4 9 9 6 6 N N 6 6 6 m 9 m m 9 k k M m l M m m ",
"m m m m N 6 6 6 m 6 6 6 6 5 5 4 4 < 4 4 < 4 4 4 4 4 4 4 5 5 6 6 8 6 8 6 8 8 8 9 m 9 6 6 N m m 6 m m m 6 9 m m m m m m m 9 m m 9 ",
"N 6 N m m m 6 N 6 N 6 m 6 6 6 5 6 6 6 6 6 6 6 6 6 6 k k k k 9 9 9 9 9 9 9 9 k 9 6 m m m m m m m m 6 m m m 9 m 9 m m l m m m M l "
};
