/* XPM */
static char *result[] = {
/* columns rows colors chars-per-pixel */
"64 64 226 2 ",
"   c #05111B",
".  c #061A29",
"X  c #082739",
"o  c #274D25",
"O  c #284E27",
"+  c #294F29",
"@  c #295227",
"#  c #27512C",
"$  c #2B5429",
"%  c #2D5B2C",
"&  c #275125",
"*  c #305D2E",
"=  c #2C5B33",
"-  c #29593A",
";  c #275735",
":  c #325D30",
">  c #3E5A3D",
",  c #2F602D",
"<  c #31612F",
"1  c #336432",
"2  c #366A34",
"3  c #396D36",
"4  c #3B6D39",
"5  c #376538",
"6  c #397037",
"7  c #3D743B",
"8  c #3E793C",
"9  c #41763F",
"0  c #417A3F",
"q  c #08334A",
"w  c #093B53",
"e  c #113645",
"r  c #265C4A",
"t  c #2C6448",
"y  c #2B675A",
"u  c #346A4F",
"i  c #0D5171",
"p  c #235F75",
"a  c #1E6770",
"s  c #2D6E6A",
"d  c #2D716C",
"f  c #397963",
"g  c #297377",
"h  c #307676",
"j  c #0E4659",
"k  c #446E40",
"l  c #4B6C48",
"z  c #516D4E",
"x  c #437540",
"c  c #437C41",
"v  c #4A7D46",
"b  c #447D4A",
"n  c #4C7D4A",
"m  c #4A7545",
"M  c #577856",
"N  c #517457",
"B  c #60785E",
"V  c #677D66",
"C  c #54756E",
"Z  c #458242",
"A  c #498546",
"S  c #468843",
"D  c #498A46",
"F  c #4C8449",
"G  c #4C8B4A",
"H  c #46824C",
"J  c #51864D",
"K  c #4D914B",
"L  c #51924E",
"P  c #468354",
"I  c #49885A",
"U  c #548D53",
"Y  c #568455",
"T  c #559552",
"R  c #599357",
"E  c #4B8B62",
"W  c #4B8E6B",
"Q  c #4F9069",
"!  c #51946C",
"~  c #4E9474",
"^  c #4E9579",
"/  c #539675",
"(  c #549778",
")  c #548067",
"_  c #668C65",
"`  c #689869",
"'  c #728C72",
"]  c #779A79",
"[  c #70856F",
"{  c #77A677",
"}  c #0B5F87",
"|  c #1C738B",
" . c #147699",
".. c #156A89",
"X. c #257783",
"o. c #267C93",
"O. c #37758D",
"+. c #1277AB",
"@. c #2C828C",
"#. c #1583AB",
"$. c #178BB2",
"%. c #1391B7",
"&. c #2381A1",
"*. c #238AB4",
"=. c #3697B8",
"-. c #3090A4",
";. c #539C84",
":. c #509D89",
">. c #479382",
",. c #58A38B",
"<. c #58A898",
"1. c #7EA280",
"2. c #5AAEA5",
"3. c #5EB3A9",
"4. c #5EB7B6",
"5. c #47A5B2",
"6. c #63B3A7",
"7. c #63BCBD",
"8. c #63B7B3",
"9. c #0D86C6",
"0. c #188BC9",
"q. c #148DD4",
"w. c #1292D2",
"e. c #2394CB",
"r. c #259CDC",
"t. c #2A95C6",
"y. c #17A8D5",
"u. c #33B6DB",
"i. c #0E96E3",
"p. c #1294E6",
"a. c #0E96F4",
"s. c #0D97FC",
"d. c #0E9BFE",
"f. c #0E99F4",
"g. c #139BF5",
"h. c #119DFD",
"j. c #1B9DF1",
"k. c #0EA0EB",
"l. c #15B5EB",
"z. c #0EA6FF",
"x. c #0EAAFF",
"c. c #12A4FF",
"v. c #12ADFF",
"b. c #1BABFF",
"n. c #19A6FE",
"m. c #0EB4FF",
"M. c #0FB8FF",
"N. c #13B4FF",
"B. c #1AB3FF",
"V. c #15BBFF",
"C. c #1CBCFF",
"Z. c #18BAF3",
"A. c #16AEE0",
"S. c #27A4EB",
"D. c #25A5F2",
"F. c #23ADFF",
"G. c #23B4FF",
"H. c #23BBFF",
"J. c #2AB7FF",
"K. c #32BAFF",
"L. c #61BEC4",
"P. c #41BAEF",
"I. c #53B2CB",
"U. c #17C2FF",
"Y. c #19C6FF",
"T. c #1CC9FF",
"R. c #18C6F9",
"E. c #19D1FC",
"W. c #19C1EF",
"Q. c #22C4FF",
"!. c #2CC2FF",
"~. c #23CAFF",
"^. c #2BCCFF",
"/. c #32CEFF",
"(. c #39CEFF",
"). c #37C4FF",
"_. c #35D1FF",
"`. c #3CD1FF",
"'. c #20D6FF",
"]. c #5FC6D4",
"[. c #65C3CB",
"{. c #68C9D6",
"}. c #73CDD4",
"|. c #7CD3DD",
" X c #43CBFF",
".X c #43D3FF",
"XX c #4BD5FF",
"oX c #42DEFF",
"OX c #52D6FF",
"+X c #5AD6FF",
"@X c #54D9FF",
"#X c #5BDAFF",
"$X c #50CEFF",
"%X c #65CEE6",
"&X c #6BD3E9",
"*X c #74D5E8",
"=X c #65DDFF",
"-X c #6BDEFF",
";X c #67D8F7",
":X c #73DEFE",
">X c #77DBF5",
",X c #6DE0FF",
"<X c #74E1FF",
"1X c #7BE3FF",
"2X c #839F84",
"3X c #89A78A",
"4X c #82DAE8",
"5X c #82DEF1",
"6X c #8BE1EF",
"7X c #83E4FF",
"8X c #8AE6FF",
"9X c #8DE9FF",
"0X c #89E2F4",
"qX c #94EAFF",
"wX c #9CECFF",
"eX c #92E7FB",
"rX c #A4EEFF",
"tX c #AAEFFF",
"yX c #B3EFFF",
"uX c #A5F0FF",
"iX c #ABF0FF",
"pX c #B3F2FF",
"aX c #BCF3FF",
"sX c #C3F4FF",
"dX c #CCF6FF",
"fX c #D2F7FF",
/* pixels */
"Z Z Z Z Z Z 8 Z 8 Z 8 Z c c c c Z 0 0 0 0 0 9 9 9 9 9 9 0 9 0 0 0 0 c c 0 c c c Z Z S S Z Z Z Z Z Z S S S S S Z S S Z Z S Z S S ",
"Z S Z 0 8 Z Z Z S 8 Z 8 c 8 8 Z 0 0 Z 0 0 0 c x 9 9 4 k 9 9 0 v c 0 0 c c 9 c A u Z Z Z Z Z Z Z Z S Z Z S S S S S Z Z S Z S Z Z ",
"S A Z c 0 c 0 Z c Z c Z c c c Z 0 Z 0 0 9 9 c c 9 9 x u x 0 c 0 c c 0 c c x v G c Z Z Z S L G Z Z Z Z S S S S S Z S S Z Z Z S Z ",
"Z S Z Z Z 0 Z 0 c c c c 8 c Z c Z 0 0 0 9 9 x v 9 9 0 0 0 9 0 0 0 c c 9 9 0 c A Z Z Z S R { ` A c Z S S S S S S S Z Z S Z Z Z Z ",
"Z Z Z 8 Z 8 Z 0 c c c c Z c c c c c x u 9 9 9 0 9 9 9 9 0 0 0 0 0 0 0 0 c c 0 c c Z Z S J U J Z Z Z S S S S S S A S S S Z 8 S Z ",
"Z Z Z 0 8 0 Z 0 0 Z c Z Z Z c c c A c x 9 9 9 0 9 0 0 0 0 9 0 0 0 0 9 0 0 c c c Z Z Z c Z Z 0 0 Z Z Z S Z S Z S S S K D S S Z Z ",
"Z Z u Z 8 0 A Z c Z G G S c c c c x 7 9 9 9 9 9 0 0 0 9 0 9 0 0 0 0 0 0 0 0 9 c Z c Z 0 0 0 0 A c c Z Z S A S S S S K S S S Z Z ",
"Z 8 Z Z 0 0 G A Z K G S Z c 8 8 c c 9 9 9 7 9 9 9 9 9 9 9 9 9 9 9 0 9 0 0 Z u c c 0 0 0 0 0 0 A c 0 8 Z Z Z S Z S S K S D S S 8 ",
"0 Z 0 0 0 0 L L T K G Z c x 9 x 0 0 0 9 9 9 0 9 0 u c x P E / ( ,.,.<.,.,./ ~ E I H Z 8 0 0 0 Z F c 9 A c Z Z Z Z S K S D D Z Z ",
"Z 0 Z 0 0 A T T T G A A c 9 x c 0 0 0 0 9 9 u 7 0 P / <.8.[.%X*X4X4X6X6X0X6X*X}.7.<.^ P 0 u 0 0 A A 9 c c c c Z A D K D K Z Z Z ",
"0 Z v 0 9 n T R F A c c 0 u c c 0 0 0 0 9 x b W <.7.%X:X<X1X9XqXwXuXiXuXqXqXqXqXeX7X&X4.,.I 9 9 c G c c c c c A A K D G D A A c ",
"Z 0 0 0 0 n U L n A c c 0 x c c 0 0 0 u v W 2.{.;X>X:X1X7XqXwXuXiXpXiXuXuXwXuXiXyXtXwX1X&X4.^ b c G G c A c x c D L D K D A A Z ",
"0 0 A G n J J n v Z c c 9 0 0 0 x c b E <.{.;X:X:X<X7X7X9XrXuXpXaXsXsXsXaXpXaXsXsXsXaXyXqX1X{.<.P A G G F v Y U U T G G A A Z Z ",
"Z 0 Z A v J J v v c c x 0 0 m 0 x b :.[.;X-X:X<X1X7X8X9XwXuXpXsXdXdXdXdXdXsXsXdXfXfXdXdXaXwX7X>X3.E G T U _ ] ] ] _ G D G G Z Z ",
"m 9 9 m l n n v c c c 0 9 c 0 9 E 4.&X-X-X:X<X1X1X1X1X7XqXiXaXsXfXfXfXfXdXdXsXdXdXdXdXdXsXyXwX8X:X8.! R _ ' ] 2X3X3X` J L G A c ",
"9 9 9 9 k m n v A c c x c x b ( [.:X-X-X-X<X<X<X<X,X,X-X,XqXiXaXdXfXfXfXdXdXsXsXsXaXaXsXsXyXtXwXeX7X7./ M B V [ ' ' _ L G A Z c ",
"9 9 9 9 9 l 9 l c c x u 0 G 2.*X<X,X-X,X<X<X<X,X=X=X@XOXXX#X:XeXtXsXdXdXfXsXsXyXpXpXpXaXaXpXiXtXrXqX7X8.C z z z M Y Y F v Z 0 Z ",
"9 9 l 9 9 9 9 9 c x c c E 8.*X-X=X=X,X,X<X<X,X,X#XXX`._.^./.`.+X>XwXyXsXsXaXyXrXrXtXtXpXaXpXuXtXrXrXwX5X8.M m l z n m 0 0 Z Z 0 ",
"m 0 0 9 9 0 0 0 c c c ! 7.>X-X=X=X=X,X,X,X,X,XXX`.^.~.~.~.~.~.~. X:XeXyXyXyXrXeXqXwXiXiXpXpXiXiXtXtXrXqX>X<.n 9 9 0 9 0 Z 0 Z 0 ",
"0 0 0 0 0 v 0 0 c c ( [.-X-X#X@X#X=X=X,X,X,X#X_.^.^.^.~.T.T.T.T.Q. X:XeXeXrXeX7X7X9XwXtXyXiXiXiXtXtXtXrXqX}.W 9 0 0 x v 0 Z 0 Z ",
"0 0 c 0 0 0 v 0 c ! {.;X,XXXXXXX#X#X,X#X,X#X`./.^.~.~.~.~.T.Q.T.T.Q./.+X-X:X:X=X,X7XqXwXuXiXiXuXtXtXiXuXwX0X6.A 0 9 9 v 0 v 0 0 ",
"Z c c 0 0 0 0 0 H 4.=X@X.X`.`..X#X#X,X,X#X@X`._.^.~.T.Y.Y.T.T.T.T.Y.Q.^..XXXOXOX#X:X8X9XqXqXuXiXrXtXuXrXwXqX|./ 0 0 9 0 0 0 0 0 ",
"Z 0 c c 9 9 0 v ( ;XOX.X/.^._.@X,X,X,X#X=X,X,X#X@X.X~.T.Y.T.Y.T.T.T.T.T.^.^./.`.XX#X:X7X9X8XqXiXtXrXtXuXwXwXeX8.n 9 9 0 9 9 0 0 ",
"Z 0 0 c x c 0 Y [.@X`./.~.~..X#X,X,X,X,X,X#X,X,X=X#XXX^.Y.Y.Y.T.Y.T.T.Y.Y.T.T.~.(.XX@X-X<X<X7XqXwXtXrXrXwXwXqX4X/ 0 0 9 0 9 0 0 ",
"Z c c 0 u Z Z <.#X.X/.~.~.^.OX,X#X,X,X#X,X#X,X=X#X#X@X_.T.Y.T.Y.Y.T.Y.Y.T.Y.Y.T.^.`..XOX#X-X,X1X9XwXuXwXwXwXwX6X6.v x x c c c c ",
"c 0 c c c c R ].XX/.~.~.~.`.OX#X,X,X,X,X,X,X#X,X@XOXOX`.T.T.Y.Y.Y.Y.Y.T.Y.Y.Y.Y.T.^.`..XOX#X#X=X1X9XwXwXwXqXwXqX}.U c c c c c 0 ",
"c c c c c A <.#X(.^.~.T.~.`.OX#X,X,X,X#X,X#X,X#X@XXX.X`.T.T.Y.T.T.Y.T.Y.Y.Y.Y.Y.Y.T.^./..X.X.X.X@X1X9XqXqXwXqXqX5X;.c x 9 c c c ",
"Z c 0 c c G {.XX/.~.~.T.T.`.XX@X@X#X#X,X,X#X@X@X.X`.`./.T.Y.Y.Y.Y.Y.Y.Y.Y.Y.Y.Y.Y.Y.Y.T.~.^.^.^._.#X1X9XqXqXqX9X5X6.b x 9 0 9 0 ",
"8 c c c c / -X`.^.~.Q.Y.T./..XXXOX@X@X#X@XXX.X.X`.`./.~.T.Y.Y.Y.Y.Y.Y.Y.Y.Y.Y.Y.Y.Y.Y.Y.Y.Y.Y.Y.E.u.%X,X1X9X9X8X1X[.I c 9 0 9 0 ",
"c c c c Z <.#X_.~.T.T.T.T.~..X.XXXXXXXXX.X.X`._././.~.T.Y.T.T.Y.T.Y.Y.Y.Y.Y.Y.Y.Y.Y.Y.Y.Y.Y.T.R.#.a X.I.;X<X7X7X1X*X/ c 9 c 0 0 ",
"c c c 8 H 7.@X_.~.T.T.Y.T.T./.(.`..X`._._./.^./.^.~.T.T.T.Y.Y.Y.Y.Y.Y.Y.Y.U.Y.Y.Y.T.Y.Y.Y.Y.E.A.i j e p u.oX=X:X:X:X<.F 0 0 0 0 ",
"Z 8 c c P {.@X/.~.~.T.T.T.T.T./.`.`.`._._./.^.~.T.T.T.Y.Y.Y.Y.Y.Y.Y.U.Y.Y.Y.Y.Y.Y.Y.Y.Y.U.Y.E.y.i w e j y.'.`.-X:X:X[.I 0 0 0 v ",
"0 c 0 0 I +XXX/.~.~.T.T.T.Y.T.Y.~.~.^.~.~.T.T.Y.Y.Y.Y.Y.R.R.Y.Y.Y.E.U.U.Y.Y.Y.Y.U.Y.Y.Y.U.Y.E.M. .w q  .W.E.Y.OX:X:X*X~ c Z 8 Z ",
"Z 0 0 0 / +X X^.Q.Q.T.T.Q.Y.T.T.Y.Y.Y.Y.Y.Y.Y.Y.Y.U.Y.Y.Y.R.Y.Y.R.R.E.Y.U.Y.Y.Y.Y.Y.Y.Y.R.Y.R.E.W.%.%.l.E.Y.U./.-X:X>X,.Z 0 S u ",
"c 8 0 9 ;.$X).^.Q.Q.T.~.~.Y.T.T.T.Y.Y.Y.Y.Y.Y.Y.U.U.U.U.U.R.R.A.+.#.A.E.U.U.U.U.Y.U.Y.Y.R.R.R.R.Y.E.E.E.Y.U.Y.~.+X:X>X2.8 Z Z Z ",
"Z 8 0 0 :.$X).!.Q.Y.Q.~.~.T.T.Y.Y.Y.U.Y.U.U.U.V.V.M.m.M.m.U.x.} . X } M.V.m.M.M.V.V.V.V.U.U.R.Y.Y.E.E.R.U.Y.Y.Y..X-X:X2.S Z Z S ",
"8 0 0 0 <. XK.Q.H.C.Q.~.~.T.T.T.Y.Y.Y.V.V.N.m.m.m.x.x.x.x.M.w.w . . q 9.M.x.x.x.x.x.x.m.m.M.M.M.U.U.Y.Y.Y.U.Y.U.^.,X<X3.Z S Z S ",
"c 0 0 8 5.K.J.H.H.H.Q.Q.~.~.T.T.V.V.V.N.N.m.x.x.x.x.x.x.x.m.9.q X X X +.M.x.x.x.x.z.x.x.x.x.x.x.m.M.V.Y.Y.Y.U.Y.~.#X<X8.Z Z S Z ",
"0 0 0 8 5.K.J.H.H.H.H.Q.Q.Q.Y.V.V.N.v.x.x.x.x.x.x.x.x.x.x.M.i.j     w 9.M.x.x.x.x.x.x.x.x.z.x.x.x.x.m.N.V.Y.Y.U.T.XX,X4.8 S Z S ",
"0 0 9 7 =.J.G.G.G.H.C.H.Q.C.N.v.x.x.x.x.x.x.x.x.x.x.x.x.x.x.x.9.i } %.x.x.x.x.x.x.x.x.x.x.x.x.x.x.x.x.v.N.V.Y.U.T. X,X8.8 8 S Z ",
"0 8 9 7 -.F.b.F.G.G.B.C.C.N.x.x.x.x.x.x.x.x.x.x.x.x.x.x.x.x.m.x.a.f.x.x.x.x.x.x.x.x.x.x.x.x.x.x.x.x.x.x.x.N.V.V.C.).=X2.u Z Z Z ",
"0 0 0 4 @.n.n.b.G.B.B.B.N.x.x.x.x.x.x.x.x.x.x.x.x.x.x.x.x.x.x.x.z.z.m.x.x.x.x.x.x.x.x.x.x.x.x.z.x.x.x.x.v.v.N.V.C.!.+X<.0 Z Z Z ",
"0 8 0 6 f j.n.c.n.B.B.B.b.x.x.x.x.x.x.x.x.x.x.x.x.x.x.x.x.x.x.m.x.x.x.x.x.x.x.x.x.x.x.m.x.x.x.x.x.x.x.z.x.x.v.N.N.H.$X>.6 0 Z Z ",
"8 0 8 4 t 0.h.h.n.n.B.B.v.x.z.x.x.x.x.x.x.x.x.x.x.x.x.x.x.x.x.x.x.x.x.x.x.x.x.x.x.x.x.x.x.x.z.z.z.z.z.z.v.z.c.v.v.G.P.f 6 0 Z 0 ",
"9 7 9 5 1 g g.h.h.c.n.n.v.c.z.z.x.x.x.x.x.x.x.x.x.x.x.x.x.x.x.x.x.x.x.x.x.x.x.x.x.x.x.x.x.x.z.z.z.z.z.z.z.d.z.v.b.b.t.u 3 0 Z 0 ",
"7 7 4 1 * - +.d.h.h.c.b.n.c.z.z.z.x.x.x.x.x.x.x.x.x.x.x.x.x.x.x.x.x.x.x.x.x.x.x.x.x.x.x.x.x.z.z.z.z.z.z.z.z.v.v.v.k.@.2 3 0 Z Z ",
"8 3 5 : + # s i.h.d.h.c.n.c.c.d.z.z.z.x.x.x.x.x.x.x.x.x.z.x.x.x.x.x.x.x.x.x.x.x.x.x.x.x.x.z.z.z.z.z.z.z.x.N.v.c.h.w.t < 9 0 Z 0 ",
"8 6 1 * + + # a a.d.h.g.c.c.c.c.c.z.z.z.x.x.x.x.z.x.x.x.z.x.x.x.x.x.x.z.z.x.x.z.x.z.z.z.z.z.z.z.z.x.v.x.N.v.c.c.g.X.* * 9 0 Z Z ",
"7 6 < % $ O O + | p.s.h.h.h.h.h.c.c.v.v.v.v.x.x.x.x.x.z.z.z.z.z.z.x.z.z.z.z.z.z.z.z.z.x.x.x.x.N.N.V.N.N.n.c.d.d.$.t < 5 0 0 Z Z ",
"7 3 < % $ $ $ O + a 0.a.h.h.h.h.h.h.c.v.N.N.N.N.N.N.N.N.N.v.x.m.x.v.x.v.x.x.v.c.x.x.v.N.N.N.V.N.N.B.v.c.h.h.j.=.f 1 < 9 0 Z 0 Z ",
"8 2 2 , $ $ $ $ $ + r  .q.h.g.h.h.s.d.d.c.b.N.V.V.V.V.U.V.Y.V.V.V.V.V.N.N.N.N.N.N.N.N.N.N.N.v.v.z.z.d.d.j.e.O.C M 5 9 9 Z Z A Z ",
"8 6 2 < * $ * * $ + + + r | 0.g.g.d.d.d.d.d.z.c.b.v.N.N.N.N.V.V.C.V.V.N.N.N.N.N.N.b.b.v.n.c.z.d.d.d.i.e.o.y > > 9 4 9 0 0 0 A 0 ",
"8 6 2 < * % * < $ $ $ $ + # r g $.p.f.f.s.d.d.d.d.d.h.h.d.z.h.d.z.h.z.c.c.c.c.c.z.z.h.d.d.f.a.i.q.*.@.y : 1 1 5 9 0 0 Z A A 0 A ",
"8 6 2 < < * * < : $ $ $ $ $ $ # ; y h &.0.p.a.f.s.d.s.s.s.s.d.d.d.s.d.d.h.s.h.f.f.f.p.i.w.9.#.@.h t = , 1 5 2 3 9 0 0 Z Z 0 Z 0 ",
"8 6 2 2 < < 1 5 : % % $ $ $ $ $ @ @ # # - t d @.*.t.S.S.D.D.D.D.D.D.S.S.r.r.e.$.o.o.X.X.g d u 1 % , , 1 1 3 3 7 9 9 0 v A 0 Z Z ",
"0 6 6 2 2 < 1 5 1 * % % % % % % % % @ & # # & & # - r y s d h h h h d s y y r - - ; ; ; , @ , , , 1 1 2 3 4 7 9 0 0 Z A 0 Z A 0 ",
"0 8 3 2 2 < < 2 5 < , , , % % % , , % $ % @ @ & & & & & & o o o @ @ o o o o o o @ @ @ % % % , < < < , 9 9 9 0 0 0 Z A Z 0 A 0 A ",
"0 0 7 3 2 2 2 2 2 1 1 < < < 1 1 < , , , , , % % % $ $ $ @ O O & + $ O o o O O + @ @ , % , < < 2 2 < 9 9 9 0 A A Z 0 0 A A 0 0 Z ",
"Z 8 7 7 3 5 < 2 3 2 2 < : 5 M Y 2 1 < < , < , , % % % $ $ $ $ $ % $ $ $ $ $ $ % % , , < 2 2 2 6 9 6 0 0 9 9 Z 0 0 Z 0 0 0 Z A 0 ",
"S 8 7 7 7 3 6 2 3 2 2 2 : 1 5 4 6 < 2 < < < < , * , * % < % , , : % : * * * * * , < < 2 2 6 6 8 0 0 0 0 0 0 0 Z Z 0 A Z Z A 0 A ",
"Z 8 8 8 8 6 6 6 6 6 2 6 3 3 3 2 2 2 1 < 2 1 1 < < < < < , 1 < < 1 1 1 1 : 1 1 1 < 2 2 6 0 0 8 8 0 Z 8 Z Z Z 0 Z Z 0 Z Z Z A 0 A ",
"Z Z Z Z 8 8 8 8 6 8 6 6 4 3 3 2 2 6 2 2 2 2 2 2 2 < 2 < 1 2 2 2 3 3 4 3 4 4 4 4 6 0 0 0 8 8 S Z 8 8 8 Z 0 Z Z 0 Z Z v 0 Z 0 A 0 ",
"Z Z Z Z Z 8 Z 8 Z 8 8 8 8 6 3 3 6 6 6 6 6 6 6 2 6 6 6 7 7 7 8 8 8 9 8 9 9 9 9 0 0 8 8 Z Z Z Z Z 8 Z Z Z Z 0 A v 0 Z Z Z Z Z Z 0 ",
"S Z S Z Z Z 8 Z 8 Z Z c 8 0 8 8 7 8 8 8 8 8 8 8 8 0 0 0 c c 0 0 0 0 0 0 0 0 c 0 Z 8 Z Z Z Z Z Z S 8 Z 8 0 Z Z 0 Z Z A v 0 Z 0 A "
};
