/* XPM */
static char *result[] = {
/* columns rows colors chars-per-pixel */
"64 64 218 2 ",
"   c #082737",
".  c #0A303E",
"X  c #264D25",
"o  c #284E26",
"O  c #294E28",
"+  c #274D28",
"@  c #295227",
"#  c #2B5429",
"$  c #2D5B2C",
"%  c #275229",
"&  c #305C2E",
"*  c #285735",
"=  c #315E30",
"-  c #2F602D",
";  c #31612F",
":  c #336432",
">  c #366A34",
",  c #396D36",
"<  c #3B6D39",
"1  c #36673A",
"2  c #397037",
"3  c #3D743B",
"4  c #3E793C",
"5  c #41763F",
"6  c #417A3F",
"7  c #072C42",
"8  c #09334B",
"9  c #093D5B",
"0  c #0C4356",
"q  c #275C45",
"w  c #2C644D",
"e  c #346D48",
"r  c #2B6453",
"t  c #2A6658",
"y  c #3B6F58",
"u  c #357451",
"i  c #0A527A",
"p  c #1F5F60",
"a  c #1E6A77",
"s  c #2D7369",
"d  c #2D7A76",
"f  c #347C75",
"g  c #297069",
"h  c #446D40",
"j  c #4C6D49",
"k  c #516D4E",
"l  c #437440",
"z  c #497444",
"x  c #437C41",
"c  c #4A7C46",
"v  c #4D7D4A",
"b  c #497A4C",
"n  c #577A55",
"m  c #52744F",
"M  c #60785E",
"N  c #677D66",
"B  c #3A8569",
"V  c #458242",
"C  c #498546",
"Z  c #468843",
"A  c #498A46",
"S  c #4C844A",
"D  c #4C8B4A",
"F  c #45814A",
"G  c #51864D",
"H  c #4D914B",
"J  c #51924E",
"K  c #458454",
"L  c #48865A",
"P  c #548D53",
"I  c #568455",
"U  c #559552",
"Y  c #599357",
"T  c #4B8E6B",
"R  c #488B67",
"E  c #4C9677",
"W  c #539B7A",
"Q  c #538F6D",
"!  c #668C65",
"~  c #689869",
"^  c #728C72",
"/  c #779A79",
"(  c #70856F",
")  c #77A677",
"_  c #0A5B87",
"`  c #116481",
"'  c #1D738C",
"]  c #187798",
"[  c #0C6592",
"{  c #257A8B",
"}  c #397D8B",
"|  c #1177A9",
" . c #257EA3",
".. c #34858A",
"X. c #298396",
"o. c #35909D",
"O. c #1A83AB",
"+. c #1A86B7",
"@. c #2788A8",
"#. c #2C98BF",
"$. c #3698B9",
"%. c #328FAF",
"&. c #3AA4AE",
"*. c #4A9B88",
"=. c #589F84",
"-. c #50A597",
";. c #63A68A",
":. c #7EA280",
">. c #468CA3",
",. c #55B2B1",
"<. c #6AB5A9",
"1. c #6ABBB7",
"2. c #73B9AD",
"3. c #188BC9",
"4. c #0D8FD5",
"5. c #0D91D9",
"6. c #1692DB",
"7. c #1A91DA",
"8. c #1A91D2",
"9. c #359DC7",
"0. c #2798CE",
"q. c #3BA2CB",
"w. c #39A5D5",
"e. c #34A8D4",
"r. c #3EBAD0",
"t. c #0E99E5",
"y. c #1495E4",
"u. c #1496EA",
"i. c #0F96FE",
"p. c #0E9BFF",
"a. c #139BF4",
"s. c #119EFE",
"d. c #179BF2",
"f. c #0EA6FF",
"g. c #0EAAFF",
"h. c #0EA3F2",
"j. c #12A3FF",
"k. c #1BA4FE",
"l. c #12ACFF",
"z. c #1DABFE",
"x. c #0FB1FF",
"c. c #13B3FF",
"v. c #1CB4FF",
"b. c #16BCFF",
"n. c #1BBCFF",
"m. c #18BDF5",
"M. c #0FA0EA",
"N. c #34A9E6",
"B. c #22ACFF",
"V. c #28A9F9",
"C. c #23B2FF",
"Z. c #2AB4FD",
"A. c #22BBFF",
"S. c #2ABAFF",
"D. c #28B8F2",
"F. c #2FBBF5",
"G. c #49BCCA",
"H. c #51BDCC",
"J. c #65BFC8",
"K. c #4DBAE8",
"L. c #17C1FF",
"P. c #1BC5FF",
"I. c #1DC9FF",
"U. c #22C5FF",
"Y. c #24C9FF",
"T. c #2BCBFF",
"R. c #2CC4FF",
"E. c #33CDFF",
"W. c #3BCEFF",
"Q. c #37C5F9",
"!. c #3ED0FF",
"~. c #37D0FD",
"^. c #63C3CB",
"/. c #7ECAC8",
"(. c #6ECEDC",
"). c #77CCD3",
"_. c #56CAE4",
"`. c #41CEFF",
"'. c #4ACAF8",
"]. c #43D1FF",
"[. c #4CD3FF",
"{. c #53D5FF",
"}. c #5BD7FF",
"|. c #5BD9FF",
" X c #5AD7FA",
".X c #55CDFF",
"XX c #6CD3E9",
"oX c #77D7EA",
"OX c #62DAFF",
"+X c #6CDDFF",
"@X c #6AD6FF",
"#X c #72DEFF",
"$X c #7CDEFD",
"%X c #75E0FF",
"&X c #7CE2FF",
"*X c #839F84",
"=X c #89A78A",
"-X c #85D2D7",
";X c #82CED0",
":X c #8DDBE5",
">X c #84E4FF",
",X c #8BE6FF",
"<X c #8EE8FF",
"1X c #8AE1F4",
"2X c #92E7FD",
"3X c #94E9FF",
"4X c #9AEAFF",
"5X c #92E3F4",
"6X c #A4ECFF",
"7X c #ABEEFF",
"8X c #B1EEFF",
"9X c #AEF1FF",
"0X c #B5F1FF",
"qX c #BCF2FF",
"wX c #C3F3FF",
"eX c #CCF5FF",
"rX c #D4F7FF",
"tX c #DBF8FF",
/* pixels */
"V V V V V 4 V 4 V V V x 4 V 4 6 x 6 x x x 6 e 5 5 5 5 5 6 z 6 6 6 x 6 x x 6 x x 6 x V V V Z V V V V Z Z Z Z Z Z Z Z V Z V Z V Z ",
"V Z V 6 V x x V Z 4 4 Z V 6 6 V x x x 6 5 6 x l 5 5 5 5 5 5 6 6 6 x x x x 5 V C V V Z V Z x V V V V Z Z V Z Z Z Z 4 Z V V V V Z ",
"Z A V x V x 6 V x x 4 4 6 6 V 6 x x x l 5 l x x h 5 5 5 5 6 x 6 x x x 6 x 5 c C V u V V Z J G V V x Z Z Z Z Z Z Z Z V V V V V V ",
"V Z V V 6 V 6 V x V V x V 4 V V x x x 5 5 3 x c l 5 5 5 5 6 5 x x 6 x 5 5 x c Z V V V Z Y ) ~ A x Z V V Z Z Z Z Z Z Z V V V V V ",
"V V V x x x V 6 x x x x V V 6 x x x x 5 5 5 5 6 5 4 5 6 6 6 6 6 6 6 6 6 x x x x 6 V V Z D P G V V V V Z Z Z Z Z V Z Z Z Z 4 Z V ",
"V V V 4 V 4 6 6 x x x V V x V 6 x x x 5 5 5 5 5 e l 6 5 6 5 6 6 6 6 6 6 x 5 6 x V V V x x V 6 x V V Z Z Z Z V Z Z Z H A Z Z V V ",
"V 4 V V 6 6 V V V V D A F x 4 x 6 V 5 5 3 l 5 5 6 6 6 5 5 6 6 6 6 6 6 6 x 4 6 x 6 V x x x x x V x 4 V V Z Z Z Z V Z H Z Z Z V V ",
"u V 6 6 6 6 D C V H H A x x 4 x c 6 5 6 5 e 5 5 6 6 5 5 5 5 5 5 6 6 6 e l l 4 x x x x 6 5 x x V V 4 u V V V Z V Z Z H Z A Z V V ",
"V V 6 6 6 6 J H J J D V x l 5 l x l x 4 l e 6 5 6 6 e b L R E E Q P K x u 4 6 x 6 x x 5 6 6 6 c S x l V V V V V Z A H Z A A V V ",
"6 6 V c 6 C U U U S C V x 5 l x x 5 x 5 5 6 e x T -.1.(.oX$X>X<X5X5X:X/.<.=.C 4 4 x 6 5 5 5 6 6 C C 5 x x 6 x V Z D H A A A V V ",
"6 V 6 6 5 v U Y S S V x l l x x x 5 V 4 5 K -.J.oX,X,X,X<X4X7XqXqXqX0X0X0X7X:X,.R x 5 5 5 5 4 6 V D V x x x x x V H D H A C V 6 ",
"V 6 6 6 6 v P J S V x x l l x x 6 x 4 T ,.(.1X,X<X3X<X<X3X6XqXeXrXtXrXwXqXqXqX9X>X,.L 4 5 5 5 5 x S D c V 6 c V C J A D A C A c ",
"6 6 C D v G G v c c x x 4 l x l V T ,.XX>X<X3X4X4X3X3X<X4X9XwXrXtXtXtXtXwXqXqXqX0X3XXX*.u 6 5 5 6 V J A C S G I P J D A A C V V ",
"V 6 V C z G G v c V 6 l x x x K -._.#X&X>X,X<X3X3X3X3X4X6XqXeXtXtXtXtXtXeXwXqXwXqX0X6X%X,.V 4 6 6 c D J P ! ^ ) / ~ G A D D C 6 ",
"5 5 5 z j v S v V 6 6 x e x *.H. XOX+X#X%X&X>X,X<X<X<X3X6XqXeXtXtXtXtXeXwX0X0X8XqXqX0X4X%X^.K 4 5 l C Y ! ^ / *X=X=X~ G J A c V ",
"j 5 5 5 5 z c v V 6 x x 6 W _. X|.|.|.OX+X#X%X%X&X>X>X>X4X0XeXtXtXtXeXwXqX0X7X7X0XwXqX0X4X&X(.R 5 5 v n M M N ( ^ ( ! U A C V V ",
"5 5 5 j 5 5 k 5 x x x x T _.[.[.[.[.[.{.|.OXOXOXOX+X%X%X&X4XqXeXrXrXwX0X8X7X6X4X6XqXwXqX0X4X>XoXR 5 z m j k k k m I I S C V 6 V ",
"5 5 5 5 5 5 5 5 6 4 6 K H.`.!.!.!.].].[.{.|.|.|.|.|.|.OXOX%X>X6X7X8X7X6X6X4X4X4X4X7X8XwX0X7X4X<XoXm c G m k j j m v z 5 6 V V 6 ",
"6 z 6 6 6 v 5 6 4 V F ,.!.E.E.T.T.E.~.!.!.].].[.[.[.[.{.{.|.OX+X&X>X&X$X$X>X<X<X2X4X6X8X0X8X7X4X3X).F x c v c 5 5 5 5 6 V 6 V 6 ",
"6 6 6 6 6 6 6 6 u V -.`.E.T.T.T.T.E.~.!.!.].].].].].].].[.[.{.|.}.OXOX|.}.OX%X&X,X2X4X6X7X0X7X6X4X3X2.5 6 5 5 6 5 6 5 c 6 V 6 V ",
"6 V 6 6 6 6 6 6 6 E '.E.T.Y.T.T.E.W.].[.[.[.[.[.[.`.].!.].].].[.{.|.|.|.|.{.|.+X$X>X,X2X4X7X7X6X4X4X4X=.5 5 6 6 6 6 6 6 6 c 6 6 ",
"V c 6 6 6 5 6 6 F G.~.Y.P.P.Y.T.W.`.[.[.[.{.{.[.[.`.`.W.~.!.!.!.].[.[.{.{.|.{.|.OX#X$X$X>X4X6X7X4X3X4X5XL 6 6 e 6 z 6 6 6 6 6 6 ",
"V 6 6 6 5 6 v 6 E !.T.I.P.P.T.W.].[.[.{.[.[.[.{.[.[.].W.E.~.~.E.E.~.].].[.[.{.[.{.|.@X#X$X>X3X4X4X3X3X3X;Xc x l 5 5 5 6 6 6 6 6 ",
"V 6 6 v 5 6 6 6 G.E.Y.P.P.U.E.].{.{.{.{.{.{.{.{.{.{.].!.E.T.E.T.T.T.~.~.!.].[.[.[.[.{.}.OX+X>X,X3X<X<X<X4X;.x x 6 6 6 5 5 6 6 6 ",
"V 6 6 6 6 6 V K Q.T.I.P.P.E.].[.{.{.{.{.}..X{.{.{.{.`.W.T.Y.Y.Y.Y.Y.I.T.E.~.~.!.].].].[.[.{.OX#X&X,X>X<X<X5XS V z 6 6 5 5 6 6 6 ",
"V 6 V 6 x 6 V -.E.I.P.P.Y.E.!.[.[.{.{.{.{.{.{.{.{.{.[.W.Y.I.I.I.P.P.P.P.Y.Y.Y.T.E.W.W.W.].!.`.[.|.%X&X>X,X3X2.V 6 6 6 5 6 v C 6 ",
"6 V 6 6 4 V F r.Y.P.P.I.T.E.W.].[..X{.{.}.{.{.{.{.{.[.W.Y.P.P.L.P.P.P.P.P.P.I.I.Y.T.E.E.E.E.T.Y.T.].+X&X>X2X5XQ 6 6 6 6 6 6 6 6 ",
"V 6 6 V V u R Q.I.P.P.P.Y.E.W.!.].[.{.{.{.{.}.{.{.{.{.W.P.P.P.P.P.L.P.L.P.P.P.P.I.Y.T.T.T.T.Y.U.I.Y.].+X>X,X3X;XG 6 6 6 6 6 6 6 ",
"6 6 6 6 6 6 *.R.P.P.P.P.Y.T.E.W.W.`.[.{.{.}.}.}.}.}.[.T.I.P.P.P.L.L.P.P.P.L.L.P.P.I.I.Y.Y.Y.I.P.I.L.I.].%X>X<X3X;.6 6 6 6 6 6 6 ",
"V 6 V 6 6 6 &.A.P.L.P.P.I.Y.T.T.E.E.`.[.}.}.OXOXOX{.Q.P.L.b.b.L.L.b.L.b.L.b.L.L.L.L.P.U.I.I.P.I.O.0 a U. X&X,X2X-XG 6 6 5 6 6 5 ",
"6 6 6 6 6 x e.A.v.n.P.P.P.Y.Y.T.T.T.T.T.W.[.[.[.W.R.n.b.c.c.g.c.x.x.g.x.g.x.x.x.c.x.c.b.L.L.P.L.0 .   a ~.+X>X,X4X/ 6 6 c 6 6 6 ",
"V V 6 6 6 R D.v.v.n.P.P.P.P.I.Y.Y.I.P.P.L.P.n.A.v.c.c.l.g.g.g.g.g.g.g.g.x.g.g.x.g.g.g.g.l.c.x.b.`   . 8 U.[.%X>X<X/.V V 6 6 z 6 ",
"x x 6 6 6 ..V.z.v.n.P.U.P.U.Y.Y.Y.I.P.b.c.c.c.x.x.g.g.g.g.g.g.g.g.g.g.x.x.f.g.g.g.g.g.g.g.g.g.g.M.i 8 ] I.E.OX&X<X5XQ 6 V V 6 6 ",
"V x x 6 6 o.C.z.z.n.A.P.Y.Y.Y.Y.I.b.c.c.c.x.x.g.g.g.g.g.g.g.g.g.g.x.t.[ 4.x.g.g.g.g.g.g.g.g.g.g.x.g.t.g.b.R.].+X>X<X<.x 6 V 6 V ",
"4 V 6 5 6 %.B.z.z.A.A.R.U.Y.A.n.b.c.x.l.x.g.g.g.g.g.g.g.g.g.g.g.x.h.9   8 4.x.g.g.g.g.g.g.g.g.g.g.g.x.g.l.n.E.[.#X,X-Xc 4 Z V V ",
"x 4 5 V 6 #.B.z.B.S.S.A.U.A.n.n.c.l.g.g.g.g.g.g.g.g.g.g.g.g.g.g.g.5.. 7   i g.g.g.g.g.g.g.g.g.g.g.g.g.g.l.l.C.E.OX$X>XW V 4 Z Z ",
"4 4 x 6 6 9.z.k.B.Z.S.S.n.n.v.c.c.c.g.g.g.g.g.g.g.g.g.g.g.g.g.g.x.5.7 7   9 f.g.g.g.g.g.g.g.g.g.g.g.g.g.g.g.c.C.'.@X>X<.Z Z V Z ",
"4 x 6 6 6 #.z.k.B.C.S.C.C.v.c.l.g.g.g.g.g.g.g.g.g.g.g.g.g.g.g.g.g.g.i     _ x.x.g.g.g.x.g.g.g.g.g.g.g.g.g.g.l.c.S..X@X^.Z V x Z ",
"6 6 6 4 e %.B.k.B.B.C.C.C.v.l.l.g.g.g.g.g.g.g.g.g.g.g.g.g.g.g.g.g.x.h.| | h.g.g.g.g.g.g.g.g.g.g.g.g.g.f.f.f.g.j.z.Q..XK.V V Z Z ",
"6 6 6 3 < ..k.k.B.z.B.B.B.v.l.l.g.g.g.g.g.g.g.g.g.g.g.g.g.g.g.g.g.g.g.x.x.g.g.g.g.g.g.g.g.g.g.g.g.g.f.f.f.f.f.f.k.Z.F.F.K V V x ",
"6 4 5 3 2 f d.B.k.k.B.z.B.z.l.l.g.f.g.g.g.g.g.g.g.g.g.g.g.g.g.g.g.g.g.g.g.g.g.g.g.g.g.g.g.g.g.g.g.g.f.f.f.f.f.f.j.c.C.V.B V V V ",
"6 6 5 < , e 0.a.k.k.k.k.z.z.l.f.g.j.g.f.g.g.g.g.g.g.g.g.g.g.g.g.g.g.g.g.g.g.g.g.g.g.g.g.g.g.g.g.g.g.f.f.f.f.f.f.j.c.j.k.B V V V ",
"4 6 5 2 > 1 { s.k.s.j.k.B.B.z.j.f.l.f.g.f.g.g.g.g.g.g.g.g.g.g.g.g.g.g.g.g.g.g.g.g.g.g.g.g.g.g.g.g.f.f.f.f.f.f.l.v.l.j.j.f x V x ",
"6 4 4 2 : : t 6.s.s.s.k.k.k.z.z.l.j.f.f.f.f.g.g.g.g.g.g.g.g.g.g.g.g.g.g.g.g.g.f.f.g.g.f.g.g.g.g.f.f.f.f.f.f.l.c.c.j.j.a.s 6 V V ",
"5 5 5 5 = & #  .d.s.s.s.s.V.k.V.z.l.j.j.f.f.g.g.g.g.g.g.g.g.g.g.g.f.g.g.f.g.f.g.g.f.g.f.f.f.f.f.f.g.f.g.l.c.b.c.l.j.j.6.u 6 Z V ",
", 5 , = = # X q 6.s.a.k.s.k.k.k.z.z.l.l.j.g.l.f.g.g.g.g.g.g.g.g.g.g.g.g.g.g.g.g.g.g.g.f.f.f.f.f.g.g.g.x.c.b.c.l.j.h.j.+.2 u 6 V ",
"5 , > & O o X X a d.s.a.s.k.k.k.k.l.k.l.l.l.l.c.c.g.l.g.g.g.g.g.g.g.f.g.f.g.g.g.f.g.g.f.g.g.l.l.c.b.b.b.b.l.j.f.a.p.8.g 5 6 V V ",
"5 , 1 # O X X X O ' a.s.s.s.s.j.k.a.s.j.j.j.l.c.c.c.c.c.c.b.c.c.x.x.x.g.x.g.c.x.g.x.l.c.c.c.c.b.c.c.c.l.l.j.j.s.h.p.{ : 2 6 6 V ",
"2 2 : $ # o o o o X a d.s.s.s.s.k.s.s.i.i.s.s.j.l.c.c.c.b.b.b.b.b.b.b.b.b.b.L.b.b.b.b.b.c.c.c.c.c.l.l.j.s.j.s.s.u.@.: 1 5 6 V V ",
"5 > ; $ # # O @ o o X p 3.s.s.s.s.k.s.s.i.i.i.i.f.j.l.c.c.b.b.L.L.L.L.L.L.L.L.L.b.n.c.l.l.l.l.j.l.j.j.j.j.s.d.0.%.e : 5 6 V c V ",
"2 2 : ; # # # # o O o o % ' 7.s.j.s.s.s.s.s.s.p.p.j.j.j.j.j.l.l.l.l.l.l.l.j.j.j.j.j.l.j.l.j.f.j.j.j.s.s.s.7.3.>.Q 1 , 6 6 V V V ",
"4 2 > ; & & # & # O O o + X r  .6.d.s.j.s.s.s.i.p.p.s.s.s.p.s.s.s.s.s.p.s.s.s.f.s.f.j.j.j.j.f.h.p.p.a.6.|  .} k 5 5 5 5 C V V 6 ",
"4 2 > ; - $ & = # # # # O % % # t ] 3.t.s.s.p.p.p.p.p.p.p.s.p.p.p.p.s.s.p.s.p.p.s.f.p.f.f.f.p.a.6.3.O.] X.B e , , 5 6 C c 6 V V ",
"4 2 > ; - $ = : & # # # # # % % @ # w a O.3.t.i.p.p.i.s.p.p.p.p.p.p.p.p.p.p.p.p.p.s.s.a.a.5.3. .' d { B s u > , 5 6 6 6 V V 6 V ",
"6 2 2 > ; ; ; : & & # # # $ $ # @ @ @ % % q t ' O.3.y.u.u.a.i.s.s.j.j.k.z.B.V.V.N.N.w.9.%...s u w e e 2 , > < < 5 6 6 C V V C 6 ",
"4 2 2 > > ; : , : & $ $ $ # $ $ $ # @ @ % % @ @ o * w g { %.$.9.w.w.w.q.w.>.$.%.o...f t w * - - - : : > < < 5 5 V 6 C 6 V 6 V C ",
"6 3 2 > > ; ; > > & ; ; ; & $ $ - - $ # $ @ @ @ @ @ @ @ o X * * r t t t r r q q $ @ @ # $ - - ; ; ; - 5 5 5 6 V 6 V 6 V V c Z 6 ",
"V 5 5 , , > > > > > ; ; ; & : : ; ; - - - - - # # # @ @ @ # o X o # X X O O O # $ @ $ - - - ; > > ; 5 5 5 6 V c V 6 V V V 6 Z c ",
"x 4 2 2 , > ; > > > > > = 1 n I > ; ; ; - - - - $ $ $ # # # # # & # # # # # # & $ - ; ; ; > > 2 5 2 6 6 5 6 6 V 6 V 6 V c 6 V 6 ",
"V V 5 5 < , 2 > > , > ; = = : < > > > ; ; : - - & ; & $ ; & ; ; & & & & & & & & ; ; ; > 2 2 2 4 6 6 6 6 6 6 V 6 V 6 c C Z V V V ",
"V 4 4 4 4 4 2 2 2 > 2 2 < > > > > ; : ; > ; : ; ; ; ; ; ; ; ; ; : : : ; = & & = ; > > 2 2 6 4 V 6 4 V 4 V 6 V V 6 V V 6 V V V 6 ",
"4 Z V V 4 4 4 4 4 4 2 2 5 , 1 > 2 2 2 > > > > > > ; > ; : : > > , , < , 5 5 , 5 2 6 6 6 4 V V 4 4 V 4 V 6 V V 6 V V c V 6 V C c ",
"V V V V V 4 4 4 4 4 4 4 4 2 2 < 2 2 2 > 2 2 2 > 2 2 2 2 4 4 4 4 5 6 5 6 5 5 5 5 4 V 4 V Z V V V V V V V 6 V V V V 6 V V 6 V V V ",
"4 Z V Z 4 V Z V 4 V 4 V 4 4 6 5 4 4 4 4 4 4 4 4 4 5 V 6 4 V 4 x 6 5 6 6 6 6 6 6 4 4 V V V V V V V 4 V 4 6 V V c V V c V V V V 6 "
};
