/* XPM */
static char *result[] = {
/* columns rows colors chars-per-pixel */
"64 64 235 2 ",
"   c #2C1E16",
".  c #2C2B1A",
"X  c #342319",
"o  c #3C251B",
"O  c #3D2B1D",
"+  c #32291B",
"@  c #2E351F",
"#  c #3A3C24",
"$  c #363A23",
"%  c #2F3A22",
"&  c #442A1D",
"*  c #4A2C1D",
"=  c #42271C",
"-  c #542E1C",
";  c #57321E",
":  c #4E311E",
">  c #64351B",
",  c #763B1D",
"<  c #4B2E21",
"1  c #472B20",
"2  c #4E3122",
"3  c #453A24",
"4  c #533223",
"5  c #5B3522",
"6  c #5C3825",
"7  c #563B25",
"8  c #643A24",
"9  c #6C3D24",
"0  c #643923",
"q  c #723F23",
"w  c #793F21",
"e  c #394728",
"r  c #3A542D",
"t  c #37532D",
"y  c #3B5A31",
"u  c #396535",
"i  c #396B36",
"p  c #3D6639",
"a  c #3B6D39",
"s  c #3D743B",
"d  c #3F793D",
"f  c #45492A",
"g  c #554B2A",
"h  c #49542E",
"j  c #435A32",
"k  c #535233",
"l  c #684429",
"z  c #744126",
"x  c #7C4224",
"c  c #744229",
"v  c #7B4529",
"b  c #7A4929",
"n  c #78502B",
"m  c #675832",
"M  c #765C32",
"N  c #6A4F31",
"B  c #426C3A",
"V  c #496939",
"C  c #56693A",
"Z  c #41763F",
"A  c #41793F",
"S  c #4C793E",
"D  c #4B753D",
"F  c #57753E",
"G  c #77743D",
"H  c #6D703B",
"J  c #71584A",
"K  c #476D44",
"L  c #447441",
"P  c #487444",
"I  c #437C40",
"U  c #4A7C45",
"Y  c #4D7D4A",
"T  c #4E764C",
"R  c #527947",
"E  c #577954",
"W  c #516D4F",
"Q  c #6D6F52",
"!  c #707A6D",
"~  c #844424",
"^  c #844A2B",
"/  c #8C4C2A",
"(  c #894725",
")  c #934925",
"_  c #934E2A",
"`  c #9A4D28",
"'  c #9C522C",
"]  c #97542E",
"[  c #975634",
"{  c #885431",
"}  c #A4542C",
"|  c #AA562C",
" . c #AD5A2E",
".. c #A6592E",
"X. c #B35A2E",
"o. c #B8592C",
"O. c #AC5C32",
"+. c #A35831",
"@. c #B35D31",
"#. c #BC5E32",
"$. c #8A703A",
"%. c #A9683A",
"&. c #BC6133",
"*. c #B86539",
"=. c #B1713B",
"-. c #A0461C",
";. c #C46434",
":. c #CB6534",
">. c #C66936",
",. c #CB6936",
"<. c #C56B3A",
"1. c #CC6C39",
"2. c #C66639",
"3. c #D26635",
"4. c #D46A36",
"5. c #DB6B36",
"6. c #D46D39",
"7. c #DC6D39",
"8. c #CB723B",
"9. c #D5713B",
"0. c #DC723B",
"q. c #E36E38",
"w. c #E4743C",
"e. c #EB743C",
"r. c #E5793E",
"t. c #EC7B3E",
"y. c #F17C3F",
"u. c #C05D2C",
"i. c #8E5C42",
"p. c #9D715B",
"a. c #A56646",
"s. c #A6745B",
"d. c #B77452",
"f. c #B16E47",
"g. c #957969",
"h. c #816D61",
"j. c #A77D67",
"k. c #B27D61",
"l. c #C87748",
"z. c #DA7645",
"x. c #C06A42",
"c. c #E57B44",
"v. c #EC7C42",
"b. c #EE7E4A",
"n. c #E47745",
"m. c #F37E40",
"M. c #F17F4B",
"N. c #42803F",
"B. c #448242",
"V. c #498446",
"C. c #468843",
"Z. c #498A46",
"A. c #4D834A",
"S. c #4C8C49",
"D. c #51884E",
"F. c #4D914B",
"G. c #51934E",
"H. c #568755",
"J. c #549552",
"K. c #5B9359",
"L. c #638D5E",
"P. c #678B65",
"I. c #689568",
"U. c #738C72",
"Y. c #769876",
"T. c #718A6C",
"R. c #5A8864",
"E. c #878979",
"W. c #9D8678",
"Q. c #908D6C",
"!. c #BC896F",
"~. c #BC8D5C",
"^. c #DB8355",
"/. c #DB804A",
"(. c #EC8146",
"). c #ED834B",
"_. c #F58142",
"`. c #F2824D",
"'. c #F88546",
"]. c #E78756",
"[. c #F48551",
"{. c #F48B53",
"}. c #F6945C",
"|. c #C99679",
" X c #DD9977",
".X c #C88969",
"XX c #E28D64",
"oX c #E69467",
"OX c #F49F6D",
"+X c #EDA378",
"@X c #F4A577",
"#X c #7EA280",
"$X c #7E8D80",
"%X c #8B8B88",
"&X c #928A85",
"*X c #879688",
"=X c #96928B",
"-X c #979997",
";X c #8E9192",
":X c #A49E98",
">X c #B0988B",
",X c #92A992",
"<X c #B6A69A",
"1X c #A7A194",
"2X c #9CA4A5",
"3X c #A6A8A4",
"4X c #B4ABA4",
"5X c #ABB9A8",
"6X c #BAB2A9",
"7X c #B5B8B5",
"8X c #C99E85",
"9X c #C7A997",
"0X c #D7AC95",
"qX c #DDB49D",
"wX c #D6A389",
"eX c #F4AE85",
"rX c #F7BA94",
"tX c #F0B18C",
"yX c #C6B4A9",
"uX c #D7B9AA",
"iX c #C8BFB6",
"pX c #B5CAB5",
"aX c #FDC19C",
"sX c #D7C9BD",
"dX c #F7C7A7",
"fX c #F8D5BB",
"gX c #EDCAAF",
"hX c #D8D7D1",
"jX c #F6DCC6",
"kX c #EDD8C6",
"lX c #FCE9D6",
"zX c #F0E2CF",
"xX c #E6E6E2",
"cX c #FCF2E6",
"vX c #FCFCFA",
/* pixels */
"B.B.B.B.N.N.N.N.I N.I N.I I I I I I I I I d Z L Z s L s A Z Z A I A A B.A I I B.A N.B.B s N.B.B.B.N.C.C.C.B.C.C.C.B.C.B.C.B.C.N.",
"B.C.B.I N.N.N.N.B.N.N.I I I I I I I I I Z Z Z L L s s L Z Z A A I I A A A A I C.N.N.V . % N.C.B.B.B.N.C.C.C.C.C.B.C.C.N.N.C.C.C.",
"C.V.B.N.N.I I B.I B.I I I I I N.I I A p @ @ e p L Z L Z D A A A A S N.A I L I S.A B & X X V D.B.B.B.C.C.C.C.C.C.C.C.C.C.B.B.B.B.",
"B.C.B.B.I I I I I B.I I I N.I N.I I I t     . + % y L s A A A A I R F A Z I I A.V 3 & o X f I.V.N.N.C.C.C.C.C.C.N.C.N.C.B.B.B.B.",
"B.B.B.N.I I B.I I I I I I I B.I I I U e   X o & O O 2 h K D Z S $.%.H S H G F A # - = o X O P B.B.B.B.C.C.C.C.N.C.C.C.C.N.C.N.N.",
"B.B.I N.I I I I I I I B.B.B.I I I B.A t   X = & < 2 5 8 9 M G %.8.u.=.=.<.[ h e * - & o o o r I B.B.V.B.C.C.C.C.B.C.F.Z.C.C.B.B.",
"B.I I d I L B.I N.B.S.S.V.I I I I I L y X X = * 5 5 0 q / _ O.8.r.0.0.0.1.' ; ; ; ; * & = o e I I I B.B.V.C.C.C.B.C.F.Z.Z.Z.B.B.",
"B.I I I d I S.C.B.F.S.V.B.I d d I I L p + X = ; 8 9 q / } O.<.n.(.r.0.0.4.@./ q > 5 ; * * * O I I A A B.N.V.V.C.C.C.F.C.Z.A.B.B.",
"N.B.I A A I G.G.G.G.A.B.U A.L L I L I d $ X = - v / ' +.@.>.0.w.r.r.r.r.4.;.} x z l ; ; ; : & B A.I s B.B.B.B.B.C.Z.F.C.Z.C.C.N.",
"N.A I L D V.J.J.J.S.V.B.I.I.I I I L A d y . = 0 ( ]  .&.>.0.v.v.r.t.y.t.w.3.&._ x z > ; 5 ; * y V.A.L B.L A B.B.C.S.F.Z.Z.S.B.B.",
"N.I I I L U K.J.A.V.B.I Y.,XP I I d I L y . 1 0 ( ' &.>.9.0.w.v.t.t.t.y.y.q.;.' x b z 0 > 4 : r B.S.U I B.A A B.B.F.S.S.Z.V.B.B.",
"I I I I L A.J.D.Y V.B.I Y.hXR.I A L d d u + 4 9 ) %.;.1.6.0.w.e.t.m.t.y.y.r.4.| / ( x 9 9 ; ; j B.V.S.I V.d d I V.G.S.S.S.V.B.V.",
"I I C.Z.Y A.D.A.Y B.I Y ,XxX5XA.I d d d B 7 z _  .>.,.,.2.3.q.e.r.e.y.m.v.v.r.>.} _ / x q > > V A V.F.A.S.Y H.H.H.D.S.S.V.V.B.B.",
"N.I B.A.Y D.Y Y I I A I Y.hXxXpXY.A.I I D n  .&.>.6.,.>.#.2.4.n.e.e.e.e.v.v.v.0.>.X..._ ( b b V d I S.G.H.P.Y.#XY.I.D.Z.S.S.B.B.",
"I L L P L Y A.U U I I A T 5XxXvXxXpXI.A.C / >.,.,.1.>.&.#.2.3.z.e.e.y.v.v.(.(.v.0.9.,.*.....' F Z d A.K.P.U.$X#X,X#XI.S.G.A.B.I ",
"L L s K K P T Y B.I A A Z T.7XxXvXvXzX,XJ ) @.&.;.>.&.@.#.3.3.7.q.e.e.m.).(.(.v.t.t.r.r.9.8.<.H s L Y E E E P.U.U.U.P.J.S.Z.B.B.",
"L K K B K L P P I I L Z I T %X7XxXxXcXzX0Xd.O.| X.@.@.@.#.3.3.4.7.w.e.(.).).(.(.m.m.m._._.m.r.$.L B Y T W W W W E E H.A.B.B.I B.",
"L s L L Z Z L A I D I I I Y $X-X7XhXzXlXlXkX8X*.} } @.@.#.3.5.4.7.w.r.).{.).(.(._._._._._.'._.8.K K Y A.T K K K T Y P L I I I I ",
"I I d A A A I A I I A N.D.P ! %X3X7XkXkXlXcXlXqXd.] } X.#.:.5.5.7.w.(.).).'.(._._._._._._.'.'._.=.F I I U Y Y L L L L I I B.B.I ",
"A I A A Z I I I A N.A A P.D.U.%X3X7XkXfXjXjXlXjXtXd.+.X.;.3.3.5.7.w.t.(.{.)._.m.m._._._._.m._.'.t.=.R Z A L Z Z I L I I I I B.I ",
"B.A I A I I I I A A A A P.Y.Y.;X:X<XyXgXdXfXjXfXaX+Xf. .u.3.5.5.7.q.n.`.).).t.e.y.e.y.y.m.t.t.).}.~.U Z Z Z Z Z A Z Z I I I A A ",
"d I A I I Z I A A N.A S E.5X2X:X4X<X9XgXdXdXfXjXdX@X^.*.&.:.4.0.7.n.(.`.{.(.0.0.q.q.q.q.0.0.z.oXeXP.Z Z Z A A I A L Z I A I A S ",
"B.N.I A Z I L A A S A F 1XsXyX<X6X9X9XqXdXaXdXdXfX@X}.l.u.,.5.5.0.w.(.{.).0.3.:.:.:.u.u.:.,..XqX6XH.Z A A I Z L I Z Z A A A Z A ",
"N.I I A L L I I A N.A F Q.!.8X>X9X9X8XwXtXrXrXrXaXrXOX'.9.:.4.5.7.t.).{.{.t.1.o.o.o.o.u.&..XyX3XP.A Z Z A A Z I A D I d L L D A ",
"B.I I d I A I I I I I P { [ s.W..X|.|.8X+X+XtXrXtX@X}.'.t.3.3.5.w.(.`.{.{.{.n.2.@.} } +.k.4X,XR.Z A A A d d d I I A L A Z I I I ",
"d B.I I I I B.I I L I P n ( _ i.%.f.!.|.XX}.+X@XeX+X{.'.m.9.:.5.r.).`.{.{.{.[.n.2.} ' j.-XU.Y d Z A A A Z I L A I A I Z I I I I ",
"I B.I I I I U I I d I Z M ^ ~ ^ / ' f..X^._.].oXOXoX).m.m.w.3.q.(.).`.{.[.[.[.[.b.z.f.Q.R.L d L A A A A I L L I I A I A L I I A ",
"I d I I I I I I I Z I I m ~ ~ ( ~ ( } f.<.w.v.c.].].(.t.y.w.5.0.v.).{.[.[.b.[.[.{.`.l.H.s L d d d A A I I I I I I A d L A A A A ",
"d B.I A I A I U L I A A C v v ( ~ ~ -.} | 2.w.w.r.r.r.w.r.e.q.w.v.M.`.`.b.b.[.[.[.M.z.$.A A A d A A I I I B.I I I A A A Z A A A ",
"I I I I I A I I I I A A L N v ~ ~ ~ ( ` } | ,.0.0.r.r.w.e.q.q.w.b.M.M.M.b.).M.[.`.M.).l.L A A d d A I I I B.V.I I I I A Z A D A ",
"d I I d A I A d L I A A I C c z w ~ ~ ) } } X.:.9.r.r.w.q.q.q.e.b.M.M.M.[.M.[.M.b.c.r.9.Q d A I A A I I V.V.I I A I A I I A I A ",
"B.N.I I I A I I d I d A A Z N c w w ~ ( ` ` ' X.>.9.r.r.w.w.q.e.M.M.b.b.b.M.M.[.).n.0.9.G d I A A A I I B.C.I I A I I I A I I I ",
"I I I A L I I Z Z I Z Z d Z K N 9 w ~ ~ ) ` ` '  .;.7.n.n.q.5.q.M.b.b.b.b.M.M.[.b.z.5.1.G d L A A I I B.V.B.I I I I I d I N.I I ",
"B.I I A Z I Z Z d d Z I L d s K 9 q w w ~ ) ` _ } X.>.7.q.q.5.n.n.b.M.b.b.M.M.[.n.z.3.z.G Z d I A A A I B.B.d I I I I I N.N.I I ",
"I B.I A A A I I d Z Z Z A A Z I C 8 q w w ~ ) ( _ ..#.;.3.3.7.3.z.n.b.M.M.[.[.[.n.,.,.l.H A A d A d A I I B.N.N.I I N.I N.N.N.B.",
"I I I I A A Z I I Z d d A A I Z K C 9 9 w w ~ ~ ( _ | X.o.u.:.x.z.z.n.M.M.[.M.[.z.@.@.*.H I A A A I I I B.N.B.V.I I N.N.B.B.C.B.",
"I I d I I I Z Z Z Z Z d Z Z Z Z L d f 6 8 9 w w x ( ( ' | o.x.k.|.z.n.M.[.[.[.M.6.' [ *.R A A A I A I N.B.N.N.B.B.I B.B.C.C.B.C.",
"I d B.d Z Z L Z d Z Z A d Z I d L A f 8 8 4 > , , w w ( -.@.j.>X0XwXXXb.M.M.M.M.3.( ^ %.F A I I d I I I N.N.N.N.I I I N.B.B.B.C.",
"I A d I Z Z Z Z d Z Z A A A A A I I e w [ i.c 0 - > > , _ p.>XyXuXwX Xb.XXn.v.q.;.z q $.S A I A I d I N.N.N.B.I N.I N.N.N.B.B.C.",
"I I I d Z Z Z Z Z Z A A d A Z Z Z I # v a.k.g.h.J J N h.g.=X<XiXuXqX XXXXXb.e.q.@.; 9 { I B.B.I d B.I I N.B.V.N.N.N.N.N.N.B.C.N.",
"I A A Z Z A Z Z Z Z I I Z I A A A A e x %.p.W.&X&X&X&X%X;X<XyXyXuXuXwXXXXX].t.w.] & q M I B.V.I d B.N.N.B.B.B.B.B.N.N.B.B.B.B.B.",
"I I I A A Z A Z Z Z Z I I Z d A A A f / [ p.g.&X;X;X;X;X;X4XyX6XyXuXwXXXXX).y.1.q O 9 m s I B.I d d B.C.B.B.N.N.N.B.N.B.N.B.B.B.",
"I B.B.A A Z A Z d Z I I A Z A A I I j _ X.a.g.g.;X2X-X-X-X<X6X4X4XuXeXb.(.t.r.} * & 8 k i A A A B.d B.C.B.C.B.B.B.B.C.N.B.I B.B.",
"N.I B.A Z A Z Z Z Z L I A Z A A A I B ^ #.a.g.W.-X2X2X2X:X3X4X4X<X8Xb.n.r.w.,.q X & 7 h i d A A B.B.C.C.B.B.B.B.N.C.C.B.B.B.B.I ",
"I I V.I I A L A A Z A A Z d L d d A d N X.@.s.j.=X:X3X2X-X3X3X4X8Xz.0.0.0.0...& X & : h i d I A B.B.S.B.B.B.B.B.B.S.A.B.B.B.B.I ",
"I I I Z L A I A Z A Z A Z d A d I A d V [ X.O.s.g.=X3X-X&X:X:X.Xx.:.6.6.6.,.x X o * * f i s B.L d C.S.B.B.B.B.B.C.C.B.B.B.B.I I ",
"V.I I I A L Z Z Z A Z Z A A d I B.d d Z n [ [ { i.p.j.! Q W.j.a.X.#.2.1.,.O.7 + = * * 3 i d B.I B.F.S.B.B.B.B.C.C.B.B.I V.I A.B.",
"B.I I L Z Z A Z Z Z d d A Z d I I I d d g / _ ~ w [ i.k k i.[ ( ' @.2.2.*.^ f . & & & e p s B.I B.F.S.B.N.B.B.B.S.S.B.B.I B.B.I ",
"I N.N.I A Z A Z Z Z Z Z Z Z Z I d d s a j n ^ v x x > # $ 8 ^ ^ / +.@.@.+.l t . O O e y p Z I A.S.J.S.d Z.R.K.F.F.F.B.V.I V.I V.",
"B.N.B.d A I Z A Z A Z Z Z Z I Z d s a a B g c z l 0 - % . : q v ^ _ [ [ _ g y e # r L L p s U G.J.F.B.I $X,X5X,XI.V.I I B.I B.I ",
"B.N.B.N.I I I Z A Z Z Z Z Z Z d d a a i u g 0 9 6 2 & % . & 9 9 q ^ ^ ^ v g u u p p L L Z Z V.S.F.S.A.Z R.$X$X$XY.V.I V.B.B.B.B.",
"B.B.B.N.A I I I Z Z Z Z I I Z d a a a i u h 4 ; ; 1 O e % 1 8 9 9 q c v l h u u y p p L V.Y U V.B.C.A.Y T E E T V.B.B.I I I B.B.",
"B.B.B.I d d I A.A Z Z A A Z d s i i i i i u 7 4 2 2 O t % & 5 6 8 9 9 9 g j u u p p s L A.Y I U B.B.B.B.Z L I I I I B.I U B.B.I ",
"N.N.B.I I I A V.I Z Z A A d s a i i i i i i 3 : 2 * O e # 1 2 4 6 6 8 8 k u u i p p p L L L L U B.I I I I I I I I I I I B.B.U I ",
"B.N.N.N.I I I V.I Z s d s d s a i i i i i i 3 * < 1 O t e < < 4 6 6 6 6 h u u i p s d Z d I I I I B.I B.I I I I I U I V.V.I B.B.",
"B.N.N.N.N.I I V.V.Z I I d s s a i i i i i i f & & 1 O r e & 4 4 6 6 6 6 y u u i a d A I N.N.N.N.B.B.I I B.I I I I B.B.B.I B.B.I ",
"N.B.N.I B.I I B.I I N.N.d s s a i i i i i i 3 & = & = t e 1 < 4 6 6 6 4 j p p p s d I I N.B.N.C.N.A I I I A I A I I B.I V.I B.I ",
"B.B.I I I I I B.B.I d N.I s d s s i i i i s e O & = $ r $ 1 1 2 4 4 6 4 # y i K d d B.B.B.B.C.N.C.V.N.N.A A V.V.I B.I V.I V.I V.",
"B.B.I I I d d I B.B.B.I A Y R.I.I s i i i i i e # $ y u $ o 1 1 2 2 4 1 @ t p a d N.B.B.N.B.C.C.N.N.I I I I I V.I B.V.B.I B.V.I ",
"B.N.I I A A I I B.I B.I L A T A.d s s s i a i i u u u u $ o o o 1 < < 1 $ u a s d I N.B.C.N.N.B.B.A N.A A V.I B.I I I I V.I V.B.",
"N.N.N.I d I B.N.N.N.N.B.B.B.I I d d s i s i i i i i u i t + + o O O O e p a s Z I I I B.B.B.B.B.A N.A B.I V.A I B.N.I V.I V.A N.",
"B.N.N.B.B.N.N.B.B.C.B.C.V.B.B.B.N.N.d s s s s i i i i i i t $ $ e y p p p s Z I I d I N.B.B.B.B.C.A N.A N.A B.N.I A V.I V.A N.V.",
"B.B.B.B.N.B.B.N.B.C.C.B.B.C.B.I N.N.N.N.d d d d s i i i i a i i s s s s s I I I I B.d B.B.B.B.B.N.I B.A N.B.N.A V.A B.B.S V.V.A ",
"B.C.B.B.C.N.B.B.N.C.B.B.C.B.B.I N.N.N.N.d N.d d d d d d s s s Z L Z Z I I Z I I d N.B.B.B.B.B.B.B.A B.N.N.A V.V.N.V.I B.B.N.N.V."
};
