/* XPM */
static char *result[] = {
/* columns rows colors chars-per-pixel */
"64 64 246 2 ",
"   c #2C1E16",
".  c #2D2C1B",
"X  c #2E2318",
"o  c #342219",
"O  c #3B251A",
"+  c #3B2B1C",
"@  c #34291A",
"#  c #2D341E",
"$  c #31311E",
"%  c #373420",
"&  c #383923",
"*  c #2E3A21",
"=  c #442A1D",
"-  c #4B2D1E",
";  c #40271C",
":  c #532E1D",
">  c #54321E",
",  c #5B331E",
"<  c #4B301D",
"1  c #62351D",
"2  c #703717",
"3  c #4B2E21",
"4  c #462C20",
"5  c #4D3122",
"6  c #463823",
"7  c #543323",
"8  c #5B3523",
"9  c #5E3925",
"0  c #553927",
"q  c #633A25",
"w  c #6B3D24",
"e  c #613722",
"r  c #703F28",
"t  c #344C2A",
"y  c #364527",
"u  c #35532D",
"i  c #3A5D32",
"p  c #3B5731",
"a  c #2F4E28",
"s  c #396535",
"d  c #396B36",
"f  c #3B6639",
"g  c #3B6C39",
"h  c #366233",
"j  c #3D743B",
"k  c #3F793D",
"l  c #4B4529",
"z  c #56492A",
"x  c #4B542E",
"c  c #465B33",
"v  c #515432",
"b  c #654729",
"n  c #744126",
"m  c #7D462A",
"M  c #7E492B",
"N  c #784629",
"B  c #66512C",
"V  c #775737",
"C  c #715231",
"Z  c #426D3A",
"A  c #486537",
"S  c #556637",
"D  c #41763F",
"F  c #4B753E",
"G  c #41793F",
"H  c #58763D",
"J  c #67753D",
"K  c #73723B",
"L  c #775945",
"P  c #476D44",
"I  c #536A49",
"U  c #447441",
"Y  c #497444",
"T  c #437C40",
"R  c #4A7C46",
"E  c #4C7D4A",
"W  c #4C764B",
"Q  c #53794A",
"!  c #587856",
"~  c #546F51",
"^  c #666D58",
"/  c #6F7462",
"(  c #834626",
")  c #844B2A",
"_  c #8B4B2A",
"`  c #884927",
"'  c #934E2B",
"]  c #934A24",
"[  c #86532E",
"{  c #9C532D",
"}  c #97532D",
"|  c #8A5233",
" . c #825534",
".. c #985834",
"X. c #884F32",
"o. c #A2552D",
"O. c #AA592E",
"+. c #A75429",
"@. c #B55B2D",
"#. c #A55A32",
"$. c #AC5C32",
"%. c #A35730",
"&. c #B25D32",
"*. c #BD5F31",
"=. c #88733C",
"-. c #916A38",
";. c #AC6238",
":. c #B56034",
">. c #BB6334",
",. c #B96839",
"<. c #B2733C",
"1. c #88441D",
"2. c #C55D2B",
"3. c #D05E2A",
"4. c #DB612A",
"5. c #C36535",
"6. c #CB6634",
"7. c #C56837",
"8. c #CC6A37",
"9. c #C46B3D",
"0. c #CB6B3A",
"q. c #CA6739",
"w. c #D46C36",
"e. c #DB6935",
"r. c #D36E39",
"t. c #D86B38",
"y. c #CB703C",
"u. c #DC733C",
"i. c #D7733B",
"p. c #C7602F",
"a. c #E36C36",
"s. c #E46E38",
"d. c #EA6E37",
"f. c #E3753D",
"g. c #EA743A",
"h. c #E5793E",
"j. c #EA7B3F",
"k. c #EB7535",
"l. c #F37939",
"z. c #EA6A2D",
"x. c #905D42",
"c. c #96684F",
"v. c #BA6C47",
"b. c #AA745A",
"n. c #B87757",
"m. c #AE6C4B",
"M. c #947A69",
"N. c #AE7B62",
"B. c #B97C60",
"V. c #C86D43",
"C. c #C87649",
"Z. c #DC7544",
"A. c #D67A49",
"S. c #C77D57",
"D. c #D27347",
"F. c #ED7D41",
"G. c #E47A48",
"H. c #F27E43",
"J. c #448242",
"K. c #498446",
"L. c #468843",
"P. c #498A46",
"I. c #4C844A",
"U. c #4C8C4A",
"Y. c #51884E",
"T. c #4D914B",
"R. c #51934E",
"E. c #558855",
"W. c #549552",
"Q. c #5B9359",
"!. c #4F8550",
"~. c #678B64",
"^. c #6A986A",
"/. c #738C72",
"(. c #769977",
"). c #70856F",
"_. c #77A677",
"`. c #8C8972",
"'. c #A88776",
"]. c #B58C77",
"[. c #B0886C",
"{. c #D58557",
"}. c #EE844C",
"|. c #EB8249",
" X c #F38143",
".X c #F88245",
"XX c #E88655",
"oX c #F38954",
"OX c #C88967",
"+X c #D98C64",
"@X c #D49674",
"#X c #CF9270",
"$X c #E89469",
"%X c #F69866",
"&X c #E69C76",
"*X c #EF946A",
"=X c #F5A47B",
"-X c #EEA47C",
";X c #7EA280",
":X c #799980",
">X c #999A95",
",X c #8E9686",
"<X c #A78F82",
"1X c #A5968D",
"2X c #B19D91",
"3X c #90A993",
"4X c #A8A79E",
"5X c #BAA79A",
"6X c #A8AAA8",
"7X c #B5ABA5",
"8X c #BAB1AB",
"9X c #B9B2AA",
"0X c #ACB2B4",
"qX c #B7B8B5",
"wX c #ABB6AA",
"eX c #9FA6A4",
"rX c #CD9B83",
"tX c #D8A78A",
"yX c #C9AB99",
"uX c #D5AC95",
"iX c #DAB097",
"pX c #E6A684",
"aX c #E7B599",
"sX c #F9BA98",
"dX c #F5AE89",
"fX c #C4B6AB",
"gX c #D7B9A7",
"hX c #C5BBB3",
"jX c #EDBEA6",
"kX c #C9C3BA",
"lX c #D9C8BC",
"zX c #ECC5AE",
"xX c #F7C4A8",
"cX c #EBC7B2",
"vX c #F7D3BE",
"bX c #F7CBB1",
"nX c #DAD7D2",
"mX c #D3CCC5",
"MX c #EAD4C4",
"NX c #F7DCC9",
"BX c #E9DED5",
"VX c #F7E4D5",
"CX c #FDF5ED",
"ZX c #FEFDFC",
"AX c #F9F7F3",
"SX c #F1E7E2",
/* pixels */
"J.J.J.J.T T T J.k J.k J.J.k J.k T T T T T G D D j j U U G D G G G G T T G T T T G J.J.J.J.J.J.J.J.J.L.L.L.L.L.L.L.J.L.J.J.L.L.J.",
"J.L.J.T J.J.J.J.J.J.J.J.k k T J.T T T T k k U D j U U j D D G G G J.G T T G J.K.G J.G d L.J.J.J.J.J.J.L.L.L.L.L.J.L.L.J.L.J.J.L.",
"L.L.J.T T k T J.J.J.k T T T k J.T J.G U U U G W D D D D G G G J.G J.G T U T R P.T D $ . G Y.Y.K.J.J.L.L.L.L.L.L.L.L.J.J.J.J.J.J.",
"J.L.J.J.J.T k J.k J.k T k T T J.T G T i . # t j D D D D G G F G G G F T T T T J.Z 6 O X c _.^.P.J.J.J.L.L.L.L.L.L.J.L.J.J.J.J.J.",
"J.J.J.T T T T T T T T T J.T J.T T T R t     O O * f U U T T G G F H T k U k J.D l ; ; o + Y.Y.K.J.J.J.L.L.L.L.J.L.L.L.L.L.J.J.J.",
"J.J.T T T T J.T J.T T J.J.J.T T T T U a   o ; = 4 + 6 x S F K.J <.-.H J c.H F y - - O O + i G G J.J.L.J.L.L.L.J.J.L.T.L.L.L.J.J.",
"J.T T T k T T T T J.P.U.K.T T T R T U y o o ; = 3 7 8 w B V -.<.y.,.<.8.;.B y = : = ; O + y G J.k T J.J.J.L.L.L.J.L.T.L.L.L.J.J.",
"J.T T T T T U.L.J.T.T.K.J.G k k T T k u o O ; : 8 8 q m ' { ,.u.u.i.i.i.@.n > , : - - = ; & G K.T G T J.J.L.J.L.J.P.T.L.P.L.J.J.",
"G J.T T G R R.T.R.R.U.J.T T U U T G U g X o = 8 b n M } o.:.i.h.j.u.u.i.>.o.n 1 , , > - - + Z J.I.T k J.T J.J.L.L.P.T.L.P.L.J.J.",
"T T T U U K.W.W.W.I.K.J.T U U T T U G G * o ; e ( ' +.O.>.r.h.j.j.j.k.a.6.@.] N C 1 > > : = u G K.K.U R T T T T J.T.T.P.T.L.J.J.",
"T T T T U R Q.W.I.J.J.T U U G T G G G U u o 4 w ` o.@.>.0.f.j.h.j.j.j.j.i.5.+...M.C > , , - p G J.U.J.T R T T T L.T.U.U.P.K.K.G ",
"J.T T T U K.W.Y.I.J.R T k U T T G G G G i o 5 w ` O.>.8.i.f.j.j.F.F.j.l.k.w.+.[ '.'.1 1 : : I D T U.U.T J.G T T P.T.U.U.U.P.J.K.",
"T T L.P.E I.!.I.R R T T U U T G k U k G i + , n { >.7.w.r.u.j.H. X XF.j. Xu.*.] N.lXx., , 7 I D U J.R.I.U.E !.E.E.R.U.U.P.K.K.G ",
"T T J.K.R !.I.E R T T D k G T G j k U G c q _ { >.8.8.7.0.i.F.F. X X XF. Xj.i.+.B.SX].2 1 w x D G T U.R.E.~.(.;X_.~.Y.P.U.P.K.J.",
"U T T Y P E E R J.T T G D G T U U U U Y A [ >.5.0.8.8.7.0.w.G.F. X XF. XF. Xk.y.yXAXgX( ` [ S D j G K.Q.~./.(.,X3X3X^.U.Y.P.K.G ",
"U Z D P P W E E J.T T D T D D D U U g Z S #.7.7.8.7.7.7.8.w.u.G.h. X X X|.j.h.@XmXAXMX$.O.$.J g U U E ! ! ! ~.).).~.~.R.U.L.K.J.",
"U U Z P P P Y T T T D G T G G k D D U D b #.:.>.>.5.5.5.0.r.r.i.h. X X}.F.j.+X9XnXZXNXk.w.y.K D g U W W ~ ~ I ~ ! ! E.I.J.J.R J.",
"D U U U D D U G T T T U T D G G D D Z B _ { #.$.&.>.,.5.0.r.w.r.i.}.oX.X}.+X5XkXBXZXvXl.l. X;.G U U E I.W P P P W E U U T T J.T ",
"T G D G G T G T U G T T T D G G k P B ) _ ' { #.$.&.:.5.q.w.r.i.$X%XoX}.@X4XqXnXZXZXsXl..X.Xu.J G j T U R E W U U U U T J.J.T T ",
"T T G G D T G T T G T D D G D G k W L N ( ) ' } { #.:.>.0.A.{.&X-X$X+X].wXqXmXCXZXCX=Xl..X.X Xy.K Y T j G D G D T U G T G G T J.",
"G T T G T T G T T G T T G G G G k U ~ L m ( ( ' ' { :.>.{.@XzXbX-X#X2XwXqXkXBXAXZXCX%Xl..X X.X X{.F k D D D D G G G D T T T G G ",
"J.G T G G T D T T G D T G G G G G U U ^ L ( ( ( ` } O.:.[.zXBXlX5X4X6X9XhXkXnXAXZXVX.Xz.j.j.|.%X[.G D k G G G U G U G T G T G G ",
"T T T T G G U T G T G T G G G G G G D ~ ^ x.M M ) } O.:.{.gXlXfX9X9X9X9XqXkXVXCXAXzXe.e.t.A.@XaX~.G F G k T G T Y G D G G G G G ",
"J.T G T U U T T T T G G G G G G G G D P ~ / L V [ #.:.,.OXrXyXgXfX5XfXqXkXnXVXVXVXpX4.3.V.@XgX6XY.G j k G j D T G G D G D U F G ",
"J.T T T G G T T T U G T G G G G U G G G T ! /  ...$.>.C.OX#XuXkXgXyXyXkXlXNXVXNXvX+X2.7.#XqX3XE.k k G G k G U T G G U G D T T T ",
"T T T k T T J.T T G G G T G G G k G G G D G I | #.*.7.V.{.+XpXiXuXuXgXzXbXvXNXNXzXC.>.].6X(.T j k G k G k D G T G G T G T T J.G ",
"J.k T T T T J.J.G G T G T G G G G G G G T T C ..$.7.7.V.C.$X&XuXuXiXzXxXzXvXNXNXzX{.[.3XE.U j U k U G T T U U T G G G G G T T G ",
"J.T T T T T R R G G G T G k G G G G k U T S V #.>.7.7.7.|.&XuXtXtXaXjXsXzXvXNXNXjXC.`.T U T T k k G G T T T T T J.G G F D G G G ",
"k T T T T k T T T G G G G T G G G G G G G I ..:.7.7.0.w.|.&X&X&X-XdXsXjXzXvXNXvXaXD.c.k G G G G U G T T T J.T T T T G G U G F T ",
"T T T T T G T T G T T G G G G G T G D G F V #.>.>.7.r.r.y.|.}.}.$X-XsXsXzXvXxXdX&XF.C.L.G G G k k T T T J.L.J.T G T G G D G G G ",
"k k T k G T T G T T G G G G G G T G D G S  .;.>.7.8.r.r.r.k.k.XX$XdXdXsXbXxX=X%XXXh.{.J G G k T G G T T J.K.T G T T J.G G G G G ",
"J.J.T T G T T G U G G G G G D G D G G G S | $.:.>.8.0.0.u.k.e.A.$X-X-XsXsX=XoX$XG.f.e.x.D G T G G G G J.K.I.T T T G G T T T T T ",
"T T T T D T T D k k D T k D D T D G D P ) x.O.&.*.q.q.q.Z.a.4.Z.$X&X&X=X%X%XH.G.G.t.t.-.T T k T k G G J.J.J.J.k k T J.T T J.k J.",
"T T T T D T D T T D D k T D D k G G G S X.X.%.$.5.p.p.e.a.s.a.Z.A.|.H.H.H.H.G.G.Z.r.r.=.T U T D T D T T J.J.k J.T T k T k J.J.k ",
"T T T D T D T D D D D T D T D D D G P B X.X.%.O.$.$.p.q.a.d.e.e.e.d.d.d.H.G.G.H.r.q.y.=.D T j D G k T T k J.J.k T T J.k J.J.J.J.",
"T T k T T T U D k D D D k D T T G G P r { X.' { o.&.p.e.d.a.e.4.a.d.d.d.s.G.H.G.7.:.y.=.T k T T k G T T J.J.J.J.T T T J.J.J.J.J.",
"T T T k T D T T k D k T k k T k G G c _ :.m.m ' o.*.3.Z.s.e.e.d.d.d.e.q.V.Z.G.Z.@.} ,.K T G G G T G J.T J.J.J.J.J.J.k J.J.L.L.L.",
"T T T T D D D D k D D D D U D D k G v ..v.S.c.x.+.2.a.a.e.s.Z.z.a.3.v.V.V.D.t.q.} M ;.J G G T T G G T T k J.J.J.k k L.J.J.L.J.J.",
"T T k k D D U D k D D T k T G G U T z #.S.B.<XM.;.q.4.4.4.4.3.q.v.n.m.V.V.q.q.2.` n ..Q G T T T G G G T J.J.J.k J.J.J.J.J.J.J.L.",
"T T T k D D D D k D D T k k k G G T z ;.G.rX2X1X<XN.b.n.n.m.N.N.<XN.n.n.v.*.p.$.n q [ Y T J.J.T T J.T T J.J.J.J.J.k k J.k J.J.J.",
"k T k D D D D D D D k G G G G G G G z ;.+XtXyX4X6X1X>X1X1X1X1X1X1X].B.n.C.,.8.O.> 9 [ F T J.J.T k J.J.k J.J.J.J.J.k k J.L.L.J.J.",
"T T T T D T T D D D G T T G G G G G z O.A.rXyX8X8X0X0X6X7X8X7X1X2X].B.n.v.8.7.` ; 1 C Z j T J.T k k J.J.J.J.J.J.k L.J.J.k L.J.J.",
"J.J.T T D D D D D G G T T G G U T J.x O.q.OX2X5XqXqX0X0XqXhXfX4X5XrXB.D.7.0.@.1 o 9 B Z d G G G J.J.J.L.J.J.J.J.L.J.L.k J.J.k J.",
"T J.J.T T T D D U G G G G D k k G T A { p.S.].1X6X0X0XeX6X8X7X7XrXrXD.D.8.6.` O o , z d d D G D J.J.L.L.J.J.J.J.J.L.L.J.J.J.J.J.",
"T T K.T D D D k U G G U k G k G G G F C p.v.B.'.>XeX0XeXeX6X6X5XB.G.Z.w.8.>.1 o = > z d g k T k k J.L.L.J.J.J.J.J.P.K.J.J.J.J.J.",
"T T T T D T T T k G G k k k T k T G G c #.&.c.b.<XeX0X>X>X6X2XOXD.D.t.t.r.o.- o < < 6 s d k K.G k L.T.J.J.J.J.L.J.L.J.J.J.k J.J.",
"J.J.k U U k D D U G U k U G G T T T G U ) o.....x.M.,X/ M.<XN.:.*.q.V.q.7.m + O 3 3 6 i g j T T J.T.U.J.J.J.J.L.L.L.J.J.J.T J.J.",
"J.T T T D U D D k U k k k G G G T G G G B ' _ ( ( x.x.l L c...] %.*.q.5.$.z $ O 3 - 6 h g j K.T J.T.U.J.J.J.J.J.U.P.J.T J.J.J.T ",
"T J.J.k U D G k D D D k D D k T T T k T x M ( n n m 9 & 6 ) ) ` o.:.:.$._ l * o ; 6 p s f j T K.U.R.U.T I.Q.Q.W.T.U.J.T J.J.T J.",
"J.T J.T T T U G T D D D D D T T T k T k Z b r w w q - * @ e m m ' { o.} N x u # & i R U g D R R.R.T.K.T (.eXwX3X^.J.J.T R J.T J.",
"J.T J.k T k T T D D D D D k D T J.T k k D z w w 9 8 6 * . , r n M _ _ _ b i h i d f U U U U R Y.T.U.K.U ~./.:X:X(.I.T J.J.T J.J.",
"J.J.J.J.T U T T U k D D T T T T k J.T k j l 9 9 7 3 % y . 3 w w n N M N z d s s f f f U I.R K.K.J.K.P.W P ~ ! ~ E J.J.R J.J.J.R ",
"L.J.J.k k J.T K.T D D T D T k T T J.k j d c 0 0 7 3 & t . - 9 q w r n b x s s d s f Z T P.R R T T J.J.T U T T T G J.J.G T J.J.T ",
"k J.J.k J.k J.K.T k U k T T T T k k j d d d 0 > 7 7 & t . = 7 7 9 q q b c s d s f f f U G T F T T T J.T T T T T G G J.J.J.R J.J.",
"L.J.J.J.k J.T K.W G D k k T T k k j d d d h 6 > 3 3 & a % 4 4 5 8 q q z s s s d d g U U k k k J.J.J.J.T T T T T G J.J.R R J.R J.",
"J.k k J.J.k T J.J.G T J.T k T k j d d d d d 6 = 4 3 & t % 3 3 3 7 8 0 l s f s d g k k J.J.k J.k J.J.J.T T T T T J.G T J.J.J.T J.",
"J.J.k J.J.J.J.J.K.T k J.k k k k j d d d d d 6 = = = . a % 4 3 3 7 8 0 0 i f f g j j J.J.J.J.J.J.J.T G G J.G G R R G G K.J.J.G K.",
"J.J.J.T k k T J.J.J.k J.J.T J.k k d d d d d $ @ O o * a $ = 4 4 3 7 5 5 u f d g j k J.k J.J.L.J.J.J.J.J.G G J.J.G J.J.K.G K.J.J.",
"J.J.T T T k k J.T J.J.J.T E ^.^.T j j j j d h y # # h a @ = = = 4 4 4 O * d f j k J.J.J.L.J.J.L.J.T J.G R G J.J.J.J.R J.J.J.F L.",
"J.k T T G G k k J.J.J.T T J.W !.J.k d d d d d d s s s u . O O O ; 4 4 O u d f j k J.k J.J.J.J.J.J.T G J.G J.G J.G J.J.G G J.G J.",
"J.k J.k k k J.J.J.J.L.J.J.J.J.T k k j d d d d d d d d d * X O O + + & u f g g G J.k J.J.J.J.J.J.J.J.G J.J.J.G G J.G J.G K.G K.G ",
"J.J.J.J.J.J.J.J.J.J.J.J.J.J.T J.L.k k j k j j j d d d d h y % y u i f d j j G T k J.G J.J.J.J.J.T J.G G G J.J.J.J.J.J.J.J.K.J.K.",
"J.J.J.J.J.k J.J.J.L.J.L.L.J.K.T k J.k k k k k j j d d d g g d d f U j j D G T T J.k k J.J.J.J.J.J.J.J.J.J.G J.J.G K.F L.J.J.G K.",
"L.J.J.J.J.J.J.J.J.L.L.J.J.J.J.J.J.J.L.L.k J.k k k j k k j j j k k k G T G T G T k k J.J.J.J.J.J.k k J.k G J.J.K.F J.J.K.G K.G J."
};
