/* XPM */
static char *result[] = {
/* columns rows colors chars-per-pixel */
"64 64 229 2 ",
"   c #2B1C15",
".  c #311E16",
"X  c #2B2619",
"o  c #342017",
"O  c #352218",
"+  c #3C251A",
"@  c #392A1B",
"#  c #2C351F",
"$  c #35341F",
"%  c #2E3A21",
"&  c #333B22",
"*  c #373922",
"=  c #41271B",
"-  c #452A1D",
";  c #4B2D1E",
":  c #522E1E",
">  c #54311E",
",  c #5B331E",
"<  c #45321C",
"1  c #65361D",
"2  c #4B2E21",
"3  c #4E3122",
"4  c #453823",
"5  c #533223",
"6  c #5B3523",
"7  c #5E3826",
"8  c #553C26",
"9  c #633A25",
"0  c #6B3D24",
"q  c #663A24",
"w  c #723E24",
"e  c #703F28",
"r  c #354828",
"t  c #36542D",
"y  c #39552E",
"u  c #3A5C32",
"i  c #2F4A28",
"p  c #376534",
"a  c #396535",
"s  c #396B36",
"d  c #3B6639",
"f  c #3B6D39",
"g  c #3D743B",
"h  c #3F793D",
"j  c #46472A",
"k  c #58472A",
"l  c #45552F",
"z  c #55522D",
"x  c #445C32",
"c  c #565535",
"v  c #694329",
"b  c #744025",
"n  c #7C4426",
"m  c #7B452A",
"M  c #7D4A2C",
"N  c #74452A",
"B  c #6D4632",
"V  c #794A31",
"C  c #78573A",
"Z  c #645A31",
"A  c #476A39",
"S  c #556838",
"D  c #41763F",
"F  c #41793F",
"G  c #4D763D",
"H  c #56773F",
"J  c #686B38",
"K  c #7C6B39",
"L  c #785844",
"P  c #6F5C47",
"I  c #446D40",
"U  c #4C6D49",
"Y  c #516D4E",
"T  c #447441",
"R  c #437C40",
"E  c #4A7C46",
"W  c #4C764B",
"Q  c #4D7C4A",
"!  c #497444",
"~  c #547A4A",
"^  c #546E50",
"/  c #587855",
"(  c #6A7054",
")  c #6F7565",
"_  c #834526",
"`  c #84492A",
"'  c #8C4B2A",
"]  c #854828",
"[  c #924D2A",
"{  c #9A4F2A",
"}  c #94512C",
"|  c #9B532D",
" . c #8B5133",
".. c #9A5937",
"X. c #8A562E",
"o. c #A4552D",
"O. c #AB562D",
"+. c #AB5A2E",
"@. c #A3582F",
"#. c #B65B2E",
"$. c #A55932",
"%. c #AC5C32",
"&. c #A25732",
"*. c #B35E32",
"=. c #BA5E31",
"-. c #846737",
";. c #85733C",
":. c #9D6D39",
">. c #A9643B",
",. c #BB6234",
"<. c #B76539",
"1. c #A4733B",
"2. c #C26535",
"3. c #C56836",
"4. c #CB6936",
"5. c #C56939",
"6. c #CC6B39",
"7. c #CB6533",
"8. c #D26C37",
"9. c #D36E39",
"0. c #D96D38",
"q. c #D5723B",
"w. c #DC723B",
"e. c #E3753D",
"r. c #E5793E",
"t. c #EB7B3E",
"y. c #E8773E",
"u. c #F17D3F",
"i. c #885A43",
"p. c #955E44",
"a. c #8B6E5A",
"s. c #976D56",
"d. c #936B50",
"f. c #A66748",
"g. c #B56A42",
"h. c #AC6F51",
"j. c #B87856",
"k. c #AE7254",
"l. c #937868",
"z. c #8C7E73",
"x. c #A87D68",
"c. c #CA754B",
"v. c #D17544",
"b. c #D37D52",
"n. c #C16B40",
"m. c #E67B42",
"M. c #EC7D42",
"N. c #E67740",
"B. c #F27E41",
"V. c #448242",
"C. c #498446",
"Z. c #468843",
"A. c #498A46",
"S. c #4D844A",
"D. c #4C8C4A",
"F. c #51884E",
"G. c #4D914B",
"H. c #51934E",
"J. c #568A55",
"K. c #549552",
"L. c #5B9359",
"P. c #658A64",
"I. c #699668",
"U. c #738C72",
"Y. c #789979",
"T. c #70856F",
"R. c #6D9668",
"E. c #BF805F",
"W. c #97857B",
"Q. c #82937C",
"!. c #A68A7D",
"~. c #B1886D",
"^. c #81A57F",
"/. c #D38257",
"(. c #ED8146",
"). c #EE844A",
"_. c #E3844E",
"`. c #F48142",
"'. c #F2854A",
"]. c #F78547",
"[. c #E78A57",
"{. c #F48B52",
"}. c #D68C67",
"|. c #C99579",
" X c #DB9979",
".X c #CB8A6A",
"XX c #E89C73",
"oX c #EC9364",
"OX c #7EA280",
"+X c #9D938B",
"@X c #95928F",
"#X c #9A9A93",
"$X c #8F9284",
"%X c #AB9386",
"&X c #AA9C94",
"*X c #B49586",
"=X c #99A796",
"-X c #90AD90",
";X c #AAA29C",
":X c #B8A498",
">X c #9EA5A4",
",X c #ADACAB",
"<X c #A9A7A3",
"1X c #B3ADA8",
"2X c #B5B2AD",
"3X c #ACB0B1",
"4X c #B7B7B4",
"5X c #A7B6AC",
"6X c #C49C88",
"7X c #CDA58F",
"8X c #C6B3A9",
"9X c #C1BCB9",
"0X c #D2B6A7",
"qX c #E2B9A3",
"wX c #ECA780",
"eX c #B5C7B3",
"rX c #F4CDB7",
"tX c #D8C1B5",
"yX c #CAC8C7",
"uX c #D8D7D6",
"iX c #D4D2C9",
"pX c #EFD8CC",
"aX c #DEE6DD",
"sX c #E2E6DF",
"dX c #EBE9E8",
"fX c #F5EFEB",
"gX c #FAFAF9",
"hX c #F3F3F2",
"jX c #EEF2ED",
/* pixels */
"V.V.V.V.R R R V.h V.R V.h V.h V.R R R R R F D D D D D D D D D F F V.F V.F F V.F F R V.V.V.V.V.V.V.V.V.Z.V.Z.Z.Z.Z.V.V.V.Z.Z.Z.V.",
"V.Z.V.R V.V.V.R V.V.V.h V.h h V.R R F R D D F D D I g D D D F F F F E F F F V.A.V.V.f V.V.V.Z.V.V.V.V.Z.Z.Z.Z.Z.V.Z.Z.V.V.V.V.Z.",
"Z.Z.V.R V.h R V.V.V.V.R R R R V.R R R T T T F F T D T g F F R R V.F F F F T E A.F r   A A.H.G.V.V.V.Z.Z.Z.Z.Z.Z.Z.Z.V.Z.V.Z.V.V.",
"V.Z.V.V.R R R R h h h V.R h V.R R R R u X % t I D D D T F F F F F F F F F R R C.j + . $ L.Y.R.A.V.V.V.Z.Z.Z.Z.V.Z.V.Z.V.V.V.V.V.",
"V.V.V.V.R R V.R R R R R V.R R R R R R i   . + + i d D D D F R R ~ H h V.R F R l - - O . A K.F.V.V.V.V.Z.Z.Z.Z.Z.Z.Z.Z.V.Z.V.V.V.",
"V.V.h R R R V.R R R V.R V.V.R R R V.R &   . = - + 2 8 c G ! G ;.<.J H K ;.G l ; ; = + O r R R F V.V.V.Z.Z.Z.Z.V.V.Z.G.A.Z.V.V.R ",
"V.R R R h R R R R V.D.D.Z.R R R R E T & . + = ; 2 5 q w M K >.q.3.,.q.4.} l @ > ; = + + $ F F E R R V.V.Z.Z.Z.Z.Z.Z.G.Z.A.A.V.V.",
"V.R R R F R D.Z.V.G.G.A.R F h h R R T t . + - > 7 7 0 ' | +.6.r.r.r.q.3.| 1 , , > ; - = + A E V.V.h h V.R Z.V.Z.Z.A.G.Z.A.A.V.V.",
"R R R D D V.H.H.H.H.D.V.R F T D R D R d   + - q b n ' | %.3.r.r.r.w.w.6.=.' 1 1 1 > < : = y F V.S.F D V.R R V.C.V.A.G.Z.A.A.V.V.",
"R R R R D C.K.K.K.D.C.V.R T D R R T R D % O ; 0 ' | +.#.3.w.r.t.t.r.e.w.2.o._ n 0 , > > ; j F V.C.S.D V.R R R R V.G.G.A.D.A.V.V.",
"V.R F R G E K.K.S.C.V.R T D T R F F F F t . 5 w } @.,.2.q.r.t.r.t.t.t.y.8.#.} n b 1 , , : * h F V.D.V.R C.h F V.Z.G.A.H.A.C.V.V.",
"R R R R E E J.J.Q C.R R D D R R F F D F t . 6 w } +.3.9.w.r.M.M.u.t.u.t.e.2.{ n n 0 q , : j D D R S.D.R C.R F R A.H.A.A.A.C.V.E ",
"R R Z.A.S.S.S.S.E E R R D F R R D D F F y = 0 n +.2.4.6.9.e.M.B.u.u.t.t.t.0.@.[ ' b 0 1 , j D D D V.H.D.A.Q S.J.J.D.D.A.A.A.V.C.",
"V.h V.C.W F.S.Q R R R F R T T D D D D F x n | +.3.6.4.4.6.e.t.B.`.u.(.u.t.r.4.+.| [ _ w b z D D D V.D.H.K.P.Y.OXY.I.F.S.D.A.V.R ",
"T D R ! T Q Q C.E R F R R R R T T g I ! S @.3.4.6.6.3.3.6.v.m.M.`.`.(.(.(.t.w.7.,.+.| ' } J g g D F C.J.P.U.OX$X-X-XI.G.H.A.V.V.",
"T T T I I W W Q V.R R F T D D D T T f ! z %.3.2.3.3.3.5.9.w.w.N.(.`.(.(.(.(.(.r.w.q.3.,.,.-.F D D I W J./ / ) T.U.P.P.H.D.C.V.E ",
"D I A I I ! ! R R R R D R D R h h D D A N %.,.*.,.<.2.5.9.9.q.q.t.(.).).(.(.(.u.u.u.u.t.w.:.F g I I W W ^ Y Y Y / J.J.C.E V.R V.",
"R T D ! ! D T D D R D R R R D h D D S m } | $.%.*.,.,.5.9.9.0.v.(.).).).).(.(.u.`.u.u.`.].q.G F g D Q S.W U U U W W ! R R R V.R ",
"R R D F D R R F R D R R D D R h h I B ` ' [ | @.$.*.,.3.6.9.9.w.(.(.).).).).(.`.u.`.`.`.].`.:.F D D F R R Q E T D ! D F V.F R R ",
"F R F F F F R R D R R D D R D R F W P M _ ` ' [ | &.,.2.4.6.w.N.m.(.).'.].(.`.`.`.`.`.`.`.].r.1.~ D D D T R T D D D D F F V.F V.",
"R F R F R R R R D R R R D R R D T R ^ L M _ ] ' [ | *.,.4.9.e.r.m.m.).'.].(.u.`.`.`.`.u.B.B.]._.~ D D D g F F D F D F R E F F V.",
"V.F R R R D T F R R D R R D R R F T I / L M _ ] ` } %.,.4.0.w.r.m.(.).{.].`.u.u.u.u.t.t.r._.XX~.D D D D D F T R F D F R F F G F ",
"R R R D D R R F D R D R h D h F F F F W ) L V ` X...%.,.3.8.0.r.m.(.'.{.`.(.u.u.t.w.0.8.v. XqXOXD D D F F F R T R D D G D F F F ",
"R R R R D T R R R R R D R R h R D R F R ^ ) P i.....@.+.2.4.0.e.m.(.{.{.].t.u.t.0.0.7.7. X9X=XQ D D D D F F D R R T D F D D F F ",
"V.R R R R R R R R R T F R D D D F F D F F ~ ) W.d...{ +.=.8.0.e.N.M.{.{.{.'.M.e.7.7.5.|.4XOXE D h h D F D F R R R R R D D R R R ",
"V.h R R R R E R R F F F R R R h F F F F F F F / -.[ } @.2.8.0.e.m.).{.oXoXoX[._.b.c.*X#XP.I D h D R D F D T R F F F R G R R R R ",
"V.R R R R R V.E F F R R R D R D F F F F D F F D X.' { +.2.7.w.r.m.m.XXrXpXpXpXpXpXiXuX3X$XL.h D D D F F F F T F R R D D D R R R ",
"R h R R R R R R F F F F D R h D F F D D F F D C ] } o.*.8.0.y.r.M.oXwXrXfXgXgXfXhXgXgXhXgXjXOXR D R R R R R R R R R D F T F D F ",
"R h R R h R R R T R R D R R h R F F F F F D J [ [ | +.7.w.r.t.t.m.[.XX0XpXdXfXdXfXdXdXdXjXgXgX-XR h R R R V.R R R R F D F F F F ",
"V.R R R R h R R R R R D R D R R F F F F D ~ ' [ | O.7.w.r.t.t.r.w./.6X8XiXuXuXyX9X9X9XyXyXaXhXgX5Xh V.R V.V.V.E F F R F D F G F ",
"R R R R h h V.R F R F F R D R D T R F F G X.[ [ o.2.w.w.r.r.w.9.6./.|.7X9X4X3X,X,X,X3X2X4XyXuXhXhXOXh R V.Z.R R R R V.F F F R F ",
"h V.h R R R R h F F F F h D h D R F F T X.| [ $.,.q.w.w.0.4.4.,.<.g.c.~.%X&X<X,X<X,X,X3X4X4XiXjXgXyXV.V.C.C.R R R F F R R R R R ",
"R R R h D R W F R D D F h D D h D F F S &.| &.=.2.8.7.7.2.=.*.#.<.>.%.f.x.%X&X&X&X,X<X<X2X2X4XeXaXaXL.V.Z.V.h R R h h R V.h V.h ",
"R R R R D D h F D D D h R R D D D F F B &.O.n.<.#.#.=.=.#.O.O.O.O.o.O.%.k.x.%X%X&X;X#X+XQ.I.I.S.I.eXL.R V.V.R R R V.R V.R V.h V.",
"R V.R h R R F D D D h D h D R D F F I V $.n.b.g.o.O.O.O.{ o.O.{ { { &.f.k.x.l.!.&X$Xl.P.R F F F h P.S.R h V.V.h R R V.h h V.V.V.",
"R R R R R D F F R D D h R D D R D F l  .n.b..Xs.{ ' [ ' ] [ [ ' ' [ ..f.h.s.a.s.l.s.-.F R R D F h R R R V.V.V.V.V.h h V.V.V.Z.Z.",
"V.h h h F F W D D h D h h R D h F F c ..c.b.6Xs._ w w w w _ _ _ _ ' p.p.i.i.L  .V [ -.F F F F F h R R V.V.V.V.V.V.h h V.V.Z.V.Z.",
"h V.R R D D h F R h D D D D R D F F k %.b. X6X%Xe 1 0 w e w e _ _ _ _ ` V ` [ ' , ' ;.R R F R R F R R R V.R V.V.h V.V.V.Z.Z.V.Z.",
"R R V.h D D D F D D h D h R D R T R k g.[.wX7X:X+Xe 1 0 e w e e e e e ` ' { O._ > ] J F F R R R F F R R h V.V.h Z.h V.h V.V.V.Z.",
"R R h h D D F D D F h R D R D h F R k <.}.7X8X8X1X@Xa.C B e V B L i.p.f.>.#.O.w > n ~ F R V.V.R F V.R R V.V.V.V.Z.h V.h V.V.V.V.",
"R R D h D D D D D D D F F F R D F F k ,.}.6X8X8X4X2X<X@X$Xz.z.z.!.x.h.h.<.*.@.> : n S h R V.Z.R h V.V.V.V.V.V.V.V.h h V.V.V.Z.V.",
"R h R R D R D h D D R R F F D R F F z #.c.|.:X1X4X4X<X>X;X:X+X@X%Xx.h.g.*.#.] @ : w A g g R R R h h V.V.V.V.V.h h Z.V.V.V.V.V.V.",
"R V.V.R R T D D D D R R R D h h R R x +.5.E.~.;X3X4X3X,X2X8X;X&X6Xb.c.2.=.+., o < v x s s F F R V.V.V.V.V.V.V.V.Z.Z.Z.V.V.V.V.V.",
"R R C.R D F F D D D F R R D R D F R D [ 7.c.x.%X>X3X3X<X1X1X1X7X.Xv.v.2.=.[ O o ; 8 p s s D F F V.V.Z.Z.Z.V.V.V.h Z.Z.V.V.V.V.h ",
"R R V.W R D D D F D F D D F R g F F F Z =.*.k.x.@X>X3X#X<X;X:X.Xc.v.w.7.*.q   + ; > x s s g R D h V.A.Z.Z.V.V.V.V.D.C.V.V.V.h R ",
"R F V.R D R D R F D D F D D F R F F F A | &.p.p.s.@X#X) +X%X.X5.7.0.9.5.o.2 o = 2 < y a f g V.F h Z.D.V.V.V.V.Z.C.V.V.V.V.V.V.V.",
"R R R D D R R D D F D D F h h R V.F F F N | ' `  .h.( c s.k.$.%.=.n.5.,.` 4 X - : < y a f g V.R R G.G.V.V.V.R Z.Z.Z.V.V.V.V.V.V.",
"V.R R D D D D D F F D D h F h R R F F R z ` ` m ` ` 9 j B  .[ | %.=.*.%.v t   + - r u a s T V.R Z.H.A.V.R R Z.Z.A.C.V.V.V.R V.V.",
"V.V.V.h D D R D F F D D D D h F R h R R A w N b e q @ & ; n ] ' | ....} k y X # r a s d a D E C.D.K.D.h S.L.L.K.H.D.V.E V.R V.V.",
"V.V.V.h R h F D F D D D D D F R R R h F D 1 q q 7 5 $ % + e m m ] ` ' m z a t u d f E D f g E H.H.G.V.R Y.>X5X-XI.C.R V.V.V.C.R ",
"V.V.V.V.R R R R F D D D D h R R R R R h g k 9 6 6 2 $ i O q 0 B N m m b x p p d a A D T T T C.F.D.D.S.T P.T.OXOXY.C.R R V.V.R V.",
"V.V.V.h R R R R D D D D R R R F R R h g g l 6 6 5 > # i + 7 9 e e e b v a p a a d u d ! C.E V.C.V.Z.D.W U ^ ^ W Q V.R V.R R C.R ",
"V.V.V.V.h h R W D g D D D R R R R h h g f a 5 6 5 3 & i = 6 6 7 9 9 9 k p p s p a d I T C.V.E F R V.V.R D R F R F F V.E C.C.R V.",
"V.V.V.h h h R V.D D g F F h F h h h g g f a 3 2 3 2 & i 2 3 3 6 7 9 9 l p s s s a d f T F R ! E W V.V.V.R F R R F V.F V.R V.C.R ",
"V.h V.V.V.V.h C.R T D h h R R h g g g s s a ; ; - 2 & t 2 5 5 6 7 7 7 x p a a s s f T R h h h V.V.V.V.h R R R F V.V.V.R R C.R C.",
"V.V.V.h V.h V.V.R D h R h h h D g f s s s u < < = + # t - 3 3 5 6 7 7 u s a a d s g h R h V.V.h V.V.h V.R V.R R F F E V.V.R V.R ",
"V.V.h V.h V.V.V.V.D h V.h h h h g s s s s s $ @ O   & i 2 2 2 2 5 7 5 4 d p d s s s g h V.V.V.V.V.F F V.V.F E E V.V.F C.V.V.V.G ",
"V.V.V.R V.h V.V.V.F h V.h h R R g s s s s s t % X % p i O + 2 2 5 5 2 O p a p s s g h h V.V.Z.V.V.V.V.F F F V.V.E F V.V.F C.V.V.",
"V.h R R h D h V.R V.V.V.F Q I.I.Z.g g s s s s s s s s i . + + 2 2 2 + * p p p s s g h h h V.V.Z.V.R V.V.F V.F V.V.F V.E V.V.V.V.",
"V.V.R R R R h h R R V.h R F W S.h h g s g s s s s s p p X o + O + @ & d s p d s s s g g V.V.V.V.V.R G F V.F V.V.F V.V.V.E V.F V.",
"V.V.h V.h h Z.h V.V.V.V.R V.V.V.V.h g s s g s s s s s s p % % i t p s p d s s f s f g g h Z.V.V.R h R V.V.V.V.F V.V.V.V.V.V.V.V.",
"V.h V.V.V.h V.V.V.V.V.Z.C.V.R R V.h h g g g g g s s p s s s p s p s s s f f f f f g g g h h V.Z.V.V.h R F F F V.F F V.V.V.F V.E ",
"h V.V.V.V.V.V.Z.V.V.V.V.V.Z.Z.R V.V.h V.h h h g g s s s s s f f f f f h h D R D h h h V.V.V.V.h Z.h V.R V.V.V.F V.V.G V.V.C.V.C.",
"V.Z.V.Z.V.V.V.V.V.Z.Z.V.Z.V.V.R h Z.V.h V.h h h h g h h g g g h D R R R D R R R R h V.V.V.V.V.V.V.h V.V.F V.V.V.V.E V.C.F F C.F "
};
