/* XPM */
static char *result[] = {
/* columns rows colors chars-per-pixel */
"64 64 45 1 ",
"  c #3A6B3D",
". c #3F713E",
"X c #46793F",
"o c #306341",
"O c #366D44",
"+ c #326E48",
"@ c #377146",
"# c #3A7245",
"$ c #3E7947",
"% c #35734B",
"& c #3A7649",
"* c #37784E",
"= c #3C7D4D",
"- c #327751",
"; c #367C51",
": c #3B7E50",
"> c #437A42",
", c #4E803C",
"< c #558A3F",
"1 c #598C3E",
"2 c #5F933E",
"3 c #61963F",
"4 c #64993E",
"5 c #689E3F",
"6 c #7AB03F",
"7 c #3F824F",
"8 c #3E8250",
"9 c #41834F",
"0 c #48874D",
"q c #46884E",
"w c #4C8C4C",
"e c #508F4B",
"r c #569044",
"t c #5B9545",
"y c #5E9B47",
"u c #54934A",
"i c #599649",
"p c #5C9A48",
"a c #408450",
"s c #629D46",
"d c #609E49",
"f c #66A145",
"g c #69A445",
"h c #6EA946",
"j c #72AC43",
/* pixels */
"7977a8aa=a7797==777777777777777777797777977777777987=888779qq999",
"78888a8779777===7777777777777777977777777777777777a=77::=9qwewq9",
"78a88888797777977777777777777977777777777797877779799q977qwipieq",
"7779a888:a77777987777777777777777777779777879777:::aqwwq9qepyyiq",
"797778888877777977777777777777777797797777778888::87eiiuwwuyffpw",
"777798>a8877779777777777777777777778888877778888::79uyyiwwepffpq",
"7777788:a87977777777777777777779779888a89777a788:::quyfyuwupffpq",
"787777977977777777777777777777777778a98a87777988::=9iffyuwwpyyiq",
"8888a8a8777778977777777777777777777797777777aaa88;8auffduwquiie0",
"8888:a887777777777777778777777777a77777777898a>88;8qufgfiqqqwwwa",
"8788aa8a777797777777777877777777777777979777889:;;8audfpuq9=aaaa",
"77888>a877798777777877*787777777777977877777>a98888awupie98::8>a",
"7777aaa8aa8a77778778777788888887779777777877777=::87qeeewa::;;:>",
"78798a>8>a887779887*87777788-87777777777777789778877aaaaa>::::88",
"77778aa88a8a7777888*87qewq8*8888787778977777777797778;;8a:::::88",
"777788>aaaa8777788887qupiw7888887977777779777779797=:8;:8>aaa888",
"77777777>88a8aa>88aa0eidyuw7778877777877777777779797788888777777",
"89778977aa8888:a8aqwuiddpiiew7887777777778q777777997778888787777",
"77779777a:aaa8:::aeiddiuiyyie77888777777777777777777777788887777",
"7779777788a8a>::8aeiddiuupdyuw7888777777777777777777777788887777",
"7977797977a8a8:=aawutdtuiiyue97*8;8877777777q8777777777q77777777",
"77777a9779a>a878>aaqwutdpiuwq77888777877777777888777977777777777",
"77788889=977=a7788:80wudpu78787777777q7777777788aaa7777777777777",
"7898a9799977797788:;>0eruw788877787777877777788878a9777777777777",
"777779799a977777888;879wq777777777777777777777q87777777977777777",
"97777997=97778798888=77777777777777777777777978877=$777777777777",
"988777777777a977a888778=8777777777777979aa77778q77%@&=7997777777",
"888977779777=97888a877888777777777777797a77777887#O @&=77q777777",
"7798779787777777a877777=87777777777779797777777*#@ +O@%=7888a779",
"79777777777797798a89778777777777777777777q7a77$@@@@@@@@@788qa777",
"7777777879778777a77797777777777777777777777778&@ @@#@  @=778q777",
"777779777777777777777777777777777777777777777**@O@@@+ O@&=777777",
">aa88a8>8>777777777777777777777777777778777777777 +   - 78778777",
"8a:aaa8a89879777777979777777777777777777777777777  ++ 8877778877",
"88888a8aaa798777777777777777777777777777777777778 % 778888877777",
"a8>a:aaaaa7777777777777788777777777777777777777788%8888a88877777",
"8>888aaaaa>8777997777797777777778888888877777877887777q877777778",
"a8888a>8:aa878777777777777777777888888887777777777q7778877777777",
"a88a8aa9aa8a797777777777777777888888888877777777777788q877777777",
"8a8888>9:8a87777797777777777888888888888777777777777888877777777",
"a:aaa88a98777797777777797777777877eew778888877777777778777777777",
">a:8:>887a7779877777777777777$*877utiuw8888877777777777777777777",
"88;8:aa87=777a=777977777777777**7wtffyi7888888887887777777777777",
"8;8;>:8a7777=aa977777777777777*87wpfhhde788887888887777777777777",
"888888a88777=779797777777777888-7qpg6hgyw7888-778777877777777777",
"9aaqa8887777977777779777787788-87qi556jfyw88-8887777788777777777",
"qwuwq888=7779777777779778888888-7wuf666gyw8-888wuuq7787777777777",
"qiyiw88;:877777777777777888888-877ufh66gy788-87dddu7777777777777",
"wpgse888-877777777777777q777888877udh66gr7--77yfhfu788888-777777",
"wsgsu78--87777777777777777777788877pdh5f<> @qighjgy78888;-777777",
"wpsde7888887777777777777777777788877udfy<X#>rgh6hyu78888;7777777",
"qpfpe77a777777777777777777777777887777<<<<<rf66g3<q7888877777777",
"wpspwqweuuw7788877777777q7q8787788888 =>,<45hh4<,$77887777777777",
"qpspwweppieq88887q7777777777778q8888-   ,<56651,.@ 7887777777777",
"qpsiuwiysyu7*8*877777777777777778888-+  X<244<,. ++7887777777777",
"wpfpweiyfsu78;88777777777777777788888-8.#X,,,X#@+787887777777777",
"qiyrwwifffuq8-88777777777777777788777888@@     &8777777777777777",
"7euewwiffsuq8888777777777777w77788777888-+ ooo@;8887777777777777",
"7qq77wiffyuq7-*8778877777777777787777788-++-+ ;=8877777777777777",
"77887wryspe788887778777777777777877777788888;;;787w7777777777777",
"7*8*77w1rrq78888777w777777777777777777778a8888887q87777777777777",
"78;877qqwqq78;7;7777777777777777777777778qaaq88q7777777777777777",
"88888788777877777777777777777777777777778a8qa8777777777777777777",
"88888888887;7777777777777777777777777777888888777777777777777777"
};
