/* XPM */
static char *result[] = {
/* columns rows colors chars-per-pixel */
"64 64 232 2 ",
"   c #201F1E",
".  c #382417",
"X  c #1B2729",
"o  c #1F392B",
"O  c #262825",
"+  c #242A2D",
"@  c #2C2E2C",
"#  c #362C25",
"$  c #26372C",
"%  c #2C322E",
"&  c #33332E",
"*  c #3C3629",
"=  c #3C332C",
"-  c #292E31",
";  c #2D3332",
":  c #253834",
">  c #2D3B32",
",  c #323532",
"<  c #393633",
"1  c #323B34",
"2  c #3B3A33",
"3  c #343B3C",
"4  c #3B3B3A",
"5  c #422B1C",
"6  c #4B2D19",
"7  c #5A2F15",
"8  c #59351D",
"9  c #663618",
"0  c #753D1A",
"q  c #442E21",
"w  c #43352C",
"e  c #483628",
"r  c #4B3B2D",
"t  c #563926",
"y  c #5B3B26",
"u  c #533B2B",
"i  c #433B32",
"p  c #4C3D33",
"a  c #403C38",
"s  c #503D32",
"d  c #643E26",
"f  c #683F27",
"g  c #2C4335",
"h  c #2C4736",
"j  c #2E4B3A",
"k  c #334436",
"l  c #394737",
"z  c #33443A",
"x  c #334B3A",
"c  c #2E5237",
"v  c #2E533C",
"b  c #34543D",
"n  c #3A533C",
"m  c #3A573C",
"M  c #355A3E",
"N  c #35623F",
"B  c #7B411E",
"V  c #59422C",
"C  c #484539",
"Z  c #554134",
"A  c #5B4335",
"S  c #57483A",
"D  c #4B5038",
"F  c #6D4126",
"G  c #64412B",
"H  c #684229",
"J  c #6B442C",
"K  c #744325",
"L  c #7C4624",
"P  c #78482B",
"I  c #694935",
"U  c #744D35",
"Y  c #794F35",
"T  c #685038",
"R  c #785539",
"E  c #4C773E",
"W  c #3A3F40",
"Q  c #3E4644",
"!  c #365B40",
"~  c #395D42",
"^  c #366343",
"/  c #396444",
"(  c #376946",
")  c #3A6B46",
"_  c #366C49",
"`  c #3B6E48",
"'  c #36734C",
"]  c #3B7349",
"[  c #3B734A",
"{  c #3D7C4D",
"}  c #367B50",
"|  c #3A7E50",
" . c #474745",
".. c #4D4D4C",
"X. c #594D45",
"o. c #56514C",
"O. c #444D51",
"+. c #4F5A5F",
"@. c #555858",
"#. c #675346",
"$. c #665951",
"%. c #436A47",
"&. c #477846",
"*. c #437B49",
"=. c #556C54",
"-. c #65615B",
";. c #75675F",
":. c #505C62",
">. c #5B6367",
",. c #656865",
"<. c #6C6D6D",
"1. c #6D7475",
"2. c #747474",
"3. c #787A7A",
"4. c #8A451B",
"5. c #9A4714",
"6. c #9B4815",
"7. c #964818",
"8. c #9B4C1C",
"9. c #A54E19",
"0. c #A3511E",
"q. c #AC541F",
"w. c #B5551C",
"e. c #824722",
"r. c #8B4A23",
"t. c #864C29",
"y. c #924C22",
"u. c #9B4F21",
"i. c #8A512E",
"p. c #9E5224",
"a. c #9C562B",
"s. c #865537",
"d. c #8C5A3B",
"f. c #955B37",
"g. c #A45321",
"h. c #AA5622",
"j. c #A85A29",
"k. c #B75D27",
"l. c #A65E33",
"z. c #9C613C",
"x. c #B9612C",
"c. c #BC632D",
"v. c #AA643A",
"b. c #BA6532",
"n. c #B36739",
"m. c #BB6C3D",
"M. c #C5662C",
"N. c #CC6A2F",
"B. c #C46B36",
"V. c #CC6D33",
"C. c #D26E33",
"Z. c #CB713A",
"A. c #D4753B",
"S. c #D8763C",
"D. c #895F45",
"F. c #8A6249",
"G. c #936B52",
"H. c #B56E43",
"J. c #B1744F",
"K. c #877A72",
"L. c #C47342",
"P. c #D27A44",
"I. c #DC7C42",
"U. c #C17F56",
"Y. c #E37E42",
"T. c #3F824F",
"R. c #3E8150",
"E. c #4E8246",
"W. c #42834E",
"Q. c #49854A",
"!. c #46884D",
"~. c #4C8C4C",
"^. c #568743",
"/. c #558B46",
"(. c #518E4A",
"). c #5C9345",
"_. c #5E9A47",
"`. c #54934A",
"'. c #599649",
"]. c #5D9948",
"[. c #408350",
"{. c #619744",
"}. c #629C46",
"|. c #66A145",
" X c #69A246",
".X c #BB8869",
"XX c #B88E75",
"oX c #DA834F",
"OX c #C78155",
"+X c #D98857",
"@X c #E98345",
"#X c #F38746",
"$X c #E38B57",
"%X c #D1936D",
"&X c #C69578",
"*X c #DC9E78",
"=X c #727D83",
"-X c #7D8589",
";X c #888989",
":X c #8A9092",
">X c #989694",
",X c #9C9E9D",
"<X c #A79185",
"1X c #B5A296",
"2X c #9AA1A5",
"3X c #A8A9A9",
"4X c #A9B0B3",
"5X c #B7B7B7",
"6X c #D7A98D",
"7X c #C3A797",
"8X c #DDAD91",
"9X c #EDB28E",
"0X c #F2B48F",
"qX c #EBB393",
"wX c #CEB8AB",
"eX c #CFC3BC",
"rX c #F0CBB5",
"tX c #B8BDC0",
"yX c #B8C2C9",
"uX c #C8CACB",
"iX c #D2CFCD",
"pX c #D6D7D7",
"aX c #E9D8CD",
"sX c #F1D6C6",
"dX c #FBDDCA",
"fX c #EBE3DE",
"gX c #DDE2E5",
"hX c #E5E7E8",
"jX c #F3EDE9",
"kX c #EEF1F3",
"lX c #F6F6F5",
"zX c #FEFEFD",
/* pixels */
"T.W.T.T.T.T.T.R.W.T.T.W.T.T.{ { T.T.T.T.T.T.T.T.T.T.T.T.T.T.T.T.T.!.T.T.T.T.T.T.W.R.T.T.T.T.T.T.T.T.T.T.T.T.T.R.R.T.T.!.!.!.T.T.",
"T.R.R.R.T.T.T.T.T.T.T.T.T.T.T.{ T.T.T.R.R.T.T.T.T.T.R.W.T.T.T.T.R.R.T.T.T.T.T.T.T.T.T.T.T.T.T.T.T.T.W.R.T.T.R.R.R.T.!.~.`.!.~.T.",
"[.R.R.[.R.T.T.T.T.T.T.T.T.T.T.T.T.T.T.R.R.T.T.T.T.T.T.T.T.T.T.T.R.T.T.T.T.T.T.T.T.T.T.T.T.R.T.T.T.R.T.T.W.W.T.T.R.T.~.'.].`.(.!.",
"T.T.T.T.W.R.R.R.R.R.T.R.T.T.T.T.T.T.T.T.T.T.T.T.T.T.T.T.T.T.T.T.T.T.T.T.T.T.T.T.T.T.T.R.T.W.T.T.R.R.R.W.!.~.~.!.T.!.`.].}.}.`.!.",
"T.T.T.T.T.R.R.R.T.T.T.T.T.T.T.T.T.T.T.T.T.T.R.T.T.T.T.T.T.T.T.T.T.T.T.T.T.R.R.R.T.T.T.T.T.T.T.R.R.} T.T.(.'.'.`.~.~.`.].|.|.].!.",
"W.T.T.T.T.R.R.[.T.T.T.T.T.T.T.T.T.T.T.T.T.T.T.T.T.W.T.T.R.!.T.T.!.T.T.[.T.!.T.R.T.T.W.T.T.T.T.R.R.} T.W.`.].}.'.~.~.`.].|.|.].!.",
"T.R.T.T.T.R.[.R.T.T.T.T.T.T.T.T.T.T.T.T.T.T.T.T.T.T.T.T.R.T.T.T.R.R.T.R.R.R.T.T.T.R.T.W.T.T.T.{ R.R.} W.`.|.|.].`.~.`.].|.|.].!.",
"T.T.T.T.T.T.T.T.T.T.T.T.T.T.T.T.T.T.T.R.W.T.T.T.T.T.T.T.R.R.T.T.T.R.T.[.R.R.R.T.T.T.T.T.T.R.W.R.} } R.W.`.|.|.].`.~.~.'.}.].].!.",
"T.T.T.T.T.T.R.T.T.T.T.T.T.T.T.T.T.T.T.T.T.T.T.T.W.T.T.T.T.W.T.T.T.R.T.] m l * $ * k b / { W.W.W.T.} } W.).{.}.{.~.!.~./.'.'.(.!.",
"T.T.T.T.W.T.T.T.T.T.T.T.T.T.T.T.T.T.T.T.T.T.R.R.R.R.R.T.T.T.T.T.T.R.{ ` m g # # $ & b / { T.{ | { } ] *.^.{.{.).(.Q.W.W.~.~.~.[.",
"T.T.T.T.T.T.T.T.T.T.T.!.T.T.T.T.T.T.T.T.T.T.R.| R.R.T.W.W.T.T.T.T.{ ( M l e 6 q # & k / { W.W.{ { ' ( ) ) E E E E E ) [ W.!.[.[.",
"T.T.T.T.R.T.T.T.T.T.T.T.T.T.T.T.T.T.T.T.T.T.} R.| R.T.T.T.T.T.T.{ ^ M l V 8 9 8 q & x / { W.T.T.] ^ v x l c c n c b ! _ | | [.[.",
"T.R.R.T.R.[.[.W.[.[.T.T.T.T.T.T.T.T.T.T.T.R.R.R.R.R.R.T.T.T.{ { ) b k Z H t.P J V , z ^ T.T.T.{ ` M k * 2 2 2 , , 1 b / ' | | R.",
"R.R.T.T.R.R.[.[.[.[.T.[.T.T.T.T.T.T.R.} { R.[.!.T.T.| R.{ { ] ) m l Z T G.J..XG.S 2 c ( T.T.[ ` m C u V J I I V = % z ^ [ | | R.",
"T.T.T.T.R.R.[.[.[.[.T.T.T.T.T.T.T.T.R.R.R.T.!.~.~.!.T.} } ' ^ b l V d d..X6X7XXX-.4 c ` { { ) m l Z K i.a.v.d.U p , g ^ { { R.T.",
"T.T.T.T.R.!.[.[.[.[.R.T.T.T.T.T.T.R.} T.T.!.`.].'.~.W.T.{ ( b k # 7 B J.6XsXpX3X2.l h N ] ` b g w y L j.b.m.v.s.A , j ( { T.T.T.",
"T.T.T.T.T.T.T.T.T.T.T.T.T.T.W.R.R.R.R.[.~.`.'.}.].`.~.!.T._ v & 5 9 r.OXrXlXkXyX=X3 o c M ! h + # t F r.l.n.z.R D n M _ T.T.T.{ ",
"T.T.T.T.T.T.T.T.T.T.W.R.T.T.| R.| W.!.~.`.'.'.].].'.'.~.!._ x % 5 9 r.OXrXzXkXyX=Xg X o h h : + @ * t H P s.R S D / ` ] T.T.W.T.",
"T.T.T.T.T.T.T.T.T.T.W.T.W.*.R.| | W.(.'.}.'.'.'.'.].].'.(.) c & 5 7 r.U.qXdXhXtX1.3 O O $ ; ; & & = w w p p C n ) [ { T.T.T.T.T.",
"T.T.T.T.T.T.T.T.T.T.R.W.| W.| | W.W.(.'.}.}.'.`.'.].}.].(.] x 1 5 9 r.H.&XrXeX1XK.S e u u A A A A A Z p = @ : b ' T.W.T.T.W.T.{ ",
"T.T.T.T.!.T.T.T.T.T.W.[.R.T.{ T.T.W.~.`.'.].'.'.'.].].'.~.` j 1 q 9 r.v.U.&X&X.XG.f.s.i.f.f.d.f.d.d.s.T p - : v [ T.T.T.T.R.R.W.",
"T.T.T.T.T.T.!.T.T.T.T.[.R.T.T.{ T.[.[.!.(.`.'.'.].'.`.!.W.) b 1 e f r.g.v.n.H.J.H.H.H.m.m.m.m.H.B.L.m.f.I a > c ' T.T.T.T.T.R.T.",
"T.T.T.T.R.!.T.T.W.T.T.T.T.T.T.T.T.T.R.R.[.(.'.}.].`.!.T.T.( b > w G t.8.9.6.h.k.B.P.P.L.m.n.m.Z.A.S.Z.v.s.G a b / [ { T.W.R.T.T.",
"T.T.T.T.R.T.T.T.T.T.T.T.T.T.T.W.T.R.| R.[.[.`.`.`.~.T.R.T.( v > w d t.8.9.5.9.k.C.I.L.v.d.f.l.c.V.V.N.b.j.L G C n m ) { T.T.T.T.",
"T.T.T.T.T.W.T.W.W.[.T.T.T.T.T.T.T.T.} R.} T.!.!.!.T.T.T.{ ) c > w d r.7.6.6.9.M.C.Z.n.s.I J t.a.k.k.k.h.g.y.L y C k M ` T.*.R.T.",
"T.T.T.T.T.T.W.{ T.{ T.T.T.T.{ T.T.T.T.T.R.R.T.T.T.T.T.{ ] N l * t 0 4.6.6.6.9.k.N.B.z.U V y K 8.q.w.q.0.u.4.0 8 # O h ~ [ { { T.",
"T.[.R.T.T.T.R.{ { ( ^ ^ ) ] { { { T.T.T.T.R.T.{ T.T.] ( m n C t 9 4.4.5.5.5.9.w.M.M.v.i.K K 4.0.w.w.w.0.4.0 7 . .   $ h ~ ) [ T.",
"T.R.R.T.T.T.T./ b z g g g h x M ( ] T.T.T.T.R.T.T.T.) M l l V K r.7.6.6.5.5.9.k.N.Z.B.n.v.j.x.b.N.C.M.j.r.d q # O O O : k m ) { ",
"T.R.T.T.T.] ^ ! l l 4 i i i C i l m %.{ W.T.T.{ T.{ ( c 1 u I f.v.n.v.v.l.v.H.H.oXoX+X+X+X+XoXoX$X$X+XU.G.$.X.O.O. . .2 1 x N *.",
"R.!.T.T.( M ! D S I U U U Y U S S D m / { T.T.T.T.T.N h , S ;.J..X.X.X.X.XXX6X6X8X9X0X0X9X0X0X9X0X0X9X6X1X>X>X:X:X;X<. ., > M [ ",
"T.R.R.M g k C T R v.v.v.v.v.n.v.R T D b ^ { T.T.T.T.N h , o.K.XX1X7X1X7XwXeXrXaXdXdXdXdXdXdXdXdXdXdXdXaXaXuXuXuXuX5X>X-., > M { ",
"T.R./ Q 4 C V Y f.L.I.I.I.I.oXA.n.T C > j ^ { { { ] N g 1 ..2.>X3X3X1X5XiXhXjXlXlXlXzXlXzXzXzXlXzXzXzXlXkXhXgXgXhXiX,X,.l h N { ",
"R.%.O.,.-.#.U i.n.I.@X#X#X#X#X@XB.d.Z , : ! / ( ^ ^ x : ;  .>.=X;X:X:X2XtXhXlXzXlXzXzXzXzXzXzXzXzXzXzXzXkXpXuXeXyX5X;X=.n M ) *.",
"| %.<.3X>XG.i.u.c.S.@X#X@X#X#XY.L.d.C @ o : h z j j > - ; 3 O.+.:.:.>.=X2XyXgXhXhXkXkXzXzXzXzXzXzXzXzXlXiX,X].-XK.=X>.%./ ) { T.",
"%.+.5XwXwX%Xl.q.k.C.I.Y.Y.Y.Y.Y.m.s.C @ + - , & & = & @ , < < a , , a o.1.2XtXtXtXtXuXgXkXkXkXjXkXlXkXpX,X,. .1 < Q Q ) { { { T.",
"@.:XiXhXrX%Xk.w.w.N.C.C.C.S.S.V.l.Y p @ @ & r t u u u u u e e q . 5 5 s @.<.-X-X=X;X>X,X3X4X4X5X5X5X5X,X<.n g o - 3 ^ ] T.T.T.T.",
",.yXiXlXrX*Xc.9.w.k.k.c.c.M.M.b.a.I w & = t F K K K P K f 0 f 9 9 9 9 d Z o.+.+.:.:.>.<.<.2.<.<.<.3.3.<.%.! M M c N ` { T.W.T.T.",
"].pXfXjXwX.Xj.5.5.6.p.g.g.g.h.p.t.d w w u K r.p.u.y.r.y.y.y.y.7.7.7.4.L G Z a 4 4 a a  .......o... . .C ! ) { { { { { T.T.T.T.T.",
"=XuXuXwX<XG.t.0 0 0 L L L e.e.L K y u y F r.g.g.h.0.0.u.0.g.h.j.k.k.k.l.i.J u t e t I $.-.-.,.<.@. .& % b [ R.T.T.T.T.W.T.T.T.T.",
"$.;X;X3.;.#.d 8 y t y t t t t t y d f K t.u.g.q.q.0.0.0.0.j.k.M.V.V.V.b.l.a.t.e.e.i.F.K.>X,X2X2X;X@., $ b ] T.T.T.T.T.T.T.T.T.T.",
"..o... .C a = = = = = = = & & = w d L y.u.g.g.g.g.0.0.g.g.k.B.Z.I.I.A.Z.Z.m.b.k.b.J.&XwXpXpXpXpX4X2.C $ c ] T.T.T.T.T.T.T.T.T.T.",
"3 ; > > > k > k k > g > g : : ; i d r.g.h.q.g.0.g.g.g.h.k.B.C.I.Y.Y.I.I.A.A.C.I.I.*XqXdXlXkXjXpX3X2. .> c ] T.T.T.T.T.T.T.T.T.T.",
"x v j v b b ! ! ! ! ! M ! j : : = d r.g.h.w.0.0.0.q.j.x.M.C.Y.Y.@X@XI.S.C.C.Z.oX%X9XsXjXjXgXtX3X-X@.4 > b ` W.T.T.T.T.W.T.T.T.T.",
"_ _ ' _ ] ' [ ' [ [ ' ' ' ~ j : w d r.g.q.h.u.8.u.g.j.b.L.P.I.I.I.I.I.A.M.k.n.J.&XwXiXpXuX4X;X,...3 & 1 b ] R.[.T.T.T.T.T.T.W.T.",
"T.T.T.T.T.T.T.T.T.T.T.T.{ ` v 1 w f r.u.g.u.r.e.e.r.a.l.n.H.H.H.L.P.S.V.k.p.s.G.K.2X4X4X,XK.$.p # . @ 1 M [ *.R.T.T.T.T.T.T.T.T.",
"T.!.W.W.T.T.T.T.T.T.T.T.[.' ! 1 r F y.u.y.L f y d f f s.s.s.s.d.l.H.A.V.l.t.I X.,.=X=X=X<.$.I t 6 5 # 1 m ' R.R.!.T.T.T.T.T.T.T.",
"W.(.`.~.!.T.T.T.R.R.[.{ { ` b 1 e f r.y.e.d e = w w r s s p r s Y H.m.B.a.I r 4  .O.O.O...I f 0 9 t * 1 M ' T.R.R.R.T.T.T.T.T.T.",
"!.'.].'.~.T.R.} | { { [ [ / x 2 w f e.t.f r & @ - ; ; & - + + & Z d.H.G.d.A & - - ; - - & u K t.L d w k M ] T.T.T.T.T.T.T.T.W.T.",
"~.].|.}.~.W.T.} } } ] ] [ / z 1 = u f I u = - + - - - - X X X + a I D.D.U C ; $ g h $ + O e G U U A i 1 b ) { R.[.R.R.T.T.T.T.T.",
"~.}.|.}.~.*.} ' ' ' ` [ ` M x 1 < i s s i , ; ; ; 3 : - + + X + < X.#.#.X.4 : > h b h $ @ i Z #.X.Z < > b / [ *.W.R.W.T.T.T.T.T.",
"~.).|.'.Q.{ ' ' ' ` ) ) ` M k % & < 2 4 < , ; , , 3 3 ; > % % ; 3 a  . .Q , , x M / ! k 1 4  . . .a , , x / [ { { T.T.T.T.T.T.W.",
"Q.'.)./.E.*.[ &.&.[ ) ) ) ~ z & ; ; ; ; 3 1 z 1 < < , 3 k z z z z W W 3 3 , % x N ) / m z z 4 W 4 3 , 1 x ~ ` [ { T.T.T.T.T.T.R.",
"Q.`.).^.E.*.*.&.^.&.%.` ) ! z ; @ ; ; ; z x b z 3 , , z b m ! ~ b z 3 ; , ; , x m ) ) / ~ x z 3 3 , % 1 x ~ ` ` [ { T.T.T.T.T.W.",
"W.).)./.&.*.E.&.^.&.&.` ( ! x 1 ; & , 1 x ~ / b k 1 k b / ) ) / ~ x 1 ; ; & 1 x ^ ) ) ) ) b z 1 ; , , 1 b ~ ` ` [ { T.T.T.T.T.R.",
"Q.).).^.E.Q.E.^.^.^.&.&._ ^ ! z k z z x ~ / / / b x b ~ ) ) ) ) / b x z k z z b ~ ) ) ) ) / b x k k z x m / ) [ { *.[.T.T.T.T.T.",
"Q.'.{.^.Q.E.^.).{.^.E.[ _ _ / ~ M ! b ~ / ) ` / ~ m ~ / ) ` ) ) ) / ~ b b b ~ / / ) ) ) ) ) ~ m b b M ~ / ) ` [ { R.T.T.T.T.T.T.",
"W.`.)./.E.Q./.).{.).E.W.] ' ' ] [ ` ) ` ` ` ) ) ` / / ) ) ) ) ) ) ) / ) / / ) / ) ) ) ) ) ) ) / / ) ) ) ' ] { T.*.R.T.T.W.T.T.T.",
"W.`.`.~.Q.~.'.}.{.{./.Q.{ } ] { { { *.{ { { { [ [ [ [ [ [ ` ` ] ` ` ` ) ' ` ` ` ` ` ` ` ) ' [ ' [ [ ] { *.{ T.T.R.R.T.[.R.R.T.T.",
"W.Q.!.W.!.~.].|. X}.`.W.{ | | R.T.{ T.T.{ { T.{ *.| { { { { T.{ { { { { { { *.{ { { { T.*.{ { { { { T.T.T.T.T.T.R.[.R.R.R.T.T.W.",
"W.W.} R.T.~.`._.{.{./.W.| | | R.T.T.W.T.[.T.W.T.[.[.{ W.T.W.T.T.[.[.[.W.*.R.[.R.T.T.T.W.[.R.[.W.R.W.T.T.T.T.T.T.R.R.[.R.R.T.T.R.",
"T.} } | } W.(.`.`.`.~.W.R.R.R.R.T.T.T.T.T.T.T.T.R.[.R.W.R.T.T.T.T.T.T.T.R.R.R.R.T.T.T.T.T.T.T.T.T.T.T.T.R.R.T.T.R.R.T.T.W.T.T.T.",
"T.{ } R.T.T.!.~.~.~.W.T.R.} | R.T.T.T.R.T.T.T.T.[.R.T.R.W.T.T.T.T.T.T.T.R.R.R.W.T.T.T.T.T.T.T.T.T.T.R.W.!.T.T.R.R.!.T.T.R.T.T.T.",
"T.T.R.T.T.T.T.T.T.T.T.| T.T.T.T.T.W.T.T.R.W.W.R.T.T.T.T.T.T.T.T.W.R.T.T.T.T.T.T.T.T.T.R.[.[.W.R.T.T.T.T.T.T.T.T.R.R.T.T.T.T.T.T.",
"T.T.T.T.T.T.T.R.} R.R.R.T.T.T.T.R.T.T.T.T.T.T.T.T.T.T.T.T.T.T.T.T.T.R.W.T.T.T.T.R.W.T.T.W.R.T.T.T.T.T.T.T.T.T.R.R.R.T.T.T.R.W.T."
};
