/* XPM */
static char *result[] = {
/* columns rows colors chars-per-pixel */
"64 64 231 2 ",
"   c #26201A",
".  c #3D281B",
"X  c #192627",
"o  c #1D3629",
"O  c #272723",
"+  c #232B2D",
"@  c #2C2D2D",
"#  c #372D25",
"$  c #2B332E",
"%  c #26392B",
"&  c #33322D",
"*  c #3B362A",
"=  c #3C342C",
"-  c #292E31",
";  c #253532",
":  c #2D3332",
">  c #2D3C34",
",  c #333532",
"<  c #3A3632",
"1  c #323B33",
"2  c #3C3B32",
"3  c #343A3C",
"4  c #3B3C3A",
"5  c #452B1B",
"6  c #562F16",
"7  c #59331A",
"8  c #683719",
"9  c #753C19",
"0  c #452E20",
"q  c #4D3425",
"w  c #42352B",
"e  c #49382B",
"r  c #533725",
"t  c #5D3B25",
"y  c #533A2B",
"u  c #5B3D2B",
"i  c #423A33",
"p  c #4C3C32",
"a  c #503E32",
"s  c #623D25",
"d  c #643E27",
"f  c #2B402F",
"g  c #2C4334",
"h  c #284436",
"j  c #2E4B35",
"k  c #2E4A39",
"l  c #314335",
"z  c #334A37",
"x  c #334539",
"c  c #3B4739",
"v  c #334C39",
"b  c #2E543C",
"n  c #33543C",
"m  c #3B553C",
"M  c #345B3D",
"N  c #34613F",
"B  c #7C421F",
"V  c #59412C",
"C  c #434332",
"Z  c #484538",
"A  c #5B4334",
"S  c #554539",
"D  c #47573E",
"F  c #6D4126",
"G  c #69432C",
"H  c #744425",
"J  c #774628",
"K  c #684834",
"L  c #754D35",
"P  c #745439",
"I  c #4A793E",
"U  c #363E41",
"Y  c #3C4543",
"T  c #2F5B41",
"R  c #395441",
"E  c #345D41",
"W  c #395D41",
"Q  c #356442",
"!  c #396343",
"~  c #366A43",
"^  c #3A6C45",
"/  c #386E48",
"(  c #3A7246",
")  c #36764C",
"_  c #3B7449",
"`  c #3C7C4D",
"'  c #377950",
"]  c #3A7E50",
"[  c #434442",
"{  c #464A48",
"}  c #4C4C4B",
"|  c #504C49",
" . c #4A564B",
".. c #5A524B",
"X. c #4D5959",
"o. c #555858",
"O. c #69564B",
"+. c #476A4A",
"@. c #437944",
"#. c #6E625A",
"$. c #545D62",
"%. c #5B6264",
"&. c #636463",
"*. c #6A6C6A",
"=. c #726F6D",
"-. c #6D7477",
";. c #757878",
":. c #98430F",
">. c #8A461C",
",. c #9C4713",
"<. c #954819",
"1. c #9B4C1C",
"2. c #A24A14",
"3. c #A24E1B",
"4. c #A4511E",
"5. c #AB541F",
"6. c #B4561D",
"7. c #844924",
"8. c #854B27",
"9. c #8A4A23",
"0. c #934D22",
"q. c #9B4F21",
"w. c #8D502C",
"e. c #995226",
"r. c #885738",
"t. c #965B38",
"y. c #A45221",
"u. c #A95522",
"i. c #AB5A28",
"p. c #B65D28",
"a. c #A45E33",
"s. c #AC5F30",
"d. c #97603C",
"f. c #B7602C",
"g. c #BD622B",
"h. c #A86338",
"j. c #B86635",
"k. c #BB6D3D",
"l. c #C4662D",
"z. c #CC6A2F",
"x. c #C46B36",
"c. c #CC6D34",
"v. c #D26F33",
"b. c #CB713A",
"n. c #D4753B",
"m. c #D8773C",
"M. c #E57B3B",
"N. c #885E45",
"B. c #8E644A",
"V. c #8E6A54",
"C. c #AB6A42",
"Z. c #B56D43",
"A. c #BB7449",
"S. c #A97759",
"D. c #B97A54",
"F. c #897B73",
"G. c #C87441",
"H. c #D47944",
"J. c #DC7C43",
"K. c #CF7F50",
"L. c #E37F43",
"P. c #4F803C",
"I. c #55873D",
"U. c #3F824F",
"Y. c #3E8150",
"T. c #42844E",
"R. c #498448",
"E. c #47884D",
"W. c #4B8C4C",
"Q. c #538B45",
"!. c #518E4A",
"~. c #5E9A47",
"^. c #54934A",
"/. c #599649",
"(. c #5C9948",
"). c #408350",
"_. c #609844",
"`. c #629D46",
"'. c #65A145",
"]. c #69A346",
"[. c #79817B",
"{. c #A9836D",
"}. c #B98769",
"|. c #B28F7A",
" X c #DC814A",
".X c #D98756",
"XX c #E98346",
"oX c #E88A52",
"OX c #CE936F",
"+X c #C69576",
"@X c #E19B70",
"#X c #6F7C82",
"$X c #7B848A",
"%X c #7F8A92",
"&X c #868686",
"*X c #8A9092",
"=X c #989998",
"-X c #AB9485",
";X c #B4A298",
":X c #989EA1",
">X c #9DA4A8",
",X c #A8A8A7",
"<X c #ADAEAE",
"1X c #B2B3B3",
"2X c #BABCBC",
"3X c #D6AA8E",
"4X c #C5AA99",
"5X c #DCAD91",
"6X c #ECB18E",
"7X c #F2B48D",
"8X c #EAB493",
"9X c #CDB6A8",
"0X c #DAC6B9",
"qX c #E9C4AD",
"wX c #B7BEC2",
"eX c #BAC5CC",
"rX c #C7C9CA",
"tX c #D4D1CF",
"yX c #D6D6D6",
"uX c #EAD7CB",
"iX c #F2D7C6",
"pX c #FCDECC",
"aX c #FAE3D5",
"sX c #DBDEE0",
"dX c #DCE2E5",
"fX c #E5E7E9",
"gX c #F1F0EF",
"hX c #FAF3EB",
"jX c #F2F2F2",
"kX c #F8F8F7",
"lX c #FEFEFD",
/* pixels */
"U.T.U.U.U.U.Y.U.U.U.U.Y.U.U.` ` U.U.U.U.U.U.U.U.U.U.U.U.U.U.U.E.U.U.U.U.U.U.U.U.U.U.U.U.U.U.U.U.U.U.U.Y.Y.Y.U.Y.Y.U.U.U.E.U.U.U.",
"U.Y.Y.Y.U.U.T.U.U.U.U.T.U.U.` U.Y.U.Y.Y.U.U.U.U.U.U.U.U.U.U.U.U.U.U.U.U.U.U.U.U.U.U.U.T.U.U.U.U.U.T.Y.Y.Y.Y.U.Y.Y.U.E.W.^.W.W.E.",
"U.).Y.).U.U.T.Y.U.Y.U.U.U.U.U.U.U.U.Y.Y.U.U.U.U.U.U.U.U.U.U.U.U.U.U.U.U.U.U.U.U.U.U.U.U.Y.Y.T.Y.Y.Y.U.T.U.E.U.Y.U.U.!./.(.(.^.U.",
"U.Y.U.U.U.Y.Y.Y.Y.Y.U.U.U.U.U.U.U.U.Y.U.Y.U.U.U.U.U.U.U.U.U.U.U.U.U.U.U.U.U.U.U.U.U.U.U.U.U.Y.Y.Y.Y.Y.E.W.W.W.E.U.U.^.(.~.~.^.W.",
"U.U.U.U.U.Y.Y.Y.U.U.U.U.U.U.U.U.U.U.U.U.U.U.U.U.U.U.U.U.U.U.U.U.U.U.U.U.U.U.U.U.U.U.U.T.Y.Y.Y.Y.Y.' Y.U.W././.^.W.U.^.~.'.'.(.W.",
"T.U.U.U.U.Y.Y.).U.U.U.U.U.U.U.U.U.U.U.U.U.U.U.U.U.U.U.U.U.U.U.U.U.Y.T.).U.U.Y.T.U.U.U.U.Y.Y.Y.Y.Y.' U.U.^.~.~.(.^.W.^.~.'.'.(.W.",
"U.U.U.U.U.Y.).Y.U.Y.U.U.U.U.U.U.U.U.U.U.U.U.U.U.U.U.E.U.U.U.U.U.U.U.U.Y.Y.).Y.Y.U.U.U.U.T.Y.Y.Y.Y.' Y.Y.^.~.'.~.^.W.^.(.'.'.(.U.",
"U.Y.U.U.U.U.U.U.U.U.U.U.U.E.U.U.U.U.U.U.U.U.U.U.U.U.U.U.U.U.U.U.U.U.U.).Y.Y.).Y.U.U.U.U.U.T.Y.Y.Y.' Y.U./.'.'.~.^.W.W.(.~.~./.W.",
"Y.Y.U.U.U.U.U.U.U.U.U.U.U.U.U.U.U.U.U.U.U.U.U.U.U.U.U.U.).Y.Y.).U.T.U.` N z * * % l m ~ ] ).).Y.Y.' ' T.Q._.`._.^.U.W.!././.!.E.",
"Y.Y.U.U.U.U.U.Y.U.U.U.U.U.U.U.U.U.U.U.U.U.U.U.Y.Y.Y.Y.T.).).Y.Y.U.U.` _ m l * # & & v ~ Y.).).@.] ` ' @.Q._._._.!.E.@.E.W.W.W.).",
"U.Y.U.U.U.U.U.T.U.U.U.U.U.U.U.U.U.U.U.U.U.U.Y.Y.Y.Y.Y.Y.T.Y.Y.).` ` / W c 0 0 0 # & z ! @.Y.).@.` / ~ ! +.I I I I I / _ ).).).).",
"Y.Y.U.Y.T.U.Y.Y.U.U.U.U.U.U.T.U.U.U.U.U.U.U.Y.' Y.Y.Y.U.T.U.).Y.` ~ M c C 8 8 7 q & x ! ] ).).] ' Q n z z v v z z M W ) ] ).).).",
"U.U.U.U.Y.T.Y.).).).Y.).U.U.U.U.U.U.U.U.Y.U.Y.Y.Y.Y.Y.U.] ).@.@._ M l C G w.w.J y < z ~ ` ).).` ! n c < i 2 2 < , 1 R / ' ] ] @.",
"U.U.U.U.Y.T.).).).).).Y.U.U.U.U.Y.Y.U.' Y.Y.Y.U.U.U.Y.Y.] ` ' / M c e K B.S.S.V...4 j / U.Y._ ^ W C y d G K K p < : k ~ ] ] ] Y.",
"U.U.U.U.U.U.T.U.).).).Y.U.U.U.T.U.Y.Y.] Y.U.E.^.W.E.Y.' ] _ ! n c e 7 B.}.3X4X-X#.4 z ( ` ` ^ m C V H w.t.a.t.L p : k ~ ` Y.Y.Y.",
"U.U.U.U.Y.T.Y.T.).).Y.Y.U.U.U.U.Y.Y.] U.U.E.^.(./.W.U.U.] / E l * 6 B C.3XqXuX1X=.x h N _ / n l 2 t J i.f.k.C.L p 1 n / Y.Y.Y.Y.",
"U.U.U.U.U.U.E.U.U.U.U.U.U.U.).Y.Y.).).).W.!.(.`.(.^.W.T.Y.) b > . 6 >.D.8XhXjXeX#XY o b E T h @ # r H w.s.h.t.P S m W _ ` T.` U.",
"U.U.U.U.U.U.U.U.U.U.U.U.U.U.] Y.] ).).W.^.(.(.(.(./.^.^.E._ v , 5 8 >.D.qXkXkXeX#Xh X o h h ; + $ 0 r G L r.P D m Q / ` ).U.U.T.",
"U.U.U.U.U.U.U.U.T.U.T.).T.Y.] ] ] T.!./.`._./.^./.(.(./.!._ v : . 6 >.A.8XaXfXeX#X3 O O $ : : @ & & w e e p Z m ^ @.] Y.U.U.U.` ",
"U.U.U.U.U.` _ ` ` U.Y.).@.Y.Y.] T.T.!./.`.`./.^./.~.`.(.!.@.T 1 5 7 7.C.@XqX0X,XF.S q q V A A S a A S p < @ h T _ ).).).T.U.U.).",
").Y.Y.Y.` N M N / @.Y.).Y.Y.Y.` Y.E.W.^././././.^.~.~./.W._ n 1 0 8 7.h.D.OX+X|.V.t.r.w.t.t.t.t.t.t.r.K i - % T ` Y.T.).Y.Y.).U.",
"Y.Y.Y.@.^ n l z m _ ).).Y.Y.Y.U.] ).).E.W.^./.(.(./.^.W.E._ b > = s 7.e.h.j.Z.Z.A.k.k.Z.k.Z.Z.k.A.G.Z.t.K < > M _ U.U.).Y.Y.).Y.",
").U.` _ W m Z Y R ^ _ ` ` ).U.U.T.Y.] ).E.W.(.(.(.^.E.).] _ T > = G 7.1.3.3.y.g.x.n.H.G.k.j.k.b.n.n.b.h.r.A i n ! _ ` ).U.U.U.U.",
"U.` ^ n R  .&.&. . .W ^ ` U.U.U.U.] ] ] ] E.!./.^.W.T.] ] / T > = u 7.1.,.,.2.p.v.m.A.C.t.t.a.f.z.v.z.f.e.J V Z m ! / ` U.T.U.U.",
"T.( n z  .-.&X&X*. .z M _ U.U.U.U.U.Y.] ] U.E.E.E.U.U.U.] _ T 1 = d 7.1.,.,.4.l.v.n.C.r.K G 8.i.p.p.p.i.y.0.H y 2 z Q _ ` ).).T.",
"_ ! n { *.=X<X,X&X| 1 n ( U.U.U.U.U.U.U.Y.U.U.U.U.U.U.` @.! v = 7 d >.<.,.,.3.6.c.x.a.L y t H q.5.6.5.3.1.>.d 7 # $ k Q _ ` ` U.",
"! R X.*.=XrXyXeX*X..$ j ( T.U.U.U.U.U.U.U.U.] Y.U.U._ ( N m C r 8 B <.:.:.:.2.6.l.l.s.w.H H >.y.6.6.6.3.>.9 6 .     % v W ^ _ ).",
"v { &.=XrXfXgXtX=Xo.> j / U.U.U.U.U.U.U.U.U.U.` Y.U._ M z c V 9 >.<.<.,.,.,.3.p.l.c.x.k.s.a.p.g.z.v.l.i.7.7 0 O O O - > z W _ T.",
"3 } F.;XtXkXlXsX=Xo.$ f N ` ` _ ` ` Y.T.U.U.U.Y.U.` _ n 1 p L r.a.s.h.a.h.h.Z.G.K..X.X.X.X X.X.XoXoX.XD.V.O.| { { { Z < , v ^ ` ",
", S #.-XuXhXlXfX>X$.+ o h M Q Q Q _ ` T.U.Y.T.).U.U._ k , Z O.S.}.OX}.}.}.|.+X3X5X8X7X7X7X7X6X7X7X7X6X3X-X=X*X*X*X$X&.| , g ! ` ",
"@ p L S.3XpXkXfX>Xo.+ X o g g g k W _ ).U.T.U.` U.U.( j , | =.|.;X4X4X4X9X0XuXiXpXpXpXpXpXpXpXpXpXpXiXuXyXtXrXtXtX1X&X..$ > ! U.",
"& 5 8 t.OXqXuXtX>X&.= O $ * i i 2 m ! ` ` ` ` ` ` ) Q j : { =.*X;X,X,X1XrXfXgXkXhXhXlXlXkXlXkXlXkXlXlXkXjXfXdXyXfXrX*Xo.l j ~ U.",
"& 5 8 0.Z.OX5X4X-XV.K d d K P L K S D ! ! ~ Q Q Q Q b > - U $.#X%X%X*X:XwXdXkXkXkXkXlXlXlXlXlXlXlXlXlXlXgXtXeX2X0X,X[.+.m W _ ` ",
"& q 8 <.s.Z.OX}.S.C.t.t.t.t.C.h.d.P Z v k h k k k k > : - U { $.$.$.$.#X:XeXdXfXfXfXjXlXlXlXlXlXlXlXlXjXrX=X&X;.;.-.o.+.! _ ` U.",
"& y 9 9.y.u.i.h.j.G.H.H.H.H.m.m.k.t.A < - - , < , < : & @ < < i , & < } -.=X1XwXwXwXrXsXgXjXgXjXjXgXjXtX*X&.Z 1 c R  ./ ` U.` T.",
"& y H 0.3.2.2.3.p.H.XXXXXXXXXXM.k.t.a , @ @ q y y p y y y q 0 0 . . 5 e | -.$X$X%X&X=X,X<X<X<X1X1X2X2X:X*.R % o % k N ` T.U.U.U.",
"& y J 0.2.,.,.3.g.m.L.oXXXXXM.m.f.8.V : & q G J J H H H d 9 d 8 6 8 8 s A | X.X.$.o.$.&.*.=.*.*.-.;.;.*. .M N M M Q _ ` U.U.U.U.",
"1 y F 9.1.3.3.5.g.n.L.XXL.m.v.g.e.F w = q F 9.0.1.q.0.0.0.0.q.0.<.<.<.J G A i 4 U i 4 [ } } } } { { [ v M ( ` ` ` ` T.U.U.U.U.U.",
"z C u H 0.1.3.p.g.c.m.M.n.x.s.e.J t r y G J q.4.5.u.y.q.1.y.u.i.p.g.p.i.w.F a r q y u O.$.&.&.&.o.[ $ > M @.Y.Y.U.U.U.U.U.U.U.U.",
"W m C u d 9.q.i.p.p.l.z.l.p.w.H t r t F 7.0.y.5.u.y.y.3.y.u.p.l.c.v.c.x.s.t.8.7.7.w.B.F.=X>X,X:X&X.., + M ` Y.Y.U.U.U.U.U.U.T.U.",
"_ ! v 2 y H 9.y.y.u.u.i.u.0.d t w r d 9.q.3.u.y.u.y.y.q.4.p.l.b.m.J.m.n.c.x.j.f.f.A.+X9XyXyXsXtX,X-.2 % b ` U.U.U.U.U.U.U.U.U.U.",
"T./ E x C u J 7.9.9.9.9.7.H y = = y J q.5.u.u.4.4.4.4.i.p.l.c.J.L.L.J.m.n.n.n.m..X@XqXpXkXjXfXtX,X=.[ > b _ U.U.U.U.U.U.U.U.U.U.",
"` ` / E m Z u s s s s s t r = @ @ y J y.5.6.5.3.4.4.i.f.x.v.J.L.XXXXJ.J.v.v.b.H.OX6XqXhXgXsXwX>X;.X.4 > M ( U.U.U.U.U.U.U.U.U.U.",
"Y.` ' _ N v 2 w w w w = = & @ @ = y J 3.5.u.y.q.q.q.i.f.x.H.J.J.J.J.J.n.l.p.j.D.+X9XtXyXtX<X&X&.{ 4 & l M _ U.U.U.U.U.U.U.U.U.U.",
"Y.Y.Y.Y._ W v 1 1 > 1 > > : ; - = t 7.q.y.q.9.7.7.7.e.a.j.Z.Z.Z.G.H.H.v.g.e.r.V.{.>X1X<X:X#XO.p #   # l W _ Y.U.U.U.U.U.U.U.U.U.",
"T.E.).E.@.^ E T T R T R T T h : w s 7.q.0.7.9 s u d d r.r.r.r.r.t.Z.n.n.p.8.G ..%.#X#X#X=.O.K r 5 5 & 1 W _ U.U.U.U.U.U.T.U.U.U.",
"E.W.^.W.E.` _ / / / _ _ / ! T > = s 9.0.9.d y < w w p a p p i y L d.G.x.h.L p 2 U { X.{ | K d 9 9 r = 1 E _ U.U.U.U.U.U.U.U.U.U.",
"E.^.(./.W.Y.Y.' ] ] ] Y.)._ W g = u J 7.J y = - @ - @ @ @ + + @ a r.C.C.r.A $ - ; : ; + & y J 8.J u w g E _ U.U.Y.T.U.T.U.U.U.U.",
"W.(.].`.Q.U.Y.) ) ' U.U.) U.N f < y d G u i : - - - - - + X X + 4 K N.N.O.S : ; f h % O O w G J L A < 3 E _ Y.Y.U.U.U.U.U.U.U.U.",
"W.`.].`.!.U.) ) ) ) ) U.N U.M f & i p a i < : - : : : : + + X + , S O.O.| i % g b b j % @ i S O.S S < l M _ ` Y.U.U.U.U.U.U.U.U.",
"W.~.].~.!.U._ ) ) U.( U.( N b 1 : , , 2 < , : , : 4 U , $ $ $ $ 3 i { { i 4 $ z b N M j < 4 [ { [ 4 , 1 M _ ` U.Y.U.U.U.U.U.U.U.",
"E.(.'.(.R.` ( ( ( N N N N N b & : , : : 3 > l l 4 , 4 : l z g z g Y 4 U 3 , , l N N N n z 3 c U 4 3 , 1 n ~ ' ` U.U.U.U.U.U.U.U.",
"W.(.'.^.W._ ( I I R.N N ~ N j > & $ : : g j M j , , 1 l n n N M n x > : : , : l N ~ N N M v l 3 3 , & > v Q _ _ ` ` U.U.U.U.U.U.",
"E.(.'.^.W.R.@.P.P.P.P.( ~ N n l & $ : : z M N M x 1 > z N N N N E v 3 : $ $ 1 z M N ~ ~ N M k : , : , l n Q _ ( ( ( ` ` U.U.U.U.",
"W.(.'.(.W.R.P.I.P.P.I N ~ T M z l l g z n N N N n z v M ~ N ~ ~ Q M z g g l j b N N N ( ~ N n j > l l v M ~ ( ( ( _ ` U.U.U.U.U.",
"E.(.'./.W.W.Q.I.I.I.@.~ ~ Q Q M n M n M N N ( N N M M Q ~ ~ ~ ~ ~ Q M n M M M N N ( N ~ ~ ~ N M M M M ! ~ ( _ ( ( ` ` U.U.U.U.U.",
"U.^.~./.W.W.^.~.I.I.R.N U.( ) ~ ( ( ~ N ~ ( N ( N N N ~ ~ ( ( ~ ~ ~ ~ ~ ~ N ( ~ ~ ( ( ( ( ( ( ( ( ( _ _ ( ` ` U.U.U.U.U.U.U.U.U.",
"U.^.^.I.W.W./.`.].'.^.E.U.U.Y.U.Y.Y.U.U.) U.` ` U.) U.( _ _ ( ( _ ` ` ( _ ` ` ` ` U.` ` ` U.` U.U.U.U.U.U.U.U.U.U.U.U.Y.Y.U.U.U.",
"U.W.U.U.U.W.(.'.].~.^.E.Y.) Y.Y.U.U.U.U.U.U.U.U.U.U.U.U.U.U.U.U.U.U.U.U.U.U.U.U.T.Y.U.U.U.U.U.U.U.U.U.U.U.U.U.T.U.U.U.Y.Y.U.T.U.",
"U.U.U.U.U.W.^.'.'.(.W.U.Y.Y.' Y.E.U.U.U.U.U.U.U.U.U.U.U.U.U.U.U.U.U.U.U.U.U.U.U.U.U.U.U.U.U.U.U.U.U.U.U.U.U.U.U.U.U.U.U.Y.U.U.Y.",
"U.U.Y.Y.U.U.W.I.^.^.U.U.Y.Y.Y.Y.U.U.U.U.U.U.U.U.U.U.U.U.U.U.U.U.U.U.U.U.U.U.U.U.U.U.U.U.U.U.U.U.U.U.U.U.U.U.U.U.Y.).).U.T.U.Y.U.",
"U.U.' Y.U.U.U.W.W.W.U.Y.Y.Y.' Y.U.U.U.U.U.U.U.U.U.U.U.U.U.U.T.U.U.U.U.U.U.U.U.U.U.U.U.U.U.U.U.U.U.U.U.U.U.U.).U.).Y.Y.U.U.U.U.U.",
"Y.Y.Y.Y.U.U.U.U.U.U.Y.Y.Y.Y.Y.Y.U.U.U.U.U.U.U.U.E.U.U.U.U.U.U.U.U.U.U.U.U.U.U.U.U.U.U.U.U.U.E.Y.U.U.U.U.U.U.Y.T.U.U.U.U.U.Y.U.U.",
"Y.Y.Y.Y.U.U.U.U.U.U.Y.Y.Y.Y.Y.Y.U.U.U.U.U.U.U.U.U.U.U.U.U.U.U.U.U.T.U.U.U.U.U.U.U.U.U.U.U.U.U.U.U.U.U.U.U.U.U.U.U.U.U.U.U.U.T.U."
};
