/* XPM */
static char *result[] = {
/* columns rows colors chars-per-pixel */
"64 64 233 2 ",
"   c #29201B",
".  c #1B262B",
"X  c #1A3126",
"o  c #272924",
"O  c #252B2C",
"+  c #2B2D2D",
"@  c #372A22",
"#  c #332F29",
"$  c #25352D",
"%  c #2D332E",
"&  c #34332D",
"*  c #3D332C",
"=  c #36392E",
"-  c #282E31",
";  c #253632",
":  c #2D3332",
">  c #2D3C33",
",  c #333532",
"<  c #323B33",
"1  c #3A3A33",
"2  c #363938",
"3  c #3B3C3A",
"4  c #472C1A",
"5  c #50331D",
"6  c #673718",
"7  c #743B18",
"8  c #4C3325",
"9  c #473728",
"0  c #44352B",
"q  c #4A362A",
"w  c #4A372A",
"e  c #4C3A2C",
"r  c #543926",
"t  c #593924",
"y  c #533B2B",
"u  c #5C3D2A",
"i  c #443B33",
"p  c #4B3D33",
"a  c #623D25",
"s  c #663F27",
"d  c #27422F",
"f  c #3D422D",
"g  c #2D4334",
"h  c #2A4935",
"j  c #2E4639",
"k  c #2E4A3A",
"l  c #324335",
"z  c #334B37",
"x  c #394738",
"c  c #324C39",
"v  c #2E5439",
"b  c #33543C",
"n  c #3A553B",
"m  c #345C3E",
"M  c #7B431F",
"N  c #47412F",
"B  c #59422D",
"V  c #46463B",
"C  c #5A4334",
"Z  c #574739",
"A  c #49573D",
"S  c #604227",
"D  c #6C4126",
"F  c #64422B",
"G  c #6B442B",
"H  c #734325",
"J  c #7A4524",
"K  c #77482B",
"L  c #664935",
"P  c #714F36",
"I  c #7C5135",
"U  c #7C533A",
"Y  c #4C773E",
"T  c #393F41",
"R  c #3B4D41",
"E  c #3E5443",
"W  c #355D41",
"Q  c #395C41",
"!  c #356342",
"~  c #396544",
"^  c #366945",
"/  c #396B46",
"(  c #396E48",
")  c #3A7147",
"_  c #36724B",
"`  c #3B7449",
"'  c #3D7C4D",
"]  c #367C50",
"[  c #3A7E50",
"{  c #444442",
"}  c #464947",
"|  c #4C4D4C",
" . c #594C44",
".. c #4B524B",
"X. c #444E52",
"o. c #4C5556",
"O. c #565957",
"+. c #655448",
"@. c #725644",
"#. c #675D56",
"$. c #4A664E",
"%. c #447A47",
"&. c #4D5B61",
"*. c #525D62",
"=. c #6D6560",
"-. c #686968",
";. c #6E6F6F",
":. c #757776",
">. c #7B7C7B",
",. c #99430E",
"<. c #89461C",
"1. c #984817",
"2. c #9B4C1B",
"3. c #A24E1B",
"4. c #A4511E",
"5. c #AD531D",
"6. c #B4561D",
"7. c #834925",
"8. c #844925",
"9. c #8C4B23",
"0. c #934D22",
"q. c #9B4F21",
"w. c #8B512E",
"e. c #985227",
"r. c #9B562C",
"t. c #895738",
"y. c #965C39",
"u. c #A35221",
"i. c #AA5421",
"p. c #A95929",
"a. c #B35B25",
"s. c #BB5E26",
"d. c #B35E2A",
"f. c #A55E33",
"g. c #9B613E",
"h. c #B7612C",
"j. c #BB622C",
"k. c #AA6339",
"l. c #AB653B",
"z. c #B66839",
"x. c #BC6C3C",
"c. c #C7662C",
"v. c #D06B2F",
"b. c #C46933",
"n. c #C66D37",
"m. c #CC6C32",
"M. c #D16E33",
"N. c #CA733D",
"B. c #D4743B",
"V. c #DA773C",
"C. c #E57C3D",
"Z. c #906951",
"A. c #9A6E53",
"S. c #B56D42",
"D. c #AF7450",
"F. c #8A796F",
"G. c #C77644",
"H. c #D37842",
"J. c #DD7D44",
"K. c #E27E42",
"L. c #3F824F",
"P. c #3E8150",
"I. c #42844E",
"U. c #4A8549",
"Y. c #46884D",
"T. c #4C8C4C",
"R. c #538A45",
"E. c #518E4A",
"W. c #5D9545",
"Q. c #5E9A47",
"!. c #54934A",
"~. c #599649",
"^. c #5C9948",
"/. c #408350",
"(. c #619A46",
"). c #629D46",
"_. c #65A145",
"`. c #69A345",
"'. c #7D847E",
"]. c #B98668",
"[. c #B68D74",
"{. c #C58158",
"}. c #D88858",
"|. c #E48247",
" X c #E38C56",
".X c #C58A65",
"XX c #CF9673",
"oX c #DF9F78",
"OX c #747D82",
"+X c #7B868B",
"@X c #7E8C92",
"#X c #87898A",
"$X c #988F8A",
"%X c #878E91",
"&X c #8C9498",
"*X c #979898",
"=X c #AC9A8F",
"-X c #B0A49C",
";X c #98A7B0",
":X c #A7A8A8",
">X c #B0ADAA",
",X c #A7AFB3",
"<X c #B1B2B2",
"1X c #BBBBBC",
"2X c #C3A796",
"3X c #D5AA90",
"4X c #E9AF8D",
"5X c #EFB28D",
"6X c #F3B48E",
"7X c #CEBCB1",
"8X c #E7BBA2",
"9X c #D7C6BA",
"0X c #EDC8B2",
"qX c #B7BDC0",
"wX c #BEC2C6",
"eX c #C5C7C8",
"rX c #D5CECB",
"tX c #CACED1",
"yX c #CED3D6",
"uX c #D8D9D9",
"iX c #E9D3C5",
"pX c #F5DAC9",
"aX c #FCDDCA",
"sX c #EBDCD5",
"dX c #E7E1DD",
"fX c #DDE1E3",
"gX c #DEE9F0",
"hX c #E7E9EA",
"jX c #F2EFEC",
"kX c #EBEFF1",
"lX c #F7F8F7",
"zX c #FEFAF6",
"xX c #FEFEFE",
/* pixels */
"L.I.L.L.L.L.L.I.P.L.L.L.L.' ' ' L.L.L.L.L.L.L.L.L.L.L.I.L.L.L.L.L.I.I.P.L.L.L.L.L.I.P.L.L.L.L.L.L.L.L.L.L.L.P.P.L.L.Y.Y./.Y.P.P.",
"L.P.P.P.L.L.L.L.L.L.I.P.L.L.' L.L.L.L.L.P.L.L.L.L.L.L.L.L.L.P.L.L.L.L.L.L.L.L.L.L.L.L.L.L.L.L.L.L.L.L.L.L.P.[ [ L.L.Y.E.E.T.Y.Y.",
"L.P.P./.P.L.L.L.L.L.L.L.L.L.L.L.L.L.P.P.P.L.L.L.L.L.L.L.I.L.L.L.P.L.L.L.L.P.L.L.L.L.L.L.L.L.I.L.I./.[ I./.Y.L.L.L.I.T.~.^.~.T.Y.",
"L.I.P.L.I.P.P.P.P.P.L.L.L.L.L.L.L.L.L.L.L.L.L.L.L.L.P.L.P.L.L.L.L.L.L.L.L.P.Y.L.P.L.L.L.L.L.P.L.[ [ [ I.Y.E.T.Y.L.Y.E.~.).).!.Y.",
"L.L.L.L.L.P.P.P.L.L.L.L.L.L.L.L.L.L.L.L.P.L.L.L.L.L.I.P.L.L.L.L.L.L.P.I.L.L.L.L.L.L.L.L.L././.[ P.[ P.P.E.~.~.!.T.T.!.^._._.^.Y.",
"L.L.L.L.L.P.P./.L.L.L.L.L.L.L.L.P.L.L.L.L.L.L.L.P.I.L.L.L.L.L.P.L.L.L.P.P.P.P.P.L.L.P.I.L././.P.[ [ ' Y.!.Q.Q.~.T.T.!.^._._.^.T.",
"P.L.L.P.L.P./.P.P.P.L.L.L.L.L.L.I.L.P.L.L.L.P.L.L.L.L.L.L.L.L.I.L.L.P.P./.P.P.P.P.L.L.L.L.I./.P.[ [ [ I.!._._.^.!.T.!.^._._.~.Y.",
"I.L.L.L.L.L.L.L.L.L.L.Y.L.L.L.L.L.L.L.L.L.I.I.L.L.L.L.L.L.L.L.L.L.L.I.P.P./.P./.I.L.L.L.L.P./.[ [ [ [ I.!._._.Q.!.T.T.!.).).~.Y.",
"L.L.L.P.L.L.L.L.L.L.L.L.L.L.L.L.L.L.L.L.L.L.I.L.L.L.L.P.L.L.L.L.L.L.L.L./ n f & = = l W ` %././.' ] ' I.W.(._.W.E.Y.Y.E.!.~.E.Y.",
"L.L.L.L.L.L.L.L.L.L.L.L.L.L.L.L.L.L.L.L.P.L.P.[ P.P.P.I.I.L.L.L.I.P.L.` ^ c & & # % < m ` /./.[ [ ] ] %.R.W.W.W.E.U.%.U.T.T.T.Y.",
"L.L.L.L.I.P.I.P.L.L.L.L.L.L.L.L.L.L.L.L.L.L.P.[ [ P./.I./.L.P.L.L.L.` / m f 4 8 4 # < b ` [ P.P.P._ ( ^ Y Y Y Y Y / / ' /./././.",
"L.L.L.L.L.L.P./.L.L.L.L.L./.L.L.L.L.L.L.L.L.[ [ [ P.[ P.I.L.I./.L.` ! c f r 6 6 r * < b ` %./.P.[ ( m k z g n x c c n / ] P.%./.",
"L.L.L.L.I.P.I.' /./.L.P.L.L.L.L.L.L.L.L.P.P.P.P.[ [ P.P.P.P.' P.' / b 1 B K t.w.G 0 > b ` P.[ %.` Q x 1 1 1 1 1 , , l W _ [ [ %.",
"L.L.L.L.[ I.P.I././././.L./.L.L.L.L.P.] P.P././.Y./.P.[ P.' ' ) ^ b f N U A.D.D.Z.V l m ` /.' ` ~ n N u G P L C i , < W _ [ [ P.",
"L.L.L.L.L.L.I./././.L.L.L.L.L./.L.L.] P.' L.T.E.T.Y.L.[ [ ] ) ! n f 9 K A.XX2X2XF.| < m ` L.` ! n N F 7.r.y.y.I C , > W _ P.P.P.",
"L.L.L.P.L.I.P./././.P.P./.L.L.L.L.P.P.P.I.Y.!.~.~.T.I.' [ ' ~ c & 4 6 w..X8XsXrX&Xo.< v ` ` ! c = e D 0.d.b.x.y.L i j W [ P.P.P.",
"L.L.P.L.L.L.L.L.' ` ) ) ` I.L.L.[ P.P./.Y.!.~.).^.!.T.Y.L.L.! j @ 4 6 r.oX0XlXgX;X&.; d W W W ; + 0 a 7.p.k.k.t.A V b ~ ' %.P.P.",
"L.L.L.L.L.L.L.L.` W b m / L.L.L.P.L.Y.T.!.^.^.^.^.^.!.T.T.L.! j # 4 6 p.XXaXxXkX;X&.X X ; h ; O o # 8 t G t.I L A ~ / ` [ I.L.P.",
"L.L.L.L.L.L.L.L.~ b g z m ` ' L.L.I.T.~.(.(.~.!.^.^.^.^.T.I.! k # 4 6 f.XX0XjXfX;X*.& o X : , , # , * 0 w p V x ~ ` [ ' /./.P.L.",
"L.L.L.L.L.L.` ) E n { } ..^ ) ` ' I.E.~.).(.~.!.!.^.).^.!.I.! k = 4 6 y.G.4X0X7X=X#.N 8 y C Z y C C C p i # ; k / %././.L.' L.L.",
"P.I.P./.L.' ! b R O.-.=.$.n m ^ ' I.Y.!.~.^.~.!.~.^.^.!.T.P.! k & 8 7 w.S..XXX=XD.Z.t.w.y.y.t.y.t.y.y.U Z , - h ( P.P./.P./.P.I.",
"L.P././.L./ z x O.>.&X#X-.} z m ` P.Y.Y.E.!.^.^.^.~.!.T./.P.! h = 8 H 0.p.f.S.S.D.S.x.S.x.S.n.S.S.G.S.f.t.p , h ~ ' I././.P.P.P.",
"L.L.[ ` ( ! n o.>.:X<X:XF.} > v ` ' P.P.I.T.~.^.^.!.Y.P.P.P.^ R : w D 0.3.3.4.i.c.B.H.G.G.z.z.N.B.V.B.x.y.G p x m ( ' [ L.L.L.L.",
"L.' ` ~ Q E O.>.,XyXuX1X#X| % v _ P.[ [ P.Y.!.~.!.Y.L.P.P.' ^ k > w H 9.1.3.,.3.c.B.H.S.y.t.y.d.b.v.m.b.p.9.G C n n ~ ` I.L.L.L.",
"L.' ^ b x | ;.*XyXkXkXeX%X..$ v ) L.L.P.P.L.I.T.I.L.L.L.P.[ ^ k , e D <.2.3.,.6.c.B.N.g.P F K w.a.s.s.a.i.q.<.B e l b ^ ' I.L.L.",
"I.` m g , O.F.>XdXxXzXyX&XX.> v ` L.L.L.[ L.L.L.L.L.L.L.%.` W x * t M <.2.,.1.6.c.v.z.w.F y 6 8.3.5.5.3.2.1.M 6 4 # > m ( ` ' L.",
"P.%.W > , Z Z.=XiXxXxXuX&Xo.d v _ L.L.L.L.L.L.[ L.L.' ) / n x N t 7 <.,.,.,.,.5.s.c.z.r.K 7 7.q.5.6.6.5.2.M 6 4     . g E ~ ) %.",
"P.` ! g & y U D.4XsXxXyX&X..$ v ` L.L.L.P.L.L.P.L.L.L.^ m x N S M 1.1.1.1.,.1.5.s.m.N.n.k.f.f.j.c.v.v.h.e.H 8 @ o o O % g b / [ ",
"P.' ! j # 5 7 y.XX0XaXrX*XO.l z ^ ' [ /.P.I.L.' L.L.' ! h = C I g.l.z.k.k.k.l.S.G.}.}.}.}.}.}.}. X X X{.D.=.+.| | | } 3 , l m ` ",
"L.' ~ j # 4 7 0.G.oX8X3X[.Z.B x b ^ ` ' L.L.I.L.L.L.L.! g 1  .Z.].]..X].].[.XX3X3X4X6X6X6X6X4X5X6X6X5X4X2X=X&X#X%X#X:.O.3 % b ` ",
"L.' ~ j * 5 7 2.z.}.XXoX{.D.U Z x v ~ ' P.I.L.L.L.L.' m g 1 +.F.=X2X2X-X2X7X9XiXiXpXaXaXaXaXaXaXaXaXaXpXiXrXeXeXtXeX*X;.V % b ` ",
"L.` ! k & 8 H 0.h.N.J.|.|.H.l.t.B l b ( ' ' ' ' _ L.` m > < O.OX*X-X,X,X9XrXhXlXlXzXzXzXzXzXzXzXzXxXzXzXlXhXhXhXhXuX<X:.V g m ` ",
"/.[ ! j & q J 0.a.c.v.C.C.K.H.l.t.L A m ~ ! ! ! ! ! W k ; : X.;.+X%X@X&X;XtXkXxXxXxXxXxXxXxXxXxXxXxXxXxXlXfXtX9XwX<X*X-.E m ~ ` ",
"/.` ! j & r H 0.6.c.v.V.C.K.H.H.l.t.Z V k j j z k j j > ; - T X.*.o.&.-.+X,XyXgXgXhXhXlXxXxXxXxXxXxXxXxXfX>X#X'.>.>.-.$./ ( ' L.",
"%.[ ! j & r J e.s.c.B.J.K.K.K.K.H.l.I e ; % + & , = * # , , * 2 3 , , V O.+X;X1XqXqXwXyXhXkXkXkXkXlXlXhX<X'...l < x E ~ ` ' ' I.",
"/.` ! g & r J q.j.M.J.J.J.K.K.C.B.z.I i + + * y y y w y y y 8 8 4 4 4 @ Z #.:.+X+X+X%X*X:X>X>X<X<X<X1X:X'.o.l $ $ d b ( I.L.L.L.",
"/.` ! l & 8 J q.j.M.J.J.K.J.K.V.m.f.G i # * y s J J H H s H 7 a 6 6 6 6 u  .O.o.&.&.*.-.-.;.;.;.;.:.>.;.O.~ m m m m ( ` L.L.L.L.",
"/.' ! j = r H 0.d.c.B.J.J.V.B.b.d.9.a 9 0 y H 0.q.q.0.0.0.0.0.0.<.1.<.9.J F p 3 T i i { } | | | | | } { E ~ ` ` ` ' %.' L.L.I.L.",
"/.[ ( E x N u J r.h.m.V.V.B.z.p.9.D r 8 u D 9.u.i.i.u.u.2.u.4.p.a.s.s.d.r.w.s y 8 8 p  .#.#.#.-.#.| 2 % z ( L.L.L.L.L.L.L.L.L.L.",
"I.[ ` ^ Q x V s K r.h.c.m.c.p.w.F t t a H 9.q.i.5.i.4.q.u.4.a.s.b.m.m.b.z.f.w.8.8.8.t.A.$X*X:X:X*X;.{ O d ^ L.L.L.L.L.L.L.L.L.L.",
"[ I.' ' ` W x i u 7.e.a.a.i.9.s e 9 y H 0.u.u.u.3.u.u.u.u.u.d.b.B.H.J.B.m.n.x.s.h.S.G.3X7XdXdXfXeX$XO.% d ^ ' L.L.L.L.L.L.L.L.L.",
"I.[ P.P.' ( W l N S J 9.0.8.s w # 0 u 7.u.5.5.u.u.u.4.u.p.s.b.B.J.K.K.J.J.B.B.B.J.}.4XiXjXlXhXfXwX%XO., z ! ' P.L.L.L.L.L.L.L.L.",
"[ P.[ [ ' ' ^ W z N t a S t 8 # + * a 9.i.6.i.5.u.u.u.a.s.b.B.K.K.K.K.J.B.M.m.H.J.3X8XpXjXjXtX<X&X-.} > z ! ' I.L.L.L.L.L.L.L.L.",
"%.P.] P.[ ' ' ` Q x 1 * 9 * & + + 0 F 9.4.i.4.q.q.q.u.d.b.H.H.J.K.J.K.J.M.s.d.S.].2X7XrXrXwX*X:.O.R = % z ~ ' L.L.L.L.L.L.L.L.L.",
"P.P.P.P.L.L.L.' ( W l > > ; ; - , 0 G 9.u.q.q.9.8.8.9.r.f.l.S.S.S.H.H.B.c.i.e.t.F.$X;X,X,X%X;. .0 @   & c / ' /.L.L.L.L.L.L.L.L.",
"L./.Y./.I.L.L.P.' ^ W R W W R h : 9 D 0.q.0.J s t a s K t.t.t.t.t.S.G.N.b.p.K L #.;.OXOX:.=.@.s 5 4 @ & c / ' P.L.L.L.L.L.L.L.L.",
"Y.E.E.E.Y.L.L.P.' ' ` ` _ ^ W k , 9 D 9.0.J a 9 0 * 0 p p p i i p t.S.G.z.w.u i 2 R X.X.|  .s s 7 a 8 , b ^ L.L.L.L.L.Y.L.L.L.L.",
"Y.~.Q.~.T.L.P.] ] P.' P.P.P./ W < 9 F 7.7.G w & - - + # + + O O * L y.S.l.@.p - - - : - - 0 u 7.9.s y , k ^ L.L.L.L.L.L.L.L.L.L.",
"T.Q.`.).T.L.P.P.P.P.L.L.L.L.) v < * y L G y * + - ; : - O O . . + p U Z.t. .1 - $ > > $ o # y K I G p 2 c / ` P.L.L.L.L.L.L.L.L.",
"T.Q.`.).!.L.P.P.] ] L.L.L.L.) m < & i p p i , - - : - T ; O . . - 2  .+.+.Z , ; h v v g O & p  . .Z i 2 z ^ ' I.L.L.I.L.L.L.L.L.",
"T.^.`.).!.L.P.P.P.P.] ] ` ` ^ v , , , 2 2 , , : , : 2 : , : % $ , 3 { } } T , > v m m b < < 3 } } { 3 , l ! ` L.L.L.L.L.L.L.P.I.",
"Y.^._.^.!.L.L.L.P.P._ _ ) ^ m l , : , : , , l l 2 2 2 2 < l z l j 2 2 T T 2 , < z m W m c l 2 R T 2 , , l m ` L.L.L.L.L.P.L.L.L.",
"Y.^.).^.T.Y.T.T.R.U.%.) ^ ^ m g % # : : % l z z g , , < l b v b b j < : , : , : z m m m m h z 2 2 , , % l m ) ` ' L.L.L.L.L.L.L.",
"T.^.).^.T.T.T.~.W.R.Y ) ^ ^ m z < % : + > z v m k 2 : l c m m m m b j : : % % < z m m m m m z < : : : < l W ` ` ' L.L.P.L.L.P.I.",
"T.^.).^.T.T.~.).Q.R.Y ) ^ ^ ! b l l l g z b m m b z g z b W m ! m b c l g > < j v m m m m m v z 2 < l l n ! ` ` L.L.L.I.L.L.L.L.",
"Y.^.).^.!.T.~.).`.W.U._ _ ^ ! m m b c z b m m m m m b b m m ! m ! m m c z b z v m m m m m m m m b W W W ~ ( ` ' L.L.L.L.L.L.L.L.",
"Y.~.Q.!.Y.E.!._.`.(.R.I.` ) _ ) ^ ^ ^ ^ ^ ^ ^ ^ ^ ! ! ! ! ! ! ! ! ! m ! ! m m ! ! ! ! ! ^ ^ ) ) ` ` ` ` ` ` ' L.L.L.L.L.L.L.L.L.",
"I.T.!.R.Y.E.~._.`._.!.Y.L.] ] L.L.L.' ' ' ) ` ) ) ) ) ) ) ) ) ) ) _ ) ) ) ) ) ) ` ` _ ) ) ' ' L.L.L.L.L.L.L.L.L.L.L.L./.P.I.L.L.",
"I.Y.Y.I.Y.T.~._.`.Q.!.I.L.] L.L.I.L.L.L.I.L.L.' L.L.' ' L.' L.' ' ' L.' ' L.L.L.L.P.L.L.L.L.L.L.L.L.L.L.L.I.I.P.L.P./.P.P.L.L.L.",
"L.L.L.L.L.Y.~.Q.Q.W.E.L.] ] ] L.L.L.L.L.L.L.L.L.L.L.L.L.L.L.L.L.L.L.L.L.L.L.L.L.L.L.L.L.L.L.L.L.L.I.L.L.L.P.L.L.L.P.P././.L.L.L.",
"L.' [ ] P.L.E.!.~.!.T.L.L.[ L.L.L.L.L.L.L.L.L.L.L.L.L.L.L.L.L.L.L.L.L.L.L.L.L.L.L.L.L.L.Y.L.L.L.L.L.L.L.P.L.L.L.P./.P.P.L.P.L.L.",
"L.[ ] [ L.L.I.T.T.Y.I.L.L.L.[ L.L.L.L.L.L.L.L.L.L.L.L.L.L.L.L.L.L.L.L.L.L.L.L.L.L.L.P.L.P.L.L.L.L.L.L.L.L.L.L.L.P.P./.L.L.I.L.L.",
"L.L.L.' P.L.L.L.L.L.L.P.L.L.L.L.I.L.L.L.L.L.L.L.L.L.L.L.L.L.I.L.L.L.L.L.L.L.L.L.L.L.Y.L.L.L.L.L.L.L.L.L.L.L.L.L.I.L.L.L.P.L.L.L.",
"L.L.L.L.L.P.P.[ [ P.P.L.L.L.L.' L.L.L.L.L.L.L.L.L.L.L.L.L.L.L.L.L.L.L.L.L.L.L.L.L.L.L.L.L.L.L.L.L.L.L.I.I.L.P.L.L.L.L.L.I.L.L.L."
};
