/* XPM */
static char *result[] = {
/* columns rows colors chars-per-pixel */
"64 64 148 2 ",
"   c #111F2B",
".  c #12242B",
"X  c #152C2D",
"o  c #182D2D",
"O  c #15332B",
"+  c #19342E",
"@  c #16392B",
"#  c #1A3C2D",
"$  c #162731",
"%  c #172B31",
"&  c #192E32",
"*  c #173030",
"=  c #1B3433",
"-  c #1D3A33",
";  c #1F3A38",
":  c #213E35",
">  c #213C39",
",  c #1D422D",
"<  c #1E4A2D",
"1  c #1E4132",
"2  c #1E4C33",
"3  c #20472F",
"4  c #214A2F",
"5  c #20502D",
"6  c #224435",
"7  c #284737",
"8  c #244C32",
"9  c #284F34",
"0  c #244539",
"q  c #264B3A",
"w  c #284E3B",
"e  c #265132",
"r  c #295534",
"t  c #255937",
"y  c #2D5A35",
"u  c #26533C",
"i  c #2B543C",
"p  c #2E5B3E",
"a  c #305E37",
"s  c #315739",
"d  c #315D3D",
"f  c #2E613F",
"g  c #316037",
"h  c #33633C",
"j  c #39653E",
"k  c #37693B",
"l  c #3B6C3C",
"z  c #3E713D",
"x  c #416F39",
"c  c #457237",
"v  c #4A7937",
"b  c #42743E",
"n  c #487738",
"m  c #43783E",
"M  c #4A7B3A",
"N  c #2A4C41",
"B  c #2C5641",
"V  c #2E5C41",
"C  c #315E41",
"Z  c #2E6340",
"A  c #326542",
"S  c #396540",
"D  c #356B45",
"F  c #3B6B41",
"G  c #346649",
"H  c #356E49",
"J  c #377146",
"K  c #3D7244",
"L  c #3F7946",
"P  c #367249",
"I  c #39744A",
"U  c #37784E",
"Y  c #3C7C4D",
"T  c #377B51",
"R  c #3B7E50",
"E  c #427542",
"W  c #457A43",
"Q  c #497E43",
"!  c #447D49",
"~  c #4D813D",
"^  c #518037",
"/  c #518239",
"(  c #578B3D",
")  c #5D943E",
"_  c #3F824F",
"`  c #3F8250",
"'  c #468045",
"]  c #4D8345",
"[  c #4F8947",
"{  c #43844E",
"}  c #4A844A",
"|  c #47884D",
" . c #4C8B4C",
".. c #518645",
"X. c #548A46",
"o. c #5A8B47",
"O. c #528748",
"+. c #548D49",
"@. c #598D48",
"#. c #4F944F",
"$. c #579145",
"%. c #5A9343",
"&. c #5E9A46",
"*. c #54924A",
"=. c #5B954A",
"-. c #5D994B",
";. c #408450",
":. c #529451",
">. c #599750",
",. c #559951",
"<. c #5B9D53",
"1. c #619D46",
"2. c #619D4D",
"3. c #609F50",
"4. c #5DA255",
"5. c #5FA856",
"6. c #5EA758",
"7. c #66A145",
"8. c #65A24E",
"9. c #68A54F",
"0. c #68A84F",
"q. c #63A452",
"w. c #68A550",
"e. c #63AA55",
"r. c #6CAC52",
"t. c #62AB58",
"y. c #71AE52",
"u. c #79AF50",
"i. c #6FB053",
"p. c #73B253",
"a. c #79B553",
"s. c #77B955",
"d. c #7CBA54",
"f. c #7FC055",
"g. c #81B050",
"h. c #84BD54",
"j. c #85C155",
"k. c #8CC354",
"l. c #8CC957",
"z. c #92C554",
"x. c #95CA55",
"c. c #99CC54",
"v. c #96CF58",
"b. c #9CD257",
"n. c #9CD358",
"m. c #A2D657",
"M. c #A0D458",
"N. c #A5D958",
/* pixels */
"_ _ _ { _ _ _ _ _ _ ` ` _ _ _ L _ _ _ _ _ _ _ _ _ _ _ _ _ _ _ _ _ _ _ _ _ _ _ _ { _ Y { ` _ _ _ _ _ _ _ _ _ _ ` _ _ { { | { { _ ",
"_ ` ` ` _ _ _ ` _ _ ` ` _ _ _ _ _ _ _ _ ` _ _ Y Y I I J I I P I I I I U Y Y Y Y Y Y _ Y _ _ _ _ _ _ _ ` _ _ Y ` U _ | #.#. .| { ",
"_ ` ` ` _ _ _ ` _ _ ` ` _ _ _ _ _ _ ` ` ` _ I J D G D G G A G A A A A D D P I I U Y Y Y ! ` ` ` _ ` _ _ _ { _ _ _ { #.*.&.=. .| ",
"_ _ _ ` _ ` ` ` ` ` ` ` _ _ _ _ ` _ _ _ _ Y P G A A Z h V d i B i i i i C A H D J J Y Y ` ` ` _ ` R R { |  .#.| { | #.%.1.1.*.| ",
"` _ _ _ _ ` ` ` _ _ _ _ _ _ _ _ Y Y Y Y Y H G A V p s B i V s B s w w w i i C A D D I Y Y Y Y { Y T _ { #.*.=.$.#.| #.&.7.7.=.| ",
"_ _ _ ` _ ` ` ` _ _ _ _ _ _ _ _ I D H D G A p i C h A G S S S S E S E S S S S A D G D I Y Y Y U U U U { *.&.1.*. .| *.&.7.7.&.| ",
"_ _ _ _ _ ` ` ` ` ` _ _ _ _ _ J G Z i i 9 9 w d j E W Q } O.o.o.o.o.o.o.O.Q Q ! E F D G D D P J U U U { *.7.7.&.*. .*.&.7.7.&.| ",
"_ _ _ _ { ` _ _ _ _ _ _ _ _ U k V q 6 : : 0 i S W +.=.3.w.9.u.u.u.g.g.u.y.w.3.=.O.W l d C A D G D P U { *.7.7.&.*.#.#.*.1.1.*.| ",
"_ ` _ _ _ _ _ _ _ _ { Y Y Y D V w : : : 7 s S Q =.e.i.p.d.j.z.v.c.c.c.z.j.s.s.e.8.$.Q k d d C A G H P ' *.7.7.&.*.|  .*.*.%.*.| ",
"_ _ _ _ _ _ _ _ _ _ Y Y P A B q 7 s s d d E Q =.q.t.p.d.j.v.n.N.N.N.M.v.l.j.s.s.i.3.=.] W F S S D G H Y +.1.7.7.$.| { |  . . .{ ",
"_ _ _ _ _ _ { _ _ _ Y U A i 0 0 s j Q } o.=.3.w.r.y.p.d.f.l.v.n.N.M.b.z.j.d.s.p.p.r.w.q.-.+.O.W I D D P } %.1.&.*.| _ _ ;.{ ;.` ",
"_ _ _ _ _ ` _ _ _ Y U Z i 1 - 7 d } -.w.y.u.y.p.p.r.i.i.s.d.k.x.v.v.z.z.h.d.a.a.p.p.p.p.p.r.w.-.[ K k D L [ %.*. .| _ Y R ` ` ` ",
"_ _ _ ` ` { ` Y I P A i 0 - 0 d W =.r.s.j.h.j.d.a.p.p.y.y.a.h.h.h.z.z.z.h.h.g.d.d.d.d.j.s.s.s.r.-.[ K D F ! } } | _ U ` T T Y ` ",
"_ _ _ _ _ _ _ Y H V B 7 1 0 s E [ q.s.j.l.l.l.k.h.s.p.p.y.y.y.d.h.h.z.h.z.h.h.h.k.h.j.h.f.f.s.p.0.-.] E F H I Y Y U _ U R R ` ` ",
"_ _ _ _ ` ` { Y G i > : 0 d F  .,.e.a.j.l.l.z.z.h.d.a.y.r.r.y.a.h.h.z.z.z.h.z.z.z.k.k.h.s.s.s.p.y.0.-.] K H D H U Y Y _ _ U _ _ ",
"_ _ _ _ ` ` ! U A 7 + = w F | ,.q.e.p.h.k.z.x.x.k.h.a.p.t.r.r.i.h.h.z.c.c.c.c.c.x.z.k.d.p.p.i.p.p.p.8.*.E D Z D J I _ _ _ _ _ _ ",
"_ ` _ _ _ _ _ _ Z ; o = i ! ,.6.t.e.p.h.z.x.c.x.z.h.a.i.r.r.r.i.a.h.z.z.c.c.c.c.v.z.k.d.p.p.i.p.p.i.0.%.W j C A H U _ _ ` _ _ _ ",
"` ` ` _ _ _ _ L V - % : d } ,.t.e.e.r.d.h.x.z.z.h.h.a.i.r.q.r.i.a.h.z.x.x.x.x.x.c.z.k.h.p.p.p.p.p.p.w.=.m j d A H I Y ` _ _ _ { ",
"` ` ` _ _ _ _ J i - = 0 G | <.t.t.q.e.a.h.k.z.k.h.d.p.i.r.t.r.i.a.h.k.z.z.z.z.z.z.k.h.h.s.p.p.p.p.r.0.=.Q j d h H I ! { _ { Y _ ",
"` ` _ _ _ Y U Z w > 6 p E :.t.t.5.4.q.e.a.h.h.h.h.a.a.i.r.r.r.y.a.h.h.h.h.h.h.h.k.h.h.h.s.p.p.p.p.p.r.-.o.E A A H I U Y Y Y _ _ ",
"_ _ { _ _ Y D u 7 0 i S { ,.6.6.6.<.<.q.y.p.a.d.a.p.i.r.r.r.i.p.y.a.a.s.d.d.a.h.d.h.a.a.p.p.p.y.y.p.i.0.2.X.W F F P P Y Y Y ;.;.",
"_ ` ` _ _ I u 0 0 i A W  .,.<.6.<.6.<.<.q.r.y.r.y.y.r.r.r.e.i.r.y.y.p.y.p.p.p.p.y.y.p.y.u.y.y.p.i.p.p.0.0.2.o.W H F J P I R _ ` ",
"_ _ ` ` ` A 6 > q p F }  .:.:.<.<.<.<.6.4.q.q.q.3.w.r.r.i.i.i.i.i.i.y.i.p.p.p.y.9.9.q.8.2.w.0.y.p.p.r.r.0.9.1...E A D H Y Y Y ;.",
"_ _ ` ;.U V 6 6 7 C K } }  . .:.<.6.6.q.4.<.>.-.>.3.q.r.i.i.p.r.0.y.i.p.i.p.y.w.2.-.=.@.2.1.9.y.y.p.r.9.9.9.8.o.W S D G J U Y { ",
"_ ` _ _ U i 6 6 7 C K W ! ! !  .:.<.6.t.6.>. .+.@.=.3.w.y.p.r.y.i.r.i.i.p.y.r.q.-.o.O...X.%.2.y.y.y.2.2.=.1.=...E d A A P I { _ ",
"_ _ _ _ H i 6 - 0 C K W E K E {  .,.<.<.>.+.! ! Q O.>.3.w.r.e.r.r.r.r.i.i.r.9.2.-.@.O.O.X.=.2.2.9.w.2.o.O.O.Q W j d d G H Y Y _ ",
"_ ` ;._ D u 6 6 w d E W ! E K E ! +.:.:.+.} ! E E Q @.-.-.<.2.2.0.r.r.p.r.q.2.2.1.o.=.=.=.1.2.2.2.2.=.O.Q W F j d C A P I Y _ { ",
"{ ` ` _ P i 0 - 0 d J W ! E F E ! ! } ! ! E E E E W } O.@.@.o.2.3.0.r.0.2.2.1.=.1.2.2.9.2.2.2.2.=.=.o...E x C s V A D I Y _ Y ` ",
"` _ _ _ Y A u > 0 s S W W E K K E E ! ! W W E E E E ! Q Q O...O.=.q.w.8.2.@.+.=.2.9.r.0.0.9.2.%.o.@.@.] n S s w p A I Y ! _ R _ ",
"_ ` ` _ Y U D q 0 q d S F E E F E E W ! Q ! Q ! ! W E W E W Q ..=.-.8.2.=.@...o.=.0.r.y.0.8.2.o.X.O.X.] W S d i p D I _ ` ` _ _ ",
"_ _ _ _ Y Y I p i 0 7 i S E E W E E E Q O.+.:.:.O.} ! W E E E Q O.@.=.=.@.....@.=.2.8.8.9.2.=.X.........W E F A C A H K Y Y _ _ ",
"_ _ _ _ Y Y Y D V 6 - 7 C F W Q ! W ! O.>.3.3.3.=. .Q Q E E E W ] O.[ X.] ......o.$.=.=.=.@.X...] ....] ..Q W F A A A G I U _ _ ",
"` ` ` ! ;.Y Y I i : + : s F Q ] ] ] } *.<.q.q.q.<.+.O.Q W Q Q Q Q } ] ..] ..........X.O.X.X...X...X...X.X.X.~ ' D h V A H Y Y _ ",
"` ` ` { Y { U A i - + : s E Q ..O.O.+.=.2.3.q.3.>.*.O.Q Q Q Q Q Q ] Q ........] ..~ ] ......X.X.X.X.X.o.X.[ ] z j A p p G I Y _ ",
"` ` { R ;.Y H i 6 + # 7 d E Q ....X.@.+.-.-.-.=.+.O.O.O.Q O.........] ] Q ....] ..] ~ ....O.X.X.X.X.o.X.] ] m l f p i V A I _ _ ",
"_ _ R { ;.P i - - + - 9 g E Q ..] ..] O.@.O.X.o.O.O.Q O.Q Q Q ....] ] ............] ....~ ] ] ....X.X...~ m k y r i i p D P Y { ",
"_ _ _ Y ;.A - = o @ , 8 f l m Q } ..Q W W W Q ....] m W b b W W Q Q ..X.X.X.X.X.X.....Q W m m m c W M m b k y e 8 q i V A P R ;.",
"_ _ ;.;.U N = & X X - 8 r h l W Q ] W b l l m Q Q Q m k g g g k b m ~ O.X.o.X.o.o.X.Q m l k g g k k k k k a y e q 8 7 p G P Y ;.",
"{ R ` _ I 6 = X X X @ # 4 e h l W m l k d g l W Q m k a r e r y k b Q O.X.X.X.X.X...W l g y r r r a y a y y e 4 8 q 7 i G P Y ;.",
"` { R { P = = X X X O + , 6 e h l l j y r r g x m b g a e e r y j b ~ X.....] ..] Q m l g r r e r r e e 9 5 e 9 8 8 w i A P R ;.",
"_ _ _ _ D - = X X . O O O @ 2 r d g s 8 4 4 a g l F k h y y y k c W ....] m b b b z l l g g g a a y e e e e e e e 9 8 i A P R ;.",
"` _ _ _ G @ * X X X O O O O @ 2 e r 8 8 3 4 e y g l l l l l l b W ] ..] m l g g g h g l l l b b x g y e 4 4 4 e 8 q i i A P Y ;.",
"_ ` U P V = % X . X O X O O O , 8 4 8 8 4 4 8 8 r g l b m Q W Q ] ..~ W l a r 5 5 y g l K W ] Q n k g e e 4 e 4 8 6 8 i A U R ;.",
"Y Y P G u = % $ . . X O . O O @ 6 8 9 e e 8 8 4 8 r k b M Q M Q Q M m l g y 8 3 4 5 y g c M ..] m x g y e 4 4 4 : > 0 B G I ! ;.",
"_ J D A p 6 ; & $   . X O O * @ 1 8 r f a r 8 8 4 e a k b l z J z l k g y e 6 3 3 4 r a l c W b x k y e 4 4 3 # > > N C G I ;.;.",
"Y J k l h u q ; &     . . * O 1 2 p y j j d e 8 3 6 9 r y a a y y a y y r 4 4 3 3 4 e r y a g g a y r 8 3 # + o & N B G U R ` ! ",
"L z b l k h B 0 ; $ . . . O @ 2 u B f A d p e 8 , , 3 3 8 8 2 8 8 8 8 4 8 8 4 8 4 9 4 9 8 e e e r 5 4 4 : # & $ ; N G T R ` ` ;.",
"W M M m l A Z u 1 = . . . O , 2 t p f p i 8 0 - # # + # # # , , , , , 6 3 3 4 4 8 4 4 3 8 3 8 4 5 5 4 4 + > & & N B H R ;.` ` ` ",
"L M / v z h f t u 1 ; $ % X @ 2 2 2 u 2 2 - @ O * O O @ @ @ O - # @ # # # 1 , 2 3 3 3 , 3 # , , 4 < < < - = - 0 B G K R ;.;.! ` ",
"W ~ / v z h f f B B 0 ; & % @ @ @ - @ - - @ O O O O O O O O O O @ @ @ # # # # # # # # # # # # # , , , # = - 0 B A D P Y R ;.` ` ",
"W ~ / v l h f f Z Z u 0 ; % % * * * % o O O @ O O O O O @ O @ @ @ @ # # # # @ 1 # , , < , # # = + = + = - > 7 A D P I Y R ` ` ` ",
"' X.( M k k k k k Z f 9 > ; = = = * % X X O @ @ @ O @ @ @ @ @ @ @ # # # # , , , , , , < < # = & = = = = - w V A D I Y Y R ` ` ` ",
"' $.) ~ k k l z x x h s N 0 6 0 0 > = % X O @ O O O O O O O O @ @ @ @ @ @ @ @ @ # # , , @ X % & = = 0 q i p f A H R R ` ;.R ;.;.",
"_ $.) [ L z z m b x j d i B B B p w > = X X O O O X % X X X % * o o X X * * * O o o O O % % & = 7 p p f p f A D I R ` ` ;.;.` ! ",
"' %.&.$.' z m v v n k d p f Z Z d i N ; % = * = % % * & * * & % $ $ % % % * = = = - = - - 1 7 i p f h A h D D J R ! ` ` ` ` ` ` ",
"| %.) %.} ' ~ / v v b k f f f A f V w 0 ; ; ; ; ; ; ; ; ; ; ; > 0 6 0 0 q q 7 8 0 0 0 0 q i i Z h A A k D D D Y R R ` ` ` ` ` ` ",
"| $.%.$. .' ~ ( ( / m k f f Z f h p i i 9 w w w w w w w w i i i B i i i i i w w 9 w w i i p f h h f k D D D I Y ! ` ` ` ;.` ` ` ",
"| #.*.[ |  .$.) ) ) ] L J J D Z f f p p V V p p V p V h Z d f p Z V Z p d V p V p f A A h A h D D D D D J Y _ _ ;.` ` ` ` ` ;.` ",
"_ | | _ _  .&.1.1.1.O.' J U P D D A h h A j h A D h k A A A h D A D D k D k D A h D h D D D D D D J J Y _ _ ` ` ` ` ` ` ` ;.` ` ",
"_ _ _ _ _  .*.1.1.%. .{ _ U U U J Y J I J J J J J D J D J D D D D J D D J D D D D J Y Y Y Y Y Y Y Y _ _ _ _ ` ` ` ` ;.` ` ` ` ` ",
"_ _ U ` _ _  .*.-.*.| _ _ T _ ` _ _ _ _ _ _ _ _ _ Y Y Y U Y Y Y Y Y Y Y Y Y Y Y Y _ _ ` ` ` ` ` ` ` ` ` ` _ _ ` ` ` ` _ ` ` ;.` ",
"_ U T T _ _ _  .| | { _ _ _ ` ` _ _ _ _ _ _ _ _ _ _ _ _ ` { { _ Y _ _ ` _ _ _ _ ` ` ` ` ` ` ;.` ` ` ` ` ` _ _ { ` ` ` _ ` ` ` ` ",
"_ _ _ _ _ _ _ _ ` ` _ ` _ _ _ U _ _ _ _ _ _ _ _ _ _ _ _ _ _ _ ;._ _ ` ` ` ` _ _ ` ` ` ` ` ;.` ` ` ` ` ` _ _ _ _ { ` _ _ _ _ ` _ ",
"_ _ _ _ _ _ _ _ _ _ ` ` _ _ _ ` _ _ _ _ _ _ _ _ _ _ _ _ _ _ _ ` ` ` ` ` ` ` ` ` ` ;.` ` ` ` ` ;.` ` _ ` _ _ _ _ _ ` _ _ _ ` ` { "
};
