/* XPM */
static char *result[] = {
/* columns rows colors chars-per-pixel */
"32 32 202 2 ",
"   c #050103",
".  c #081216",
"X  c #251E15",
"o  c #391E13",
"O  c #38361A",
"+  c #243A20",
"@  c #441D12",
"#  c #47281A",
"$  c #512718",
"%  c #5D2D19",
"&  c #453A1F",
"*  c #703410",
"=  c #653A28",
"-  c #12421C",
";  c #2C591E",
":  c #31591F",
">  c #2F4628",
",  c #394C24",
"<  c #3B522B",
"1  c #355C31",
"2  c #3D5C30",
"3  c #1A662E",
"4  c #2C652B",
"5  c #35652A",
"6  c #2D6836",
"7  c #346733",
"8  c #3A6737",
"9  c #346C33",
"0  c #3B6E39",
"q  c #2C773B",
"w  c #367335",
"e  c #387436",
"r  c #33743B",
"t  c #3D743B",
"y  c #367A3A",
"u  c #3D7A3D",
"i  c #595B1D",
"p  c #644819",
"a  c #5B4C28",
"s  c #47542D",
"d  c #4F502C",
"f  c #554B30",
"g  c #57593A",
"h  c #624F28",
"j  c #754727",
"k  c #68562E",
"l  c #705C2F",
"z  c #725333",
"x  c #456437",
"c  c #436C3C",
"v  c #41763F",
"b  c #49763E",
"n  c #417A3F",
"m  c #59723D",
"M  c #356F4B",
"N  c #3D7D41",
"B  c #3A7944",
"V  c #7D5244",
"C  c #4D674A",
"Z  c #506F4E",
"A  c #437540",
"S  c #437C41",
"D  c #4A7C44",
"F  c #4C7548",
"G  c #4E7C4B",
"H  c #51744D",
"J  c #556250",
"K  c #507B50",
"L  c #606A48",
"P  c #677A4A",
"I  c #6F6E5E",
"U  c #6F7B5E",
"Y  c #79745B",
"T  c #7E6867",
"R  c #6D7275",
"E  c #9D3E12",
"W  c #B44B13",
"Q  c #864024",
"!  c #874B27",
"~  c #994F24",
"^  c #B44E2A",
"/  c #A2562E",
"(  c #A8532F",
")  c #B85729",
"_  c #A65838",
"`  c #BD602B",
"'  c #A36638",
"]  c #B96437",
"[  c #CC581C",
"{  c #C45627",
"}  c #D95C26",
"|  c #DA6627",
" . c #C66634",
".. c #DA6C39",
"X. c #DE7037",
"o. c #FA6F2E",
"O. c #F9742C",
"+. c #EA6A38",
"@. c #E47739",
"#. c #F47938",
"$. c #FE7E3A",
"%. c #957053",
"&. c #B26B56",
"*. c #F77640",
"=. c #F57953",
"-. c #3B823B",
";. c #41813F",
":. c #378242",
">. c #3E8243",
",. c #448242",
"<. c #488546",
"1. c #468943",
"2. c #498945",
"3. c #4C854A",
"4. c #428C48",
"5. c #4C8E4A",
"6. c #51824D",
"7. c #4B924B",
"8. c #52974F",
"9. c #558D55",
"0. c #5A8856",
"q. c #4F9A51",
"w. c #579654",
"e. c #688A5D",
"r. c #698367",
"t. c #70866E",
"y. c #669966",
"u. c #798F78",
"i. c #6F9670",
"p. c #789872",
"a. c #FF8137",
"s. c #FF833C",
"d. c #FF933F",
"f. c #848574",
"g. c #A18776",
"h. c #CD8354",
"j. c #DF895B",
"k. c #FE8542",
"l. c #FB8545",
"z. c #FF8A44",
"x. c #FF9649",
"c. c #F88F57",
"v. c #FF9C57",
"b. c #CF9676",
"n. c #F1976A",
"m. c #F89D78",
"M. c #E2A175",
"N. c #6F8A8E",
"B. c #7A98A7",
"V. c #819181",
"C. c #869C88",
"Z. c #8B969D",
"A. c #929590",
"S. c #A39389",
"D. c #BD9282",
"F. c #90A793",
"G. c #B6A89F",
"H. c #A49CA7",
"J. c #8CA1AC",
"K. c #94A8B3",
"L. c #94B5BF",
"P. c #A6A4A3",
"I. c #ABB5AF",
"U. c #BCBAAA",
"Y. c #A3AEB6",
"T. c #BAAFBB",
"R. c #B0B3BC",
"E. c #D49C8D",
"W. c #D8A392",
"Q. c #FFB689",
"!. c #F6B898",
"~. c #D7BDB5",
"^. c #CEC3BD",
"/. c #9AA8C4",
"(. c #9CB2C4",
"). c #A2B3CA",
"_. c #B2BAC8",
"`. c #BCBCC9",
"'. c #ABC6D8",
"]. c #B3CBD3",
"[. c #B4D2E2",
"{. c #CEC6C2",
"}. c #CCC3CB",
"|. c #D5C9C5",
" X c #C8CCD0",
".X c #C9D5DE",
"XX c #E3D8C9",
"oX c #FAD7C9",
"OX c #E3CED3",
"+X c #EEE0D5",
"@X c #CDDAE5",
"#X c #D5DCE4",
"$X c #DCE9F8",
"%X c #EBE9EC",
"&X c #FFEDE5",
"*X c #ECEFFB",
"=X c #FDEFF0",
"-X c #E8F3FA",
";X c #EBFFFF",
":X c #F3F5F5",
">X c #FDF6F7",
",X c #FEFFFE",
/* pixels */
",.,.n ,.,.S S n S n S A v v n S n S n D ,.,.;.;.;.1.1.1.,.1.,.1.",
"<.,.S S ,.u n ,.S n v n 0 t n n S n v <.,.;.y.9.;.,.1.1.1.,.,.,.",
",.,.S S n ,.,.S S S 7 9 S e v n S n S n ,.,.9.3.;.1.2.1.1.2.<.;.",
",.u S S <.5.S S n 9 G U.XXp.9 v v n v S ;.n t n n n 1.,.2.5.2.,.",
"S n S w.8.<.v A w F |.>X}.T.e.9 v n B w N v v n ,.n ;.n 2.5.2.,.",
"n S D w.3.S A u 9 F.>X|.R t.0.e S ,.1 & x S v v 2.<.n t 1.7.2.,.",
",.,.6.6.S ,.N y 0 U.&X{.F.0.b u N 4 Y E.s y S v S 7.9.i.y.9.2.,.",
"A A F G ,.c s ; 6 I.=X+X!.m.h.0.3 f OX%Xg w B v v K t.V.C.w.1.D ",
"A c A F ,., T A.g I oXQ.#.X...' O D.%X%XY 4 A t b F Z C H G n ,.",
"S v n n S : T $X_.f.%.( / ] ] ` ^ j.{.*Xf.4 S v v n S v v v ,.n ",
"S n n n ,.w f `. X^.b.)  .s.l.s.l.O.c.oXp.4 t A v t n v S S n n ",
",.S v n n ;., H.~. .l.z.s.z.l.z.z.s.O.m.t.4 A u v v u n A b v v ",
"n n S S S ,.5 R E.| $.l.z.k.k.k.z.z.l.=.L q S v n v v S n v S S ",
"n S S D S N y g &.X.l.z.k.k.k.k.z.x.l.#.z 6 N v u n S S S n S S ",
"S n S S A v >.8 ! ..z.x.l.k.s.z.*.# ] l.^ h B u S S <.S n A v v ",
",.n S n S S N r z +./ j k.a.z.d.|   ~ z.+.~ 5 N n S <.S n S S n ",
"S S v n v n S q k +.=   [ v.M.E.Q.n.l.a.c.m.P y v S ,.S n N S n ",
";.n n n v v N B a ) } W M.G.. Z.,X,X&X+X&X>X].A e S S ;.,.S ,.,.",
"n n n v n B >.4 ! } $.!.-X@XP.%X,X,X,X,X;X}.P B n S ,.,.,.,.1.1.",
"S n v n v v e U W.oX>X,X;X,X,X,X:X:X,X;X_._ i :.S n ,.,.u ;.,.,.",
"S n n v B v v u.).$X$X%X:X:X*X-X:X:X-XR.( E m ,.n ;.<.;.,.;.,.,.",
",.D n v A S n e M N./.'.@X#X#X#X.X].I.( [ j A 4.;.;.<.,.,.1.,.S ",
"S D v n n u n u e t J R B.(.Y.Y.K.L.G.@.{ o c 7.<.1.;.;.1.<.S ,.",
";.S v v v n v S S u 5 * V B.K.J.(.[.W.a.~ X A 8.5.2.y -.1.,.D ,.",
",.n v v n v S S S t r l { / S.'.].g.| ` x 8 v 8.8.S p.F.q.u ,.,.",
",.,.S S A v v u t 0 r 2 ..o.| %.M * ) a 6 S D 3.5.D r.f.9.u S ,.",
";.S n <.S v v 0 0 w 9 6 _ *.#.p - * Q s 6 8 D S S ,.t e u D ,.,.",
",.;.n <.S n 0 7 8 7 7 6 k  . .a + $ % < 8 M D ;.,.;.n n S ,.,.D ",
",.S S ,.S u t c 0 7 0 r s Q Q d > o @ , y ;.<.;.,.;.n D S S ,.D ",
",.n n n ,.n A G t 7 t 7 O $ @ o 1 < , 8 n <.;.1.,.n S ,.,.,.,.,.",
",.n ;.,.,.,.S n u 0 t 0 & @ o O 7 t B B S S ,.,.n S ,.S S ,.S ,.",
",.,.,.,.,.1.,.,.;.S S N 8 2 1 t u v v S S ,.,.,.;.S n ,.,.,.D ,."
};
