/* XPM */
static char *result[] = {
/* columns rows colors chars-per-pixel */
"32 32 199 2 ",
"   c #0F0E0A",
".  c #321302",
"X  c #3A1D13",
"o  c #2B2318",
"O  c #3A341D",
"+  c #0F1C23",
"@  c #2D3B21",
"#  c #451C12",
"$  c #4C2517",
"%  c #5C2B18",
"&  c #663714",
"*  c #793110",
"=  c #533E22",
"-  c #7D3E24",
";  c #14421E",
":  c #394C28",
">  c #2D5D28",
",  c #39582C",
"<  c #3A5F31",
"1  c #236629",
"2  c #2C6528",
"3  c #2D6B2C",
"4  c #366A2E",
"5  c #2B6536",
"6  c #2D6C33",
"7  c #346434",
"8  c #356B34",
"9  c #386D37",
"0  c #3E673B",
"q  c #356D39",
"w  c #3B6E39",
"e  c #2A7438",
"r  c #357333",
"t  c #3A7436",
"y  c #377934",
"u  c #34733A",
"i  c #3D743C",
"p  c #357A3B",
"a  c #3E7B3D",
"s  c #73461B",
"d  c #414723",
"f  c #45552C",
"g  c #58582A",
"h  c #475A33",
"j  c #515A32",
"k  c #694D28",
"l  c #764628",
"z  c #6D532A",
"x  c #456233",
"c  c #436D3C",
"v  c #576234",
"b  c #40763E",
"n  c #48703C",
"m  c #417A3F",
"M  c #58713D",
"N  c #636238",
"B  c #386D47",
"V  c #377A40",
"C  c #3C7C40",
"Z  c #5A5640",
"A  c #694E48",
"S  c #4C6547",
"D  c #556A4F",
"F  c #427540",
"G  c #437C41",
"H  c #497947",
"J  c #4D7D4A",
"K  c #507451",
"L  c #507B50",
"P  c #656945",
"I  c #686F50",
"U  c #695C60",
"Y  c #7D7965",
"T  c #863E21",
"R  c #8B471C",
"E  c #9E4017",
"W  c #B9541A",
"Q  c #864526",
"!  c #9D4921",
"~  c #96512C",
"^  c #864B35",
"/  c #865832",
"(  c #B84E24",
")  c #AD552C",
"_  c #B75C2B",
"`  c #A65632",
"'  c #BE5731",
"]  c #9E6938",
"[  c #C3562A",
"{  c #D95D23",
"}  c #CD5E33",
"|  c #C96536",
" . c #D66936",
".. c #D6743E",
"X. c #FB752A",
"o. c #EC6B32",
"O. c #ED7837",
"+. c #F97837",
"@. c #985E4D",
"#. c #9E7250",
"$. c #8F7972",
"%. c #A37C68",
"&. c #C27042",
"*. c #DB7445",
"=. c #E16A44",
"-. c #FA7947",
";. c #3B8238",
":. c #41813F",
">. c #298446",
",. c #378445",
"<. c #3D8344",
"1. c #448242",
"2. c #488546",
"3. c #468943",
"4. c #498945",
"5. c #4C854A",
"6. c #428D48",
"7. c #4C8E4A",
"8. c #51824D",
"9. c #4C914A",
"0. c #4B984E",
"q. c #52974F",
"w. c #558D55",
"e. c #588856",
"r. c #4F9950",
"t. c #579654",
"y. c #6A8958",
"u. c #5E8274",
"i. c #678466",
"p. c #758D6F",
"a. c #639461",
"s. c #6D986A",
"d. c #6F9670",
"f. c #FF8137",
"g. c #FB833E",
"h. c #A88A59",
"j. c #9D8C7E",
"k. c #859077",
"l. c #A68875",
"z. c #FE8542",
"x. c #FF8A44",
"c. c #FF864A",
"v. c #FF9246",
"b. c #FF9649",
"n. c #E1895B",
"m. c #FE9554",
"M. c #CE9575",
"N. c #DE9B70",
"B. c #FF9D6C",
"V. c #F99877",
"C. c #F5A676",
"Z. c #737E86",
"A. c #7F9A8E",
"S. c #7D8C98",
"D. c #819181",
"F. c #869C88",
"G. c #91AE92",
"H. c #BBB99A",
"J. c #909CB3",
"K. c #A79AA5",
"L. c #8FA6B1",
"P. c #97A9B6",
"I. c #B3AAA9",
"U. c #AFAEB3",
"Y. c #AAB4BC",
"T. c #B6B3B6",
"R. c #C1908B",
"E. c #C59B9A",
"W. c #F39F82",
"Q. c #D4A68F",
"!. c #E7A88F",
"~. c #FFAB82",
"^. c #CCB5B1",
"/. c #FFC59D",
"(. c #F9C4A8",
"). c #FFD4BD",
"_. c #9EB2C1",
"`. c #A7BCCE",
"'. c #A3C3C7",
"]. c #BDC2C4",
"[. c #B7CBD8",
"{. c #BDCEE8",
"}. c #C4C8D4",
"|. c #CDD5DD",
" X c #D6D2D0",
".X c #FED4C4",
"XX c #FFDFD1",
"oX c #CDD7E2",
"OX c #DAE2E6",
"+X c #D6E6F2",
"@X c #FFF3EB",
"#X c #E0ECF4",
"$X c #ECEFF1",
"%X c #F4EDF4",
"&X c #E8F4FA",
"*X c #F2F3F4",
"=X c #FFF8F6",
"-X c #FCF7FA",
";X c #FEFFFE",
/* pixels */
"2.:.1.G 1.1.m G G G G F B b t e.a.y G 1.1.1.<.:.1.3.3.3.3.3.:.3.",
"2.1.m G G a m 1.G G F G F b 8 G. Xm t 2.1.1.a.w.;.2.3.3.2.:.1.1.",
"1.G G G m G 1.G G F w G F r H |.;Xs.3 F 1.1.w.5.:.2.3.3.3.3.2.1.",
"1.a G 1.4.7.G G F C F F m 4 A.%X=XH.6 a G G t G G G 2.:.4.7.4.1.",
"m b m t.q.2.C F G m m i t B Y.-XXX(.a.1 a m b G 1.m m :.4.9.4.1.",
":.m 5.t.5.G b F F G b b t K ^.).(./.h.$ x C b b 2.2.m a 3.9.4.1.",
"m 2.8.L F G C a F F b m p I V.B.~.n.%.I.j u F b G 9.w.d.s.7.4.1.",
"F n H J 1.c h x > V G 1.,.N =.x.=.^ ].$XP 3 a i b 8.i.D.F.a.3.H ",
"F n F F 1.> A K.$.: 2 ,.>.v ' } * %.OX#XY 2 m b c J K S K J :.m ",
"G m F F G r Z }.}.U.P x b ] | | _ *.^.%Xk.2 F b b m F b b b m 1.",
":.m G G m a : K.}.^.!... .g.z.z.g.+.z.).k.2 b b b b b m G G m m ",
"G G F m b C > $. X&.O.x.z.x.z.x.x.x.X.V.p.6 B F b b m m F F n m ",
"G m m G G G r D R.o.+.x.x.x.z.z.g.x.g.-.I e G F m m b G G m F 1.",
"1.G 1.H G G <.x @. .g.x.z.z.z.z.z.v.x.-.l 0 C C m m G F m m m G ",
"m m G G G m G u z } c.b.x.g.g.g.x.Q ` c.[ z V C m G 1.1.G F b m ",
"m G G m m m C V g } | ` -.f.x.v.X.. R x.o.! 4 C m G 2.1.m G F m ",
"1.G m F m F a C j [ ~   W m.N.M./.C.m.z.B.W.y.,.m G 2.G a G G a ",
"m m m b b b C V j ) { W M.T.+ Z.;X;X@X@X@X;XT.H t G a 1.G 1.1.1.",
"m :.b F m i G e z { c.(.$X#X].*X;X;X;X;X&X^.M p m m 1.1.m <.3.3.",
"G m b F C G a L E..X-X;X;X;X;X;X*X-X;X&XT.) g ,.m G 1.1.:.1.1.1.",
"m m m b b F t i.L.{.+XOX%X*X$X$X$X$X#XY.) E M <.m :.1.1.:.m :.2.",
"1.H m b C G G t u u.J.`.[.oXoXoX}.[.Y.] W - n 6.m 2.2.:.2.2.1.:.",
"m H m b m m m m a y S U S.L.P.U.L._.U.O.[ # c 0.:.4.:.:.3.3.G 1.",
":.m b b b m b m m G 4 & ^ S.L.L.Y.[.Q.f.~ o n r.9.7.a ;.3.:.H 1.",
"2.m m m F b m F i i u v [ ) l.'.'.j. ._ x 9 m q.q.m d.G.w.a m 1.",
":.:.m F F m m m i i u 7 | +.o.#.B & ( k 5 b J 8.9.H i.k.e.a 1.1.",
"2.:.m 2.F b m w 9 9 8 5 / -.+.s ; & T f 5 c J m :.1.b t m 2.1.H ",
":.:.m 2.1.m 9 8 8 8 8 q g [ | k @ $ % f q i m m :.m :.m m 1.:.:.",
"1.G m 1.1.m w c 9 9 9 u , - Q = : o # : m :.:.3.:.:.m J m :.2.m ",
"1.m m m :.m b L i 8 9 q O $ $ X , , : 0 m 2.3.:.2.m m m m 2.m 2.",
":.G :.:.2.:.1.m i i i i d # X O 7 i B C m :.m 2.m m :.2.m :.2.m ",
":.2.2.:.:.2.2.:.:.m m m b < < u i i G G m 2.:.2.:.:.m :.2.2.m 2."
};
