/* XPM */
static char *result[] = {
/* columns rows colors chars-per-pixel */
"32 32 208 2 ",
"   c #111A1D",
".  c #3B1810",
"X  c #2A2016",
"o  c #392115",
"O  c #3D2D1B",
"+  c #273921",
"@  c #333920",
"#  c #441E13",
"$  c #4C2417",
"%  c #562B19",
"&  c #43301C",
"*  c #792B08",
"=  c #6F381C",
"-  c #7D3D17",
";  c #7F3E20",
":  c #15411C",
">  c #354E1D",
",  c #2F4326",
"<  c #384F2B",
"1  c #2E5A21",
"2  c #3C592A",
"3  c #395C31",
"4  c #266927",
"5  c #316327",
"6  c #316A2E",
"7  c #2E6D35",
"8  c #296839",
"9  c #336433",
"0  c #356B35",
"q  c #396C37",
"w  c #386839",
"e  c #3C6D39",
"r  c #2E743C",
"t  c #357334",
"y  c #3A7536",
"u  c #387933",
"i  c #33743C",
"p  c #3C743C",
"a  c #357A3D",
"s  c #3D7A3C",
"d  c #5A521D",
"f  c #494726",
"g  c #574B29",
"h  c #48572D",
"j  c #495831",
"k  c #545B32",
"l  c #784928",
"z  c #77542F",
"x  c #6B5C36",
"c  c #446436",
"v  c #446D3C",
"b  c #556A3A",
"n  c #41763F",
"m  c #4A733D",
"M  c #417A3F",
"N  c #6E743E",
"B  c #326844",
"V  c #367C41",
"C  c #3C7E41",
"Z  c #7D5E54",
"A  c #506F4E",
"S  c #427540",
"D  c #4C7346",
"F  c #437C41",
"G  c #497C44",
"H  c #4D7D4A",
"J  c #56754A",
"K  c #4E6B51",
"L  c #507D52",
"P  c #696047",
"I  c #6F6156",
"U  c #717A52",
"Y  c #667164",
"T  c #7D7867",
"R  c #71707E",
"E  c #873412",
"W  c #9D3F15",
"Q  c #853F23",
"!  c #8D451E",
"~  c #B3501B",
"^  c #884926",
"/  c #994E25",
"(  c #89552E",
")  c #9A4D32",
"_  c #85503F",
"`  c #AE542E",
"'  c #BB592A",
"]  c #A65A36",
"[  c #B06534",
"{  c #C2521D",
"}  c #C85728",
"|  c #C45C38",
" . c #E45F2A",
".. c #D4662E",
"X. c #C96737",
"o. c #DC6935",
"O. c #C77138",
"+. c #E66A27",
"@. c #F86D2A",
"#. c #FF7629",
"$. c #E56838",
"%. c #EC7231",
"&. c #E4763A",
"*. c #FF7C35",
"=. c #FF7E3D",
"-. c #865942",
";. c #937A4E",
":. c #93705F",
">. c #A96E4B",
",. c #BB7659",
"<. c #806569",
"1. c #B27563",
"2. c #ED7942",
"3. c #F87C44",
"4. c #3A823A",
"5. c #41813F",
"6. c #368443",
"7. c #3B8444",
"8. c #448242",
"9. c #488546",
"0. c #468943",
"q. c #498945",
"w. c #4D854B",
"e. c #428C48",
"r. c #4C8E4A",
"t. c #51834D",
"y. c #4B924B",
"u. c #52974F",
"i. c #558753",
"p. c #568E55",
"a. c #4F9A51",
"s. c #559752",
"d. c #5C925B",
"f. c #638754",
"g. c #668468",
"h. c #6F9670",
"j. c #6F9970",
"k. c #FF8036",
"l. c #FF853D",
"z. c #B28246",
"x. c #A08F5E",
"c. c #A18573",
"v. c #84A37B",
"b. c #C1894D",
"n. c #F68344",
"m. c #FF8542",
"M. c #FF8A44",
"N. c #FF8E4D",
"B. c #EB8656",
"V. c #FF955B",
"C. c #CC8D6F",
"Z. c #D48C6A",
"A. c #D89A7E",
"S. c #EC9A6F",
"D. c #FFA26A",
"F. c #E9A477",
"G. c #FAA977",
"H. c #6F888F",
"J. c #799494",
"K. c #94898B",
"L. c #839889",
"P. c #A79A90",
"I. c #8BAC8B",
"U. c #BAAC98",
"Y. c #829CAD",
"T. c #8DA2AD",
"R. c #9BA5AA",
"E. c #8CA5B2",
"W. c #9BADBB",
"Q. c #A5B0B8",
"!. c #B3B1B9",
"~. c #B2BDB8",
"^. c #DCA384",
"/. c #CCAC9E",
"(. c #F9AA8A",
"). c #E7A696",
"_. c #BBC5B8",
"`. c #FFC295",
"'. c #F4C8AF",
"]. c #FED2BD",
"[. c #95B5C1",
"{. c #A0AEC8",
"}. c #A6B7CB",
"|. c #B6B5C3",
" X c #CCBAC6",
".X c #B0C2C9",
"XX c #B5CBDA",
"oX c #CAC7CA",
"OX c #CEC6CE",
"+X c #CBD4DB",
"@X c #CBD5DC",
"#X c #FFD5C5",
"$X c #ECE3DA",
"%X c #FFE3D4",
"&X c #FFE8D9",
"*X c #D6DBE3",
"=X c #D3DDF2",
"-X c #D6E9F7",
";X c #F6EDE6",
":X c #FFF4EB",
">X c #E1EEF7",
",X c #EFF2F3",
"<X c #E7F8FE",
"1X c #F3F4F5",
"2X c #FDF1F4",
"3X c #FFFAF5",
"4X c #F6F9F9",
"5X c #FFFEFE",
/* pixels */
"8.8.5.8.F 8.M F F F F S S v M F F M t w.8.4.4.5.8.0.0.0.0.8.8.q.",
"9.8.F F F M M 8.F S C S S s M M s 6 t.~._.5.d.p.5.8.0.q.0.5.8.8.",
"8.8.F F s 8.8.F F S S S S C S p 0 g.oX4X;Xp.8.w.5.0.q.8.q.q.0.8.",
"8.s F F 9.r.F F S S C e S F y e J.+X2X3X:Xv.4 F F M 0.8.q.r.q.8.",
"5.n G s.s.9.s S F s S C n M B H.*X;X4X:X%XU.t s 9.F 8.F q.r.q.5.",
"F M G s.w.F S F F S C v p y Y  X].%X'.-.(.'.f.7 9.9.p y 0.y.q.8.",
"F 9.t.t.G F C F S F S F C c 1.(.G.S.:.I ,.`.x.i M y.d.j.j.r.q.8.",
"S m D H 5.v 3 5 i S F 8.7.x | 3.=.^ ~.@X>.D.z.s e t.Y v.L.d.q.G ",
"S v S S 7.f T <.j 1 V 7.a z ' ' E c.-X@X,.N.b.i p H A K A G 5.G ",
"F n F F C > K.=X!.T h B e ] X.` / Z.oX-XZ.*.z.i p C S S n n M 5.",
"F M S F F 5 I OXoXoXZ.[ O.n.n.=.n.%.V.$XC.@.;.7 C n s C n F M M ",
"5.F n S F i j |./.O.N.M.l.M.n.M.M.l.#.).1.{ N V v p S S F M F m ",
"F F F F F 7.1 K.A...k.M.m.m.m.m.M.M.k.B._ l M s S s n F F n F F ",
"F M 8.G F F t P ,.%.m.m.m.m.m.m.M.M.M.2.l 3 C n S M F F n n F F ",
"F M F F F M 6.j ) &.m.M.m.m.m.l.M.2.2.3.` k V M s F 8.G F n n n ",
"M F F M n M C w ^ o.n.n.m.*.l.l.+.- ..m.$.! 0 C F F q.F M F F M ",
"8.F M M n n F i z o.( = +.V.F.F.G.B.l.*.V.Z.J V n F 8.F M F M 8.",
"M M n M S n C i l } ~ ~ A.P.  R.5X3X%X%X&X3X_.G y F 8.M 8.F 8.8.",
"M M n S M n V 6 /  .n.'.>X+XR.,X5X5X4X5X<XOXU 4.M M 8.8.7.8.8.0.",
"M M n S C p s T ).#X4X4X4X5X5X5X4X4X5X<X|.] d 6.F F 8.8.M M 5.0.",
"8.M n S n p G L.}.-X-X>X4X1X1X,X,X1X<X!.] W b 7.M 5.8.8.5.5.8.8.",
"8.F n M n F M t L J.{.XX@X*X*X*X+XXXQ.] ~ ; m e.5.8.q.5.8.0.8.F ",
"F G M n S C s p u p I R Y.W.W.W.R.[.U.%.} $ v y.8.q.5.5.q.8.8.G ",
"5.F n n S s S F C a 2 * Z Y.T.E.[.XX^.*.^ X n a.y.q.s 4.0.8.G 8.",
"8.M M n n n n F n p i ( } ] P..X}.c...' c w n s.u.F h.I.p.M 8.8.",
"8.8.F F S n M M p p r k $.%.o.:.i - ' g 8 S F w.r.G Y v.i.M 8.F ",
"5.F M 9.M n n e q q 7 3 [ m.+.d : = Q h 9 w G G F F p y M 8.8.G ",
"8.5.M 9.G M q 0 0 0 0 8 z X.' g + $ % 3 w n F 5.5.8.5.M M G 8.8.",
"8.F M 8.8.s y v q 0 e t g Q Q f , . # < p 8.8.5.0.M F G 5.8.F 8.",
"8.M F M 5.M S L v 0 t w O % # o 3 < < w F 0.8.0.F M F 8.G 8.G 8.",
"5.M 5.8.8.8.F n n y p q & # o @ w p p M F 5.8.8.M F M 8.G 8.8.8.",
"8.8.8.8.8.0.8.8.5.5.M s e 3 9 a p s F F F F 8.8.8.5.5.F 8.8.5.G "
};
