/* XPM */
static char *result[] = {
/* columns rows colors chars-per-pixel */
"32 32 196 2 ",
"   c #231408",
".  c #362218",
"X  c #36341E",
"o  c #1E292E",
"O  c #2F3B22",
"+  c #41110C",
"@  c #431A11",
"#  c #472818",
"$  c #572A16",
"%  c #42341C",
"&  c #70391E",
"*  c #7D391F",
"=  c #553B28",
"-  c #264B19",
";  c #38481F",
":  c #374727",
">  c #295421",
",  c #345827",
"<  c #395A2C",
"1  c #375C30",
"2  c #2E6528",
"3  c #2A6A2A",
"4  c #37632D",
"5  c #2F6F30",
"6  c #356435",
"7  c #3A6334",
"8  c #346B35",
"9  c #3A6C36",
"0  c #356F3B",
"q  c #3C6D3A",
"w  c #2C793C",
"e  c #347434",
"r  c #397235",
"t  c #377A37",
"y  c #34733A",
"u  c #3D753C",
"i  c #3D7B3D",
"p  c #49501A",
"a  c #4D4A28",
"s  c #45532B",
"d  c #485C2C",
"f  c #525A36",
"g  c #654728",
"h  c #78462C",
"j  c #79562B",
"k  c #47622A",
"l  c #4B6336",
"z  c #456D3C",
"x  c #46723A",
"c  c #41763F",
"v  c #417A3F",
"b  c #786E3B",
"n  c #2F7F42",
"m  c #357C40",
"M  c #3E7D41",
"N  c #427540",
"B  c #437C41",
"V  c #4B7B46",
"C  c #507A4F",
"Z  c #487350",
"A  c #517C53",
"S  c #75634E",
"D  c #796655",
"F  c #617D5F",
"G  c #5D7B69",
"H  c #676765",
"J  c #776960",
"K  c #7B766D",
"L  c #823B12",
"P  c #893A20",
"I  c #824D1D",
"U  c #AB441B",
"Y  c #B9511D",
"T  c #834C2C",
"R  c #974A26",
"E  c #93542F",
"W  c #98552C",
"Q  c #9A4E31",
"!  c #A84C24",
"~  c #A35227",
"^  c #BC5528",
"/  c #A64F33",
"(  c #B25B39",
")  c #A96432",
"_  c #BA6136",
"`  c #C45925",
"'  c #C76937",
"]  c #DA6A3A",
"[  c #DA743B",
"{  c #E5682A",
"}  c #E7712F",
"|  c #E9783B",
" . c #F27136",
".. c #FF7E34",
"X. c #F47B3C",
"o. c #FE7D3E",
"O. c #9D6B4F",
"+. c #86695C",
"@. c #9C7351",
"#. c #A86A43",
"$. c #B37156",
"%. c #D17645",
"&. c #C77959",
"*. c #E87142",
"=. c #FB7E42",
"-. c #39823C",
";. c #41813F",
":. c #368141",
">. c #3E8242",
",. c #448242",
"<. c #488446",
"1. c #468943",
"2. c #498945",
"3. c #4B854A",
"4. c #408848",
"5. c #4C8E4A",
"6. c #51834D",
"7. c #4C914A",
"8. c #558753",
"9. c #558D54",
"0. c #559653",
"q. c #60955F",
"w. c #6B8869",
"e. c #68986A",
"r. c #6E8671",
"t. c #7D927B",
"y. c #FF8935",
"u. c #FF833B",
"i. c #BC8457",
"p. c #8E9272",
"a. c #A8857B",
"s. c #FF8542",
"d. c #FF8A44",
"f. c #FF8349",
"g. c #FF9247",
"h. c #FF924C",
"j. c #FD9156",
"k. c #D08C6D",
"l. c #E6996C",
"z. c #FF986C",
"x. c #F8A879",
"c. c #767B8C",
"v. c #809180",
"b. c #918D93",
"n. c #9B9D90",
"m. c #A08B84",
"M. c #B18581",
"N. c #A4988B",
"B. c #8CA888",
"V. c #98A991",
"C. c #B0A79D",
"Z. c #8898A9",
"A. c #8DA4AF",
"S. c #93A6AF",
"D. c #88A4B5",
"F. c #9EAEB9",
"G. c #ABA8AD",
"H. c #BEABA1",
"J. c #A2B0AE",
"K. c #A0AEB8",
"L. c #ADB5B9",
"P. c #B9B6B8",
"I. c #C7A18F",
"U. c #DAAB92",
"Y. c #E6AC99",
"T. c #C7BCBC",
"R. c #D6BAB6",
"E. c #CDC3BE",
"W. c #D5D0BA",
"Q. c #F2CAB2",
"!. c #A4B8C9",
"~. c #BCC0C3",
"^. c #A8C4D3",
"/. c #B6C9DA",
"(. c #D6CDC8",
"). c #CBCDD2",
"_. c #D0D7DF",
"`. c #FFD6C4",
"'. c #ECD9D9",
"]. c #FFE1D1",
"[. c #CED8E1",
"{. c #D5DDE7",
"}. c #EDDBE0",
"|. c #CEE3F2",
" X c #DBEAF7",
".X c #EEE7E6",
"XX c #FBEAE6",
"oX c #FFEBEB",
"OX c #FFF3E4",
"+X c #E2EBF5",
"@X c #EEF1F2",
"#X c #E7F5FE",
"$X c #F2F4F5",
"%X c #F3F6F8",
"&X c #F6FCFC",
"*X c #FEFEFE",
/* pixels */
"<.,.;.,.,.,.v v >.B N N N N c N ;.B v ,.;.,.;.,.<.;.1.1.;.1.<.;.",
"<.,.v B B v v ,.,.N u B N u v N B v N <.,.,.q.9.-.1.1.1.2.;.<.;.",
",.B v v v B <.v B N u N N v v c v v N B ,.,.9.3.;.2.2.2.;.2.<.;.",
",.i B ,.2.5.,.i N N N M B v M c v v v v ;.v u N B v 2.;.7.5.2.<.",
"v c V 0.0.<.u N B N M u u u N u c N -.i v v c B <.N M ,.2.7.7.;.",
",.v B 0.3.B N B B N u N N c N c B -.: a B v c u 1.<.u u ;.7.2.<.",
"v <.6.6.B B M B N B N N B N M N m < a.D 5 i e 3 5 -.5.e.e.5.2.<.",
"N x V C ,.z 4 2 y B N B <.m M B > +.*XN.- w A t.V.V.p.r.v.q.2.v ",
"N N z N >.a J K s 2 m B n x b d g R.#XC.k p.T..XoXoX'.n.Z B B B ",
"B B B B ,.; b.{.G.D < n z ) ' W ( U.+XP.#.z.`..X(.E.(.XXp.2 B ,.",
"B v N B V 2 J _.).E.&.) [ o.X.=...| Q.W./ } x.].L.b.S.}.W.r u v ",
";.B c N N q f !.I.' j.s.s.d.d.d.d...j.I.h _ *.x.H.G G P.(.B r v ",
"B B B B v >., m.k.} u.s.s.s.s.s.u.s.f.$.= / [ =.i.t 3 w.B.v v v ",
"B v ,.V N B e S &.} d.d.s.s.s.u.d.h.d.( = T ' *.b w ;.i x v v v ",
"v v B B B N :.f / *.g.g.s.s.s.d.] ) d.] h h ( Q x >.<.v c v c v ",
"B B B v B i >.8 R } ' *.u.u.u.y.L   o.=.^ * h l i ,.<.B v B B v ",
",.B v v c i v y T ] . $ ..z.x.x.l.%.u.d.z.@.0 m M B ,.M v v ,.v ",
";.v v v N v B y T ' Y ~ U.H o +X*XOX].].oX.Xe.5 v B ,.B B B ,.,.",
"v v N N v N w 4 U { j.Q.#XL.L.*X*X*X*X&X+XN.u i v ,.;.,.,.,.1.1.",
"v v c N u i y p.Y.`.*X&X&X*X*X%X%X&X*X|.M.I t <.v v ,.,.i ;.;.,.",
"B N v v M u B b./. X X@X$X$X@X@X$X%X|.a.U j >.4.v ;.;.;.,.v ,.<.",
",.B v c N N v e A Z.!./.[.{.{.[.)./.m.Y U a >.,.v <.<.;.,.1.,.;.",
"B B v c v c v u r N H c.D.F.K.K.S.!.k.{ * X i ,.v v v ;.<.<.B ,.",
",.v N c c v i v N y p * K D.A.A.^.~.j.} # : u B v u e -.;.<.B ,.",
",.v N c v c c B v i i ~ ^ O.G.^.J.$.{ j 6 q q V ;.9 w.B.9.i ,.,.",
",.,.B B N c N B v v w b  .{ %.F s ! R , m x c N <.v w.p.8.i ,.,.",
";.v v <.B c B i u u w l ] f.` - O P g 8 1 1 N N <.<.u r i B B ,.",
",.;.v 2.B v u 9 8 8 8 6 E ] ~ : X $ = 6 6 M v ;.v ;.;.v B <.B ,.",
"<.B B ,.,.v u z 9 9 0 8 g R & : X + % 7 u ;.;.1.<.;.B B B B <.B ",
";.v c v ;.v c C u 9 y < # $ @ X 1 : < q v <.1.;.;.v V B B <.<.,.",
",.v ;.;.;.<.B v u r i 7 . @ . : u y u N v ,.;.<.v v ;.;.<.B v <.",
";.<.,.,.;.1.<.;.;.;.v i z 1 8 i u c B B v v <.;.<.;.v <.v ;.<.v "
};
