/* XPM */
static char *result[] = {
/* columns rows colors chars-per-pixel */
"32 32 196 2 ",
"   c #080B0A",
".  c #37150C",
"X  c #3C1F14",
"o  c #38281A",
"O  c #38371E",
"+  c #182125",
"@  c #4A1E14",
"#  c #5B2E1B",
"$  c #6E2B10",
"%  c #77361C",
"&  c #473C20",
"*  c #31441C",
"=  c #354225",
"-  c #3A4826",
";  c #375928",
":  c #295D32",
">  c #375F31",
",  c #276C2D",
"<  c #36652E",
"1  c #34722E",
"2  c #2E6C34",
"3  c #366233",
"4  c #356B36",
"5  c #386C37",
"6  c #3E673A",
"7  c #356D3A",
"8  c #3B6E39",
"9  c #297434",
"0  c #2C763D",
"q  c #357333",
"w  c #397435",
"e  c #357C34",
"r  c #36753C",
"t  c #3D743C",
"y  c #367B3D",
"u  c #3D7B3C",
"i  c #5D4F19",
"p  c #454425",
"a  c #574C2F",
"s  c #46522C",
"d  c #525E2D",
"f  c #475933",
"g  c #565936",
"h  c #614E20",
"j  c #73522D",
"k  c #7D5D33",
"l  c #43683A",
"z  c #586837",
"x  c #41763F",
"c  c #417A3F",
"v  c #567E3E",
"b  c #676639",
"n  c #3B7D42",
"m  c #644746",
"M  c #4D6847",
"N  c #576849",
"B  c #437540",
"V  c #437C41",
"C  c #4A7946",
"Z  c #4D7D4A",
"A  c #51744D",
"S  c #456F5D",
"D  c #497852",
"F  c #577C54",
"G  c #6E6D5B",
"H  c #527C65",
"J  c #983E16",
"K  c #88441B",
"L  c #A7471A",
"P  c #B9501B",
"I  c #8A4F2C",
"U  c #A24828",
"Y  c #AB522D",
"T  c #B7572B",
"R  c #A75836",
"E  c #B95C32",
"W  c #8B622D",
"Q  c #A96636",
"!  c #B76236",
"~  c #B46934",
"^  c #E55C1D",
"/  c #D4611F",
"(  c #CE5C26",
")  c #C1592F",
"_  c #C7652D",
"`  c #C66633",
"'  c #D1743A",
"]  c #E46422",
"[  c #E6712E",
"{  c #E86E3E",
"}  c #E2763C",
"|  c #ED793B",
" . c #FF7A31",
".. c #825B4B",
"X. c #806058",
"o. c #906F50",
"O. c #C1785C",
"+. c #F87841",
"@. c #FF7E45",
"#. c #E37A5F",
"$. c #FE7D50",
"%. c #CA7D66",
"&. c #3B8238",
"*. c #41813F",
"=. c #3B8344",
"-. c #3C8A46",
";. c #448242",
":. c #488546",
">. c #458943",
",. c #498945",
"<. c #4C854A",
"1. c #4C8E4A",
"2. c #51824D",
"3. c #4C914A",
"4. c #51964F",
"5. c #568D55",
"6. c #598A58",
"7. c #579654",
"8. c #628D59",
"9. c #688666",
"0. c #629760",
"q. c #6A9B6C",
"w. c #6F9670",
"e. c #729073",
"r. c #FF843D",
"t. c #FF8839",
"y. c #8C8E63",
"u. c #B19076",
"i. c #D88152",
"p. c #FF8542",
"a. c #FF8A44",
"s. c #FF8748",
"d. c #FF8A48",
"f. c #FF9247",
"g. c #F18F55",
"h. c #F1905C",
"j. c #C38C7C",
"k. c #FF9661",
"l. c #F99F6C",
"z. c #E09973",
"x. c #F9A475",
"c. c #718794",
"v. c #8D8887",
"b. c #819181",
"n. c #869C88",
"m. c #989897",
"M. c #A48B86",
"N. c #AE9E99",
"B. c #91B089",
"V. c #8FAB91",
"C. c #AAA09F",
"Z. c #B8A497",
"A. c #8398A3",
"S. c #B09CB1",
"D. c #99A6AF",
"F. c #93A9B9",
"G. c #A3B3AD",
"H. c #B2AAB5",
"J. c #ACB1B3",
"K. c #DEB299",
"L. c #FBAA88",
"P. c #FFB383",
"I. c #C7B3AA",
"U. c #D8B2A9",
"Y. c #D0BDBC",
"T. c #FDC09C",
"R. c #C1C2A9",
"E. c #FFC3A4",
"W. c #E8C0B4",
"Q. c #FBCBB6",
"!. c #FFDCBE",
"~. c #95AEC6",
"^. c #B0B9CB",
"/. c #AEC4D0",
"(. c #B8C8D7",
"). c #CAC3C6",
"_. c #DEC8C5",
"`. c #CFD6CB",
"'. c #C0CED2",
"]. c #C9D3DB",
"[. c #FFDAC9",
"{. c #F6E3DA",
"}. c #D5DDE3",
"|. c #D0DEEF",
" X c #DAE4E9",
".X c #DAEFFC",
"XX c #DEF2FC",
"oX c #FCECE9",
"OX c #FFF2ED",
"+X c #EAEFF6",
"@X c #F9EEF4",
"#X c #EEF1F3",
"$X c #E4FBFF",
"%X c #F5F4F5",
"&X c #F4FDFE",
"*X c #FEFEFE",
/* pixels */
";.;.c ;.;.V V c V V V B B B c c c V t t *.:.*.*.:.*.*.,.*.,.*.,.",
":.;.V V ;.u V ;.V V n B B t x c V w c 6.*.*.0.5.*.,.,.,.,.*.,.*.",
";.V V V c ;.;.V V B x B B n x x 1 B V.`.0.e 5.<.*.:.,.*.,.*.*.:.",
";.u V ;.:.1.V c B x x x B V x 1 D G.@X*XB., t c c *.,.*.3.3.,.:.",
"c x V 7.4.:.B V V x x n x n 7 G (.@X%XOXR.w w c :.c c *.*.3.*.,.",
";.c C 7.<.V t V V x t B x w S ^.oXoXoX[.[.8.< x ,.,.x t ,.4.1.*.",
"c :.2.<.V V V n r n B n u l M._.T.Q.Q.L.O.y.w x c 4.6.w.q.1.,.*.",
"B x A Z V B n a g ; r :.n b #.h.k.x.h.o.X.o.*.x x Z 9.b.n.8.1.*.",
"B l B C V V w a S.v.s 9 n I ) +.@.( j (.Y.Q F r x A A M A <.;.V ",
"V x c c V V y s H.|.H.N < j Y ` T % Z.XXY.~ v r x x V x l t V ;.",
"V c c V c c u ; N.).U.z.~ ! } } ` ` z. X_.Q x t x t x x x V V V ",
";.B x V c c c ; v.U._ p.d.a.a.p.a.r.[ T.W.W r t x x c c V B x x ",
"c c V V V V V 2 G %.[ p.p.p.p.p.p.a. .k.j.d &.x c x x B V x V V ",
";.V V :.V B n n g R | d.p.p.p.p.p.f.p.$...2 n n c c V V c x B V ",
"c c V V V c u =.> U +.s.d.p.p.p.p.' +.+.b 0 V u c V :.V V V x c ",
"c V V c B c V n l E E o ` t.r.t.[   R d.z n x c c V ,.V x c V V ",
";.V x c x c c n f T E . L g.x.l.g.K /  .~ , n B u V ;.V u V V V ",
"c c c c B x V 0 h P ^ } K.C.+ J.&X!.P.l.L.y.n t V V V ;.V ;.;.;.",
"c c x B c t w F u.L.E.{.&X XJ.#X*X*X*X*X&XoX9.q u V ;.;.=.;.;.>.",
"V c n B B u w e.^.+X&X*X&X*X*X*X%X*X*X$X).o.y n V V V ;.c V *.>.",
"*.V x B n B c q H F.^.}.#X#X#X#X%X&X.XC.U i -.:.c *.:.*.*.*.;.;.",
";.V c x x V V x w D c.~.^.'.].].].(.M.P L s -.,.c *.:.:.;.>.V ;.",
"V C x V c x c n c &.p m c.D.D.D.F./.i.] # = -.3.:.,.*.*.;.:.:.V ",
"*.c x x x c x c c >.f $ G A.F.F./.I.d.! o = ;.3.3.,.&.&.*.:.c :.",
";.c x B x x x V V t 0 k ( R C./.m.! ( g r l x 7.4.c e.V.7.y ;.V ",
":.*.V V V x c x t 5 7 z {  ._ M * L K : 7 x V <.1.:.9.y.6.n ;.;.",
"*.*.c :.V c x 8 8 5 7 > E @.T * = J a 4 3 6 C V c :.t w c ;.V :.",
";.c c ,.C x w 3 4 4 4 2 j E U - o @ & 7 3 t c c *.*.c x V C ;.V ",
";.V V ;.;.t t 8 8 5 5 7 & % # = = X - 7 t *.*.,.:.*.c C V V :.V ",
";.c c c *.c x F t 4 w > @ @ . O 7 : 7 6 c :.,.*.*.c c :.;.;.V ;.",
";.c c ;.;.;.;.x t w t 8 - O = 3 5 5 8 B V *.:.*.c c *.V c :.:.c ",
";.;.*.;.>.>.;.*.;.c c x n n y u t t V V c ;.c :.*.;.*.c :.V *.:."
};
