/* XPM */
static char *result[] = {
/* columns rows colors chars-per-pixel */
"32 32 187 2 ",
"   c #1E130A",
".  c #381308",
"X  c #2B2F1E",
"o  c #3C2A19",
"O  c #38341D",
"+  c #343D2D",
"@  c #451B12",
"#  c #4C2503",
"$  c #452E1E",
"%  c #542A18",
"&  c #4C301C",
"*  c #5D341E",
"=  c #653A1B",
"-  c #76391B",
";  c #403A20",
":  c #733A20",
">  c #18401D",
",  c #354927",
"<  c #295622",
"1  c #37572B",
"2  c #3A5A2C",
"3  c #345C32",
"4  c #2F6125",
"5  c #276528",
"6  c #2E6D2D",
"7  c #316025",
"8  c #31692B",
"9  c #32722B",
"0  c #276C36",
"q  c #366434",
"w  c #3E6434",
"e  c #356B36",
"r  c #396B36",
"t  c #3C6639",
"y  c #356D39",
"u  c #3B6C39",
"i  c #2C7136",
"p  c #2B763B",
"a  c #327334",
"s  c #397334",
"d  c #36733A",
"f  c #3C743B",
"g  c #347B3A",
"h  c #3D7A3D",
"j  c #574F2B",
"k  c #44592E",
"l  c #57542B",
"z  c #534B31",
"x  c #405F31",
"c  c #5F5D32",
"v  c #6D4C32",
"b  c #446B3C",
"n  c #41763F",
"m  c #417A3F",
"M  c #61703D",
"N  c #297E44",
"B  c #3E7D40",
"V  c #3F744B",
"C  c #59554B",
"Z  c #4D674A",
"A  c #506F4E",
"S  c #437440",
"D  c #4C7346",
"F  c #437C41",
"G  c #497D46",
"H  c #4D7D4A",
"J  c #557747",
"K  c #527D51",
"L  c #686B4D",
"P  c #70635A",
"I  c #577D6B",
"U  c #727873",
"Y  c #833D13",
"T  c #864A1E",
"R  c #974523",
"E  c #8C5239",
"W  c #AF4D23",
"Q  c #A8562C",
"!  c #B85629",
"~  c #A95E32",
"^  c #9B6A39",
"/  c #B06D38",
"(  c #C35C2D",
")  c #CD5A2F",
"_  c #E15E21",
"`  c #C56333",
"'  c #D76735",
"]  c #EE6E2D",
"[  c #FF6F27",
"{  c #E8702E",
"}  c #FF7524",
"|  c #E76938",
" . c #E8793D",
".. c #FB7839",
"X. c #916848",
"o. c #896D51",
"O. c #90776A",
"+. c #AA7C61",
"@. c #CB7749",
"#. c #CD7E5A",
"$. c #D07652",
"%. c #E46E42",
"&. c #FF764C",
"*. c #EE7A50",
"=. c #3D823A",
"-. c #41813F",
";. c #378143",
":. c #448242",
">. c #488546",
",. c #468943",
"<. c #498945",
"1. c #4C8449",
"2. c #4C8E4A",
"3. c #51824D",
"4. c #4C914A",
"5. c #51964F",
"6. c #558D55",
"7. c #598956",
"8. c #579654",
"9. c #668569",
"0. c #669966",
"q. c #6F9670",
"w. c #759875",
"e. c #EF803F",
"r. c #FF8035",
"t. c #FF833C",
"y. c #9A8D6A",
"u. c #A2867C",
"i. c #D3825A",
"p. c #FF8542",
"a. c #FF8943",
"s. c #FB8A45",
"d. c #FF854B",
"f. c #FF9549",
"g. c #EC8C57",
"h. c #FF8358",
"j. c #DC9964",
"k. c #D49678",
"l. c #FF9764",
"z. c #EC9C70",
"x. c #FC9E7A",
"c. c #FFAC7B",
"v. c #FFB274",
"b. c #7A8084",
"n. c #7693A2",
"m. c #819181",
"M. c #8E948F",
"N. c #869C88",
"B. c #8BAC8B",
"V. c #BDA08F",
"C. c #A6B18F",
"Z. c #AFB199",
"A. c #8E9FAF",
"S. c #9BA4A4",
"D. c #90A8B5",
"F. c #9AADBC",
"G. c #AAB5BD",
"H. c #B2BAB0",
"J. c #E8A995",
"K. c #FFBD9A",
"L. c #D9B4AD",
"P. c #C2B7B8",
"I. c #B9C2BC",
"U. c #FFC089",
"Y. c #EEC2AB",
"T. c #FCC6AA",
"R. c #A5ADCC",
"E. c #A5B8CA",
"W. c #ADC5D5",
"Q. c #BDCDD8",
"!. c #CCC9CF",
"~. c #D0C1C0",
"^. c #CED7DE",
"/. c #FFD9C8",
"(. c #E0C1D0",
"). c #F4DED2",
"_. c #FFE4D8",
"`. c #C7D7E7",
"'. c #D1DBE5",
"]. c #DCE3E8",
"[. c #E8E7ED",
"{. c #EAEDF0",
"}. c #EEF0F2",
"|. c #E5F1FC",
" X c #F4F5F6",
".X c #F8FAFC",
"XX c #FEFEFF",
/* pixels */
":.:.-.:.F m F F F F F S S B f s F F F F :.:.=.=.:.>.,.,.,.:.:.,.",
">.:.F F :.m m :.F F f F S u G :.h m F >.:.:.0.6.h ,.,.,.,.-.:.:.",
":.:.F F m F :.:.F S f S F 6 w.H.s n S m :.:.6.1.=.,.,.,.:.<.>.:.",
":.h F F <.2.F m F S S h f y I.XX7.6 F m F h f F G F >.:.<.2.<.:.",
"m n G 8.5.<.S S m m F h 6 9.[.XXC.6 m m m n f G >.m F :.2.4.<.:.",
"m m >.8.1.F B F m m b 8 i S..X_.Y.1.a m h m n B <.>.m s -.4.2.:.",
"-.<.3.3.F S S F n m z j t P./.T.K.y.i m S n n b m 4.6.w.q.4.<.:.",
"S b D H F h F S n r C R.P #.c.x.c.j.h d n n h h n 3.9.m.N.8.<.m ",
"S b S S F n F S F 4 P `.E.E | *.l.l.J p B =.i y b H A Z A H m -.",
"F F m F F F n h B 4 U !.~.S.R | &.d.M N i 1 L v r F F S n n F :.",
"F m F F F n m m m 1 m.L.@.z.@.( ' ` ^ 3 z u.).O.< h F h n G m m ",
"-.F n S F F m m h w O.$.{ r.a.t.e. .` R k.[.[.L 6 F S F m n n m ",
"F F F F F F m n ;.u E ' p.p.p.a.a.a.p...k.[.~.2 h n n m m n G m ",
"F m F F S F F m h b R &.f.p.p.p.a.a.a.r.t._.N.4 h m F F m m m m ",
"F F m G F m m F ;.l ` ~ ~ a.a.a.p.a.a.t.d.J.S g F F >.F m m n m ",
"-.F F m m F n g 5 T | &   ..r.t.p.p.s.t.h.o.0 F m F <.m m G m m ",
"F F m m h h V 3.X.) _ ! Q g.v.f.} v % t.%.b h m m F :.m m B F m ",
"-.m m m B h h M.(./.T.Y.).S.+ V.U.T - p.^ p m m m m :.:.:.F ,.:.",
"m m n S S f s V F.|.XXXXXX].b.`.XXT.t.[ / d B F m m ,.:.F ,.,.,.",
"F m S S B S S 9 I R.^. X XXXXXXXXXXX_.T.x.M p :.m :.m :.m m -.:.",
"F n n n u F F h s I R.'.{.}. X X.XXXXX.XXXZ.g B m -.:.:.:.h :.:.",
":.:.n F B F S F -.7 C D.!.^.].{. X{.`.P.u.K >.>.-.:.,.-.,.,.:.F ",
"F G n m B S S B :.y # v n.F.H.W.Q.G.i.W . < :.2.:.<.-.-.>.<.F :.",
"-.m n n S S B B F B z R U A.D.E.W.k.} T X 2 F 5.4.<.h =.:.:.F >.",
":.m n n n S m F m h t Q ( +.G.F.y.' Q 3 y b n 5.5.F q.B.6.B B :.",
">.-.F F S n m m f u 0 ^ ..] ^ 0 = W j 0 t n G 3.2.G 9.y.6.B G :.",
"-.-.m >.m m n u r y i c | &.T > * Y k y q t H m F :.f s B >.:.:.",
":.m m <.G m r e e e e x Q ! v X @ % 1 y q n m -.:.-.m m F F :.F ",
":.F F :.m m u b r r d 2 = : $ , o o 2 y f -.-.,.>.-.m G F :.:.F ",
",.m S m -.-.S H f e d , @ @ . 1 t 3 q t m >.>.-.m m m :.F G :.:.",
"m -.F -.,.,.:.m n f d w ; O , y y t u B F -.>.-.-.m m :.m >.F >.",
":.:.-.:.:.:.:.:.-.:.m B g V h f f B F F m :.-.>.m :.-.m >.F >.F "
};
