/* XPM */
static char *result[] = {
/* columns rows colors chars-per-pixel */
"32 32 191 2 ",
"   c #00080F",
".  c #2E1202",
"X  c #2F2417",
"o  c #3B2415",
"O  c #28371E",
"+  c #3D351E",
"@  c #0C1923",
"#  c #3A3C21",
"$  c #491D13",
"%  c #4D2D18",
"&  c #5E2E1B",
"*  c #7B370C",
"=  c #6F3210",
"-  c #6F321C",
";  c #563D23",
":  c #703720",
">  c #633B31",
",  c #314F1D",
"<  c #334B2A",
"1  c #295727",
"2  c #38582A",
"3  c #2E662B",
"4  c #2C6A2D",
"5  c #326B2E",
"6  c #296F32",
"7  c #366434",
"8  c #396333",
"9  c #336C35",
"0  c #396C36",
"q  c #396739",
"w  c #336C3A",
"e  c #3A6E39",
"r  c #2B723A",
"t  c #347335",
"y  c #377739",
"u  c #3C743B",
"i  c #3D7A3D",
"p  c #46461D",
"a  c #4A4527",
"s  c #444927",
"d  c #524B2C",
"f  c #455832",
"g  c #535732",
"h  c #72542E",
"j  c #436C2F",
"k  c #45683A",
"l  c #41763E",
"z  c #4B753E",
"x  c #417A3F",
"c  c #6A6838",
"v  c #347A41",
"b  c #3E7C41",
"n  c #5B5640",
"m  c #476A47",
"M  c #506F4E",
"N  c #427541",
"B  c #437C41",
"V  c #4A7946",
"C  c #4C7E4A",
"Z  c #51744D",
"A  c #447353",
"S  c #547A54",
"D  c #6F634B",
"F  c #6E6558",
"G  c #716852",
"H  c #72775A",
"J  c #7C7E60",
"K  c #67787C",
"L  c #903F19",
"P  c #8F3F21",
"I  c #B24613",
"U  c #A7501F",
"Y  c #A54E2B",
"T  c #A9552E",
"R  c #B55629",
"E  c #B95C33",
"W  c #836F3D",
"Q  c #9C6739",
"!  c #AA6234",
"~  c #B26F3A",
"^  c #C65D2D",
"/  c #D45926",
"(  c #D66229",
")  c #D36B2F",
"_  c #C76837",
"`  c #DA783E",
"'  c #FF7326",
"]  c #FF7F2A",
"[  c #EA6A31",
"{  c #EC763A",
"}  c #F47333",
"|  c #FF7B33",
" . c #F67D3E",
".. c #8C5743",
"X. c #8D7C48",
"o. c #936B54",
"O. c #AA6847",
"+. c #827269",
"@. c #8F7D73",
"#. c #CC754D",
"$. c #FE7D44",
"%. c #3A8139",
"&. c #41813F",
"*. c #3D8244",
"=. c #448242",
"-. c #488546",
";. c #468943",
":. c #498945",
">. c #4C854A",
",. c #4C8E4A",
"<. c #51824D",
"1. c #5A844F",
"2. c #4C914B",
"3. c #51974F",
"4. c #558753",
"5. c #558D55",
"6. c #579654",
"7. c #698367",
"8. c #669966",
"9. c #79946D",
"0. c #688977",
"q. c #6F9670",
"w. c #FD843C",
"e. c #B88C65",
"r. c #94A87D",
"t. c #FF8542",
"y. c #FE8A44",
"u. c #FF8E4B",
"i. c #FF9145",
"p. c #FF9548",
"a. c #FF994C",
"s. c #F08F5D",
"d. c #F6915C",
"f. c #D38E6D",
"g. c #D38D75",
"h. c #CA9677",
"j. c #E99763",
"k. c #EC9F74",
"l. c #697E8D",
"z. c #7F888F",
"x. c #7E8D96",
"c. c #819181",
"v. c #879C86",
"b. c #959F8F",
"n. c #B19285",
"m. c #A39E9F",
"M. c #8BAC8B",
"N. c #9CA099",
"B. c #A3AC97",
"V. c #8493A7",
"C. c #8DA6A6",
"Z. c #97A2A8",
"A. c #88A3B9",
"S. c #93AEBB",
"D. c #AEADB1",
"F. c #B6AFB7",
"G. c #ADBABE",
"H. c #D29F9A",
"J. c #D8AB96",
"K. c #FFB788",
"L. c #FFBB95",
"P. c #CAC2BE",
"I. c #E2C9BA",
"U. c #FAC8B4",
"Y. c #FFDCBC",
"T. c #97AFC0",
"R. c #ACBBC3",
"E. c #A4B6CA",
"W. c #B1BDCC",
"Q. c #DDBBC0",
"!. c #C2BFD4",
"~. c #9DC1D1",
"^. c #BEC7CF",
"/. c #B8C9D6",
"(. c #C3CBD7",
"). c #D2D2D5",
"_. c #EDDACF",
"`. c #E0CFD1",
"'. c #FFE1CD",
"]. c #D2DDE5",
"[. c #F0DAE0",
"{. c #DEF2FE",
"}. c #E7E7ED",
"|. c #FFEEEB",
" X c #EBEDF1",
".X c #FBEDF5",
"XX c #EEF0F2",
"oX c #ECFFFF",
"OX c #F6F8F6",
"+X c #F4FCFD",
"@X c #FDFDFE",
/* pixels */
"=.=.&.=.B B x B B B x N N l l B B B x B B =.&.%.=.;.;.;.&.:.&.:.",
"-.=.B B =.x x =.B N l B N l l B B l B =.=.=.8.5.x ;.;.;.:.&.=.&.",
"=.=.B B B B =.=.B B 0 4 4 y B x B x N B =.=.4.>.&.=.:.;.&.:.=.-.",
"=.i B B :.,.B i B t 9 9.r.B e x l x N B B B y B B &.:.=.:.2.=.-.",
"x l x 6.3.:.N N i u B.|.[.b.l y l x x i B B l B B B B =.2.2.:.&.",
"&.x -.6.>.B b B 6 v..X`.z.N.1.e x x x B t u N l >.:.u u &.3.:.-.",
"x -.<.<.B B N 8 1 G.@XF.0.V b e l B *.5 a g b l B 2.6.q.q.,.:.&.",
"z N Z C B B q d F e._.}.J.e.X.b v *.1 G Q.D 3 b l <.7.c.v.6.,.z ",
"N k N B B B 5 n !.Z.+.f.y.$.#.W z 1 g `.@XH 3 b l Z M M M C =.x ",
"B l B N B B y g D.].G.o.R ~ ) _ ! P g.].}.J 5 b i x B l k i B =.",
"x x B B B B x 2 m.P.g.k.` ) $.w.{ { $.J.}.H 3 N l u l x x B x x ",
"=.B N l x x x 3 @.H.( } y.y.t.y.t.y.| u.U.S 9 u l l l x B l l x ",
"x B B B B B b 9 F O.} w.t.y.t.t.t.t.w.t.g.m y b x l l x B N B B ",
"=.x B =.N B B v g E  .p.y.w.t.t.t.p.p.$.O.7 b i x x B x l l B B ",
"x B x B B l B *.f Y $.#.y.y.w.w.y.! ! t.Q r b x x B =.-.B x l l ",
"x B B x B B i b k E T   U w.a.i.] . o u.~ r i x x B =.V x B B x ",
"B B x l x x x b s I ^ & U j.e.h.K.#.) ' } c 6 b l B =.B x b =.x ",
"&.x x x l x b 5 h / [ d.I.G.@ x.@X@XY.K.L.U.9.y i B =.=.B B =.=.",
"x x N N l i i 7.H.U.'.OX+X+X).+X@X@X@X@X+X.XB.i u =.&.B =.=.;.;.",
"B x i N l i l 0.E.}.oX@X@X@X@X@XOXOX@XoX(.o.j *.x x =.=.x &.=.&.",
"B B l l u B B t A V.W.(.}. X X XXXOX{.D.U * x =.x &.=.&.&.=.=.=.",
"=.B x N b B N i t N K T.E.^.^.(.^./.m.R I d =.:.&.=.:.=.=.;.=.B ",
"x V x l l N N b B %., > l.A.Z.Z.C.~.H.' L X -.2.=.:.&.&.-.:.B =.",
"&.B l l l l b B B =.2 = ..V.S.T./.W.s.[ ; O B 3.,.,.i %.=.=.B =.",
"=.x x x x l N B i y w h / ! n.R.C.O./ h w e l 3.3.B 0.M.5.%.=.B ",
"=.=.x B B l x l u u r k $.| ( c 1 L Y 2 w N =.>.,.V H r.4.i =.=.",
"&.=.x V B x l 0 0 0 9 7 T $./ p O - : 7 q q C z &.=.u y x B B =.",
"=.&.x :.V l y 7 0 q 9 9 g E Y a O $ % 8 q l x =.&.&.x x B =.C =.",
"=.x B B &.i e k 0 0 e 6 ; - & # < o + 7 u &.=.&.-.x B B B B =.=.",
"=.x B x &.x l S u 7 e 8 X $ $ X 9 8 7 e x =.;.=.x B B -.=.=.=.V ",
"=.x &.=.=.=.=.i i u u e < + # 7 0 q u x B =.=.=.&.x &.B B =.=.=.",
";.=.=.&.;.=.;.=.B &.x x i u y i u i B B x &.-.=.B &.x =.=.=.=.V "
};
