/* XPM */
static char *result[] = {
/* columns rows colors chars-per-pixel */
"32 32 188 2 ",
"   c #0E0D0F",
".  c #151515",
"X  c #161817",
"o  c #181718",
"O  c #171A18",
"+  c #191B19",
"@  c #1C241D",
"#  c #1C2A1E",
"$  c #22261F",
"%  c #271E23",
"&  c #1D2F21",
"*  c #1D3222",
"=  c #242523",
"-  c #252B23",
";  c #2A2D26",
":  c #2C2E29",
">  c #213525",
",  c #2A3227",
"<  c #223B27",
"1  c #2D322C",
"2  c #223D28",
"3  c #2D3D2B",
"4  c #30302F",
"5  c #323B2D",
"6  c #2F3630",
"7  c #2F3833",
"8  c #343534",
"9  c #353A34",
"0  c #3A3C35",
"q  c #363539",
"w  c #393D3A",
"e  c #244A25",
"r  c #284C27",
"t  c #26422B",
"y  c #2A452A",
"u  c #254F29",
"i  c #2B4C2C",
"p  c #255524",
"a  c #2B5425",
"s  c #2B542C",
"d  c #2D5B2C",
"f  c #374236",
"g  c #3C4236",
"h  c #334D33",
"j  c #384937",
"k  c #3C433C",
"l  c #3E4E39",
"z  c #2F5930",
"x  c #345534",
"c  c #345C34",
"v  c #3C573A",
"b  c #3A5C3A",
"n  c #2E622D",
"m  c #2F6E2E",
"M  c #366C2D",
"N  c #3E762E",
"B  c #346433",
"V  c #386637",
"C  c #346C32",
"Z  c #386C36",
"A  c #3A6C39",
"S  c #377033",
"D  c #397436",
"F  c #3C7C34",
"G  c #3D743B",
"H  c #3D7A3B",
"J  c #41443B",
"K  c #434B3E",
"L  c #41503A",
"P  c #436D3F",
"I  c #477F37",
"U  c #40763E",
"Y  c #417B3E",
"T  c #3E3F44",
"R  c #3E4541",
"E  c #3E4C43",
"W  c #3E7A40",
"Q  c #434542",
"!  c #454B44",
"~  c #494E45",
"^  c #464C4A",
"/  c #4A4E49",
"(  c #445243",
")  c #4A5245",
"_  c #415A41",
"`  c #465149",
"'  c #4C534C",
"]  c #4B5A4C",
"[  c #51554F",
"{  c #525A4D",
"}  c #474951",
"|  c #4F5552",
" . c #525453",
".. c #545C54",
"X. c #555C5A",
"o. c #446344",
"O. c #426C42",
"+. c #486B47",
"@. c #48654B",
"#. c #4A6B4C",
"$. c #55614E",
"%. c #447341",
"&. c #4B7346",
"*. c #437D41",
"=. c #497E46",
"-. c #477348",
";. c #4D724D",
":. c #4C7C4B",
">. c #50754B",
",. c #4D6256",
"<. c #496850",
"1. c #536253",
"2. c #5A6355",
"3. c #566159",
"4. c #5B635C",
"5. c #556B5A",
"6. c #5D695D",
"7. c #527353",
"8. c #517B53",
"9. c #5C725C",
"0. c #585F64",
"q. c #5D6562",
"w. c #5D6A62",
"e. c #5F676B",
"r. c #5E7861",
"t. c #606563",
"y. c #636C65",
"u. c #63676F",
"i. c #656C6A",
"p. c #617164",
"a. c #637E65",
"s. c #66716A",
"d. c #69746B",
"f. c #6B7A6D",
"g. c #686A75",
"h. c #6A7375",
"j. c #6B7577",
"k. c #6D7A73",
"l. c #6D727B",
"z. c #717E75",
"x. c #717B7D",
"c. c #3A8035",
"v. c #3F833C",
"b. c #42823D",
"n. c #448342",
"m. c #4B8244",
"M. c #458A43",
"N. c #4A8A44",
"B. c #4D834B",
"V. c #4B8D49",
"C. c #51864D",
"Z. c #4D9148",
"A. c #559445",
"S. c #5B845F",
"D. c #569653",
"F. c #5E965C",
"G. c #629E46",
"H. c #6C9E6E",
"J. c #6F8270",
"K. c #6C8976",
"L. c #738174",
"P. c #768579",
"I. c #798978",
"U. c #7C8B7D",
"Y. c #6D9870",
"T. c #75917D",
"R. c #747585",
"E. c #768382",
"W. c #7F8D82",
"Q. c #7D848C",
"!. c #7D8888",
"~. c #819382",
"^. c #88978F",
"/. c #849989",
"(. c #899B8C",
"). c #869393",
"_. c #899693",
"`. c #8B9D94",
"'. c #8D9B9B",
"]. c #98AB97",
"[. c #93A49F",
"{. c #929CA1",
"}. c #96A5A3",
"|. c #99A3A5",
" X c #99ADA6",
".X c #A1B3AC",
"XX c #A7B9B3",
"oX c #AFC2BC",
/* pixels */
"n.n.*.*.n.*.*.*.*.G A #.5.o.A Y b.W *.*.W v.v.n.n.M.M.M.n.n.n.M.",
"m.n.Y *.*.H *.n.H v ^ i._.Q.5.W A x w. X XK.S.V.W M.N.M.n.M.N.n.",
"n.*.*.*.*.*.n.b.V ^ q.z.`.[.x.X.E T u.{.'.E.R.r.v.M.V.M.M.Z.G.M.",
"n.W *.n.N.V.n.D x  .s.P.P.j.j.h.R.).).h.q.e.g.l.<.C M.A.n.A.A.N.",
"*.U =.D.D.M.G S v i.k.y.4.4.y.j.'.oXXX'.h.X.R.}.Q.X.F.A.M.Z.V.n.",
"Y *.m.D.B.-.-.c 4.~.W.i.| .... .h.}. XXX}.j.E.XX'.u.a.c.n.V.V.V.",
"*.m.C.C.c ^ ` R d.P.P.d...| 3.4.3.z.^.}..X).x.!.g.} ,.Y.H.V.Z.V.",
"%.%.&.B.i = 8 Q ..4.y.4.y.y.L.(.f.,.6.w.x.E.h.x.R.q.X.W.(.F.D.M.",
"U P O.H x Q k R | w.q.X.6.6.p.9.( 1 : 7 7 ' s._.}.!.e._ >.B.Y Y ",
"*.Y Y n ] y.' / p./.~.6.l 5 $ X   o + = ; 9 | y.E.!.h.@.C G Y Y ",
"*.*.b.h | 4. ...y.U.I.$.$ . . . . . . . + & @ $ k q.E._.T.:.U U ",
"b.*.H x T ' 3.'  .2.{ J . . . X X . . . .   . o , ( ~..X|.8.D Y ",
"*.*.H v q 8  .' ) ' ~ : . . . o . o o o X o . . - ) L.U.X._ b.*.",
"n.Y W ! q 8 ! ~ { K : . . . X X o o O o X X . . @ g 1...0 [ #.Y ",
"H b E R R k R ` ) 9 X . o + + @ @ O O O O X . . + 1  .i.w.q.) H ",
"Z h 9 6 k w E X...J + . o + + + o O @ + o . . . @ 8 ' f.z.4.O.Y ",
"C x 1 4 8 9 { s.4.! + . X X O o O O O O X X .   . 1 Q 3.q.3.*.b.",
"C s 4 ; ; K t.s...J o . . O X X o O O O . . . . . 1 ~ X.t...=.b.",
"M i = ; 9 { y.y.' - . . . . o O O X O O X X $ f ] 6.6.4.y. .-.M.",
"M s - 0 ) { 2.s.! .   X @ # * * * * * # # # L 9.J.P.k.6. .Q A M.",
"m n < J K K ) ....Q - * * t 2 * < * * * * & g ..6.z.d.../ 0 A N.",
"Z B 3 J g 5 5 J ..4.` t t t t t t t t 2 > : 5 ! ..6...[ [ _ M.m.",
"C C y ; : $ : 5 ` 4.| h i i i i i i i s i ~ ) ) { ) { { ] -.M.v.",
"Z d d & @ 1 g k 9 R k z z d s s s s s d x { 2.' 9 0 { ..Q E n.*.",
"D M d d u y q ~ 0 % y B C B B z z d a a i j ~ K ) 2.K J k A n.*.",
"I N d d n a - : : 2 n Z A A V B c B O.c e * , ) ~.].U.] V D *.m.",
"M.b.d c d n h g d m m Z U U G V n r._.d.x r a v 5.9.7.G D H *.*.",
"N.N.D I b.m L 1.v.F =.=.Y Y U G C +.0. .P C n u e p n G ;.7.Y *.",
"n.*.W A.G.H Y B.v.B.`.~.Y G U U G d y c D H G H H D H G 1.3.Y n.",
"*.*.W m.A.b.m.F.-.X.R.~.;.H H U U U G H H Y v.M.b.Y %.Y B A *.n.",
"n.Y n.*.v.n.m.F x q k ( O.b.Y Y Y U U Y W *.n.n.*.*.*.*.*.Y *.=.",
"n.M.n.n.n.m.M.W H Z Z H b.n.n.*.*.*.Y *.*.n.n.n.*.*.b.n.*.%.Y Y "
};
