/* XPM */
static char *result[] = {
/* columns rows colors chars-per-pixel */
"32 32 218 2 ",
"   c #020101",
".  c #0B0A05",
"X  c #0F100E",
"o  c #171707",
"O  c #070A18",
"+  c #160A1B",
"@  c #031416",
"#  c #02141B",
"$  c #021A1B",
"%  c #0A191C",
"&  c #131415",
"*  c #1A1A16",
"=  c #13151A",
"-  c #191918",
";  c #360912",
":  c #271715",
">  c #3A1314",
",  c #381816",
"<  c #0E211E",
"1  c #1A2519",
"2  c #1A221E",
"3  c #282805",
"4  c #3C3B06",
"5  c #28291C",
"6  c #2F311B",
"7  c #37391C",
"8  c #271E23",
"9  c #1B2124",
"0  c #1C2728",
"q  c #1B3425",
"w  c #242A23",
"e  c #2A2D25",
"r  c #23252A",
"t  c #2D2D29",
"y  c #2C312A",
"u  c #283928",
"i  c #323B2D",
"p  c #38392B",
"a  c #2E3432",
"s  c #343637",
"d  c #343A33",
"f  c #3B3C34",
"g  c #5A0F11",
"h  c #471313",
"j  c #5E1010",
"k  c #660F0F",
"l  c #7B0D0E",
"z  c #78100F",
"x  c #403A31",
"c  c #1B4A29",
"v  c #2A452A",
"b  c #264929",
"n  c #254E29",
"m  c #3D4328",
"M  c #285523",
"N  c #2C542C",
"B  c #2C5B2C",
"V  c #3A512F",
"C  c #284832",
"Z  c #354135",
"A  c #3C4237",
"S  c #324E33",
"D  c #3D443D",
"F  c #3B4C3B",
"G  c #2D5731",
"H  c #345434",
"J  c #345C33",
"K  c #3B5738",
"L  c #2E622D",
"P  c #2F6E2E",
"I  c #376F2E",
"U  c #346433",
"Y  c #346C33",
"T  c #386C36",
"R  c #3B653B",
"E  c #3A6C3A",
"W  c #3A7435",
"Q  c #3B7933",
"!  c #3D743A",
"~  c #3D7A3B",
"^  c #454406",
"/  c #54520B",
"(  c #5D5B09",
")  c #444515",
"_  c #444919",
"`  c #5A5811",
"'  c #686804",
"]  c #777702",
"[  c #6B6D18",
"{  c #474926",
"}  c #585D2B",
"|  c #464B36",
" . c #41423A",
".. c #445735",
"X. c #535B3D",
"o. c #47683D",
"O. c #566D33",
"+. c #477F37",
"@. c #40763E",
"#. c #417B3E",
"$. c #676B26",
"%. c #777523",
"&. c #64673B",
"*. c #797B3E",
"=. c #2C3246",
"-. c #3B3E44",
";. c #3E7A40",
":. c #424543",
">. c #444C43",
",. c #494F43",
"<. c #454B4B",
"1. c #494F4C",
"2. c #445345",
"3. c #4C534C",
"4. c #4C594D",
"5. c #525A49",
"6. c #454C52",
"7. c #4E4F51",
"8. c #4D5651",
"9. c #525453",
"0. c #535C55",
"q. c #545C5A",
"w. c #436246",
"e. c #4A6B4C",
"r. c #57614E",
"t. c #447341",
"y. c #437D41",
"u. c #4B7649",
"i. c #50754B",
"p. c #4B6553",
"a. c #556456",
"s. c #5A635D",
"d. c #5D695D",
"f. c #56715A",
"g. c #646846",
"h. c #767E5A",
"j. c #565E62",
"k. c #5D6462",
"l. c #5C6A62",
"z. c #5E676C",
"x. c #5E7861",
"c. c #626667",
"v. c #626C65",
"b. c #636B6C",
"n. c #657567",
"m. c #65716A",
"M. c #6C7B6D",
"N. c #656475",
"B. c #6A7375",
"V. c #6D7A72",
"C. c #6C7479",
"Z. c #717E75",
"A. c #717B7D",
"S. c #890F0E",
"D. c #A60A09",
"F. c #F10201",
"G. c red",
"H. c #3D8338",
"J. c #42823D",
"K. c #4D8E3F",
"L. c #3E8141",
"P. c #448342",
"I. c #4B8244",
"U. c #458A43",
"Y. c #4A8A44",
"T. c #4D834B",
"R. c #4B8D49",
"E. c #51864D",
"W. c #4D9148",
"Q. c #559445",
"!. c #54984B",
"~. c #57855A",
"^. c #599657",
"/. c #6E884D",
"(. c #629E46",
"). c #6D9B6F",
"_. c #6C8877",
"`. c #728276",
"'. c #76857B",
"]. c #798978",
"[. c #7A8B7D",
"{. c #9D9A07",
"}. c #8C8E1C",
"|. c #929018",
" X c #A2A200",
".X c #B0AD06",
"XX c #B3B104",
"oX c #AAAA18",
"OX c #9B9822",
"+X c #868731",
"@X c #A4A424",
"#X c #A3A538",
"$X c #C9C903",
"%X c #D6D507",
"&X c #C7C51E",
"*X c #E6DE0D",
"=X c #E1DE1E",
"-X c #EBE806",
";X c #FFFF02",
":X c #E1E012",
">X c #F6F511",
",X c #C6C227",
"<X c #8A8F4B",
"1X c #747585",
"2X c #7B8783",
"3X c #7D848B",
"4X c #7F9085",
"5X c #818B8A",
"6X c #849789",
"7X c #869393",
"8X c #899693",
"9X c #8B9D94",
"0X c #8D9B9A",
"qX c #929CA1",
"wX c #96A5A3",
"eX c #99ADA6",
"rX c #A2B4AF",
"tX c #A7B9B3",
/* pixels */
"P.P.#.P.P.y.y.y.P.! E e.a.w.E ~ #.y.y.y.L.L.H.L.P.U.U.U.P.P.P.U.",
"I.P.#.y.y.#.~ P.~ K 1.b.9X3Xf.;.E H l.eXeX_.~.^.~ Y.U.U.P.Y.Y.P.",
"P.y.y.y.y.y.P.P.R :.k.Z.9XwXA.q.6.-.z.qX0X1X1Xx.H.U.U.Y.U.W.(.Y.",
"P.;.y.y.Y.R.P.W K 9.m.`.`.V.B.C.A.7X7XB.j.z.B.C.p.Y K.Q.P.W.Q.U.",
"J.#.t.!.^.P.~ Y ..b.M.v.s.s.v.B.0XtXtX0XB.j.C.wX3Xq.^.Q.U.W.U.P.",
"y.#.u.^.I.u.u.J d.5X[.m.3.0.q.9.V.wXeXtXwXB.2XtX0XN.n.~ U.R.R.U.",
"y.I.E.E.J 1.1.D m.].].M.q.3.s.s.q.V.8XwXrX7XA.3XB.6.p.).).R.!.R.",
"@.t.u.T.N r a :.0.d.c.q.v.m.Z.6XM.a.d.l.Z.2XB.1X1Xk.q.4X9X^.!.I.",
"t.o.t.~ H :.A -.3.l.v.0.d.d.x.x.2.y y i d 1.m.8XwX5Xb.4.i.u.P.#.",
"y.#.P.B 4.v.3.3.m.6X6Xd.F i 5 & X * - 0 r d 4.v.2X3Xv.o.W W #.#.",
"y.y.~ H 7.s.9.0.v.].].r.5 & & & & & & & 2 2 - 0 D l.g.g.'.E.! #.",
"y.y.~ H :.8.a.1.9.s.5.A - @ $ $ & & & $ @ & X - y >.g.r.3X~.W @.",
"P.y.Q ..p f 8.3.,.5.,.t : g l j , > > k z h h ; r 5.#X/.<.w.P.y.",
"y.~ H | i s :.<.3.>.r * ; D.G.G.k h S.G.F.j ; ; 6 |.oX&.-.1.e.~ ",
"~ R X.&.s =.6.5.| m = O - , l z , : h S.g + 5 / ^ ( X.z.l.k.4.! ",
"Y F $.{ { @X#X+X3 ) %.- O % $ # # O # $ @ ) $X' X r 6.V.`.s.o.#.",
"P K } - ' ;X;X&X) . {.OX6 * & * w 7 _ o 3 XX.X3 O a D q.l.a.y.#.",
"Y N x = / :X&X,X(   [ =X}.o ] %X-X;X]   4 ] * O - y <.0.c.0.y.J.",
"P b r w m r.k.h.} . / ,X&X4 ^ %X-X X4   1 = 9 A 0.d.d.d.d.0.u.U.",
"Y N w f 1.1.s.z.<.& * %.,X`   ) OX7 2 u 1 9 F f.`.[.V.k.9.:.R U.",
"Y B i D | >.,.0.q.:.0 < O.%..   oX>XoX$._ { m D 3.m.Z.s.5.p o.U.",
"Y Y u  .A i i D 0.s.1.u q S 6   3 *X;X$Xo ^ |.|.$.p 6 { &...L.U.",
"Y I v e y w t d ,.s.4.S n C S v % } oX:X4   ' -X;X{.  o { K L.P.",
"Y L N q 2 y A A d :.F G B B N B N c S O.} *   3 .X*X/ o 6 V y.y.",
"W I L B n v f ,.A 8 v Y U T J J B B c c G | x r { <X*.x p E ;.y.",
"+.+.M J L n e t e u L Y E E T J J U o.J c q Z r.4X0X4X4.R W t.P.",
"J.+.N L B L S f B P P W @.@.W I L f.8XM.S b M J f.f.f.W ~ ~ y.y.",
"J.Q.W #.+.P 2.p.J.~ y.#.@.@.@.@.U i.c.9.R W U n n M L W u.i.t.y.",
"P.P.;.Q.(.~ ;.T.L.T.8X6Xy.~ ! t.W B v H W W ! ~ ~ W ! t.0.a.y.y.",
"y.#.t.Y.Q.J.u.^.u.q.1X5Xi.~ ~ ~ y.! ! ;.~ ~ P.P.P.~ y.! U ! y.P.",
"P.#.y.;.;.P.Y.~ G s D 2.;.t.#.~ y.! y.y.y.y.P.P.;.y.y.P.y.y.y.y.",
"P.P.P.P.P.Y.Y.H.~ T T ~ y.y.y.y.y.y.#.y.y.P.P.P.P.y.y.P.P.y.y.y."
};
