/* XPM */
static char *result[] = {
/* columns rows colors chars-per-pixel */
"32 32 220 2 ",
"   c #020101",
".  c #0B0A05",
"X  c #0E100E",
"o  c #171707",
"O  c #060817",
"+  c #0B0C1A",
"@  c #081419",
"#  c #081A1A",
"$  c #141515",
"%  c #1A1717",
"&  c #131816",
"*  c #181917",
"=  c #12141A",
"-  c #1C1C19",
";  c #2E190E",
":  c #261515",
">  c #291A16",
",  c #0E211E",
"<  c #1A2519",
"1  c #1C221D",
"2  c #282805",
"3  c #3C3B06",
"4  c #26291C",
"5  c #2F311B",
"6  c #37391C",
"7  c #271E23",
"8  c #1B2124",
"9  c #1C242A",
"0  c #1B3425",
"q  c #242623",
"w  c #242A23",
"e  c #2A2D25",
"r  c #24272A",
"t  c #2C2D29",
"y  c #2C312A",
"u  c #283928",
"i  c #323B2D",
"p  c #38392B",
"a  c #2E3432",
"s  c #343637",
"d  c #343A33",
"f  c #3B3C34",
"g  c #471615",
"h  c #581513",
"j  c #740F0E",
"k  c #403A31",
"l  c #1B4A29",
"z  c #2A452A",
"x  c #264929",
"c  c #254E29",
"v  c #3D4328",
"b  c #285523",
"n  c #2C542C",
"m  c #2C5B2C",
"M  c #3A512F",
"N  c #284832",
"B  c #354135",
"V  c #3C4237",
"C  c #324E33",
"Z  c #3D443D",
"A  c #3B4C3B",
"S  c #2D5731",
"D  c #345435",
"F  c #395433",
"G  c #345C33",
"H  c #3B5739",
"J  c #2E622D",
"K  c #2F6E2E",
"L  c #376F2E",
"P  c #346433",
"I  c #346C33",
"U  c #386C36",
"Y  c #3B653B",
"T  c #3A6C3A",
"R  c #3A7335",
"E  c #3A7834",
"W  c #3D743A",
"Q  c #3D7A3B",
"!  c #454406",
"~  c #54520B",
"^  c #5D5B09",
"/  c #444515",
"(  c #464919",
")  c #5A5811",
"_  c #696804",
"`  c #777702",
"'  c #6B6D18",
"]  c #474926",
"[  c #585D2B",
"{  c #464B36",
"}  c #41423A",
"|  c #445735",
" . c #535B3D",
".. c #47683D",
"X. c #566D33",
"o. c #477F37",
"O. c #40763E",
"+. c #417B3E",
"@. c #676B26",
"#. c #777523",
"$. c #64673B",
"%. c #2C3246",
"&. c #3B3E44",
"*. c #3E7A40",
"=. c #424543",
"-. c #444C43",
";. c #494F43",
":. c #454B4B",
">. c #494F4C",
",. c #455344",
"<. c #4C534C",
"1. c #4C594D",
"2. c #525A49",
"3. c #454C52",
"4. c #4E4F51",
"5. c #4D5651",
"6. c #525453",
"7. c #535C55",
"8. c #545C5A",
"9. c #436246",
"0. c #426C42",
"q. c #4A6B4C",
"w. c #57614E",
"e. c #447441",
"r. c #437D41",
"t. c #4B7649",
"y. c #50754B",
"u. c #4B6553",
"i. c #556556",
"p. c #566059",
"a. c #5A635D",
"s. c #5D695D",
"d. c #56715A",
"f. c #646846",
"g. c #767E5A",
"h. c #565E62",
"j. c #5D6462",
"k. c #5C6A62",
"l. c #5E676C",
"z. c #5E7861",
"x. c #626667",
"c. c #626C65",
"v. c #636B6C",
"b. c #617164",
"n. c #65716A",
"m. c #67776A",
"M. c #6C7B6D",
"N. c #656475",
"B. c #6A7375",
"V. c #6D7A72",
"C. c #6C7479",
"Z. c #717E75",
"A. c #717B7D",
"S. c #8B0C0C",
"D. c #3D8338",
"F. c #42823D",
"G. c #4D8E3F",
"H. c #57963F",
"J. c #3E8241",
"K. c #448342",
"L. c #4B8244",
"P. c #458A43",
"I. c #4A8A44",
"U. c #4D834B",
"Y. c #4B8D49",
"T. c #51864D",
"R. c #4D9148",
"E. c #559445",
"W. c #54984B",
"Q. c #57855A",
"!. c #599657",
"~. c #6E884D",
"^. c #629E46",
"/. c #6D9B6F",
"(. c #6C8877",
"). c #728276",
"_. c #76857B",
"`. c #798978",
"'. c #7A8B7D",
"]. c #9D9A07",
"[. c #8A881A",
"{. c #91911A",
"}. c #A2A200",
"|. c #B0AD06",
" X c #B3B104",
".X c #AAAA18",
"XX c #9B9822",
"oX c #868731",
"OX c #A4A424",
"+X c #A3A538",
"@X c #C0BE25",
"#X c #CBC903",
"$X c #D6D507",
"%X c #C7C51E",
"&X c #E6DE0D",
"*X c #E1DE1E",
"=X c #EBE806",
"-X c #FFFF02",
";X c #E1E012",
":X c #F6F511",
">X c #C6C227",
",X c #8A8F4B",
"<X c #747585",
"1X c #7B8783",
"2X c #7D848B",
"3X c #7F9085",
"4X c #818B8A",
"5X c #849789",
"6X c #899B8C",
"7X c #869393",
"8X c #899693",
"9X c #8B9D94",
"0X c #8D9B9A",
"qX c #93A49F",
"wX c #929CA1",
"eX c #96A5A3",
"rX c #99ADA6",
"tX c #A2B4AF",
"yX c #A7B9B3",
"uX c #AFC2BC",
/* pixels */
"K.K.Q K.K.r.r.+.K.E T q.a.9.W *.Q J.r.r.J.J.J.P.K.P.P.P.K.K.P.K.",
"L.K.r.r.r.r.r.K.Q F >.v.8X1Xi.*.U D l.rXrX(.Q.Y.r.I.P.P.K.I.I.P.",
"K.K.r.+.r.K.K.D.Y :.j.Z.9XeXA.8.:.&.v.wX0X<X<Xz.Q P.P.I.P.E.^.P.",
"K.*.e.K.L.Y.r.W F 6.n._._.V.B.C.<X7X7XB.h.l.B.C.q.I I.E.K.Y.E.P.",
"F.+.e.W.!.P.Q U | v.M.c.a.a.c.B.0XuXyX0XB.h.C.eX2X8.!.H.P.Y.P.K.",
"r.+.t.!.K.t.e.G a.4X'.n.6.7.7.7.m.qXrXyXeXB.2XyX0XN.m.Q P.Y.Y.Y.",
"r.K.T.T.G >.5.&.n.`.`.m.7.6.8.a.8.V.6XeXtX7X<X3XB.3.u././.T.R.Y.",
"e.e.y.U.n q a =.7.s.x.a.c.c.).5XM.7.k.k.Z.1XB.C.<Xj.p.3X9X!.W.K.",
"e...e.Q D } Z Z 5.k.j.8.a.s.b.z.,.y t u d >.n.7XeX2Xv.1.y.U.r.+.",
"r.+.K.m 1.c.<.<.n.5X5Xs.H i 4 $ X & - q r d 5.b.1X2Xc...R R +.+.",
"r.r.+.C 4.a.5.7.c.'.`.w.4 $ $ $ $ = = $ 1 1 - q A l.f.f.(.Q.W O.",
"F.r.Q D =.5.p.<.2.i.2.} % @ $ = * % $ & & $ $ * y -.$.w.2XQ.R +.",
"r.K.+.| p f 6.<.>.2.;.t $ : > % * * $ % : % & = r 2.OX~.:.,.F.K.",
"r.Q M { y s =.-.5.=.q $ @ g S.j % # > S.j : O + 5 {..Xw.&.>.q.+.",
"Q H ..$.s %.5.<.{ { = O * % g g - , > h ; + 4 ~ ! ^  .v.k.j.,.O.",
"U A @.] ] OX+XoX2 3 #.- + = # @ + O + # O / #X_ X r 3.V.).a...F.",
"I G [ & _ -X-X%X/ . ].XX5 * & & 4 6 ( o 2  X X2 $ a Z p.x.p.r.F.",
"K D k = ~ ;X%X>X^   ' *X[.o ` $X=X-X`   3 ' * O % t :.7.s.7.e.P.",
"K z r w v w.k.g.[ . ~ @X%X! ! $X=X}.3   * & 8 V 1.k.s.s.j.6.t.P.",
"I m q f :.<.a.l.:.* * #.>X)   / XX6 1 u 0 < A d.).'.V.j.7.=.Y P.",
"P m u } { ,.;.6.7.=.9 8 [ #.. . .X:X.X@.v ( v } <.n.M.8.2.p T R.",
"L I z } V i i Z 7.8.:.l 0 F 5   2 &X-X#Xo ! {.{.' k 5 { $.| Q P.",
"I I z r t q y d ;.a.5.C x N N x # [ .X;X3   ^ =X-X].  o ( | P.r.",
"I J m w < y V V f =.V S m m m D n l C X.@.*   2 |.&X~ o 5 C r.r.",
"R L m m c z f ;.f 7 z P I P P J S m l l N { k 8 { ,Xg.f s *.*.e.",
"o.o.n J J b e t e z J I T T Y G J P 0.G l u B w.4X9X,Xu.Y R *.r.",
"F.o.m J m m C f m K K U O.W W U J z.8XM.D c b F d.d.u.W Q Q e.r.",
"G.I.U +.F.K ,.u.F.D.t.r.+.+.O.W P q.j.6.Y R J c b b J W t.y.e.K.",
"K.r.Q E.^.Q r.U.K.U.6X5X+.Q O.O.W m z D W W E Q W R W O.7.p.r.K.",
"K.r.O.L.E.F.t.!.t.8.<X1Xy.Q W W +.W W +.Q Q K.P.K.+.+.+.P T r.K.",
"r.F.+.r.K.P.I.Q S s Z ,.0.+.+.+.+.+.+.+.+.K.K.K.+.r.r.r.K.K.r.K.",
"P.K.K.K.K.K.P.+.Q U I Q K.K.K.K.+.r.e.+.r.r.K.K.K.r.r.K.r.r.r.r."
};
