/* XPM */
static char *result[] = {
/* columns rows colors chars-per-pixel */
"32 32 214 2 ",
"   c #020101",
".  c #0B0A05",
"X  c #0E100E",
"o  c #161506",
"O  c #1B1B08",
"+  c #080916",
"@  c #0B0C19",
"#  c #151515",
"$  c #161816",
"%  c #181A16",
"&  c #13151A",
"*  c #181719",
"=  c #16181A",
"-  c #191B19",
";  c #221E0D",
":  c #0E211E",
">  c #1A2519",
",  c #1C221D",
"<  c #282805",
"1  c #3C3B06",
"2  c #26291C",
"3  c #2F311B",
"4  c #37391C",
"5  c #271E23",
"6  c #1B2124",
"7  c #1C242A",
"8  c #1B3425",
"9  c #242623",
"0  c #242A23",
"q  c #2A2D25",
"w  c #24272A",
"e  c #2C2E29",
"r  c #2C312A",
"t  c #283928",
"y  c #323B2D",
"u  c #38392B",
"i  c #2E3432",
"p  c #343637",
"a  c #343A33",
"s  c #3B3C34",
"d  c #403A31",
"f  c #1A4C26",
"g  c #1E4730",
"h  c #2A452A",
"j  c #264929",
"k  c #254E29",
"l  c #3D4328",
"z  c #285523",
"x  c #2C542C",
"c  c #2C5B2C",
"v  c #354135",
"b  c #3C4237",
"n  c #324E33",
"m  c #3D443D",
"M  c #3B4C3B",
"N  c #2D5731",
"B  c #345435",
"V  c #3A5532",
"C  c #345C33",
"Z  c #3A563C",
"A  c #2E622D",
"S  c #2F6E2E",
"D  c #3B702D",
"F  c #2F6C32",
"G  c #346433",
"H  c #346C33",
"J  c #386C36",
"K  c #3B653B",
"L  c #3A6C3A",
"P  c #377234",
"I  c #3A7335",
"U  c #3D7D35",
"Y  c #3D743A",
"T  c #3D7A3B",
"R  c #454406",
"E  c #54520B",
"W  c #5D5B09",
"Q  c #444515",
"!  c #464919",
"~  c #5A5811",
"^  c #696804",
"/  c #777702",
"(  c #61651F",
")  c #757411",
"_  c #474926",
"`  c #585D2B",
"'  c #464B36",
"]  c #41423A",
"[  c #445735",
"{  c #535B3D",
"}  c #47683D",
"|  c #566D33",
" . c #477F37",
".. c #40763E",
"X. c #417B3E",
"o. c #676B26",
"O. c #777523",
"+. c #64673B",
"@. c #797B3E",
"#. c #2C3246",
"$. c #3B3E44",
"%. c #3E7A40",
"&. c #424543",
"*. c #444C43",
"=. c #494F43",
"-. c #454B4B",
";. c #494F4C",
":. c #455344",
">. c #4C534C",
",. c #4C594D",
"<. c #525A49",
"1. c #454C52",
"2. c #4E4F51",
"3. c #4D5651",
"4. c #525453",
"5. c #535C55",
"6. c #545C5A",
"7. c #436246",
"8. c #426C42",
"9. c #4A6B4C",
"0. c #57614E",
"q. c #447341",
"w. c #437D41",
"e. c #4B7649",
"r. c #50754B",
"t. c #4B6553",
"y. c #536355",
"u. c #576557",
"i. c #5A635D",
"p. c #5D695D",
"a. c #56715A",
"s. c #646846",
"d. c #767E5A",
"f. c #565E62",
"g. c #5D6462",
"h. c #5C6A62",
"j. c #5E676C",
"k. c #5E7861",
"l. c #606563",
"z. c #626C65",
"x. c #63676C",
"c. c #636B6C",
"v. c #617164",
"b. c #65716A",
"n. c #67776A",
"m. c #6C7B6D",
"M. c #656475",
"N. c #6A7375",
"B. c #6D7A72",
"V. c #6C7479",
"C. c #717E75",
"Z. c #717B7D",
"A. c #3D8338",
"S. c #42823D",
"D. c #4D8E3F",
"F. c #3E8241",
"G. c #448342",
"H. c #4B8244",
"J. c #458A43",
"K. c #4A8A44",
"L. c #4D834B",
"P. c #4B8D49",
"I. c #51864D",
"U. c #4D9148",
"Y. c #559445",
"T. c #54984B",
"R. c #57855A",
"E. c #599657",
"W. c #6E884D",
"Q. c #629E46",
"!. c #6C9E6E",
"~. c #6C8877",
"^. c #728276",
"/. c #76857B",
"(. c #798978",
"). c #7A8B7D",
"_. c #6D9870",
"`. c #8A881A",
"'. c #91911A",
"]. c #A2A200",
"[. c #B0AD06",
"{. c #B3B104",
"}. c #AAAA18",
"|. c #9B9822",
" X c #868731",
".X c #A4A424",
"XX c #A3A538",
"oX c #CBC903",
"OX c #D6D507",
"+X c #C7C51E",
"@X c #E6DE0D",
"#X c #E1DE1E",
"$X c #EBE806",
"%X c #FFFF02",
"&X c #E1E012",
"*X c #F6F511",
"=X c #C6C227",
"-X c #8A8F4B",
";X c #747585",
":X c #7B8783",
">X c #7D848B",
",X c #7F9085",
"<X c #818B8A",
"1X c #849789",
"2X c #869393",
"3X c #899693",
"4X c #8B9D94",
"5X c #8D9B9A",
"6X c #93A49F",
"7X c #929CA1",
"8X c #96A5A3",
"9X c #99ADA6",
"0X c #A2B4AF",
"qX c #A7B9B3",
/* pixels */
"G.G.w.G.G.w.w.w.w.T L 9.u.7.L T G.%.w.w.F.F.F.J.G.K.J.J.G.G.G.J.",
"H.G.X.w.w.T w.G.T V ;.x.2X,Xa.%.J B h.9X9X~.R.P.%.K.J.J.G.J.K.G.",
"G.w.w.w.X.G.G.T K -.g.C.4X8X;X6.-.$.M.7X5X;X;Xk.A.J.K.K.G.Y.Q.K.",
"G.%.w.w.K.P.G.Y B 4.b./.^.B.N.N.Z.2X2XN.f.j.N.V.t.F D.Y.J.U.Y.J.",
"S...w.T.E.K.Y H [ c.m.z.i.i.z.N.5XqXqX5XN.f.V.8X>X6.E.Y.G.P.J.J.",
"w.X.e.E.G.e.e.C i.<X).b.3.5.5.4.B.8X9XqX6XV.:XqX5XM.n.U J.P.P.P.",
"w.H.L.I.C -.;.m b.(./.n.5.4.i.i.u.B.3X8X0X2XZ.>XN.1.t._.!.P.U.P.",
"..q.r.L.x w i &.5.p.z.i.z.z.^.1Xm.5.p.h.Z.:XN.Z.Z.j.6.,X4XE.T.G.",
"q.} q.X.B &.b m 3.h.h.6.i.p.v.k.:.r r r a ;.N.2X8X<Xx.7.r.L.X...",
"w...X.A >.z.>.>.c.1X1Xp.M y 2 $ X $ , 9 w a ,.h.:X;Xz.} Y L w. .",
"w.w.S.n 2.i.4.5.z.(.(.0.2 # # # # # # # , , 5 2 &.h.s.s.~.I.Y w.",
"G.w.T B &.3.u.;.<.u.<.] # # # % # # # # # # X * r =.s.0.>XR.Y ..",
"w.w.T [ s s 3.>.>.<.=.e # # % # # # * $ % % # # 7 <.XXW.1.:.S.G.",
"G.T C _ y i &.-.,.&.q # # & = = = - - - * & + @ 3 '.}.+.$.;.9.X.",
"Y Z { +.p #.1.<.' ] & + * - - - - - - - & @ 2 E R W { j.z.g.:...",
"H Z o._ _ .XXX X< 1 O.- @ & = & @ @ @ # X Q oX^ X w 1.B.^.i.} X.",
"F C ` = ^ %X%X+XQ . |..X4 % * % 2 4 ! O < {.[.< + i &.5.l.u.w.S.",
"P n d & E &X+X=XW   ) #X`.O / oX$X%X/   1 ) % + * e *.6.l.5.w.G.",
"S h 9 9 l 0.g.d.` . ~ }.+X1 R OX$X].< . > # 6 v <.h.p.p.g.4.e.J.",
"S x 0 s ;.>.i.j.-.# O O.=X~   Q |.4 > t 8 > M p.^.).B.g.5.&.K J.",
"H c t ] ] =.:.5.6.&.7 : | O.. . }.*X}.( ! _ l M >.v.C.i.<.u L U.",
"H H h ] b y y m 5.6.;.h 8 n 3   ; $X%XoXo R '.'.( u q _ +.[ A.G.",
"H H h q r 2 r a =.i.3.n k j k j : ` }.&X1   W $X%X].  o _ [ G.G.",
"H A x 0 , r b b a &.m c C c x C x g n | o.%   < [.@XE o 3 B w.w.",
"I D c c k h s =.s 9 h A J G C C C c f f k M ] 7 ' -X@.d u Y w.w.",
"S.D c c A z 0 e e t A J L L J C C G 8.C j t a 0.<X5X<Xt.G I ..w.",
"K.S.c C c A M a c S S I ....Y G A a.3Xm.B j z V a.a.t.Y T Y w.w.",
"K.K.I  . .F [ y.G.U w.G.X.X.....H 9.g.4.K D G k z z A I r.r.w.w.",
"G.w.T Y.Y.T X.L.G.e.4X1Xw.T ....Y c h C Y T Y T T I Y ..5.u.w.w.",
"G.X.%.H.Y.J.L.E.e.6.:X;X9.T T Y w.L Y X.T T A.G.G.X.X...G Y G.w.",
"w.w.w.w.%.G.G.U N p m :.8.S.X.X.....w.w.X.w.G.G.X.w.S.w.w.w.w.G.",
"G.G.G.G.G.K.K.w.T J J T S.G.G.X.w.w.w.X.w.G.G.G.w.w.w.G.w.w.w.w."
};
