/* XPM */
static char *result[] = {
/* columns rows colors chars-per-pixel */
"32 32 39 1 ",
"  c #397335",
". c #3F753D",
"X c #3E7C3C",
"o c #446E3F",
"O c #40763F",
"+ c #417A3F",
"@ c #4D674A",
"# c #506F4E",
"$ c #437541",
"% c #4C7346",
"& c #437C41",
"* c #4A7D46",
"= c #4D7D4A",
"- c #51744D",
"; c #3B8238",
": c #41813F",
"> c #448242",
", c #488446",
"< c #468943",
"1 c #498946",
"2 c #4C854A",
"3 c #4C8D4A",
"4 c #51834D",
"5 c #4D914B",
"6 c #52974F",
"7 c #558753",
"8 c #558D55",
"9 c #539551",
"0 c #589555",
"q c #559952",
"w c #5E925E",
"e c #698468",
"r c #619760",
"t c #6A9B6C",
"y c #6F9670",
"u c #739773",
"i c #819181",
"p c #869C88",
"a c #8BAC8B",
/* pixels */
">>>>&&&+&&$$OO+$>&&>>::>><<<<<><",
",>&&>X&>>$O&$.+$&OO,>>r8X<<<>>>>",
">>&&X&>&&$.$$+++&$+&:>82:<<><<,>",
">X&&15&+&$..+OO+&OOO&X.&&&,<15<>",
"&O*q9,$$&OO..OOOOOXO&OO>,O&:15<>",
"&X*02&O&&&O.OOOOO&&O.OOO1,..<52>",
">>44&+&&.$OO&OOO&O&OOOO.&58yt51>",
"$$%=&+$O.$&>,OOOOO&.OOX..4eipw1&",
"$oo$&&$XOO+&&OOO.OOOO&$$.-#@#=>&",
"&O++O&X$$+++OOOOOOOO$O&.OO&&.O&>",
"&+&&+&++++++OOOOOOOO.o..O.OO+&&+",
"+&O&&&++++++&OO&OO...$....:O&$OO",
">+&&&&+O++++&OOOOOOOO+OO+OO++$&&",
"+&&*&+&+++++++O.O&OOO&+O++&&&O&+",
"&>+&&++&+O+++OOOO&OOO.++++>>+$O&",
"+&+&&OX$++++++++&OOOO++++&,&++&&",
"&&O&O+X$++++++++.&.OOO&:&&>&&&&:",
"&+&&OO$$++++++++&.O&O&OOO&&::&>>",
"+++O+O$X++++++++:O&O:O&&&&&>:&,<",
"++OOO+&X++++++++&O:OOO&&&:>>&::<",
">+X$O&&$::++++++OOO&&:>>O:>>>:>>",
">&+$$&&.+&+++++O:OO&&O<,:,<:>,>&",
"&&O++OO++++++++OOOO:OO15><::,<&>",
"&&OOO+O&&+&+++++O&OOO.,551X;<>*>",
">++OOOO&*+++++++O++O*2*69&ua8+>>",
">>&&$O$&:+>*+++++++++422<*ei7;>&",
">:+,&++>:>:+++++O+++O%*&*>. +>>*",
">:+,*++X+,:++++++++++++>>:X.&>&>",
">&+&>:&2>+>++:++,&O$:>>:>:&*&>&>",
">+&+<:=w3::>:++>&&&&+><>>+&>*>&>",
">:+><>>>,+>>++++++O&&>>>++>&>>>>",
">>:><<>&:>:::,>>&&+&+>>>+>&>&&>*"
};
