/* XPM */
static char *result[] = {
/* columns rows colors chars-per-pixel */
"32 32 157 2 ",
"   c #1B0000",
".  c #001608",
"X  c #1B160C",
"o  c #1E1B0F",
"O  c #290E0C",
"+  c #3C0307",
"@  c #32070A",
"#  c #3A0708",
"$  c #340F0E",
"%  c #2B120D",
"&  c #221B0F",
"*  c #201C12",
"=  c #2F1E15",
"-  c #331611",
";  c #391E11",
":  c #0D2413",
">  c #022A15",
",  c #0A2912",
"<  c #192615",
"1  c #122B17",
"2  c #152F18",
"3  c #0F381D",
"4  c #103017",
"5  c #222514",
"6  c #202917",
"7  c #2F2917",
"8  c #2A2A18",
"9  c #312416",
"0  c #3E2F1E",
"q  c #21341B",
"w  c #2C321B",
"e  c #1D3D20",
"r  c #410001",
"t  c #4B0209",
"y  c #510000",
"u  c #770C0E",
"i  c #79100F",
"p  c #651911",
"a  c #4D281E",
"s  c #413A1E",
"d  c #6D311C",
"f  c #443823",
"g  c #613325",
"h  c #0B471F",
"j  c #144523",
"k  c #1C4422",
"l  c #1E4824",
"z  c #1D5127",
"x  c #1B5028",
"c  c #294725",
"v  c #224A26",
"b  c #2E4F2C",
"n  c #35482A",
"m  c #23532B",
"M  c #2C522C",
"N  c #245C2E",
"B  c #2D5A2F",
"V  c #31522B",
"C  c #325E2F",
"Z  c #2F5A30",
"A  c #3E5730",
"S  c #305E32",
"D  c #3D5F35",
"F  c #1F6131",
"G  c #1F6832",
"H  c #266130",
"J  c #2C6431",
"K  c #2E6B39",
"L  c #336434",
"P  c #376836",
"I  c #386937",
"U  c #36663B",
"Y  c #3B6538",
"T  c #366B3A",
"R  c #3D6D3C",
"E  c #2C7435",
"W  c #3B7537",
"Q  c #3A7837",
"!  c #35733C",
"~  c #3F723E",
"^  c #3E7C3B",
"/  c #484F32",
"(  c #455330",
")  c #6D4429",
"_  c #406733",
"`  c #416D3E",
"'  c #41753F",
"]  c #4B753E",
"[  c #427A3F",
"{  c #2A7A40",
"}  c #3E7240",
"|  c #367C44",
" . c #3E7C42",
".. c #466C44",
"X. c #4F644B",
"o. c #427640",
"O. c #4A7445",
"+. c #437C41",
"@. c #4A7D47",
"#. c #4E7F4B",
"$. c #52744E",
"%. c #51794D",
"&. c #546D51",
"*. c #7A6F46",
"=. c #850000",
"-. c #890003",
";. c #860309",
":. c #8E0908",
">. c #891E18",
",. c #A70102",
"<. c #A5070B",
"1. c #B10503",
"2. c #B61918",
"3. c #9E2727",
"4. c #933230",
"5. c #BD3F39",
"6. c #D91E19",
"7. c #F91616",
"8. c #FE1D1D",
"9. c #DA353D",
"0. c #D63D3A",
"q. c #FA2E26",
"w. c #EF2C34",
"e. c #F13B3C",
"r. c #84583C",
"t. c #B36455",
"y. c #FF5C5C",
"u. c #D8655B",
"i. c #D8695E",
"p. c #3C8239",
"a. c #40813E",
"s. c #3C8044",
"d. c #448242",
"f. c #488546",
"g. c #468943",
"h. c #498A45",
"j. c #4D844B",
"k. c #448B4A",
"l. c #4B8C49",
"z. c #51844D",
"x. c #4D924A",
"c. c #50954E",
"v. c #519B4E",
"b. c #558351",
"n. c #558D53",
"m. c #598D59",
"M. c #599757",
"N. c #569C53",
"B. c #6D846B",
"V. c #619160",
"C. c #639862",
"Z. c #6B9C6D",
"A. c #759775",
"S. c #799278",
"D. c #869387",
"F. c #889C8A",
"G. c #8BAB8B",
/* pixels */
"f.d.a.d.d.d.[ [ +.+.+.o.} o.' +.+.+.+.+.d.d.p.d.d.g.g.g.a.a.g.g.",
"f.d.[ +.+.[ [ d.+.+.~ +.+.~ ' +.[ [ +.f.d.d.C.m.p.d.g.g.g.g.a.g.",
"d.a.[ [ [ +.d.+.+.o.R o.o.' [ [ +.' o.+.d.d.n.j.p.f.h.f.g.h.h.g.",
"s.[ +.d.h.x.+.+.+.o.o.} o.' ~ o.' ' ' ' +.+.W [ +.+.f.g.g.h.x.g.",
"d.' +.N.c.f.o.+.+.o.o.o.R ~ } R ' ' ' ' ' o.' +.f.+.+.d.h.x.h.g.",
"[ [ @.M.j.+.' +.o.+.~ R ' o.` ` ' ' o.~ ' ' ' ~ f.f.^ W g.x.l.h.",
"[ f.z.%.+.[ o.+.} o.o.o.+.} } ` ' o.o.o.` ' ~ ` +.c.m.A.Z.j.c.h.",
"o.' O.#.d.' o.o.U ..@.+.f.` } R R o.} R ~ R ' R ` b.B.D.F.M.v.f.",
"O.` ` ] +.+.' ' R Y A +.+.o.` } } R } } R o.o.~ ` %.&.X.$.#.[ [ ",
"[ [ [ [ o.+.' ' +.V # ( ~ ~ L R o.R U T R o.+.` ~ ' o.o.' ' [ [ ",
"[ [ +.+.+.' ' [ +.Y o % f b H E J l m D U U ..R R W ' [ ' [ ' [ ",
"d.+.o.[ +.+.' ' } ! N z - o j 4 : j d 0.t...T R ' ' o.o.[ [ ' ' ",
"[ +.+.+.+.o.' ' o.K F h . O * : m M ,.8.w.r.{ ~ ' ' ' +.[ [ +.+.",
"d.[ +.+.+.o.o.[ | s >.4./ e @ q N 8 u :.=.) | ~ ' [ o.+.+.' +.+.",
"^ +.+.+.+.+.} s.b -.7.y.i.0   5 k 2 = $ = Y +.' o.+.d.+.[ +.' ' ",
"+.+.+.[ o.o.} K 9 ;.6.q.e.g , % c 3 k b L } ' [ ' +.f.@.[ +.[ [ ",
"+.+.' [ o.^ ~ B 5 t i 1.<.( G & a n x j l R o.o.' +.f.[ [ ^ d.+.",
"d.[ [ [ ' ~ R S m 5 @ + 7 ! P q O - 6 k z ~ o.} o.+. .d.d.+.d.d.",
"[ [ o.o.' o.~ R P L V M ! ~ R M > X 3.u.*.! [ ' [ +.a.d.s.d.d.g.",
"[ [ ~ o.' ~ ' ~ ' [ s.s.R Z U l > ; 2.9.5._  .+.' +.d.d.a.+.a.g.",
"+.[ o.' } +.o.o.[ [ ' +.S B e 1 v w r y p O.k.f.[ d.f.d.a.[ d.d.",
"d.+.[ ' o.+.o.~ [ ' ' ' C v c B Y m < X M d.x.j.[ g.g.d.f.f.d.d.",
"+.@.[ ' [ ~ ' ' +.' ' W B C P U I P I !  .' l.c.f.h.a.a.g.f.d.+.",
"a.[ ' ' ' ' ' o.o.o.o.R R ~ R R R } o.o.' Y l.N.c.h.Q p.g.a.@.d.",
"d.[ [ ' o.' ' +.+.[ +.o.o.o.o.R R ' ~ ' @.z.j.N.N.+.A.G.n.[ a.a.",
"f.a.+.+.o.' ' +.[ [ d.+.' ~ ' ' R ' ' ' O.n.z.j.x.+.B.S.z.[ d.d.",
"a.+.[ f.+.' +.+.d.d.d.[ ' [ ' ' ' ' ' [ ` O.#.] +.d.' Q [ f.d.f.",
"d.a.[ f.f.[ [ ^ +.a.[ [ [ d.[ ' +.+.' [ [ ' [ a.d.d.a.d.d.a.[ @.",
"d.+.[ d.f.a.d.j.f.a.d.[ [ [ [ +.@.+.o.o.[ f.a.d.a.@.a.f.d.a.f.] ",
"d.[ +.[ d.a.@.V.j.a.a.d.[ [ [ +.+.+.o.+.[ d.g.d.@.d.d.] @.a.d.f.",
"a.+.a.d.d.g.d.+.d.+.a.d.a.[ [ a.+.[ +.+.[ d.f.+.a.+.a.f.@.d.d.d.",
"d.d.d.a.d.d.f.d.a.d.d.d.d.d.d.[ +.[ +.+.[ d.a.d.d.d.@.d.a.a.a.@."
};
