/* XPM */
static char *result[] = {
/* columns rows colors chars-per-pixel */
"32 32 216 2 ",
"   c #00030E",
".  c #2C1100",
"X  c #3C281B",
"o  c #3D3919",
"O  c #2B1A20",
"+  c #203728",
"@  c #3C3B2D",
"#  c #4B1D19",
"$  c #472817",
"%  c #503614",
"&  c #6E2A11",
"*  c #552B26",
"=  c #453B28",
"-  c #5A3728",
";  c #4B3431",
":  c #443C30",
">  c #602D22",
",  c #6A3726",
"<  c #753422",
"1  c #793521",
"2  c #733A26",
"3  c #264B1D",
"4  c #1C5D2E",
"5  c #3C432D",
"6  c #384C28",
"7  c #2D522D",
"8  c #3A4831",
"9  c #2E5630",
"0  c #385B34",
"q  c #3B5C34",
"w  c #1A6233",
"e  c #2B662A",
"r  c #31692C",
"t  c #37752F",
"y  c #296634",
"u  c #366535",
"i  c #386536",
"p  c #356A34",
"a  c #396A37",
"s  c #36653B",
"d  c #346C3B",
"f  c #3B6C39",
"g  c #27773C",
"h  c #367232",
"j  c #377535",
"k  c #34743B",
"l  c #3D743C",
"z  c #3D7B3D",
"x  c #454A27",
"c  c #5A4629",
"v  c #485628",
"b  c #4B4F31",
"n  c #595633",
"m  c #525E3C",
"M  c #684628",
"N  c #774429",
"B  c #6B4334",
"V  c #694938",
"C  c #7B4B36",
"Z  c #675A35",
"A  c #466B3A",
"S  c #40763E",
"D  c #417A3F",
"F  c #636636",
"G  c #396E48",
"H  c #367741",
"J  c #347C41",
"K  c #3C7D42",
"L  c #544A43",
"P  c #53545B",
"I  c #794C47",
"U  c #476A44",
"Y  c #506F4E",
"T  c #427541",
"R  c #487642",
"E  c #437C41",
"W  c #4D7C4B",
"Q  c #52764B",
"!  c #557D55",
"~  c #5C7059",
"^  c #796A5D",
"/  c #4F6674",
"(  c #6B747A",
")  c #727B78",
"_  c #85350C",
"`  c #BB5319",
"'  c #884527",
"]  c #964928",
"[  c #96502F",
"{  c #844B33",
"}  c #885735",
"|  c #99563B",
" . c #AA552C",
".. c #B85D2C",
"X. c #A75837",
"o. c #A46331",
"O. c #B66233",
"+. c #C04E1D",
"@. c #D45C20",
"#. c #CD622B",
"$. c #DC672B",
"%. c #C56837",
"&. c #CE6F3E",
"*. c #D76A36",
"=. c #CF703C",
"-. c #DA743B",
";. c #EE722D",
":. c #FF792A",
">. c #EC783D",
",. c #F37B37",
"<. c #FF7D32",
"1. c #865A49",
"2. c #965144",
"3. c #97694A",
"4. c #817045",
"5. c #AC6947",
"6. c #BD6D43",
"7. c #B96844",
"8. c #A06B54",
"9. c #BD7755",
"0. c #90726E",
"q. c #B77F6C",
"w. c #C46C45",
"e. c #D36E40",
"r. c #CA7246",
"t. c #C9754C",
"y. c #D57848",
"u. c #DC7C4B",
"i. c #C67A54",
"p. c #D37D52",
"a. c #DA7E50",
"s. c #E57A47",
"d. c #E27F50",
"f. c #3D833C",
"g. c #41813E",
"h. c #308143",
"j. c #3D8343",
"k. c #448242",
"l. c #498546",
"z. c #458944",
"x. c #498945",
"c. c #48864B",
"v. c #4B8C49",
"b. c #51874E",
"n. c #439249",
"m. c #4C924B",
"M. c #558D55",
"N. c #588758",
"B. c #65846A",
"V. c #669966",
"C. c #738D73",
"Z. c #709370",
"A. c #73A46E",
"S. c #F6813F",
"D. c #FE833B",
"F. c #A78874",
"G. c #B58D79",
"H. c #DE804F",
"J. c #C2805F",
"K. c #EF814C",
"L. c #F48243",
"P. c #FE8543",
"I. c #FF8B45",
"U. c #F4854A",
"Y. c #FF8C4D",
"T. c #FF924A",
"R. c #E48452",
"E. c #F88453",
"W. c #FC9459",
"Q. c #D98D68",
"!. c #D09879",
"~. c #EA9060",
"^. c #FFA76C",
"/. c #FFAF71",
"(. c #5A7281",
"). c #799C84",
"_. c #7B8D99",
"`. c #75A590",
"'. c #928E8F",
"]. c #849785",
"[. c #8EA887",
"{. c #9FBF99",
"}. c #939FA6",
"|. c #99A7AE",
" X c #97AAAF",
".X c #9DB5BA",
"XX c #A7A7AC",
"oX c #B6A4A3",
"OX c #B8B7AB",
"+X c #D09C83",
"@X c #D4A78D",
"#X c #C8A898",
"$X c #FFBB8F",
"%X c #F6B699",
"&X c #C3B9BA",
"*X c #FBCFB5",
"=X c #94B5C3",
"-X c #B0BBCE",
";X c #CBBDC4",
":X c #AEC6C9",
">X c #BAC5C9",
",X c #B6CEED",
"<X c #D3C2C6",
"1X c #C8D4D8",
"2X c #DBD5D4",
"3X c #F3E4D4",
"4X c #DCDCE2",
"5X c #CFE3FA",
"6X c #E5E8E5",
"7X c #FFEFE5",
"8X c #F5F4EC",
"9X c #FEF7EC",
"0X c #ECF2F3",
"qX c #FEFEF3",
"wX c #F2FDFF",
"eX c #FFFFFE",
/* pixels */
"k.k.j.k.D j.k.D D E D T T l T E E E T k.g.k.g.g.g.x.g.x.x.x.x.g.",
"l.k.E E k.E A D k.T S E D G T E D D T l.l.g.V.M.g.l.x.x.g.g.g.x.",
"k.E E E j.n , A k.K G T D S D E E T D E g.k.M.c.g.x.x.g.x.x.x.k.",
"k.z E z.U 2 > 0 z.D S l S D E K K K K D g.D S D D D g.x.x.v.x.k.",
"E S l.m.V < % = k z S S K K q x % % A D D S l D l.D D g.x.m.x.g.",
"k.K c.Q , > X * c k J l.k o & & I 2.n K D S S S x.x.D S z.m.x.k.",
"z l.c.M < 2 , - *.o.0 y X & 3.|.5X<Xv k D S l S D v.M.Z.V.x.x.l.",
"T T G N ] O.&.&.L.I...$ _ q.,X5XeX2Xx k S S D l A b.B.].].V.x.D ",
"T T 0 1 s.P.P.I.P.I.I.$.#.oX,X4XeX<X6 z z T T T S Q Y Y Y W g.k.",
"E j.8  .Y.P.P.P.P.P.I.Y.S.%.5.#XeX'.3 K T T E T S D E T f S E E ",
"K k M s.U.P.P.P.P.P.P.P.I.D...0.-XV e T S l A k k k z K D D D D ",
"k.u [ Y.L.P.P.P.P.P.D.P.S.L.>.+X0.o K T H d U Z F A r j R R S D ",
"j.0 %.T.K.P.P.P.P.P.P.P.S.>.y.p.< 7 g.z k 3.s.d.E.!.[.k.h D D E ",
"f.C =.$ #.D.<.P.P.P.T.T.S.>.%.X.= g h.g 4.Y.s.d.~.%X7X6XM.e D T ",
"r $.@.. [ ^.^.:.:.I.-.O.I.P.=.{ M Q F 6 C u.p.i.9.@X9XeX8XN.h z ",
").*XW.!.OXXXOX*XW.:.%   -.T.y.[ N e.>.#.' B 9.J.9.#X2X2XeX6XN.h ",
"`.eXeXwXwX'.( eXeX$X` _ ;.,.-.] $ e.T.T.D.] V 9.i.G.XXXX&XeX{.e ",
"H :XeXeXeXeXeXeXeXeX3X/.W.~.!.F.; N s.P.T.s.- V 8.0.0.) ) ;X8Xm.",
"h d >XeXeXeXeXqXqXeXeXeXeX8X>X>X XL X.u.K.s.2 ; I ^ ! D K N.OXA.",
"g.r G >XeXeXqXqXqX9XqXeXeX>X_.(./ 1.6.p.a.y.B @ m E f.g.z t g.v.",
"E T r G  X6X9XqXqXqXqX1X'.P L V C 7.p.t.r.w.m J f.g.k.k.g.g.z g.",
"k.k.E h e B.|.}.|..X_.P ; 2 [ X.6.H.t.| w.w.W n.D l.l.g.k.l.k.k.",
"E E D T h D  X=X=X X} ] [ 5.7.t.R.u.| | a.7.R n.k.x.g.g.k.l.E k.",
"k.D S D H j N.0XeX*X*.%.r.r.6.6.5.- @ 5.d.2.q m.m.v.z f.z.l.k.E ",
"k.D E T S k v Q.eXeXH.,.U.s.C 8 O + y n X.{ 8 z.v.l C.[.M.D g.k.",
"k.k.E E E J Z +.F..XO.D.P.=.v w 7 u k 9 , < 5 l l a ~ C.Q D k.k.",
"k.D D E T u M ] x 4 } #.O.{ q d p p a p @ # 5 a f f r e a S D k.",
"g.k.D D d x 1 * 6 r M ' 2 - u p i a i i 0 7 i f f l l l S D E k.",
"k.g.l f k v ; b p q > , , : u p f i i a h D D g.g.l.E E D E l.E ",
"k.D S l l k G W D u : ; ; @ p a f a f f S g.g.x.g.E E D k.k.E k.",
"k.D g.k.g.k.l f l j k d s s z z T l T E D l.g.l.D E E l.E g.l.D ",
"k.k.k.k.k.k.z.D D D g.k.k.k.k.k.E E E E D D l.l.g.E g.D l.l.D l."
};
