/* XPM */
static char *result[] = {
/* columns rows colors chars-per-pixel */
"32 32 214 2 ",
"   c #00010E",
".  c #331403",
"X  c #3B2A1C",
"o  c #2C1F22",
"O  c #203227",
"+  c #393B28",
"@  c #3C3F30",
"#  c #471E15",
"$  c #5E2202",
"%  c #442A18",
"&  c #50271F",
"*  c #463614",
"=  c #533412",
"-  c #75290B",
";  c #6D2E1D",
":  c #562B25",
">  c #45392A",
",  c #5D3122",
"<  c #533928",
"1  c #443130",
"2  c #503934",
"3  c #693827",
"4  c #773322",
"5  c #733C26",
"6  c #27441D",
"7  c #1C5C2D",
"8  c #3C4B2A",
"9  c #2C562B",
"0  c #2E512E",
"q  c #345A33",
"w  c #3B5B34",
"e  c #196433",
"r  c #2B612C",
"t  c #32692C",
"y  c #2F712B",
"u  c #35742E",
"i  c #256836",
"p  c #356334",
"a  c #386736",
"s  c #356C35",
"d  c #396A37",
"f  c #376639",
"g  c #336D3A",
"h  c #3B6C39",
"j  c #2B7137",
"k  c #2A743C",
"l  c #367433",
"z  c #35733B",
"x  c #387638",
"c  c #3D743C",
"v  c #3D7A3D",
"b  c #46441F",
"n  c #444B2C",
"m  c #5B4528",
"M  c #505629",
"N  c #434433",
"B  c #524F31",
"V  c #485A35",
"C  c #555633",
"Z  c #664628",
"A  c #78442A",
"S  c #664838",
"D  c #645233",
"F  c #795337",
"G  c #45693B",
"H  c #41763F",
"J  c #4A703E",
"K  c #417A3F",
"L  c #666239",
"P  c #386E46",
"I  c #2A7C41",
"U  c #337A42",
"Y  c #3D7D42",
"T  c #5A4843",
"R  c #4E4F54",
"E  c #64564B",
"W  c #7E5D51",
"Q  c #4A6944",
"!  c #437541",
"~  c #437D41",
"^  c #48764C",
"/  c #517647",
"(  c #587555",
")  c #687947",
"_  c #727746",
"`  c #555960",
"'  c #4D6879",
"]  c #656E73",
"[  c #85350C",
"{  c #823E23",
"}  c #8C3F2D",
"|  c #BE511A",
" . c #964A28",
".. c #98522D",
"X. c #874D36",
"o. c #924934",
"O. c #845B32",
"+. c #955539",
"@. c #A7542C",
"#. c #B0592D",
"$. c #A65834",
"%. c #A35A3E",
"&. c #A66438",
"*. c #B86238",
"=. c #C15E23",
"-. c #CD6227",
";. c #DB6528",
":. c #CD6535",
">. c #C86A3A",
",. c #D56A38",
"<. c #D2733D",
"1. c #DC7038",
"2. c #E8702F",
"3. c #FF7A29",
"4. c #EA773C",
"5. c #F47B37",
"6. c #FF7B31",
"7. c #855747",
"8. c #975A46",
"9. c #A96545",
"0. c #B56947",
"q. c #BC6942",
"w. c #BD714A",
"e. c #98726B",
"r. c #B87F6A",
"t. c #C96F4B",
"y. c #CA7245",
"u. c #C9764B",
"i. c #D97546",
"p. c #D27B4E",
"a. c #DD7C4B",
"s. c #D57D52",
"d. c #E67945",
"f. c #F07E40",
"g. c #E47F51",
"h. c #3C8339",
"j. c #41813F",
"k. c #3C8342",
"l. c #398443",
"z. c #448242",
"x. c #498546",
"c. c #458943",
"v. c #498946",
"b. c #4A864C",
"n. c #4A8D48",
"m. c #44934B",
"M. c #4D914B",
"N. c #538756",
"B. c #558D55",
"V. c #5B8067",
"C. c #658667",
"Z. c #639863",
"A. c #70936F",
"S. c #758775",
"D. c #6F9571",
"F. c #7C9073",
"G. c #FF8033",
"H. c #FF823A",
"J. c #AA8670",
"K. c #A0A37D",
"L. c #D98355",
"P. c #F48142",
"I. c #FE8543",
"U. c #FF8B45",
"Y. c #F3834B",
"T. c #F88749",
"R. c #FF8C4B",
"E. c #FF944B",
"W. c #E58956",
"Q. c #FF8E53",
"!. c #CB8966",
"~. c #CF997B",
"^. c #D3987A",
"/. c #FD9A63",
"(. c #FFA46E",
"). c #FFA770",
"_. c #FFB175",
"`. c #5E7585",
"'. c #7E8F9A",
"]. c #799790",
"[. c #74A490",
"{. c #8F9C8F",
"}. c #889399",
"|. c #BC9C92",
" X c #8BAA8A",
".X c #9D9EAA",
"XX c #AB9EA2",
"oX c #97A8AD",
"OX c #95AEAD",
"+X c #9CB5B8",
"@X c #A9AFB0",
"#X c #B0B3B4",
"$X c #DFA58E",
"%X c #FFBF94",
"&X c #FFCAAE",
"*X c #F4CEB6",
"=X c #96B6C4",
"-X c #BABCC8",
";X c #A7C2CE",
":X c #BAC8CC",
">X c #B5CBEA",
",X c #C6CCCC",
"<X c #CCD4D9",
"1X c #E2D4D9",
"2X c #D9E0D6",
"3X c #FFE4CD",
"4X c #CADEF9",
"5X c #E5E3E8",
"6X c #F3EFE7",
"7X c #FBF6EC",
"8X c #EEF9FF",
"9X c #FEFDF3",
"0X c #F6F9F9",
"qX c #FFFFFE",
/* pixels */
"z.z.j.z.~ Y k.K Y ~ ~ ! P H K ~ ~ ~ K ~ z.j.j.j.x.j.j.v.j.v.j.j.",
"x.z.~ ~ z.z.G K ~ ! ! ~ H H ! ~ ~ H ! x.z.z.Z.B.j.v.v.n.v.j.j.n.",
"z.~ ~ Y l.C 3 G c.Y h H K H K ~ ~ ~ ~ ~ z.z.N.b.j.x.v.j.j.v.v.x.",
"z.K ~ c.! 4 ; w c.! ! Y H K ~ Y U Y Y K K K x ~ K j.v.j.n.M.v.j.",
"z.c z.B.S 4 , > z k.H ! Y v p b = * V h.v K H ~ x.K K K n.M.n.j.",
"~ ~ n./ 3 , X & Z s U z.h 8 $ ; 7.8.D x v H H H v.j.K H j.M.v.x.",
"~ x.b.C 4 Z 3 : :.&.q i X - 8..X4X1XB s ~ H H H K M.B.A.Z.n.n.j.",
"! ! G A  .*.>.<.U.H.*.% [ r.>X4XqX5XB s ! c v H G N.C.F.{.Z.v.K ",
"! ! q 5 4.U.T.U.I.U.U.2.-.|.>X2XqX1X8 x ! K K H H h q Q #XF.v c.",
"~ k.8 #.R.U.I.I.I.H.I.R.5.>.0.|.qXXX6 v H ! ~ z j N. X2XqXD.y z.",
"z.z Z i.T.I.I.I.I.I.I.I.R.H.=.e.-XE 9 z.H H j P K.6XqXqX7XC.y ~ ",
"c.r o.R.Y.I.I.I.I.I.I.I.f.P.5.~.e.* x ! P j _ W.(.&X7XqX,X^ l H ",
"l.q >.R.f.P.I.H.I.I.H.I.H.1.i.s.{ 6 Y Y k ) Q.I.d.s.*X7X{.P v ~ ",
"k O.<.% *.6.G.H.I.I.U.E.I.4.>.$.< I U I J a.Y.a.u.w.!.$Xe.I v ~ ",
"s ;.;.. @.(.).G.3.I.<.*.U.U.<...m ) L w F i.w.0.9.9.0.0./ x ! K ",
"].&X/.~.#X@X@X*X/.3.=   <.E.a.+.3 ,.4.,.@.Z 7.8.+.8.o.D K ~ ~ K ",
"[.qXqX8X0X}.] qXqX%X| [ 2.5.1.@.# *.E.U.I.@.< X.+.} S c h.~ ~ ~ ",
"z ;XqXqXqXqXqXqXqXqX3X_.Q.W.^.J.T 3 i.I.R.I.5 : 3 B Y k.~ ~ z.z.",
"u z :XqXqXqXqX9X7XqXqXqXqX7X:X:X@XR ..a.Y.g.+.n P k.k.z.z.z.z.c.",
"~ y P ,XqXqX9X9X9X9XqXqXqX:X'.`.' W q.p.a.i.F U l.Y z.z.K ~ j.c.",
"~ ~ t P OX5X7X9X9X9X9X<X}.` T S F 9.L.u.y.t.D l.K j.z.z.j.z.z.z.",
"~ ~ ! l r V.oXoXoX+X'.` 2 3  .$.q.s.p.%.q.t./ l.~ z.x.z.z.c.z.~ ",
"~ ~ K K s x OX;X=XOX7. .@.9.0.t.W.a.%.o.p.t.J m.x.v.j.j.z.x.~ x.",
"x.K H K Y z b.5XqX*X,.-.y.u.q.q.9.3 + 8.g.%.V m.M.n.h.h.c.x.~ ~ ",
"~ K ~ ! H U M !.7X0XL.5.P.d.O.8 o O e C $.o.N x.n.H A. XB.j.j.x.",
"x.j.~ ~ ~ U D | J.+Xw.G.I.<.V e 0 p c r < 4 > h c a ( S./ K ~ j.",
"j.j.K ~ H p Z } > 7 O.:.#.X.w s g s d s + % + a d d p 9 d H K x.",
"j.z.K H s n { & 8 y 3 { 5 < q s a f a d w 0 p x x c x H H K K x.",
"z.K c h x V < N p w 3 3 3 1 p d h f p a h v K j.j.~ j./ K ~ x.~ ",
"z.K H c c l f ^ v p @ > 1 8 p d h h h h H j.j.v.x.j.~ K j.j.K x.",
"z.j.j.z.j.~ Y c c x z g p f v K K H H ! K j.j.x.K K j.x.K x.x.K ",
"z.z.z.z.z.c.c.K K K K z.z.c.z.z.K ~ ~ ~ K x.~ j.x.j.K j.x.K j.x."
};
