/* XPM */
static char *result[] = {
/* columns rows colors chars-per-pixel */
"32 32 215 2 ",
"   c #00040E",
".  c #220C00",
"X  c #39291B",
"o  c #2D1D21",
"O  c #1E2F26",
"+  c #393B27",
"@  c #3C3D30",
"#  c #4B1D1A",
"$  c #681F01",
"%  c #4A2A12",
"&  c #732E0A",
"*  c #6C2510",
"=  c #67331D",
"-  c #592B23",
";  c #46352F",
":  c #433E29",
">  c #573626",
",  c #543B26",
"<  c #4E3C3A",
"1  c #602E23",
"2  c #613523",
"3  c #6B3927",
"4  c #763723",
"5  c #673D30",
"6  c #29441D",
"7  c #1B5B2D",
"8  c #334F2D",
"9  c #2A562B",
"0  c #38532E",
"q  c #375A37",
"w  c #3B5D34",
"e  c #186433",
"r  c #28642B",
"t  c #2D6B2A",
"y  c #36742D",
"u  c #286936",
"i  c #366434",
"p  c #386736",
"a  c #356C35",
"s  c #386836",
"d  c #37653A",
"f  c #346C3A",
"g  c #3B6C39",
"h  c #2C793C",
"j  c #357232",
"k  c #397935",
"l  c #34743A",
"z  c #3D743C",
"x  c #32793D",
"c  c #3E7A3D",
"v  c #494519",
"b  c #43472D",
"n  c #584627",
"m  c #455526",
"M  c #444534",
"N  c #584B35",
"B  c #495635",
"V  c #595535",
"C  c #634627",
"Z  c #604E26",
"A  c #7A4027",
"S  c #734835",
"D  c #665A31",
"F  c #785E31",
"G  c #4E6E37",
"H  c #426E3C",
"J  c #4A6838",
"K  c #59663A",
"L  c #41763F",
"P  c #427B3F",
"I  c #696139",
"U  c #3A7047",
"Y  c #347A42",
"T  c #3C7E43",
"R  c #514849",
"E  c #6D554C",
"W  c #496A43",
"Q  c #437641",
"!  c #437D41",
"~  c #4C7D4C",
"^  c #55754A",
"/  c #537A53",
"(  c #756E47",
")  c #555B63",
"_  c #5C656D",
"`  c #833F22",
"'  c #B84C17",
"]  c #BC591E",
"[  c #8B4629",
"{  c #964624",
"}  c #944D2E",
"|  c #9E532D",
" . c #8A4A34",
".. c #904A33",
"X. c #855938",
"o. c #9A5634",
"O. c #AC562E",
"+. c #A3582D",
"@. c #A55835",
"#. c #A95B3B",
"$. c #976E3D",
"%. c #A3623F",
"&. c #BC6639",
"*. c #C45C2B",
"=. c #D46329",
"-. c #C16333",
";. c #C4693B",
":. c #C96A38",
">. c #D66937",
",. c #D3723C",
"<. c #DE743C",
"1. c #E8712E",
"2. c #FF7D26",
"3. c #FF772C",
"4. c #E26F3D",
"5. c #E6763B",
"6. c #FF7E36",
"7. c #F17A3A",
"8. c #855A47",
"9. c #A85B40",
"0. c #966D5F",
"q. c #AB6646",
"w. c #B76643",
"e. c #BC6A42",
"r. c #AF7556",
"t. c #97797B",
"y. c #C86D48",
"u. c #D06F48",
"i. c #CA7345",
"p. c #C8734A",
"a. c #DB7342",
"s. c #D8794A",
"d. c #D27D51",
"f. c #E77942",
"g. c #E37D4A",
"h. c #E47F50",
"j. c #41813F",
"k. c #298144",
"l. c #3C8343",
"z. c #3B8644",
"x. c #448242",
"c. c #458944",
"v. c #498945",
"b. c #478848",
"n. c #4A8C4A",
"m. c #4C914A",
"M. c #538752",
"N. c #558E54",
"B. c #529356",
"V. c #66886C",
"C. c #669966",
"Z. c #6F9671",
"A. c #7A947E",
"S. c #FE823A",
"D. c #A7846D",
"F. c #DB8355",
"G. c #EE8044",
"H. c #F48244",
"J. c #FE8542",
"K. c #FF8B45",
"L. c #F1844B",
"P. c #F9874B",
"I. c #FF8C49",
"U. c #FF9247",
"Y. c #FF914D",
"T. c #E68654",
"R. c #F38D55",
"E. c #FF985C",
"W. c #CA8A69",
"Q. c #D09476",
"!. c #EB9269",
"~. c #FFA565",
"^. c #FFA16F",
"/. c #F7A579",
"(. c #637B8A",
"). c #7C9684",
"_. c #78A794",
"`. c #849886",
"'. c #908E93",
"]. c #BB9E9E",
"[. c #8EAB92",
"{. c #BAA69B",
"}. c #879AA3",
"|. c #8CAFA8",
" X c #95A8A8",
".X c #9FABB0",
"XX c #97B5BC",
"oX c #ADAFAF",
"OX c #B5AFAF",
"+X c #A4B9B9",
"@X c #FFB88C",
"#X c #ABC1A9",
"$X c #FFC2A3",
"%X c #E0C7B7",
"&X c #F8CBB6",
"*X c #FDD0B2",
"=X c #9FBDD2",
"-X c #B3BCCA",
";X c #B6CCD2",
":X c #BBD2EE",
">X c #C7CCCB",
",X c #D0CAD2",
"<X c #C7D2D7",
"1X c #E4D7D9",
"2X c #FFE7D7",
"3X c #CDDBEE",
"4X c #E8DFE8",
"5X c #D7E1E0",
"6X c #E6E8ED",
"7X c #FFEFE6",
"8X c #FCF2E9",
"9X c #ECF6FB",
"0X c #FEFDF4",
"qX c #F1FDFF",
"wX c #FFFFFF",
/* pixels */
"x.x.j.x.! P x.! P ! P Q Q U L Q P P ! x.x.j.j.j.x.c.v.j.v.j.v.j.",
"b.x.c x.x.l.L P x.Q z ! L L P Q ! P ! x.x.x.C.N.j.x.v.j.j.v.j.v.",
"x.x.! ! z.B 2 H b.L z P P P P ! Q Q Q ! x.j.M.b.j.v.v.v.v.v.v.x.",
"! P Q c.~ 4 = w z.Q Q z L L Q z.l.l.! ! ! j t P P P v.j.v.m.v.x.",
"x.c x.B.V 4 1 : x l.Q U T x.g b v v J l M.#XV.t j.P P P v.m.m.x.",
"P Q n.~ 3 1 X - n h T x.T m % * 3  .Z l j 5XwX).y j.P L j.m.v.x.",
"x.x.n.V = 3 - - *.o.u u + $ ..'.<X,XN y r [.wXwX`.k N.Z.C.v.v.x.",
"Q Q W S { +.;.&.H.J.@.X & q.=X3XwX4XB a r [.wXwXwXV./ `.`.C.v.x.",
"Q Q q 4 <.H.H.I.J.I.J.=.] ].:X5XwX1X0 y t +XwX0XwX>Xq W ^ ~ P x.",
"! l.0 | I.K.J.J.J.J.K.U.S.;.r.{.wX].6 h J %XwXwXwX8X/ j U L ! ! ",
"j.x C a.P.H.J.J.J.J.J.J.I.S.] 0.>XE 9 h $.@X2X7X2X&X( t P ! P P ",
"x.q } P.L.J.J.J.J.J.J.J.H.H.G.Q.t.+ h J a.^././.!.!.( l ! L L L ",
"z.q -.I.H.H.J.J.J.J.S.J.H.5.a.F.` 8 Y K 4.L.R.L.f.a.I Y ! L ! ! ",
"h F <.> -.6.6.S.J.J.K.U.S.7.;.#.> u k.D ,.<.G.G.g.u.K T ! L Q ! ",
"t =.=.. | E.~.2.3.K.f.:.K.K.,.} n K J C } &.a.a.s.w.G l.! L L L ",
"A.$XR.W.{.oXOX*XI.2.2   ,.U.s.o.C :.5.-.[ 2 o.y.u.8.x.! P ! ! P ",
"_.wXwX9XqX'._ wXwX@X' & 1.S.1.O.# ;.Y.U.J.+.> .. .z z.P P ! ! P ",
"Y ;XwXwXwXwXwXwXwXwX*X~.P.T.!.D.N 4 f.P.I.f.A , g l.x.x.! x.x.x.",
"y U <XwXwXwXwX0X0XwXwXwX0X8X>X-X+XR } g.L.h...p z.P x.! x.x.x.c.",
"P t U <XwXwX0X0X8X0X0XwXwX<X}.(.(.E &.d.s.s.F z T ! x.x.P j.j.c.",
"P Q t U +X6X0X0XwX0X0X5X}._ R R S q.d.p.p.u.I k.! j.x.x.j.P x.x.",
"x.! P k 9 V..X X.XXX}.) < 3 } +.w.d.p.q.e.p.^ z.! v.x.j.x.b.x.x.",
"! ! L P j c |.=X=X|.8.[ | %.q.p.F.s.#. .d.y.W c.! x.P c x.v.x.! ",
"! P L L z a ~ 6X0X&X=.:.i.i.y.&.w.5 + q.h.9.B z.! z a k x.x.! x.",
"x.! Q L L c m W.wXwXF.1.H.f.X.b o O e V @...M T x.p V._.B.c j.x.",
"x.x.! ! ! Y D ' 0.+Xy.S.J.<.B e 9 i z r > 4 : z L g V.D.M.c ! x.",
"x.P P x.Q d C ` : 7 X.>.&. .w a d d p f + # + p z x.z k P ! x.! ",
"x.j.P L f b ` 1 8 t n ` 3 > i s s s p s i 8 i P j.x.j.P ! ! x.x.",
"x.P z g z 0 , M p w - 4 2 ; i a g s p p g c j.j.v.P P P ! x.~ j.",
"j.P L L z l d / L i b ; ; @ i s g s g g P P j.v.P P P ~ ! x.x.j.",
"x.j.j.j.x.j.T z z j l d d g c P T z Q Q ! x.x.x.P P j.x.^ P ~ j.",
"x.x.x.x.x.c.x.P P x.j.x.x.x.x.x.P ! Q x.P x.x.x.x.j.j.j.j.v.j.j."
};
