/* XPM */
static char *result[] = {
/* columns rows colors chars-per-pixel */
"32 32 207 2 ",
"   c #000810",
".  c #2B1000",
"X  c #29181F",
"o  c #3E2818",
"O  c #203D29",
"+  c #491E1A",
"@  c #482518",
"#  c #522F1A",
"$  c #4F3518",
"%  c #612101",
"&  c #712A12",
"*  c #71311D",
"=  c #572A23",
"-  c #463A2B",
";  c #573728",
":  c #452F30",
">  c #4A3C37",
",  c #523A35",
"<  c #682E23",
"1  c #623525",
"2  c #673427",
"3  c #733523",
"4  c #773A27",
"5  c #1F5B2D",
"6  c #3B452E",
"7  c #384828",
"8  c #2D522F",
"9  c #32542F",
"0  c #394830",
"q  c #395734",
"w  c #355C32",
"e  c #3A5C32",
"r  c #1B6132",
"t  c #2B672B",
"y  c #306C29",
"u  c #36722E",
"i  c #286534",
"p  c #366535",
"a  c #386636",
"s  c #366A35",
"d  c #396936",
"f  c #39663C",
"g  c #346B3A",
"h  c #3B6D3A",
"j  c #2C7439",
"k  c #367232",
"l  c #35723A",
"z  c #3D743C",
"x  c #347A3E",
"c  c #3D7B3D",
"v  c #4E4119",
"b  c #474528",
"n  c #445229",
"m  c #545527",
"M  c #4E4E37",
"N  c #584E35",
"B  c #674527",
"V  c #784529",
"C  c #67542F",
"Z  c #7E512A",
"A  c #664B39",
"S  c #7B4832",
"D  c #665334",
"F  c #7C553A",
"G  c #466B3B",
"H  c #496D39",
"J  c #52643A",
"K  c #41763E",
"L  c #417A3F",
"P  c #57753D",
"I  c #2E7740",
"U  c #387545",
"Y  c #3C7D42",
"T  c #5B4741",
"R  c #55575D",
"E  c #6A5B5B",
"W  c #486A44",
"Q  c #506F4E",
"!  c #427541",
"~  c #437D41",
"^  c #43764C",
"/  c #4D7C4B",
"(  c #54744A",
")  c #587E58",
"_  c #536774",
"`  c #717578",
"'  c #87380E",
"]  c #AF4A10",
"[  c #844325",
"{  c #8A4729",
"}  c #954929",
"|  c #824E31",
" . c #994D38",
".. c #895339",
"X. c #965637",
"o. c #9D5331",
"O. c #BF4F20",
"+. c #A7592C",
"@. c #B45628",
"#. c #A85C3B",
"$. c #B45E34",
"%. c #836031",
"&. c #976030",
"*. c #BA602E",
"=. c #CD591E",
"-. c #CD632B",
";. c #D9672C",
":. c #C66736",
">. c #C36B3B",
",. c #CB6D3C",
"<. c #D26737",
"1. c #D9723A",
"2. c #FF762B",
"3. c #FA782A",
"4. c #EB6E39",
"5. c #EB793D",
"6. c #FF7D33",
"7. c #F27B39",
"8. c #895A4C",
"9. c #956350",
"0. c #AC6E4D",
"q. c #B46946",
"w. c #BD6843",
"e. c #C76945",
"r. c #C36E45",
"t. c #CB7244",
"y. c #CB754A",
"u. c #CB764A",
"i. c #D97847",
"p. c #D27D52",
"a. c #DC7D50",
"s. c #EB7C41",
"d. c #3B8238",
"f. c #41813F",
"g. c #3B8343",
"h. c #448242",
"j. c #488546",
"k. c #458944",
"l. c #488945",
"z. c #4A894B",
"x. c #51814D",
"c. c #4B904B",
"v. c #49974D",
"b. c #558D55",
"n. c #549554",
"m. c #698367",
"M. c #669966",
"N. c #698A72",
"B. c #6F9670",
"V. c #739673",
"C. c #F6813F",
"Z. c #FE843E",
"A. c #9D817B",
"S. c #AB8E75",
"D. c #B58170",
"F. c #EF834A",
"G. c #F38244",
"H. c #FE8543",
"J. c #FF8C45",
"K. c #F78648",
"L. c #FF8D4B",
"P. c #FF924B",
"I. c #E48752",
"U. c #FE8E53",
"Y. c #FA9156",
"T. c #D59374",
"R. c #E88F60",
"E. c #FFA169",
"W. c #FFAB6A",
"Q. c #597483",
"!. c #7A9392",
"~. c #79A793",
"^. c #83898D",
"/. c #849785",
"(. c #81919B",
"). c #AA958D",
"_. c #8BAC8B",
"`. c #A8A09C",
"'. c #97A5AA",
"]. c #9CB7A7",
"[. c #9EA6B1",
"{. c #9AB5B5",
"}. c #B9ACAA",
"|. c #A9B2B8",
" X c #C79C89",
".X c #FFB282",
"XX c #CDAFA4",
"oX c #C8AFB2",
"OX c #FFCA97",
"+X c #F7C5AA",
"@X c #FFD1B5",
"#X c #9FBDD1",
"$X c #B8C5C8",
"%X c #B5CDEA",
"&X c #C2CFD5",
"*X c #CDD7DC",
"=X c #FFDEC3",
"-X c #DFDEE2",
";X c #CCDFF7",
":X c #D6EBFF",
">X c #F7F5ED",
",X c #EAEBF1",
"<X c #EEFAFF",
"1X c #FFF7F2",
"2X c #FEFDF3",
"3X c #F2FDFF",
"4X c #FFFFFE",
/* pixels */
"h.h.f.h.~ h.g.L ~ L ~ ! ! K K ~ ~ L ~ ~ h.h.f.d.h.h.k.l.f.f.l.f.",
"j.h.L ~ h.Y H L h.! K ~ ! K K ~ ~ K ! j.h.h.M.b.f.k.k.l.l.f.f.l.",
"h.h.~ Y g.N 2 K h.U K ! ! K K ~ ~ ~ ~ ~ f.h.b.x.f.l.l.f.l.l.l.h.",
"h.L ~ k.! 3 < e k.K K K K ~ Y g.Y g.~ K h.Y z ~ ~ L h.l.l.c.l.h.",
"~ K ~ v.A * = b I Y ! U ~ x e b $ v G c Y K z ~ j.L L f.l.c.l.l.",
"h.~ z.( < 1 o = B j g.h.l b % & 8. .m I L K K K l.f.L K f.c.l.f.",
"L j.z.N * 4 ; 1 <.&.t i o & 9.[.:XoXm j z z ~ K L c.b.V.M.c.l./ ",
"! ! W Z } $.,.,.H.H.+.@ ' D.%X;X4X}.).].t z z z H x.m././.M.f.f.",
"! ! q [ s.H.K.J.H.J.H.;.-.}.%X-X4X`.).1XN.j K K K ( Q Q Q / f.h.",
"L g.0 @.L.H.H.H.H.H.J.L.7.>.0.XX4X` S.OXT.^ c K L L ~ ! G z ~ f.",
"h.j B s.K.G.Z.H.H.H.Z.H.J.Z.@.A.|.N I.J.4.8.I z K z L K K ~ ~ L ",
"g.w o.U.G.H.J.H.H.H.H.H.C.G.5. XE [ U.5.:.&.W l K K c ~ ~ K K K ",
"g.e ,.L.s.K.J.Z.H.H.J.H.C.1.i.p.= X.U.u.q.{ J Y L K K ! ~ K ~ ~ ",
"j %.<.# :.6.2.Z.H.Z.P.P.Z.7.>.o.7 G ,.u.#.[ M Y ~ L ~ ~ ~ K ! ~ ",
"s ;.=.. +.E.W.3.2.J.1.*.J.H.,.[ M P | { S 2 b Y ~ ~ j.~ L ! K L ",
"~.+XY.T.}.[.|.@XP.2.o   5.P.i...V 5.1.*.{ @ n h.L ~ l.~ L ~ ~ L ",
"~.4X4X<X<X^.` 4X2X.X] ' 7.7.i...@ i.P.J.H.} w d.L ~ h.~ ~ ~ h.~ ",
"U $X4X4X4X4X4X4X4X4X=XW.U.R.T.0.> [ F.Z.L.4.N x ~ ~ ~ h.~ ~ h.h.",
"u l &X4X4X4X4X2X1X4X4X4X4X>X$X$X'.M +.I.F.i.S x ~ h.d.h.~ g.k.h.",
"Y y U *X4X4X2X2X>X2X4X4X2X$X!.Q._ 8.r.u.I.e.D Y ~ L ~ h.f.h.h.h.",
"~ ~ y U {.,X>X2X4X2X2X*X(.R T A F q.p.y.y.w.J g.L L l.f.h.h.h.h.",
"h.~ ~ d t N.[.'.[.{.!.R , 2 } #.e.p.y.#.y.q.! k.L h.l.h.h.h.~ h.",
"~ ~ ! L s L {.#X{.'.8.} o.q.q.y.I.i. .X.a.q.G c.l.l.f.f.l.l.h.~ ",
"h.L K K c k ) ,X3X+X-.:.t.y.w.$.#., b q.a.8.f v.c.l.c d.f.j.~ h.",
"~ ~ L K K x m T.4X1Xi.7.G.i.F 6 X O i D #.[ q c.c.~ B._.n.c h.h.",
"h.h.L ~ ~ U C O.S.].>.Z.H.,.e r 8 s l 8 2 < 6 z z.~ m.A.z.Y ~ h.",
"h.L L j.K a B } - 5 X.,.$.Z p g s s d s : + 6 z ~ j.K k K ! ~ h.",
"h.f.L K g b * = 9 y B [ 4 ; p s a d p s w 8 p K h.f.L L L ~ ~ h.",
"h.L z h z n ; M g e < 3 2 - s s h a p a h c f.f.f.L L L L ~ h.h.",
"h.L K z c l f ^ c e - : : 6 s d h d h z K ~ f.l.h.L j.f.h.h.j.~ ",
"h.f.f.h.~ ~ c c z k l g p f z L K K z L ~ h.h.h.L L f./ L j.~ j.",
"h.h.h.h.h.k.k.c L ~ ~ g.h.k.h.h.L ~ ~ ~ L f.h.j.f.h.f.L j.L j.L "
};
