/* XPM */
static char *result[] = {
/* columns rows colors chars-per-pixel */
"32 32 213 2 ",
"   c #281210",
".  c #1F301B",
"X  c #611E02",
"o  c #45261C",
"O  c #522E18",
"+  c #682304",
"@  c #652B19",
"#  c #6A3015",
"$  c #6B331E",
"%  c #562C24",
"&  c #49362E",
"*  c #51352D",
"=  c #56382A",
"-  c #672D20",
";  c #673725",
":  c #723A25",
">  c #7D3920",
",  c #1B4F2E",
"<  c #2D4F2E",
"1  c #334929",
"2  c #36562B",
"3  c #3B4730",
"4  c #365031",
"5  c #395333",
"6  c #335B32",
"7  c #3A5C33",
"8  c #2B632B",
"9  c #296928",
"0  c #32632C",
"q  c #316E2B",
"w  c #2F712F",
"e  c #31722C",
"r  c #2C6335",
"t  c #2F6A36",
"y  c #356535",
"u  c #3B6535",
"i  c #366B35",
"p  c #3A6937",
"a  c #36633A",
"s  c #346C3A",
"d  c #3B6C3A",
"f  c #2C783B",
"g  c #357334",
"h  c #387837",
"j  c #36723A",
"k  c #3D743C",
"l  c #3D7B3D",
"z  c #474228",
"x  c #5A492C",
"c  c #455726",
"v  c #42542E",
"b  c #555526",
"n  c #454234",
"m  c #574C30",
"M  c #5A5938",
"N  c #6B4225",
"B  c #69482D",
"V  c #7E4327",
"C  c #71412C",
"Z  c #7E4A2D",
"A  c #6A592F",
"S  c #795437",
"D  c #486739",
"F  c #41763F",
"G  c #417B3F",
"H  c #6F6534",
"J  c #2C7540",
"K  c #287D41",
"L  c #3C7342",
"P  c #367B41",
"I  c #3E7E41",
"U  c #5E4B47",
"Y  c #5F5648",
"T  c #496B48",
"R  c #427541",
"E  c #437D41",
"W  c #497B4C",
"Q  c #51744D",
"!  c #447D54",
"~  c #657F58",
"^  c #5A6066",
"/  c #4F7D62",
"(  c #577E64",
")  c #863B18",
"_  c #9A471B",
"`  c #87472A",
"'  c #964B29",
"]  c #99532D",
"[  c #835439",
"{  c #9F5834",
"}  c #A54F2F",
"|  c #A1522C",
" . c #BD5B29",
".. c #A65A39",
"X. c #B85E35",
"o. c #986336",
"O. c #A9613D",
"+. c #BC6336",
"@. c #B1643E",
"#. c #C24F1D",
"$. c #C65E21",
"%. c #D56227",
"&. c #CA6A37",
"*. c #C36B3D",
"=. c #D66B37",
"-. c #CF763F",
";. c #DA733C",
":. c #E76B25",
">. c #FF782A",
",. c #EB6D31",
"<. c #E3743B",
"1. c #E57439",
"2. c #FA7B37",
"3. c #F27D3C",
"4. c #8F5C45",
"5. c #8B6341",
"6. c #9A6748",
"7. c #8E6450",
"8. c #A36843",
"9. c #B66742",
"0. c #896F70",
"q. c #A97D72",
"w. c #C66842",
"e. c #CB7244",
"r. c #CE764A",
"t. c #D87545",
"y. c #D77649",
"u. c #DD7A4A",
"i. c #E67A47",
"p. c #EA7E46",
"a. c #FA7D41",
"s. c #3E8139",
"d. c #41813F",
"f. c #378545",
"g. c #3D8343",
"h. c #448242",
"j. c #498446",
"k. c #458A43",
"l. c #498945",
"z. c #4A8649",
"x. c #4C8E4A",
"c. c #4C924B",
"v. c #4F8E50",
"b. c #558D55",
"n. c #5A925A",
"m. c #698B6B",
"M. c #689768",
"N. c #6F9670",
"B. c #769C78",
"V. c #FE833D",
"C. c #FF8C3F",
"Z. c #BF8659",
"A. c #99877D",
"S. c #80907F",
"D. c #BF8161",
"F. c #B08371",
"G. c #DD8151",
"H. c #EC824A",
"J. c #F38244",
"K. c #FE8542",
"L. c #FF8A45",
"P. c #F3864A",
"I. c #FC834A",
"U. c #FE8A49",
"Y. c #FF9047",
"T. c #FF9549",
"R. c #F68D59",
"E. c #FF9351",
"W. c #D58962",
"Q. c #DB9B7E",
"!. c #FFA77D",
"~. c #647783",
"^. c #707E86",
"/. c #758B8F",
"(. c #938B81",
"). c #849785",
"_. c #B59A96",
"`. c #8EA890",
"'. c #B0A08C",
"]. c #A3AE9C",
"[. c #889CA5",
"{. c #97A8A5",
"}. c #8BB1B1",
"|. c #BBB0AE",
" X c #AFB2B5",
".X c #A9B5B7",
"XX c #C6A790",
"oX c #FBAE85",
"OX c #FBB68A",
"+X c #F3BA99",
"@X c #CCBBB1",
"#X c #DFCFBF",
"$X c #96B5CA",
"%X c #BAB5C5",
"&X c #ACC0C5",
"*X c #BFD6F2",
"=X c #B9E2FF",
"-X c #C6CCD5",
";X c #D1D9D8",
":X c #E7DAD7",
">X c #FFE3CD",
",X c #EFE2D5",
"<X c #FFE8D9",
"1X c #DAE3E9",
"2X c #E3E5E9",
"3X c #EAEBEC",
"4X c #FFEEE4",
"5X c #FFF6ED",
"6X c #E9ECF4",
"7X c #EFF7FF",
"8X c #FEFCF5",
"9X c #F4F8FC",
"0X c #FFFFFE",
/* pixels */
"h.h.h.E h.G h.l E E E R R k R E E E R E d.h.d.d.d.k.d.k.l.l.l.d.",
"j.h.G E E g.I h.E E L E R k k E E G E h.h.h.M.b.G k.k.l.d.d.d.j.",
"h.h.E E g.T m E h.R L R R R G E R E E E d.h.b.z.d.l.k.l.d.l.j.d.",
"h.l R k.h.: @ d h.F F k E R E I g.I E R h q k E G d.l.d.x.x.j.j.",
"h.L z.c.M > @ 4 g.G G F k g.L a v u l h M.M.9 h j.G G G l.c.x.d.",
"E I x.Q C ; o % 7 P E E g.y O + # # D w B.0X{.8 d.d.G F d.c.l.j.",
"E j.v.M $ ; o % | D J P 1 X ) 0. Xq.c g L 3X0X X0 d.b.N.M.x.l.d.",
"R R R B > ] { ] a.<.m . + ...X*X0X|.2 g L ;X0X0X`.h m.).).M.l.d.",
"R R 7 V &.<.J.K.K.Y.1._  .%X=X1X0X|.u w W 2X0X0X0X( u T Q W E E ",
"E g.4 ' U.L.L.L.K.K.L.K.;.F._.:X0X(.0 9 ~ 9X0X0X0X].8 R F F E E ",
"g.P x =.U.K.K.K.K.K.K.L.L.:.' _.-XY j 0 Z.>X8X8X5XXX0 l F E E G ",
"h.r ' I.J.K.K.K.K.K.K.K.K.V.-._.0.b K H R.oX+XOXoXD.d l E G R F ",
"g.6 X.E.J.K.K.K.K.K.K.K.3.;.H.W.: i f o.I.R.R.H.i.9.d I G F E E ",
"f.A <.-.i.2.V.V.K.K.K.K.V.1.w.} & f f { 1.p.J.p.i.8.d I E F R E ",
"9 $.,.  ) L.C.>.2.U.T.T.L.V.+.` v l 7 Z +.-.p.u.u.5.P h.G R F G ",
"m.oX,.6.A.@X#X!.>.:.N C J.L.t.Z Z -.+.] ; ` *.r.e.Y k.E G E E G ",
"}.0X4X3X9X^.~.0X<XP.+   ;.L.i.> $ L.Y.C.&.$ C { S P j.I G E E E ",
"I 1X0X0X0X3X2X0X0X8XOXL.2.H.G.7.o X.K.L.T.+.O m P P E g.E E h.h.",
"w ! 1X0X0X0X0X8X8X0X0X5X<X,X%X-X).= *.H.P.t.B K I E h.h.E h.k.h.",
"l 9 / 6X0X0X8X8X8X8X0X0X0X-X[./.~.4.e.u.i.w.M f.E E E h.d.d.d.k.",
"E E 9 / -X0X8X8X0X0X8X1X[.^ Y U S r.u.r.u.9.D g.G d.h.h.h.h.h.h.",
"h.E F q t /..X.X.X&X[.^ m : } ..r.u.r.O.y.6.P k.E h.l.d.h.h.h.E ",
"E E R G e G }.$X}.[.[ ' ] @.9.r.i.u.....p.4.L v.h.j.d.h.l.h.E h.",
"h.G F F k g m.7X0X+X%.&.e.r.*.e.@.* m r.i.4.J v.j.E h h k.j.E h.",
"h.G R F E j b Q.0X<X;.3.J.;.S z   , 8 [ @.: 6 j.h.d m.`.n.l d.E ",
"h.h.E E E J A #.'..X=.C.I.+.y , < p j < : ; 5 l k k ~ S.b.l E j.",
"h.h.G E E 6 N ' z r ..=.+.S y i d y i 6 o o 5 d F h.k g G E G j.",
"E d.G F s z ) % 2 9 N ` : & u i p p y p 5 5 u G h.h.G G G G E d.",
"h.d.k j j v = n s v - : - n i y d a y p k k G d.j.G E E E j.G j.",
"h.G F k l j a Q l 2 & & & 3 i p d p d d F d.d.k.d.G E j.j.G E d.",
"h.G h.G h.E E k k j j s a s l G k F k E G d.j.d.G G d.E G j.j.G ",
"h.h.d.h.h.k.k.E I E s.h.h.h.h.h.E E E E G j.d.j.E d.d.G j.d.G j."
};
