/* XPM */
static char *result[] = {
/* columns rows colors chars-per-pixel */
"32 32 210 2 ",
"   c #372A18",
".  c #1C2522",
"X  c #1E3928",
"o  c #3B3624",
"O  c #542B10",
"+  c #642606",
"@  c #712000",
"#  c #632B1D",
"$  c #6D331D",
"%  c #462926",
"&  c #582B25",
"*  c #4F362C",
"=  c #573627",
"-  c #6D2E24",
";  c #683927",
":  c #64332B",
">  c #763925",
",  c #29541C",
"<  c #2B4D28",
"1  c #374928",
"2  c #295F27",
"3  c #365827",
"4  c #3A4530",
"5  c #3B4B32",
"6  c #3B5B31",
"7  c #395936",
"8  c #2A6329",
"9  c #32612F",
"0  c #316D2C",
"q  c #36752E",
"w  c #2B6534",
"e  c #286934",
"r  c #2C6D3A",
"t  c #356535",
"y  c #396635",
"u  c #356B36",
"i  c #396B36",
"p  c #356139",
"a  c #3C6539",
"s  c #326D3A",
"d  c #3B6C3A",
"f  c #2B7539",
"g  c #2A753B",
"h  c #377233",
"j  c #3A7435",
"k  c #34743B",
"l  c #3D743C",
"z  c #357B3F",
"x  c #3C7A3C",
"c  c #6B521F",
"v  c #484B2E",
"b  c #53482A",
"n  c #425829",
"m  c #5A4437",
"M  c #574B31",
"N  c #485A33",
"B  c #5C5535",
"V  c #66482B",
"C  c #75472C",
"Z  c #6C4537",
"A  c #784B37",
"S  c #755C34",
"D  c #496536",
"F  c #526034",
"G  c #41763E",
"H  c #417A3F",
"J  c #63713B",
"K  c #386E45",
"L  c #367740",
"P  c #397643",
"I  c #3C7C42",
"U  c #585046",
"Y  c #655F5F",
"T  c #427541",
"R  c #427D41",
"E  c #55784A",
"W  c #527252",
"Q  c #74704C",
"!  c #4D6B7C",
"~  c #656F77",
"^  c #873711",
"/  c #B9490B",
"(  c #B24A17",
")  c #844124",
"_  c #8A452A",
"`  c #8F4B2B",
"'  c #92552E",
"]  c #8A4935",
"[  c #994C35",
"{  c #975538",
"}  c #A54E23",
"|  c #A9532A",
" . c #B55A2C",
".. c #A35A36",
"X. c #AC5B32",
"o. c #A95D3B",
"O. c #8C613E",
"+. c #AF6033",
"@. c #B6643B",
"#. c #BD663B",
"$. c #E4641C",
"%. c #DA672A",
"&. c #C76939",
"*. c #D66C34",
"=. c #D8733B",
"-. c #DC733B",
";. c #E86824",
":. c #FB742B",
">. c #E77439",
",. c #F27634",
"<. c #FF7B32",
"1. c #995A40",
"2. c #9F7446",
"3. c #A56344",
"4. c #B66A47",
"5. c #AD7B53",
"6. c #937466",
"7. c #C56E45",
"8. c #C96B45",
"9. c #C87449",
"0. c #D27143",
"q. c #D57B4D",
"w. c #DE7948",
"e. c #DB7D4C",
"r. c #D97F54",
"t. c #E77642",
"y. c #E77C4A",
"u. c #F27C42",
"i. c #F97F42",
"p. c #EB7F51",
"a. c #3C8339",
"s. c #41813F",
"d. c #2D8345",
"f. c #338343",
"g. c #3D8343",
"h. c #3C8A44",
"j. c #448242",
"k. c #498546",
"l. c #468943",
"z. c #488945",
"x. c #49864A",
"c. c #4B8B4A",
"v. c #52824E",
"b. c #4D924B",
"n. c #558D55",
"m. c #598658",
"M. c #4D9B54",
"N. c #5E945E",
"B. c #66885A",
"V. c #698469",
"C. c #679767",
"Z. c #70936F",
"A. c #778776",
"S. c #739276",
"D. c #FE843E",
"F. c #8E8577",
"G. c #B48B79",
"H. c #CD8652",
"J. c #DE8252",
"K. c #EA824C",
"L. c #F38244",
"P. c #FE8542",
"I. c #FF8B45",
"U. c #F8864B",
"Y. c #FE8C4B",
"T. c #FF9049",
"R. c #E68553",
"E. c #FF8A51",
"W. c #F3915C",
"Q. c #C88563",
"!. c #C09178",
"~. c #E8996F",
"^. c #FE9B65",
"/. c #FFA66A",
"(. c #6B7C87",
"). c #767D80",
"_. c #7D958D",
"`. c #78A895",
"'. c #968D8C",
"]. c #879987",
"[. c #B19992",
"{. c #87A788",
"}. c #869AA4",
"|. c #AE9FAC",
" X c #96A6A9",
".X c #91ACB2",
"XX c #AFAFAB",
"oX c #B0B5B1",
"OX c #F0B395",
"+X c #E4BBA4",
"@X c #C6D1BC",
"#X c #FFCBA6",
"$X c #FFC9AB",
"%X c #FFCEB2",
"&X c #B1BFC5",
"*X c #BBC8CE",
"=X c #B1CDD3",
"-X c #B5CCE7",
";X c #C0CED3",
":X c #D2D0DB",
">X c #E9D8D5",
",X c #C3E0FF",
"<X c #D7E8F3",
"1X c #E4E7E6",
"2X c #F8ECEA",
"3X c #FCF7EC",
"4X c #EAF8FF",
"5X c #F5F7F6",
"6X c #FEFCF4",
"7X c #FFFFFE",
/* pixels */
"j.j.j.j.j.R j.H R R R T T G H T s.R T j.j.s.s.s.s.z.s.l.l.s.z.s.",
"k.j.x R R g.I j.R I G T T l H T R H G k.j.j.C.n.s.l.l.z.s.z.s.z.",
"j.j.R R h.D M H j.T G G R G H T R H T j.s.j.n.x.s.z.l.z.s.z.k.R ",
"j.x T z.R ; - d j.T G G T R I g.I R H H H H l H H s.z.s.b.c.z.k.",
"H P j.M.B > & 7 f.I G P H j.s N n y G H G G G s.s.H H s.z.b.z.s.",
"j.R x.E > - % & 6 a.R R L 1 O + $ $ G x H H G G c.s.H H s.b.z.k.",
"H k.x.M $ ;   # X.F g w   @ ] '.:X6.3 H G G G l H b.n.Z.C.b.z.k.",
"T T T C ) | X.+.D.-.b   ^ G.-X,X6X'., H H G l G G v.V.A.].N.z.H ",
"T T 7 ) =.u.U.I.P.T.>.( 8.-X,X2X7XF., R l H R x D h 9 ].].G s.s.",
"H g.1 | Y.I.P.P.P.P.I.I.0.5.G.2X7XU 8 I T T R e h m.XX5X{.8 s.H ",
"g.k V t.I.P.P.P.P.P.P.I.P.;.[ oX|.1 x T T s e B.@X5X7X7XS.0 H H ",
"j.t [ Y.L.P.P.P.P.P.P.P.L.D.R.[.Z < R P k T 5.^.%X6X7X1XW j G H ",
"g.6 &.T.L.I.I.P.P.P.I.P.>.-.R.7.O g I L P H.Y.i.e.+X6XXXT l R R ",
"f S L.&.*.<.<.I.P.P.P.P.D.>.#.) < d.L g 2.E.y.q.9.Q.OXF.I G R R ",
"t %.;.^ } /./.:.<.I.T.I.I.D.@.; B J D N 7.q.4.3.3.3.4.Q z G G G ",
"_.#XW.G.XX XoX$XD.$.+.=.I.L.9.> ' i.*.+.A A 1.1.1.[ A G g.R R H ",
"`.6X7X4X5X)._.7X3XW./ ( <.,.*.# $ T.T.I.&.= Z [ ] > G x R R R R ",
"L =X7X7X7X7X7X7X7X7X#X^.W.~.!.6.* X.L.Y.I...% : m P h.j.R R j.j.",
"q s *X7X7X7X7X6X6X7X7X7X7X1X&X*X(.; 0.K.p.@.v d I h.s.j.H j.l.l.",
"R 0 K ;X7X7X6X6X6X6X7X7X1X X(.! Y @.q.J.y.o.G h.R R R j.s.j.s.j.",
"R R 0 K  X:X1X3X6X5X<X.X~ U Z A +.q.q.4.y.O.L j.H s.j.s.j.H j.j.",
"R R T j 8 V..X}. X.X~ m > ` ..#.r.R.4.o.K.S f.z.H j.z.z.j.l.j.j.",
"R R H G h H .X-X=X[.}  .@.4.7.K.R.o.] 7.R.S d.c.j.z.s.s.j.k.R j.",
"R H H T H h m.3X7XOX%.=.w.0.o.{ : X B 0.8.V P M.b.c.x a.l.k.R j.",
"j.R H H T g c J.5X>X>.P.I.#.6 X . w w V [ = p z.z.G S.{.n.H s.j.",
"j.j.H T j.s C ( Q V.&.<.>.O.w w t i r 1 # & p P G y W A.E H R j.",
"s.R H k.P N > > < 2 ` X._ M u u u t u 6 o o D y i i 9 8 D G H k.",
"j.s.H G u b : % t N $ > : 4 u t y y y u u y i i d l x G H H R s.",
"j.s.l d d 6 5 a k v & & & 5 u t d y t y i l H s.H k.H k.H j.R j.",
"j.H G G x j P W l t 7 5 4 6 u d d d d d G j.s.l.s.H R H s.j.R j.",
"j.H s.R s.s.x l l j j k k l l H G l R R R j.j.j.H H H k.R R k.R ",
"j.j.j.j.j.l.l.H H H j.j.s.j.j.R R R R R H s.j.k.s.j.s.R k.k.R j."
};
