/* XPM */
static char *result[] = {
/* columns rows colors chars-per-pixel */
"32 32 211 2 ",
"   c #321506",
".  c #342315",
"X  c #1F3626",
"o  c #223326",
"O  c #3D3527",
"+  c #442A1B",
"@  c #592A1A",
"#  c #543111",
"$  c #6B260E",
"%  c #69351E",
"&  c #77321F",
"*  c #562A29",
"=  c #473128",
"-  c #55382A",
";  c #672F22",
":  c #643B26",
">  c #6A3826",
",  c #613129",
"<  c #7D3E23",
"1  c #713928",
"2  c #394529",
"3  c #2B5A2A",
"4  c #345329",
"5  c #394731",
"6  c #3C4C32",
"7  c #2F5F33",
"8  c #395532",
"9  c #375934",
"0  c #3A5C32",
"q  c #276227",
"w  c #2B6D2D",
"e  c #33642D",
"r  c #336C2C",
"t  c #2B6736",
"y  c #356435",
"u  c #386735",
"i  c #356B35",
"p  c #396B36",
"a  c #32673A",
"s  c #316B39",
"d  c #3A6B3A",
"f  c #2B7338",
"g  c #357333",
"h  c #367C34",
"j  c #347638",
"k  c #35753C",
"l  c #3D743C",
"z  c #3D7C3C",
"x  c #424A2A",
"c  c #52472B",
"v  c #425629",
"b  c #574A33",
"n  c #475935",
"m  c #555D3B",
"M  c #77482C",
"N  c #785828",
"B  c #704E35",
"V  c #645938",
"C  c #456635",
"Z  c #556337",
"A  c #40763E",
"S  c #417A3F",
"D  c #376E44",
"F  c #2A7C40",
"G  c #397640",
"H  c #3D7C42",
"J  c #5A4641",
"K  c #6D4241",
"L  c #6E5F5A",
"P  c #496947",
"I  c #55684A",
"U  c #427641",
"Y  c #437C41",
"T  c #497841",
"R  c #4D7B4B",
"E  c #52794C",
"W  c #597556",
"Q  c #666F41",
"!  c #4C6777",
"~  c #6F7961",
"^  c #626A71",
"/  c #697576",
"(  c #707D76",
")  c #903705",
"_  c #923C13",
"`  c #B04A1B",
"'  c #8A4728",
"]  c #954E2C",
"[  c #9B532F",
"{  c #964D34",
"}  c #815639",
"|  c #985536",
" . c #A64E21",
".. c #AA572D",
"X. c #B1562C",
"o. c #A85B37",
"O. c #AB613E",
"+. c #B96337",
"@. c #B5633A",
"#. c #D15B18",
"$. c #C6672F",
"%. c #DD6728",
"&. c #C6683D",
"*. c #D56A34",
"=. c #DC733A",
"-. c #E46929",
";. c #FD752B",
":. c #E76F37",
">. c #E6753B",
",. c #F27735",
"<. c #FF7C32",
"1. c #8C5846",
"2. c #9D634B",
"3. c #8A6E56",
"4. c #A86343",
"5. c #BC6C44",
"6. c #BA7858",
"7. c #8A716C",
"8. c #C76B43",
"9. c #C7724A",
"0. c #DA7645",
"q. c #D47B4D",
"w. c #DC7B4C",
"e. c #DB7F51",
"r. c #E87845",
"t. c #E37C4C",
"y. c #F37940",
"u. c #3C813B",
"i. c #41813E",
"p. c #2D8646",
"a. c #358744",
"s. c #3D8444",
"d. c #448242",
"f. c #498546",
"g. c #468943",
"h. c #498945",
"j. c #498649",
"k. c #4B8C49",
"l. c #51814D",
"z. c #4D914B",
"x. c #4D8550",
"c. c #558D55",
"v. c #5A895B",
"b. c #4E9B54",
"n. c #5B935A",
"m. c #65856A",
"M. c #649665",
"N. c #70936F",
"B. c #748471",
"V. c #6F9670",
"C. c #72A26E",
"Z. c #F9813E",
"A. c #8A8A79",
"S. c #B48B79",
"D. c #CF815A",
"F. c #DA845A",
"G. c #EA824C",
"H. c #F48244",
"J. c #FE8542",
"K. c #FF8B44",
"L. c #FC874A",
"P. c #FE8C49",
"I. c #FF904E",
"U. c #E38655",
"Y. c #FE8550",
"T. c #FA9458",
"R. c #CE9B7F",
"E. c #D79674",
"W. c #EE9969",
"Q. c #FFA668",
"!. c #707B83",
"~. c #7BA48D",
"^. c #849785",
"/. c #9D939B",
"(. c #B19288",
"). c #8DA785",
"_. c #B2A19B",
"`. c #8B9DA7",
"'. c #99A7A6",
"]. c #8FADB4",
"[. c #9AACB4",
"{. c #ABADA8",
"}. c #BDB4B8",
"|. c #C69B83",
" X c #F4AE8F",
".X c #F4B28E",
"XX c #ACC7A4",
"oX c #FFC9A9",
"OX c #FFD5B1",
"+X c #AFBDC4",
"@X c #AEC5C7",
"#X c #B7C6CB",
"$X c #B4C9E7",
"%X c #B8D7E7",
"&X c #C1CED4",
"*X c #D0C3D1",
"=X c #D8D9D8",
"-X c #E6D0CA",
";X c #E3E6DE",
":X c #FDEBDE",
">X c #C6DCF7",
",X c #DBE3E2",
"<X c #D7E7FC",
"1X c #EFE9EA",
"2X c #F1F1EC",
"3X c #FBF6EB",
"4X c #EFFBFF",
"5X c #FCF4F2",
"6X c #FEFCF4",
"7X c #F5F8F8",
"8X c #FFFFFE",
/* pixels */
"d.d.z d.d.Y Y Y Y Y Y U U G A Y Y Y S Y d.i.i.i.d.g.i.h.g.g.i.g.",
"f.d.Y Y d.s.H Y Y U l Y U A A Y Y A U f.d.d.M.c.u.g.h.g.i.g.d.d.",
"d.Y Y Y u.Z b i.Y H l U U S S Y Y Y Y Y d.d.c.l.S d.h.d.i.h.d.f.",
"d.z Y g.Y 1 * l d.U U U A U Y s.H Y S A Y S j Y d.S g.g.k.z.d.f.",
"Y H d.b.V & * 8 s.Y A G S z p 0 4 C S S S A A Y f.S S i.h.z.h.i.",
"Y Y j.R > % + - 0 a.Y d.l x # $ & % A H A S A A h.i.S A h.z.h.d.",
"i.f.x.b % : + ; ..C f a + $ 1./.*X3.r Y A A A l S z.c.N.V.z.h.d.",
"U U P M _ o.X.+.J.=.c . ) S.$X<X8XA.r A A A z A A l.m.^.^.n.k.i.",
"U U 8 ' =.Z.H.K.K.P.:.` 9.$X>X7X6XA.p H U A U A A E I P W R d.Y ",
"Y s.2 ..I.K.K.K.Z.J.P.Z.8.6.(.5X1XI j l l Y Y H A A Y U l l Y d.",
"d.f M r.P.H.Z.Z.K.Z.Z.P.J.-.[ +X/.x H l G G G G l z l S A Y S S ",
"g.7 [ H.K.K.Z.Z.Z.K.Z.K.J.y.e.(.B C G H D C m Z C w g Y U Y A A ",
"a.9 &.I.H.J.Z.Z.K.K.J.Z.,.=.U.@.- z l k Q 9.w.t.E.A.A w Y S S Y ",
"k N r.| *.<.Z.Z.K.Z.K.K.J.=.+.M 3 p.F U w.Y.t.U..X:X;XM.q A Y S ",
"i %.-.  ' Q.Q.;.<.K.K.K.K.>.+.: Z Z C b &.q.9.6.|.:X8X7Xv.r A S ",
"~.oXT.S.}.'.}.oXK.#.. : K.L.8.M o.y.*...M 2.D.6.R.;X;X8X2Xv.g S ",
"~.8X8X4X7X!.`.8X3XW.) _ <.,.*.@ M I.P.K.$.: 2.D.S._.{.}.8XXXw A ",
"G @X8X8X8X8X8X8X8X8XOXQ.T.E.|.7.- X.H.P.P.' - 2.7.( ( / }.3Xn.g ",
"g f #X8X8X8X6X6X6X8X8X8X8X,X+X+X/ M =.G.G.o.* K 3.E S z R {.C.h ",
"Y r D &X8X8X6X6X6X6X8X8X,X`.!.! L @.q.U.G.2.O n A l i.i.h h d.g.",
"Y Y r D '.=X;X7X6X3X,X[.^ J B } 4.q.q.9.r.V F s.S i.d.i.u.z i.d.",
"d.Y Y g q m.[.`.].`.^ b 1 ] o.&.F.G.O.4.r.Q a.j.S d.g.d.d.g.Y d.",
"Y Y A A i Y @X%X%X(. .X.@.5.9.G.w.o.{ 9.t.V a.z.d.k.i.i.d.d.f.Y ",
"d.S U A Y w E 5X7X X%.0.w.8.o.| ; X V 0.8.b H z.z.k.u.u.h.f.Y d.",
"d.S Y A Y F N e.5X-X-.Z.K.@.4 X o t t M { - a j.k.A N.).c.S d.d.",
"d.d.Y Y Y s M ` ~ B.*.Z.>.} t t y p t 2 ; = d l l u W B.E z Y d.",
"i.d.S T G n < 1 4 3 { ..' b s i y y i 8 . x C d u p e e p A Y d.",
"d.i.S A s - ; = y v % < , 6 g i u p u p a d p p l l l l A Y Y d.",
"d.S l d l 0 n 0 g x * , * 8 g u d u y u p l A i.S f.S Y Y Y f.Y ",
"d.S A l j j D R l y 8 6 5 0 i p d d d d A i.i.g.i.Y Y f.Y d.S f.",
"i.i.i.d.s.Y Y l l l j j j l A S A A A S i.d.i.f.i.S i.Y S f.f.S ",
"d.d.d.i.d.g.f.Y S d.Y i.d.Y d.d.S Y Y Y S S f.i.f.Y i.S f.Y i.f."
};
