/* XPM */
static char *result[] = {
/* columns rows colors chars-per-pixel */
"32 32 207 2 ",
"   c #161516",
".  c #29140A",
"X  c #3B2419",
"o  c #231620",
"O  c #393E28",
"+  c #611E00",
"@  c #43271A",
"#  c #533215",
"$  c #56331D",
"%  c #682D1D",
"&  c #752F12",
"*  c #432E2E",
"=  c #5B2C22",
"-  c #592E2B",
";  c #45352C",
":  c #49352C",
">  c #573528",
",  c #6A3424",
"<  c #6D3B25",
"1  c #64322C",
"2  c #773724",
"3  c #2E4C1D",
"4  c #34531E",
"5  c #1F4C2D",
"6  c #334C2B",
"7  c #3B482A",
"8  c #295C24",
"9  c #32522F",
"0  c #3C4532",
"q  c #2A5A31",
"w  c #365431",
"e  c #335A31",
"r  c #3D5B39",
"t  c #2D6E2A",
"y  c #336D2D",
"u  c #2D712D",
"i  c #2D6534",
"p  c #2E6E35",
"a  c #296838",
"s  c #366534",
"d  c #356B35",
"f  c #396B36",
"g  c #376638",
"h  c #386439",
"j  c #346C39",
"k  c #3B6D39",
"l  c #2C7438",
"z  c #357234",
"x  c #387A32",
"c  c #357339",
"v  c #3D743C",
"b  c #357B3E",
"n  c #3D7B3C",
"m  c #48471F",
"M  c #454528",
"N  c #45582D",
"B  c #434233",
"V  c #5B4735",
"C  c #485731",
"Z  c #565430",
"A  c #6B432A",
"S  c #744D34",
"D  c #7B4932",
"F  c #6D5236",
"G  c #675439",
"H  c #486238",
"J  c #436E3D",
"K  c #566538",
"L  c #40763F",
"P  c #49733E",
"I  c #417A3F",
"U  c #636A35",
"Y  c #297F42",
"T  c #367845",
"R  c #3C7D42",
"E  c #505055",
"W  c #7A5651",
"Q  c #416F42",
"!  c #506940",
"~  c #427541",
"^  c #4B7746",
"/  c #437C41",
"(  c #4A7E47",
")  c #427A50",
"_  c #6A6B5C",
"`  c #5A656D",
"'  c #757A79",
"]  c #923C0E",
"[  c #873E24",
"{  c #B9491A",
"}  c #874629",
"|  c #954829",
" . c #86582C",
".. c #974F32",
"X. c #875638",
"o. c #9A5130",
"O. c #9C5838",
"+. c #A75324",
"@. c #B3572C",
"#. c #A85A37",
"$. c #B9663B",
"%. c #CC591F",
"&. c #D66429",
"*. c #CB6835",
"=. c #C46A3C",
"-. c #D66837",
";. c #CD723B",
":. c #DC723A",
">. c #FF7628",
",. c #E4773B",
"<. c #FE7B31",
"1. c #F37B38",
"2. c #895644",
"3. c #AD5E40",
"4. c #976545",
"5. c #90644C",
"6. c #A96442",
"7. c #BA6641",
"8. c #B66C45",
"9. c #B07653",
"0. c #8B6F6F",
"q. c #92766A",
"w. c #CA7146",
"e. c #C4734A",
"r. c #CB744B",
"t. c #D67749",
"y. c #C67B56",
"u. c #E77847",
"i. c #E77F4A",
"p. c #3D833A",
"a. c #41813F",
"s. c #328041",
"d. c #3C8143",
"f. c #448242",
"g. c #488545",
"h. c #458943",
"j. c #498A45",
"k. c #4C854A",
"l. c #4C8D4B",
"z. c #51834D",
"x. c #469148",
"c. c #4C8950",
"v. c #568C55",
"b. c #579455",
"n. c #659866",
"m. c #708E73",
"M. c #FF843E",
"N. c #BD856A",
"B. c #B1877B",
"V. c #E4814B",
"C. c #F38346",
"Z. c #FE8542",
"A. c #FF8B45",
"S. c #F0834B",
"D. c #F9864B",
"F. c #FD8C4B",
"G. c #FF914A",
"H. c #E48452",
"J. c #E88253",
"K. c #FA8A55",
"L. c #CE8B6D",
"P. c #CC9476",
"I. c #E78D63",
"U. c #E79C77",
"Y. c #FFA461",
"T. c #FFA873",
"R. c #707B83",
"E. c #7B9086",
"W. c #748691",
"Q. c #79A894",
"!. c #9F948F",
"~. c #909395",
"^. c #B3978D",
"/. c #B09A8C",
"(. c #A99A9B",
"). c #93B093",
"_. c #ACAF94",
"`. c #9BA9AB",
"'. c #9EA6B2",
"]. c #98B4B7",
"[. c #A9A9AC",
"{. c #B7ADA9",
"}. c #AAB9BD",
"|. c #B3B6B2",
" X c #EEBC9F",
".X c #A8C5A5",
"XX c #D4C7BC",
"oX c #FFC8A9",
"OX c #E9CCB7",
"+X c #FFD5B9",
"@X c #98B7C9",
"#X c #B6B3C3",
"$X c #B8C6CA",
"%X c #B1CCEE",
"&X c #BFD4F0",
"*X c #C3D0D5",
"=X c #E1CCC5",
"-X c #E4E4DD",
";X c #D0DAE2",
":X c #D8E7FA",
">X c #EAE9EA",
",X c #F8E9E5",
"<X c #F9F8ED",
"1X c #EDF8FE",
"2X c #FEFCF3",
"3X c #F7F8FA",
"4X c #FFFFFF",
/* pixels */
"g.f.a.f./ / I / / / / ~ J R I / / I / / f.f.a.p.h.h.f.h.f.f.h.g.",
"g.f.I / f.I I f./ ~ R / ~ J L / / L / g.f.f.n.v.J h.x.h.h.f.f.f.",
"f.f./ I I / g.I / / k ~ / R ~ I I L ~ / d.f.v.( $ Z x.f.h.h.g.f.",
"/ n / f.j.l.f.n / ~ ~ J / R R R d./ I I f.n p.r % 2 ~ x.j.l.h.f.",
"I I I b.b.h.L ~ / v ~ R J m # M h d./ / L / c 7 = 2 V d.h.l.l.a.",
"a.I ( n.k.I L / / I R R N D 2.& + m c f.d.l Z = X = , H x.x.j.f.",
"I g.z.( / / / / ~ / R d.4 ^.:X'.5.& @ q a  .*.1 > < % G n.l.j.f.",
"~ P ^ ( / v / ~ J ~ ~ f.4 (.3X:X%XB.] X  .Z.Z.=.=.$.| X.m.n.j./ ",
"P J Q / / L / I L ~ L f.3 !.4X>X&X#X=.&.M.A.Z.A.M.C.,.2 C c.f.f.",
"/ I I I / R I L n / R / 8 _ 4X=X9.$.,.A.A.M.Z.Z.Z.Z.F.@.6 d.f./ ",
"I I / ~ f.n b R b R I / c 7 {.(.+.1.A.Z.Z.Z.Z.Z.Z.Z.C.u.A j / R ",
"f.I I L u c K G K k b I R O W ^.i.C.M.Z.Z.Z.Z.Z.Z.Z.C.F.o.i / ~ ",
"/ / c u n./.I.u.u.8.P b g.i $ r.t.,.1.Z.Z.Z.Z.Z.M.M.C.G.=.e d.f.",
"f.z p .X2X+XU.H.i.K.9.T s.s.6 | $.,.Z.G.G.Z.A.Z.<.M.*.$ -. .l / ",
"n z _.4X4XOXL.9.r.J.3.M H U H D =.C.A.;.;.G.<.>.Y.Y.+.. %.&.s R ",
"z ).4X<X-XXXN.y.y.2.< @.-.1.} S w.A.A.  . >.A.oX|.[.{.P.K.oXE.u ",
"k.<X>X[.{.^.N.y.X.< ,.A.A.Z.= < :.1.<.] ] T.<X4X' W.3X1X4X4XQ.t ",
".X,X~.' R.0.q.2.: $.G.A.C.o.: q.P.I.D.Y.+X4X4X4X4X4X4X4X4X$XT p.",
"|.B.Q ~ ^ _ 5.1 - w.S.V.=.: W.$X$X>X2X4X4X4X2X2X4X4X4X4X*Xc x h.",
"d.l x v n / ! B : 7.H.t.r.4.` ` W.}.3X4X4X2X2X2X2X4X4X;X) u h.a.",
"p.n / v ~ / n b e 6.t.e.y.r.X.W V E W.*X<X2X4X2X<X>X}.) u a.f.f.",
"p.d./ ~ v / R R b 4.t.O.e.t.r.#.o.2 > E W.].'.`.'.m.z x h.g./ f.",
"/ / L I ~ I R / p 5.J.4...e.H.r.8.6.#.| X.~.@X@X].h.x a.g.f.f.f.",
"f.I ~ L L / ~ f.a D t.w.V O O.7.7.e.w.=.&. X4X3Xn.p.x p.j.g.f./ ",
"f.I L L L L k v e A #.D a 5 o O G w.Z.1.:.,X4XP.U p.m.).b.d.f.f.",
"g.f.L L k s s d w = , 9 j k q q q $.Z.M.-.`./.{ F Y v.B.c.T / f.",
"a.I v L h s s k e @ @ e j s f d s S @.*.o.q O [ A J z y n f.f.f.",
"a.I v / I v v z f e e f f f f f s M , } < y 9 - 2 m z s k / f.( ",
"g.I I f.g.a.f.z.f.I n f f f f s j 0 1 , , N p 0 > N f f k I f.f.",
"a.I I I a.a./ n.k.a.a.L k k f f c 0 * : ; e c c i f k L L I / f.",
"a.a.a.a.g.a.a./ f.a.g.a.I I n I / v g j k v c v c v L I I f.f./ ",
"f.j.g.a.a.g.j.a.a.f.a.f.a.a./ f./ / f./ I a.I f.I I f.g.f.( f.f."
};
