/* XPM */
static char *result[] = {
/* columns rows colors chars-per-pixel */
"32 32 204 2 ",
"   c #00000D",
".  c #2D1006",
"X  c #3A291A",
"o  c #3C3516",
"O  c #2C1D20",
"+  c #1F3426",
"@  c #3A3D28",
"#  c #3C3D30",
"$  c #4D1E19",
"%  c #5F2503",
"&  c #492918",
"*  c #4D3C14",
"=  c #752805",
"-  c #6B2E1D",
";  c #562B25",
":  c #47372A",
">  c #423D2B",
",  c #563626",
"<  c #4B3835",
"1  c #613324",
"2  c #643C2D",
"3  c #733624",
"4  c #773A25",
"5  c #24451A",
"6  c #364A27",
"7  c #3C4B2B",
"8  c #2D512E",
"9  c #28562D",
"0  c #34562E",
"q  c #395A36",
"w  c #1A6232",
"e  c #296B25",
"r  c #2C702E",
"t  c #31742C",
"y  c #2D6334",
"u  c #216937",
"i  c #366534",
"p  c #386437",
"a  c #356A35",
"s  c #386B36",
"d  c #366C39",
"f  c #3B6C39",
"g  c #2B753A",
"h  c #2D7538",
"j  c #347135",
"k  c #377C31",
"l  c #397C34",
"z  c #34723A",
"x  c #3C743C",
"c  c #347C3D",
"v  c #3C7B3D",
"b  c #4B4827",
"n  c #424B2D",
"m  c #50522B",
"M  c #584B31",
"N  c #445733",
"B  c #585B36",
"V  c #664528",
"C  c #7F4022",
"Z  c #644738",
"A  c #794C38",
"S  c #695132",
"D  c #7D5837",
"F  c #59672E",
"G  c #456538",
"H  c #41763F",
"J  c #4B733F",
"K  c #417A3F",
"L  c #676D38",
"P  c #387744",
"I  c #3C7C41",
"U  c #4C484C",
"Y  c #5F5143",
"T  c #685840",
"R  c #427541",
"E  c #427C41",
"W  c #4A7E46",
"Q  c #497648",
"!  c #6E7B48",
"~  c #535961",
"^  c #566A77",
"/  c #85320B",
"(  c #B64F12",
")  c #884529",
"_  c #954826",
"`  c #9B512C",
"'  c #874937",
"]  c #8A4E35",
"[  c #924B37",
"{  c #845B33",
"}  c #965639",
"|  c #A34F22",
" . c #B1552E",
".. c #A65839",
"X. c #B65F34",
"o. c #A86235",
"O. c #BB6A3A",
"+. c #C8521C",
"@. c #FF791F",
"#. c #CE5F21",
"$. c #D96529",
"%. c #C86736",
"&. c #CD6E3D",
"*. c #D76A36",
"=. c #D4733F",
"-. c #DB763B",
";. c #EB7129",
":. c #FF7629",
">. c #EA753A",
",. c #F47C39",
"<. c #845747",
"1. c #975844",
"2. c #A85D41",
"3. c #A96645",
"4. c #B66945",
"5. c #BE6A43",
"6. c #BF734D",
"7. c #B76951",
"8. c #927167",
"9. c #BB7D65",
"0. c #C16741",
"q. c #C67249",
"w. c #CA754C",
"e. c #D87648",
"r. c #D37A4E",
"t. c #D57E52",
"y. c #E77A43",
"u. c #E27D4B",
"i. c #3D833B",
"p. c #41813F",
"a. c #368144",
"s. c #3C8243",
"d. c #448242",
"f. c #488746",
"g. c #458A43",
"h. c #498A45",
"j. c #4C854B",
"k. c #4C8D4A",
"l. c #479148",
"z. c #508450",
"x. c #568B54",
"c. c #58845D",
"v. c #569455",
"b. c #698967",
"n. c #619965",
"m. c #738D73",
"M. c #F5803F",
"N. c #FF823B",
"B. c #AA8A76",
"V. c #DA8457",
"C. c #F48244",
"Z. c #FE8543",
"A. c #FF8A45",
"S. c #F5844A",
"D. c #FF8C4C",
"F. c #FF9146",
"G. c #FF934B",
"H. c #FF9A4D",
"J. c #E68654",
"K. c #FB8E54",
"L. c #D18E6D",
"P. c #CF906C",
"I. c #D49876",
"U. c #FFAA69",
"Y. c #FFA173",
"T. c #597587",
"R. c #7C9E86",
"E. c #7D8F9C",
"W. c #7AA995",
"Q. c #7B96A1",
"!. c #8B9292",
"~. c #A09596",
"^. c #87A786",
"/. c #8799A1",
"(. c #989DA8",
"). c #98A7AC",
"_. c #96B4B9",
"`. c #B9A7A6",
"'. c #A5B7BA",
"]. c #B5BDB6",
"[. c #CD9C87",
"{. c #C3A192",
"}. c #F2AF8D",
"|. c #EECFB7",
" X c #FFCEB1",
".X c #9AB8CE",
"XX c #C1BFD0",
"oX c #B8C8CC",
"OX c #B3CEF0",
"+X c #C3CBCB",
"@X c #C1CDD1",
"#X c #D7D2D7",
"$X c #D9E1D5",
"%X c #FFE3C8",
"&X c #C7DFFB",
"*X c #E6DAE0",
"=X c #D4E0E0",
"-X c #CFE5FB",
";X c #F3EFEF",
":X c #FDF2E9",
">X c #F8F5F1",
",X c #FEFDF3",
"<X c #F2FEFF",
"1X c #FFFFFE",
/* pixels */
"f.E p.d.E K E E E K R R R x H R K K K d.d.d.i.p.g.g.g.g.d.h.d.g.",
"f.d.E E d.K K d.d.R x d.R R K E d.K R f.d.p.n.x.G g.g.f.d.d.f.p.",
"d.E E K K d.f.K d.R x R R R E K E K R K d.d.v.Q , B l.g.h.h.d.d.",
"d.v E d.f.k.E v R H R H s.I I a.d.R K K d.R i.q - 3 R g.h.k.f.d.",
"p.K J v.v.h.x R E H H I N * * b a s.E v R s.z > ; 3 M s.g.l.h.d.",
"K K f.v.j.K H E K H R v M 1.<.= % 7 v K a.d V & & , 3 G l.l.f.d.",
"d.d.W z.d.K R E H H E j m #X-X(.1.= X u y o.%.1 1 4 - S n.k.h.d.",
"H Q Q H E K R R H Q E v N *X1X&XOX9./ X o.A.N.&.e.o._ ' R.n.h.d.",
"s b.].R e t x R v K K v 0 #X,X#XOX`.#.*.A.A.Z.A.C.Z.y.) q z.E d.",
"t b.1X$X^.j.g z R K K s.5 ~.1X{.3.%.N.F.A.Z.Z.Z.Z.Z.D. .6 P d.E ",
"t c.;X1X1X;XB.v g v K d.9 Y XX8.( N.A.A.Z.Z.Z.Z.Z.Z.S.y.V d E K ",
"x R +X1X,X|.U.J.! g K E v o 8.[.M.C.C.N.Z.Z.Z.Z.Z.C.C.D.} y E K ",
"v x ~.:X|.V.M.M.K.! g K g.8 4 J.e.-.M.M.Z.Z.Z.Z.A.A.C.G.%.q s.E ",
"v c ^ }.P.q.w.V.D.u.Q g a.u : ..%.M.N.H.F.N.A.N.:.:.X.& *.{ g E ",
"K c ! 7.3.3.3.6.q.u.D 0 F L m ) =.A.A.O.=.A.:.:.U.U.| . +.$.i I ",
"p.E c S } } 1.1.<.2 _ *.>.e.2 } e.H.-.  & @.K. X]._.`.I.D. XR.r ",
"d.E v x Z A } ' , ` A.F.G.q.. | >.,.;.= ( Y.1X1X^ !.<X<X1X1XW.e ",
"K K E s.f M 2 ; 4 A.F.Z.y.4 < B.I.J.F.U.%X1X1X1X1X1X1X1X1XoXP i.",
"K K K R I v f n ] u.S.u.` U .XoX@X,X,X1X1X1X,X,X1X1X1X1XoXz k h.",
"K K R R v R s.P D e.e.t.0.T ^ T.E.@X1X1X1X,X,X,X,X1X1X@XP t p.d.",
"d.K H R x E E g B e.q.w.t.4.A Z U ~ /.=X,X,X1X1X>X=X'.Q k d.d.d.",
"d.E K K R E E I Q q.5.2.t.V.4..._ - < ~ Q._.).(.).b.h k f.f.E d.",
"K W H K I H R P G w.r.' ..e.J.q.4.o.` _ <.)._..X_.k.k s.f.f.d.d.",
"p.E H H E R E I N 2.u.2.@ 2 4.0.5.w.q.%.$.|.1X=Xn.p.l i.h.d.E W ",
"d.K K K H H f z n [ ..B u + O 7 { y.C.;.e.1X1XL.F i.m.W.v.v d.d.",
"d.d.x H f p i i > 3 , 9 s i 8 w N e.Z.,.5.'.B.( F a.c.B.v.v d.d.",
"d.K f H s i s s @ $ > a a s s a q ] O.*.{ 9 : _ V f z a v f.W d.",
"d.K K K R x x s i 0 i s s s s a p , 4 C V i 7 ; 4 b d a f E d.E ",
"d.K K d.f.i.d.j.d.p.x s s s i a p < 1 3 1 G i n , N s s f K d.d.",
"f.K K K d.d.j.c.j.p.p.K f j f f a # : < > p z j y a f H H K d.W ",
"p.K K p.f.h.d.p.d.p.d.d.K K v K R P p y d j x x j v K K K W E d.",
"p.f.f.p.p.d.d.d.p.d.d.p.d.p.d.E E d.E E E K p.E K p.d.d.d.d.p.W "
};
