/* XPM */
static char *result[] = {
/* columns rows colors chars-per-pixel */
"32 32 207 2 ",
"   c #00020D",
".  c #311301",
"X  c #3A2B1D",
"o  c #2B1D21",
"O  c #2F372B",
"+  c #373D29",
"@  c #471E16",
"#  c #5D2B0E",
"$  c #472C1A",
"%  c #493814",
"&  c #722507",
"*  c #6C2D1D",
"=  c #5A2C24",
"-  c #48372B",
";  c #413D2B",
":  c #563825",
">  c #503C38",
",  c #632E21",
"<  c #663727",
"1  c #6E3C26",
"2  c #763724",
"3  c #29471D",
"4  c #1D532D",
"5  c #334A2D",
"6  c #3C492A",
"7  c #295F28",
"8  c #2D5932",
"9  c #385935",
"0  c #196533",
"q  c #286328",
"w  c #2B6A2A",
"e  c #306F2E",
"r  c #2C702D",
"t  c #32762B",
"y  c #286534",
"u  c #366634",
"i  c #396537",
"p  c #346B35",
"a  c #386B35",
"s  c #346C39",
"d  c #3A6C39",
"f  c #2B7538",
"g  c #317234",
"h  c #377736",
"j  c #3A7C34",
"k  c #34723B",
"l  c #3C733B",
"z  c #347B3E",
"x  c #3E7B3C",
"c  c #444B2A",
"v  c #5A4428",
"b  c #52512F",
"n  c #4A5934",
"m  c #654526",
"M  c #654927",
"N  c #7D422A",
"B  c #794D39",
"V  c #665D34",
"C  c #7E583A",
"Z  c #556C2A",
"A  c #496738",
"S  c #456C3D",
"D  c #5A6539",
"F  c #41763F",
"G  c #417A3F",
"H  c #6D6439",
"J  c #61753D",
"K  c #2B7D40",
"L  c #377844",
"P  c #3B7D41",
"I  c #594844",
"U  c #515156",
"Y  c #655646",
"T  c #7E5E51",
"R  c #437540",
"E  c #437D41",
"W  c #4C7946",
"Q  c #5E744D",
"!  c #776E47",
"~  c #595E65",
"^  c #4F6979",
"/  c #646D72",
"(  c #81340C",
")  c #813E24",
"_  c #923F25",
"`  c #BE501B",
"'  c #924723",
"]  c #924B2D",
"[  c #904B2E",
"{  c #805E2F",
"}  c #9A522C",
"|  c #8B4933",
" . c #885534",
".. c #975637",
"X. c #A7542D",
"o. c #A75837",
"O. c #B25F39",
"+. c #A2612F",
"@. c #B86235",
"#. c #A0713E",
"$. c #CE6226",
"%. c #D96327",
"&. c #C76636",
"*. c #CD6533",
"=. c #CA6C3B",
"-. c #D76B3A",
";. c #D4733C",
":. c #DE743C",
">. c #FF792B",
",. c #E66F30",
"<. c #E7753B",
"1. c #FA7B34",
"2. c #905645",
"3. c #A55D40",
"4. c #AF6A47",
"5. c #B76644",
"6. c #BC6B42",
"7. c #97726B",
"8. c #B47760",
"9. c #CC6C4A",
"0. c #D66F44",
"q. c #CA7345",
"w. c #C9734C",
"e. c #DA7643",
"r. c #D17A4E",
"t. c #DC7D4B",
"y. c #D47D51",
"u. c #EB7D44",
"i. c #E37D4A",
"p. c #3C833B",
"a. c #43843E",
"s. c #238243",
"d. c #358446",
"f. c #3A8243",
"g. c #448242",
"h. c #498546",
"j. c #458A43",
"k. c #498A45",
"l. c #4D844C",
"z. c #4C8D4A",
"x. c #51834D",
"c. c #479148",
"v. c #4D8850",
"b. c #568B54",
"n. c #5C8C59",
"m. c #569555",
"M. c #5F876A",
"N. c #69876B",
"B. c #619A62",
"V. c #65A06F",
"C. c #FF833B",
"Z. c #A88570",
"A. c #DD8152",
"S. c #EE834A",
"D. c #F48243",
"F. c #FE8542",
"G. c #FF8B45",
"H. c #FE8B4C",
"J. c #FF934A",
"K. c #E98A56",
"L. c #FD945A",
"P. c #D18E6C",
"I. c #CE977B",
"U. c #E88D62",
"Y. c #F59C6B",
"T. c #FF9F6A",
"R. c #FFAE72",
"E. c #F6A579",
"W. c #607786",
"Q. c #7C9D83",
"!. c #7D949F",
"~. c #74A590",
"^. c #869392",
"/. c #B99B99",
"(. c #8BAC8B",
"). c #91A699",
"_. c #9198A1",
"`. c #AB9EA0",
"'. c #99A7AD",
"]. c #92B2A7",
"[. c #9DB4B6",
"{. c #AEB3AE",
"}. c #A7AFB3",
"|. c #C09B8B",
" X c #FFBB90",
".X c #BACAB9",
"XX c #F5C9B4",
"oX c #FACDB5",
"OX c #95B4C1",
"+X c #B9BBC6",
"@X c #A2BFD5",
"#X c #B4C7CD",
"$X c #B7CFED",
"%X c #C2CBCC",
"&X c #CAD3D5",
"*X c #E1D3D6",
"=X c #FEE4CF",
"-X c #FEE9DC",
";X c #D7D8E0",
":X c #C7DBF4",
">X c #E7DCE4",
",X c #E3E3E8",
"<X c #F9F6EE",
"1X c #F7F4F4",
"2X c #FEFDF3",
"3X c #F4FFFF",
"4X c #FFFFFE",
/* pixels */
"g.g.G g.g.g.E E E E G R L F F E E E G E a.g.G a.j.j.j.j.g.g.g.j.",
"h.g.E E E x G E E G F E F F F G G G R h.g.f.B.b.A j.k.j.j.g.g.g.",
"g.g.E E G g.g.g.E l l E F R E G G F E E g.g.b.W = D f.j.j.k.k.a.",
"g.x E E h.z.g.l p k R l E P L f.E E F G a.G p.9 * 1 R c.k.z.h.g.",
"a.G E m.m.k.l q (..XW k n % % c d f.E P E P g - = 2 v z k.c.k.g.",
"E G W m.k.h 7 ).4X&Xw k M 2.2.& # c L g.L s v = X , 1 A c.c.k.g.",
"E h.x.x.G q ).4X4X).q e b *X:X_...& X y y +.*.= < 1 * Y V.z.k.g.",
"R S W W r N.4X4X4X].w h n >X4X:X@X8.( $ @.F.D.=.=.O.' | Q.B.k.E ",
"R S S l s &X4X2X4X[.r h 9 *X4X;X$X/.$.-.G.F.F.G.F.F.<.2 n v.g.E ",
"E G G g Q -X4X4X4XXXA p.3 `.4X|.4.=.C.J.F.F.F.F.F.H.H.X.5 f.E g.",
"E E E g ! XX=X-X=X X#.f q Y +X7.` C.G.F.F.F.F.F.F.D.H.e.m s E E ",
"E E E f ! U.U.Y.E.T.e.A f $ 7.|.C.D.C.F.F.F.F.F.F.D.D.H.] y P R ",
"E E E L H 0.<.S.K.D.:.H d.5 ' y.q.;.C.D.F.F.F.F.F.F.u.F.&.9 f.E ",
"G E E f.J 9.i.u.S.:.*.H s.f : o.=.C.G.J.J.C.F.C.1.1.&.$ -.{ K E ",
"E E E f.A 5.y.e.;.@.[ M D J v ] ;.C.G.@.;.F.>.>.R.T.X.. %.%.i P ",
"E x E P k C 9.w...= ' *.<.=.1 ..e.J.;.  , >.L.oX{.}.{.I.L.oXQ.e ",
"E E G F P k B | : X.F.G.J.@.$ X.:.C.,.( `  X4X4X/ _.3X3X3X3X~.w ",
"G G G E F P d : N F.G.D.e.1 I Z.I.K.J.R.=X4X4X4X4X2X4X4X4X#Xh G ",
"G a.E R G F f.d  .i.D.t.} U }.+X%X<X2X4X4X4X2X2X4X4X4X4X#Xk p.a.",
"E E l R G R P s  .e.t.r.5.T ^ W.^.%X4X4X2X2X<X2X2X4X4X&XL t k.a.",
"G E R F P R E z V 9.9.r.y.4.B I I ~ ^.;X2X2X3X2X<X,X}.L t G g.g.",
"E E E F F R R z R 9.5.3.r.y.6.o.[ < > ~ !.[.'.'.'.M.r j h.h.E g.",
"E E F F E P P d.n w.r.| 3.A.A.9.5.4.} ' 2.'.OX@X].a.p.a.h.h.g.g.",
"E G F F R l E L n 3.t.4.O < O.5.6.w.q.&.;.XX4X,Xm.p.x p.a.h.E E ",
"g.E R R E R l s 6 | o.n y O o 6  .u.D.1.K.4X1XP.Z f.V.(.m.x E g.",
"g.g.E E E d u s - 2 : 8 p y 8 0 n 0.D.C.@.[.7.` H d.M.Z.b.L E g.",
"g.a.G E E l d s + @ + s u a p p 9 | @.*.{ 4 - _ M k d p l h.g.h.",
"a.E E h.W G G p u 9 u a a a a a 9 : 2 ) v p 5 = 2 c g u d E h.E ",
"g.E E E g.g.E l.g.E l a a a u a u > < < = i u ; - n d i d G g.g.",
"g.G E G j.a.l.n.k.a.E x l d d d s + - - ; u h l p a d F F E g.E ",
"P G g.a.g.g.g.E g.G g.a.G F F G E d 9 L s l l l h l G G G h.E g.",
"g.g.a.g.g.j.g.g.g.a.g.G a.a.g.E E E E L a.x G a.G G E a.h.E E h."
};
