/* XPM */
static char *result[] = {
/* columns rows colors chars-per-pixel */
"32 32 203 2 ",
"   c #02080C",
".  c #21151F",
"X  c #35221D",
"o  c #431C06",
"O  c #44220E",
"+  c #49271B",
"@  c #4E3216",
"#  c #6F2E0A",
"$  c #792B1F",
"%  c #68371F",
"&  c #73361D",
"*  c #492E29",
"=  c #572E27",
"-  c #45362B",
";  c #593925",
":  c #4D3832",
">  c #672E21",
",  c #6C3624",
"<  c #6B3825",
"1  c #6C3D28",
"2  c #753926",
"3  c #7C3D26",
"4  c #244628",
"5  c #36472B",
"6  c #2B562F",
"7  c #3B5A2E",
"8  c #3A4A32",
"9  c #285C32",
"0  c #375531",
"q  c #345B33",
"w  c #3C5A32",
"e  c #266B27",
"r  c #2D7329",
"t  c #31782C",
"y  c #2B6935",
"u  c #366635",
"i  c #356A35",
"p  c #386B35",
"a  c #376639",
"s  c #356D3A",
"d  c #3A6D39",
"f  c #2C763A",
"g  c #347635",
"h  c #397D37",
"j  c #36733C",
"k  c #3C743B",
"l  c #357A3D",
"z  c #3E7C3D",
"x  c #4A421C",
"c  c #4A452C",
"v  c #47492D",
"b  c #485427",
"n  c #4E4D30",
"m  c #5B4734",
"M  c #564B30",
"N  c #485632",
"B  c #63482D",
"V  c #7B4B28",
"C  c #735928",
"Z  c #694C35",
"A  c #794531",
"S  c #774D32",
"D  c #635334",
"F  c #486638",
"G  c #446D3D",
"H  c #516238",
"J  c #41763F",
"K  c #417A3F",
"L  c #5E733C",
"P  c #7E6229",
"I  c #3A7646",
"U  c #357D41",
"Y  c #3C7D41",
"T  c #4B4547",
"R  c #514C50",
"E  c #604C49",
"W  c #427640",
"Q  c #437C41",
"!  c #4B7B47",
"~  c #706754",
"^  c #585F64",
"/  c #747160",
"(  c #893308",
")  c #853E22",
"_  c #9D4517",
"`  c #824325",
"'  c #88472C",
"]  c #964B2A",
"[  c #92522B",
"{  c #8B4A36",
"}  c #8D5139",
"|  c #9A5637",
" . c #A04E2E",
".. c #A85328",
"X. c #B45827",
"o. c #A95A36",
"O. c #A9623B",
"+. c #BA673A",
"@. c #BC663A",
"#. c #D56428",
"$. c #C8693A",
"%. c #D66B3A",
"&. c #CD713A",
"*. c #D6723A",
"=. c #EC6D20",
"-. c #FF6F22",
";. c #FF752B",
":. c #E36E36",
">. c #E3753C",
",. c #ED743A",
"<. c #FE7B31",
"1. c #F77C3A",
"2. c #87574E",
"3. c #9A6145",
"4. c #B66844",
"5. c #AB6E50",
"6. c #967468",
"7. c #C76C43",
"8. c #CB7346",
"9. c #C47249",
"0. c #CB7449",
"q. c #CB754A",
"w. c #D57548",
"e. c #DB7D4D",
"r. c #D27D53",
"t. c #E57942",
"y. c #F87F42",
"u. c #3C813B",
"i. c #42813E",
"p. c #3E8243",
"a. c #3E8C45",
"s. c #448242",
"d. c #488446",
"f. c #448A44",
"g. c #498A45",
"h. c #49844B",
"j. c #4C8D49",
"k. c #51834D",
"l. c #489248",
"z. c #558C54",
"x. c #5E855C",
"c. c #539553",
"v. c #5A9659",
"b. c #5F8668",
"n. c #5C8C73",
"m. c #619760",
"M. c #6F9371",
"N. c #FC853C",
"B. c #E98149",
"V. c #F58243",
"C. c #FE8542",
"Z. c #FF8B45",
"A. c #F5844A",
"S. c #FD8B4B",
"D. c #FF9047",
"F. c #FF9249",
"G. c #E48352",
"H. c #FB8E55",
"J. c #FA9453",
"K. c #C98D72",
"L. c #C69B7E",
"P. c #E28F62",
"I. c #FFA462",
"U. c #FFAE76",
"Y. c #6A7984",
"T. c #6F818C",
"R. c #739685",
"E. c #968E89",
"W. c #989B92",
"Q. c #AA958E",
"!. c #A79899",
"~. c #BA9C96",
"^. c #8BA88A",
"/. c #9DA69A",
"(. c #8EB59F",
"). c #919FA5",
"_. c #9AA8AD",
"`. c #98A7B2",
"'. c #BAB1AD",
"]. c #A1ADB8",
"[. c #C19D89",
"{. c #F1AD88",
"}. c #FFC59A",
"|. c #D5C4B7",
" X c #FFD3AA",
".X c #99BACA",
"XX c #B3BBCA",
"oX c #A2C2CC",
"OX c #B7C3C7",
"+X c #B2D0F6",
"@X c #C7CBCB",
"#X c #DFCAC2",
"$X c #EED0C3",
"%X c #CCE5F1",
"&X c #D9E6FA",
"*X c #E9EBE9",
"=X c #F8EDE7",
"-X c #F8F8EE",
";X c #E3EEF3",
":X c #EDF5F9",
">X c #FEFEF3",
",X c #F6F3FA",
"<X c #FFFFFE",
/* pixels */
"d.s.i.s.s.Q Q Q K Q Q W W k W Q Q Q Q Q s.s.u.s.f.f.f.f.i.i.d.i.",
"d.s.K Q Q z K s.s.W J Q W W z Q K J Q d.s.s.m.c.F Q l.d.s.f.i.d.",
"s.Q Q K K s.s.Q Q W I W W Q Q Q Q K W Q s.s.z.h.M 1 a.l.i.j.g.s.",
"s.z Q s.g.j.Q Q Q J G J Y Y I Y p.Q J K Q z u.I = $ n a.j.j.g.s.",
"K J ! v.c.g.J J Q W Y Y G x @ x w Y s.Y W Q l 0 = & , G l.l.j.s.",
"i.K d.v.h.K J Q Q W W l 7 ' 2.$ # @ s ! Y U n > X = , M a.l.g.s.",
"K d.k.! Q K W Q z W k l b ~.&X].6.# o 6 y C %.V + A & 1 x.c.g.d.",
"J J ! ! Q K Q W G W r (.Q.Q.<X&X+XQ._ O B 1.Z.*.$.+.[ ` / m.g.K ",
"W G W ! Q W Q W k g b.,X'.E.>X*X+XXX$.#.N.D.N.Z.C.V.V...c h.s.s.",
"Q J K J Q Q z z j I K.}.L.^ <X#X5.+.>.Z.Z.C.C.C.C.C.F.>.; y f.Q ",
"! K K K Q J z z l ~ :.Z.J.m `.!...1.S.Z.C.C.C.C.C.C.A.A. .0 p.W ",
"K Q J K Q Q W Y J [ $.t.H.] E ~.B.N.1.C.C.C.C.C.C.N.V.S.%.v U Q ",
"i.K Q s.Q K Q Y H ] O.0.H.+.O 9.e.*.1.C.N.C.C.C.C.C.V.Z.y.Z j s.",
"i.K K ! Q Q Q Y n 3 3.q.w.L 4 ' +.>.V.F.F.N.C.C.<.;.,.% [ 7.q p.",
"Q Q K Q Q K Q Y c > A ' ` L N V +.N.Z.&.@.D.<.-.J.U.e.O # ;.C f ",
"K Q Q Q W K z s.N * ) X.*.t.' S 8.S.D.X   =.N.}.@X_.'.[.G.{.|.U ",
"s.Q K K W z Q p.q ] N.D.F.A.= 1 *.,.<._ ( J.=X<X].^ ;X:X<X<X%XU ",
"K K J J W W Y j m >.S.C.B.] : 6.L.P.H.I. X<X<X<X<X<X<X<X<X:Xn.g ",
"K K J W z W Y j S w.B.B.@.: T.OX'.*X>X<X<X<X>X-X>X<X<X<X,Xn.r i.",
"Q K J W J Y Q l Z 7.e.e.0.3.^ Y.T.].:X<X<X>X>X>X>X<X<X,XR.e i.f.",
"s.K J J z W Q U F 4.0.0.r.9.2.Z E R Y.OX-X>X>X>X>X=X@Xn.e u.s.i.",
"s.Q Q J W Q W Y d 4.q.| 9.e.8.o.] V ; T Y.`._.)._.R.j t f.d.d.Q ",
"K ! J K J J z Y a 5.G.3.{ 8.G.q.4.4.o.] ' E..X.XoXv.t i.d.d.Q d.",
"i.K J J J Y W p.0 } w.7.c - | +.4.0.9.$.#.{.<X<X^.h u.u.i.s.d.K ",
"s.K W J W J J k 8 A o.D y 4 . 5 D &.C.1.%.$X<X{.P f M.^.v.K i.s.",
"d.s.Q Q Q J k s 5 > > 6 s s 6 9 9 O.V.N.:.W./.X.] s M.M.x.K s.s.",
"i.i.J d.J J z j 5 + + u i u p s y Z o.$...7 4 3 ` N g u k d.d.K ",
"i.i.K d.Q K K k i 6 u d i d u u i - < ` 2 7 q * 2 ; y u d K d.d.",
"d.K K s.d.i.s.h.Q i.k p p d u u j 8 = 2 > v j 8 - c u d d K i.d.",
"i.K Q K i.d.Q m.j.i.K z d d p d d 8 * - - w k g u p d J J K i.K ",
"s.i.i.K d.g.! i.d.K i.d.K K z J Y k I q s g k k k k K K K K d.i.",
"s.d.d.i.i.i.d.i.i.s.s.i.i.i.s.Q Q s.Q Q K i.K i.K i.d.i.d.d.i.! "
};
