/* XPM */
static char *result[] = {
/* columns rows colors chars-per-pixel */
"32 32 214 2 ",
"   c #301709",
".  c #271A1B",
"X  c #373627",
"o  c #541F09",
"O  c #6A1F00",
"+  c #46281D",
"@  c #512F1F",
"#  c #4D3917",
"$  c #503012",
"%  c #6E301C",
"&  c #562F27",
"*  c #44342C",
"=  c #4C372B",
"-  c #533022",
";  c #6D2D20",
":  c #6A3522",
">  c #653924",
",  c #6D3B24",
"<  c #633A2B",
"1  c #753525",
"2  c #733B24",
"3  c #783B24",
"4  c #1F532E",
"5  c #294D2D",
"6  c #30502F",
"7  c #38572E",
"8  c #3A5132",
"9  c #335A31",
"0  c #365832",
"q  c #1F6133",
"w  c #296828",
"e  c #386026",
"r  c #2C722C",
"t  c #30742B",
"y  c #2D6433",
"u  c #2D6C35",
"i  c #226B38",
"p  c #356634",
"a  c #386637",
"s  c #356B34",
"d  c #396B36",
"f  c #346B39",
"g  c #3B6D39",
"h  c #2C733D",
"j  c #2F7E3E",
"k  c #347435",
"l  c #347932",
"z  c #36733A",
"x  c #3C733B",
"c  c #3E7C3D",
"v  c #4A4820",
"b  c #4D432A",
"n  c #55492C",
"m  c #58592D",
"M  c #454930",
"N  c #475832",
"B  c #5A5233",
"V  c #545C36",
"C  c #6B4128",
"Z  c #7D4526",
"A  c #724129",
"S  c #75552B",
"D  c #6A4B39",
"F  c #784D36",
"G  c #635031",
"H  c #4D6730",
"J  c #426D3C",
"K  c #4B683B",
"L  c #41763E",
"P  c #417A3F",
"I  c #6F6C3E",
"U  c #2A7C40",
"Y  c #397645",
"T  c #357B40",
"R  c #3B7D41",
"E  c #51494A",
"W  c #545558",
"Q  c #654A41",
"!  c #437640",
"~  c #437C41",
"^  c #477948",
"/  c #4A7852",
"(  c #527752",
")  c #6C6954",
"_  c #62656A",
"`  c #893913",
"'  c #893F20",
"]  c #904013",
"[  c #B85218",
"{  c #874427",
"}  c #924C2B",
"|  c #9E5229",
" . c #934B35",
".. c #965337",
"X. c #A75329",
"o. c #B35C2F",
"O. c #BA5A2D",
"+. c #A65934",
"@. c #B85C35",
"#. c #8F6832",
"$. c #966438",
"%. c #AA613B",
"&. c #B5643C",
"*. c #BB6439",
"=. c #D36124",
"-. c #C36639",
";. c #C46B3C",
":. c #CD6F3D",
">. c #D86D39",
",. c #DC733B",
"<. c #E86C2A",
"1. c #EC722D",
"2. c #FF752A",
"3. c #EA7838",
"4. c #F97B39",
"5. c #8F5C55",
"6. c #AF5D42",
"7. c #966843",
"8. c #AA6440",
"9. c #BC6842",
"0. c #B17354",
"q. c #91756D",
"w. c #C86B43",
"e. c #CC7344",
"r. c #CA7447",
"t. c #D17748",
"y. c #DD7B4B",
"u. c #CF7B51",
"i. c #E47C43",
"p. c #ED7C41",
"a. c #E57949",
"s. c #F67C43",
"d. c #3D823A",
"f. c #42823E",
"g. c #238847",
"h. c #3E8144",
"j. c #3F8945",
"k. c #448242",
"l. c #488545",
"z. c #448A43",
"x. c #498A45",
"c. c #4A864B",
"v. c #4C8D49",
"b. c #51834D",
"n. c #479348",
"m. c #558C54",
"M. c #57855D",
"N. c #4F9754",
"B. c #579556",
"V. c #5D9D68",
"C. c #659467",
"Z. c #659073",
"A. c #749779",
"S. c #6CA071",
"D. c #FD8138",
"F. c #948770",
"G. c #EC824A",
"H. c #F58143",
"J. c #FE8543",
"K. c #FF8B45",
"L. c #FA864A",
"P. c #FD8C4C",
"I. c #FF924A",
"U. c #E38453",
"Y. c #F38A51",
"T. c #F98956",
"R. c #FF9C58",
"E. c #DC8E63",
"W. c #C9977B",
"Q. c #E69467",
"!. c #F19364",
"~. c #F7A274",
"^. c #FFB57B",
"/. c #537487",
"(. c #6B7B85",
"). c #748C8F",
"_. c #6C9481",
"`. c #908F89",
"'. c #A49384",
"]. c #AF9A91",
"[. c #8BAC8A",
"{. c #94AA9C",
"}. c #B7B19E",
"|. c #9BA6AA",
" X c #94AFBA",
".X c #B1A3AB",
"XX c #A8B2B3",
"oX c #A2B2B8",
"OX c #FFB385",
"+X c #EDBDA6",
"@X c #B3C3B4",
"#X c #FFC396",
"$X c #D5C3B6",
"%X c #F9C9B5",
"&X c #FFD1B3",
"*X c #95B7C6",
"=X c #AEB9C6",
"-X c #B3C2CA",
";X c #AEC4D8",
":X c #B6D6FB",
">X c #C6CCCD",
",X c #D2D2D1",
"<X c #F5DCD0",
"1X c #E1E4DF",
"2X c #FFE5D4",
"3X c #C5D0E2",
"4X c #DBE1E3",
"5X c #D7E7F5",
"6X c #E5E7EA",
"7X c #F1EDF4",
"8X c #ECF4F8",
"9X c #FEFDF4",
"0X c #F3F5FA",
"qX c #FFFFFE",
/* pixels */
"l.k.f.k.~ ~ ~ ~ ~ ~ ~ L L L L ! ~ P ~ ~ k.k.d.d.z.z.z.z.f.f.l.f.",
"l.k.P ~ k.c ~ ~ ~ ~ x ^ ! x R ~ ~ P ! l.k.f.C.B.J ~ n.l.z.l.f.l.",
"k.k.~ ~ P k.k.~ ~ x g ! ~ ~ ~ ~ ~ ~ ~ ~ h.l.m.v.n 2 ^ z.f.v.l.k.",
"~ c ~ ~ l.v.~ ~ k s ~ x ! R Y R R ~ L L ~ ~ c T = % B z.v.v.x.k.",
"P L f.B.N.x.P w ^ @X[.s x v $ = 7 R l.~ P ~ c 0 - % 1 K n.n.v.k.",
"f.P f.B.c.P w ( 4XqXZ.r e { 5.1 O $ 0 ^ k.U N : + + 1 n j.n.x.k.",
"P b.b.( ^ r / 4XqX6XY k e '.8X=Xq.` o 5 i m >.} @ A 2 : ( N.x.k.",
"P J ^ ^ P p >XqXqX6X/ l x ].qX5X:X.XX.$ C 3.K.,.:.;.X.} ) V.v.~ ",
"L K ! ^ w A.9XqXqX0XM.r d F.qX7X3X;Xu.=.4.K.J.K.J.J.L.O.b k.k.k.",
"P P P P w }.qXqXqX9XF.w z ) 7X1X0.&.,.K.K.J.J.J.J.J.I.p.> u k.~ ",
"f.P P P d W.<X2X2X&XY.K T N `..X| 1.K.L.J.J.J.J.J.J.J.L.X.8 h.R ",
"~ P P c K 0.!.!.~.~.T.$.T V Q ].U.H.4.J.J.J.J.J.J.J.H.L.,.n T ~ ",
"k.P ~ h.g 8.a.p.Y.Y.s.%.z c # 9.U.,.D.H.J.J.D.J.J.J.H.P.L.A h k.",
"P ~ ~ k.x 7.a.a.G.i.,.+.f g.6 { *.,.D.K.K.J.K.J.4.2.3.| w.:.9 h.",
"~ ~ ~ ~ T 7.t.t.,.;.+.Z m I H 2 *.3.L.I.K.K.D.2.I.^.:.  ` 2.S j ",
"~ P P ~ T K 6.w.&.A C o.>.s.} C r.K.K.C   [ D.OX,X|.XX].E.OX$XT ",
"~ ~ P L ! T V  .> C 3.K.I.P.% % ,.4.2.] O G.2XqX-XW 4X0XqXqX5XU ",
"k.P P ~ L ~ T N - *.I.K.G.o.+ q.W.Q.Y.R.#X9XqXqXqXqXqXqXqX0XZ.l ",
"P P L ! P L R T B w.G.G.:.< (.>X=X1XqXqXqXqX9X9XqXqXqXqXqX_.r z.",
"P P L ~ L L R R V -.G.y.r.8._ /.).oX8XqXqX9X9X9X9XqXqXqX).w d.k.",
"P P ! L x ~ ~ R a 8.a.r.u.t.7.Q D W (.-X8X9XqXqX9X7X,X_.r d.l.k.",
"k.k.~ L ! ~ ! R h 7.y.6.r.U.t.@.+.' < E (. XoX|.oX{.Y t d.x.k.k.",
"~ ~ L L ! R ! R u 7.Y.6. .e.Y.y.9.9.+.| { F.*X*X;XS.t f.l.l.~ k.",
"k.L L ~ ! ~ R R f F y.t.G X ..w.9.e.e.:.=.Q.qXqX{.d.l d.f.l.~ k.",
"k.P P L L L g x 9 < @.F p 4 . X B ;.L.H.<.+XqX%X#.r A.[.B.L f.f.",
"k.k.P P L g a f 6 : 1 6 u d 9 4 q $.J.D.<.'.XXO.| f C.).m.L P f.",
"l.P L k.P x x x 9 + + 9 d d d d y G +.-.O.N 5 3 { N k s P l.l.P ",
"f.P P l.^ P P d d 9 9 a f d d p f M , { 3 7 p * 1 , y p J P l.l.",
"l.P P k.l.f.l.c.k.c x d d d a a z 8 & 1 ; b k 8 = b p J J P f.f.",
"f.P ~ P f.f.~ C.c.f.k.c x d d d g 8 * * * 8 x k s s d L J P l.f.",
"k.P P f.l.l.f.~ k.P k.k.P L c P ! R a a f z x x x x P P P l.~ l.",
"k.l.l.f.f.f.l.k.k.f.k.k.f.f.k.~ ~ ~ k.~ k.P f.P f.P P l.f.P l.P "
};
