/* XPM */
static char *result[] = {
/* columns rows colors chars-per-pixel */
"32 32 211 2 ",
"   c #353A1D",
".  c #1F2121",
"X  c #2E2822",
"o  c #373726",
"O  c #541E0E",
"+  c #58280B",
"@  c #48271A",
"#  c #4E3815",
"$  c #6C2100",
"%  c #7B291B",
"&  c #4C2C28",
"*  c #542F2B",
"=  c #44362E",
"-  c #49362B",
";  c #533625",
":  c #6C3523",
">  c #653A27",
",  c #6B3A25",
"<  c #713424",
"1  c #783821",
"2  c #294A26",
"3  c #374728",
"4  c #37592E",
"5  c #335131",
"6  c #3A5534",
"7  c #395C33",
"8  c #1C6333",
"9  c #2A6A29",
"0  c #32612E",
"q  c #306B2C",
"w  c #2D722A",
"e  c #31762B",
"r  c #2A6635",
"t  c #366434",
"y  c #396335",
"u  c #346A35",
"i  c #386B36",
"p  c #3A6538",
"a  c #356B38",
"s  c #3B6D39",
"d  c #2B763C",
"f  c #2D783B",
"g  c #357235",
"h  c #387436",
"j  c #387B34",
"k  c #35753B",
"l  c #3D743C",
"z  c #347C3E",
"x  c #3D7B3C",
"c  c #4D412B",
"v  c #45482C",
"b  c #554A2C",
"n  c #45552B",
"m  c #49522B",
"M  c #544A36",
"N  c #535532",
"B  c #6F412D",
"V  c #794528",
"C  c #78572C",
"Z  c #6A4737",
"A  c #784935",
"S  c #625D37",
"D  c #775E39",
"F  c #436737",
"G  c #5C663B",
"H  c #40763F",
"J  c #417A3F",
"K  c #65693B",
"L  c #2D7D41",
"P  c #3C7542",
"I  c #377A44",
"U  c #3B7D41",
"Y  c #56554E",
"T  c #705C55",
"R  c #427640",
"E  c #427C41",
"W  c #477B47",
"Q  c #4A7E46",
"!  c #567945",
"~  c #497350",
"^  c #5A7C54",
"/  c #706B4F",
"(  c #75665A",
")  c #5C676F",
"_  c #626C76",
"`  c #853E16",
"'  c #883E21",
"]  c #AA4A16",
"[  c #8B4427",
"{  c #984B28",
"}  c #8B4835",
"|  c #86553A",
" . c #955238",
".. c #95593C",
"X. c #A6542B",
"o. c #BC5B2E",
"O. c #A24F30",
"+. c #A85836",
"@. c #AC5A34",
"#. c #B15E36",
"$. c #966632",
"%. c #A8613A",
"&. c #B46237",
"*. c #B86339",
"=. c #BC653E",
"-. c #CE5D1E",
";. c #CB5E21",
":. c #D66628",
">. c #C96938",
",. c #D96B38",
"<. c #D5713A",
"1. c #EA6E29",
"2. c #FF6E29",
"3. c #FD7429",
"4. c #E37131",
"5. c #E7773B",
"6. c #FA7C38",
"7. c #955944",
"8. c #AA6543",
"9. c #B76841",
"0. c #B46D4A",
"q. c #B96850",
"w. c #826F6F",
"e. c #92796C",
"r. c #C46B44",
"t. c #CC7242",
"y. c #C3734A",
"u. c #D57B4D",
"i. c #DB7849",
"p. c #EC7E41",
"a. c #E47C48",
"s. c #F27B41",
"d. c #E37B50",
"f. c #3C813A",
"g. c #42823E",
"h. c #2F8243",
"j. c #3D8344",
"k. c #3E8845",
"l. c #448242",
"z. c #4A8446",
"x. c #448A43",
"c. c #498A45",
"v. c #4B834B",
"b. c #478B4D",
"n. c #4C8D49",
"m. c #489349",
"M. c #558C53",
"N. c #4F9854",
"B. c #579556",
"V. c #5C9C67",
"C. c #688D6C",
"Z. c #619660",
"A. c #609379",
"S. c #789A79",
"D. c #6CA074",
"F. c #F7813F",
"G. c #8C8773",
"H. c #919A70",
"J. c #A3856F",
"K. c #BA846E",
"L. c #80A17E",
"P. c #DF814F",
"I. c #D78452",
"U. c #EC834B",
"Y. c #F68344",
"T. c #FE8542",
"R. c #FF8B45",
"E. c #F3844A",
"W. c #FC854A",
"Q. c #FE8C49",
"!. c #FF924B",
"~. c #E28554",
"^. c #F78954",
"/. c #FF9254",
"(. c #CF8E6C",
"). c #FF9C6C",
"_. c #E29871",
"`. c #FFB57C",
"'. c #4F6F80",
"]. c #677E8B",
"[. c #6B9482",
"{. c #7B9E92",
"}. c #98898B",
"|. c #B3958C",
" X c #8AA793",
".X c #8E9FA9",
"XX c #99A5AA",
"oX c #A6AFA4",
"OX c #A1B2B8",
"+X c #B3B9B2",
"@X c #FFB282",
"#X c #E5AA90",
"$X c #D6C5B7",
"%X c #F7CBB2",
"&X c #98B9C8",
"*X c #B5B7C5",
"=X c #B0C4D4",
"-X c #B9D3F4",
";X c #D7D6CA",
":X c #D4CAD1",
">X c #C8D3DC",
",X c #D2D8D9",
"<X c #EAE8DD",
"1X c #D4E4EB",
"2X c #FFF5E9",
"3X c #E8E9F0",
"4X c #F2EFF1",
"5X c #ECF7FF",
"6X c #FFFEF4",
"7X c #F6FBFF",
"8X c #FFFEFE",
/* pixels */
"l.l.g.l.E E E E E E E R l R J E E E R Q l.g.f.l.x.x.k.g.x.x.l.c.",
"z.l.E E l.x E E E E l W R l J J J J E l.l.l.Z.B.F R m.z.l.g.g.l.",
"l.l.E E H E l.l.E R l H E R E E E H J E l.l.M.b.N > z.m.c.c.l.z.",
"l.x E E c.n.l.H E R R H E U I I j.l.H H E E x f.- % b x.c.n.l.z.",
"g.H E B.N.c.H J R H H H P m # # n s l.P E E z y * < 1 F m.m.c.l.",
"E H Q B.v.J H E E H H P s B 7.A $ + 7 U l.L y > @ @ < b k.m.c.l.",
"l.z.Q Q Q H R E H R R E q / 3X=X}.[ O 3 r n >.O.@ , 1 : M.N.n.z.",
"H H ^ Q j H E R P R E l.q ( 8X5X-X*X#.+ ; 5.R.5.>.>.X.' ( V.c.J ",
"R 0 S.+Xk 9 g l H H J l.q Y 6X8X>X-XK.-.6.R.T.R.Q.W.W.o.- j.l.l.",
"R q S.8X;XL.W d k J J J h 3 :X6XK.&.<.R.Q.T.F.T.T.R.Q.p.B q x.E ",
"E w C.8X8X8X<XH.k f J J U 2 w.*X7.:.F.R.T.T.F.R.T.T.Y.Q.@.4 U E ",
"E j ~ :X8X2X%X).I.! f J E t # |._.F.Y.F.T.T.T.T.T.T.Y.Y.,.b I R ",
"g.x P oX2X$Xu.p.R.^.! L E U   O.P.<.5.T.R.T.F.T.T.R.Y.Q.s.A d l.",
"J H f.G.#XI.y.u.d.W.y.k h.h.8 > &.<.F.T.F.R.R.T.6.3.4.>.a.>.7 j.",
"g.E z / q.8.8.8.0.y.i.S F K G B +.p.T.R.R.R.6.2.!.`.<.` ] 2.C f ",
"E J f.H A } 7.7.7.| , @.,.6.#.> =.U.R.5.#.:.3.@X;XXX+X|.(.@X$XI ",
"g.J H j.p Z ' 7.A ; #.R.R.!.{ O >.5.F.;.] :.%X8X>XY ,X5X7X8X1XI ",
"l.J H R U P M , & A R.R.Y.>.; T K._.^./.@X2X8X8X8X8X8X8X8X7XA.j ",
"J J H E E P U p v +.E.E.i.[ ) =X*X,X6X8X8X8X6X6X8X8X8X8X7X[.w l.",
"E J R R x H x j.k ..i.P.u.9.( '.[..X1X8X8X6X6X6X6X8X8X7X{.9 f.x.",
"J J J J l E E E g D i.t.u.u.8.A Z Y ].OX3X6X6X8X6X4X,XA.w j l.l.",
"l.l.R H E E E P L K i.9.9.I.u.=.+.' , - _ .XOXXXXX.XP e g.z.l.l.",
"J W J J H H P E U N d.y. .=.~.P.r.9.#.X.[ e.&X&X=XD.e g.c.l.z.E ",
"J J H J H E E l.I M r.d.| o V =.9.r.u.t.:.~.6X8XoXf.j f.l.z.E l.",
"l.J E E H l s l r c +. .n 8 . X m %.Y.R.1.#X8X%X$.w S. XB.J J g.",
"l.g.H l s y y i 0 ; 1 = r k 0 5 8 D s.F.3.J.OX#.X.p C.[.M.J g.g.",
"l.J h F y t t a u o @ 3 a i s s r N X.*.*.N 2 , [ m g g J z.z.J ",
"z.J J E J H k s s t 5 t s u t t a 6 ; ' 1 m r = < : 7 u F J g.z.",
"l.l.H z.z.g.l.v.E H x h i i u t k 6 * : < ; a 6 - c t s s J g.z.",
"g.J J J g.l.Q Z.n.g.g.l h s s s s 7 = = - 6 a h u u s l J J z.J ",
"E l.g.g.g.l.E E z.J g.J J H x H H P p p u k l l h l H J E E g.Q ",
"l.l.l.l.l.c.l.l.g.l.l.z.g.g.l.l.E E l.U l.f.J E J g.z.g.z.g.Q g."
};
