/* XPM */
static char *result[] = {
/* columns rows colors chars-per-pixel */
"32 32 206 2 ",
"   c #3D1704",
".  c #332C23",
"X  c #501C18",
"o  c #48250F",
"O  c #59280F",
"+  c #55301F",
"@  c #6F2E11",
"#  c #732919",
"$  c #77371D",
"%  c #4A2C26",
"&  c #48372C",
"*  c #453A2A",
"=  c #563624",
"-  c #533D27",
";  c #53352F",
":  c #6C3A25",
">  c #633829",
",  c #6C3C29",
"<  c #723222",
"1  c #793823",
"2  c #284729",
"3  c #3C4026",
"4  c #32522E",
"5  c #3D5C2B",
"6  c #265832",
"7  c #355D33",
"8  c #3A5835",
"9  c #176233",
"0  c #26692D",
"q  c #2A6E2C",
"w  c #2E722D",
"e  c #30752A",
"r  c #2A6836",
"t  c #2B6A36",
"y  c #356434",
"u  c #386434",
"i  c #356A35",
"p  c #386B36",
"a  c #3A6538",
"s  c #346D39",
"d  c #3B6D39",
"f  c #2D7439",
"g  c #397437",
"h  c #387B31",
"j  c #357439",
"k  c #3D733C",
"l  c #337A3C",
"z  c #3D7B3C",
"x  c #65521D",
"c  c #4A4728",
"v  c #584728",
"b  c #4A542F",
"n  c #564F36",
"m  c #5A4C31",
"M  c #495633",
"N  c #565732",
"B  c #75492C",
"V  c #6B4634",
"C  c #6B5B36",
"Z  c #715939",
"A  c #476337",
"S  c #436D3D",
"D  c #57683D",
"F  c #41753F",
"G  c #417A3F",
"H  c #2F7E40",
"J  c #387742",
"K  c #3B7C41",
"L  c #524F51",
"P  c #585254",
"I  c #644E47",
"U  c #7D4F49",
"Y  c #437541",
"T  c #437C41",
"R  c #4A7947",
"E  c #4B7D49",
"W  c #527444",
"Q  c #5C7159",
"!  c #676D50",
"~  c #4A5961",
"^  c #727262",
"/  c #893E24",
"(  c #95401C",
")  c #B44F17",
"_  c #844526",
"`  c #8B4A26",
"'  c #994B27",
"]  c #97512E",
"[  c #884B34",
"{  c #965536",
"}  c #AA4E20",
"|  c #AE562A",
" . c #A75833",
".. c #B85A30",
"X. c #A4602F",
"o. c #AA613A",
"O. c #B96439",
"+. c #CD632B",
"@. c #C66837",
"#. c #CC6E3C",
"$. c #D36B3A",
"%. c #DC743D",
"&. c #E96F2D",
"*. c #FE7629",
"=. c #FF792E",
"-. c #E77639",
";. c #E5763C",
":. c #FA7935",
">. c #F27D3C",
",. c #935A47",
"<. c #996348",
"1. c #AC6F4C",
"2. c #B76944",
"3. c #8F6D65",
"4. c #8B766B",
"5. c #8E7C7F",
"6. c #C56E44",
"7. c #C7734A",
"8. c #D67449",
"9. c #D57A4C",
"0. c #DA7B4C",
"q. c #C37956",
"w. c #DA7F50",
"e. c #EB7D43",
"r. c #E57C49",
"t. c #F27D42",
"y. c #3D8139",
"u. c #41823E",
"i. c #348343",
"p. c #3C8243",
"a. c #3F8F46",
"s. c #448242",
"d. c #488545",
"f. c #458A44",
"g. c #498945",
"h. c #49834B",
"j. c #4B8D4A",
"k. c #51834D",
"l. c #479149",
"z. c #588657",
"x. c #558C54",
"c. c #569555",
"v. c #5F9F69",
"b. c #668D67",
"n. c #6C9A6C",
"m. c #72A17F",
"M. c #FF833B",
"N. c #B78768",
"B. c #DD804F",
"V. c #C5805E",
"C. c #E8824E",
"Z. c #F48447",
"A. c #FE8542",
"S. c #FF8B44",
"D. c #FD844B",
"F. c #FF8C4A",
"G. c #FF9249",
"H. c #FF9558",
"J. c #E99264",
"K. c #FF9E60",
"L. c #707E87",
"P. c #6C8796",
"I. c #7DA89A",
"U. c #838288",
"Y. c #998A90",
"T. c #A68C89",
"R. c #B18E81",
"E. c #8FAF8C",
"W. c #B8A59A",
"Q. c #9F9AA5",
"!. c #94ACA8",
"~. c #8AABBA",
"^. c #9EB0B9",
"/. c #ABB6B8",
"(. c #B9BABA",
"). c #C7A58D",
"_. c #D6A386",
"`. c #FFBC8F",
"'. c #FFB498",
"]. c #C9ABAB",
"[. c #B8CCB5",
"{. c #DAC5B8",
"}. c #F6C6A9",
"|. c #9EBAD0",
" X c #B6C6C4",
".X c #BECAD1",
"XX c #B4D0F2",
"oX c #D5CECA",
"OX c #D0D0CD",
"+X c #D1DCD0",
"@X c #E0D1D8",
"#X c #FFE0C8",
"$X c #E6E6DE",
"%X c #FFE1D6",
"&X c #FFEBDC",
"*X c #ECF0DF",
"=X c #CDDEF3",
"-X c #CAE1ED",
";X c #E7EBEC",
":X c #F5ECEA",
">X c #FAF3E7",
",X c #E9ECF5",
"<X c #F0E8F6",
"1X c #E1F1FE",
"2X c #FEFDF3",
"3X c #FFFFFE",
/* pixels */
"d.s.u.s.T T T G T T T Y Y J F T G G T T s.s.y.G d.f.f.f.d.f.d.u.",
"d.s.G T s.G T s.T T k T Y F J T T G Y d.s.s.v.x.z f.f.d.u.u.u.d.",
"s.T T G G T s.T T Y d Y T F G T T F T T s.s.x.j.A N j.s.d.g.d.s.",
"s.z T s.g.j.s.G T Y Y F F T K s.T T F G T z z p.c # D a.f.j.g.s.",
"T G T c.c.d.z Y T J F z z S 5 8 d p.s.z G F G K & # : F l.l.g.s.",
"u.G E c.d.T Y T T T F Y J v @ @ O c z y.T K s c % + $ m l.l.g.s.",
"T d.k.k.T G Y T k Y T T g C ].Q.,.@ o 4 i.f Z ` o = $ > z.c.g.s.",
"F Y W E T G T F Y Y Y s.z ! <X1XXXT.( o . X.M.#.]  ._ / ^ v.g.T ",
"Y S Y Y G G G G F F G T z ! :X3X=XXXN.} ..S.S.A.Z.e.%.| m h.p.T ",
"T F G F G G G G G G G G j M OX3X].R.7.:.S.A.A.S.S.A.G.;.= s s.s.",
"T G T T G G z K p.K G G z 5 Y.@X<...:.F.M.A.A.A.A.A.A.D.] 7 s.T ",
"u.T F Y G t f S A s l G K S v Y.N.M.A.A.A.A.A.A.A.A.Z.Z.$.v l K ",
"T T T g q b.N.9.7.2.W j Y s.c { J.;.-.A.S.A.A.A.A.A.Z.F.t.B f T ",
"T T q s.[.%X'.H.C.D.r.W H i.6 $ O.$.>.A.S.M.A.A.A.:.>.#.r.O.i p.",
"T e k +X3X>X_.V.q.0.r.Z t S F v  .%.A.S.G.S.A.=.=.G.-.  $ *.x H ",
"G E OX3X>X$X).1.q.q.[ B  .#.O.V o.e.G.O.= | *.H.}.{.W.4.@.H.W.J ",
"e E.3XoX(.].R.q.1.V ` >.S.F.O.X O.>.S.'   ) `.3X-X~ .X,X:X3X1XJ ",
"G *X@XP.U.5.4.1.V , M.G.A.e.$ ; 1.J.>.M.K.#X3X3X3X;X3X3X3X3XI.w ",
"n.oX^ R E Q 3.U ; { Z.Z.r.] L /.(.oX&X&X3X3X3X2X2X3X3X3X3X!.w u.",
"k.E q z j K W n % { B.r.9.O.^ P.P.^.;X3X3X2X2X2X2X2X3X3X/.0 h g.",
"z g F F Y T z k r Z 8.8.9.0.2.I I P P. X>X3X3X3X3X3X,X!.f h s.s.",
"u.s.G G z T J G i.W 8.@.2.w.7.O. .[ = L L./. X/./.!.z.w y.f.T s.",
"T T F G z Y F F J W 8.7.{ 2.C.w.6.2. .] _ 4.~.~.|.I.e y.d.d.s.s.",
"s.G Y G G Y T K J n 2.r.{ * [ @.#.6.7.#.+.w.:X3X[.h e y.f.s.s.T ",
"s.G G F F F d d j c {  .N 9 . . n  .Z.t.&._.3X%X1.0 m.E.z.G T d.",
"s.s.k F d u u p t c / ; 6 k y 2 9 C t.:.=.N. X2.} u b.m.E G d.G ",
"d.G d F u u u p s . O . s p p s t M  .@.$.C 6 : / b j i G d.G d.",
"u.G G G F F g s k a 4 u s p p a g 8 > B / c 0 & 1 < y i S G d.G ",
"s.s.G s.g.s.s.h.T G z g p p p u k 8 ; : < ; j 8 * - u S p G u.u.",
"s.G T G s.u.T b.j.u.G G g d p p s 7 & & & 3 k j i y g S G G u.E ",
"G u.G u.d.u.u.s.s.G s.s.G F F G T J a y i j g k g k G G u.G G d.",
"d.d.s.s.u.d.d.u.s.u.s.T u.u.s.s.T T T K u.T s.G G s.G d.d.u.E u."
};
