/* XPM */
static char *result[] = {
/* columns rows colors chars-per-pixel */
"32 32 172 2 ",
"   c #000000",
".  c #050905",
"X  c #090D06",
"o  c #060C09",
"O  c #0B1007",
"+  c #0C160B",
"@  c #0D190D",
"#  c #111D0E",
"$  c #081012",
"%  c #0E1E16",
"&  c #0D1D1D",
"*  c #19220F",
"=  c #0F2417",
"-  c #0E251F",
";  c #142313",
":  c #1B2610",
">  c #10211D",
",  c #192F19",
"<  c #1C351E",
"1  c #253214",
"2  c #0E1F22",
"3  c #111E27",
"4  c #0F2421",
"5  c #0E2920",
"6  c #112523",
"7  c #132A23",
"8  c #162C29",
"9  c #153124",
"0  c #1A3425",
"q  c #173926",
"w  c #1B3A27",
"e  c #173329",
"r  c #18352A",
"t  c #163929",
"y  c #1B3B29",
"u  c #193630",
"i  c #1E3E31",
"p  c #203728",
"a  c #223F29",
"s  c #1C432C",
"d  c #1F4A2D",
"f  c #1F4232",
"g  c #244325",
"h  c #284327",
"j  c #2C4A25",
"k  c #21442A",
"l  c #244A2D",
"z  c #2B4D2C",
"x  c #23502C",
"c  c #2A552E",
"v  c #2B592E",
"b  c #31522A",
"n  c #345A2C",
"m  c #3C5A2A",
"M  c #234334",
"N  c #244B33",
"B  c #2B4F3B",
"V  c #265231",
"C  c #2B5332",
"Z  c #2E5C34",
"A  c #2B5339",
"S  c #2D593C",
"D  c #315631",
"F  c #335D33",
"G  c #355E3A",
"H  c #2F6032",
"J  c #346434",
"K  c #3B6334",
"L  c #356B34",
"P  c #396B36",
"I  c #35643B",
"U  c #3A663D",
"Y  c #366B3D",
"T  c #3B6D3C",
"R  c #377135",
"E  c #397436",
"W  c #3C743A",
"Q  c #3E793B",
"!  c #48662D",
"~  c #536D2D",
"^  c #416632",
"/  c #426B35",
"(  c #406C3E",
")  c #4C7233",
"_  c #42743D",
"`  c #417B3E",
"'  c #4E7D3E",
"]  c #537534",
"[  c #5F7E35",
"{  c #2D5B42",
"}  c #366542",
"|  c #3B6444",
" . c #3D6B40",
".. c #3E7443",
"X. c #3E7B41",
"o. c #426E40",
"O. c #427541",
"+. c #4A7543",
"@. c #437D41",
"#. c #497C42",
"$. c #477A4A",
"%. c #4C7D4A",
"&. c #4A7D53",
"*. c #41803F",
"=. c #4E823F",
"-. c #55823C",
";. c #648839",
":. c #6D963F",
">. c #458342",
",. c #4B8444",
"<. c #468944",
"1. c #4A8A45",
"2. c #45874D",
"3. c #4F814A",
"4. c #4B8D49",
"5. c #538543",
"6. c #558B46",
"7. c #598D46",
"8. c #50834B",
"9. c #538C49",
"0. c #5B8E4C",
"q. c #4E9246",
"w. c #4B9149",
"e. c #4E9A48",
"r. c #549646",
"t. c #5B9346",
"y. c #5D9B42",
"u. c #51964E",
"i. c #5C964A",
"p. c #569D4B",
"a. c #4C8550",
"s. c #539451",
"d. c #589453",
"f. c #559B51",
"g. c #5D945E",
"h. c #62954B",
"j. c #629C4B",
"k. c #699E4E",
"l. c #54A34C",
"z. c #59A450",
"x. c #65A14E",
"c. c #6CA54E",
"v. c #61A94D",
"b. c #6CAA4F",
"n. c #74A146",
"m. c #78A747",
"M. c #77AB4A",
"N. c #79B24D",
"B. c #6AA751",
"V. c #6CAD53",
"C. c #72AD51",
"Z. c #6FB153",
"A. c #72B354",
"S. c #7DB652",
"D. c #7BBC56",
"F. c #5C8063",
"G. c #7FC057",
"H. c #89B64C",
"J. c #83BE4F",
"K. c #88BB50",
"L. c #84C457",
"P. c #8BC354",
"I. c #87C957",
"U. c #82C659",
"Y. c #89CA59",
"T. c #91C453",
"R. c #94CC56",
"E. c #9ACD55",
"W. c #96D159",
"Q. c #99D359",
"!. c #A7DA58",
"~. c #A8DB59",
/* pixels */
">.>.Q >.>.@.X.@.@.@._ O.O._ T I  .#.5.,.@.>.>.>.@.<.<.<.<.<.<.*.",
"<.>.@.@.@.@.@.Q ` O._ #.6.5.6.7.i.c.S.k.,.X.&.a.` <.<.<.>.*.*.<.",
">.@.@.@.@.@.>.X.T o...i.V.G.Q.~.~.W.Y.D.j.O.| 0.1.X.1.<.<.<.w.<.",
"@.@.@.@.<.4.Q +.7.i.x.c.Z.U.Q.~.!.R.D.V.B.B.i.B.C.9.X.>.<.1.w.<.",
">._ #.f.s.@.U h.I.I.R.S.V.A.S.K.T.P.N.h.c.J.U.A.M.B.6.>.<.w.w.>.",
"` @.#.g.8.,.4.V.L.R.E.P.b.7.' ) ] ;.n.m.K.L.D.A.V.B.i.#.<.w.4.1.",
"X.<.8.%.,.p.z.v.J.E.T.n.m ; . .   . O 1 ~ n.C.C.V.B.5.8.g.2.s.4.",
"O.o.+.3.@.4.l.p.N.H.[ * .               . : ) B.A.A.#.U F.g.f.<.",
"O.o.( U  .>.e.4.r.! X                       O ^ c.b.7.T | $.@.@.",
"@.` _ I W r.w.>.F .                           O P j.b.j.@.T _ @.",
"@.@._ T ' y.1._ #                               : 5.c.b.t...W O.",
">.Q _ _ T L 1.n                                   b 7.t.#.U  .@.",
"` W _ -.J F K *                                   : #.T C S ..@.",
"Q Y _ 5.W F l .                                   X ! M M { ..@.",
"@.W G D F F g                                     . z i B { ..@.",
"` @.F y a J j                                       h  .O.} } O.",
"` T C D z P b                                       ^ h.` S S X.",
"Q Y K / v L n .                                   . -.r.F A I >.",
"Q ` ` K k c n +                                   @ K L C G  .>.",
"` _ J l 9 g c <                                   > s l N N S >.",
"` W c w 0 y l < .                               + ^ K s f i S >.",
"` Q z 0 9 0 g 9 %                             X ~ M.#.V N i A Q ",
"` _ D p 0 6 9 y k ;                         . j -._ T Z M i A X.",
"` W J N 7 4 t V A l = .                   o < c V x l s i i G @.",
"` E P c 0 w s d f t 7 2 $ o         . o = 8 w t s t r r u N O.>.",
"*.Q P L c y 9 4 7 5 7 6 4 2 6 2 & = 6 7 8 r t w t t e e 8 G >.@.",
"*.Q L T J a 6 3 2 4 9 - 5 6 4 8 7 7 9 9 9 q q 8 6 8 7 7 a J @.@.",
"` Q E E J c l 8 4 - - - 6 4 4 4 4 6 7 - - 9 - 6 6 9 k c J T @.@.",
"` Q W E R L R V , - - & - 6 7 > 8 7 4 7 0 7 7 q x v J T P _ @.@.",
"*._ W E E R T %.H v v d 0 0 w l z 9 w v C l l c L R P W W @.@.@.",
">.` Q Q Q Q W E E E E E L H L E L v P E L L E E R E Q Q @.@.>.#.",
"2.1.*.*.*.*.*.` Q Q Q Q Q Q Q Q W Q W W Q Q *.` ` ` @.>.@.@.@.>."
};
