/* XPM */
static char *result[] = {
/* columns rows colors chars-per-pixel */
"32 32 184 2 ",
"   c #030000",
".  c #273F08",
"X  c #082335",
"o  c #27440E",
"O  c #2B450A",
"+  c #264313",
"@  c #2A4611",
"#  c #2B4B12",
"$  c #2A4A1C",
"%  c #275117",
"&  c #2D521D",
"*  c #3F611A",
"=  c #2C4E23",
"-  c #2A5322",
";  c #2E5923",
":  c #2C552B",
">  c #2E5B2C",
",  c #335C27",
"<  c #2B5536",
"1  c #325F31",
"2  c #2F612D",
"3  c #376722",
"4  c #376827",
"5  c #3A6A25",
"6  c #31632F",
"7  c #3C6E2B",
"8  c #3F702E",
"9  c #346532",
"0  c #366A34",
"q  c #396C35",
"w  c #3C7235",
"e  c #37703B",
"r  c #3D753A",
"t  c #3E7C3C",
"y  c #416D27",
"u  c #40722B",
"i  c #446E3F",
"p  c #417534",
"a  c #4A7435",
"s  c #41753D",
"d  c #417B3E",
"f  c #295A44",
"g  c #2D624D",
"h  c #2D6653",
"j  c #2E6759",
"k  c #3C7C57",
"l  c #0A4967",
"z  c #0E5F78",
"x  c #256C6F",
"c  c #4C6740",
"v  c #437541",
"b  c #437D41",
"n  c #487B47",
"m  c #4D7F4A",
"M  c #55734E",
"N  c #5C6850",
"B  c #667E5D",
"V  c #42823C",
"C  c #458242",
"Z  c #488445",
"A  c #468943",
"S  c #498945",
"D  c #46814E",
"F  c #4B8649",
"G  c #4C8E4A",
"H  c #4C9047",
"J  c #4C914A",
"K  c #48865B",
"L  c #558D55",
"P  c #579655",
"I  c #478B67",
"U  c #4D926C",
"Y  c #4C967B",
"T  c #519677",
"R  c #669966",
"E  c #6F9671",
"W  c #0D688B",
"Q  c #1D769C",
"!  c #217385",
"~  c #0B75A9",
"^  c #0A75B1",
"/  c #308181",
"(  c #1685B1",
")  c #0E91B8",
"_  c #3794A7",
"`  c #2895B5",
"'  c #479E8E",
"]  c #539C85",
"[  c #59A188",
"{  c #55A99C",
"}  c #4B91A2",
"|  c #55AAA3",
" . c #55AFB1",
".. c #53B8BC",
"X. c #5EBAB8",
"o. c #6EB9A8",
"O. c #60B9BA",
"+. c #7BC7BF",
"@. c #1989C8",
"#. c #138ED8",
"$. c #1793DB",
"%. c #15A4D0",
"&. c #27A8D7",
"*. c #2FB3DC",
"=. c #3DBAD2",
"-. c #0D9DE6",
";. c #1996ED",
":. c #0C9FFF",
">. c #169DFA",
",. c #15B6ED",
"<. c #07A3FF",
"1. c #0DA6FF",
"2. c #0EAAFF",
"3. c #11A3FF",
"4. c #19A2FF",
"5. c #11ACFF",
"6. c #1CAAFE",
"7. c #0EB3FF",
"8. c #0FBCFF",
"9. c #12B3FF",
"0. c #14BBFF",
"q. c #38AEE6",
"w. c #2FB9FC",
"e. c #4CBAC5",
"r. c #16C3FF",
"t. c #19C6FF",
"y. c #15CBFF",
"u. c #1ACBFF",
"i. c #19D2FF",
"p. c #1BD9FF",
"a. c #23C9FF",
"s. c #2BCCFF",
"d. c #2FD5FF",
"f. c #23D8FF",
"g. c #32D2FF",
"h. c #3ED3FF",
"j. c #1DE4FF",
"k. c #24E1FF",
"l. c #2DE5FF",
"z. c #6BC8CE",
"x. c #63C9D6",
"c. c #7DD4DC",
"v. c #5CD0EC",
"b. c #42C6FF",
"n. c #42D4FF",
"m. c #4AD5FF",
"M. c #4DDAFF",
"N. c #51D3FF",
"B. c #53D9FF",
"V. c #5CDCFF",
"C. c #6BD2E5",
"Z. c #67DAF3",
"A. c #65DEFF",
"S. c #6BDDFF",
"D. c #72DEFF",
"F. c #54E7FF",
"G. c #65E3FF",
"H. c #6CE3FF",
"J. c #65ECFF",
"K. c #6CECFF",
"L. c #73E6FF",
"P. c #7EE3FF",
"I. c #73ECFF",
"U. c #7EECFF",
"Y. c #78F1FF",
"T. c #849886",
"R. c #82D0D0",
"E. c #80E4FF",
"W. c #8AE6FF",
"Q. c #83EBFF",
"!. c #8CEBFF",
"~. c #92EBFE",
"^. c #9DEDFF",
"/. c #8BF1FF",
"(. c #95F3FF",
"). c #9CF3FF",
"_. c #94F9FF",
"`. c #9AFBFF",
"'. c #A1EFFF",
"]. c #A5F1FF",
"[. c #AAF2FF",
"{. c #ADF9FF",
"}. c #B4F2FF",
"|. c #B6FFFF",
/* pixels */
"Z C V C C b b b b b b v r k s b b b v b C V V V C A V S A A Z Z ",
"Z C d d b d d C b b r n v u s b b d b Z C C R L t A S A A V Z V ",
"C d d d d b C b v v k t s v b d d d v b b C L F t V V A A S Z V ",
"V k d V S G b b b s u w 7 4 4 4 5 7 w r b d r b C k S A S G S C ",
"d s b P P Z r b C 8 4 e K T ] ] ] I Z 7 7 w r Z V k C b S J S C ",
"V d m P F d v s * k { c.~.`.].`.Q.D.C.O.Y w 3 w S Z r r A J S C ",
"b Z F m v b u q ' Z.`.|.{.[.].[.].E.L.L.H.x.Y 7 y H L E E G S Z ",
"s v M m C u p ..I._.(.~.^.'.[.}.].E.L.D.E./.Q.z.I a B T.T.P S b ",
"v i i n p u ..J.U.Q.H.A.V.A.L.Q.W.P.E.P.^.'.^.`.Q.{ c c M m b C ",
"v d d s 7 | K.H.A.B.n.h.g.d.d.g.g.h.V.W.}.].^.^.).Q.O.u q v b b ",
"b d d y U H.H.B.n.g.s.s.a.a.a.u.t.t.u.n.!.}.'.'.'.!.Y.] 3 b b b ",
"C d s 8 e.J.n.s.s.a.a.t.t.t.t.t.t.t.t.y.k.K.}.].].^.U.Z.D 7 v s ",
"d b 8 U G.n.t.t.t.t.t.t.r.r.t.r.t.t.t.t.p.j.J.}.[.'.W.I.O.y d d ",
"d d u X.F.u.p.u.0.t.r.t.t.y.t.t.t.t.t.t.t.f.j.I.}.'.!.L.P.K 8 d ",
"d p C v.d.y.%.,.u.t.t.t.t.t.t.t.t.r.t.t.r.r.k.l.~.}.~.D./.[ 3 b ",
"b 8 U M.p.)   z p.u.t.t.t.t.y.u.t.t.t.r.y.r.u.k.F.}.~.S./.o.7 d ",
"V y | g.p.) X ( p.t.t.y.t.i.i.i.t.t.t.y.u.t.r.u.l.!.W.S.~.+.w d ",
"p p e.f.r.u.i.i.t.t.r.0.r.,.l W r.0.9.0.0.r.t.t.i.n.D.E.).R.V d ",
"p d =.y.r.y.u.0.7.2.2.2.8.^   X 2.2.1.2.2.7.9.0.a.s.A.~.`.c.V V ",
"p d *.y.y.0.5.1.1.2.1.2.7.-.l ~ 8.2.2.2.2.2.2.2.5.0.V.'.(.x.V V ",
"p a &.r.0.5.1.2.2.2.2.2.2.7.8.8.2.2.2.2.2.2.2.2.:.9.n.U.U. .7 C ",
"d y ` 8.5.1.2.1.2.2.2.2.2.2.2.2.2.2.2.2.2.2.2.1.<.9.m.G.G.k 3 Z ",
"k * x 7.2.1.1.1.2.2.2.2.2.2.2.2.2.2.2.1.2.1.2.1.1.w.N.M._ % w Z ",
"w ; = #.7.9.5.2.1.1.1.2.1.1.1.1.1.1.2.2.5.9.5.1.6.b.b.` % - r Z ",
"w > @ f #.2.8.9.0.9.9.5.5.9.9.0.9.0.0.0.9.3.1.5.w.q.} N , 9 b Z ",
"w 6 : # $ ! $.3.2.9.9.7.9.7.7.9.9.9.2.2.2.:.>.@./ : = N n p Z b ",
"r 9 > 9 & O : j Q ( @.$.>.6.4.4.4.>.;.@.Q x g $ o % > 6 p Z C d ",
"r 0 6 0 9 : & % & - - : < h j j j g < $ . . @ - > 9 q r b b C Z ",
"b e 9 0 9 6 6 9 2 ; & % $ @ + . + @ + $ - > 2 6 9 p s b b C b Z ",
"b r q 9 q 9 1 v q 2 9 2 > > > : : : : : > 6 0 e s d b Z b C Z b ",
"b b r r r q q q 0 9 9 9 6 6 9 9 0 0 0 q q r d V b b C b Z d b b ",
"C Z V C t b s r r r r r w r t t b v b b b C Z Z C d d C d Z b Z "
};
