/* XPM */
static char *result[] = {
/* columns rows colors chars-per-pixel */
"32 32 196 2 ",
"   c #050306",
".  c #061C2C",
"X  c #071F31",
"o  c #2C450C",
"O  c #2C4A0C",
"+  c #2A4614",
"@  c #2E4D14",
"#  c #2C4F1E",
"$  c #2D5114",
"%  c #2D521B",
"&  c #335518",
"*  c #3E631E",
"=  c #2E5422",
"-  c #2F5C25",
";  c #2C552B",
":  c #2D5B2D",
">  c #315C2C",
",  c #2C5C3B",
"<  c #315F31",
"1  c #2F622E",
"2  c #376523",
"3  c #3B6A24",
"4  c #32622E",
"5  c #3D6E2B",
"6  c #3C722B",
"7  c #3D7628",
"8  c #346532",
"9  c #366A34",
"0  c #3A6C35",
"q  c #3D7234",
"w  c #3D753A",
"e  c #3E7B3C",
"r  c #585C3B",
"t  c #456D24",
"y  c #457127",
"u  c #4B6637",
"i  c #446E3F",
"p  c #417633",
"a  c #427B36",
"s  c #4B7836",
"d  c #41763E",
"f  c #417B3E",
"g  c #2A5E48",
"h  c #3C5644",
"j  c #2D6043",
"k  c #2F6846",
"l  c #3D7848",
"z  c #0E5365",
"x  c #094E72",
"c  c #246967",
"v  c #2A7571",
"b  c #446F40",
"n  c #437541",
"m  c #437C41",
"M  c #487B49",
"N  c #537F40",
"B  c #507158",
"V  c #41813F",
"C  c #388A7A",
"Z  c #458242",
"A  c #488545",
"S  c #468943",
"D  c #498945",
"F  c #42834E",
"G  c #4C834B",
"H  c #4C8E4A",
"J  c #51834D",
"K  c #4C914A",
"L  c #498658",
"P  c #548D54",
"I  c #589655",
"U  c #498D65",
"Y  c #509968",
"T  c #4C9879",
"R  c #569A7A",
"E  c #7D8366",
"W  c #699869",
"Q  c #0C6086",
"!  c #187A97",
"~  c #2A7987",
"^  c #237B92",
"/  c #0B7CB6",
"(  c #2E8998",
")  c #0B83BF",
"_  c #1B86BA",
"`  c #169CBF",
"'  c #2285A4",
"]  c #3A9AAB",
"[  c #218ABB",
"{  c #35A9BF",
"}  c #519C80",
"|  c #578E92",
" . c #69998B",
".. c #4DA394",
"X. c #59AA95",
"o. c #61AB97",
"O. c #59B3AE",
"+. c #75BFB6",
"@. c #0D8ECD",
"#. c #1C8BC5",
"$. c #1B8CD0",
"%. c #1692DD",
"&. c #1F96DA",
"*. c #0D9EE1",
"=. c #1D9BE7",
"-. c #0D94FF",
";. c #0C9CFF",
":. c #119BFE",
">. c #14AEEF",
",. c #0EA9F3",
"<. c #0DA4FF",
"1. c #0EAAFF",
"2. c #1CA0F6",
"3. c #11A3FF",
"4. c #1AA4FB",
"5. c #12ACFF",
"6. c #0EB2FF",
"7. c #0FBAFF",
"8. c #13B3FF",
"9. c #1EB3FC",
"0. c #15BCFF",
"q. c #2AB4FD",
"w. c #34B2F6",
"e. c #39BAFE",
"r. c #54BDC9",
"t. c #46BBF5",
"y. c #0FC8FF",
"u. c #16C3FF",
"i. c #19C6FF",
"p. c #13CCFF",
"a. c #1ACAFF",
"s. c #14D7FF",
"d. c #1BD4FF",
"f. c #15DEFF",
"g. c #1BDAFF",
"h. c #25C7FF",
"j. c #24CCFF",
"k. c #2DCEFF",
"l. c #3CC6FF",
"z. c #3CCBFF",
"x. c #26D6FF",
"c. c #2DD2FF",
"v. c #35D3FF",
"b. c #3AD1FF",
"n. c #1CE6FF",
"m. c #28E9FF",
"M. c #3CE8FF",
"N. c #58C3CD",
"B. c #61C3CA",
"V. c #69CAD6",
"C. c #44C2E0",
"Z. c #44C4FF",
"A. c #43C9FD",
"S. c #4ECBFE",
"D. c #56C8F4",
"F. c #4AD4FF",
"G. c #48D6FF",
"H. c #55DDFF",
"J. c #59DAFF",
"K. c #65D2E6",
"L. c #69DAFB",
"P. c #74DDFC",
"I. c #52E6FF",
"U. c #55E9FF",
"Y. c #64E1FF",
"T. c #6DE1FF",
"R. c #60EAFF",
"E. c #7CE6F4",
"W. c #73E3FE",
"Q. c #7BE3FF",
"!. c #75EBFF",
"~. c #7CEBFF",
"^. c #6FF0FF",
"/. c #7DF3FF",
"(. c #869C89",
"). c #81CECC",
"_. c #87D6DE",
"`. c #81DBED",
"'. c #92E2EC",
"]. c #83E4FF",
"[. c #8AE6FF",
"{. c #84EBFF",
"}. c #8BEBFF",
"|. c #96ECFF",
" X c #9CEEFF",
".X c #85F5FF",
"XX c #91F4FF",
"oX c #99F4FF",
"OX c #9BF9FF",
"+X c #A5EFFF",
"@X c #A3F1FF",
"#X c #ACF2FF",
"$X c #ACFFFF",
"%X c #B3F2FF",
"&X c #B5FBFF",
"*X c #BAFDFF",
/* pixels */
"A Z e Z Z m m m m f m n n l f m m m m m Z V V V V D V D D D D V ",
"A Z m m m e l Z Z d w m d d d V f f n A Z Z Y P a D D D V V V S ",
"Z m m m f m V V m n l n n n w q 5 5 p p e Z P G V D D V D D D m ",
"V e m Z D H m f n d d d 5 2 0 l L U L d 7 7 q f m m D Z D H D A ",
"V d N I I D d n m m q 2 l X.).'.|.].P.V.O.U 0 t a m V A D K H V ",
"f d M I G f d m d 5 5 ..E.$X*X&X*X@X~.!.~.~.V.} V p a f V K A D ",
"Z Z J J m m n m 3 l N..XXX~.W.~.}.}.Q.].|.@XOXXXV.Y V E W P D Z ",
"n n M M m n m 3 M K.^.Y.F.v.v.c.c.k.z.T.%X%X@X XoXW. .E (.I H f ",
"n b i n m m 5 l K.R.G.k.j.i.i.i.i.u.u.a.U.@X%X@X@X.XL.B u M Z V ",
"f d m f f e y B.I.j.h.i.i.u.i.i.i.a.i.i.g.M. X%X@X|.!.V.5 0 m Z ",
"m f m f d * X.I.a.u.u.u.u.i.i.i.a.i.i.i.a.n.M.+X#X@XP./.o.3 f f ",
"Z n n m 5 H H.a.u.i.u.i.i.a.i.i.i.u.i.i.0.d.n.U.%X+X].~.`.d p d ",
"f f m d t r.x.y.u.u.u.i.a.i.u.i.i.u.u.i.i.0.d.m.}.%XQ.W.|.R 3 m ",
"m m m y R v.y.s.d.u.a.i.a.a.a.a.a.a.a.i.i.u.u.g.U.@X].P.OX+.5 e ",
"m m a s C.f.u.z ! s.i.u.0.0.0.0.0.0.0.u.i.i.i.i.x.Y.Q.P.oX_.w q ",
"f m t T j.f.`   Q p.6.1.<.1.7.7.1.1.1.1.8.0.0.i.a.v.L.[. X|.U 6 ",
"Z a t { p.a.>.@.1.1.<.1.1.7.) / 6.1.5.<.<.5.5.8.i.h.Y. X X}.} 7 ",
"f q M 9.y.8.1.0.1.1.1.1.0.*.  . 6.6.1.1.1.1.1.1.1.8.G. X|.!.X.7 ",
"e y C 0.6.3.1.<.1.1.1.1.6.*.X x 7.1.1.1.1.1.1.1.<.6.b.W.{.!.X.7 ",
"f t ( 6.1.<.<.1.1.1.1.1.<.6.,.1.6.1.1.1.1.1.1.1.<.1.b.J.T.!.T 7 ",
"a t ' 6.5.;.<.<.1.1.1.1.1.1.6.6.<.1.1.1.1.1.1.1.<.5.A.J.H.D.F a ",
"f t ' 1.8.1.<.<.1.1.<.1.<.1.1.1.1.1.1.1.1.1.<.<.<.q.S.S.F.] * A ",
"d * v ;.5.0.0.5.1.<.<.<.<.<.<.<.<.1.1.1.1.1.5.5.>.w.Z.Z.e.k 3 A ",
"w > + ) 1.3.8.0.8.8.8.8.6.8.8.5.8.8.8.8.8.5.3.3.:.e.l.l.v $ w A ",
"q 1 + ; %.<.;.3.5.5.9.8.0.i.u.i.i.0.0.8.3.;.-.-.q.A.t.| & 4 m A ",
"w 4 ; @ , #.;.<.<.;.<.3.:.3.:.<.3.3.3.:.;.;.<.9.w.( h r n w Z Z ",
"w 8 : < # > ~ _ %.<.<.<.<.;.;.;.-.<.;.<.<.:.$.~ g O % 8 d Z Z m ",
"w 9 4 9 > % $ % < c ^ [ &.=.2.4.=.=._ ! c g = O & 4 0 w f A m Z ",
"m 0 8 8 9 1 > 4 & & $ $ : j g g j ; + o O $ - 1 9 0 d m m Z m A ",
"m w 0 8 9 9 < n 9 1 1 1 = % $ # = # = ; : 8 9 q w f Z Z m Z A m ",
"Z l e w w q 0 8 9 8 8 8 8 > 8 8 9 9 9 9 0 w f Z Z m m m Z m m N ",
"S V Z V e m d w w w w w w e w m m m n m m V A Z Z m Z m Z Z m Z "
};
