/* XPM */
static char *result[] = {
/* columns rows colors chars-per-pixel */
"32 32 189 2 ",
"   c #010000",
".  c #071D2B",
"X  c #052335",
"o  c #2B4007",
"O  c #2B450D",
"+  c #2C4A0C",
"@  c #2A4611",
"#  c #2C4C13",
"$  c #2D5418",
"%  c #355718",
"&  c #365D1B",
"*  c #294D20",
"=  c #2C5426",
"-  c #2E5925",
";  c #2D572A",
":  c #2E5B2C",
">  c #2B5B39",
",  c #325F31",
"<  c #2F622E",
"1  c #386625",
"2  c #3B6B25",
"3  c #31632F",
"4  c #3B6D2C",
"5  c #3C722D",
"6  c #346532",
"7  c #366A33",
"8  c #396C35",
"9  c #3D7235",
"0  c #3C743A",
"q  c #3E7B3C",
"w  c #475B35",
"e  c #416D25",
"r  c #446C2E",
"t  c #44772D",
"y  c #446E3F",
"u  c #437534",
"i  c #427936",
"p  c #41763D",
"a  c #417B3E",
"s  c #4A7C3B",
"d  c #0C475E",
"f  c #265A43",
"g  c #2A624E",
"h  c #30684D",
"j  c #256358",
"k  c #387554",
"l  c #084C71",
"z  c #1D6979",
"x  c #226666",
"c  c #287478",
"v  c #437541",
"b  c #437C41",
"n  c #4C7C48",
"m  c #52744F",
"M  c #4A6556",
"N  c #4C7A65",
"B  c #458230",
"V  c #43813D",
"C  c #458242",
"Z  c #488445",
"A  c #468943",
"S  c #498945",
"D  c #4C854A",
"F  c #4C8E4A",
"G  c #51834D",
"H  c #4C914A",
"J  c #448558",
"K  c #558C54",
"L  c #579655",
"P  c #4B8B64",
"I  c #528E63",
"U  c #57946A",
"Y  c #4E9371",
"T  c #539879",
"R  c #669966",
"E  c #6F9771",
"W  c #0C6E8B",
"Q  c #107694",
"!  c #227484",
"~  c #247B95",
"^  c #107AAF",
"/  c #207CAA",
"(  c #26819D",
")  c #138EB5",
"_  c #2886AC",
"`  c #2889B3",
"'  c #519F8A",
"]  c #5AA388",
"[  c #51A293",
"{  c #5BA791",
"}  c #5DB3AC",
"|  c #4FADB5",
" . c #65BBB9",
".. c #6CBEBA",
"X. c #71C3BF",
"o. c #1888C7",
"O. c #0F8DD6",
"+. c #2497CE",
"@. c #12A0D3",
"#. c #35AAD8",
"$. c #1292EE",
"%. c #0D96F6",
"&. c #0E9CFC",
"*. c #149CF7",
"=. c #119EFE",
"-. c #17BCEF",
";. c #0DA6FF",
":. c #0EAAFF",
">. c #1FA0F7",
",. c #12A4FF",
"<. c #11ADFF",
"1. c #1AAAFF",
"2. c #0DB3FF",
"3. c #0FBAFF",
"4. c #12B3FF",
"5. c #1AB3FF",
"6. c #15BBFF",
"7. c #1EBAFF",
"8. c #23B5FF",
"9. c #22BAFF",
"0. c #46B3CE",
"q. c #51B5C1",
"w. c #5BBFD1",
"e. c #05C6FB",
"r. c #0EC3FF",
"t. c #15C5FF",
"y. c #1AC6FF",
"u. c #16C9FF",
"i. c #1BC9FF",
"p. c #19D1FF",
"a. c #1ADCFF",
"s. c #24C6EC",
"d. c #22C4FF",
"f. c #28C5FF",
"g. c #23CAFF",
"h. c #2CCDFF",
"j. c #33CEFF",
"k. c #2CD3FF",
"l. c #34D1FF",
"z. c #3BD2FF",
"x. c #3FDDFF",
"c. c #6EC3C5",
"v. c #71C9CD",
"b. c #63C7D5",
"n. c #68CCDA",
"m. c #74CED5",
"M. c #5DCBE1",
"N. c #45D4FF",
"B. c #4CD6FF",
"V. c #4ADCFF",
"C. c #54DAFF",
"Z. c #5CDBFF",
"A. c #76D6E5",
"S. c #64DCFF",
"D. c #6BDFFF",
"F. c #73DDFA",
"G. c #44E0FF",
"H. c #4CE0FF",
"J. c #56E8FF",
"K. c #65E4FF",
"L. c #6EE1FF",
"P. c #64EBFF",
"I. c #75E0F4",
"U. c #74E2FE",
"Y. c #7BE4FF",
"T. c #73EBFF",
"R. c #849785",
"E. c #85DDEC",
"W. c #81E3FB",
"Q. c #83ECFF",
"!. c #8DEAFF",
"~. c #95EAFF",
"^. c #99EBFF",
"/. c #99F1FF",
"(. c #9CF9FF",
"). c #A4EFFF",
"_. c #ABEEFF",
"`. c #A5F2FF",
"'. c #ADF1FF",
"]. c #A2FAFF",
"[. c #ADFDFF",
"{. c #B5F2FF",
"}. c #BBF3FF",
"|. c #CAF6FF",
" X c #C7F8FF",
".X c #D1F6FF",
"XX c #D0FFFF",
"oX c #DAF9FF",
"OX c #E1FAFF",
/* pixels */
"Z C V C C b b k b b b v v p p b b b b b k B V V A V V S A A A A ",
"Z C a V b q a B b a p b v 0 a a b p v Z A C R K q A S A V A Z V ",
"C C k a a b Z V b v h v v v a p p 0 p p V A K D V V V A A A Z C ",
"b q s V S F b b a p s q 0 4 4 4 4 9 4 5 5 9 9 V C k H V S F A C ",
"V p a L L Z q v b q 8 1 0 P [ } X.X...} T k 2 i Z a V a S H S C ",
"a a n L D a k b q 2 v ' b.U.Q.(.[.[.].].].A.[ k t Z a i A H S C ",
"C C G G b b i r 4 T n.T.Y.!.). X|.|.}.|.oXXX].n.J B K E E K S C ",
"v v m n b a 2 a  .T.T.Y.Y.Y.~.|.OXoX.X.X X.X X].I.Y m R.R.L S b ",
"v y y b q 2 K A.T.L.U.U.C.z.j.S._.oX.X{.).{.}.{.[.W.N w m n C a ",
"b p b a r T U.P.Z.D.U.C.f.g.u.r.j.^.{.~.!.'.{.'.{.[.A.0 4 p b C ",
"b b v 2 I U.H.z.Z.U.Z.l.y.y.y.y.4.j.S.Z.D.^.).'._.'.].{ 2 a a a ",
"b b u u b.G.i.N.U.D.K.S.Z.h.u.y.y.t.u.g.B.D.W.^.'.).].E.b 8 a v ",
"b b e ] H.i.g.Z.L.D.D.D.D.B.y.u.y.y.t.t.g.N.Z.D.~.`./.(.] 2 a b ",
"b 9 s M.k.u.h.Z.S.D.D.Z.B.z.y.y.y.y.y.t.u.g.j.h.J.(.).].c.8 p b ",
"b 5 U H.i.u.g.B.C.C.B.z.j.g.u.y.y.y.y.y.y.t.t.t.) | Q./.F.J 4 b ",
"a 2 { H.i.i.y.h.N.z.h.h.g.y.y.y.i.y.u.y.y.u.p.-.X . s.P.W.] 2 p ",
"q r } x.y.y.y.u.y.g.y.y.u.i.u.p.a.p.u.y.i.i.i.i.Q W e.h.Y. .5 a ",
"q t q.k.d.g.i.y.y.t.u.u.6.6.u.@.d @.u.6.6.t.u.i.a.a.t.t.P.v.V V ",
"i u 0.f.7.f.h.i.y.6.4.:.:.:.3.l   d 3.:.:.:.<.4.t.y.i.r.V.m.V V ",
"9 s #.9.8.d.g.6.<.;.:.;.:.:.2.) X ^ 3.:.;.:.;.;.;.<.6.r.z.n.B V ",
"p e +.5.8.7.<.;.;.:.:.:.:.:.:.2.:.2.:.:.:.:.:.:.:.;.:.3.h.w.9 V ",
"a e ( :.1.5.<.;.:.:.:.:.:.:.:.:.3.:.:.:.:.:.:.;.;.;.;.;.y.| e a ",
"p 1 > &.;.1.,.;.:.:.:.:.:.:.:.:.:.:.:.:.:.:.:.;.;.;.;.:.<.c 2 Z ",
"0 3 o z ;.,.,.,.;.:.:.:.;.;.;.;.:.;.;.;.:.;.;.;.;.<.4.2.O.= u Z ",
"9 : * O z &.;.;.&.:.4.4.4.2.:.<.<.:.;.<.:.4.2.3.5.3.:.>.k & k V ",
"0 6 ; = O f / *.;.;.;.4.6.4.6.6.6.4.4.4.4.4.2.:.:.%./ M r 0 S V ",
"0 6 : 6 ; + O f ! o.$.&.;.;.:.<.:.<.<.:.,.=.$.o.~ h % & 9 Z V Z ",
"q 6 3 6 , ; = $ + # ; j c ~ _ ` ` _ ~ ! x j g : % % 4 0 b a Z b ",
"b 8 6 7 6 < < 6 < - $ $ + + @ @ # @ O O # $ $ 1 6 8 a b C Z b Z ",
"C 0 7 6 7 7 , v 8 < 3 < : - = = = = = ; : < 7 9 p b b b b b Z b ",
"b b 0 0 9 9 8 7 7 6 6 6 3 3 3 4 7 8 7 7 8 0 q V V b C C a Z a Z ",
"C A A q V i k 0 0 0 0 0 0 0 i k b v b b b C Z Z C b a a Z a Z b "
};
