/* XPM */
static char *result[] = {
/* columns rows colors chars-per-pixel */
"32 32 191 2 ",
"   c #293F06",
".  c #031C24",
"X  c #061A29",
"o  c #07283B",
"O  c #2B4807",
"+  c #2B4A0D",
"@  c #2C4C11",
"#  c #2B4D1C",
"$  c #2E5317",
"%  c #355919",
"&  c #37611C",
"*  c #2A4D24",
"=  c #2B5422",
"-  c #2A5526",
";  c #2D552B",
":  c #2E5B2B",
">  c #29593C",
",  c #325F30",
"<  c #305B3C",
"1  c #2F622E",
"2  c #346722",
"3  c #356925",
"4  c #3B6924",
"5  c #32622D",
"6  c #39652C",
"7  c #366B2A",
"8  c #3A6C2C",
"9  c #397326",
"0  c #3D722D",
"q  c #346532",
"w  c #356A34",
"e  c #396B37",
"r  c #3B7134",
"t  c #35743E",
"y  c #3D743A",
"u  c #3F7C3D",
"i  c #426D24",
"p  c #416B2B",
"a  c #457224",
"s  c #44722B",
"d  c #456D3A",
"f  c #427332",
"g  c #4A7E31",
"h  c #41763E",
"j  c #417B3E",
"k  c #497F38",
"l  c #245B4A",
"z  c #245E50",
"x  c #3C7541",
"c  c #37704A",
"v  c #377E57",
"b  c #084261",
"n  c #1D6777",
"m  c #2D716B",
"M  c #367961",
"N  c #206C76",
"B  c #23757C",
"V  c #4E674A",
"C  c #437541",
"Z  c #437C41",
"A  c #4A7C49",
"S  c #51724E",
"D  c #448136",
"F  c #43823C",
"G  c #3D8560",
"H  c #398474",
"J  c #458242",
"K  c #488546",
"L  c #468943",
"P  c #498945",
"I  c #4B864B",
"U  c #4C8E4A",
"Y  c #51824C",
"T  c #4C914A",
"R  c #478556",
"E  c #558C54",
"W  c #508B5B",
"Q  c #579655",
"!  c #488B61",
"~  c #54946A",
"^  c #478D72",
"/  c #4C9370",
"(  c #698468",
")  c #689B76",
"_  c #1C7C9B",
"`  c #267E8E",
"'  c #3E7F94",
"]  c #066DA0",
"[  c #1D7DA1",
"{  c #368986",
"}  c #318799",
"|  c #1083AD",
" . c #1C85B1",
".. c #2F8EAE",
"X. c #4C9C87",
"o. c #529F88",
"O. c #55A48F",
"+. c #64AB93",
"@. c #47AAA7",
"#. c #60B2AE",
"$. c #73BAAC",
"%. c #6ABEBA",
"&. c #168BCC",
"*. c #0D95DB",
"=. c #1692DC",
"-. c #2F9FD7",
";. c #1DA2CC",
":. c #33B0CD",
">. c #0D9EE9",
",. c #1094EA",
"<. c #0F96FF",
"1. c #0A9CFF",
"2. c #109CFF",
"3. c #0BA6F5",
"4. c #07A2FF",
"5. c #0DA5FF",
"6. c #0EAAFF",
"7. c #1AA0F7",
"8. c #12A4FF",
"9. c #1AA3FE",
"0. c #11ACFF",
"q. c #1BABFE",
"w. c #0EB3FF",
"e. c #0FBAFF",
"r. c #13B3FF",
"t. c #1CB4FF",
"y. c #15BCFF",
"u. c #1EB8FF",
"i. c #29A4EA",
"p. c #21ACFE",
"a. c #28B4FC",
"s. c #4EBCCB",
"d. c #44BED3",
"f. c #16C4FF",
"g. c #1BC4FF",
"h. c #19CBFF",
"j. c #1DD4FF",
"k. c #23C6FF",
"l. c #24CAFF",
"z. c #2CCCFF",
"x. c #32CCFF",
"c. c #3ACEFF",
"v. c #23DDFF",
"b. c #3ED0FF",
"n. c #38DBFF",
"m. c #72CBD0",
"M. c #6CD2D8",
"N. c #7AD0DB",
"B. c #4DC1F1",
"V. c #43D2FF",
"C. c #4BD4FF",
"Z. c #54D5FF",
"A. c #57D7FF",
"S. c #5CD8FF",
"D. c #6ED7E6",
"F. c #62DAFF",
"G. c #6BDDFF",
"H. c #73DEFF",
"J. c #46E5FF",
"K. c #67E7FF",
"L. c #6BEBFF",
"P. c #79E3FE",
"I. c #7CEEFF",
"U. c #849785",
"Y. c #84CED1",
"T. c #88D1D3",
"R. c #89D9E2",
"E. c #95DEE0",
"W. c #84E3FF",
"Q. c #89E6FF",
"!. c #8CE9FF",
"~. c #93E6FF",
"^. c #94EEFF",
"/. c #9BEAFF",
"(. c #8DF3FF",
"). c #9DF3FF",
"_. c #97FBFF",
"`. c #A4ECFF",
"'. c #ABEEFF",
"]. c #B2EFFF",
"[. c #A4FBFF",
"{. c #ABFEFF",
"}. c #B4F6FF",
"|. c #BEF1FF",
" X c #BBFDFF",
".X c #CBF6FF",
"XX c #C4FFFF",
"oX c #CDFCFF",
"OX c #D7FBFF",
"+X c #E4FAFF",
"@X c #EAFCFF",
/* pixels */
"J J Z J J Z Z Z Z Z Z C C C C Z j Z Z Z F J F F J J L L J L J L ",
"K J u Z Z u u J Z C y Z C y h Z Z j Z J J J ~ Q j L L L L F J J ",
"J Z Z Z x Z J Z Z C y Z C Z y h h j C Z J J E I F L L L L P J J ",
"J u Z J P U Z Z Z x C f 8 4 7 7 3 2 7 y Z Z y Z Z Z K J P U P J ",
"Z u k Q Q P h Z Z e 4 w ! O.#.%.$.+.~ x 3 r j Z A j Z j P T P J ",
"j u A Q I j x f 4 Z o.m.!.(.).XXOXXX XE.O.w 2 u P P h f L T P J ",
"J J Y Y Z Z f f X.D.(.[.`.^.].OX@X+X.XoX XM.v & j T E ) ) U P J ",
"C C S A A s C s.K.L.P.W.Q.!.].+X@XOX|.].oX XP.^ % Y ( U.U.Q P Z ",
"C C d C f s s.J.C.V.A.A.F.F.P.]..X|.`./.'..X X(./ p S V S A J Z ",
"j h Z h p @.n.l.z.c.V.V.V.V.C.S.G.G.G.W.~.'.|.}./.R 7 Z y h J Z ",
"k j Z p / n.h.k.c.C.C.C.V.c.b.V.C.Z.C.S.H.W./.].{.R.r r C Z j j ",
"Z j h s d.j.f.c.Z.Z.Z.Z.C.b.x.z.z.b.C.C.Z.S.H././.[.$.& j h C h ",
"Z Z 9 ! z.f.l.C.Z.Z.Z.Z.Z.V.l.h.g.h.z.x.c.b.V.Z.P.(.).W 7 Z Z Z ",
"Z Z i @.j.f.z.V.Z.A.A.A.S.C.f.f.f.f.h.f.l.x.z.g.v.L.[.Y.8 f C Z ",
"Z j s :.h.f.l.x.c.C.S.G.F.c.f.f.f.f.f.f.f.l.l.h.| ;.I.[.) 2 h Z ",
"Z f I a.y.g.h.l.l.l.x.c.a.r.6.6.0.e.r.6.w.w.y.f.. . V._.T.0 h Z ",
"J a H t.y.l.l.l.f.e.w.6.6.5.6.5.6.*.>.6.6.5.5.6.&.] f.K.).~ 4 k ",
"j a { q.p.a.k.g.r.6.4.5.6.6.6.e.>.. b w.6.6.6.6.e.e.6.z.(.$.9 J ",
"j a { q.a.a.u.r.w.6.6.6.6.6.6.w.3.X o 6.e.6.6.6.6.6.4.6.Z.N.F F ",
"j a H q.p.a.p.0.6.6.6.6.6.6.6.6.r.*.*.w.6.6.6.6.6.5.6.4.u.B.I D ",
"j p c 7.8.q.p.8.5.6.6.6.6.6.6.6.6.e.e.5.6.6.6.6.5.8.5.5.6.q.G g ",
"Z y %  .0.8.p.q.6.5.5.6.6.6.6.6.6.6.6.6.6.6.6.6.5.5.5.0.r.1.M g ",
"h e % l 8.8.2.p.q.8.6.6.6.5.6.5.6.5.6.5.5.5.5.5.6.0.y.r.6.,.t D ",
"y : *   N 0.8.9.9.8.0.0.r.r.r.6.w.6.0.r.6.r.0.r.y.y.r.5.4.B i K ",
"y : * * O n 2.0.8.2.<.2.8.t.y.g.f.y.g.y.y.r.y.0.0.8.1.9.} % k J ",
"y q : ; *   >  .8.6.5.1.1.8.8.5.8.8.8.8.8.5.5.6.5.1.=.' d 0 K A ",
"y w : , ; - + + z _ =.1.5.1.1.1.1.1.5.8.8.0.8.=. .` M 4 e J J Z ",
"y q 5 q , : - * @ + - z N [ &.-.i.i.i.-...} m > : 6 6 r k J J J ",
"j e 5 e w 1 1 q q = = @ O + # ; l < < : = $ $ 2 6 8 y A J J J Z ",
"J y e q w q < C w 1 w 1 : : = # $ # # * = 5 r r y j J Z Z A J J ",
"J j t y y r e q w w w q q , q q w e e e e y x J J j Z J Z J Z J ",
"J J J J u j u y r y y r y h j j j j j j Z J L J F Z J Z J J Z J "
};
