/* XPM */
static char *result[] = {
/* columns rows colors chars-per-pixel */
"32 32 198 2 ",
"   c #1E0D0F",
".  c #380D0D",
"X  c #2B1513",
"o  c #341212",
"O  c #3C1B17",
"+  c #2D2718",
"@  c #382919",
"#  c #2E311E",
"$  c #30341E",
"%  c #363621",
"&  c #3B3424",
"*  c #343B22",
"=  c #421B16",
"-  c #471A17",
";  c #432119",
":  c #4B271B",
">  c #412C1C",
",  c #53241B",
"<  c #552A1C",
"1  c #4D301D",
"2  c #67331C",
"3  c #74361D",
"4  c #443923",
"5  c #4B3B25",
"6  c #543222",
"7  c #5D3321",
"8  c #663623",
"9  c #6D3D24",
"0  c #793B23",
"q  c #2E4929",
"w  c #374C2A",
"e  c #38532D",
"r  c #3C592F",
"t  c #3C5B32",
"y  c #2C6C2C",
"u  c #316B2F",
"i  c #2D6F32",
"p  c #376534",
"a  c #3A6334",
"s  c #356D35",
"d  c #396D36",
"f  c #326D38",
"g  c #3C6E3A",
"h  c #28733C",
"j  c #347234",
"k  c #3A7336",
"l  c #35743B",
"z  c #3C733B",
"x  c #337A3A",
"c  c #3D7B3D",
"v  c #454428",
"b  c #594828",
"n  c #42582F",
"m  c #59502D",
"M  c #465C32",
"N  c #5A5232",
"B  c #65472D",
"V  c #7B4929",
"C  c #78512E",
"Z  c #764F3C",
"A  c #6D5831",
"S  c #725E34",
"D  c #446C3D",
"F  c #41763E",
"G  c #417A3F",
"H  c #69753C",
"J  c #307443",
"K  c #337C41",
"L  c #3C7C42",
"P  c #785C49",
"I  c #516F4E",
"U  c #437541",
"Y  c #437C41",
"T  c #4C714F",
"R  c #477A49",
"E  c #4C7D4A",
"W  c #547847",
"Q  c #676042",
"!  c #736156",
"~  c #707371",
"^  c #813E26",
"/  c #B14D1B",
"(  c #894627",
")  c #934D28",
"_  c #9B4828",
"`  c #99522A",
"'  c #945331",
"]  c #9C5933",
"[  c #A54C29",
"{  c #A5542E",
"}  c #AA5429",
"|  c #B6582A",
" . c #AD5734",
".. c #AA5D34",
"X. c #B85D33",
"o. c #8B663B",
"O. c #A56839",
"+. c #B96537",
"@. c #B66539",
"#. c #BC663A",
"$. c #B2703A",
"%. c #C05E27",
"&. c #C9632A",
"*. c #DE6A2C",
"=. c #C46332",
"-. c #CC6A35",
";. c #C46838",
":. c #CC6C39",
">. c #D06636",
",. c #D96837",
"<. c #D16E3A",
"1. c #DA6B38",
"2. c #C8753D",
"3. c #D5713B",
"4. c #DA733B",
"5. c #DC7A3E",
"6. c #E76D38",
"7. c #E5753B",
"8. c #E4793F",
"9. c #ED7C3F",
"0. c #F3793E",
"q. c #FB7D3D",
"w. c #965E44",
"e. c #98705D",
"r. c #CC7047",
"t. c #D57846",
"y. c #D37453",
"u. c #E67645",
"i. c #E57B42",
"p. c #EB7C42",
"a. c #EE7E4B",
"s. c #F17D42",
"d. c #FC7E44",
"f. c #F17E4B",
"g. c #3B8238",
"h. c #41813F",
"j. c #3C8242",
"k. c #3E8553",
"l. c #448242",
"z. c #498445",
"x. c #458A44",
"c. c #498945",
"v. c #4D854A",
"b. c #468B49",
"n. c #4B8C49",
"m. c #528344",
"M. c #51824D",
"N. c #4B924B",
"B. c #51964E",
"V. c #438659",
"C. c #578E56",
"Z. c #5C8A5B",
"A. c #569555",
"S. c #5B906B",
"D. c #7E8D6D",
"F. c #6A9B6C",
"G. c #6F9670",
"H. c #779B76",
"J. c #9B8156",
"K. c #A3836E",
"L. c #B9937F",
"P. c #DD8453",
"I. c #EE8347",
"U. c #ED844A",
"Y. c #F58244",
"T. c #FD8443",
"R. c #F3834D",
"E. c #FF864A",
"W. c #E88555",
"Q. c #F78551",
"!. c #FB8652",
"~. c #F58A52",
"^. c #FC8E5C",
"/. c #D89175",
"(. c #F09767",
"). c #889B8B",
"_. c #A29793",
"`. c #90A991",
"'. c #AAAC96",
"]. c #AAB2B4",
"[. c #CEA28B",
"{. c #E3A283",
"}. c #E5B094",
"|. c #C6B4AB",
" X c #CEBFB6",
".X c #AEC6AF",
"XX c #BECBB6",
"oX c #D7C2B8",
"OX c #D5C1C0",
"+X c #D1D0D1",
"@X c #EBCCC5",
"#X c #F1DCCE",
"$X c #EAE1DD",
"%X c #ECDFE8",
"&X c #EEECEA",
"*X c #F0E6E8",
"=X c #F4FAFF",
"-X c #FFFDFE",
/* pixels */
"z.l.h.l.l.l.G G Y Y L Y L U Y Y L L L l.h.r a c.h.z.h.x.c.c.h.x.",
"z.l.G Y Y G G l.z.D + % t L L K G z K N.D . & B.h.z.x.c.h.h.z.h.",
"l.Y G G G l.l.Y b.a X O = 5 N H $.O.w.a > = O D x.x.c.x.c.c.z.h.",
"j.G Y l.c.n.Y Y Y L @ ; 8 0 ` 1.q.0.>.2 < 1 = n x.h.z.h.x.n.c.z.",
"Y G Y A.B.z.L U Y l.* O ( | <.p.9.9.4.} 9 7 , v b.Y l.L c.N.c.h.",
"Y U z.A.v.Y F U Y z.q ; ` -.4.9.9.s.q.=.V 9 < v b.b.z l h.B.c.z.",
"h.z.M.E U Y Y Y F K M } <.<.:.8.q.9.Y.7.| ) 3 m j.N.C.F.F.B.c.z.",
"U U W E l.c U U L J S 1.3.;.<.5.9.I.I.I.9.5.,.o.h M.S.K.).Z.x.G ",
"F D U U Y L F c L S } X.#.;.3.8.i.U.U.R.T.T.T.5.g R I I I E G h.",
"U G U F U Y G c L P [ ` ..#.4.7.8.U.R.Y.T.T.T.q.2.L L U g F Y l.",
"G G Y Y F Y F Y L R P ^ ( ..4.8.p.U.U.1.7.7.*.^.[.j l c F Y F G ",
"l.Y U G Y Y G Y L L T ! Z ` <.i.I.~.U.=.} / y.|.S.j G Y Y F F F ",
"h.G Y Y Y U Y z c G c k.Q [ <.7.p.~.^.U.| w.).V.i z U Y Y F Y l.",
"Y Y Y Y Y Y Y U Y F c d V X.<.8.I.~.U.Q.E.J.J s G Y Y Y U G Y U ",
"G G Y Y Y Y c c U L x B [ +.1.i.f.f.a.R.!.5.D x G Y l.l.Y F F F ",
"Y Y Y G Y Y U Y L x m _ ..] +.p.Q.a.a.Q.R.6.H K G Y z.l.G Y Y G ",
"G l.G U F c G k k A  .#...] ' X.s.f.f.Q.u.1.H x Y Y l.Y G Y L G ",
"l.G G F F G x D o.y.t.#.@.+. .e.r.s.!.!.>...W c Y Y l.l.Y Y l.x.",
"G G U c z i U K./.(.2.4.u.:.[ e.[.W.f.d.| ( W c c Y h.l.l.l.z.h.",
"G G z E y j '.@X}.U.7.i.i.&. ._.OX{.W.q.( b m.j.Y Y Y l.G h.h.x.",
"Y G u H..XXX*X$X@X{.U.5.;./ e.]. X{.~.7.< b z.l.G h.h.z.h.c z.h.",
"l.l.s M.-X-X*X&X=X#XP.%.| w.).].[.u.q.)   1 z h.G c.x.h.z.x.Y l.",
"Y Y U u Z.+X%X*X=XoX#./ ' ~ ).L.=.*.4.1 X > c G h.n.h.h.z.z.l.l.",
"h.G G G y E ).`.).D.C 2 V N B ) [ :.] # X $ z l.n.n.c g.h.l.z.Y ",
"l.G Y F U j s k j x r 8 9 @ + 3 ( { C q e g g v.B.G G.`.A.G l.l.",
"l.h.G R G F c c c l a 6 < # $ 7 9 ^ m f g U R m.c.z.S.K.V.c Y l.",
"z.G F Y F F F z l d f 5 , * * < 7 8 n f a U z.R Y l.z k F z.l.l.",
"h.h.l.z.F k s p p d d 4 - $ * : 6 6 r f g F F h.l.h.G G G Y z.Y ",
"z.Y Y l.G z z U g d k w @ q # ; : - & J G h.x.h.z.Y Y Y G G z.G ",
"h.G U G h.G U Z.Y s d d p l # o @ @ e D G z.h.x.G Y Y l.l.z.h.z.",
"h.h.G h.z.h.z.h.h.z z k d d p q r p z z Y h.l.l.h.G G l.l.G z.G ",
"x.z.h.x.h.z.z.h.l.G G G z k z c L Y Y Y F l.l.l.l.Y h.G z.z.G z."
};
