/* XPM */
static char *result[] = {
/* columns rows colors chars-per-pixel */
"32 32 199 2 ",
"   c #1F1011",
".  c #360E0D",
"X  c #2A1412",
"o  c #3A1514",
"O  c #2E271B",
"+  c #372818",
"@  c #2B311C",
"#  c #2E3D24",
"$  c #353C23",
"%  c #3B3824",
"&  c #451C18",
"*  c #5E290D",
"=  c #45231B",
"-  c #4A231C",
";  c #46281A",
":  c #562919",
">  c #5F341F",
",  c #66341C",
"<  c #76391C",
"1  c #542B21",
"2  c #433221",
"3  c #483B25",
"4  c #543022",
"5  c #5C3423",
"6  c #613825",
"7  c #673A24",
"8  c #723A23",
"9  c #773822",
"0  c #2E4728",
"q  c #394728",
"w  c #3B552E",
"e  c #3D5E34",
"r  c #2E6D2D",
"t  c #30722F",
"y  c #356536",
"u  c #3B6234",
"i  c #356B34",
"p  c #386D37",
"a  c #336E39",
"s  c #3B6D3A",
"d  c #2E7237",
"f  c #357433",
"g  c #397235",
"h  c #367539",
"j  c #3C733B",
"k  c #357A3F",
"l  c #3D7B3D",
"z  c #494628",
"x  c #574927",
"c  c #4D552F",
"v  c #485B32",
"b  c #545D33",
"n  c #61472A",
"m  c #7B4427",
"M  c #625C2C",
"N  c #77542E",
"B  c #7B5539",
"V  c #436D3C",
"C  c #41763F",
"Z  c #417A3F",
"A  c #696136",
"S  c #7F6837",
"D  c #64753C",
"F  c #2E7543",
"G  c #3B7741",
"H  c #337C41",
"J  c #3D7D41",
"K  c #775442",
"L  c #4D674A",
"P  c #516F4E",
"I  c #427540",
"U  c #437C41",
"Y  c #497D46",
"T  c #4A7B49",
"R  c #5C7A40",
"E  c #51744D",
"W  c #507C50",
"Q  c #766554",
"!  c #BD4F1D",
"~  c #884729",
"^  c #8A4B2A",
"/  c #954A27",
"(  c #984A28",
")  c #8F542F",
"_  c #985029",
"`  c #995639",
"'  c #A84C26",
"]  c #A7572D",
"[  c #B8572A",
"{  c #AB5E37",
"}  c #B55C32",
"|  c #92713C",
" . c #B26236",
".. c #BC6134",
"X. c #BF6538",
"o. c #AD7239",
"O. c #C25F32",
"+. c #DE6B2C",
"@. c #CC6435",
"#. c #CC6A36",
"$. c #C56738",
"%. c #C36938",
"&. c #CC6D3A",
"*. c #D76C37",
"=. c #D56D3A",
"-. c #DB6C39",
";. c #CD793D",
":. c #DE7036",
">. c #D5713A",
",. c #DB723C",
"<. c #E46E2E",
"1. c #FE762F",
"2. c #E5753C",
"3. c #EC7439",
"4. c #E4793E",
"5. c #ED7A3E",
"6. c #F5753C",
"7. c #F57C3E",
"8. c #FC7C3A",
"9. c #975741",
"0. c #806251",
"q. c #A96245",
"w. c #B56A45",
"e. c #877564",
"r. c #A3776A",
"t. c #C97B48",
"y. c #DF7840",
"u. c #E37844",
"i. c #EB7B43",
"p. c #ED7E4B",
"a. c #F37B44",
"s. c #F27D49",
"d. c #3B8238",
"f. c #348042",
"g. c #3C8143",
"h. c #318457",
"j. c #448242",
"k. c #498445",
"l. c #458A44",
"z. c #498946",
"x. c #4C8649",
"c. c #468A49",
"v. c #4B8D49",
"b. c #518243",
"n. c #51824D",
"m. c #4B924B",
"M. c #51964E",
"N. c #558753",
"B. c #578E56",
"V. c #569555",
"C. c #599370",
"Z. c #698668",
"A. c #738366",
"S. c #6C996C",
"D. c #6E9875",
"F. c #779776",
"G. c #FB823E",
"H. c #9E8171",
"J. c #EE8144",
"K. c #ED834A",
"L. c #F58243",
"P. c #FF8945",
"I. c #F3824D",
"U. c #FE824A",
"Y. c #F58651",
"T. c #F48B52",
"R. c #FF8853",
"E. c #F88A54",
"W. c #DB9D78",
"Q. c #E49B75",
"!. c #858684",
"~. c #958984",
"^. c #839B87",
"/. c #9F968C",
"(. c #A29A8E",
"). c #B59A8D",
"_. c #A99D9E",
"`. c #8AAB89",
"'. c #B3A79D",
"]. c #99A3A3",
"[. c #9BACB3",
"{. c #A6A5A3",
"}. c #A1AFB2",
"|. c #B5B5B4",
" X c #E1A58A",
".X c #C6AEA1",
"XX c #C1B5AF",
"oX c #DBB3A7",
"OX c #A1C6A8",
"+X c #CFC2BA",
"@X c #ECC2AC",
"#X c #C4BBC3",
"$X c #CEDECE",
"%X c #DBCFD0",
"&X c #CED0D1",
"*X c #DBE6D9",
"=X c #EEE6EC",
"-X c #F9F2F8",
";X c #FDFFFF",
/* pixels */
"k.j.j.j.j.j.Z Z U U I U J I I U J G U Y c.e u c.j.j.l.l.l.j.j.j.",
"k.j.Z U Z Z Z j.k.s O $ e G G H U k H m.V . % M.j.l.l.l.j.j.j.j.",
"j.j.Z Z Z U k.j.k.s X o = 3 b D o.| | e ; & o j l.l.l.l.l.z.l.j.",
"g.Z U U z.v.U l k.G O ; 6 8 / *.6.6.@.> : 3 o w l.J k.k.z.v.l.j.",
"Z C U V.M.k.I I U j.# o ^ ] #.5.7.5.:.' 7 5 : z z.Z j.Z z.m.z.j.",
"j.Z Y V.x.U j U U j.0 = _ &.,.5.5.L.G...m 7 : z c.l.C g l.v.z.j.",
"Z k.n.x.U U U U G g.v ' &.=.&.4.7.7.L.4.} ~ < x g.m.B.D.S.v.z.b.",
"I C E T Y I U I j F A *.,.%.>.,.i.a.J.J.4.>.@.S d n.A.^.^.V.l.Z ",
"C V I T U Z U l G A ]  .X.%.>.4.u.K.K.K.G.P.P.;.a T P L E Y U j.",
"U C Z C Z Z U h h B ' ]  .%.>.4.i.K.I.L.a.P.P.8.o.G G C C C U U ",
"U Z U U Z Z r g G y 6 < ~  .,.4.i.K.K.2.3.5.<.R.W.G k Z C Y Z Z ",
"j.U I I j r S.$X*XOX^.0.n ) >.4.4.T.K.O.[ ! =.oXD.d Z Z Z C C Z ",
"Z Z U U t `.-X-X=X;X;X@X} / @.4.J.T.T.y.' ] (.C.f C C Z Z C U U ",
"j.Z Z f D.%X#X{.{.&X;X@X1.:.$.,.J.T.E.E.a.e.h.t j Z U U Z Z C U ",
"Z U Z Z F.Z.F.{.{.|.%XQ.3.G.>.,.s.Y.I.Y.R.t.g k U U j.j.Z C C Z ",
"U Z Z Y U f f A._.).t.u.4.G.5.u.p.p.p.I.s.2.D k Z U x.U Z Z Y Z ",
"j.U I C j U h Z e.r.w.} *.L.4.#.s.s.p.Y.p.*.D F C Z j.U U U U U ",
"Z Z Z U Z j U l C B ` ~ /  . .{ y.i.E.R.-.$.R G Z Z d.j.U U j.j.",
"Z Z U I I l I G l z < < , * < ). Xp.s.U.[ ) R H Z j.j.j.d.j.j.l.",
"U Z j U I I l U k x 9.K , : e.+XoXQ.p.a.( x b.U Z U Z k.j.Z j.l.",
"j.Z C C G U U U k x w.~.!.!.{.|.XX XT.7., x k.j.Z j.l.j.j.g.j.j.",
"j.U C C j Y U I f.M [ H.[.[.].|..XQ.G.} X 3 Z J Z k.j.Z j.k.j.U ",
"U U U C U j I G d.s ] w./.}.].'.t.+.3.6   3 j U j.l.d.l.k.k.U j.",
"U Z C C I U j U U h N ' ` Q Q q.! *. .O o ; j j.v.v.l d.l.j.Y j.",
"j.U Z Z C C C Z U g.v 9 < ; + < ( } N 0 % V s x.M.Z D.`.B.Z j.j.",
"j.j.Z U Z C I U U J V 5 > @ @ 7 m ~ n y u I Y x.v.j.C.H.N.d.j.U ",
"k.j.Z Y Z C U Z j g p z : $ $ 1 6 8 c f y V Y Y Z j.g g Z j.j.Y ",
"j.l Z j.U j s i u p p 3 & $ q - 4 5 e i s C Z j.j.j.Z Z U j.U j.",
"j.U U U U g s s p p p % . # z - 4 1 q G Z j.j.d.j.j.Z Y Y j.Y j.",
"j.Z U U Z g V W C i g e 0 y % & - & $ G Z l.j.l.j.Z Y j.Z j.Z j.",
"j.Z d.j.Z Z s h j h j j j h w + 2 w s U Z j.j.j.Z Z j.Z j.Z j.j.",
"j.k.j.j.k.j.j.U j.U U j j j j j l J U U Z Z j.l.Z j.Z j.j.j.Y j."
};
