/* XPM */
static char *result[] = {
/* columns rows colors chars-per-pixel */
"32 32 196 2 ",
"   c #360C0D",
".  c #2C1413",
"X  c #3B1815",
"o  c #2B2A1B",
"O  c #372718",
"+  c #332C1B",
"@  c #2B3621",
"#  c #393925",
"$  c #3C3B24",
"%  c #451A17",
"&  c #49251B",
"*  c #412C1D",
"=  c #54271B",
"-  c #5E311C",
";  c #682E12",
":  c #67321E",
">  c #73351A",
",  c #7C3B1E",
"<  c #4F2B21",
"1  c #562E21",
"2  c #453523",
"3  c #4C3A25",
"4  c #5C3424",
"5  c #623522",
"6  c #6B3A22",
"7  c #653B29",
"8  c #753722",
"9  c #2C4326",
"0  c #3A4728",
"q  c #3A532D",
"w  c #3A582E",
"e  c #3B5E33",
"r  c #286C2B",
"t  c #306F2E",
"y  c #3B6335",
"u  c #356936",
"i  c #366C36",
"p  c #3A6C39",
"a  c #2D7136",
"s  c #377335",
"d  c #34743B",
"f  c #3B743B",
"g  c #357A3F",
"h  c #3D7A3D",
"j  c #6C491B",
"k  c #444528",
"l  c #564729",
"z  c #50532D",
"x  c #495730",
"c  c #405B31",
"v  c #575E34",
"b  c #664326",
"n  c #754527",
"m  c #77532A",
"M  c #436E3F",
"N  c #4B6938",
"B  c #41773F",
"V  c #4A7339",
"C  c #417A3F",
"Z  c #5E773E",
"A  c #68763D",
"S  c #337D41",
"D  c #3D7D41",
"F  c #4D674A",
"G  c #516F4E",
"H  c #437540",
"J  c #437D41",
"K  c #497C46",
"L  c #4A7B49",
"P  c #547847",
"I  c #776656",
"U  c #65756C",
"Y  c #843918",
"T  c #843B21",
"R  c #97451D",
"E  c #A74518",
"W  c #BC4F1D",
"Q  c #894423",
"!  c #884828",
"~  c #964925",
"^  c #994C28",
"/  c #9A512B",
"(  c #955A37",
")  c #A74E27",
"_  c #AC5A2F",
"`  c #B95625",
"'  c #B4562D",
"]  c #B15B2E",
"[  c #BA5A33",
"{  c #BD5F32",
"}  c #8F713B",
"|  c #AD6639",
" . c #B56034",
".. c #BE6337",
"X. c #B37538",
"o. c #C8521D",
"O. c #C45F32",
"+. c #CB612E",
"@. c #CC6233",
"#. c #CA6836",
"$. c #D46633",
"%. c #D46B37",
"&. c #DB6B37",
"*. c #D46C3A",
"=. c #DB6D39",
"-. c #CD793D",
";. c #DB7139",
":. c #E26E2D",
">. c #E46B34",
",. c #E26E3A",
"<. c #E3733B",
"1. c #E37438",
"2. c #EA733A",
"3. c #EC7A3D",
"4. c #F3763C",
"5. c #F47A3E",
"6. c #FF7F39",
"7. c #A15F44",
"8. c #936E5D",
"9. c #AB6447",
"0. c #B26C4A",
"q. c #D46E45",
"w. c #C97A46",
"e. c #E27A42",
"r. c #ED7D43",
"t. c #ED7D4A",
"y. c #F37D44",
"u. c #F27F4B",
"i. c #3B8238",
"p. c #3B8143",
"a. c #308252",
"s. c #448242",
"d. c #4A8445",
"f. c #458944",
"g. c #498946",
"h. c #498849",
"j. c #4B8C49",
"k. c #51824D",
"l. c #4B924B",
"z. c #51964E",
"x. c #568755",
"c. c #578E56",
"v. c #569555",
"b. c #56926E",
"n. c #698567",
"m. c #6C9773",
"M. c #6F9970",
"N. c #8E815C",
"B. c #988274",
"V. c #B4846E",
"C. c #EE8247",
"Z. c #ED834B",
"A. c #FC8342",
"S. c #FF8945",
"D. c #F6844A",
"F. c #F2824D",
"G. c #E98856",
"H. c #F68753",
"J. c #FC8653",
"K. c #F58D54",
"L. c #E9905E",
"P. c #FF9253",
"I. c #D89B78",
"U. c #E79971",
"Y. c #89988C",
"T. c #99918D",
"R. c #878E90",
"E. c #8E9191",
"W. c #BB9F8B",
"Q. c #A19D93",
"!. c #86AA8A",
"~. c #9CB199",
"^. c #A5A09D",
"/. c #B6A69B",
"(. c #9BA5A4",
"). c #99A7AD",
"_. c #A6A6A5",
"`. c #A1AEB2",
"'. c #B3B7B6",
"]. c #D2A88F",
"[. c #C7AC9C",
"{. c #F1B08C",
"}. c #DBBAA9",
"|. c #C7B9B2",
" X c #D1BFB6",
".X c #E0BEA6",
"XX c #FDC39E",
"oX c #FCC9A7",
"OX c #E1C1B1",
"+X c #FED0B0",
"@X c #C9D1C6",
"#X c #F6DFCC",
"$X c #FCEAD6",
"%X c #F6ECED",
"&X c #FFFFF5",
"*X c #FAF9F9",
/* pixels */
"s.s.s.s.C s.C J h J B J D H J J D D D J f.w y f.p.s.f.f.f.f.s.s.",
"h.s.C J s.h C s.h.p o # e D S p.H g S l.N   # v.s.g.f.g.f.s.s.s.",
"s.s.C C C J s.J g.e   X % 3 v A | } } e * % O H f.f.f.s.f.g.s.s.",
"J C J s.g.j.h h s.y o & 4 8 ^ ;.6.4.O.- = < % q f.D s.f.g.j.d.s.",
"s.C K z.z.h.P J h p.@ & ! _ %.r.y.5.&./ 6 - = k f.C s.s.f.l.g.s.",
"C C K v.d.J ~.k.r p.9 & / #.<.3.3.y.5.{ n b = $ j.f.f g f.l.g.s.",
"C h.k.k.C a @X@XD r z ) *.-.#.=.4.4.D.<.] ! > z p.l.v.m.M.j.g.d.",
"B B P L s.i n.*X*X!.j o.*...{ &.2.r.C.C.3.%.@.} a k.n.B.Y.v.g.C ",
"M M M H J h u Y.%X&X.X9.R ] #.%.;.r.Z.C.A.S.S.-.d L G F G L s.J ",
"C C C C C C H U _.#X&X$X0.~ @.&.=.Z.D.D.y.A.S.6.X.S D H B B s.J ",
"s.C J C C B !._.^.OX+X$XXX .` &.,.F.Z.,.2.3.:.J.I.D d h D J C C ",
"s.J H H f V W.|.[.].{.oXoXK.+.$.<.K.Z.O.' W q.}.m.a B H H H J V ",
"C C J J D V ! 7.V.I.U.{.{.P.:.$.r.K.K.e.) ( Q.b.a h H J C B J J ",
"s.C J d.D D n Y Q 0.e.D.L.5.2.&.C.K.H.J.y.N.a.t f J J J J B H J ",
"C C J J J p.v T Y R ] ;.3.e.1.1.u.u.u.F.J.w.s g H J s.J J B B C ",
"C J C J J D H n , Q ~ ] ;.3.1.2.u.u.u.F.u.<.A g C J d.J C J J C ",
"J J C B h H p.N 8 T ! ~  .<.2.>.t.u.u.H.r.%.A S h J s.J C C J C ",
"J C C J H B D D v 6 , Q ~  .+.O.q.t.J.J.%...Z S C H D s.s.J s.f.",
"C C H H D B B D D l : ; > Y E V.].t.F.A.' ( P D h J s.s.s.i.s.f.",
"C C h H B B J J d l 9.I 4 b 8.|.}.U.t.4.~ b d.p.J J J s.J s.s.s.",
"s.C B H D H J D d b 9.T.E.R._.|. X].K.3.: l J s.C s.s.s.s.s.s.s.",
"s.J C B H J H h S m [ B.).)._.'.[.G.A.] . l h D C g.s.C s.s.J s.",
"J J B C B B h H i.N ' 0.Q.`.(./.q.:.2.4 . 2 h J f.f.i.f.s.h.s.s.",
"s.C B H B D H J s.g m ~ ( I I | ` =._ + X 2 p s.j.g.h i.f.d.J J ",
"s.C C C C B B J h d z T , O O n / [ m @ # y p d.z.C m.!.v.h s.s.",
"s.s.C H B B J C p s c 5 1 o + 6 n ! l u y K K d.j.s.n.B.c.g s.s.",
"s.s.h J H B B f i s y 3 & # $ 1 4 7 x a y H k.K K C f s C s.J s.",
"s.C C h.J C f i y i i 2 & $ 0 < 4 7 y i p B C C s.s.s.C C s.K s.",
"s.s.C s.s.C C H p i f # % 0 $ < 4 4 0 D C f.s.i.s.s.C d.C K s.s.",
"s.C C C s.C K x.C i i y 0 u + % < % # D C s.f.s.s.C C C s.s.s.C ",
"C s.s.C s.s.s.C h f f f s i 0 + # q u J C s.s.s.C C C s.C d.s.K ",
"s.s.s.s.f.s.f.s.s.s.C h f f f p h D J H C s.s.d.C s.s.s.s.C s.s."
};
