/* XPM */
static char *result[] = {
/* columns rows colors chars-per-pixel */
"32 32 198 2 ",
"   c #3E0D0E",
".  c #2D0E10",
"X  c #351914",
"o  c #2D2C1A",
"O  c #392B16",
"+  c #3A2C1D",
"@  c #2B311C",
"#  c #2E3C23",
"$  c #353620",
"%  c #3D3B23",
"&  c #461B17",
"*  c #482214",
"=  c #4B241C",
"-  c #442C1A",
";  c #55261B",
":  c #4E3015",
">  c #5F3016",
",  c #622C1C",
"<  c #66371F",
"1  c #76351C",
"2  c #7B3A1C",
"3  c #4D2A21",
"4  c #473B25",
"5  c #533523",
"6  c #5A3324",
"7  c #643324",
"8  c #633924",
"9  c #6B3A23",
"0  c #773C24",
"q  c #344A29",
"w  c #3C4E2C",
"e  c #365C2F",
"r  c #3B5F34",
"t  c #226E3D",
"y  c #336433",
"u  c #3B6335",
"i  c #366C36",
"p  c #376B39",
"a  c #3A6E3A",
"s  c #2C7133",
"d  c #397236",
"f  c #34743B",
"g  c #3D753C",
"h  c #367A3F",
"j  c #3D7A3D",
"k  c #464A2A",
"l  c #594729",
"z  c #455037",
"x  c #435B32",
"c  c #535630",
"v  c #664827",
"b  c #7A4628",
"n  c #7A542B",
"m  c #6E5E33",
"M  c #57672F",
"N  c #436D3E",
"B  c #4A6A39",
"V  c #41763F",
"C  c #48743E",
"Z  c #417A3F",
"A  c #5C773D",
"S  c #776E35",
"D  c #2C7946",
"F  c #3B7640",
"G  c #327C41",
"H  c #3D7D41",
"J  c #6F5B48",
"K  c #4D674A",
"L  c #586B4E",
"P  c #427540",
"I  c #4C7346",
"U  c #437C41",
"Y  c #4A7E47",
"T  c #4B7D4A",
"R  c #7F6F60",
"E  c #6E7B7D",
"W  c #84330D",
"Q  c #823D21",
"!  c #8A411D",
"~  c #8B4222",
"^  c #854528",
"/  c #964A26",
"(  c #9B4A26",
")  c #9C4E29",
"_  c #97522C",
"`  c #8A5230",
"'  c #A14C25",
"]  c #A84E29",
"[  c #AF582C",
"{  c #BA5526",
"}  c #BC5B33",
"|  c #BB602F",
" . c #AD6539",
".. c #B76133",
"X. c #AD743C",
"o. c #C65B29",
"O. c #CB5F2B",
"+. c #D5642E",
"@. c #DE642B",
"#. c #C66736",
"$. c #CB6A3D",
"%. c #D36434",
"&. c #DC6731",
"*. c #D36934",
"=. c #DC6D36",
"-. c #DC6D3C",
";. c #D67039",
":. c #ED6828",
">. c #F1712B",
",. c #E26B33",
"<. c #F16B32",
"1. c #EC7537",
"2. c #E37238",
"3. c #F07533",
"4. c #F27A3A",
"5. c #F97B3B",
"6. c #825A45",
"7. c #956B50",
"8. c #AB694D",
"9. c #AE6850",
"0. c #B17557",
"q. c #857C74",
"w. c #CB6F42",
"e. c #CF764C",
"r. c #CE7F55",
"t. c #E97A47",
"y. c #EB7E4C",
"u. c #F77D45",
"i. c #3B8238",
"p. c #40803F",
"a. c #3E8143",
"s. c #398247",
"d. c #448242",
"f. c #488545",
"g. c #458944",
"h. c #498946",
"j. c #4C864B",
"k. c #458D49",
"l. c #4B8D49",
"z. c #518344",
"x. c #51824D",
"c. c #4C914A",
"v. c #51964E",
"b. c #578B56",
"n. c #579756",
"m. c #498C6B",
"M. c #698367",
"N. c #6B9969",
"B. c #6F9670",
"V. c #739773",
"C. c #B08147",
"Z. c #8A8079",
"A. c #9A8579",
"S. c #AC826F",
"D. c #DF8359",
"F. c #F68142",
"G. c #FD8443",
"H. c #FA834D",
"J. c #E78B58",
"K. c #F58551",
"L. c #F98955",
"P. c #CF8E70",
"I. c #CF9476",
"U. c #E39269",
"Y. c #ED9E72",
"T. c #F49D70",
"R. c #F7A579",
"E. c #7D949B",
"W. c #7EA58F",
"Q. c #8E8782",
"!. c #819181",
"~. c #869C88",
"^. c #95908C",
"/. c #9C9F9F",
"(. c #B99988",
"). c #8FA889",
"_. c #96A4A8",
"`. c #A4A5A2",
"'. c #B5B0AA",
"]. c #A1AFB4",
"[. c #DFA285",
"{. c #F7AC8B",
"}. c #ECB89C",
"|. c #F5BB9A",
" X c #C8B0A3",
".X c #DCBBA8",
"XX c #D4C3B9",
"oX c #FBCAAB",
"OX c #F9CFB3",
"+X c #FBD4BA",
"@X c #CBCEC8",
"#X c #EBD7CA",
"$X c #FEECDD",
"%X c #C3D8E0",
"&X c #CFE4E9",
"*X c #FEF3E4",
"=X c #FFFEF5",
"-X c white",
/* pixels */
"f.d.Z d.d.Z U U U U h.f.F P U U j U U U g.a.Z g.d.g.g.g.g.p.g.g.",
"f.d.U U d.j Z d.d.a q u H H H j G G i k.d.O z n.i.g.g.g.p.g.f.p.",
"d.U U Z j d.d.U k.r . X % z P d.S M N.j.%   + Y f.f.g.d.g.h.f.p.",
"d.j U d.h.l.U U g.y X = 3 , b  .=.}..X: * = X u g.U f.g.h.l.f.f.",
"Z V U n.v.h.P P U F o = b / } :.R.-Xe.W < : & k l.Z Z p.h.c.h.p.",
"Z Z Y n.j.U P P U g.# & _ #.2.>.XX#X:.[ b v ; 4 l.g.Z j p.v.h.f.",
"d.f.x.x.U U P U U a.w 1 ..*.@.w.%X$X5.*./ b , k a.c.b.V.B.l.h.f.",
"P C I T U j U P F D m +.+.#.w.^.&X-XL.1.;.[ ] m f x.M.!.~.n.h.Z ",
"P N N U U U P j F B _ #.w.P.A.E.@X=XY.3.F.G.u.X.t Y L K I T d.U ",
"U V U P V U j H P b ( / S./.E ^.#X$XR.3.F.G.G.5.S G U P F P U U ",
"U Z U Z V U V Z F L ^ 2 6.q.q.'.+X*X|.>.4.F.4.u.J.F g Z V U U U ",
"d.P V U U U Z U H H J 1 ` 7.S.}.oX$X|.o.O.O.+.{.).s j U U V V V ",
"Z Z U U U U P j U H l 2 ! 0.I.{.OX+XT.;.( ] (.W.F g V Z U V U U ",
"Z U U Y U Z U Z H C 9 Q / $.t.Y.oX{.K.K.t.7.m.s d U U U Z V P U ",
"d.Z U U U Z j Z H I 0 Q ' o.&.U.Y.u.u.K.L.C.s h U Z d.U U V V Z ",
"Z U Z U P Z U V H B 9 Q ] #.,.-.,.<.F.K.H.2.A f Z d.j.U Z U U Z ",
"U U Z Z P U V V j N 9 ~ ) %.&.&.,.u.y.K.t.,.A G Z d.d.U Z U j d.",
"U Z Z Z P g Z Z a.x , ^ ) %.%.@.<.t.L.H.-.$.A j Z U d.d.U U d.d.",
"Z Z V P j F V U h l Q , ~ { o.+.D.y.H.H.} _ A h Z U p.d.d.d.d.g.",
"Z Z V P V U V U f v 9.J 0 ]  .(..XU.y.5.( v j.H Z U d.d.Z p.p.g.",
"d.Z V V F U U U h v 8.^.Q.Q./.@XXX[.J.5.1 l f.d.Z p.p.f.d.d.d.d.",
"d.U Z V P U U F i.n } Z._._.`.'. XU.G.| X k V H Z g.g.p.d.d.d.d.",
"U U P Z P j V Z s.B { 0./.]./.'.r.=.1.< . 5 g H f.h.p.p.f.d.U d.",
"d.Z V V V Z g Z U f ` ' 7.7.R 8.{ -...+ & 4 g H l.l.j i.g.f.d.U ",
"d.Z Z V V V V V H s.c Q 2 O - 0 _ } n # + x g j.v.Z V.).n.j d.d.",
"d.d.Z U V V V Z U j x 7 > @ o 9 b / v y p Y U j.h.f.M.Z.b.i.U d.",
"d.Z Z Y V V U U V i y 5 3 # $ 5 8 9 c s p N z.I U f.g d Z f.d.d.",
"p.d.Z h.U Z Z j y d p 4 & $ % 3 6 8 r p a P Z p.d.p.Z Z U U d.U ",
"f.U Z U d.p.U Y d d d + . # % 3 6 6 w F Z p.p.p.f.Z U U U Z f.Z ",
"p.Z Z Z p.d.T b.U i a e q e + & 3 & % F Z f.g.g.p.U U U U f.d.f.",
"d.Z p.d.p.f.f.Z Z g d g g i q + $ w F F Z p.f.p.Z Z p.f.Z f.U f.",
"p.f.p.g.p.f.f.p.d.U j j g g g g H H U P Z f.p.f.Z f.p.Z f.Z f.Z "
};
