/* XPM */
static char *result[] = {
/* columns rows colors chars-per-pixel */
"32 32 198 2 ",
"   c #2E090D",
".  c #361715",
"X  c #3A1E18",
"o  c #2B2419",
"O  c #392719",
"+  c #3B2A1B",
"@  c #29331E",
"#  c #35321E",
"$  c #2A3D22",
"%  c #393822",
"&  c #3D3C24",
"*  c #4B1C19",
"=  c #4E210B",
"-  c #462419",
";  c #4C261B",
":  c #4D291D",
">  c #572A1A",
",  c #53321A",
"<  c #64301E",
"1  c #73381D",
"2  c #4C2A20",
"3  c #552E22",
"4  c #4C3323",
"5  c #593224",
"6  c #653124",
"7  c #693B27",
"8  c #733D23",
"9  c #7D3A21",
"0  c #354427",
"q  c #2F582C",
"w  c #35542D",
"e  c #385B32",
"r  c #2E6931",
"t  c #3B6334",
"y  c #376C36",
"u  c #396A35",
"i  c #3B6C39",
"p  c #28743B",
"a  c #33733B",
"s  c #357438",
"d  c #3C743B",
"f  c #3C7A3D",
"g  c #414B2B",
"h  c #5A492B",
"j  c #48542E",
"k  c #5C542F",
"l  c #445A34",
"z  c #555E33",
"x  c #7C4529",
"c  c #7A542B",
"v  c #7A4C38",
"b  c #466637",
"n  c #446D3E",
"m  c #586535",
"M  c #41763F",
"N  c #4A723A",
"B  c #417A3F",
"V  c #5D733C",
"C  c #6D6F2C",
"Z  c #6B6337",
"A  c #746036",
"S  c #70713B",
"D  c #2D7545",
"F  c #367D41",
"G  c #3C7D41",
"H  c #3D7D4A",
"J  c #4D674A",
"K  c #506F4E",
"L  c #427540",
"P  c #437C41",
"I  c #4A7D45",
"U  c #4D7B49",
"Y  c #527A48",
"T  c #69654D",
"R  c #726C5E",
"E  c #767E5E",
"W  c #87380B",
"Q  c #83401F",
"!  c #B04C1A",
"~  c #B6511C",
"^  c #884628",
"/  c #844F2C",
"(  c #964826",
")  c #89542C",
"_  c #98522C",
"`  c #865635",
"'  c #995B35",
"]  c #AE5425",
"[  c #AC542B",
"{  c #BA5829",
"}  c #A65831",
"|  c #B65A32",
" . c #866A3A",
".. c #A7693D",
"X. c #BD6234",
"o. c #B26D38",
"O. c #D55313",
"+. c #C46233",
"@. c #CC6634",
"#. c #CE6D31",
"$. c #CA6936",
"%. c #C5643A",
"&. c #C66A39",
"*. c #CB6A3B",
"=. c #D66934",
"-. c #D26E39",
";. c #DD6A39",
":. c #D7713B",
">. c #DC713B",
",. c #E4652B",
"<. c #EE672B",
"1. c #F26B29",
"2. c #FF7A2C",
"3. c #E66A32",
"4. c #E97235",
"5. c #E4733C",
"6. c #ED713B",
"7. c #E7783A",
"8. c #F87933",
"9. c #F27B3E",
"0. c #98654A",
"q. c #8C6856",
"w. c #BB6947",
"e. c #AB7256",
"r. c #B17254",
"t. c #837160",
"y. c #AB7961",
"u. c #B77C60",
"i. c #D37444",
"p. c #D57348",
"a. c #E67A44",
"s. c #EE7E4A",
"d. c #F97745",
"f. c #F37E40",
"g. c #3B8238",
"h. c #41803F",
"j. c #3D8344",
"k. c #3A8249",
"l. c #358151",
"z. c #448242",
"x. c #488546",
"c. c #468943",
"v. c #498945",
"b. c #4C8649",
"n. c #478A48",
"m. c #4B8D49",
"M. c #51824D",
"N. c #4B914B",
"B. c #51964E",
"V. c #568A56",
"C. c #4E9250",
"Z. c #589656",
"A. c #538F69",
"S. c #6F9670",
"D. c #6F9970",
"F. c #8E8450",
"G. c #DF8657",
"H. c #F38143",
"J. c #FE8547",
"K. c #E28758",
"L. c #FF8B51",
"P. c #F8935E",
"I. c #D28A61",
"U. c #E8926A",
"Y. c #F39267",
"T. c #E99A76",
"R. c #FFA06A",
"E. c #F1A57B",
"W. c #869C88",
"Q. c #A9988F",
"!. c #8BAC8B",
"~. c #A9A49D",
"^. c #BCA496",
"/. c #BAA699",
"(. c #9DA6A6",
"). c #A5A4A3",
"_. c #AEB1AE",
"`. c #A9B6B9",
"'. c #B5BAB8",
"]. c #C8A38F",
"[. c #D4A389",
"{. c #CCAD9C",
"}. c #DCAD91",
"|. c #DCB195",
" X c #FFB991",
".X c #CAB7AD",
"XX c #D6B9A8",
"oX c #FEC09F",
"OX c #F8D0B9",
"+X c #B1C0C5",
"@X c #CECAC2",
"#X c #F6D8C6",
"$X c #FEEFDE",
"%X c #D2E2E6",
"&X c #E9EDED",
"*X c #EFFFFF",
"=X c #F9FCF7",
"-X c #FFFEFD",
/* pixels */
"x.z.h.z.P B P B G P n.I G L B P P G P P x.B h.z.x.x.c.c.c.c.h.c.",
"x.z.B P z.B B z.P d w t H H G f F f F N.b o M.Z.f c.h.x.h.c.z.c.",
"z.z.P B B z.x.h.n.e   X & l d z.S V Y i -   l C.h.c.c.x.h.m.z.I ",
"P f P z.x.m.P B n.e . - ; < c &.5.:.' + * O O P x.B c.c.m.m.c.z.",
"B M P Z.B.x.L L z.G o ; x _ +.9.9.6.{ x , > - d b.L L G v.m.c.h.",
"h.B I Z.b.P G P P z.$ * _ $.5.9.f.f.=.' q.> : b N.x.f G c.B.b.c.",
"P x.M.M.P B L P B G g 9 X.=.:.9.H.H.9.~ {.q.= b j.N.A.S.D.C.v.z.",
"L M U Y P B L M M D A =.=.&.*.7.f.H.8.>.&X[.W N a M.S.F.W.Z.v.B ",
"L n n P P P L G f b _ %.+.&.@.#.7.J.7./.*X X1.V D U K J K b.B h.",
"P M M P L P f f L x ( _ } { *.G.P.K.~.%X-XR.2.-.N F P L M M P z.",
"h.M P P P B B B L J ^ 9 ) ] [.#X].~.'.*X=XH.1.L.q.p d B P P M M ",
"z.P L L B P B M B H R v ) { [.@X_._.@X=XOXO.H.XXC.s B M P N B B ",
"B B P P P P P M P d k.T [ *.I.|..XXX#X$XT.%.~.A.s f L P P L P P ",
"P P P I P P P B P f d ` +.@.K.}.}.oXOX$X[.E l.r f L P P P M L P ",
"B B P P P P B B P F m | @.=.G.U.E.oX#XOXY.C p P M P z.z.P L M B ",
"z.B P B L f f L B F Z | *.-.,.4.T.oXoXY.d.o.a f B P x.P B P P B ",
"P P B B M M B M L L / | +.$.3.;.I.Y.L.a.6.o.G d f P z.B B B P B ",
"h.B B P M G B M H z ^ ( [ @.4.;.3.1.5.s.-...f G P P j.z.P z.h.x.",
"B B M L M M M P a c w.` ! <.<.<.,.+.p.;.[  .G P P B z.P B c.c.c.",
"P B L L f M M P p ` U.Q.e.*.%.r.y.e.i.{ 9 Z j.P B P z.z.h.B h.c.",
"P P M M M P L G a ) U..X`.(.).).Q.u.:.] , m j.z.B h.x.z.z.f z.z.",
"z.P M M G P P f a c p./.+X`..X'.].p.>.8 . z a P h.h.x.z.z.c.P z.",
"P I M M L M M f j.m { e.).`.(.^.p.4.+.- O j f P x.c.h.h.x.x.z.z.",
"h.M M P L f M P G G / ( 0.R t...{ 5.) o * 0 G L m.m.g.g.h.x.P I ",
"z.B B B M M M B h.j.k 9 1 O , Q } | h $ 4 i i b.B.B S.!.A.f P z.",
"x.h.B P M M L P B j.l 6 , @ + 7 ^ ^ j r y L I b.m.z.S.F.V.f z.P ",
"h.z.B I M M P B f f u 5 3 $ # 5 6 7 e y u G b.I P z.d d B z.z.P ",
"h.h.B x.z.B B f d y u 4 ; 0 4 2 5 h y y i n B h.z.h.B B P z.I z.",
"z.z.B z.z.h.P I d d u + . $ & 2 3 4 e i B h.x.h.x.B P P P P z.I ",
"z.B M B z.h.U V.B y d w 0 q O X * X w G B z.h.c.h.B I z.P x.z.z.",
"h.B f z.c.c.x.z.B d d d f y % O % w i P P z.z.z.B B z.P z.P P z.",
"x.x.z.B c.h.x.P h.h.f f d d d d G G P P B h.z.x.h.h.P z.P z.z.I "
};
