/* XPM */
static char *result[] = {
/* columns rows colors chars-per-pixel */
"32 32 198 2 ",
"   c #29060B",
".  c #261813",
"X  c #321412",
"o  c #311A15",
"O  c #3C1A15",
"+  c #2A2718",
"@  c #36271A",
"#  c #25351E",
"$  c #283521",
"%  c #373A23",
"&  c #431916",
"*  c #5D290D",
"=  c #41261A",
"-  c #4C251B",
";  c #4A2A1D",
":  c #57281B",
">  c #46321F",
",  c #58311A",
"<  c #67331B",
"1  c #733A1D",
"2  c #4F2D21",
"3  c #5B2C22",
"4  c #463421",
"5  c #473A25",
"6  c #533123",
"7  c #573822",
"8  c #673724",
"9  c #763A21",
"0  c #743F29",
"q  c #2B4426",
"w  c #324325",
"e  c #344A28",
"r  c #37562E",
"t  c #355A31",
"y  c #3A5D32",
"u  c #266929",
"i  c #31712E",
"p  c #2F6F38",
"a  c #356434",
"s  c #3A6434",
"d  c #356B36",
"f  c #396D36",
"g  c #3B6C39",
"h  c #2F7238",
"j  c #397536",
"k  c #33723C",
"l  c #3C743B",
"z  c #347838",
"x  c #3D7A3D",
"c  c #4A4C2B",
"v  c #544429",
"b  c #535A2E",
"n  c #5E4E3C",
"m  c #555430",
"M  c #6B422B",
"N  c #784928",
"B  c #61552E",
"V  c #775330",
"C  c #795C30",
"Z  c #436335",
"A  c #436E3F",
"S  c #4E6D39",
"D  c #41763F",
"F  c #417A3F",
"G  c #5C773E",
"H  c #616F32",
"J  c #72703C",
"K  c #2D7842",
"L  c #347C40",
"P  c #3C7D42",
"I  c #4D674A",
"U  c #506F4E",
"Y  c #437541",
"T  c #4C7346",
"R  c #437C41",
"E  c #497C45",
"W  c #4E7D4A",
"Q  c #517947",
"!  c #5D6C51",
"~  c #6B7254",
"^  c #813D1C",
"/  c #92411E",
"(  c #844626",
")  c #894525",
"_  c #834A2D",
"`  c #8D4A2A",
"'  c #974826",
"]  c #994C28",
"[  c #8A552C",
"{  c #96512E",
"}  c #9A502C",
"|  c #854A33",
" . c #845737",
".. c #945735",
"X. c #A44C2B",
"o. c #A4542C",
"O. c #AB5429",
"+. c #AD592E",
"@. c #B75A2E",
"#. c #A75832",
"$. c #AB5A32",
"%. c #BB5D30",
"&. c #B76033",
"*. c #BC6234",
"=. c #A97135",
"-. c #D15D26",
";. c #DC6324",
":. c #C46535",
">. c #C56836",
",. c #CB6935",
"<. c #CA6939",
"1. c #D26B36",
"2. c #DF6C34",
"3. c #D5653D",
"4. c #D16D3A",
"5. c #DB6F39",
"6. c #D6743D",
"7. c #EA7436",
"8. c #E4753C",
"9. c #EA7A3E",
"0. c #F37C3D",
"q. c #875345",
"w. c #8E6041",
"e. c #A46344",
"r. c #B5714F",
"t. c #A36E55",
"y. c #927C70",
"u. c #A77A65",
"i. c #CE6944",
"p. c #DE7A43",
"a. c #C47750",
"s. c #E77B42",
"d. c #EC7E43",
"f. c #F47E40",
"g. c #3B8238",
"h. c #41803F",
"j. c #328040",
"k. c #3C8243",
"l. c #448242",
"z. c #488546",
"x. c #458943",
"c. c #498945",
"v. c #4D864A",
"b. c #478B48",
"n. c #4B8C49",
"m. c #51834D",
"M. c #4C904B",
"N. c #51964E",
"B. c #578E56",
"V. c #559454",
"C. c #599657",
"Z. c #5C8F71",
"A. c #678366",
"S. c #649864",
"D. c #6F9670",
"F. c #FF823E",
"G. c #92857D",
"H. c #B38874",
"J. c #BC9077",
"K. c #ED854B",
"L. c #F38143",
"P. c #FC8342",
"I. c #F1864B",
"U. c #FB8949",
"Y. c #F6925D",
"T. c #CB8B6A",
"R. c #D48F6A",
"E. c #F08F69",
"W. c #F29D7B",
"Q. c #928C88",
"!. c #8A9D88",
"~. c #9E938B",
"^. c #AE998C",
"/. c #B69483",
"(. c #AD9C93",
"). c #8AA989",
"_. c #A6A19A",
"`. c #9DA2A0",
"'. c #A5A3A2",
"]. c #ADAAAA",
"[. c #EAA490",
"{. c #F1B798",
"}. c #D9B6A1",
"|. c #C5BBB9",
" X c #A9C9AF",
".X c #BECFBB",
"XX c #A9BBC1",
"oX c #C1C9CB",
"OX c #E0DEDE",
"+X c #D7DDE0",
"@X c #DFECF2",
"#X c #E9EFE8",
"$X c #F9EEE9",
"%X c #EBF1EC",
"&X c #FDF0E8",
"*X c #E1EFF1",
"=X c #E2F2F8",
"-X c #FFFFFF",
/* pixels */
"z.l.h.l.R R R R Y R z.R Y P Y R R F R l.l.F x.g.l.z.x.x.h.h.x.x.",
"z.l.F R l.x F l.R P e g P P x x L L P n.e @ S.V.g.z.x.x.x.x.l.l.",
"l.l.R F F R l.R b.r   O 5 Z Y Q J G E y & X T M.l.z.x.h.h.n.z.h.",
"R x R l.c.n.l.F b.t o - 2 8 [ 6.8.5.N = - O e b.R R z.z.n.n.c.l.",
"R F R V.V.c.l Y E l + : _ o.1.f.0.7.O.9 6 - % l.z.F R x c.M.c.h.",
"h.F E C.v.F Y R R k.$ : o.1.9.f.f.f.1.( 8 , 5 l b.z.x j c.M.n.h.",
"R z.m.m.R R R R l P c ' >.4.6.f.f.f.s.+.( < 7 x R M.B.D.D.c.c.z.",
"Y D T W R Y R l l K  .2.4.>.4.s.f.K.L.s.,.@. .z l m.S.G.!.S.c.F ",
"Y A A Y P D Y P l b } *.*.>.4.6.L.I.K.L.F.P.p.l K Q U I U W h.l.",
"R D F F R R F x Y | ) { #.*.,.6.K.K.I.L.P.U.P.=.l P Y D D D F l.",
"R F R F R D D F P ! | ^ ` &.1.8.s.K.L.9.L.7.f.E.T k F x D R F F ",
"l.F Y R R R F F P P ~ q...+.,.8.d.U.F.7.;.-.[.).p l F R R D D F ",
"F F R R R R R D Y l k.A.w.] :.2.d.Y.Y.s.<.H.Z.u D Y D R R D R R ",
"F R R E R R R F D D j.S ) o.1.7.s.{.&X$X$X@X XY u R R R Y F D R ",
"R F R R R F F F R L F ) ] <.0.0.p.}.=X*X+XOX-X%Xm.i z.R R Y D F ",
"l.F F R D F D F R P C ' >.9.8.,.>.J.].].'.].|.-X#Xj h.R F R R F ",
"F R F F Y R F D P S X.%.,.,.%.+.$.#.u.(.]._.!.)..XS.j h.F R h.R ",
"l.R D F D l F F z B i.a.' ] ] ] ' $.t.y.H.~ z u D z.F l.l.R h.z.",
"F F D Y x Y D R k [ E./.< * 1 1 9 | V | ) H z F j F h.l.h.z.z.h.",
"F F D D D P D F h [ W.|.G.M 8 8 V  .$.' < Q k.R F F h.h.h.h.h.x.",
"l.F D D l R R P h [ R.|.oX'.~.Q.~.r.,.1 , S k.l.h.h.c.h.h.F h.z.",
"l.R D D P E Y P K C 3.^.XXXXXX|.R.2.+.O > f l R h.h.z.h.z.z.l.h.",
"R R R D F l l F k.S O.e.(.`.(.T.2.7.9 . ; y x P z.c.h.h.z.z.l.R ",
"l.F D D D D R F P x N /  .n C O.:.:.7 . ; t l R n.n.g.h.h.l.R z.",
"l.F Y D D D D R R k.m 9 , + , ` } ` c q y l g v.N.F D.).V.F h.h.",
"l.l.R R D D D R F k.Z 3 6 # 4 0 N M a k g T R m.n.E A.G.B.x l.l.",
"l.R F R D l F R x x s 6 ; w 4 7 8 v d d s A z.R h.z.A j F R l.R ",
"h.h.R z.F F F l l g a - & w 6 6 8 c d s g D F F h.h.h.F F z.F z.",
"l.R R l.F h.F E l f f % + w @ 2 3 4 t a f x h.z.l.h.R R h.z.F z.",
"l.F R F h.F E B.F f j d k a o O 2 % a a f l h.x.l.R R R E h.E h.",
"h.F F h.z.h.l.R F l l g g f r e t g L s f l F z.F R l.l.l.G h.z.",
"z.z.h.x.h.z.z.l.h.h.F x l l x x x P Y R F h.z.l.h.R F l.l.z.h.F "
};
