/* XPM */
static char *result[] = {
/* columns rows colors chars-per-pixel */
"32 32 141 2 ",
"   c #0C1E1F",
".  c #0E251F",
"X  c #0E1F22",
"o  c #0F2421",
"O  c #0E2920",
"+  c #112524",
"@  c #122A23",
"#  c #132629",
"$  c #152C29",
"%  c #153224",
"&  c #193425",
"*  c #173926",
"=  c #1B3B26",
"-  c #17332A",
";  c #18332C",
":  c #163929",
">  c #1B3B2A",
",  c #193630",
"<  c #1E3E31",
"1  c #203728",
"2  c #223F29",
"3  c #1D432C",
"4  c #1F4A2D",
"5  c #1F4131",
"6  c #22442A",
"7  c #22492D",
"8  c #2B4F2F",
"9  c #24502D",
"0  c #2A552D",
"q  c #2B592E",
"w  c #30512F",
"e  c #224333",
"r  c #244C32",
"t  c #2B4F3B",
"y  c #265132",
"u  c #2A5332",
"i  c #2E5C35",
"p  c #2B5339",
"a  c #2D593C",
"s  c #315631",
"d  c #315D35",
"f  c #335C3A",
"g  c #2F6032",
"h  c #346434",
"j  c #396334",
"k  c #356B34",
"l  c #396C36",
"z  c #36643B",
"x  c #3B663D",
"c  c #366B3D",
"v  c #3B6C3B",
"b  c #377135",
"n  c #397436",
"m  c #3C733B",
"M  c #3E793B",
"N  c #416F37",
"B  c #416D3E",
"V  c #42743D",
"C  c #427B3E",
"Z  c #4B7D3E",
"A  c #2D5B42",
"S  c #366542",
"D  c #3B6444",
"F  c #3C6D41",
"G  c #3E7342",
"H  c #3E7B41",
"J  c #426E40",
"K  c #427541",
"L  c #4A7543",
"P  c #437D41",
"I  c #4A7D42",
"U  c #477A4A",
"Y  c #4C7D4A",
"T  c #4A7D53",
"R  c #41803F",
"E  c #4D823F",
"W  c #458342",
"Q  c #4C8244",
"!  c #468944",
"~  c #4A8A45",
"^  c #45874D",
"/  c #4C844A",
"(  c #4B8D49",
")  c #528545",
"_  c #548A45",
"`  c #5A8E46",
"'  c #50834B",
"]  c #548B48",
"[  c #5A8F4A",
"{  c #4B9149",
"}  c #4E9A48",
"|  c #569446",
" . c #5B9346",
".. c #5D9B42",
"X. c #53944D",
"o. c #5C954A",
"O. c #569D4B",
"+. c #5D994C",
"@. c #4C8550",
"#. c #539451",
"$. c #589453",
"%. c #559B51",
"&. c #5B9C50",
"*. c #5D945E",
"=. c #62954B",
"-. c #639D4A",
";. c #699E4E",
":. c #54A34C",
">. c #59A450",
",. c #65A14E",
"<. c #6BA54E",
"1. c #61A94D",
"2. c #6CAA4F",
"3. c #71A94D",
"4. c #7BB34E",
"5. c #65A451",
"6. c #69A651",
"7. c #6CAC52",
"8. c #72AE52",
"9. c #6EB153",
"0. c #73B253",
"q. c #7BB552",
"w. c #7BBA55",
"e. c #5C8063",
"r. c #7FC057",
"t. c #80B74E",
"y. c #82BD4F",
"u. c #83BC53",
"i. c #88BD50",
"p. c #92C64E",
"a. c #85C456",
"s. c #8CC354",
"d. c #82C659",
"f. c #89CA59",
"g. c #94C653",
"h. c #94CB55",
"j. c #9ACC54",
"k. c #96D159",
"l. c #99D359",
"z. c #A7DA58",
"x. c #A8DB59",
/* pixels */
"W W R W P P P P P P P K L m v z F I ) Q W W W R W ! ! ! ! R ! ! ",
"! W H P W M C H M K v Q _ ) _ [ =.<.q.;.Q G T @.M ! ! ! W ! ! R ",
"W P P P C P W M v J J O.7.w.l.x.z.k.f.w.-.L D [ ~ H ! ! ! ~ ! ! ",
"P P P P ! ( H L [ o.5.6.0.d.l.x.z.k.w.7.7.,.o.7.8.] H ! ! ~ ~ ! ",
"P V U &.#.W z =.f.f.h.q.7.8.w.s.g.s.4.-.<.a.d.9.3.6.] P ! { { ! ",
"P P I $.' Q ( 7.s.h.j.s.0.,.5.<.q.h.s.i.s.s.r.0.7.2.+.Q ! { ( ^ ",
"H Q ' Y / O.>.1.y.h.j.g.8.&.%.<.i.j.g.j.j.s.0.7.7.7.Q ' *.( } ( ",
"K K L / P ( :.O.q.g.j.s.0.6.5.w.i.j.p.g.j.i.w.8.0.8.I F e.e.%.W ",
"V J B x v W } { +.u.s.u.0.5.7.0.u.u.u.u.s.u.w.0.0.2.] B D U W C ",
"P C m z G | { ^ X.,.7.7.6.7.7.9.8.0.0.q.w.0.9.7.,.,.2.-.I v M C ",
"P P C c W ..( %.5.&.| +.5.0.0.7.7.7.0.0.7.o.[ -.0.<.,.2. .K G V ",
"P P m V l k _ 7.w.] z K +.s.w.7.7.0.0.7.[ m v  .7.o.o. .I S v P ",
"P m V E j h C o.[ f e f ) 0.8.7.7.s.q.O.Q V ) o.=.=.` x y a G P ",
"M c N ~ V d x F F A S z K I ] o.q.h. .E | ,.<. .` ;._ r e A G P ",
"P m z s s d l v K / ( Q F v K I -.-.C C _ .. ._ ) ` B e t A G P ",
"C H d 1 6 j V Q +.5.-.$._ U G I Z Z V V Z Z V Z I _ D F K S S K ",
"C v 0 w 0 k E  .<.7.-.] [ ] / Q Z Z Z C N j V Z I I ` -.C i a P ",
"M l l N w k Z Z _ ] [ I I Q ) I V E V C Z Z _ Z B ) 2. .d p S W ",
"V C C j 6 q N V l c I Q z d d d q j V ) ;.=.C p u v V h u f F W ",
"M V j 6 % 6 q h y y L ] i 3 7 y u N Z _ <.I r 3 7 3 7 e y e a W ",
"C n u = & 1 7 6 * 3 i L l d i z  .` m F v f d h N Z j 3 5 5 a W ",
"R M 8 & & & 6 & & & 3 u V ] P _ ,.Q i 4 3 p v ` t.4.E u 4 < p G ",
"C V d 1 % + & > 7 7 * 3 z I L G l h r 3 e d v ) ` V v i e < p H ",
"M m j 6 @ . : r i 9 = & 3 r y y r r r 5 2 y i d 0 7 7 5 > e f P ",
"P m l u & & 3 4 7 - @ + + $ r y r r r > > > = = 3 * - ; , t K W ",
"R M n h 0 > % o @ @ @ # + # $ ; ; ; - - ; ; : * - - - ; $ i P P ",
"R M l n h 2 # + X . O O @ o # @ O # % % - : * $ @ @ @ @ 6 h C W ",
"M M n n h 0 6 $ X . O . o o . . o O @ . @ @ @ + @ % 6 0 g v P P ",
"C M n n b k b y % O . .   @ . . $ @ . @ % @ @ * 9 q h n l M P P ",
"P C m n n b v Y g q 0 6 = & = 7 7 & = q q 4 6 0 k k l m V V P W ",
"W M V M M M M n M n M n k h k b k q l n k l n m b n m M P P P Q ",
"^ ~ R R R R R M M n M n n C M M M V m m m R R R C M P W P P P W "
};
